<?xml version="1.0" encoding="utf-8" standalone="no"?>
<!DOCTYPE svg PUBLIC "-//W3C//DTD SVG 1.1//EN"
  "http://www.w3.org/Graphics/SVG/1.1/DTD/svg11.dtd">
<svg xmlns:xlink="http://www.w3.org/1999/xlink" width="864pt" height="432pt" viewBox="0 0 864 432" xmlns="http://www.w3.org/2000/svg" version="1.1">
 <metadata>
  <rdf:RDF xmlns:dc="http://purl.org/dc/elements/1.1/" xmlns:cc="http://creativecommons.org/ns#" xmlns:rdf="http://www.w3.org/1999/02/22-rdf-syntax-ns#">
   <cc:Work>
    <dc:type rdf:resource="http://purl.org/dc/dcmitype/StillImage"/>
    <dc:date>2024-04-16T14:18:44.467142</dc:date>
    <dc:format>image/svg+xml</dc:format>
    <dc:creator>
     <cc:Agent>
      <dc:title>Matplotlib v3.8.2, https://matplotlib.org/</dc:title>
     </cc:Agent>
    </dc:creator>
   </cc:Work>
  </rdf:RDF>
 </metadata>
 <defs>
  <style type="text/css">*{stroke-linejoin: round; stroke-linecap: butt}</style>
 </defs>
 <g id="figure_1">
  <g id="patch_1">
   <path d="M 0 432 
L 864 432 
L 864 0 
L 0 0 
z
" style="fill: #ffffff"/>
  </g>
  <g id="axes_1">
   <g id="patch_2">
    <path d="M 52.94 390.04 
L 813.04 390.04 
L 813.04 26.88 
L 52.94 26.88 
z
" style="fill: #ffffff"/>
   </g>
   <g id="matplotlib.axis_1">
    <g id="xtick_1">
     <g id="line2d_1">
      <path d="M 87.110746 390.04 
L 87.110746 26.88 
" clip-path="url(#pa5d9b59bb7)" style="fill: none; stroke-dasharray: 1.85,0.8; stroke-dashoffset: 0; stroke: #b0b0b0; stroke-opacity: 0.5; stroke-width: 0.5"/>
     </g>
     <g id="line2d_2">
      <defs>
       <path id="m1c3353c84d" d="M 0 0 
L 0 3.5 
" style="stroke: #000000; stroke-width: 0.8"/>
      </defs>
      <g>
       <use xlink:href="#m1c3353c84d" x="87.110746" y="390.04" style="stroke: #000000; stroke-width: 0.8"/>
      </g>
     </g>
     <g id="text_1">
      <!-- 2019 -->
      <g transform="translate(74.385746 404.638438) scale(0.1 -0.1)">
       <defs>
        <path id="DejaVuSans-32" d="M 1228 531 
L 3431 531 
L 3431 0 
L 469 0 
L 469 531 
Q 828 903 1448 1529 
Q 2069 2156 2228 2338 
Q 2531 2678 2651 2914 
Q 2772 3150 2772 3378 
Q 2772 3750 2511 3984 
Q 2250 4219 1831 4219 
Q 1534 4219 1204 4116 
Q 875 4013 500 3803 
L 500 4441 
Q 881 4594 1212 4672 
Q 1544 4750 1819 4750 
Q 2544 4750 2975 4387 
Q 3406 4025 3406 3419 
Q 3406 3131 3298 2873 
Q 3191 2616 2906 2266 
Q 2828 2175 2409 1742 
Q 1991 1309 1228 531 
z
" transform="scale(0.015625)"/>
        <path id="DejaVuSans-30" d="M 2034 4250 
Q 1547 4250 1301 3770 
Q 1056 3291 1056 2328 
Q 1056 1369 1301 889 
Q 1547 409 2034 409 
Q 2525 409 2770 889 
Q 3016 1369 3016 2328 
Q 3016 3291 2770 3770 
Q 2525 4250 2034 4250 
z
M 2034 4750 
Q 2819 4750 3233 4129 
Q 3647 3509 3647 2328 
Q 3647 1150 3233 529 
Q 2819 -91 2034 -91 
Q 1250 -91 836 529 
Q 422 1150 422 2328 
Q 422 3509 836 4129 
Q 1250 4750 2034 4750 
z
" transform="scale(0.015625)"/>
        <path id="DejaVuSans-31" d="M 794 531 
L 1825 531 
L 1825 4091 
L 703 3866 
L 703 4441 
L 1819 4666 
L 2450 4666 
L 2450 531 
L 3481 531 
L 3481 0 
L 794 0 
L 794 531 
z
" transform="scale(0.015625)"/>
        <path id="DejaVuSans-39" d="M 703 97 
L 703 672 
Q 941 559 1184 500 
Q 1428 441 1663 441 
Q 2288 441 2617 861 
Q 2947 1281 2994 2138 
Q 2813 1869 2534 1725 
Q 2256 1581 1919 1581 
Q 1219 1581 811 2004 
Q 403 2428 403 3163 
Q 403 3881 828 4315 
Q 1253 4750 1959 4750 
Q 2769 4750 3195 4129 
Q 3622 3509 3622 2328 
Q 3622 1225 3098 567 
Q 2575 -91 1691 -91 
Q 1453 -91 1209 -44 
Q 966 3 703 97 
z
M 1959 2075 
Q 2384 2075 2632 2365 
Q 2881 2656 2881 3163 
Q 2881 3666 2632 3958 
Q 2384 4250 1959 4250 
Q 1534 4250 1286 3958 
Q 1038 3666 1038 3163 
Q 1038 2656 1286 2365 
Q 1534 2075 1959 2075 
z
" transform="scale(0.015625)"/>
       </defs>
       <use xlink:href="#DejaVuSans-32"/>
       <use xlink:href="#DejaVuSans-30" x="63.623047"/>
       <use xlink:href="#DejaVuSans-31" x="127.246094"/>
       <use xlink:href="#DejaVuSans-39" x="190.869141"/>
      </g>
     </g>
    </g>
    <g id="xtick_2">
     <g id="line2d_3">
      <path d="M 225.538299 390.04 
L 225.538299 26.88 
" clip-path="url(#pa5d9b59bb7)" style="fill: none; stroke-dasharray: 1.85,0.8; stroke-dashoffset: 0; stroke: #b0b0b0; stroke-opacity: 0.5; stroke-width: 0.5"/>
     </g>
     <g id="line2d_4">
      <g>
       <use xlink:href="#m1c3353c84d" x="225.538299" y="390.04" style="stroke: #000000; stroke-width: 0.8"/>
      </g>
     </g>
     <g id="text_2">
      <!-- 2020 -->
      <g transform="translate(212.813299 404.638438) scale(0.1 -0.1)">
       <use xlink:href="#DejaVuSans-32"/>
       <use xlink:href="#DejaVuSans-30" x="63.623047"/>
       <use xlink:href="#DejaVuSans-32" x="127.246094"/>
       <use xlink:href="#DejaVuSans-30" x="190.869141"/>
      </g>
     </g>
    </g>
    <g id="xtick_3">
     <g id="line2d_5">
      <path d="M 364.345104 390.04 
L 364.345104 26.88 
" clip-path="url(#pa5d9b59bb7)" style="fill: none; stroke-dasharray: 1.85,0.8; stroke-dashoffset: 0; stroke: #b0b0b0; stroke-opacity: 0.5; stroke-width: 0.5"/>
     </g>
     <g id="line2d_6">
      <g>
       <use xlink:href="#m1c3353c84d" x="364.345104" y="390.04" style="stroke: #000000; stroke-width: 0.8"/>
      </g>
     </g>
     <g id="text_3">
      <!-- 2021 -->
      <g transform="translate(351.620104 404.638438) scale(0.1 -0.1)">
       <use xlink:href="#DejaVuSans-32"/>
       <use xlink:href="#DejaVuSans-30" x="63.623047"/>
       <use xlink:href="#DejaVuSans-32" x="127.246094"/>
       <use xlink:href="#DejaVuSans-31" x="190.869141"/>
      </g>
     </g>
    </g>
    <g id="xtick_4">
     <g id="line2d_7">
      <path d="M 502.772656 390.04 
L 502.772656 26.88 
" clip-path="url(#pa5d9b59bb7)" style="fill: none; stroke-dasharray: 1.85,0.8; stroke-dashoffset: 0; stroke: #b0b0b0; stroke-opacity: 0.5; stroke-width: 0.5"/>
     </g>
     <g id="line2d_8">
      <g>
       <use xlink:href="#m1c3353c84d" x="502.772656" y="390.04" style="stroke: #000000; stroke-width: 0.8"/>
      </g>
     </g>
     <g id="text_4">
      <!-- 2022 -->
      <g transform="translate(490.047656 404.638438) scale(0.1 -0.1)">
       <use xlink:href="#DejaVuSans-32"/>
       <use xlink:href="#DejaVuSans-30" x="63.623047"/>
       <use xlink:href="#DejaVuSans-32" x="127.246094"/>
       <use xlink:href="#DejaVuSans-32" x="190.869141"/>
      </g>
     </g>
    </g>
    <g id="xtick_5">
     <g id="line2d_9">
      <path d="M 641.200209 390.04 
L 641.200209 26.88 
" clip-path="url(#pa5d9b59bb7)" style="fill: none; stroke-dasharray: 1.85,0.8; stroke-dashoffset: 0; stroke: #b0b0b0; stroke-opacity: 0.5; stroke-width: 0.5"/>
     </g>
     <g id="line2d_10">
      <g>
       <use xlink:href="#m1c3353c84d" x="641.200209" y="390.04" style="stroke: #000000; stroke-width: 0.8"/>
      </g>
     </g>
     <g id="text_5">
      <!-- 2023 -->
      <g transform="translate(628.475209 404.638438) scale(0.1 -0.1)">
       <defs>
        <path id="DejaVuSans-33" d="M 2597 2516 
Q 3050 2419 3304 2112 
Q 3559 1806 3559 1356 
Q 3559 666 3084 287 
Q 2609 -91 1734 -91 
Q 1441 -91 1130 -33 
Q 819 25 488 141 
L 488 750 
Q 750 597 1062 519 
Q 1375 441 1716 441 
Q 2309 441 2620 675 
Q 2931 909 2931 1356 
Q 2931 1769 2642 2001 
Q 2353 2234 1838 2234 
L 1294 2234 
L 1294 2753 
L 1863 2753 
Q 2328 2753 2575 2939 
Q 2822 3125 2822 3475 
Q 2822 3834 2567 4026 
Q 2313 4219 1838 4219 
Q 1578 4219 1281 4162 
Q 984 4106 628 3988 
L 628 4550 
Q 988 4650 1302 4700 
Q 1616 4750 1894 4750 
Q 2613 4750 3031 4423 
Q 3450 4097 3450 3541 
Q 3450 3153 3228 2886 
Q 3006 2619 2597 2516 
z
" transform="scale(0.015625)"/>
       </defs>
       <use xlink:href="#DejaVuSans-32"/>
       <use xlink:href="#DejaVuSans-30" x="63.623047"/>
       <use xlink:href="#DejaVuSans-32" x="127.246094"/>
       <use xlink:href="#DejaVuSans-33" x="190.869141"/>
      </g>
     </g>
    </g>
    <g id="xtick_6">
     <g id="line2d_11">
      <path d="M 779.627761 390.04 
L 779.627761 26.88 
" clip-path="url(#pa5d9b59bb7)" style="fill: none; stroke-dasharray: 1.85,0.8; stroke-dashoffset: 0; stroke: #b0b0b0; stroke-opacity: 0.5; stroke-width: 0.5"/>
     </g>
     <g id="line2d_12">
      <g>
       <use xlink:href="#m1c3353c84d" x="779.627761" y="390.04" style="stroke: #000000; stroke-width: 0.8"/>
      </g>
     </g>
     <g id="text_6">
      <!-- 2024 -->
      <g transform="translate(766.902761 404.638438) scale(0.1 -0.1)">
       <defs>
        <path id="DejaVuSans-34" d="M 2419 4116 
L 825 1625 
L 2419 1625 
L 2419 4116 
z
M 2253 4666 
L 3047 4666 
L 3047 1625 
L 3713 1625 
L 3713 1100 
L 3047 1100 
L 3047 0 
L 2419 0 
L 2419 1100 
L 313 1100 
L 313 1709 
L 2253 4666 
z
" transform="scale(0.015625)"/>
       </defs>
       <use xlink:href="#DejaVuSans-32"/>
       <use xlink:href="#DejaVuSans-30" x="63.623047"/>
       <use xlink:href="#DejaVuSans-32" x="127.246094"/>
       <use xlink:href="#DejaVuSans-34" x="190.869141"/>
      </g>
     </g>
    </g>
    <g id="text_7">
     <!-- Date -->
     <g transform="translate(421.039219 418.316562) scale(0.1 -0.1)">
      <defs>
       <path id="DejaVuSans-44" d="M 1259 4147 
L 1259 519 
L 2022 519 
Q 2988 519 3436 956 
Q 3884 1394 3884 2338 
Q 3884 3275 3436 3711 
Q 2988 4147 2022 4147 
L 1259 4147 
z
M 628 4666 
L 1925 4666 
Q 3281 4666 3915 4102 
Q 4550 3538 4550 2338 
Q 4550 1131 3912 565 
Q 3275 0 1925 0 
L 628 0 
L 628 4666 
z
" transform="scale(0.015625)"/>
       <path id="DejaVuSans-61" d="M 2194 1759 
Q 1497 1759 1228 1600 
Q 959 1441 959 1056 
Q 959 750 1161 570 
Q 1363 391 1709 391 
Q 2188 391 2477 730 
Q 2766 1069 2766 1631 
L 2766 1759 
L 2194 1759 
z
M 3341 1997 
L 3341 0 
L 2766 0 
L 2766 531 
Q 2569 213 2275 61 
Q 1981 -91 1556 -91 
Q 1019 -91 701 211 
Q 384 513 384 1019 
Q 384 1609 779 1909 
Q 1175 2209 1959 2209 
L 2766 2209 
L 2766 2266 
Q 2766 2663 2505 2880 
Q 2244 3097 1772 3097 
Q 1472 3097 1187 3025 
Q 903 2953 641 2809 
L 641 3341 
Q 956 3463 1253 3523 
Q 1550 3584 1831 3584 
Q 2591 3584 2966 3190 
Q 3341 2797 3341 1997 
z
" transform="scale(0.015625)"/>
       <path id="DejaVuSans-74" d="M 1172 4494 
L 1172 3500 
L 2356 3500 
L 2356 3053 
L 1172 3053 
L 1172 1153 
Q 1172 725 1289 603 
Q 1406 481 1766 481 
L 2356 481 
L 2356 0 
L 1766 0 
Q 1100 0 847 248 
Q 594 497 594 1153 
L 594 3053 
L 172 3053 
L 172 3500 
L 594 3500 
L 594 4494 
L 1172 4494 
z
" transform="scale(0.015625)"/>
       <path id="DejaVuSans-65" d="M 3597 1894 
L 3597 1613 
L 953 1613 
Q 991 1019 1311 708 
Q 1631 397 2203 397 
Q 2534 397 2845 478 
Q 3156 559 3463 722 
L 3463 178 
Q 3153 47 2828 -22 
Q 2503 -91 2169 -91 
Q 1331 -91 842 396 
Q 353 884 353 1716 
Q 353 2575 817 3079 
Q 1281 3584 2069 3584 
Q 2775 3584 3186 3129 
Q 3597 2675 3597 1894 
z
M 3022 2063 
Q 3016 2534 2758 2815 
Q 2500 3097 2075 3097 
Q 1594 3097 1305 2825 
Q 1016 2553 972 2059 
L 3022 2063 
z
" transform="scale(0.015625)"/>
      </defs>
      <use xlink:href="#DejaVuSans-44"/>
      <use xlink:href="#DejaVuSans-61" x="77.001953"/>
      <use xlink:href="#DejaVuSans-74" x="138.28125"/>
      <use xlink:href="#DejaVuSans-65" x="177.490234"/>
     </g>
    </g>
   </g>
   <g id="matplotlib.axis_2">
    <g id="ytick_1">
     <g id="line2d_13">
      <path d="M 52.94 378.310587 
L 813.04 378.310587 
" clip-path="url(#pa5d9b59bb7)" style="fill: none; stroke-dasharray: 1.85,0.8; stroke-dashoffset: 0; stroke: #b0b0b0; stroke-opacity: 0.5; stroke-width: 0.5"/>
     </g>
     <g id="line2d_14">
      <defs>
       <path id="mfdf79c724d" d="M 0 0 
L -3.5 0 
" style="stroke: #000000; stroke-width: 0.8"/>
      </defs>
      <g>
       <use xlink:href="#mfdf79c724d" x="52.94" y="378.310587" style="stroke: #000000; stroke-width: 0.8"/>
      </g>
     </g>
     <g id="text_8">
      <!-- −10 -->
      <g style="fill: #d62728" transform="translate(24.835313 382.109806) scale(0.1 -0.1)">
       <defs>
        <path id="DejaVuSans-2212" d="M 678 2272 
L 4684 2272 
L 4684 1741 
L 678 1741 
L 678 2272 
z
" transform="scale(0.015625)"/>
       </defs>
       <use xlink:href="#DejaVuSans-2212"/>
       <use xlink:href="#DejaVuSans-31" x="83.789062"/>
       <use xlink:href="#DejaVuSans-30" x="147.412109"/>
      </g>
     </g>
    </g>
    <g id="ytick_2">
     <g id="line2d_15">
      <path d="M 52.94 316.066882 
L 813.04 316.066882 
" clip-path="url(#pa5d9b59bb7)" style="fill: none; stroke-dasharray: 1.85,0.8; stroke-dashoffset: 0; stroke: #b0b0b0; stroke-opacity: 0.5; stroke-width: 0.5"/>
     </g>
     <g id="line2d_16">
      <g>
       <use xlink:href="#mfdf79c724d" x="52.94" y="316.066882" style="stroke: #000000; stroke-width: 0.8"/>
      </g>
     </g>
     <g id="text_9">
      <!-- 0 -->
      <g style="fill: #d62728" transform="translate(39.5775 319.866101) scale(0.1 -0.1)">
       <use xlink:href="#DejaVuSans-30"/>
      </g>
     </g>
    </g>
    <g id="ytick_3">
     <g id="line2d_17">
      <path d="M 52.94 253.823176 
L 813.04 253.823176 
" clip-path="url(#pa5d9b59bb7)" style="fill: none; stroke-dasharray: 1.85,0.8; stroke-dashoffset: 0; stroke: #b0b0b0; stroke-opacity: 0.5; stroke-width: 0.5"/>
     </g>
     <g id="line2d_18">
      <g>
       <use xlink:href="#mfdf79c724d" x="52.94" y="253.823176" style="stroke: #000000; stroke-width: 0.8"/>
      </g>
     </g>
     <g id="text_10">
      <!-- 10 -->
      <g style="fill: #d62728" transform="translate(33.215 257.622395) scale(0.1 -0.1)">
       <use xlink:href="#DejaVuSans-31"/>
       <use xlink:href="#DejaVuSans-30" x="63.623047"/>
      </g>
     </g>
    </g>
    <g id="ytick_4">
     <g id="line2d_19">
      <path d="M 52.94 191.579471 
L 813.04 191.579471 
" clip-path="url(#pa5d9b59bb7)" style="fill: none; stroke-dasharray: 1.85,0.8; stroke-dashoffset: 0; stroke: #b0b0b0; stroke-opacity: 0.5; stroke-width: 0.5"/>
     </g>
     <g id="line2d_20">
      <g>
       <use xlink:href="#mfdf79c724d" x="52.94" y="191.579471" style="stroke: #000000; stroke-width: 0.8"/>
      </g>
     </g>
     <g id="text_11">
      <!-- 20 -->
      <g style="fill: #d62728" transform="translate(33.215 195.37869) scale(0.1 -0.1)">
       <use xlink:href="#DejaVuSans-32"/>
       <use xlink:href="#DejaVuSans-30" x="63.623047"/>
      </g>
     </g>
    </g>
    <g id="ytick_5">
     <g id="line2d_21">
      <path d="M 52.94 129.335765 
L 813.04 129.335765 
" clip-path="url(#pa5d9b59bb7)" style="fill: none; stroke-dasharray: 1.85,0.8; stroke-dashoffset: 0; stroke: #b0b0b0; stroke-opacity: 0.5; stroke-width: 0.5"/>
     </g>
     <g id="line2d_22">
      <g>
       <use xlink:href="#mfdf79c724d" x="52.94" y="129.335765" style="stroke: #000000; stroke-width: 0.8"/>
      </g>
     </g>
     <g id="text_12">
      <!-- 30 -->
      <g style="fill: #d62728" transform="translate(33.215 133.134984) scale(0.1 -0.1)">
       <use xlink:href="#DejaVuSans-33"/>
       <use xlink:href="#DejaVuSans-30" x="63.623047"/>
      </g>
     </g>
    </g>
    <g id="ytick_6">
     <g id="line2d_23">
      <path d="M 52.94 67.09206 
L 813.04 67.09206 
" clip-path="url(#pa5d9b59bb7)" style="fill: none; stroke-dasharray: 1.85,0.8; stroke-dashoffset: 0; stroke: #b0b0b0; stroke-opacity: 0.5; stroke-width: 0.5"/>
     </g>
     <g id="line2d_24">
      <g>
       <use xlink:href="#mfdf79c724d" x="52.94" y="67.09206" style="stroke: #000000; stroke-width: 0.8"/>
      </g>
     </g>
     <g id="text_13">
      <!-- 40 -->
      <g style="fill: #d62728" transform="translate(33.215 70.891279) scale(0.1 -0.1)">
       <use xlink:href="#DejaVuSans-34"/>
       <use xlink:href="#DejaVuSans-30" x="63.623047"/>
      </g>
     </g>
    </g>
    <g id="text_14">
     <!-- Returns (%) -->
     <g style="fill: #d62728" transform="translate(18.755625 237.8975) rotate(-90) scale(0.1 -0.1)">
      <defs>
       <path id="DejaVuSans-52" d="M 2841 2188 
Q 3044 2119 3236 1894 
Q 3428 1669 3622 1275 
L 4263 0 
L 3584 0 
L 2988 1197 
Q 2756 1666 2539 1819 
Q 2322 1972 1947 1972 
L 1259 1972 
L 1259 0 
L 628 0 
L 628 4666 
L 2053 4666 
Q 2853 4666 3247 4331 
Q 3641 3997 3641 3322 
Q 3641 2881 3436 2590 
Q 3231 2300 2841 2188 
z
M 1259 4147 
L 1259 2491 
L 2053 2491 
Q 2509 2491 2742 2702 
Q 2975 2913 2975 3322 
Q 2975 3731 2742 3939 
Q 2509 4147 2053 4147 
L 1259 4147 
z
" transform="scale(0.015625)"/>
       <path id="DejaVuSans-75" d="M 544 1381 
L 544 3500 
L 1119 3500 
L 1119 1403 
Q 1119 906 1312 657 
Q 1506 409 1894 409 
Q 2359 409 2629 706 
Q 2900 1003 2900 1516 
L 2900 3500 
L 3475 3500 
L 3475 0 
L 2900 0 
L 2900 538 
Q 2691 219 2414 64 
Q 2138 -91 1772 -91 
Q 1169 -91 856 284 
Q 544 659 544 1381 
z
M 1991 3584 
L 1991 3584 
z
" transform="scale(0.015625)"/>
       <path id="DejaVuSans-72" d="M 2631 2963 
Q 2534 3019 2420 3045 
Q 2306 3072 2169 3072 
Q 1681 3072 1420 2755 
Q 1159 2438 1159 1844 
L 1159 0 
L 581 0 
L 581 3500 
L 1159 3500 
L 1159 2956 
Q 1341 3275 1631 3429 
Q 1922 3584 2338 3584 
Q 2397 3584 2469 3576 
Q 2541 3569 2628 3553 
L 2631 2963 
z
" transform="scale(0.015625)"/>
       <path id="DejaVuSans-6e" d="M 3513 2113 
L 3513 0 
L 2938 0 
L 2938 2094 
Q 2938 2591 2744 2837 
Q 2550 3084 2163 3084 
Q 1697 3084 1428 2787 
Q 1159 2491 1159 1978 
L 1159 0 
L 581 0 
L 581 3500 
L 1159 3500 
L 1159 2956 
Q 1366 3272 1645 3428 
Q 1925 3584 2291 3584 
Q 2894 3584 3203 3211 
Q 3513 2838 3513 2113 
z
" transform="scale(0.015625)"/>
       <path id="DejaVuSans-73" d="M 2834 3397 
L 2834 2853 
Q 2591 2978 2328 3040 
Q 2066 3103 1784 3103 
Q 1356 3103 1142 2972 
Q 928 2841 928 2578 
Q 928 2378 1081 2264 
Q 1234 2150 1697 2047 
L 1894 2003 
Q 2506 1872 2764 1633 
Q 3022 1394 3022 966 
Q 3022 478 2636 193 
Q 2250 -91 1575 -91 
Q 1294 -91 989 -36 
Q 684 19 347 128 
L 347 722 
Q 666 556 975 473 
Q 1284 391 1588 391 
Q 1994 391 2212 530 
Q 2431 669 2431 922 
Q 2431 1156 2273 1281 
Q 2116 1406 1581 1522 
L 1381 1569 
Q 847 1681 609 1914 
Q 372 2147 372 2553 
Q 372 3047 722 3315 
Q 1072 3584 1716 3584 
Q 2034 3584 2315 3537 
Q 2597 3491 2834 3397 
z
" transform="scale(0.015625)"/>
       <path id="DejaVuSans-20" transform="scale(0.015625)"/>
       <path id="DejaVuSans-28" d="M 1984 4856 
Q 1566 4138 1362 3434 
Q 1159 2731 1159 2009 
Q 1159 1288 1364 580 
Q 1569 -128 1984 -844 
L 1484 -844 
Q 1016 -109 783 600 
Q 550 1309 550 2009 
Q 550 2706 781 3412 
Q 1013 4119 1484 4856 
L 1984 4856 
z
" transform="scale(0.015625)"/>
       <path id="DejaVuSans-25" d="M 4653 2053 
Q 4381 2053 4226 1822 
Q 4072 1591 4072 1178 
Q 4072 772 4226 539 
Q 4381 306 4653 306 
Q 4919 306 5073 539 
Q 5228 772 5228 1178 
Q 5228 1588 5073 1820 
Q 4919 2053 4653 2053 
z
M 4653 2450 
Q 5147 2450 5437 2106 
Q 5728 1763 5728 1178 
Q 5728 594 5436 251 
Q 5144 -91 4653 -91 
Q 4153 -91 3862 251 
Q 3572 594 3572 1178 
Q 3572 1766 3864 2108 
Q 4156 2450 4653 2450 
z
M 1428 4353 
Q 1159 4353 1004 4120 
Q 850 3888 850 3481 
Q 850 3069 1003 2837 
Q 1156 2606 1428 2606 
Q 1700 2606 1854 2837 
Q 2009 3069 2009 3481 
Q 2009 3884 1853 4118 
Q 1697 4353 1428 4353 
z
M 4250 4750 
L 4750 4750 
L 1831 -91 
L 1331 -91 
L 4250 4750 
z
M 1428 4750 
Q 1922 4750 2215 4408 
Q 2509 4066 2509 3481 
Q 2509 2891 2217 2550 
Q 1925 2209 1428 2209 
Q 931 2209 642 2551 
Q 353 2894 353 3481 
Q 353 4063 643 4406 
Q 934 4750 1428 4750 
z
" transform="scale(0.015625)"/>
       <path id="DejaVuSans-29" d="M 513 4856 
L 1013 4856 
Q 1481 4119 1714 3412 
Q 1947 2706 1947 2009 
Q 1947 1309 1714 600 
Q 1481 -109 1013 -844 
L 513 -844 
Q 928 -128 1133 580 
Q 1338 1288 1338 2009 
Q 1338 2731 1133 3434 
Q 928 4138 513 4856 
z
" transform="scale(0.015625)"/>
      </defs>
      <use xlink:href="#DejaVuSans-52"/>
      <use xlink:href="#DejaVuSans-65" x="64.982422"/>
      <use xlink:href="#DejaVuSans-74" x="126.505859"/>
      <use xlink:href="#DejaVuSans-75" x="165.714844"/>
      <use xlink:href="#DejaVuSans-72" x="229.09375"/>
      <use xlink:href="#DejaVuSans-6e" x="268.457031"/>
      <use xlink:href="#DejaVuSans-73" x="331.835938"/>
      <use xlink:href="#DejaVuSans-20" x="383.935547"/>
      <use xlink:href="#DejaVuSans-28" x="415.722656"/>
      <use xlink:href="#DejaVuSans-25" x="454.736328"/>
      <use xlink:href="#DejaVuSans-29" x="549.755859"/>
     </g>
    </g>
   </g>
   <g id="line2d_25">
    <path d="M 87.49 316.066882 
L 87.869254 316.066882 
L 88.248507 284.907176 
L 97.729846 284.907176 
L 98.1091 253.516965 
L 98.488353 233.710993 
L 98.867607 271.641685 
L 100.005368 268.738449 
L 100.384621 258.28188 
L 100.763875 265.888522 
L 101.522382 287.228124 
L 102.660143 286.088153 
L 103.039396 266.81116 
L 138.689232 266.81116 
L 139.826992 270.415582 
L 140.206246 270.936659 
L 140.585499 270.160433 
L 140.964753 286.044323 
L 141.344007 283.241284 
L 142.861021 278.515647 
L 143.240274 284.711083 
L 143.619528 285.742458 
L 143.998782 300.566224 
L 145.136542 330.170633 
L 145.515796 316.920881 
L 145.895049 313.708167 
L 146.274303 308.008653 
L 146.653557 290.159042 
L 147.791317 269.819037 
L 148.170571 268.71579 
L 170.546531 268.71579 
L 171.684292 277.112153 
L 172.063546 262.505593 
L 172.442799 285.249141 
L 173.201306 274.277547 
L 174.339067 265.551406 
L 174.718321 271.013118 
L 175.097574 262.802023 
L 175.476828 269.797757 
L 175.856081 290.192101 
L 176.993842 283.059268 
L 177.373095 285.667847 
L 177.752349 284.771148 
L 178.131603 276.563759 
L 187.992195 276.563759 
L 188.371449 266.408554 
L 188.750703 277.236465 
L 189.129956 282.705529 
L 190.267717 278.730101 
L 190.64697 278.828917 
L 191.026224 287.349863 
L 191.405477 283.096991 
L 193.301745 283.096991 
L 193.680999 276.764361 
L 209.609649 276.764361 
L 209.988902 280.866172 
L 210.368156 276.692333 
L 219.470241 276.692333 
L 219.849495 268.668885 
L 220.228749 271.14886 
L 220.608002 268.062918 
L 220.987256 270.224947 
L 222.125016 267.793599 
L 222.50427 269.211262 
L 223.262777 239.451562 
L 246.397245 239.451562 
L 246.776498 237.024241 
L 247.155752 270.790578 
L 247.535005 270.985472 
L 248.672766 246.109863 
L 249.05202 262.041592 
L 249.431273 238.35661 
L 249.810527 256.712117 
L 250.18978 264.840984 
L 251.327541 300.446415 
L 251.706795 268.12584 
L 252.086048 293.270759 
L 252.465302 344.386239 
L 252.844555 305.977872 
L 253.982316 339.942647 
L 254.36157 297.88444 
L 254.740823 290.031969 
L 255.120077 271.984749 
L 255.49933 284.330422 
L 256.637091 264.224409 
L 257.016345 251.017658 
L 257.395598 270.244874 
L 257.774852 245.564158 
L 323.764973 245.564158 
L 324.52348 273.297016 
L 325.66124 272.045435 
L 326.040494 234.110849 
L 326.419748 263.176324 
L 326.799001 258.687743 
L 327.178255 241.72838 
L 328.316015 223.967646 
L 328.695269 230.531689 
L 329.074523 229.667288 
L 329.453776 213.338218 
L 329.83303 235.006764 
L 330.97079 218.30402 
L 339.693622 218.30402 
L 340.072876 207.320377 
L 340.45213 247.138362 
L 341.58989 254.346948 
L 341.969144 244.34236 
L 342.348397 200.457876 
L 344.244665 200.457876 
L 344.623919 225.980128 
L 347.657947 225.980128 
L 348.037201 223.327914 
L 355.622272 223.327914 
L 356.001526 223.954504 
L 357.51854 211.173912 
L 357.897794 209.294142 
L 358.277047 191.82334 
L 358.656301 192.947516 
L 359.035554 200.876643 
L 360.173315 199.835398 
L 360.931822 199.757074 
L 361.311076 202.674628 
L 362.82809 176.871204 
L 363.207344 168.048965 
L 363.965851 183.142322 
L 365.482865 199.446301 
L 365.862119 192.048052 
L 366.241372 210.634124 
L 366.999879 200.355428 
L 368.13764 216.241951 
L 368.516894 214.702002 
L 368.896147 204.256323 
L 369.275401 213.162053 
L 369.654654 218.551875 
L 371.171668 214.720556 
L 371.550922 181.644119 
L 371.930176 171.527766 
L 372.309429 174.955544 
L 373.44719 174.542727 
L 373.826443 167.088816 
L 381.790768 167.088816 
L 382.170022 157.720971 
L 382.549276 153.100759 
L 382.928529 171.581607 
L 384.06629 187.901008 
L 384.445543 184.654117 
L 384.824797 192.903485 
L 385.20405 217.061672 
L 385.583304 208.623532 
L 386.721065 196.065427 
L 387.100318 208.241267 
L 387.479572 229.369653 
L 387.858825 235.844557 
L 388.238079 230.440938 
L 389.37584 241.885283 
L 389.755093 215.716667 
L 390.134347 216.948408 
L 390.5136 203.743757 
L 390.892854 209.430535 
L 393.168375 209.430535 
L 393.547629 198.124509 
L 397.719418 198.124509 
L 398.098672 188.722697 
L 398.477925 172.506994 
L 399.99494 156.577223 
L 400.374193 157.284782 
L 400.753447 143.821775 
L 401.1327 138.994865 
L 413.268814 138.994865 
L 413.648068 130.626093 
L 414.027322 148.656537 
L 414.406575 146.266175 
L 414.785829 130.876655 
L 415.923589 118.974958 
L 416.302843 128.526383 
L 416.682097 128.646653 
L 417.06135 124.667728 
L 417.440604 135.842794 
L 418.957618 121.821343 
L 419.336872 120.287903 
L 419.716125 129.072608 
L 420.095379 130.831554 
L 421.612393 131.944049 
L 421.991647 128.100427 
L 422.3709 139.871832 
L 422.750154 135.05603 
L 423.887914 137.11565 
L 424.267168 120.548488 
L 424.646422 116.283922 
L 425.025675 99.120422 
L 425.404929 99.821996 
L 426.542689 90.546189 
L 426.921943 90.731605 
L 427.301196 82.683553 
L 427.68045 64.141962 
L 442.850593 64.141962 
L 443.229846 63.196846 
L 443.6091 70.526316 
L 443.988353 136.182939 
L 445.126114 135.247467 
L 445.505368 126.866796 
L 445.884621 129.64428 
L 446.263875 124.518473 
L 446.643128 132.002248 
L 447.780889 132.740017 
L 448.160143 137.851358 
L 448.539396 144.742024 
L 448.91865 141.993473 
L 449.297903 144.288754 
L 450.435664 143.083249 
L 451.194171 166.653282 
L 451.573425 169.903324 
L 451.952678 166.961892 
L 453.090439 151.063692 
L 453.469693 141.443762 
L 453.848946 143.035029 
L 454.2282 138.97971 
L 454.607453 130.869073 
L 455.745214 113.524267 
L 456.124468 101.657277 
L 463.709539 101.657277 
L 464.088793 104.669404 
L 464.8473 86.626562 
L 465.226553 84.252766 
L 466.364314 89.169914 
L 466.743568 111.571364 
L 467.502075 119.281213 
L 469.019089 119.281213 
L 469.398342 111.26337 
L 471.673864 111.26337 
L 472.053117 110.998384 
L 490.636542 110.998384 
L 491.015796 125.94721 
L 491.395049 127.447755 
L 491.774303 138.668813 
L 492.912064 129.807103 
L 493.291317 107.171522 
L 493.670571 107.204553 
L 494.429078 125.824524 
L 495.566839 138.300755 
L 495.946092 140.546854 
L 496.325346 120.619803 
L 496.704599 141.589685 
L 497.083853 136.177342 
L 498.221614 150.045587 
L 498.600867 134.294582 
L 498.980121 131.368991 
L 499.359374 131.222712 
L 500.876389 137.824166 
L 501.255642 133.143221 
L 501.634896 140.032516 
L 502.014149 142.65611 
L 502.393403 151.753755 
L 503.531164 134.355925 
L 504.289671 162.889876 
L 504.668924 168.094597 
L 505.048178 171.397684 
L 506.185939 176.43725 
L 506.565192 158.147587 
L 506.944446 158.878985 
L 507.323699 158.878985 
L 507.702953 154.410786 
L 512.253996 154.410786 
L 512.633249 150.091499 
L 515.288024 150.091499 
L 515.667278 43.387273 
L 524.769363 43.387273 
L 525.148617 57.498073 
L 525.52787 52.188309 
L 525.907124 76.405729 
L 526.286378 89.560654 
L 527.424138 137.284417 
L 527.803392 145.671629 
L 530.078913 145.671629 
L 530.458167 114.854643 
L 539.180999 114.854643 
L 539.560252 132.210335 
L 540.698013 149.633884 
L 541.077267 151.377283 
L 541.45652 126.567778 
L 541.835774 146.585546 
L 543.352788 140.953428 
L 543.732042 113.132123 
L 544.111295 134.621863 
L 544.490549 164.384918 
L 544.869802 184.98208 
L 546.007563 175.983218 
L 546.386817 210.866855 
L 546.76607 217.255838 
L 547.145324 183.69802 
L 547.524577 289.732166 
L 548.662338 288.594259 
L 549.041592 289.878319 
L 549.420845 281.140446 
L 549.800099 330.837754 
L 550.179352 339.372057 
L 552.07562 339.372057 
L 552.454874 330.514297 
L 554.730395 330.514297 
L 555.109649 329.34504 
L 557.005917 329.34504 
L 557.38517 313.692195 
L 565.728749 313.692195 
L 566.108002 298.262927 
L 567.625016 283.436364 
L 568.00427 281.809058 
L 568.762777 236.545853 
L 569.900538 256.073521 
L 570.279791 256.073521 
L 570.659045 246.415688 
L 592.655752 246.415688 
L 593.793513 251.497164 
L 594.172766 257.107961 
L 594.55202 267.482643 
L 594.931273 261.924778 
L 595.310527 263.565671 
L 596.827541 270.976158 
L 597.206795 253.138058 
L 597.586048 251.338368 
L 597.965302 233.076812 
L 599.103063 216.244421 
L 599.482316 267.217982 
L 599.86157 258.060738 
L 600.620077 284.632626 
L 601.757838 278.651305 
L 602.137091 291.72552 
L 602.516345 311.045717 
L 602.895598 317.556359 
L 603.274852 336.241372 
L 604.412613 328.989681 
L 604.791866 332.906653 
L 605.17112 313.851116 
L 605.550373 330.842303 
L 605.929627 340.370071 
L 607.067387 325.125642 
L 607.446641 297.548045 
L 607.825895 298.289094 
L 608.205148 301.729677 
L 608.584402 332.112672 
L 609.722162 336.823624 
L 611.239177 336.823624 
L 612.376937 298.046182 
L 618.065741 298.046182 
L 618.444995 328.945264 
L 620.720516 328.945264 
L 621.099769 354.957357 
L 624.133798 354.957357 
L 624.513052 359.325396 
L 629.443348 359.325396 
L 629.822602 367.63363 
L 632.477377 367.63363 
L 633.615137 358.278874 
L 633.994391 345.848582 
L 634.752898 345.848582 
L 635.132151 349.80153 
L 637.407673 349.80153 
L 637.786926 339.544378 
L 639.303941 339.544378 
L 639.683194 348.343994 
L 642.717223 348.343994 
L 643.096476 327.329424 
L 658.645873 327.329424 
L 659.025126 333.244941 
L 660.542141 349.559315 
L 660.921394 342.024814 
L 661.300648 341.838008 
L 661.679901 356.284324 
L 662.817662 354.665341 
L 663.196915 351.738716 
L 663.576169 364.566048 
L 663.955423 364.815123 
L 664.334676 347.56672 
L 665.472437 354.727609 
L 665.85169 355.972981 
L 666.230944 353.669043 
L 666.989451 373.532727 
L 668.127212 362.947065 
L 668.506465 347.691257 
L 668.885719 339.471801 
L 669.264973 315.560658 
L 669.644226 322.347936 
L 670.781987 330.069242 
L 671.16124 312.011348 
L 679.125565 312.011348 
L 679.504819 325.115247 
L 679.884072 296.462223 
L 680.263326 295.772544 
L 681.401087 294.330488 
L 681.78034 297.089203 
L 682.159594 284.549587 
L 682.538847 287.621793 
L 682.918101 267.871896 
L 684.055862 272.574252 
L 684.435115 295.396355 
L 684.814369 280.286117 
L 685.193622 249.940244 
L 717.050922 249.940244 
L 717.430176 249.728316 
L 718.567936 256.086138 
L 718.94719 254.337737 
L 719.326443 259.529957 
L 719.705697 259.000139 
L 720.084951 238.019329 
L 721.222711 230.230999 
L 721.601965 240.774385 
L 721.981218 259.212066 
L 722.360472 255.503337 
L 722.739726 199.024694 
L 729.945543 199.024694 
L 730.324797 219.103816 
L 730.70405 211.355894 
L 731.841811 212.010648 
L 732.221065 202.353026 
L 732.600318 201.480021 
L 732.979572 185.438548 
L 733.358825 184.838357 
L 734.87584 189.476198 
L 735.255093 199.897699 
L 735.634347 186.311554 
L 736.0136 184.238166 
L 737.151361 157.666067 
L 737.530615 167.869316 
L 737.909868 148.117571 
L 742.460911 148.117571 
L 742.840165 179.967781 
L 743.598672 179.967781 
L 743.977925 173.104031 
L 745.115686 159.01528 
L 745.49494 187.554031 
L 745.874193 173.826531 
L 746.253447 180.088198 
L 746.6327 168.04653 
L 747.770461 166.24028 
L 753.838518 166.24028 
L 754.217772 177.817859 
L 754.597025 125.845983 
L 755.734786 94.230289 
L 771.663436 94.230289 
L 772.421943 77.159237 
L 772.801196 85.376489 
L 773.18045 70.620156 
L 778.49 70.620156 
L 778.49 70.620156 
" clip-path="url(#pa5d9b59bb7)" style="fill: none; stroke: #d62728; stroke-width: 1.5; stroke-linecap: square"/>
   </g>
   <g id="patch_3">
    <path d="M 52.94 390.04 
L 52.94 26.88 
" style="fill: none; stroke: #000000; stroke-width: 0.8; stroke-linejoin: miter; stroke-linecap: square"/>
   </g>
   <g id="patch_4">
    <path d="M 813.04 390.04 
L 813.04 26.88 
" style="fill: none; stroke: #000000; stroke-width: 0.8; stroke-linejoin: miter; stroke-linecap: square"/>
   </g>
   <g id="patch_5">
    <path d="M 52.94 390.04 
L 813.04 390.04 
" style="fill: none; stroke: #000000; stroke-width: 0.8; stroke-linejoin: miter; stroke-linecap: square"/>
   </g>
   <g id="patch_6">
    <path d="M 52.94 26.88 
L 813.04 26.88 
" style="fill: none; stroke: #000000; stroke-width: 0.8; stroke-linejoin: miter; stroke-linecap: square"/>
   </g>
  </g>
  <g id="axes_2">
   <g id="matplotlib.axis_3">
    <g id="ytick_7">
     <g id="line2d_26">
      <defs>
       <path id="m1260d80b12" d="M 0 0 
L 3.5 0 
" style="stroke: #000000; stroke-width: 0.8"/>
      </defs>
      <g>
       <use xlink:href="#m1260d80b12" x="813.04" y="358.776863" style="stroke: #000000; stroke-width: 0.8"/>
      </g>
     </g>
     <g id="text_15">
      <!-- 80 -->
      <g style="fill: #1f77b4" transform="translate(820.04 362.576081) scale(0.1 -0.1)">
       <defs>
        <path id="DejaVuSans-38" d="M 2034 2216 
Q 1584 2216 1326 1975 
Q 1069 1734 1069 1313 
Q 1069 891 1326 650 
Q 1584 409 2034 409 
Q 2484 409 2743 651 
Q 3003 894 3003 1313 
Q 3003 1734 2745 1975 
Q 2488 2216 2034 2216 
z
M 1403 2484 
Q 997 2584 770 2862 
Q 544 3141 544 3541 
Q 544 4100 942 4425 
Q 1341 4750 2034 4750 
Q 2731 4750 3128 4425 
Q 3525 4100 3525 3541 
Q 3525 3141 3298 2862 
Q 3072 2584 2669 2484 
Q 3125 2378 3379 2068 
Q 3634 1759 3634 1313 
Q 3634 634 3220 271 
Q 2806 -91 2034 -91 
Q 1263 -91 848 271 
Q 434 634 434 1313 
Q 434 1759 690 2068 
Q 947 2378 1403 2484 
z
M 1172 3481 
Q 1172 3119 1398 2916 
Q 1625 2713 2034 2713 
Q 2441 2713 2670 2916 
Q 2900 3119 2900 3481 
Q 2900 3844 2670 4047 
Q 2441 4250 2034 4250 
Q 1625 4250 1398 4047 
Q 1172 3844 1172 3481 
z
" transform="scale(0.015625)"/>
       </defs>
       <use xlink:href="#DejaVuSans-38"/>
       <use xlink:href="#DejaVuSans-30" x="63.623047"/>
      </g>
     </g>
    </g>
    <g id="ytick_8">
     <g id="line2d_27">
      <g>
       <use xlink:href="#m1260d80b12" x="813.04" y="299.587674" style="stroke: #000000; stroke-width: 0.8"/>
      </g>
     </g>
     <g id="text_16">
      <!-- 100 -->
      <g style="fill: #1f77b4" transform="translate(820.04 303.386893) scale(0.1 -0.1)">
       <use xlink:href="#DejaVuSans-31"/>
       <use xlink:href="#DejaVuSans-30" x="63.623047"/>
       <use xlink:href="#DejaVuSans-30" x="127.246094"/>
      </g>
     </g>
    </g>
    <g id="ytick_9">
     <g id="line2d_28">
      <g>
       <use xlink:href="#m1260d80b12" x="813.04" y="240.398486" style="stroke: #000000; stroke-width: 0.8"/>
      </g>
     </g>
     <g id="text_17">
      <!-- 120 -->
      <g style="fill: #1f77b4" transform="translate(820.04 244.197705) scale(0.1 -0.1)">
       <use xlink:href="#DejaVuSans-31"/>
       <use xlink:href="#DejaVuSans-32" x="63.623047"/>
       <use xlink:href="#DejaVuSans-30" x="127.246094"/>
      </g>
     </g>
    </g>
    <g id="ytick_10">
     <g id="line2d_29">
      <g>
       <use xlink:href="#m1260d80b12" x="813.04" y="181.209298" style="stroke: #000000; stroke-width: 0.8"/>
      </g>
     </g>
     <g id="text_18">
      <!-- 140 -->
      <g style="fill: #1f77b4" transform="translate(820.04 185.008516) scale(0.1 -0.1)">
       <use xlink:href="#DejaVuSans-31"/>
       <use xlink:href="#DejaVuSans-34" x="63.623047"/>
       <use xlink:href="#DejaVuSans-30" x="127.246094"/>
      </g>
     </g>
    </g>
    <g id="ytick_11">
     <g id="line2d_30">
      <g>
       <use xlink:href="#m1260d80b12" x="813.04" y="122.020109" style="stroke: #000000; stroke-width: 0.8"/>
      </g>
     </g>
     <g id="text_19">
      <!-- 160 -->
      <g style="fill: #1f77b4" transform="translate(820.04 125.819328) scale(0.1 -0.1)">
       <defs>
        <path id="DejaVuSans-36" d="M 2113 2584 
Q 1688 2584 1439 2293 
Q 1191 2003 1191 1497 
Q 1191 994 1439 701 
Q 1688 409 2113 409 
Q 2538 409 2786 701 
Q 3034 994 3034 1497 
Q 3034 2003 2786 2293 
Q 2538 2584 2113 2584 
z
M 3366 4563 
L 3366 3988 
Q 3128 4100 2886 4159 
Q 2644 4219 2406 4219 
Q 1781 4219 1451 3797 
Q 1122 3375 1075 2522 
Q 1259 2794 1537 2939 
Q 1816 3084 2150 3084 
Q 2853 3084 3261 2657 
Q 3669 2231 3669 1497 
Q 3669 778 3244 343 
Q 2819 -91 2113 -91 
Q 1303 -91 875 529 
Q 447 1150 447 2328 
Q 447 3434 972 4092 
Q 1497 4750 2381 4750 
Q 2619 4750 2861 4703 
Q 3103 4656 3366 4563 
z
" transform="scale(0.015625)"/>
       </defs>
       <use xlink:href="#DejaVuSans-31"/>
       <use xlink:href="#DejaVuSans-36" x="63.623047"/>
       <use xlink:href="#DejaVuSans-30" x="127.246094"/>
      </g>
     </g>
    </g>
    <g id="ytick_12">
     <g id="line2d_31">
      <g>
       <use xlink:href="#m1260d80b12" x="813.04" y="62.830921" style="stroke: #000000; stroke-width: 0.8"/>
      </g>
     </g>
     <g id="text_20">
      <!-- 180 -->
      <g style="fill: #1f77b4" transform="translate(820.04 66.63014) scale(0.1 -0.1)">
       <use xlink:href="#DejaVuSans-31"/>
       <use xlink:href="#DejaVuSans-38" x="63.623047"/>
       <use xlink:href="#DejaVuSans-30" x="127.246094"/>
      </g>
     </g>
    </g>
    <g id="text_21">
     <!-- Close Price -->
     <g style="fill: #1f77b4" transform="translate(850.725937 235.867812) rotate(-90) scale(0.1 -0.1)">
      <defs>
       <path id="DejaVuSans-43" d="M 4122 4306 
L 4122 3641 
Q 3803 3938 3442 4084 
Q 3081 4231 2675 4231 
Q 1875 4231 1450 3742 
Q 1025 3253 1025 2328 
Q 1025 1406 1450 917 
Q 1875 428 2675 428 
Q 3081 428 3442 575 
Q 3803 722 4122 1019 
L 4122 359 
Q 3791 134 3420 21 
Q 3050 -91 2638 -91 
Q 1578 -91 968 557 
Q 359 1206 359 2328 
Q 359 3453 968 4101 
Q 1578 4750 2638 4750 
Q 3056 4750 3426 4639 
Q 3797 4528 4122 4306 
z
" transform="scale(0.015625)"/>
       <path id="DejaVuSans-6c" d="M 603 4863 
L 1178 4863 
L 1178 0 
L 603 0 
L 603 4863 
z
" transform="scale(0.015625)"/>
       <path id="DejaVuSans-6f" d="M 1959 3097 
Q 1497 3097 1228 2736 
Q 959 2375 959 1747 
Q 959 1119 1226 758 
Q 1494 397 1959 397 
Q 2419 397 2687 759 
Q 2956 1122 2956 1747 
Q 2956 2369 2687 2733 
Q 2419 3097 1959 3097 
z
M 1959 3584 
Q 2709 3584 3137 3096 
Q 3566 2609 3566 1747 
Q 3566 888 3137 398 
Q 2709 -91 1959 -91 
Q 1206 -91 779 398 
Q 353 888 353 1747 
Q 353 2609 779 3096 
Q 1206 3584 1959 3584 
z
" transform="scale(0.015625)"/>
       <path id="DejaVuSans-50" d="M 1259 4147 
L 1259 2394 
L 2053 2394 
Q 2494 2394 2734 2622 
Q 2975 2850 2975 3272 
Q 2975 3691 2734 3919 
Q 2494 4147 2053 4147 
L 1259 4147 
z
M 628 4666 
L 2053 4666 
Q 2838 4666 3239 4311 
Q 3641 3956 3641 3272 
Q 3641 2581 3239 2228 
Q 2838 1875 2053 1875 
L 1259 1875 
L 1259 0 
L 628 0 
L 628 4666 
z
" transform="scale(0.015625)"/>
       <path id="DejaVuSans-69" d="M 603 3500 
L 1178 3500 
L 1178 0 
L 603 0 
L 603 3500 
z
M 603 4863 
L 1178 4863 
L 1178 4134 
L 603 4134 
L 603 4863 
z
" transform="scale(0.015625)"/>
       <path id="DejaVuSans-63" d="M 3122 3366 
L 3122 2828 
Q 2878 2963 2633 3030 
Q 2388 3097 2138 3097 
Q 1578 3097 1268 2742 
Q 959 2388 959 1747 
Q 959 1106 1268 751 
Q 1578 397 2138 397 
Q 2388 397 2633 464 
Q 2878 531 3122 666 
L 3122 134 
Q 2881 22 2623 -34 
Q 2366 -91 2075 -91 
Q 1284 -91 818 406 
Q 353 903 353 1747 
Q 353 2603 823 3093 
Q 1294 3584 2113 3584 
Q 2378 3584 2631 3529 
Q 2884 3475 3122 3366 
z
" transform="scale(0.015625)"/>
      </defs>
      <use xlink:href="#DejaVuSans-43"/>
      <use xlink:href="#DejaVuSans-6c" x="69.824219"/>
      <use xlink:href="#DejaVuSans-6f" x="97.607422"/>
      <use xlink:href="#DejaVuSans-73" x="158.789062"/>
      <use xlink:href="#DejaVuSans-65" x="210.888672"/>
      <use xlink:href="#DejaVuSans-20" x="272.412109"/>
      <use xlink:href="#DejaVuSans-50" x="304.199219"/>
      <use xlink:href="#DejaVuSans-72" x="362.751953"/>
      <use xlink:href="#DejaVuSans-69" x="403.865234"/>
      <use xlink:href="#DejaVuSans-63" x="431.648438"/>
      <use xlink:href="#DejaVuSans-65" x="486.628906"/>
     </g>
    </g>
   </g>
   <g id="line2d_32">
    <path d="M 87.49 367.783977 
L 87.869254 373.532727 
L 88.248507 362.418477 
L 89.386268 354.41018 
L 89.765521 350.404552 
L 90.144775 349.984309 
L 90.524029 350.457822 
L 90.903282 352.775079 
L 92.041043 356.230248 
L 92.420296 347.743998 
L 93.178804 344.982822 
L 93.558057 344.541863 
L 95.075071 354.016572 
L 95.454325 352.854984 
L 96.212832 348.33441 
L 97.350593 353.170167 
L 97.729846 359.682457 
L 98.1091 348.355126 
L 98.488353 341.208032 
L 98.867607 354.895532 
L 100.005368 353.847883 
L 100.384621 350.074572 
L 100.763875 352.819471 
L 101.522382 360.519984 
L 102.660143 360.108619 
L 103.039396 353.15241 
L 103.41865 352.857944 
L 104.177157 357.600478 
L 105.694171 354.695768 
L 106.073425 355.50666 
L 106.452678 355.900268 
L 106.831932 354.106836 
L 107.969693 353.893755 
L 108.348946 353.390646 
L 108.7282 352.696653 
L 109.107453 352.883099 
L 109.486707 348.162761 
L 110.624468 344.546302 
L 111.003721 345.099721 
L 111.382975 348.574126 
L 111.762228 354.936964 
L 112.141482 355.699025 
L 113.279243 348.327011 
L 113.658496 347.960038 
L 114.03775 345.339437 
L 114.417003 346.018633 
L 114.796257 342.15062 
L 115.934018 337.742505 
L 116.313271 334.827437 
L 116.692525 329.586235 
L 117.071778 326.332309 
L 117.451032 334.395356 
L 118.588793 332.991093 
L 118.968046 331.58535 
L 119.3473 334.257741 
L 120.105807 332.030748 
L 121.243568 327.082532 
L 121.622821 327.113606 
L 122.002075 326.119228 
L 122.381328 326.391498 
L 122.760582 323.665836 
L 123.898342 321.804336 
L 124.277596 323.878917 
L 124.65685 322.178708 
L 125.036103 322.6611 
L 125.415357 322.810552 
L 126.553117 322.542721 
L 126.932371 319.854052 
L 127.311625 319.590661 
L 127.690878 320.053816 
L 129.207892 316.262748 
L 129.587146 310.867654 
L 129.9664 314.126019 
L 130.345653 314.052032 
L 130.724907 306.8931 
L 131.862667 308.69837 
L 133.000428 314.263634 
L 133.379682 305.14258 
L 134.517442 306.904938 
L 134.896696 311.277539 
L 135.27595 311.755492 
L 135.655203 314.404208 
L 136.034457 315.867661 
L 137.172217 325.826241 
L 137.551471 323.245593 
L 138.309978 313.264816 
L 138.689232 318.972133 
L 139.826992 320.456302 
L 140.206246 320.670863 
L 140.585499 320.351242 
L 140.964753 326.891647 
L 141.344007 325.737458 
L 142.861021 323.791613 
L 143.240274 326.342667 
L 143.619528 326.76735 
L 143.998782 332.871235 
L 145.136542 345.061248 
L 145.515796 339.605485 
L 145.895049 338.282606 
L 146.274303 335.935755 
L 146.653557 328.585937 
L 147.791317 320.210667 
L 148.170571 319.75639 
L 148.549824 320.996404 
L 148.929078 318.779769 
L 149.308332 318.872992 
L 150.446092 316.452154 
L 150.825346 314.182248 
L 151.583853 311.693343 
L 151.963106 312.712877 
L 153.100867 312.328147 
L 153.480121 317.600424 
L 153.859374 314.706073 
L 154.238628 313.751647 
L 154.617881 315.327559 
L 156.514149 308.614026 
L 157.272656 308.035451 
L 158.410417 306.643026 
L 159.168924 297.012945 
L 159.548178 299.430823 
L 159.927431 297.959972 
L 161.065192 296.483201 
L 161.444446 298.122742 
L 162.202953 302.857877 
L 162.582206 304.837755 
L 164.478474 299.469296 
L 165.236981 308.014735 
L 166.374742 312.542708 
L 166.753996 314.602492 
L 167.133249 319.300633 
L 167.512503 320.996404 
L 167.891756 325.743377 
L 169.029517 334.342086 
L 169.408771 330.9831 
L 169.788024 330.15889 
L 170.167278 324.315437 
L 170.546531 328.060633 
L 171.684292 331.413701 
L 172.063546 325.580606 
L 172.442799 334.663187 
L 173.201306 330.281708 
L 174.339067 326.796944 
L 174.718321 328.978066 
L 175.097574 325.698985 
L 175.476828 328.492714 
L 175.856081 336.637147 
L 176.993842 333.788667 
L 177.373095 334.830397 
L 177.752349 334.472302 
L 178.131603 331.194701 
L 178.510856 332.690708 
L 180.02787 330.685674 
L 180.407124 329.090525 
L 180.786378 323.156809 
L 181.165631 324.223694 
L 182.303392 324.543316 
L 182.682645 326.141424 
L 183.061899 325.78037 
L 183.441153 322.738046 
L 183.820406 323.361012 
L 184.958167 328.02216 
L 185.33742 325.845478 
L 185.716674 326.59866 
L 186.095928 326.00085 
L 186.475181 330.046431 
L 187.612942 331.357471 
L 187.992195 337.82241 
L 188.371449 333.868572 
L 188.750703 338.084322 
L 189.129956 340.213653 
L 190.267717 338.665856 
L 190.64697 338.704329 
L 191.026224 342.021883 
L 191.405477 340.366066 
L 191.784731 338.112437 
L 192.922492 339.146768 
L 193.301745 343.164234 
L 193.680999 340.72564 
L 194.060252 340.981633 
L 194.439506 339.256268 
L 195.577267 338.58891 
L 195.95652 334.009147 
L 196.715027 331.03489 
L 197.094281 335.46964 
L 198.232042 331.304201 
L 198.611295 334.253302 
L 198.990549 334.780086 
L 199.369802 332.026309 
L 199.749056 334.904383 
L 200.886817 332.573809 
L 201.26607 334.700181 
L 201.645324 332.143208 
L 202.024577 332.635958 
L 202.403831 330.448917 
L 203.541592 328.492714 
L 203.920845 328.929235 
L 204.679352 330.92835 
L 205.058606 331.271647 
L 206.196367 333.377302 
L 206.57562 332.437674 
L 206.954874 336.120721 
L 207.334127 335.900241 
L 207.713381 338.136113 
L 208.851142 336.206545 
L 209.230395 336.168072 
L 209.609649 337.242356 
L 209.988902 338.843424 
L 210.368156 337.214241 
L 211.505917 333.053241 
L 212.264424 326.443289 
L 213.022931 329.06389 
L 214.160692 331.904971 
L 214.919199 334.999086 
L 215.298452 337.98962 
L 215.677706 336.34416 
L 216.815467 336.653424 
L 217.19472 338.177545 
L 217.953227 335.052356 
L 218.332481 334.962093 
L 219.470241 333.738356 
L 219.849495 330.564336 
L 220.228749 331.545397 
L 220.608002 330.32462 
L 220.987256 331.179904 
L 222.125016 330.218079 
L 222.50427 330.778897 
L 223.262777 319.006167 
L 223.642031 318.853755 
L 224.779791 322.243816 
L 225.159045 322.103242 
L 225.917552 314.679438 
L 226.296806 318.088735 
L 227.434566 313.958809 
L 227.81382 313.369877 
L 228.193074 315.573194 
L 228.572327 314.2296 
L 228.951581 316.876836 
L 230.089341 315.672336 
L 230.468595 318.907025 
L 230.847849 320.004985 
L 231.227102 317.649255 
L 231.606356 319.605458 
L 233.12337 315.568755 
L 233.502623 316.240552 
L 233.881877 316.666715 
L 234.261131 320.061215 
L 235.398891 324.988714 
L 235.778145 321.302708 
L 236.157398 320.599836 
L 236.536652 318.723539 
L 236.915906 298.29735 
L 238.053666 298.966188 
L 238.43292 292.239337 
L 238.812173 293.689472 
L 239.191427 292.156472 
L 239.570681 287.856377 
L 241.087695 277.27335 
L 241.466948 275.911999 
L 241.846202 277.412445 
L 242.225456 279.632039 
L 243.74247 276.551242 
L 244.121723 274.399715 
L 244.500977 276.933012 
L 244.880231 285.385229 
L 246.397245 303.621418 
L 246.776498 302.607803 
L 247.155752 316.708147 
L 247.535005 316.789532 
L 248.672766 306.40183 
L 249.05202 313.054694 
L 249.431273 303.164181 
L 249.810527 310.829181 
L 250.18978 314.223681 
L 251.327541 329.092005 
L 251.706795 315.59539 
L 252.086048 326.095552 
L 252.465302 347.440653 
L 252.844555 331.401863 
L 253.982316 345.585072 
L 254.36157 328.02216 
L 254.740823 324.743079 
L 255.120077 317.206816 
L 255.49933 322.362194 
L 256.637091 313.966208 
L 257.016345 308.451255 
L 257.395598 316.480269 
L 257.774852 306.173951 
L 258.154105 314.370174 
L 259.291866 304.9221 
L 259.67112 307.027755 
L 260.050373 313.24558 
L 260.429627 311.59864 
L 260.80888 313.40983 
L 261.946641 299.944289 
L 262.325895 297.871188 
L 262.705148 293.224837 
L 263.084402 293.26035 
L 264.601416 274.600958 
L 264.98067 257.663972 
L 265.359923 254.059351 
L 265.739177 239.185108 
L 266.11843 244.09781 
L 267.256191 241.345513 
L 267.635445 251.034783 
L 268.393952 240.478391 
L 268.773205 238.886202 
L 269.910966 243.949837 
L 270.29022 253.112324 
L 270.669473 244.438148 
L 271.048727 229.448486 
L 271.42798 257.261486 
L 272.565741 252.831175 
L 272.944995 252.561864 
L 273.324248 247.610689 
L 274.082755 243.417135 
L 275.220516 239.066729 
L 275.599769 246.767243 
L 275.979023 245.145459 
L 276.73753 238.95131 
L 277.875291 236.512716 
L 278.254544 233.100459 
L 278.633798 225.906013 
L 279.013052 233.482229 
L 279.392305 234.941243 
L 280.909319 237.163797 
L 281.667827 240.235716 
L 282.04708 234.130351 
L 283.184841 229.886486 
L 283.564094 229.685243 
L 283.943348 228.797405 
L 284.322602 231.431324 
L 284.701855 228.116729 
L 285.839616 222.040959 
L 286.218869 210.676635 
L 286.598123 203.784054 
L 286.977377 217.024676 
L 287.35663 218.939446 
L 288.494391 214.846513 
L 288.873644 208.542865 
L 289.252898 204.73996 
L 289.632151 202.816311 
L 290.011405 199.70296 
L 291.149166 193.961608 
L 291.528419 186.474176 
L 291.907673 190.916325 
L 292.286926 187.93023 
L 292.66618 197.063122 
L 293.803941 198.909824 
L 294.183194 187.302825 
L 294.562448 169.563825 
L 294.941701 167.847338 
L 296.458716 143.174325 
L 296.837969 151.596947 
L 297.596476 124.58892 
L 297.97573 122.020109 
L 299.113491 136.225515 
L 299.492744 139.184974 
L 299.871998 150.303663 
L 300.251251 151.629501 
L 300.630505 157.243595 
L 301.768266 122.487704 
L 302.147519 131.150042 
L 302.526773 136.832204 
L 302.906026 153.60642 
L 303.28528 150.297744 
L 304.423041 143.446596 
L 304.802294 151.567352 
L 305.181548 146.65465 
L 305.560801 143.937866 
L 305.940055 127.246515 
L 307.077816 135.059488 
L 307.457069 131.073096 
L 307.836323 121.277285 
L 308.215576 118.320785 
L 308.59483 126.83515 
L 309.732591 129.691028 
L 310.111844 139.679204 
L 310.491098 127.607569 
L 310.870351 127.788096 
L 311.249605 129.711744 
L 312.387366 124.624434 
L 312.766619 105.37611 
L 313.145873 113.070704 
L 313.525126 107.613461 
L 313.90438 109.483839 
L 315.042141 106.118934 
L 315.421394 100.345029 
L 315.800648 86.234326 
L 316.179901 92.425515 
L 316.559155 92.159164 
L 317.696915 84.884813 
L 318.076169 77.758434 
L 318.455423 72.975948 
L 318.834676 97.16065 
L 319.21393 108.018907 
L 320.730944 129.442434 
L 321.110198 111.869164 
L 321.489451 125.704636 
L 321.868705 134.417285 
L 323.006465 136.379406 
L 323.385719 128.510204 
L 324.144226 150.324379 
L 324.52348 158.288285 
L 325.66124 157.465555 
L 326.040494 132.52915 
L 326.419748 151.63542 
L 326.799001 148.684839 
L 327.178255 137.536555 
L 328.316015 125.861488 
L 328.695269 130.17638 
L 329.074523 129.608163 
L 329.453776 118.874204 
L 329.83303 133.118082 
L 330.97079 122.138488 
L 331.350044 136.823325 
L 331.729297 122.656393 
L 332.108551 123.419934 
L 332.487805 109.196772 
L 333.625565 86.074515 
L 334.004819 85.967975 
L 334.384072 97.793975 
L 334.763326 101.505137 
L 335.14258 111.262474 
L 336.28034 120.951745 
L 336.659594 119.504569 
L 337.038847 124.248582 
L 337.418101 125.512272 
L 337.797355 121.369028 
L 338.935115 120.97838 
L 339.314369 109.247083 
L 339.693622 127.527663 
L 340.072876 120.389447 
L 340.45213 146.26696 
L 341.58989 150.951785 
L 341.969144 144.449852 
L 342.348397 115.929542 
L 342.727651 103.967407 
L 343.106905 105.541839 
L 344.244665 130.345069 
L 344.623919 146.43269 
L 345.003172 131.283217 
L 345.382426 135.296244 
L 345.761679 132.552825 
L 346.89944 132.221366 
L 347.278694 131.54069 
L 347.657947 136.009474 
L 348.037201 134.298907 
L 348.416454 136.90619 
L 349.554215 137.057123 
L 349.933469 134.145015 
L 350.312722 124.230826 
L 351.071229 122.709663 
L 352.20899 126.749326 
L 352.588244 119.048812 
L 353.346751 123.982231 
L 353.726004 127.557258 
L 354.863765 128.234974 
L 355.243019 125.379096 
L 355.622272 136.19592 
L 356.001526 136.598406 
L 357.51854 128.388866 
L 357.897794 127.181407 
L 358.277047 115.959137 
L 358.656301 116.681245 
L 359.035554 121.774474 
L 360.173315 121.105636 
L 360.552569 121.055326 
L 360.931822 124.198272 
L 361.311076 126.059771 
L 362.82809 109.596299 
L 363.207344 103.967407 
L 363.965851 113.597488 
L 365.482865 123.999988 
L 365.862119 119.27965 
L 366.241372 131.138204 
L 366.999879 124.580042 
L 368.13764 134.71619 
L 368.516894 133.73365 
L 368.896147 127.068947 
L 369.275401 132.751109 
L 369.654654 136.190001 
L 371.171668 133.745488 
L 371.550922 112.641583 
L 371.930176 106.187002 
L 372.309429 108.374042 
L 373.44719 108.11065 
L 373.826443 103.354799 
L 374.205697 117.19915 
L 374.584951 116.453366 
L 374.964204 121.102677 
L 376.481218 95.384975 
L 376.860472 105.370191 
L 377.618979 99.507502 
L 378.75674 103.828312 
L 379.515247 109.20861 
L 379.894501 112.825069 
L 380.273754 110.52261 
L 381.790768 111.818853 
L 382.170022 105.944326 
L 382.549276 103.047015 
L 382.928529 114.636258 
L 384.06629 124.870069 
L 384.445543 122.833961 
L 384.824797 128.007096 
L 385.20405 143.156569 
L 385.583304 137.865055 
L 386.721065 129.989934 
L 387.100318 137.625339 
L 387.479572 150.874839 
L 387.858825 154.935217 
L 388.238079 151.546636 
L 389.37584 158.723325 
L 389.755093 142.313123 
L 390.134347 143.085542 
L 390.5136 134.804974 
L 390.892854 138.371123 
L 392.030615 139.528271 
L 392.409868 138.021906 
L 392.789122 131.531812 
L 393.168375 147.47146 
L 393.547629 140.52265 
L 394.68539 135.207461 
L 395.064643 131.26842 
L 395.82315 144.769474 
L 396.202404 143.91419 
L 397.340165 140.41019 
L 397.719418 143.434758 
L 398.098672 137.693406 
L 398.477925 127.791055 
L 399.99494 118.063312 
L 400.374193 118.495393 
L 400.753447 110.274015 
L 401.1327 107.326393 
L 401.511954 96.539164 
L 402.649715 95.476718 
L 403.028968 92.425515 
L 403.408222 102.339704 
L 403.787475 95.52111 
L 404.166729 92.50838 
L 405.30449 96.568758 
L 405.683743 102.09111 
L 406.062997 98.045529 
L 406.44225 105.885137 
L 406.821504 101.173677 
L 407.959265 91.093759 
L 408.338518 89.844867 
L 408.717772 83.769096 
L 409.097025 81.872083 
L 409.476279 82.449178 
L 410.61404 94.42611 
L 410.993293 105.464893 
L 411.372547 111.582096 
L 411.7518 106.281704 
L 412.131054 108.462826 
L 413.268814 123.425853 
L 413.648068 118.483555 
L 414.027322 129.13169 
L 414.406575 127.720028 
L 414.785829 118.631528 
L 415.923589 111.602812 
L 416.302843 117.243542 
L 416.682097 117.314569 
L 417.06135 114.964758 
L 417.440604 121.564353 
L 418.957618 113.283785 
L 419.336872 112.378191 
L 419.716125 117.566123 
L 420.095379 118.604893 
L 421.612393 119.261893 
L 421.991647 116.991988 
L 422.3709 123.943758 
L 422.750154 121.099718 
L 423.887914 122.316055 
L 424.267168 112.532083 
L 424.646422 110.013583 
L 425.025675 99.877434 
L 425.404929 100.291758 
L 426.542689 94.813799 
L 426.921943 94.923299 
L 427.301196 90.170407 
L 427.68045 79.220407 
L 428.059704 79.566664 
L 429.197464 84.440894 
L 429.576718 76.823245 
L 429.955971 77.062961 
L 430.714479 92.209475 
L 431.852239 85.929502 
L 432.231493 85.302096 
L 432.99 87.548326 
L 433.369254 76.003475 
L 434.886268 51.623448 
L 435.265521 48.539692 
L 435.644775 43.387273 
L 436.024029 45.171827 
L 437.161789 45.287246 
L 437.541043 51.383732 
L 437.920296 50.744489 
L 438.678804 66.731489 
L 439.816564 70.288759 
L 440.195818 66.796597 
L 440.575071 65.020921 
L 440.954325 57.202029 
L 441.333578 54.449732 
L 442.471339 48.060259 
L 442.850593 58.924435 
L 443.229846 58.344381 
L 443.6091 62.842759 
L 443.988353 103.138758 
L 445.126114 102.564623 
L 445.505368 97.421083 
L 445.884621 99.125731 
L 446.263875 95.979826 
L 446.643128 100.572907 
L 447.780889 101.025704 
L 448.160143 104.162731 
L 448.539396 108.391799 
L 448.91865 106.704907 
L 449.297903 108.11361 
L 450.435664 107.373745 
L 451.194171 121.839582 
L 451.573425 123.834258 
L 451.952678 122.028988 
L 453.090439 112.27165 
L 453.469693 106.367529 
L 453.848946 107.34415 
L 454.2282 104.855245 
L 454.607453 99.877434 
L 455.745214 89.232259 
L 456.124468 81.949029 
L 456.503721 80.735651 
L 456.882975 83.085461 
L 457.262228 80.877705 
L 458.779243 76.255029 
L 459.158496 73.854907 
L 459.53775 79.97211 
L 459.917003 82.191705 
L 461.054764 83.964421 
L 461.434018 85.026867 
L 461.813271 81.209164 
L 462.192525 79.36838 
L 462.571778 83.174245 
L 463.709539 98.977758 
L 464.088793 100.765272 
L 464.8473 90.057948 
L 465.226553 88.649245 
L 466.364314 91.567272 
L 466.743568 104.861164 
L 467.502075 109.436488 
L 467.881328 109.69988 
L 469.019089 123.532393 
L 469.398342 118.912677 
L 470.15685 106.861758 
L 471.673864 115.168961 
L 472.053117 115.015069 
L 472.432371 109.548947 
L 472.811625 107.243529 
L 473.190878 91.090799 
L 474.328639 85.509259 
L 474.707892 85.891029 
L 475.087146 90.197042 
L 475.4664 87.243502 
L 475.845653 101.963853 
L 476.983414 104.210083 
L 477.362667 95.967988 
L 477.741921 93.538272 
L 478.121175 85.532934 
L 478.500428 96.50365 
L 479.638189 104.541542 
L 480.017442 105.337637 
L 480.396696 94.793083 
L 480.77595 81.031596 
L 481.155203 74.819691 
L 482.292964 79.25888 
L 482.672217 66.349718 
L 483.051471 80.285813 
L 483.430724 81.697475 
L 483.809978 73.905218 
L 484.947739 70.868813 
L 485.326992 71.605718 
L 485.706246 70.377543 
L 486.085499 48.616638 
L 486.464753 51.499151 
L 487.602514 66.891299 
L 487.981767 65.784462 
L 488.361021 65.731191 
L 489.119528 76.953461 
L 490.257289 68.516043 
L 491.015796 85.956137 
L 491.395049 86.897245 
L 491.774303 93.93484 
L 492.912064 88.376975 
L 493.291317 74.180448 
L 493.670571 74.201164 
L 494.429078 85.879191 
L 495.566839 93.704002 
L 495.946092 95.112704 
L 496.325346 82.614907 
L 496.704599 95.766745 
L 497.083853 92.372245 
L 498.221614 101.070096 
L 498.600867 91.191421 
L 498.980121 89.356556 
L 499.359374 89.264813 
L 500.876389 93.405096 
L 501.255642 90.469313 
L 501.634896 94.790123 
L 502.014149 96.435583 
L 502.393403 102.141421 
L 503.531164 91.229894 
L 504.289671 109.125745 
L 504.668924 112.390028 
L 505.048178 114.46165 
L 506.185939 117.622353 
L 506.565192 106.151488 
L 506.944446 106.610204 
L 507.323699 118.427326 
L 507.702953 115.692785 
L 509.219967 125.225204 
L 509.599221 132.973069 
L 509.978474 146.681285 
L 510.357728 173.387446 
L 511.495488 167.761514 
L 511.874742 181.25073 
L 512.253996 184.547568 
L 512.633249 182.283581 
L 513.012503 169.436568 
L 514.529517 148.084068 
L 514.908771 149.800555 
L 515.288024 184.624514 
L 515.667278 129.007393 
L 516.805038 128.128434 
L 517.184292 117.838393 
L 517.563546 118.501312 
L 517.942799 124.97069 
L 518.322053 141.866244 
L 519.459813 136.323177 
L 520.218321 127.643082 
L 520.597574 137.847298 
L 520.976828 143.91419 
L 522.493842 151.03169 
L 522.873095 166.923987 
L 523.252349 147.595758 
L 523.631603 140.404271 
L 524.769363 141.07015 
L 525.148617 148.235001 
L 525.52787 145.538933 
L 525.907124 157.835487 
L 526.286378 164.514987 
L 527.424138 188.747041 
L 527.803392 193.005703 
L 528.182645 183.343068 
L 528.561899 161.031703 
L 530.078913 175.725419 
L 531.216674 130.191177 
L 531.595928 118.317826 
L 532.733688 117.604596 
L 533.112942 107.551312 
L 533.492195 111.934272 
L 533.871449 111.218083 
L 534.250703 107.89461 
L 535.388463 95.414569 
L 535.767717 94.452745 
L 536.526224 113.15061 
L 536.905477 111.484434 
L 538.043238 97.320461 
L 538.801745 125.701677 
L 539.180999 128.575312 
L 539.560252 138.415515 
L 540.698013 148.29419 
L 541.077267 149.28265 
L 541.45652 135.216339 
L 541.835774 146.565866 
L 543.352788 143.372609 
L 543.732042 127.59869 
L 544.111295 139.782785 
L 544.490549 156.657622 
L 544.869802 168.335649 
L 546.007563 163.233541 
L 546.386817 183.011608 
L 546.76607 186.633987 
L 547.145324 167.607622 
L 547.524577 227.726081 
L 548.662338 227.080919 
L 549.041592 227.808946 
L 549.420845 222.854811 
L 549.800099 251.031824 
L 550.179352 255.87054 
L 551.317113 273.576986 
L 551.696367 273.369823 
L 552.07562 283.689458 
L 552.454874 279.078621 
L 552.834127 260.951932 
L 553.971888 267.592959 
L 554.351142 254.106702 
L 554.730395 278.537039 
L 555.488902 277.122418 
L 556.626663 277.22304 
L 557.005917 287.453891 
L 557.38517 279.537337 
L 558.143677 254.763702 
L 560.039945 235.414756 
L 560.419199 224.088905 
L 560.798452 233.443756 
L 561.936213 226.222675 
L 562.69472 236.906324 
L 563.453227 271.028891 
L 564.590988 288.726458 
L 564.970241 292.751323 
L 565.349495 276.888621 
L 565.728749 288.756053 
L 566.108002 281.179837 
L 567.625016 273.899567 
L 568.00427 273.100513 
L 568.762777 250.874972 
L 569.900538 260.463621 
L 570.279791 277.687675 
L 570.659045 273.189296 
L 571.038299 281.209431 
L 571.417552 271.295242 
L 573.31382 257.178621 
L 573.693074 251.259702 
L 574.072327 253.597675 
L 575.210088 264.814026 
L 575.589341 272.301459 
L 575.968595 268.809296 
L 576.347849 268.128621 
L 576.727102 259.486999 
L 577.864863 258.865513 
L 578.62337 232.200783 
L 579.002623 226.696189 
L 579.381877 233.236594 
L 580.519638 237.024702 
L 580.898891 255.75808 
L 581.278145 237.52781 
L 581.657398 233.650919 
L 582.036652 196.154568 
L 583.174413 194.852406 
L 583.553666 198.492541 
L 583.93292 182.629838 
L 584.312173 173.603487 
L 584.691427 178.84173 
L 585.829188 182.955379 
L 586.208441 187.631325 
L 586.587695 173.248352 
L 586.966948 179.315244 
L 587.346202 170.703217 
L 588.483963 171.798217 
L 588.863216 167.063082 
L 589.24247 174.994433 
L 589.621723 174.402541 
L 590.000977 186.447541 
L 591.138738 201.274433 
L 591.517991 200.090649 
L 591.897245 199.557946 
L 592.276498 189.259027 
L 592.655752 208.584297 
L 593.793513 211.425378 
L 594.172766 214.562405 
L 594.55202 220.362946 
L 594.931273 217.255513 
L 595.310527 218.172946 
L 596.827541 222.316189 
L 597.206795 212.342811 
L 597.586048 211.336595 
L 597.965302 201.12646 
L 599.103063 191.715379 
L 599.482316 220.214973 
L 599.86157 215.095108 
L 600.620077 229.951594 
L 601.757838 226.607405 
L 602.137091 233.91727 
L 602.516345 244.719297 
L 602.895598 248.359432 
L 603.274852 258.806324 
L 604.412613 254.751864 
L 604.791866 256.941864 
L 605.17112 246.28781 
L 605.550373 255.787675 
L 605.929627 261.114702 
L 607.067387 252.591459 
L 607.446641 237.172675 
L 607.825895 237.587 
L 608.205148 239.510648 
L 608.584402 256.497945 
L 609.722162 259.131864 
L 610.101416 263.452675 
L 610.48067 261.410648 
L 610.859923 262.505648 
L 611.239177 279.167404 
L 612.756191 251.170918 
L 613.135445 254.988621 
L 613.514698 254.455918 
L 613.893952 242.410918 
L 615.031712 240.931189 
L 615.410966 238.62281 
L 616.169473 267.151999 
L 616.548727 289.495918 
L 617.686487 292.366593 
L 618.444995 322.908215 
L 618.824248 331.25389 
L 619.203502 326.281998 
L 620.341262 327.613755 
L 620.720516 329.241458 
L 621.099769 340.605782 
L 621.479023 309.561053 
L 621.858277 297.249701 
L 622.996037 304.056458 
L 623.375291 302.724701 
L 624.133798 314.82889 
L 624.513052 316.930106 
L 625.650812 321.901998 
L 626.409319 316.959701 
L 627.167827 319.090512 
L 628.305587 317.492404 
L 628.684841 322.020377 
L 629.064094 309.827404 
L 629.443348 312.905242 
L 629.822602 316.959701 
L 630.960362 326.193214 
L 631.339616 334.361322 
L 631.718869 333.739836 
L 632.098123 328.146458 
L 632.477377 331.875377 
L 633.615137 327.554566 
L 633.994391 321.813215 
L 634.373644 324.506323 
L 634.752898 333.769431 
L 635.132151 335.515512 
L 636.269912 344.216322 
L 636.649166 343.417268 
L 637.028419 338.741322 
L 637.407673 347.560511 
L 637.786926 343.239701 
L 639.303941 349.780106 
L 639.683194 353.390646 
L 640.062448 346.406322 
L 640.441701 346.939025 
L 641.958716 341.552809 
L 642.337969 343.565241 
L 642.717223 349.543349 
L 643.096476 340.783349 
L 644.234237 336.995241 
L 644.613491 329.566998 
L 644.992744 314.11862 
L 645.371998 313.585917 
L 645.751251 305.151458 
L 647.647519 313.02362 
L 648.026773 318.291458 
L 648.406026 307.726188 
L 649.543787 306.927134 
L 649.923041 310.478485 
L 650.302294 307.93335 
L 650.681548 301.896053 
L 651.060801 292.958485 
L 652.198562 297.959972 
L 652.957069 284.346458 
L 653.336323 261.381053 
L 653.715576 289.555107 
L 654.853337 293.136053 
L 655.232591 293.343215 
L 655.991098 304.796323 
L 656.370351 306.660782 
L 657.508112 300.949026 
L 657.887366 300.475512 
L 658.266619 296.154701 
L 658.645873 305.062674 
L 659.025126 307.874161 
L 660.542141 315.627944 
L 660.921394 312.046998 
L 661.300648 311.958215 
L 661.679901 318.824161 
L 662.817662 318.054701 
L 663.196915 316.663755 
L 663.576169 322.760242 
L 663.955423 322.87862 
L 664.334676 314.680917 
L 665.472437 318.084296 
L 665.85169 318.676188 
L 666.230944 317.581188 
L 666.989451 327.021863 
L 668.127212 321.990782 
L 668.506465 314.740107 
L 668.885719 310.83362 
L 669.264973 299.469296 
L 669.644226 302.695107 
L 670.781987 306.364836 
L 671.16124 297.782404 
L 671.540494 303.434972 
L 671.919748 303.405377 
L 672.299001 305.121863 
L 673.436762 305.388215 
L 673.816015 307.755782 
L 674.195269 298.847809 
L 674.953776 289.851053 
L 676.091537 292.455377 
L 676.47079 287.89781 
L 676.850044 296.332269 
L 677.229297 293.491188 
L 678.746312 293.165647 
L 679.504819 306.009701 
L 679.884072 292.484972 
L 680.263326 292.159431 
L 681.401087 291.478756 
L 681.78034 292.780918 
L 682.159594 286.861999 
L 682.538847 288.312134 
L 682.918101 278.989837 
L 684.055862 281.209431 
L 684.435115 291.981864 
L 684.814369 284.849566 
L 685.193622 270.525783 
L 685.572876 283.458621 
L 686.710637 293.520783 
L 687.08989 288.844837 
L 687.469144 288.785647 
L 687.848397 287.749837 
L 688.227651 282.837134 
L 689.365412 282.334026 
L 689.744665 279.996053 
L 690.123919 269.430783 
L 690.503172 263.541459 
L 690.882426 269.223621 
L 692.020187 266.441729 
L 693.157947 245.873486 
L 693.537201 251.496459 
L 694.674962 255.166188 
L 695.054215 255.225378 
L 695.433469 250.016729 
L 695.812722 255.195783 
L 696.191976 240.072945 
L 697.70899 235.485783 
L 698.088244 238.682 
L 698.467497 232.200783 
L 698.846751 227.820783 
L 699.984512 224.713351 
L 700.363765 220.836459 
L 700.743019 236.758351 
L 701.122272 227.820783 
L 701.501526 230.24754 
L 702.639286 220.954838 
L 703.01854 220.688486 
L 703.397794 221.398757 
L 703.777047 219.35673 
L 704.156301 224.151054 
L 705.673315 223.292811 
L 706.052569 226.104297 
L 706.431822 210.359973 
L 706.811076 212.78673 
L 707.948836 218.705648 
L 708.32809 213.230649 
L 708.707344 213.644973 
L 709.086597 217.018757 
L 709.465851 209.738486 
L 710.603611 210.152811 
L 711.362119 209.679297 
L 711.741372 215.657405 
L 712.120626 211.454973 
L 713.258386 219.29754 
L 714.016894 208.436324 
L 714.396147 198.078216 
L 714.775401 196.953622 
L 715.913161 200.268216 
L 716.292415 202.428622 
L 716.671668 194.941189 
L 717.050922 210.92227 
L 717.430176 210.803892 
L 718.567936 214.355243 
L 718.94719 213.378622 
L 719.326443 216.278892 
L 719.705697 215.982946 
L 720.084951 204.263487 
L 721.222711 199.913081 
L 721.601965 205.802405 
L 721.981218 216.101324 
L 722.360472 214.029703 
L 722.739726 182.481865 
L 723.877486 174.639298 
L 724.635993 187.572135 
L 725.015247 185.470919 
L 725.394501 185.914838 
L 726.532261 179.522406 
L 727.290768 195.799433 
L 727.670022 199.025243 
L 728.049276 201.274433 
L 729.187036 196.953622 
L 729.56629 198.226189 
L 729.945543 194.467676 
L 730.324797 205.358487 
L 730.70405 201.156054 
L 731.841811 201.511189 
L 732.221065 196.272946 
L 732.600318 195.799433 
L 732.979572 187.098622 
L 733.358825 186.773081 
L 734.87584 189.288622 
L 735.255093 194.941189 
L 735.634347 187.572135 
L 736.0136 186.447541 
L 737.151361 172.034974 
L 737.530615 177.569163 
L 737.909868 166.85592 
L 738.289122 167.240649 
L 738.668375 180.055109 
L 739.806136 181.268487 
L 740.564643 195.148352 
L 740.943897 212.78673 
L 741.32315 213.408216 
L 742.460911 207.045378 
L 742.840165 222.700919 
L 743.598672 222.700919 
L 743.977925 219.327135 
L 745.115686 212.402 
L 745.49494 226.429838 
L 745.874193 219.68227 
L 746.253447 222.760108 
L 746.6327 216.841189 
L 747.770461 215.953351 
L 748.149715 212.342811 
L 748.528968 205.388081 
L 748.908222 203.908351 
L 749.287475 211.425378 
L 750.425236 203.25727 
L 750.80449 206.453487 
L 751.183743 216.338081 
L 751.562997 215.539027 
L 751.94225 225.098081 
L 753.080011 220.984432 
L 753.459265 215.065513 
L 753.838518 236.284837 
L 754.217772 241.671054 
L 754.597025 217.49227 
L 755.734786 202.783757 
L 756.11404 201.659162 
L 756.493293 190.087676 
L 756.872547 186.921054 
L 757.2518 185.352541 
L 758.389561 181.978757 
L 758.768814 173.189163 
L 759.148068 175.053622 
L 759.527322 179.433622 
L 759.906575 170.673622 
L 761.044336 173.544298 
L 761.423589 164.044433 
L 761.802843 171.739028 
L 762.182097 172.834028 
L 762.56135 165.879298 
L 763.699111 163.067811 
L 764.078364 169.667406 
L 764.457618 161.351325 
L 765.216125 161.262541 
L 766.353886 158.332676 
L 767.112393 162.505514 
L 767.491647 163.18619 
L 767.8709 160.404298 
L 769.008661 166.885514 
L 769.387914 160.848217 
L 769.767168 167.832541 
L 770.146422 160.848217 
L 770.525675 159.250109 
L 771.663436 163.778082 
L 772.421943 155.047676 
L 772.801196 159.250109 
L 773.18045 151.703487 
L 774.318211 139.569704 
L 774.697464 140.398352 
L 775.076718 145.34065 
L 775.455971 140.250379 
L 775.835225 141.493352 
L 777.352239 141.522947 
L 777.731493 141.730109 
L 778.110746 141.611731 
L 778.49 145.873352 
L 778.49 145.873352 
" clip-path="url(#pa5d9b59bb7)" style="fill: none; stroke: #1f77b4; stroke-width: 1.5; stroke-linecap: square"/>
   </g>
   <g id="patch_7">
    <path d="M 52.94 390.04 
L 52.94 26.88 
" style="fill: none; stroke: #000000; stroke-width: 0.8; stroke-linejoin: miter; stroke-linecap: square"/>
   </g>
   <g id="patch_8">
    <path d="M 813.04 390.04 
L 813.04 26.88 
" style="fill: none; stroke: #000000; stroke-width: 0.8; stroke-linejoin: miter; stroke-linecap: square"/>
   </g>
   <g id="patch_9">
    <path d="M 52.94 390.04 
L 813.04 390.04 
" style="fill: none; stroke: #000000; stroke-width: 0.8; stroke-linejoin: miter; stroke-linecap: square"/>
   </g>
   <g id="patch_10">
    <path d="M 52.94 26.88 
L 813.04 26.88 
" style="fill: none; stroke: #000000; stroke-width: 0.8; stroke-linejoin: miter; stroke-linecap: square"/>
   </g>
   <g id="text_22">
    <!-- Stock Trading Performance for AMZN -->
    <g transform="translate(322.5975 20.88) scale(0.12 -0.12)">
     <defs>
      <path id="DejaVuSans-53" d="M 3425 4513 
L 3425 3897 
Q 3066 4069 2747 4153 
Q 2428 4238 2131 4238 
Q 1616 4238 1336 4038 
Q 1056 3838 1056 3469 
Q 1056 3159 1242 3001 
Q 1428 2844 1947 2747 
L 2328 2669 
Q 3034 2534 3370 2195 
Q 3706 1856 3706 1288 
Q 3706 609 3251 259 
Q 2797 -91 1919 -91 
Q 1588 -91 1214 -16 
Q 841 59 441 206 
L 441 856 
Q 825 641 1194 531 
Q 1563 422 1919 422 
Q 2459 422 2753 634 
Q 3047 847 3047 1241 
Q 3047 1584 2836 1778 
Q 2625 1972 2144 2069 
L 1759 2144 
Q 1053 2284 737 2584 
Q 422 2884 422 3419 
Q 422 4038 858 4394 
Q 1294 4750 2059 4750 
Q 2388 4750 2728 4690 
Q 3069 4631 3425 4513 
z
" transform="scale(0.015625)"/>
      <path id="DejaVuSans-6b" d="M 581 4863 
L 1159 4863 
L 1159 1991 
L 2875 3500 
L 3609 3500 
L 1753 1863 
L 3688 0 
L 2938 0 
L 1159 1709 
L 1159 0 
L 581 0 
L 581 4863 
z
" transform="scale(0.015625)"/>
      <path id="DejaVuSans-54" d="M -19 4666 
L 3928 4666 
L 3928 4134 
L 2272 4134 
L 2272 0 
L 1638 0 
L 1638 4134 
L -19 4134 
L -19 4666 
z
" transform="scale(0.015625)"/>
      <path id="DejaVuSans-64" d="M 2906 2969 
L 2906 4863 
L 3481 4863 
L 3481 0 
L 2906 0 
L 2906 525 
Q 2725 213 2448 61 
Q 2172 -91 1784 -91 
Q 1150 -91 751 415 
Q 353 922 353 1747 
Q 353 2572 751 3078 
Q 1150 3584 1784 3584 
Q 2172 3584 2448 3432 
Q 2725 3281 2906 2969 
z
M 947 1747 
Q 947 1113 1208 752 
Q 1469 391 1925 391 
Q 2381 391 2643 752 
Q 2906 1113 2906 1747 
Q 2906 2381 2643 2742 
Q 2381 3103 1925 3103 
Q 1469 3103 1208 2742 
Q 947 2381 947 1747 
z
" transform="scale(0.015625)"/>
      <path id="DejaVuSans-67" d="M 2906 1791 
Q 2906 2416 2648 2759 
Q 2391 3103 1925 3103 
Q 1463 3103 1205 2759 
Q 947 2416 947 1791 
Q 947 1169 1205 825 
Q 1463 481 1925 481 
Q 2391 481 2648 825 
Q 2906 1169 2906 1791 
z
M 3481 434 
Q 3481 -459 3084 -895 
Q 2688 -1331 1869 -1331 
Q 1566 -1331 1297 -1286 
Q 1028 -1241 775 -1147 
L 775 -588 
Q 1028 -725 1275 -790 
Q 1522 -856 1778 -856 
Q 2344 -856 2625 -561 
Q 2906 -266 2906 331 
L 2906 616 
Q 2728 306 2450 153 
Q 2172 0 1784 0 
Q 1141 0 747 490 
Q 353 981 353 1791 
Q 353 2603 747 3093 
Q 1141 3584 1784 3584 
Q 2172 3584 2450 3431 
Q 2728 3278 2906 2969 
L 2906 3500 
L 3481 3500 
L 3481 434 
z
" transform="scale(0.015625)"/>
      <path id="DejaVuSans-66" d="M 2375 4863 
L 2375 4384 
L 1825 4384 
Q 1516 4384 1395 4259 
Q 1275 4134 1275 3809 
L 1275 3500 
L 2222 3500 
L 2222 3053 
L 1275 3053 
L 1275 0 
L 697 0 
L 697 3053 
L 147 3053 
L 147 3500 
L 697 3500 
L 697 3744 
Q 697 4328 969 4595 
Q 1241 4863 1831 4863 
L 2375 4863 
z
" transform="scale(0.015625)"/>
      <path id="DejaVuSans-6d" d="M 3328 2828 
Q 3544 3216 3844 3400 
Q 4144 3584 4550 3584 
Q 5097 3584 5394 3201 
Q 5691 2819 5691 2113 
L 5691 0 
L 5113 0 
L 5113 2094 
Q 5113 2597 4934 2840 
Q 4756 3084 4391 3084 
Q 3944 3084 3684 2787 
Q 3425 2491 3425 1978 
L 3425 0 
L 2847 0 
L 2847 2094 
Q 2847 2600 2669 2842 
Q 2491 3084 2119 3084 
Q 1678 3084 1418 2786 
Q 1159 2488 1159 1978 
L 1159 0 
L 581 0 
L 581 3500 
L 1159 3500 
L 1159 2956 
Q 1356 3278 1631 3431 
Q 1906 3584 2284 3584 
Q 2666 3584 2933 3390 
Q 3200 3197 3328 2828 
z
" transform="scale(0.015625)"/>
      <path id="DejaVuSans-41" d="M 2188 4044 
L 1331 1722 
L 3047 1722 
L 2188 4044 
z
M 1831 4666 
L 2547 4666 
L 4325 0 
L 3669 0 
L 3244 1197 
L 1141 1197 
L 716 0 
L 50 0 
L 1831 4666 
z
" transform="scale(0.015625)"/>
      <path id="DejaVuSans-4d" d="M 628 4666 
L 1569 4666 
L 2759 1491 
L 3956 4666 
L 4897 4666 
L 4897 0 
L 4281 0 
L 4281 4097 
L 3078 897 
L 2444 897 
L 1241 4097 
L 1241 0 
L 628 0 
L 628 4666 
z
" transform="scale(0.015625)"/>
      <path id="DejaVuSans-5a" d="M 359 4666 
L 4025 4666 
L 4025 4184 
L 1075 531 
L 4097 531 
L 4097 0 
L 288 0 
L 288 481 
L 3238 4134 
L 359 4134 
L 359 4666 
z
" transform="scale(0.015625)"/>
      <path id="DejaVuSans-4e" d="M 628 4666 
L 1478 4666 
L 3547 763 
L 3547 4666 
L 4159 4666 
L 4159 0 
L 3309 0 
L 1241 3903 
L 1241 0 
L 628 0 
L 628 4666 
z
" transform="scale(0.015625)"/>
     </defs>
     <use xlink:href="#DejaVuSans-53"/>
     <use xlink:href="#DejaVuSans-74" x="63.476562"/>
     <use xlink:href="#DejaVuSans-6f" x="102.685547"/>
     <use xlink:href="#DejaVuSans-63" x="163.867188"/>
     <use xlink:href="#DejaVuSans-6b" x="218.847656"/>
     <use xlink:href="#DejaVuSans-20" x="276.757812"/>
     <use xlink:href="#DejaVuSans-54" x="308.544922"/>
     <use xlink:href="#DejaVuSans-72" x="354.878906"/>
     <use xlink:href="#DejaVuSans-61" x="395.992188"/>
     <use xlink:href="#DejaVuSans-64" x="457.271484"/>
     <use xlink:href="#DejaVuSans-69" x="520.748047"/>
     <use xlink:href="#DejaVuSans-6e" x="548.53125"/>
     <use xlink:href="#DejaVuSans-67" x="611.910156"/>
     <use xlink:href="#DejaVuSans-20" x="675.386719"/>
     <use xlink:href="#DejaVuSans-50" x="707.173828"/>
     <use xlink:href="#DejaVuSans-65" x="763.851562"/>
     <use xlink:href="#DejaVuSans-72" x="825.375"/>
     <use xlink:href="#DejaVuSans-66" x="866.488281"/>
     <use xlink:href="#DejaVuSans-6f" x="901.693359"/>
     <use xlink:href="#DejaVuSans-72" x="962.875"/>
     <use xlink:href="#DejaVuSans-6d" x="1002.238281"/>
     <use xlink:href="#DejaVuSans-61" x="1099.650391"/>
     <use xlink:href="#DejaVuSans-6e" x="1160.929688"/>
     <use xlink:href="#DejaVuSans-63" x="1224.308594"/>
     <use xlink:href="#DejaVuSans-65" x="1279.289062"/>
     <use xlink:href="#DejaVuSans-20" x="1340.8125"/>
     <use xlink:href="#DejaVuSans-66" x="1372.599609"/>
     <use xlink:href="#DejaVuSans-6f" x="1407.804688"/>
     <use xlink:href="#DejaVuSans-72" x="1468.986328"/>
     <use xlink:href="#DejaVuSans-20" x="1510.099609"/>
     <use xlink:href="#DejaVuSans-41" x="1541.886719"/>
     <use xlink:href="#DejaVuSans-4d" x="1610.294922"/>
     <use xlink:href="#DejaVuSans-5a" x="1696.574219"/>
     <use xlink:href="#DejaVuSans-4e" x="1765.080078"/>
    </g>
   </g>
  </g>
 </g>
 <defs>
  <clipPath id="pa5d9b59bb7">
   <rect x="52.94" y="26.88" width="760.1" height="363.16"/>
  </clipPath>
 </defs>
</svg>
