<?xml version="1.0" encoding="utf-8" standalone="no"?>
<!DOCTYPE svg PUBLIC "-//W3C//DTD SVG 1.1//EN"
  "http://www.w3.org/Graphics/SVG/1.1/DTD/svg11.dtd">
<svg xmlns:xlink="http://www.w3.org/1999/xlink" width="864pt" height="432pt" viewBox="0 0 864 432" xmlns="http://www.w3.org/2000/svg" version="1.1">
 <metadata>
  <rdf:RDF xmlns:dc="http://purl.org/dc/elements/1.1/" xmlns:cc="http://creativecommons.org/ns#" xmlns:rdf="http://www.w3.org/1999/02/22-rdf-syntax-ns#">
   <cc:Work>
    <dc:type rdf:resource="http://purl.org/dc/dcmitype/StillImage"/>
    <dc:date>2024-04-16T14:18:44.751857</dc:date>
    <dc:format>image/svg+xml</dc:format>
    <dc:creator>
     <cc:Agent>
      <dc:title>Matplotlib v3.8.2, https://matplotlib.org/</dc:title>
     </cc:Agent>
    </dc:creator>
   </cc:Work>
  </rdf:RDF>
 </metadata>
 <defs>
  <style type="text/css">*{stroke-linejoin: round; stroke-linecap: butt}</style>
 </defs>
 <g id="figure_1">
  <g id="patch_1">
   <path d="M 0 432 
L 864 432 
L 864 0 
L 0 0 
z
" style="fill: #ffffff"/>
  </g>
  <g id="axes_1">
   <g id="patch_2">
    <path d="M 44.57 390.04 
L 813.04 390.04 
L 813.04 26.88 
L 44.57 26.88 
z
" style="fill: #ffffff"/>
   </g>
   <g id="matplotlib.axis_1">
    <g id="xtick_1">
     <g id="line2d_1">
      <path d="M 79.117025 390.04 
L 79.117025 26.88 
" clip-path="url(#p8804488353)" style="fill: none; stroke-dasharray: 1.85,0.8; stroke-dashoffset: 0; stroke: #b0b0b0; stroke-opacity: 0.5; stroke-width: 0.5"/>
     </g>
     <g id="line2d_2">
      <defs>
       <path id="mdb4700157b" d="M 0 0 
L 0 3.5 
" style="stroke: #000000; stroke-width: 0.8"/>
      </defs>
      <g>
       <use xlink:href="#mdb4700157b" x="79.117025" y="390.04" style="stroke: #000000; stroke-width: 0.8"/>
      </g>
     </g>
     <g id="text_1">
      <!-- 2019 -->
      <g transform="translate(66.392025 404.638438) scale(0.1 -0.1)">
       <defs>
        <path id="DejaVuSans-32" d="M 1228 531 
L 3431 531 
L 3431 0 
L 469 0 
L 469 531 
Q 828 903 1448 1529 
Q 2069 2156 2228 2338 
Q 2531 2678 2651 2914 
Q 2772 3150 2772 3378 
Q 2772 3750 2511 3984 
Q 2250 4219 1831 4219 
Q 1534 4219 1204 4116 
Q 875 4013 500 3803 
L 500 4441 
Q 881 4594 1212 4672 
Q 1544 4750 1819 4750 
Q 2544 4750 2975 4387 
Q 3406 4025 3406 3419 
Q 3406 3131 3298 2873 
Q 3191 2616 2906 2266 
Q 2828 2175 2409 1742 
Q 1991 1309 1228 531 
z
" transform="scale(0.015625)"/>
        <path id="DejaVuSans-30" d="M 2034 4250 
Q 1547 4250 1301 3770 
Q 1056 3291 1056 2328 
Q 1056 1369 1301 889 
Q 1547 409 2034 409 
Q 2525 409 2770 889 
Q 3016 1369 3016 2328 
Q 3016 3291 2770 3770 
Q 2525 4250 2034 4250 
z
M 2034 4750 
Q 2819 4750 3233 4129 
Q 3647 3509 3647 2328 
Q 3647 1150 3233 529 
Q 2819 -91 2034 -91 
Q 1250 -91 836 529 
Q 422 1150 422 2328 
Q 422 3509 836 4129 
Q 1250 4750 2034 4750 
z
" transform="scale(0.015625)"/>
        <path id="DejaVuSans-31" d="M 794 531 
L 1825 531 
L 1825 4091 
L 703 3866 
L 703 4441 
L 1819 4666 
L 2450 4666 
L 2450 531 
L 3481 531 
L 3481 0 
L 794 0 
L 794 531 
z
" transform="scale(0.015625)"/>
        <path id="DejaVuSans-39" d="M 703 97 
L 703 672 
Q 941 559 1184 500 
Q 1428 441 1663 441 
Q 2288 441 2617 861 
Q 2947 1281 2994 2138 
Q 2813 1869 2534 1725 
Q 2256 1581 1919 1581 
Q 1219 1581 811 2004 
Q 403 2428 403 3163 
Q 403 3881 828 4315 
Q 1253 4750 1959 4750 
Q 2769 4750 3195 4129 
Q 3622 3509 3622 2328 
Q 3622 1225 3098 567 
Q 2575 -91 1691 -91 
Q 1453 -91 1209 -44 
Q 966 3 703 97 
z
M 1959 2075 
Q 2384 2075 2632 2365 
Q 2881 2656 2881 3163 
Q 2881 3666 2632 3958 
Q 2384 4250 1959 4250 
Q 1534 4250 1286 3958 
Q 1038 3666 1038 3163 
Q 1038 2656 1286 2365 
Q 1534 2075 1959 2075 
z
" transform="scale(0.015625)"/>
       </defs>
       <use xlink:href="#DejaVuSans-32"/>
       <use xlink:href="#DejaVuSans-30" x="63.623047"/>
       <use xlink:href="#DejaVuSans-31" x="127.246094"/>
       <use xlink:href="#DejaVuSans-39" x="190.869141"/>
      </g>
     </g>
    </g>
    <g id="xtick_2">
     <g id="line2d_3">
      <path d="M 219.068901 390.04 
L 219.068901 26.88 
" clip-path="url(#p8804488353)" style="fill: none; stroke-dasharray: 1.85,0.8; stroke-dashoffset: 0; stroke: #b0b0b0; stroke-opacity: 0.5; stroke-width: 0.5"/>
     </g>
     <g id="line2d_4">
      <g>
       <use xlink:href="#mdb4700157b" x="219.068901" y="390.04" style="stroke: #000000; stroke-width: 0.8"/>
      </g>
     </g>
     <g id="text_2">
      <!-- 2020 -->
      <g transform="translate(206.343901 404.638438) scale(0.1 -0.1)">
       <use xlink:href="#DejaVuSans-32"/>
       <use xlink:href="#DejaVuSans-30" x="63.623047"/>
       <use xlink:href="#DejaVuSans-32" x="127.246094"/>
       <use xlink:href="#DejaVuSans-30" x="190.869141"/>
      </g>
     </g>
    </g>
    <g id="xtick_3">
     <g id="line2d_5">
      <path d="M 359.404207 390.04 
L 359.404207 26.88 
" clip-path="url(#p8804488353)" style="fill: none; stroke-dasharray: 1.85,0.8; stroke-dashoffset: 0; stroke: #b0b0b0; stroke-opacity: 0.5; stroke-width: 0.5"/>
     </g>
     <g id="line2d_6">
      <g>
       <use xlink:href="#mdb4700157b" x="359.404207" y="390.04" style="stroke: #000000; stroke-width: 0.8"/>
      </g>
     </g>
     <g id="text_3">
      <!-- 2021 -->
      <g transform="translate(346.679207 404.638438) scale(0.1 -0.1)">
       <use xlink:href="#DejaVuSans-32"/>
       <use xlink:href="#DejaVuSans-30" x="63.623047"/>
       <use xlink:href="#DejaVuSans-32" x="127.246094"/>
       <use xlink:href="#DejaVuSans-31" x="190.869141"/>
      </g>
     </g>
    </g>
    <g id="xtick_4">
     <g id="line2d_7">
      <path d="M 499.356083 390.04 
L 499.356083 26.88 
" clip-path="url(#p8804488353)" style="fill: none; stroke-dasharray: 1.85,0.8; stroke-dashoffset: 0; stroke: #b0b0b0; stroke-opacity: 0.5; stroke-width: 0.5"/>
     </g>
     <g id="line2d_8">
      <g>
       <use xlink:href="#mdb4700157b" x="499.356083" y="390.04" style="stroke: #000000; stroke-width: 0.8"/>
      </g>
     </g>
     <g id="text_4">
      <!-- 2022 -->
      <g transform="translate(486.631083 404.638438) scale(0.1 -0.1)">
       <use xlink:href="#DejaVuSans-32"/>
       <use xlink:href="#DejaVuSans-30" x="63.623047"/>
       <use xlink:href="#DejaVuSans-32" x="127.246094"/>
       <use xlink:href="#DejaVuSans-32" x="190.869141"/>
      </g>
     </g>
    </g>
    <g id="xtick_5">
     <g id="line2d_9">
      <path d="M 639.307959 390.04 
L 639.307959 26.88 
" clip-path="url(#p8804488353)" style="fill: none; stroke-dasharray: 1.85,0.8; stroke-dashoffset: 0; stroke: #b0b0b0; stroke-opacity: 0.5; stroke-width: 0.5"/>
     </g>
     <g id="line2d_10">
      <g>
       <use xlink:href="#mdb4700157b" x="639.307959" y="390.04" style="stroke: #000000; stroke-width: 0.8"/>
      </g>
     </g>
     <g id="text_5">
      <!-- 2023 -->
      <g transform="translate(626.582959 404.638438) scale(0.1 -0.1)">
       <defs>
        <path id="DejaVuSans-33" d="M 2597 2516 
Q 3050 2419 3304 2112 
Q 3559 1806 3559 1356 
Q 3559 666 3084 287 
Q 2609 -91 1734 -91 
Q 1441 -91 1130 -33 
Q 819 25 488 141 
L 488 750 
Q 750 597 1062 519 
Q 1375 441 1716 441 
Q 2309 441 2620 675 
Q 2931 909 2931 1356 
Q 2931 1769 2642 2001 
Q 2353 2234 1838 2234 
L 1294 2234 
L 1294 2753 
L 1863 2753 
Q 2328 2753 2575 2939 
Q 2822 3125 2822 3475 
Q 2822 3834 2567 4026 
Q 2313 4219 1838 4219 
Q 1578 4219 1281 4162 
Q 984 4106 628 3988 
L 628 4550 
Q 988 4650 1302 4700 
Q 1616 4750 1894 4750 
Q 2613 4750 3031 4423 
Q 3450 4097 3450 3541 
Q 3450 3153 3228 2886 
Q 3006 2619 2597 2516 
z
" transform="scale(0.015625)"/>
       </defs>
       <use xlink:href="#DejaVuSans-32"/>
       <use xlink:href="#DejaVuSans-30" x="63.623047"/>
       <use xlink:href="#DejaVuSans-32" x="127.246094"/>
       <use xlink:href="#DejaVuSans-33" x="190.869141"/>
      </g>
     </g>
    </g>
    <g id="xtick_6">
     <g id="line2d_11">
      <path d="M 779.259835 390.04 
L 779.259835 26.88 
" clip-path="url(#p8804488353)" style="fill: none; stroke-dasharray: 1.85,0.8; stroke-dashoffset: 0; stroke: #b0b0b0; stroke-opacity: 0.5; stroke-width: 0.5"/>
     </g>
     <g id="line2d_12">
      <g>
       <use xlink:href="#mdb4700157b" x="779.259835" y="390.04" style="stroke: #000000; stroke-width: 0.8"/>
      </g>
     </g>
     <g id="text_6">
      <!-- 2024 -->
      <g transform="translate(766.534835 404.638438) scale(0.1 -0.1)">
       <defs>
        <path id="DejaVuSans-34" d="M 2419 4116 
L 825 1625 
L 2419 1625 
L 2419 4116 
z
M 2253 4666 
L 3047 4666 
L 3047 1625 
L 3713 1625 
L 3713 1100 
L 3047 1100 
L 3047 0 
L 2419 0 
L 2419 1100 
L 313 1100 
L 313 1709 
L 2253 4666 
z
" transform="scale(0.015625)"/>
       </defs>
       <use xlink:href="#DejaVuSans-32"/>
       <use xlink:href="#DejaVuSans-30" x="63.623047"/>
       <use xlink:href="#DejaVuSans-32" x="127.246094"/>
       <use xlink:href="#DejaVuSans-34" x="190.869141"/>
      </g>
     </g>
    </g>
    <g id="text_7">
     <!-- Date -->
     <g transform="translate(416.854219 418.316562) scale(0.1 -0.1)">
      <defs>
       <path id="DejaVuSans-44" d="M 1259 4147 
L 1259 519 
L 2022 519 
Q 2988 519 3436 956 
Q 3884 1394 3884 2338 
Q 3884 3275 3436 3711 
Q 2988 4147 2022 4147 
L 1259 4147 
z
M 628 4666 
L 1925 4666 
Q 3281 4666 3915 4102 
Q 4550 3538 4550 2338 
Q 4550 1131 3912 565 
Q 3275 0 1925 0 
L 628 0 
L 628 4666 
z
" transform="scale(0.015625)"/>
       <path id="DejaVuSans-61" d="M 2194 1759 
Q 1497 1759 1228 1600 
Q 959 1441 959 1056 
Q 959 750 1161 570 
Q 1363 391 1709 391 
Q 2188 391 2477 730 
Q 2766 1069 2766 1631 
L 2766 1759 
L 2194 1759 
z
M 3341 1997 
L 3341 0 
L 2766 0 
L 2766 531 
Q 2569 213 2275 61 
Q 1981 -91 1556 -91 
Q 1019 -91 701 211 
Q 384 513 384 1019 
Q 384 1609 779 1909 
Q 1175 2209 1959 2209 
L 2766 2209 
L 2766 2266 
Q 2766 2663 2505 2880 
Q 2244 3097 1772 3097 
Q 1472 3097 1187 3025 
Q 903 2953 641 2809 
L 641 3341 
Q 956 3463 1253 3523 
Q 1550 3584 1831 3584 
Q 2591 3584 2966 3190 
Q 3341 2797 3341 1997 
z
" transform="scale(0.015625)"/>
       <path id="DejaVuSans-74" d="M 1172 4494 
L 1172 3500 
L 2356 3500 
L 2356 3053 
L 1172 3053 
L 1172 1153 
Q 1172 725 1289 603 
Q 1406 481 1766 481 
L 2356 481 
L 2356 0 
L 1766 0 
Q 1100 0 847 248 
Q 594 497 594 1153 
L 594 3053 
L 172 3053 
L 172 3500 
L 594 3500 
L 594 4494 
L 1172 4494 
z
" transform="scale(0.015625)"/>
       <path id="DejaVuSans-65" d="M 3597 1894 
L 3597 1613 
L 953 1613 
Q 991 1019 1311 708 
Q 1631 397 2203 397 
Q 2534 397 2845 478 
Q 3156 559 3463 722 
L 3463 178 
Q 3153 47 2828 -22 
Q 2503 -91 2169 -91 
Q 1331 -91 842 396 
Q 353 884 353 1716 
Q 353 2575 817 3079 
Q 1281 3584 2069 3584 
Q 2775 3584 3186 3129 
Q 3597 2675 3597 1894 
z
M 3022 2063 
Q 3016 2534 2758 2815 
Q 2500 3097 2075 3097 
Q 1594 3097 1305 2825 
Q 1016 2553 972 2059 
L 3022 2063 
z
" transform="scale(0.015625)"/>
      </defs>
      <use xlink:href="#DejaVuSans-44"/>
      <use xlink:href="#DejaVuSans-61" x="77.001953"/>
      <use xlink:href="#DejaVuSans-74" x="138.28125"/>
      <use xlink:href="#DejaVuSans-65" x="177.490234"/>
     </g>
    </g>
   </g>
   <g id="matplotlib.axis_2">
    <g id="ytick_1">
     <g id="line2d_13">
      <path d="M 44.57 369.270983 
L 813.04 369.270983 
" clip-path="url(#p8804488353)" style="fill: none; stroke-dasharray: 1.85,0.8; stroke-dashoffset: 0; stroke: #b0b0b0; stroke-opacity: 0.5; stroke-width: 0.5"/>
     </g>
     <g id="line2d_14">
      <defs>
       <path id="mc28ca67946" d="M 0 0 
L -3.5 0 
" style="stroke: #000000; stroke-width: 0.8"/>
      </defs>
      <g>
       <use xlink:href="#mc28ca67946" x="44.57" y="369.270983" style="stroke: #000000; stroke-width: 0.8"/>
      </g>
     </g>
     <g id="text_8">
      <!-- 0 -->
      <g style="fill: #d62728" transform="translate(31.2075 373.070202) scale(0.1 -0.1)">
       <use xlink:href="#DejaVuSans-30"/>
      </g>
     </g>
    </g>
    <g id="ytick_2">
     <g id="line2d_15">
      <path d="M 44.57 317.909929 
L 813.04 317.909929 
" clip-path="url(#p8804488353)" style="fill: none; stroke-dasharray: 1.85,0.8; stroke-dashoffset: 0; stroke: #b0b0b0; stroke-opacity: 0.5; stroke-width: 0.5"/>
     </g>
     <g id="line2d_16">
      <g>
       <use xlink:href="#mc28ca67946" x="44.57" y="317.909929" style="stroke: #000000; stroke-width: 0.8"/>
      </g>
     </g>
     <g id="text_9">
      <!-- 5 -->
      <g style="fill: #d62728" transform="translate(31.2075 321.709148) scale(0.1 -0.1)">
       <defs>
        <path id="DejaVuSans-35" d="M 691 4666 
L 3169 4666 
L 3169 4134 
L 1269 4134 
L 1269 2991 
Q 1406 3038 1543 3061 
Q 1681 3084 1819 3084 
Q 2600 3084 3056 2656 
Q 3513 2228 3513 1497 
Q 3513 744 3044 326 
Q 2575 -91 1722 -91 
Q 1428 -91 1123 -41 
Q 819 9 494 109 
L 494 744 
Q 775 591 1075 516 
Q 1375 441 1709 441 
Q 2250 441 2565 725 
Q 2881 1009 2881 1497 
Q 2881 1984 2565 2268 
Q 2250 2553 1709 2553 
Q 1456 2553 1204 2497 
Q 953 2441 691 2322 
L 691 4666 
z
" transform="scale(0.015625)"/>
       </defs>
       <use xlink:href="#DejaVuSans-35"/>
      </g>
     </g>
    </g>
    <g id="ytick_3">
     <g id="line2d_17">
      <path d="M 44.57 266.548875 
L 813.04 266.548875 
" clip-path="url(#p8804488353)" style="fill: none; stroke-dasharray: 1.85,0.8; stroke-dashoffset: 0; stroke: #b0b0b0; stroke-opacity: 0.5; stroke-width: 0.5"/>
     </g>
     <g id="line2d_18">
      <g>
       <use xlink:href="#mc28ca67946" x="44.57" y="266.548875" style="stroke: #000000; stroke-width: 0.8"/>
      </g>
     </g>
     <g id="text_10">
      <!-- 10 -->
      <g style="fill: #d62728" transform="translate(24.845 270.348094) scale(0.1 -0.1)">
       <use xlink:href="#DejaVuSans-31"/>
       <use xlink:href="#DejaVuSans-30" x="63.623047"/>
      </g>
     </g>
    </g>
    <g id="ytick_4">
     <g id="line2d_19">
      <path d="M 44.57 215.187821 
L 813.04 215.187821 
" clip-path="url(#p8804488353)" style="fill: none; stroke-dasharray: 1.85,0.8; stroke-dashoffset: 0; stroke: #b0b0b0; stroke-opacity: 0.5; stroke-width: 0.5"/>
     </g>
     <g id="line2d_20">
      <g>
       <use xlink:href="#mc28ca67946" x="44.57" y="215.187821" style="stroke: #000000; stroke-width: 0.8"/>
      </g>
     </g>
     <g id="text_11">
      <!-- 15 -->
      <g style="fill: #d62728" transform="translate(24.845 218.98704) scale(0.1 -0.1)">
       <use xlink:href="#DejaVuSans-31"/>
       <use xlink:href="#DejaVuSans-35" x="63.623047"/>
      </g>
     </g>
    </g>
    <g id="ytick_5">
     <g id="line2d_21">
      <path d="M 44.57 163.826768 
L 813.04 163.826768 
" clip-path="url(#p8804488353)" style="fill: none; stroke-dasharray: 1.85,0.8; stroke-dashoffset: 0; stroke: #b0b0b0; stroke-opacity: 0.5; stroke-width: 0.5"/>
     </g>
     <g id="line2d_22">
      <g>
       <use xlink:href="#mc28ca67946" x="44.57" y="163.826768" style="stroke: #000000; stroke-width: 0.8"/>
      </g>
     </g>
     <g id="text_12">
      <!-- 20 -->
      <g style="fill: #d62728" transform="translate(24.845 167.625986) scale(0.1 -0.1)">
       <use xlink:href="#DejaVuSans-32"/>
       <use xlink:href="#DejaVuSans-30" x="63.623047"/>
      </g>
     </g>
    </g>
    <g id="ytick_6">
     <g id="line2d_23">
      <path d="M 44.57 112.465714 
L 813.04 112.465714 
" clip-path="url(#p8804488353)" style="fill: none; stroke-dasharray: 1.85,0.8; stroke-dashoffset: 0; stroke: #b0b0b0; stroke-opacity: 0.5; stroke-width: 0.5"/>
     </g>
     <g id="line2d_24">
      <g>
       <use xlink:href="#mc28ca67946" x="44.57" y="112.465714" style="stroke: #000000; stroke-width: 0.8"/>
      </g>
     </g>
     <g id="text_13">
      <!-- 25 -->
      <g style="fill: #d62728" transform="translate(24.845 116.264932) scale(0.1 -0.1)">
       <use xlink:href="#DejaVuSans-32"/>
       <use xlink:href="#DejaVuSans-35" x="63.623047"/>
      </g>
     </g>
    </g>
    <g id="ytick_7">
     <g id="line2d_25">
      <path d="M 44.57 61.10466 
L 813.04 61.10466 
" clip-path="url(#p8804488353)" style="fill: none; stroke-dasharray: 1.85,0.8; stroke-dashoffset: 0; stroke: #b0b0b0; stroke-opacity: 0.5; stroke-width: 0.5"/>
     </g>
     <g id="line2d_26">
      <g>
       <use xlink:href="#mc28ca67946" x="44.57" y="61.10466" style="stroke: #000000; stroke-width: 0.8"/>
      </g>
     </g>
     <g id="text_14">
      <!-- 30 -->
      <g style="fill: #d62728" transform="translate(24.845 64.903878) scale(0.1 -0.1)">
       <use xlink:href="#DejaVuSans-33"/>
       <use xlink:href="#DejaVuSans-30" x="63.623047"/>
      </g>
     </g>
    </g>
    <g id="text_15">
     <!-- Returns (%) -->
     <g style="fill: #d62728" transform="translate(18.765312 237.8975) rotate(-90) scale(0.1 -0.1)">
      <defs>
       <path id="DejaVuSans-52" d="M 2841 2188 
Q 3044 2119 3236 1894 
Q 3428 1669 3622 1275 
L 4263 0 
L 3584 0 
L 2988 1197 
Q 2756 1666 2539 1819 
Q 2322 1972 1947 1972 
L 1259 1972 
L 1259 0 
L 628 0 
L 628 4666 
L 2053 4666 
Q 2853 4666 3247 4331 
Q 3641 3997 3641 3322 
Q 3641 2881 3436 2590 
Q 3231 2300 2841 2188 
z
M 1259 4147 
L 1259 2491 
L 2053 2491 
Q 2509 2491 2742 2702 
Q 2975 2913 2975 3322 
Q 2975 3731 2742 3939 
Q 2509 4147 2053 4147 
L 1259 4147 
z
" transform="scale(0.015625)"/>
       <path id="DejaVuSans-75" d="M 544 1381 
L 544 3500 
L 1119 3500 
L 1119 1403 
Q 1119 906 1312 657 
Q 1506 409 1894 409 
Q 2359 409 2629 706 
Q 2900 1003 2900 1516 
L 2900 3500 
L 3475 3500 
L 3475 0 
L 2900 0 
L 2900 538 
Q 2691 219 2414 64 
Q 2138 -91 1772 -91 
Q 1169 -91 856 284 
Q 544 659 544 1381 
z
M 1991 3584 
L 1991 3584 
z
" transform="scale(0.015625)"/>
       <path id="DejaVuSans-72" d="M 2631 2963 
Q 2534 3019 2420 3045 
Q 2306 3072 2169 3072 
Q 1681 3072 1420 2755 
Q 1159 2438 1159 1844 
L 1159 0 
L 581 0 
L 581 3500 
L 1159 3500 
L 1159 2956 
Q 1341 3275 1631 3429 
Q 1922 3584 2338 3584 
Q 2397 3584 2469 3576 
Q 2541 3569 2628 3553 
L 2631 2963 
z
" transform="scale(0.015625)"/>
       <path id="DejaVuSans-6e" d="M 3513 2113 
L 3513 0 
L 2938 0 
L 2938 2094 
Q 2938 2591 2744 2837 
Q 2550 3084 2163 3084 
Q 1697 3084 1428 2787 
Q 1159 2491 1159 1978 
L 1159 0 
L 581 0 
L 581 3500 
L 1159 3500 
L 1159 2956 
Q 1366 3272 1645 3428 
Q 1925 3584 2291 3584 
Q 2894 3584 3203 3211 
Q 3513 2838 3513 2113 
z
" transform="scale(0.015625)"/>
       <path id="DejaVuSans-73" d="M 2834 3397 
L 2834 2853 
Q 2591 2978 2328 3040 
Q 2066 3103 1784 3103 
Q 1356 3103 1142 2972 
Q 928 2841 928 2578 
Q 928 2378 1081 2264 
Q 1234 2150 1697 2047 
L 1894 2003 
Q 2506 1872 2764 1633 
Q 3022 1394 3022 966 
Q 3022 478 2636 193 
Q 2250 -91 1575 -91 
Q 1294 -91 989 -36 
Q 684 19 347 128 
L 347 722 
Q 666 556 975 473 
Q 1284 391 1588 391 
Q 1994 391 2212 530 
Q 2431 669 2431 922 
Q 2431 1156 2273 1281 
Q 2116 1406 1581 1522 
L 1381 1569 
Q 847 1681 609 1914 
Q 372 2147 372 2553 
Q 372 3047 722 3315 
Q 1072 3584 1716 3584 
Q 2034 3584 2315 3537 
Q 2597 3491 2834 3397 
z
" transform="scale(0.015625)"/>
       <path id="DejaVuSans-20" transform="scale(0.015625)"/>
       <path id="DejaVuSans-28" d="M 1984 4856 
Q 1566 4138 1362 3434 
Q 1159 2731 1159 2009 
Q 1159 1288 1364 580 
Q 1569 -128 1984 -844 
L 1484 -844 
Q 1016 -109 783 600 
Q 550 1309 550 2009 
Q 550 2706 781 3412 
Q 1013 4119 1484 4856 
L 1984 4856 
z
" transform="scale(0.015625)"/>
       <path id="DejaVuSans-25" d="M 4653 2053 
Q 4381 2053 4226 1822 
Q 4072 1591 4072 1178 
Q 4072 772 4226 539 
Q 4381 306 4653 306 
Q 4919 306 5073 539 
Q 5228 772 5228 1178 
Q 5228 1588 5073 1820 
Q 4919 2053 4653 2053 
z
M 4653 2450 
Q 5147 2450 5437 2106 
Q 5728 1763 5728 1178 
Q 5728 594 5436 251 
Q 5144 -91 4653 -91 
Q 4153 -91 3862 251 
Q 3572 594 3572 1178 
Q 3572 1766 3864 2108 
Q 4156 2450 4653 2450 
z
M 1428 4353 
Q 1159 4353 1004 4120 
Q 850 3888 850 3481 
Q 850 3069 1003 2837 
Q 1156 2606 1428 2606 
Q 1700 2606 1854 2837 
Q 2009 3069 2009 3481 
Q 2009 3884 1853 4118 
Q 1697 4353 1428 4353 
z
M 4250 4750 
L 4750 4750 
L 1831 -91 
L 1331 -91 
L 4250 4750 
z
M 1428 4750 
Q 1922 4750 2215 4408 
Q 2509 4066 2509 3481 
Q 2509 2891 2217 2550 
Q 1925 2209 1428 2209 
Q 931 2209 642 2551 
Q 353 2894 353 3481 
Q 353 4063 643 4406 
Q 934 4750 1428 4750 
z
" transform="scale(0.015625)"/>
       <path id="DejaVuSans-29" d="M 513 4856 
L 1013 4856 
Q 1481 4119 1714 3412 
Q 1947 2706 1947 2009 
Q 1947 1309 1714 600 
Q 1481 -109 1013 -844 
L 513 -844 
Q 928 -128 1133 580 
Q 1338 1288 1338 2009 
Q 1338 2731 1133 3434 
Q 928 4138 513 4856 
z
" transform="scale(0.015625)"/>
      </defs>
      <use xlink:href="#DejaVuSans-52"/>
      <use xlink:href="#DejaVuSans-65" x="64.982422"/>
      <use xlink:href="#DejaVuSans-74" x="126.505859"/>
      <use xlink:href="#DejaVuSans-75" x="165.714844"/>
      <use xlink:href="#DejaVuSans-72" x="229.09375"/>
      <use xlink:href="#DejaVuSans-6e" x="268.457031"/>
      <use xlink:href="#DejaVuSans-73" x="331.835938"/>
      <use xlink:href="#DejaVuSans-20" x="383.935547"/>
      <use xlink:href="#DejaVuSans-28" x="415.722656"/>
      <use xlink:href="#DejaVuSans-25" x="454.736328"/>
      <use xlink:href="#DejaVuSans-29" x="549.755859"/>
     </g>
    </g>
   </g>
   <g id="line2d_27">
    <path d="M 79.500455 369.270983 
L 104.039962 369.270983 
L 104.423391 373.532727 
L 105.957111 341.657217 
L 106.34054 327.896204 
L 106.72397 329.939506 
L 107.1074 320.356837 
L 108.257689 327.562604 
L 108.641119 327.237343 
L 109.407979 337.729073 
L 109.791409 368.862323 
L 110.941698 368.203462 
L 111.325128 353.700188 
L 111.708558 370.330164 
L 112.091987 364.600579 
L 112.475417 343.708859 
L 113.625707 336.336292 
L 114.009136 328.138064 
L 114.392566 324.860441 
L 114.775996 330.273106 
L 115.159426 313.39293 
L 119.760583 313.39293 
L 120.144013 321.449291 
L 121.677732 323.770616 
L 122.061162 299.628841 
L 122.444592 310.35245 
L 122.828022 294.703992 
L 123.211451 293.274785 
L 124.361741 288.176974 
L 124.745171 288.176974 
L 125.1286 297.794134 
L 127.429179 297.794134 
L 127.812609 303.744284 
L 133.564056 303.744284 
L 133.947486 301.107119 
L 135.481205 301.107119 
L 135.864635 319.280427 
L 136.248065 313.590173 
L 138.932073 313.590173 
L 139.315503 295.840774 
L 141.999512 295.840774 
L 143.149801 276.339084 
L 143.916661 242.36028 
L 144.68352 223.77215 
L 145.83381 244.56028 
L 146.217239 235.406045 
L 146.600669 241.71706 
L 146.984099 231.462826 
L 147.367529 215.345034 
L 148.901248 203.990799 
L 149.284678 196.206903 
L 151.201827 232.106046 
L 151.585256 214.981474 
L 151.968686 219.558592 
L 152.735546 252.530616 
L 153.885835 241.633162 
L 154.269265 250.423837 
L 154.652695 247.310279 
L 155.036125 239.246722 
L 155.419554 254.450955 
L 156.569844 250.880617 
L 156.953274 245.7535 
L 157.336703 243.5535 
L 157.720133 255.821293 
L 158.103563 247.487397 
L 159.253852 247.860279 
L 159.637282 237.139943 
L 160.020712 241.16706 
L 160.404142 234.483164 
L 160.787572 243.273839 
L 161.937861 275.602644 
L 162.321291 260.584851 
L 162.704721 259.214513 
L 163.08815 241.903501 
L 163.47158 247.580618 
L 164.62187 255.821293 
L 165.005299 245.567059 
L 165.388729 266.625528 
L 165.772159 266.08485 
L 166.155589 246.937398 
L 167.305878 235.406045 
L 167.689308 250.330617 
L 168.072738 240.076383 
L 168.456168 244.280619 
L 168.839597 272.032306 
L 169.989887 265.44163 
L 170.373317 270.382306 
L 170.756746 268.275527 
L 171.140176 261.40519 
L 171.523606 269.468747 
L 173.057325 284.766201 
L 173.440755 282.92976 
L 173.824185 275.425525 
L 175.357904 275.425525 
L 175.741334 271.895289 
L 178.808772 271.895289 
L 179.192202 267.75906 
L 183.793359 267.75906 
L 184.176789 280.884565 
L 186.477368 280.884565 
L 186.860798 272.172605 
L 210.250015 272.172605 
L 210.633445 267.976999 
L 211.016875 276.442105 
L 211.400305 273.863984 
L 211.783735 263.29697 
L 212.934024 250.472047 
L 213.317454 256.925561 
L 213.700884 260.390425 
L 214.084313 255.956713 
L 214.467743 245.471805 
L 216.001462 240.43872 
L 216.768322 257.024088 
L 217.151752 261.154009 
L 218.302041 271.187335 
L 218.685471 268.198685 
L 219.452331 266.581201 
L 219.83576 279.685284 
L 220.98605 269.249639 
L 221.36948 268.198685 
L 221.752909 262.533386 
L 222.136339 246.342126 
L 222.519769 249.905517 
L 223.670058 273.051137 
L 224.053488 257.024088 
L 224.436918 261.071903 
L 224.820348 258.567677 
L 225.203778 260.423267 
L 226.737497 271.597864 
L 227.120927 268.116579 
L 227.504356 277.747587 
L 227.887786 297.81424 
L 229.038076 307.527354 
L 229.421505 294.250849 
L 229.804935 293.117789 
L 230.571795 325.08978 
L 231.722084 314.407818 
L 232.488944 262.287069 
L 232.872374 254.437756 
L 233.255803 260.267266 
L 234.406093 252.335848 
L 241.307829 252.335848 
L 242.458118 216.812961 
L 242.841548 246.285721 
L 243.224978 194.323776 
L 243.608408 194.323776 
L 243.991838 194.937156 
L 245.908987 194.937156 
L 246.292416 284.460601 
L 247.826136 284.460601 
L 248.209565 212.624384 
L 249.359855 212.624384 
L 250.510144 236.410066 
L 297.672009 236.410066 
L 298.822299 205.360361 
L 299.205728 215.390066 
L 299.589158 228.682956 
L 299.972588 226.945415 
L 300.356018 248.805933 
L 301.506307 219.776296 
L 301.889737 234.397062 
L 302.656597 250.543474 
L 303.040026 253.884354 
L 304.190316 271.570537 
L 304.573746 288.974193 
L 304.957175 268.300288 
L 305.340605 269.967197 
L 305.724035 272.474623 
L 306.874324 254.096249 
L 307.257754 259.732661 
L 307.641184 292.661169 
L 308.024614 299.349993 
L 309.558333 313.476337 
L 309.941763 295.027332 
L 310.325193 291.410988 
L 310.708622 291.61582 
L 311.092052 293.847782 
L 312.242342 279.438911 
L 312.625771 297.400558 
L 313.009201 274.49469 
L 313.392631 311.32207 
L 313.776061 318.978548 
L 316.07664 318.978548 
L 316.460069 306.906683 
L 318.377218 306.906683 
L 318.760648 313.167714 
L 331.030402 313.167714 
L 331.413831 313.777869 
L 331.797261 331.822001 
L 332.180691 321.751017 
L 332.564121 322.559987 
L 333.71441 338.238912 
L 334.09784 319.186995 
L 334.48127 351.079588 
L 334.8647 341.282831 
L 335.248129 367.231555 
L 336.398419 364.660677 
L 336.781849 349.050309 
L 337.165278 287.63033 
L 337.548708 287.225845 
L 337.932138 311.275548 
L 339.082427 322.498285 
L 339.465857 331.684888 
L 339.849287 314.929622 
L 340.232717 316.211633 
L 340.616147 297.152861 
L 341.766436 304.52271 
L 342.149866 318.035242 
L 342.533296 340.268191 
L 342.916725 338.643397 
L 343.300155 329.655609 
L 344.450445 324.520709 
L 344.833874 333.577054 
L 345.217304 322.093801 
L 345.984164 281.275121 
L 347.134453 253.907272 
L 347.517883 259.453512 
L 347.901313 256.882635 
L 348.284743 241.676751 
L 380.492846 241.676751 
L 380.876275 238.635981 
L 382.026565 225.897446 
L 382.409995 247.30054 
L 382.793424 287.981459 
L 383.176854 313.46507 
L 383.560284 280.160469 
L 384.710573 313.210037 
L 385.094003 286.045829 
L 385.477433 293.02979 
L 385.860863 266.120615 
L 386.244292 270.841982 
L 387.394582 245.946907 
L 387.778012 240.447364 
L 388.161441 236.569566 
L 388.544871 236.569566 
L 388.928301 220.307999 
L 390.07859 201.610192 
L 390.84545 269.951375 
L 391.22888 271.462376 
L 391.61231 260.206416 
L 392.762599 266.789588 
L 393.146029 272.514086 
L 393.529459 241.442045 
L 393.912888 230.911632 
L 395.446608 226.758043 
L 395.830037 218.004887 
L 396.213467 240.390335 
L 396.596897 236.63613 
L 398.130616 236.63613 
L 398.514046 215.156645 
L 406.949502 215.156645 
L 407.332931 225.235538 
L 407.716361 213.771047 
L 408.866651 232.616512 
L 409.25008 236.440229 
L 409.63351 251.461977 
L 410.01694 251.788392 
L 410.40037 225.568615 
L 411.550659 223.06388 
L 411.934089 217.594765 
L 412.317519 222.271158 
L 412.700949 189.662975 
L 413.084378 199.082377 
L 414.234668 197.830009 
L 414.618097 201.18742 
L 415.001527 198.882531 
L 415.384957 194.998859 
L 415.768387 183.068062 
L 417.302106 194.072907 
L 417.685536 184.060629 
L 418.068966 183.068062 
L 418.452395 162.250784 
L 419.602685 117.645188 
L 419.986115 121.135829 
L 420.369544 93.204039 
L 447.20963 93.204039 
L 447.59306 123.702197 
L 447.97649 106.789865 
L 449.126779 69.340241 
L 449.510209 70.87603 
L 449.893639 61.406368 
L 450.277069 71.311274 
L 450.660498 74.507208 
L 452.194218 67.313249 
L 452.961077 43.822517 
L 453.344507 43.387273 
L 454.878226 44.804924 
L 455.261656 60.790809 
L 455.645086 55.748198 
L 457.178805 91.599855 
L 457.562235 91.170829 
L 457.945665 72.480215 
L 458.712524 56.301579 
L 459.862814 82.012055 
L 460.246243 68.911215 
L 460.629673 68.600327 
L 461.013103 51.998883 
L 461.396533 76.596378 
L 462.546822 114.481246 
L 462.930252 158.142421 
L 463.313682 157.222191 
L 463.697112 153.286343 
L 464.080541 187.229145 
L 465.230831 214.655725 
L 465.614261 210.290851 
L 465.99769 223.696361 
L 466.38112 205.496951 
L 466.76455 216.56458 
L 467.914839 218.653751 
L 468.298269 217.733521 
L 479.417733 217.733521 
L 479.801163 217.916487 
L 480.184593 210.679844 
L 484.402321 210.679844 
L 484.78575 207.218128 
L 490.537197 207.218128 
L 490.920627 225.313842 
L 492.070917 210.953687 
L 492.454346 210.953687 
L 492.837776 182.482939 
L 500.889802 182.482939 
L 501.273232 181.582921 
L 501.656662 190.227282 
L 502.806951 162.361601 
L 503.190381 149.914837 
L 503.57381 149.914837 
L 503.95724 187.03978 
L 507.024679 187.03978 
L 508.174968 179.010568 
L 508.941828 179.010568 
L 509.325257 191.903579 
L 517.377283 191.903579 
L 517.760713 202.688355 
L 519.294432 209.199918 
L 519.677862 227.427597 
L 520.061292 193.92279 
L 520.444722 175.225527 
L 521.978441 175.225527 
L 522.361871 168.722989 
L 522.7453 168.722989 
L 523.12873 184.755437 
L 525.812739 184.755437 
L 526.963028 182.624386 
L 540.383071 182.624386 
L 540.766501 172.927152 
L 541.149931 168.759177 
L 541.91679 226.889048 
L 543.06708 217.115337 
L 543.450509 260.011067 
L 543.833939 259.330425 
L 544.217369 263.651354 
L 544.600799 286.915538 
L 545.751088 270.702497 
L 546.134518 263.574877 
L 546.517948 235.982117 
L 547.284807 315.724277 
L 549.201956 315.724277 
L 549.585386 282.622911 
L 551.885965 282.622911 
L 552.269395 265.207261 
L 554.186544 265.207261 
L 554.569974 260.510178 
L 560.321421 260.510178 
L 560.70485 295.608377 
L 561.85514 342.157053 
L 562.23857 336.985871 
L 562.621999 314.309752 
L 563.005429 340.245964 
L 563.388859 307.540641 
L 567.606587 307.540641 
L 567.990016 300.669962 
L 575.275183 300.669962 
L 575.658612 270.002643 
L 576.042042 268.00923 
L 576.425472 257.982661 
L 576.808902 279.069697 
L 577.959191 274.867166 
L 578.342621 272.509286 
L 578.726051 262.995946 
L 579.109481 257.469432 
L 579.49291 258.867796 
L 580.6432 271.624151 
L 581.02663 270.292729 
L 581.410059 222.822725 
L 581.793489 207.046499 
L 582.176919 208.96553 
L 583.327208 206.086983 
L 583.710638 231.741017 
L 584.094068 203.729103 
L 588.695226 203.729103 
L 589.078655 211.518653 
L 589.462085 199.163362 
L 589.845515 191.373811 
L 590.228945 232.060517 
L 591.379234 239.611856 
L 591.762664 246.694709 
L 592.146094 247.639619 
L 592.529524 232.370194 
L 592.912953 252.515036 
L 594.446672 265.894642 
L 595.213532 198.615473 
L 595.596962 180.828934 
L 596.747251 187.435363 
L 597.130681 243.621767 
L 597.514111 241.342867 
L 597.897541 234.887306 
L 598.28097 239.214835 
L 599.43126 254.563665 
L 599.81469 263.298125 
L 600.198119 285.729809 
L 602.115268 285.729809 
L 602.498698 276.788879 
L 602.882128 228.953673 
L 603.648988 228.953673 
L 604.799277 207.147335 
L 630.489073 207.147335 
L 631.639363 205.914946 
L 632.022793 183.877789 
L 632.406222 180.04207 
L 632.789652 198.469566 
L 633.173082 209.816295 
L 634.323371 231.678438 
L 634.706801 219.988974 
L 635.090231 203.727273 
L 635.473661 203.800195 
L 635.857091 219.048274 
L 637.39081 242.208436 
L 637.77424 254.473988 
L 638.157669 232.845197 
L 638.541099 236.615286 
L 640.074818 244.819059 
L 640.458248 226.887435 
L 640.841678 232.115973 
L 641.225108 215.708427 
L 642.375397 224.276812 
L 642.758827 198.64458 
L 643.142257 182.09119 
L 643.525687 185.212269 
L 643.909116 174.689564 
L 645.442836 176.43241 
L 645.826265 181.945345 
L 646.209695 191.673196 
L 646.593125 180.348344 
L 647.743414 165.756567 
L 648.126844 172.071649 
L 648.510274 175.119806 
L 648.893704 169.169336 
L 649.277134 168.877646 
L 650.427423 191.024187 
L 650.810853 178.532575 
L 651.194283 177.810643 
L 651.577712 173.741572 
L 651.961142 181.653655 
L 653.111431 190.878342 
L 653.494861 182.747492 
L 653.878291 204.959662 
L 654.261721 215.343815 
L 654.645151 214.906281 
L 655.79544 194.728646 
L 656.17887 199.082115 
L 656.5623 200.095736 
L 656.945729 211.858123 
L 657.329159 210.771579 
L 659.246308 245.694128 
L 659.629738 248.596441 
L 660.013168 269.867912 
L 661.163457 262.612131 
L 661.546887 261.664139 
L 664.230896 261.664139 
L 664.614325 269.469068 
L 668.065194 269.469068 
L 669.215483 255.698862 
L 669.982343 255.698862 
L 670.365772 243.487471 
L 683.018956 243.487471 
L 683.402385 262.605981 
L 683.785815 259.516995 
L 684.169245 248.590071 
L 685.319534 241.618202 
L 685.702964 241.618202 
L 686.086394 241.399004 
L 686.469824 242.560757 
L 686.853254 228.013269 
L 688.003543 240.091118 
L 688.386973 242.633823 
L 688.770403 235.2176 
L 689.153832 237.321908 
L 689.537262 240.456449 
L 690.687552 222.920553 
L 691.070981 246.710919 
L 691.454411 244.30704 
L 691.837841 246.418654 
L 692.221271 234.04854 
L 693.75499 225.755523 
L 694.52185 265.335502 
L 694.905279 262.493226 
L 696.822428 271.589972 
L 697.205858 267.512876 
L 697.589288 246.418654 
L 698.739577 244.964636 
L 699.123007 248.530268 
L 699.506437 250.926841 
L 707.558463 250.926841 
L 707.941893 252.997774 
L 708.325322 243.244347 
L 710.625901 243.244347 
L 711.009331 255.581611 
L 721.745365 255.581611 
L 722.895655 257.515315 
L 723.279084 246.344397 
L 723.662514 239.759738 
L 724.429374 237.689451 
L 725.963093 234.821243 
L 726.346523 251.570432 
L 726.729953 254.790877 
L 727.113382 259.513717 
L 728.263672 242.340407 
L 728.647102 241.549672 
L 729.030531 233.175078 
L 729.413961 245.488967 
L 729.797391 237.330027 
L 730.94768 231.888338 
L 731.33111 217.791703 
L 731.71454 213.924293 
L 732.09797 225.447448 
L 732.4814 216.145538 
L 734.015119 234.684661 
L 734.398549 245.345197 
L 734.781978 248.853181 
L 735.165408 250.427461 
L 736.315698 238.616767 
L 736.699127 242.980182 
L 737.082557 244.202226 
L 737.465987 242.699831 
L 737.849417 249.564842 
L 738.999706 258.155091 
L 739.383136 251.074426 
L 739.766566 260.944227 
L 740.149996 279.48335 
L 740.533425 282.128716 
L 741.683715 285.564816 
L 742.067144 285.492931 
L 742.450574 279.555235 
L 743.217434 281.848365 
L 744.367723 291.294045 
L 744.751153 304.822789 
L 753.186609 304.822789 
L 753.570038 305.781377 
L 753.953468 331.529505 
L 765.839792 331.529505 
L 766.223222 336.634543 
L 767.373511 305.761897 
L 768.523801 302.845751 
L 778.109545 302.845751 
L 778.109545 302.845751 
" clip-path="url(#p8804488353)" style="fill: none; stroke: #d62728; stroke-width: 1.5; stroke-linecap: square"/>
   </g>
   <g id="patch_3">
    <path d="M 44.57 390.04 
L 44.57 26.88 
" style="fill: none; stroke: #000000; stroke-width: 0.8; stroke-linejoin: miter; stroke-linecap: square"/>
   </g>
   <g id="patch_4">
    <path d="M 813.04 390.04 
L 813.04 26.88 
" style="fill: none; stroke: #000000; stroke-width: 0.8; stroke-linejoin: miter; stroke-linecap: square"/>
   </g>
   <g id="patch_5">
    <path d="M 44.57 390.04 
L 813.04 390.04 
" style="fill: none; stroke: #000000; stroke-width: 0.8; stroke-linejoin: miter; stroke-linecap: square"/>
   </g>
   <g id="patch_6">
    <path d="M 44.57 26.88 
L 813.04 26.88 
" style="fill: none; stroke: #000000; stroke-width: 0.8; stroke-linejoin: miter; stroke-linecap: square"/>
   </g>
  </g>
  <g id="axes_2">
   <g id="matplotlib.axis_3">
    <g id="ytick_8">
     <g id="line2d_28">
      <defs>
       <path id="mb83771e0b2" d="M 0 0 
L 3.5 0 
" style="stroke: #000000; stroke-width: 0.8"/>
      </defs>
      <g>
       <use xlink:href="#mb83771e0b2" x="813.04" y="340.838829" style="stroke: #000000; stroke-width: 0.8"/>
      </g>
     </g>
     <g id="text_16">
      <!-- 120 -->
      <g style="fill: #1f77b4" transform="translate(820.04 344.638048) scale(0.1 -0.1)">
       <use xlink:href="#DejaVuSans-31"/>
       <use xlink:href="#DejaVuSans-32" x="63.623047"/>
       <use xlink:href="#DejaVuSans-30" x="127.246094"/>
      </g>
     </g>
    </g>
    <g id="ytick_9">
     <g id="line2d_29">
      <g>
       <use xlink:href="#mb83771e0b2" x="813.04" y="280.339387" style="stroke: #000000; stroke-width: 0.8"/>
      </g>
     </g>
     <g id="text_17">
      <!-- 140 -->
      <g style="fill: #1f77b4" transform="translate(820.04 284.138606) scale(0.1 -0.1)">
       <use xlink:href="#DejaVuSans-31"/>
       <use xlink:href="#DejaVuSans-34" x="63.623047"/>
       <use xlink:href="#DejaVuSans-30" x="127.246094"/>
      </g>
     </g>
    </g>
    <g id="ytick_10">
     <g id="line2d_30">
      <g>
       <use xlink:href="#mb83771e0b2" x="813.04" y="219.839945" style="stroke: #000000; stroke-width: 0.8"/>
      </g>
     </g>
     <g id="text_18">
      <!-- 160 -->
      <g style="fill: #1f77b4" transform="translate(820.04 223.639164) scale(0.1 -0.1)">
       <defs>
        <path id="DejaVuSans-36" d="M 2113 2584 
Q 1688 2584 1439 2293 
Q 1191 2003 1191 1497 
Q 1191 994 1439 701 
Q 1688 409 2113 409 
Q 2538 409 2786 701 
Q 3034 994 3034 1497 
Q 3034 2003 2786 2293 
Q 2538 2584 2113 2584 
z
M 3366 4563 
L 3366 3988 
Q 3128 4100 2886 4159 
Q 2644 4219 2406 4219 
Q 1781 4219 1451 3797 
Q 1122 3375 1075 2522 
Q 1259 2794 1537 2939 
Q 1816 3084 2150 3084 
Q 2853 3084 3261 2657 
Q 3669 2231 3669 1497 
Q 3669 778 3244 343 
Q 2819 -91 2113 -91 
Q 1303 -91 875 529 
Q 447 1150 447 2328 
Q 447 3434 972 4092 
Q 1497 4750 2381 4750 
Q 2619 4750 2861 4703 
Q 3103 4656 3366 4563 
z
" transform="scale(0.015625)"/>
       </defs>
       <use xlink:href="#DejaVuSans-31"/>
       <use xlink:href="#DejaVuSans-36" x="63.623047"/>
       <use xlink:href="#DejaVuSans-30" x="127.246094"/>
      </g>
     </g>
    </g>
    <g id="ytick_11">
     <g id="line2d_31">
      <g>
       <use xlink:href="#mb83771e0b2" x="813.04" y="159.340503" style="stroke: #000000; stroke-width: 0.8"/>
      </g>
     </g>
     <g id="text_19">
      <!-- 180 -->
      <g style="fill: #1f77b4" transform="translate(820.04 163.139722) scale(0.1 -0.1)">
       <defs>
        <path id="DejaVuSans-38" d="M 2034 2216 
Q 1584 2216 1326 1975 
Q 1069 1734 1069 1313 
Q 1069 891 1326 650 
Q 1584 409 2034 409 
Q 2484 409 2743 651 
Q 3003 894 3003 1313 
Q 3003 1734 2745 1975 
Q 2488 2216 2034 2216 
z
M 1403 2484 
Q 997 2584 770 2862 
Q 544 3141 544 3541 
Q 544 4100 942 4425 
Q 1341 4750 2034 4750 
Q 2731 4750 3128 4425 
Q 3525 4100 3525 3541 
Q 3525 3141 3298 2862 
Q 3072 2584 2669 2484 
Q 3125 2378 3379 2068 
Q 3634 1759 3634 1313 
Q 3634 634 3220 271 
Q 2806 -91 2034 -91 
Q 1263 -91 848 271 
Q 434 634 434 1313 
Q 434 1759 690 2068 
Q 947 2378 1403 2484 
z
M 1172 3481 
Q 1172 3119 1398 2916 
Q 1625 2713 2034 2713 
Q 2441 2713 2670 2916 
Q 2900 3119 2900 3481 
Q 2900 3844 2670 4047 
Q 2441 4250 2034 4250 
Q 1625 4250 1398 4047 
Q 1172 3844 1172 3481 
z
" transform="scale(0.015625)"/>
       </defs>
       <use xlink:href="#DejaVuSans-31"/>
       <use xlink:href="#DejaVuSans-38" x="63.623047"/>
       <use xlink:href="#DejaVuSans-30" x="127.246094"/>
      </g>
     </g>
    </g>
    <g id="ytick_12">
     <g id="line2d_32">
      <g>
       <use xlink:href="#mb83771e0b2" x="813.04" y="98.841061" style="stroke: #000000; stroke-width: 0.8"/>
      </g>
     </g>
     <g id="text_20">
      <!-- 200 -->
      <g style="fill: #1f77b4" transform="translate(820.04 102.64028) scale(0.1 -0.1)">
       <use xlink:href="#DejaVuSans-32"/>
       <use xlink:href="#DejaVuSans-30" x="63.623047"/>
       <use xlink:href="#DejaVuSans-30" x="127.246094"/>
      </g>
     </g>
    </g>
    <g id="ytick_13">
     <g id="line2d_33">
      <g>
       <use xlink:href="#mb83771e0b2" x="813.04" y="38.341619" style="stroke: #000000; stroke-width: 0.8"/>
      </g>
     </g>
     <g id="text_21">
      <!-- 220 -->
      <g style="fill: #1f77b4" transform="translate(820.04 42.140838) scale(0.1 -0.1)">
       <use xlink:href="#DejaVuSans-32"/>
       <use xlink:href="#DejaVuSans-32" x="63.623047"/>
       <use xlink:href="#DejaVuSans-30" x="127.246094"/>
      </g>
     </g>
    </g>
    <g id="text_22">
     <!-- Close Price -->
     <g style="fill: #1f77b4" transform="translate(850.725937 235.867812) rotate(-90) scale(0.1 -0.1)">
      <defs>
       <path id="DejaVuSans-43" d="M 4122 4306 
L 4122 3641 
Q 3803 3938 3442 4084 
Q 3081 4231 2675 4231 
Q 1875 4231 1450 3742 
Q 1025 3253 1025 2328 
Q 1025 1406 1450 917 
Q 1875 428 2675 428 
Q 3081 428 3442 575 
Q 3803 722 4122 1019 
L 4122 359 
Q 3791 134 3420 21 
Q 3050 -91 2638 -91 
Q 1578 -91 968 557 
Q 359 1206 359 2328 
Q 359 3453 968 4101 
Q 1578 4750 2638 4750 
Q 3056 4750 3426 4639 
Q 3797 4528 4122 4306 
z
" transform="scale(0.015625)"/>
       <path id="DejaVuSans-6c" d="M 603 4863 
L 1178 4863 
L 1178 0 
L 603 0 
L 603 4863 
z
" transform="scale(0.015625)"/>
       <path id="DejaVuSans-6f" d="M 1959 3097 
Q 1497 3097 1228 2736 
Q 959 2375 959 1747 
Q 959 1119 1226 758 
Q 1494 397 1959 397 
Q 2419 397 2687 759 
Q 2956 1122 2956 1747 
Q 2956 2369 2687 2733 
Q 2419 3097 1959 3097 
z
M 1959 3584 
Q 2709 3584 3137 3096 
Q 3566 2609 3566 1747 
Q 3566 888 3137 398 
Q 2709 -91 1959 -91 
Q 1206 -91 779 398 
Q 353 888 353 1747 
Q 353 2609 779 3096 
Q 1206 3584 1959 3584 
z
" transform="scale(0.015625)"/>
       <path id="DejaVuSans-50" d="M 1259 4147 
L 1259 2394 
L 2053 2394 
Q 2494 2394 2734 2622 
Q 2975 2850 2975 3272 
Q 2975 3691 2734 3919 
Q 2494 4147 2053 4147 
L 1259 4147 
z
M 628 4666 
L 2053 4666 
Q 2838 4666 3239 4311 
Q 3641 3956 3641 3272 
Q 3641 2581 3239 2228 
Q 2838 1875 2053 1875 
L 1259 1875 
L 1259 0 
L 628 0 
L 628 4666 
z
" transform="scale(0.015625)"/>
       <path id="DejaVuSans-69" d="M 603 3500 
L 1178 3500 
L 1178 0 
L 603 0 
L 603 3500 
z
M 603 4863 
L 1178 4863 
L 1178 4134 
L 603 4134 
L 603 4863 
z
" transform="scale(0.015625)"/>
       <path id="DejaVuSans-63" d="M 3122 3366 
L 3122 2828 
Q 2878 2963 2633 3030 
Q 2388 3097 2138 3097 
Q 1578 3097 1268 2742 
Q 959 2388 959 1747 
Q 959 1106 1268 751 
Q 1578 397 2138 397 
Q 2388 397 2633 464 
Q 2878 531 3122 666 
L 3122 134 
Q 2881 22 2623 -34 
Q 2366 -91 2075 -91 
Q 1284 -91 818 406 
Q 353 903 353 1747 
Q 353 2603 823 3093 
Q 1294 3584 2113 3584 
Q 2378 3584 2631 3529 
Q 2884 3475 3122 3366 
z
" transform="scale(0.015625)"/>
      </defs>
      <use xlink:href="#DejaVuSans-43"/>
      <use xlink:href="#DejaVuSans-6c" x="69.824219"/>
      <use xlink:href="#DejaVuSans-6f" x="97.607422"/>
      <use xlink:href="#DejaVuSans-73" x="158.789062"/>
      <use xlink:href="#DejaVuSans-65" x="210.888672"/>
      <use xlink:href="#DejaVuSans-20" x="272.412109"/>
      <use xlink:href="#DejaVuSans-50" x="304.199219"/>
      <use xlink:href="#DejaVuSans-72" x="362.751953"/>
      <use xlink:href="#DejaVuSans-69" x="403.865234"/>
      <use xlink:href="#DejaVuSans-63" x="431.648438"/>
      <use xlink:href="#DejaVuSans-65" x="486.628906"/>
     </g>
    </g>
   </g>
   <g id="line2d_34">
    <path d="M 79.500455 373.532727 
L 79.883884 371.155099 
L 80.267314 354.780925 
L 81.417604 346.580226 
L 81.801033 341.498273 
L 82.184463 339.268868 
L 82.567893 334.574112 
L 82.951323 334.338164 
L 84.101612 339.507841 
L 84.485042 333.327823 
L 84.868472 334.068941 
L 85.635331 324.410205 
L 87.16905 330.593248 
L 87.93591 331.425116 
L 88.31934 326.312913 
L 89.469629 331.691313 
L 89.853059 332.762153 
L 90.236489 329.552658 
L 90.619919 324.144008 
L 91.003348 322.567997 
L 92.153638 324.736902 
L 92.537068 326.343163 
L 92.920497 327.20528 
L 93.303927 334.991558 
L 93.687357 335.109532 
L 94.837646 333.445797 
L 95.221076 328.630041 
L 95.987936 324.410205 
L 96.371366 319.863672 
L 98.288515 322.86747 
L 98.671944 329.313685 
L 99.055374 323.163917 
L 100.205664 318.46916 
L 100.589093 318.853332 
L 100.972523 311.750697 
L 101.355953 317.189597 
L 101.739383 311.275777 
L 102.889672 317.219847 
L 103.273102 318.290687 
L 103.656532 328.778265 
L 104.039962 331.276892 
L 104.423391 332.822653 
L 105.957111 321.261209 
L 106.34054 316.270005 
L 106.72397 317.011124 
L 107.1074 313.535431 
L 108.257689 316.149007 
L 108.641119 316.031033 
L 109.407979 319.836448 
L 109.791409 331.128668 
L 110.941698 330.889696 
L 111.325128 325.629269 
L 111.708558 331.661064 
L 112.091987 329.582908 
L 112.475417 322.005353 
L 113.625707 319.331277 
L 114.009136 316.35773 
L 114.392566 315.168916 
L 114.775996 317.132123 
L 115.159426 311.009579 
L 116.309715 312.255868 
L 116.693145 317.39832 
L 117.076575 312.912286 
L 117.460004 319.954422 
L 117.843434 322.450023 
L 118.993724 323.905035 
L 119.377153 328.067397 
L 119.760583 343.963625 
L 120.144013 346.640725 
L 121.677732 347.412093 
L 122.061162 339.389867 
L 122.444592 342.953284 
L 122.828022 337.753357 
L 123.211451 337.278437 
L 124.361741 335.584452 
L 124.745171 337.48716 
L 125.1286 340.666405 
L 125.51203 338.942171 
L 125.89546 332.822653 
L 127.045749 332.01801 
L 127.429179 341.915719 
L 127.812609 343.875901 
L 128.196039 342.83531 
L 128.579469 345.361162 
L 129.729758 357.158553 
L 130.880047 344.263097 
L 131.263477 347.115646 
L 132.413767 351.187258 
L 132.797196 345.926832 
L 133.180626 343.875901 
L 133.564056 346.610476 
L 133.947486 345.748359 
L 135.481205 349.224052 
L 135.864635 355.107622 
L 136.248065 353.265414 
L 136.631494 357.663724 
L 137.781784 355.555318 
L 138.165214 349.34505 
L 138.548643 347.856764 
L 138.932073 350.412866 
L 139.315503 344.620044 
L 140.465792 345.273438 
L 140.849222 346.283779 
L 141.232652 344.054374 
L 141.616082 342.569113 
L 141.999512 346.6982 
L 143.149801 340.369958 
L 143.916661 329.343935 
L 144.68352 323.312141 
L 145.83381 330.057828 
L 146.217239 327.087306 
L 146.600669 329.135212 
L 146.984099 325.807743 
L 147.367529 320.577566 
L 148.901248 316.89315 
L 149.284678 314.367298 
L 151.201827 326.016466 
L 151.585256 320.459592 
L 151.968686 321.944853 
L 152.735546 332.644179 
L 153.885835 329.107987 
L 154.269265 331.960536 
L 154.652695 330.950195 
L 155.036125 328.333594 
L 155.419554 333.267324 
L 156.569844 332.108759 
L 156.953274 330.445025 
L 157.336703 329.731131 
L 157.720133 333.711995 
L 158.103563 331.00767 
L 159.253852 331.128668 
L 159.637282 327.649951 
L 160.020712 328.956738 
L 160.404142 326.787833 
L 160.787572 329.640382 
L 161.937861 340.130985 
L 162.321291 335.257755 
L 162.704721 334.813084 
L 163.08815 329.195711 
L 163.47158 331.037919 
L 164.62187 333.711995 
L 165.005299 330.384525 
L 165.388729 337.217937 
L 165.772159 337.042489 
L 166.155589 330.829196 
L 167.305878 327.087306 
L 167.689308 331.930286 
L 168.072738 328.602817 
L 168.456168 329.967079 
L 168.839597 338.972421 
L 169.989887 336.833766 
L 170.373317 338.437001 
L 170.756746 337.753357 
L 171.140176 335.523953 
L 171.523606 338.140554 
L 173.057325 343.104533 
L 173.440755 342.508613 
L 173.824185 340.073511 
L 175.357904 344.589794 
L 175.741334 343.458455 
L 176.124763 340.905378 
L 176.508193 341.28955 
L 178.041912 340.369958 
L 178.425342 337.99233 
L 178.808772 340.309459 
L 179.192202 338.972421 
L 179.575632 336.237846 
L 180.725921 339.804288 
L 181.109351 344.350821 
L 181.492781 346.967422 
L 181.87621 351.870902 
L 182.25964 355.168122 
L 183.40993 353.235165 
L 184.176789 362.657953 
L 184.943649 352.524296 
L 186.093938 354.188031 
L 186.477368 361.438889 
L 186.860798 358.764814 
L 187.627657 351.57143 
L 188.777947 347.381844 
L 189.161377 343.488704 
L 189.544806 345.808858 
L 189.928236 343.845651 
L 190.311666 344.381071 
L 191.461955 342.181916 
L 191.845385 336.981989 
L 192.612245 334.008442 
L 192.995675 334.752585 
L 194.529394 327.501727 
L 194.912824 328.660291 
L 195.296253 328.185371 
L 195.679683 318.112214 
L 196.829973 318.674858 
L 197.213402 319.863672 
L 197.596832 322.032577 
L 197.980262 322.153576 
L 198.363692 313.03026 
L 199.513981 314.693995 
L 199.897411 312.050169 
L 200.280841 312.346617 
L 200.664271 312.791288 
L 201.0477 305.661428 
L 202.19799 306.671769 
L 202.58142 301.114895 
L 203.348279 297.161257 
L 203.731709 295.080076 
L 204.881998 286.49218 
L 205.265428 288.691335 
L 205.648858 284.205301 
L 206.415717 283.936079 
L 207.566007 287.502521 
L 207.949437 286.610154 
L 208.332866 286.49218 
L 208.716296 288.334388 
L 209.099726 284.175052 
L 210.250015 289.613951 
L 210.633445 288.068191 
L 211.016875 291.186937 
L 211.400305 290.237096 
L 211.783735 286.343957 
L 212.934024 281.61895 
L 213.317454 283.996578 
L 213.700884 285.273116 
L 214.084313 283.639631 
L 214.467743 279.776742 
L 216.001462 277.922434 
L 216.768322 284.032878 
L 217.151752 285.554439 
L 218.302041 289.250955 
L 218.685471 288.149865 
L 219.452331 287.553945 
L 219.83576 292.381801 
L 220.98605 288.537061 
L 221.36948 288.149865 
L 221.752909 286.062634 
L 222.136339 280.097389 
L 222.519769 281.410227 
L 223.670058 289.937623 
L 224.053488 284.032878 
L 224.436918 285.524189 
L 224.820348 284.601573 
L 225.203778 285.285216 
L 226.737497 289.402203 
L 227.120927 288.119615 
L 227.504356 291.667907 
L 227.887786 299.060939 
L 229.038076 302.639481 
L 229.421505 297.748101 
L 229.804935 297.330655 
L 230.571795 309.109897 
L 231.722084 305.174408 
L 232.488944 285.971885 
L 232.872374 283.080012 
L 233.255803 285.227742 
L 234.406093 282.305619 
L 234.789523 279.383496 
L 235.172952 277.356764 
L 235.556382 279.053774 
L 235.939812 276.818319 
L 237.473531 276.19215 
L 237.856961 272.317161 
L 238.240391 273.47875 
L 238.62382 272.256662 
L 239.77411 281.739949 
L 240.15754 294.856228 
L 240.540969 291.816131 
L 240.924399 305.740078 
L 241.307829 303.413874 
L 242.458118 290.981239 
L 242.841548 301.296394 
L 243.224978 283.110261 
L 243.608408 294.768504 
L 243.991838 294.977227 
L 245.142127 318.441935 
L 245.525557 309.049397 
L 245.908987 325.716993 
L 246.292416 353.891583 
L 246.675846 329.682732 
L 247.826136 362.35848 
L 248.209565 340.297359 
L 248.592995 347.808365 
L 248.976425 342.85951 
L 249.359855 355.143922 
L 250.510144 362.149757 
L 250.893574 344.441571 
L 251.277004 344.946741 
L 251.660434 327.952448 
L 252.043863 333.884418 
L 253.194153 320.169195 
L 253.577583 322.198951 
L 253.961012 332.840803 
L 254.344442 318.293712 
L 254.727872 321.24306 
L 255.878161 305.649328 
L 256.261591 311.227377 
L 256.645021 301.505117 
L 258.56217 297.630127 
L 258.9456 286.092884 
L 259.32903 291.577158 
L 259.712459 277.861935 
L 260.095889 258.362965 
L 261.246179 252.192022 
L 261.629608 265.550298 
L 262.013038 263.880514 
L 262.396468 265.132852 
L 262.779898 257.25885 
L 263.930187 253.114638 
L 264.313617 262.029231 
L 264.697047 259.793776 
L 265.080476 261.642034 
L 265.463906 269.812484 
L 266.614196 262.954872 
L 266.997625 257.050127 
L 267.381055 257.767045 
L 268.147915 248.761703 
L 269.298204 230.097625 
L 269.681634 239.968109 
L 270.065064 239.729137 
L 270.448494 242.681509 
L 270.831923 233.736667 
L 271.982213 225.923164 
L 272.365643 233.585418 
L 272.749072 227.296501 
L 273.132502 235.615175 
L 273.515932 232.097132 
L 275.049651 244.856464 
L 275.433081 242.65126 
L 275.816511 236.211094 
L 276.199941 224.074906 
L 277.73366 226.997029 
L 278.11709 229.858653 
L 278.500519 234.272087 
L 278.883949 235.911622 
L 280.034239 230.515072 
L 280.417668 233.854641 
L 280.801098 228.966286 
L 281.184528 245.990829 
L 281.567958 245.213411 
L 282.718247 238.268075 
L 283.101677 233.736667 
L 283.868537 228.309867 
L 284.251966 212.20794 
L 285.402256 213.877725 
L 285.785686 214.177197 
L 286.169115 221.839452 
L 286.552545 216.234178 
L 286.935975 223.68771 
L 288.086264 225.387744 
L 288.469694 218.052187 
L 288.853124 212.864359 
L 289.236554 209.467316 
L 291.153703 205.023632 
L 291.537133 202.636929 
L 291.920562 201.057893 
L 292.303992 205.531827 
L 293.454282 208.332951 
L 293.837711 195.98804 
L 294.221141 188.743232 
L 294.604571 191.308408 
L 294.988001 179.828639 
L 296.13829 175.9839 
L 296.52172 185.494412 
L 296.90515 185.554911 
L 297.672009 207.020113 
L 298.822299 193.722336 
L 299.205728 198.017796 
L 299.589158 203.710794 
L 299.972588 202.966651 
L 300.356018 212.328939 
L 301.506307 199.896304 
L 301.889737 206.157996 
L 302.656597 213.073082 
L 303.040026 214.503894 
L 304.190316 222.078424 
L 304.573746 229.531956 
L 304.957175 220.677862 
L 305.340605 221.391756 
L 305.724035 222.465621 
L 306.874324 214.594643 
L 307.257754 217.008571 
L 307.641184 231.110991 
L 308.024614 233.97564 
L 309.558333 240.025584 
L 309.941763 232.124357 
L 310.325193 230.575571 
L 310.708622 230.663295 
L 311.092052 231.619186 
L 312.242342 225.448243 
L 312.625771 233.140747 
L 313.009201 223.330763 
L 313.392631 239.102967 
L 313.776061 242.382037 
L 315.30978 253.41411 
L 315.69321 246.317526 
L 316.07664 254.04028 
L 317.993789 228.51859 
L 318.760648 234.393086 
L 319.144078 234.211587 
L 320.294367 238.355799 
L 320.677797 236.894738 
L 321.061227 242.351787 
L 321.444657 241.577395 
L 321.828087 230.545321 
L 322.978376 225.744691 
L 323.361806 225.148771 
L 323.745236 220.587113 
L 324.128665 217.755739 
L 324.512095 227.592949 
L 325.662384 210.302208 
L 326.045814 216.264428 
L 326.429244 205.919023 
L 326.812674 208.393451 
L 327.196104 205.858524 
L 328.729823 200.2835 
L 329.113253 206.87189 
L 329.496682 218.617856 
L 329.880112 217.395768 
L 331.030402 225.892914 
L 331.413831 226.162137 
L 331.797261 234.123863 
L 332.180691 229.680179 
L 332.564121 230.037126 
L 333.71441 236.955237 
L 334.09784 228.54884 
L 334.48127 242.62101 
L 334.8647 238.298325 
L 335.248129 249.747844 
L 336.398419 248.61348 
L 336.781849 241.725618 
L 337.165278 214.624893 
L 337.548708 214.44642 
L 337.932138 225.058022 
L 339.082427 230.009901 
L 339.465857 234.063364 
L 339.849287 226.670332 
L 340.232717 227.236002 
L 340.616147 218.826579 
L 341.766436 222.078424 
L 342.149866 228.040644 
L 342.533296 237.850629 
L 342.916725 237.13371 
L 343.300155 233.167972 
L 344.450445 230.902268 
L 344.833874 234.898256 
L 345.217304 229.831428 
L 345.984164 211.820744 
L 347.134453 199.745055 
L 347.517883 202.192258 
L 347.901313 201.057893 
L 348.284743 194.348505 
L 348.668172 193.574112 
L 349.818462 194.944425 
L 350.201892 186.21133 
L 350.585321 197.391627 
L 350.968751 194.378755 
L 351.352181 192.947943 
L 352.50247 182.841511 
L 352.8859 182.303066 
L 353.26933 186.686251 
L 353.65276 175.596703 
L 354.03619 176.758292 
L 355.186479 177.124314 
L 355.569909 182.448265 
L 355.953338 180.684706 
L 356.336768 184.09385 
L 357.870487 194.865775 
L 358.253917 195.821667 
L 358.637347 195.761167 
L 360.554496 197.64875 
L 360.937926 195.912416 
L 361.321356 190.497716 
L 361.704785 178.170954 
L 362.088215 178.440177 
L 363.621934 170.871697 
L 364.005364 171.11067 
L 364.388794 165.275498 
L 364.772224 162.4048 
L 366.305943 152.619015 
L 366.689373 146.69612 
L 367.072803 147.924258 
L 367.456232 143.556199 
L 368.606522 134.75958 
L 368.989952 145.350007 
L 369.373381 161.836105 
L 369.756811 156.44863 
L 370.140241 143.525949 
L 371.29053 138.558945 
L 371.67396 139.03689 
L 372.05739 142.089087 
L 372.44082 135.896969 
L 372.82425 126.679879 
L 373.974539 119.501621 
L 374.357969 122.762541 
L 374.741399 122.641542 
L 375.124828 129.553603 
L 375.508258 118.034509 
L 377.041977 130.36127 
L 377.425407 124.647098 
L 377.808837 138.649694 
L 378.192267 138.767668 
L 379.342556 151.03393 
L 380.109416 155.761961 
L 380.492846 169.704058 
L 380.876275 168.297445 
L 382.026565 162.4048 
L 382.409995 172.305534 
L 382.793424 191.123885 
L 383.176854 202.912201 
L 383.560284 187.506018 
L 384.710573 202.794227 
L 385.094003 190.228493 
L 385.477433 193.459163 
L 385.860863 181.011403 
L 386.244292 183.195433 
L 387.394582 171.679364 
L 387.778012 169.135363 
L 388.161441 167.341554 
L 388.544871 176.734093 
L 388.928301 169.344086 
L 390.07859 160.846939 
L 390.84545 191.904328 
L 391.22888 192.590996 
L 391.61231 187.475769 
L 392.762599 190.467466 
L 393.146029 193.068942 
L 393.529459 178.948372 
L 393.912888 174.162866 
L 395.446608 172.275284 
L 395.830037 168.297445 
L 396.213467 178.470427 
L 396.596897 176.764342 
L 396.980327 174.519813 
L 398.130616 178.918123 
L 398.514046 169.195862 
L 398.897476 164.467831 
L 399.664335 147.385813 
L 400.814625 154.385599 
L 401.198055 155.014793 
L 401.581484 147.264815 
L 401.964914 146.817119 
L 402.348344 141.550642 
L 403.498633 131.43816 
L 403.882063 131.767882 
L 404.648923 142.267561 
L 405.032353 139.06714 
L 406.182642 142.627532 
L 406.566072 161.954079 
L 407.332931 172.036311 
L 407.716361 166.830334 
L 408.866651 175.38798 
L 409.25008 177.124314 
L 409.63351 183.945626 
L 410.01694 184.09385 
L 410.40037 172.18756 
L 411.550659 171.05017 
L 411.934089 168.566668 
L 412.317519 170.690198 
L 412.700949 155.88296 
L 413.084378 160.160271 
L 414.234668 159.591576 
L 414.618097 161.116162 
L 415.001527 160.069521 
L 415.384957 158.305963 
L 415.768387 152.888238 
L 417.302106 157.885492 
L 417.685536 153.338958 
L 418.068966 152.888238 
L 418.452395 143.4352 
L 419.602685 123.179987 
L 419.986115 124.765072 
L 420.752974 102.837049 
L 421.136404 109.358889 
L 422.286693 111.781892 
L 422.670123 121.894374 
L 423.053553 127.608546 
L 423.436983 119.202148 
L 423.820413 122.850265 
L 424.970702 118.004259 
L 425.354132 110.974224 
L 425.737562 111.660893 
L 426.120991 109.658361 
L 426.504421 105.408276 
L 427.654711 103.136522 
L 428.03814 99.933076 
L 428.42157 100.471521 
L 428.805 97.422349 
L 429.18843 96.493683 
L 430.722149 102.867299 
L 431.105579 111.303946 
L 431.489009 109.688611 
L 431.872438 104.839581 
L 433.022728 108.699445 
L 433.789587 119.680094 
L 434.173017 116.567398 
L 434.556447 108.2215 
L 435.706736 102.567827 
L 436.090166 96.883904 
L 436.473596 94.10093 
L 437.240456 81.114725 
L 438.774175 100.084325 
L 439.157605 82.13414 
L 439.541034 86.350951 
L 439.924464 84.557143 
L 441.074754 82.911558 
L 441.458183 70.315574 
L 441.841613 52.782836 
L 442.225043 49.313193 
L 442.608473 62.686595 
L 443.758762 43.387273 
L 444.142192 52.722337 
L 444.525622 77.136886 
L 444.909051 69.299184 
L 445.292481 69.356658 
L 446.442771 77.645082 
L 446.8262 63.672736 
L 447.20963 69.837629 
L 447.59306 84.675117 
L 447.97649 76.447193 
L 449.126779 58.227786 
L 449.510209 58.974954 
L 449.893639 54.367921 
L 450.277069 59.186702 
L 450.660498 60.741538 
L 452.194218 57.241645 
L 452.961077 45.8133 
L 453.344507 45.601552 
L 454.878226 46.291246 
L 455.261656 54.068449 
L 455.645086 51.615197 
L 457.178805 69.057186 
L 457.562235 68.848463 
L 457.945665 59.755397 
L 458.712524 51.884419 
L 459.862814 64.392679 
L 460.246243 58.019063 
L 460.629673 57.867814 
L 461.013103 49.791139 
L 461.396533 61.757928 
L 462.546822 80.189083 
L 462.930252 101.430437 
L 463.313682 100.982741 
L 463.697112 99.067934 
L 464.080541 115.581257 
L 465.230831 128.924409 
L 465.614261 126.800878 
L 465.99769 133.322718 
L 466.38112 124.468625 
L 466.76455 129.853075 
L 467.914839 130.869466 
L 468.298269 130.42177 
L 468.681699 125.814737 
L 469.065129 118.064759 
L 469.448559 120.965707 
L 470.598848 121.924623 
L 470.982278 115.971478 
L 471.365708 116.86687 
L 471.749137 111.842391 
L 472.132567 116.957619 
L 473.282857 105.707748 
L 473.666286 104.93033 
L 474.049716 114.504367 
L 474.433146 106.215943 
L 474.816576 106.966136 
L 476.350295 99.694103 
L 476.733725 96.883904 
L 477.117154 110.31478 
L 477.500584 131.020714 
L 478.650874 127.039851 
L 479.034303 132.067355 
L 479.417733 138.679944 
L 479.801163 138.767668 
L 480.184593 135.298025 
L 481.334882 134.039636 
L 481.718312 130.182797 
L 482.101742 129.883325 
L 482.485172 129.971049 
L 482.868601 125.424516 
L 484.018891 123.300986 
L 484.402321 129.853075 
L 484.78575 128.177241 
L 485.55261 115.520757 
L 486.702899 110.015308 
L 487.086329 118.064759 
L 487.469759 132.6058 
L 487.853189 135.80622 
L 488.236619 143.286976 
L 489.386908 159.022881 
L 489.770338 135.657997 
L 490.153768 131.259687 
L 490.920627 150.047789 
L 492.070917 143.256726 
L 492.454346 144.51209 
L 492.837776 131.078189 
L 493.221206 133.861163 
L 493.604636 122.133346 
L 494.754925 132.306327 
L 495.138355 132.454551 
L 495.521785 133.685715 
L 495.905215 132.965771 
L 497.438934 139.260738 
L 497.822364 142.110262 
L 498.205793 135.963519 
L 498.589223 133.265244 
L 500.122942 144.748038 
L 500.506372 156.678528 
L 500.889802 177.544785 
L 501.273232 177.154564 
L 501.656662 180.902504 
L 502.806951 168.820766 
L 503.190381 163.424215 
L 503.57381 168.309545 
L 503.95724 184.260223 
L 504.34067 183.331557 
L 505.874389 202.667178 
L 506.257819 209.113394 
L 506.641249 212.289615 
L 507.024679 220.865411 
L 508.174968 217.65894 
L 508.558398 228.960236 
L 509.325257 238.942644 
L 509.708687 221.945326 
L 510.858977 209.473366 
L 511.242406 200.150402 
L 511.625836 201.169817 
L 512.009266 211.421448 
L 512.392696 211.300449 
L 513.542985 210.10256 
L 513.926415 211.421448 
L 514.309845 199.578682 
L 514.693275 212.471113 
L 515.076704 218.977828 
L 516.226994 231.17754 
L 516.610424 223.863158 
L 516.993853 224.462102 
L 517.377283 238.2832 
L 517.760713 242.451611 
L 519.294432 244.968388 
L 519.677862 252.013548 
L 520.061292 239.063643 
L 520.444722 231.836984 
L 521.595011 232.977399 
L 521.978441 236.843313 
L 522.361871 234.356786 
L 523.12873 246.169302 
L 524.27902 255.970212 
L 524.662449 256.720405 
L 525.045879 245.987804 
L 525.429309 250.963883 
L 525.812739 260.078124 
L 526.963028 259.297681 
L 527.346458 255.132294 
L 527.729888 236.244369 
L 528.496747 218.466608 
L 529.647037 223.711909 
L 530.030467 214.180222 
L 530.413896 226.739906 
L 530.797326 220.38444 
L 531.180756 226.739906 
L 532.331045 221.225382 
L 532.714475 207.94273 
L 533.481335 217.776914 
L 533.864764 206.384869 
L 535.015054 202.189233 
L 535.398484 210.07231 
L 535.781913 211.990142 
L 536.165343 204.315788 
L 536.548773 203.53837 
L 537.699062 213.490529 
L 538.082492 217.897913 
L 538.465922 205.005482 
L 538.849352 210.671255 
L 540.383071 223.742159 
L 540.766501 219.906494 
L 541.149931 218.257885 
L 541.91679 241.250698 
L 543.06708 237.384783 
L 543.450509 254.351852 
L 543.833939 254.082629 
L 544.217369 255.791738 
L 544.600799 264.993704 
L 545.751088 258.580763 
L 546.134518 255.761489 
L 546.517948 244.847389 
L 547.284807 276.388773 
L 548.435097 293.924537 
L 548.818527 286.280432 
L 549.201956 299.590309 
L 549.968816 274.709914 
L 551.119105 275.547831 
L 551.502535 264.515758 
L 551.885965 274.349942 
L 552.269395 267.634504 
L 552.652825 266.645338 
L 553.803114 264.546008 
L 554.186544 271.079947 
L 554.569974 269.283114 
L 554.953403 265.084453 
L 555.336833 249.705495 
L 556.870552 260.168873 
L 557.253982 265.474674 
L 557.637412 263.705065 
L 558.020842 266.884311 
L 559.171131 268.711394 
L 559.554561 261.666234 
L 559.937991 257.921319 
L 560.70485 289.129956 
L 561.85514 306.665719 
L 562.23857 304.717637 
L 562.621999 296.175116 
L 563.005429 305.945776 
L 563.388859 293.625064 
L 564.922578 286.640404 
L 565.306008 281.092605 
L 565.689438 264.84548 
L 566.072867 255.57999 
L 567.223157 256.871653 
L 567.606587 266.645338 
L 567.990016 263.886564 
L 568.373446 266.763312 
L 568.756876 256.901903 
L 570.290595 246.768247 
L 570.674025 246.768247 
L 571.057455 234.087564 
L 571.440885 233.155872 
L 572.974604 243.979222 
L 573.358034 247.007219 
L 573.741463 255.280518 
L 574.124893 246.257026 
L 575.275183 258.220791 
L 575.658612 245.748831 
L 576.042042 244.938139 
L 576.425472 240.860476 
L 576.808902 249.436272 
L 577.959191 247.727163 
L 578.342621 246.768247 
L 578.726051 242.899307 
L 579.109481 240.651753 
L 579.49291 241.220448 
L 580.6432 246.408275 
L 581.02663 245.866805 
L 581.410059 226.561433 
L 581.793489 220.145467 
L 582.176919 220.92591 
L 583.327208 219.755246 
L 583.710638 230.188375 
L 584.094068 218.79633 
L 584.477498 223.203714 
L 584.860928 222.722743 
L 586.011217 213.638752 
L 586.394647 220.774661 
L 586.778077 230.878068 
L 587.161506 237.593506 
L 587.544936 241.432196 
L 589.078655 252.434019 
L 589.462085 247.727163 
L 589.845515 244.759665 
L 590.228945 260.259622 
L 591.379234 263.136371 
L 591.762664 265.834646 
L 592.146094 266.194617 
L 592.529524 260.377596 
L 592.912953 268.05195 
L 594.446672 273.149028 
L 595.213532 247.51844 
L 595.596962 240.742502 
L 596.747251 243.259279 
L 597.130681 264.663982 
L 597.514111 263.795815 
L 597.897541 261.336512 
L 598.28097 262.985122 
L 599.43126 268.832393 
L 599.81469 272.159862 
L 600.198119 280.705409 
L 600.581549 283.521658 
L 600.964979 288.050041 
L 602.115268 293.836812 
L 602.498698 290.536568 
L 602.882128 272.879806 
L 603.265558 279.595244 
L 603.648988 281.782299 
L 604.799277 273.899221 
L 605.182707 261.54826 
L 605.566137 258.789486 
L 605.949566 262.537426 
L 606.332996 274.888387 
L 607.483286 276.177025 
L 607.866715 275.547831 
L 608.250145 272.580334 
L 608.633575 262.957897 
L 609.017005 267.752478 
L 610.167294 258.220791 
L 610.550724 258.039293 
L 610.934154 272.671083 
L 611.317584 276.657996 
L 611.701013 264.455258 
L 612.851303 256.720405 
L 613.618162 239.992309 
L 614.001592 248.416856 
L 614.385022 230.248874 
L 615.535311 232.466179 
L 615.918741 229.828403 
L 616.302171 237.384783 
L 616.685601 235.406451 
L 617.069031 231.298539 
L 618.21932 226.022988 
L 618.60275 220.35419 
L 618.98618 223.832908 
L 619.369609 209.893837 
L 620.903329 206.536118 
L 621.286758 203.326622 
L 622.053618 208.093978 
L 622.437048 207.074563 
L 623.587337 208.245227 
L 623.970767 207.195562 
L 624.354197 208.45395 
L 625.121056 207.915505 
L 626.271346 211.242974 
L 626.654775 213.191056 
L 627.038205 199.699681 
L 627.421635 195.833766 
L 627.805065 193.794935 
L 628.955354 204.766509 
L 629.338784 211.121975 
L 629.722214 207.464784 
L 630.105644 200.238126 
L 630.489073 210.523031 
L 631.639363 210.011811 
L 632.022793 200.870345 
L 632.406222 199.27921 
L 632.789652 206.923314 
L 633.173082 211.630171 
L 634.323371 220.699037 
L 634.706801 215.850007 
L 635.090231 209.104319 
L 635.473661 209.134569 
L 635.857091 215.459785 
L 637.39081 225.067097 
L 637.77424 230.1551 
L 638.157669 221.183033 
L 638.541099 222.746943 
L 640.074818 226.150037 
L 640.458248 218.71163 
L 640.841678 220.880535 
L 641.225108 214.074348 
L 642.375397 217.62869 
L 642.758827 206.995914 
L 643.142257 200.129227 
L 643.525687 201.423915 
L 643.909116 197.05888 
L 645.442836 197.781849 
L 645.826265 200.068727 
L 646.209695 204.10404 
L 646.593125 199.406259 
L 647.743414 193.353289 
L 648.126844 195.972915 
L 648.510274 197.237354 
L 648.893704 194.768976 
L 649.277134 194.647977 
L 650.427423 203.834818 
L 650.810853 198.65304 
L 651.194283 198.353568 
L 651.577712 196.665634 
L 651.961142 199.947729 
L 653.111431 203.774318 
L 653.494861 200.401474 
L 653.878291 209.615539 
L 654.261721 213.9231 
L 654.645151 213.741601 
L 655.79544 205.371503 
L 656.17887 207.177412 
L 656.5623 207.597883 
L 656.945729 212.477163 
L 657.329159 212.026442 
L 659.246308 226.513033 
L 659.629738 227.716972 
L 660.013168 236.540816 
L 661.163457 233.530969 
L 661.546887 233.137722 
L 661.930317 228.951161 
L 662.313747 226.721757 
L 662.697176 217.68919 
L 663.847466 222.296222 
L 664.230896 231.059567 
L 664.614325 234.311412 
L 665.381185 248.105284 
L 666.914904 229.855628 
L 667.298334 231.812785 
L 667.681764 228.01947 
L 668.065194 235.666599 
L 669.215483 229.946377 
L 669.598913 227.474975 
L 669.982343 236.991537 
L 670.749202 227.474975 
L 671.899492 228.56094 
L 672.282921 227.384225 
L 672.666351 222.144974 
L 673.049781 222.326472 
L 673.433211 215.671533 
L 674.5835 215.850007 
L 674.96693 216.542725 
L 675.35036 213.9231 
L 675.73379 206.424194 
L 677.267509 210.069285 
L 677.650939 208.142378 
L 678.034368 208.44185 
L 678.417798 199.769255 
L 678.801228 203.804568 
L 679.951517 205.519727 
L 680.334947 209.316067 
L 680.718377 208.351101 
L 681.101807 212.537662 
L 681.485237 209.104319 
L 682.635526 209.04382 
L 683.018956 220.638538 
L 683.402385 228.651689 
L 683.785815 227.357001 
L 684.169245 222.777193 
L 685.319534 219.85507 
L 685.702964 225.729566 
L 686.086394 225.638817 
L 686.469824 226.119787 
L 686.853254 220.097068 
L 688.003543 225.097347 
L 688.386973 226.150037 
L 688.770403 223.07969 
L 689.153832 223.950882 
L 689.537262 225.248595 
L 690.687552 217.988662 
L 691.070981 227.837971 
L 691.454411 226.842755 
L 691.837841 227.716972 
L 692.221271 222.595695 
L 693.75499 219.162351 
L 694.52185 235.548625 
L 694.905279 234.371911 
L 696.822428 238.138001 
L 697.205858 236.450067 
L 697.589288 227.716972 
L 698.739577 227.115003 
L 699.123007 228.591189 
L 699.506437 229.58338 
L 699.889867 227.565724 
L 700.273297 228.167693 
L 701.423586 224.855349 
L 701.807016 220.729287 
L 702.190446 223.742159 
L 702.573875 216.875472 
L 702.957305 217.356443 
L 704.491024 222.807443 
L 704.874454 226.812506 
L 705.257884 225.248595 
L 705.641314 230.999067 
L 706.791603 233.618693 
L 707.175033 239.583938 
L 707.558463 236.991537 
L 707.941893 237.835504 
L 708.325322 233.860691 
L 709.475612 234.52316 
L 710.242471 233.648943 
L 711.009331 244.25147 
L 712.15962 234.613909 
L 712.54305 235.878347 
L 712.92648 231.210815 
L 713.30991 228.409691 
L 713.693339 229.734629 
L 715.227059 220.578038 
L 715.610488 217.598441 
L 715.993918 216.603225 
L 716.377348 210.970727 
L 717.527637 218.23066 
L 717.911067 217.326193 
L 718.294497 218.77213 
L 718.677927 221.512755 
L 719.061357 215.096789 
L 720.211646 219.616097 
L 720.978506 228.769663 
L 721.361935 228.137443 
L 721.745365 223.772409 
L 722.895655 224.586126 
L 723.279084 219.88532 
L 723.662514 217.114445 
L 724.429374 216.243253 
L 725.963093 215.036289 
L 726.346523 222.084474 
L 726.729953 223.439662 
L 727.113382 225.427068 
L 728.263672 218.20041 
L 728.647102 217.867663 
L 729.030531 214.343571 
L 729.413961 219.525348 
L 729.797391 216.092005 
L 730.94768 213.802101 
L 731.33111 207.87013 
L 731.71454 206.242695 
L 732.09797 211.091726 
L 732.4814 207.177412 
L 734.015119 214.978815 
L 734.398549 219.464848 
L 734.781978 220.941035 
L 735.165408 221.603504 
L 736.315698 216.633475 
L 736.699127 218.469633 
L 737.082557 218.983878 
L 737.465987 218.351659 
L 737.849417 221.240507 
L 738.999706 224.855349 
L 739.383136 221.875751 
L 739.766566 226.029038 
L 740.149996 233.830441 
L 740.533425 234.943631 
L 741.683715 236.389567 
L 742.067144 236.359318 
L 742.450574 233.860691 
L 743.217434 234.825657 
L 744.367723 238.80047 
L 744.751153 244.493468 
L 745.134583 240.034659 
L 745.901442 233.558193 
L 747.051732 235.397377 
L 747.435162 231.150316 
L 747.818591 224.434878 
L 748.202021 232.656752 
L 748.585451 231.510287 
L 749.73574 231.422563 
L 750.11917 233.107473 
L 750.88603 250.876159 
L 751.26946 252.231346 
L 752.419749 254.128004 
L 752.803179 249.762969 
L 753.186609 259.491279 
L 753.570038 259.881501 
L 753.953468 270.363029 
L 755.103758 268.584345 
L 755.487187 269.007841 
L 756.254047 256.448157 
L 756.637477 246.810596 
L 757.787766 245.606657 
L 758.171196 243.017281 
L 758.554626 249.520971 
L 758.938056 261.660184 
L 759.321485 258.946784 
L 760.471775 260.244497 
L 760.855205 251.780625 
L 761.238634 250.485937 
L 761.622064 254.911472 
L 762.005494 252.954315 
L 763.155783 248.798003 
L 763.539213 252.110347 
L 763.922643 249.61172 
L 764.689503 247.866311 
L 765.839792 252.022623 
L 766.223222 254.188503 
L 767.373511 241.090374 
L 768.523801 239.85316 
L 768.90723 241.147848 
L 769.29066 239.039443 
L 769.67409 236.298818 
L 770.05752 240.155658 
L 771.207809 234.886156 
L 771.591239 230.847818 
L 771.974669 213.35138 
L 772.358098 209.134569 
L 772.741528 214.676318 
L 773.891818 217.056971 
L 774.275247 209.948286 
L 774.658677 224.437903 
L 775.425537 209.58529 
L 776.959256 206.681316 
L 777.342686 200.933869 
L 777.726116 200.480124 
L 778.109545 203.777343 
L 778.109545 203.777343 
" clip-path="url(#p8804488353)" style="fill: none; stroke: #1f77b4; stroke-width: 1.5; stroke-linecap: square"/>
   </g>
   <g id="patch_7">
    <path d="M 44.57 390.04 
L 44.57 26.88 
" style="fill: none; stroke: #000000; stroke-width: 0.8; stroke-linejoin: miter; stroke-linecap: square"/>
   </g>
   <g id="patch_8">
    <path d="M 813.04 390.04 
L 813.04 26.88 
" style="fill: none; stroke: #000000; stroke-width: 0.8; stroke-linejoin: miter; stroke-linecap: square"/>
   </g>
   <g id="patch_9">
    <path d="M 44.57 390.04 
L 813.04 390.04 
" style="fill: none; stroke: #000000; stroke-width: 0.8; stroke-linejoin: miter; stroke-linecap: square"/>
   </g>
   <g id="patch_10">
    <path d="M 44.57 26.88 
L 813.04 26.88 
" style="fill: none; stroke: #000000; stroke-width: 0.8; stroke-linejoin: miter; stroke-linecap: square"/>
   </g>
   <g id="text_23">
    <!-- Stock Trading Performance for BBH -->
    <g transform="translate(323.547187 20.88) scale(0.12 -0.12)">
     <defs>
      <path id="DejaVuSans-53" d="M 3425 4513 
L 3425 3897 
Q 3066 4069 2747 4153 
Q 2428 4238 2131 4238 
Q 1616 4238 1336 4038 
Q 1056 3838 1056 3469 
Q 1056 3159 1242 3001 
Q 1428 2844 1947 2747 
L 2328 2669 
Q 3034 2534 3370 2195 
Q 3706 1856 3706 1288 
Q 3706 609 3251 259 
Q 2797 -91 1919 -91 
Q 1588 -91 1214 -16 
Q 841 59 441 206 
L 441 856 
Q 825 641 1194 531 
Q 1563 422 1919 422 
Q 2459 422 2753 634 
Q 3047 847 3047 1241 
Q 3047 1584 2836 1778 
Q 2625 1972 2144 2069 
L 1759 2144 
Q 1053 2284 737 2584 
Q 422 2884 422 3419 
Q 422 4038 858 4394 
Q 1294 4750 2059 4750 
Q 2388 4750 2728 4690 
Q 3069 4631 3425 4513 
z
" transform="scale(0.015625)"/>
      <path id="DejaVuSans-6b" d="M 581 4863 
L 1159 4863 
L 1159 1991 
L 2875 3500 
L 3609 3500 
L 1753 1863 
L 3688 0 
L 2938 0 
L 1159 1709 
L 1159 0 
L 581 0 
L 581 4863 
z
" transform="scale(0.015625)"/>
      <path id="DejaVuSans-54" d="M -19 4666 
L 3928 4666 
L 3928 4134 
L 2272 4134 
L 2272 0 
L 1638 0 
L 1638 4134 
L -19 4134 
L -19 4666 
z
" transform="scale(0.015625)"/>
      <path id="DejaVuSans-64" d="M 2906 2969 
L 2906 4863 
L 3481 4863 
L 3481 0 
L 2906 0 
L 2906 525 
Q 2725 213 2448 61 
Q 2172 -91 1784 -91 
Q 1150 -91 751 415 
Q 353 922 353 1747 
Q 353 2572 751 3078 
Q 1150 3584 1784 3584 
Q 2172 3584 2448 3432 
Q 2725 3281 2906 2969 
z
M 947 1747 
Q 947 1113 1208 752 
Q 1469 391 1925 391 
Q 2381 391 2643 752 
Q 2906 1113 2906 1747 
Q 2906 2381 2643 2742 
Q 2381 3103 1925 3103 
Q 1469 3103 1208 2742 
Q 947 2381 947 1747 
z
" transform="scale(0.015625)"/>
      <path id="DejaVuSans-67" d="M 2906 1791 
Q 2906 2416 2648 2759 
Q 2391 3103 1925 3103 
Q 1463 3103 1205 2759 
Q 947 2416 947 1791 
Q 947 1169 1205 825 
Q 1463 481 1925 481 
Q 2391 481 2648 825 
Q 2906 1169 2906 1791 
z
M 3481 434 
Q 3481 -459 3084 -895 
Q 2688 -1331 1869 -1331 
Q 1566 -1331 1297 -1286 
Q 1028 -1241 775 -1147 
L 775 -588 
Q 1028 -725 1275 -790 
Q 1522 -856 1778 -856 
Q 2344 -856 2625 -561 
Q 2906 -266 2906 331 
L 2906 616 
Q 2728 306 2450 153 
Q 2172 0 1784 0 
Q 1141 0 747 490 
Q 353 981 353 1791 
Q 353 2603 747 3093 
Q 1141 3584 1784 3584 
Q 2172 3584 2450 3431 
Q 2728 3278 2906 2969 
L 2906 3500 
L 3481 3500 
L 3481 434 
z
" transform="scale(0.015625)"/>
      <path id="DejaVuSans-66" d="M 2375 4863 
L 2375 4384 
L 1825 4384 
Q 1516 4384 1395 4259 
Q 1275 4134 1275 3809 
L 1275 3500 
L 2222 3500 
L 2222 3053 
L 1275 3053 
L 1275 0 
L 697 0 
L 697 3053 
L 147 3053 
L 147 3500 
L 697 3500 
L 697 3744 
Q 697 4328 969 4595 
Q 1241 4863 1831 4863 
L 2375 4863 
z
" transform="scale(0.015625)"/>
      <path id="DejaVuSans-6d" d="M 3328 2828 
Q 3544 3216 3844 3400 
Q 4144 3584 4550 3584 
Q 5097 3584 5394 3201 
Q 5691 2819 5691 2113 
L 5691 0 
L 5113 0 
L 5113 2094 
Q 5113 2597 4934 2840 
Q 4756 3084 4391 3084 
Q 3944 3084 3684 2787 
Q 3425 2491 3425 1978 
L 3425 0 
L 2847 0 
L 2847 2094 
Q 2847 2600 2669 2842 
Q 2491 3084 2119 3084 
Q 1678 3084 1418 2786 
Q 1159 2488 1159 1978 
L 1159 0 
L 581 0 
L 581 3500 
L 1159 3500 
L 1159 2956 
Q 1356 3278 1631 3431 
Q 1906 3584 2284 3584 
Q 2666 3584 2933 3390 
Q 3200 3197 3328 2828 
z
" transform="scale(0.015625)"/>
      <path id="DejaVuSans-42" d="M 1259 2228 
L 1259 519 
L 2272 519 
Q 2781 519 3026 730 
Q 3272 941 3272 1375 
Q 3272 1813 3026 2020 
Q 2781 2228 2272 2228 
L 1259 2228 
z
M 1259 4147 
L 1259 2741 
L 2194 2741 
Q 2656 2741 2882 2914 
Q 3109 3088 3109 3444 
Q 3109 3797 2882 3972 
Q 2656 4147 2194 4147 
L 1259 4147 
z
M 628 4666 
L 2241 4666 
Q 2963 4666 3353 4366 
Q 3744 4066 3744 3513 
Q 3744 3084 3544 2831 
Q 3344 2578 2956 2516 
Q 3422 2416 3680 2098 
Q 3938 1781 3938 1306 
Q 3938 681 3513 340 
Q 3088 0 2303 0 
L 628 0 
L 628 4666 
z
" transform="scale(0.015625)"/>
      <path id="DejaVuSans-48" d="M 628 4666 
L 1259 4666 
L 1259 2753 
L 3553 2753 
L 3553 4666 
L 4184 4666 
L 4184 0 
L 3553 0 
L 3553 2222 
L 1259 2222 
L 1259 0 
L 628 0 
L 628 4666 
z
" transform="scale(0.015625)"/>
     </defs>
     <use xlink:href="#DejaVuSans-53"/>
     <use xlink:href="#DejaVuSans-74" x="63.476562"/>
     <use xlink:href="#DejaVuSans-6f" x="102.685547"/>
     <use xlink:href="#DejaVuSans-63" x="163.867188"/>
     <use xlink:href="#DejaVuSans-6b" x="218.847656"/>
     <use xlink:href="#DejaVuSans-20" x="276.757812"/>
     <use xlink:href="#DejaVuSans-54" x="308.544922"/>
     <use xlink:href="#DejaVuSans-72" x="354.878906"/>
     <use xlink:href="#DejaVuSans-61" x="395.992188"/>
     <use xlink:href="#DejaVuSans-64" x="457.271484"/>
     <use xlink:href="#DejaVuSans-69" x="520.748047"/>
     <use xlink:href="#DejaVuSans-6e" x="548.53125"/>
     <use xlink:href="#DejaVuSans-67" x="611.910156"/>
     <use xlink:href="#DejaVuSans-20" x="675.386719"/>
     <use xlink:href="#DejaVuSans-50" x="707.173828"/>
     <use xlink:href="#DejaVuSans-65" x="763.851562"/>
     <use xlink:href="#DejaVuSans-72" x="825.375"/>
     <use xlink:href="#DejaVuSans-66" x="866.488281"/>
     <use xlink:href="#DejaVuSans-6f" x="901.693359"/>
     <use xlink:href="#DejaVuSans-72" x="962.875"/>
     <use xlink:href="#DejaVuSans-6d" x="1002.238281"/>
     <use xlink:href="#DejaVuSans-61" x="1099.650391"/>
     <use xlink:href="#DejaVuSans-6e" x="1160.929688"/>
     <use xlink:href="#DejaVuSans-63" x="1224.308594"/>
     <use xlink:href="#DejaVuSans-65" x="1279.289062"/>
     <use xlink:href="#DejaVuSans-20" x="1340.8125"/>
     <use xlink:href="#DejaVuSans-66" x="1372.599609"/>
     <use xlink:href="#DejaVuSans-6f" x="1407.804688"/>
     <use xlink:href="#DejaVuSans-72" x="1468.986328"/>
     <use xlink:href="#DejaVuSans-20" x="1510.099609"/>
     <use xlink:href="#DejaVuSans-42" x="1541.886719"/>
     <use xlink:href="#DejaVuSans-42" x="1610.490234"/>
     <use xlink:href="#DejaVuSans-48" x="1679.09375"/>
    </g>
   </g>
  </g>
 </g>
 <defs>
  <clipPath id="p8804488353">
   <rect x="44.57" y="26.88" width="768.47" height="363.16"/>
  </clipPath>
 </defs>
</svg>
