<?xml version="1.0" encoding="utf-8" standalone="no"?>
<!DOCTYPE svg PUBLIC "-//W3C//DTD SVG 1.1//EN"
  "http://www.w3.org/Graphics/SVG/1.1/DTD/svg11.dtd">
<svg xmlns:xlink="http://www.w3.org/1999/xlink" width="864pt" height="432pt" viewBox="0 0 864 432" xmlns="http://www.w3.org/2000/svg" version="1.1">
 <metadata>
  <rdf:RDF xmlns:dc="http://purl.org/dc/elements/1.1/" xmlns:cc="http://creativecommons.org/ns#" xmlns:rdf="http://www.w3.org/1999/02/22-rdf-syntax-ns#">
   <cc:Work>
    <dc:type rdf:resource="http://purl.org/dc/dcmitype/StillImage"/>
    <dc:date>2024-04-18T22:06:55.185445</dc:date>
    <dc:format>image/svg+xml</dc:format>
    <dc:creator>
     <cc:Agent>
      <dc:title>Matplotlib v3.8.2, https://matplotlib.org/</dc:title>
     </cc:Agent>
    </dc:creator>
   </cc:Work>
  </rdf:RDF>
 </metadata>
 <defs>
  <style type="text/css">*{stroke-linejoin: round; stroke-linecap: butt}</style>
 </defs>
 <g id="figure_1">
  <g id="patch_1">
   <path d="M 0 432 
L 864 432 
L 864 0 
L 0 0 
z
" style="fill: #ffffff"/>
  </g>
  <g id="axes_1">
   <g id="patch_2">
    <path d="M 52.94 390.04 
L 813.04 390.04 
L 813.04 26.88 
L 52.94 26.88 
z
" style="fill: #ffffff"/>
   </g>
   <g id="matplotlib.axis_1">
    <g id="xtick_1">
     <g id="line2d_1">
      <path d="M 87.110746 390.04 
L 87.110746 26.88 
" clip-path="url(#p31d3b2667e)" style="fill: none; stroke-dasharray: 1.85,0.8; stroke-dashoffset: 0; stroke: #b0b0b0; stroke-opacity: 0.5; stroke-width: 0.5"/>
     </g>
     <g id="line2d_2">
      <defs>
       <path id="m8decec720e" d="M 0 0 
L 0 3.5 
" style="stroke: #000000; stroke-width: 0.8"/>
      </defs>
      <g>
       <use xlink:href="#m8decec720e" x="87.110746" y="390.04" style="stroke: #000000; stroke-width: 0.8"/>
      </g>
     </g>
     <g id="text_1">
      <!-- 2019 -->
      <g transform="translate(74.385746 404.638438) scale(0.1 -0.1)">
       <defs>
        <path id="DejaVuSans-32" d="M 1228 531 
L 3431 531 
L 3431 0 
L 469 0 
L 469 531 
Q 828 903 1448 1529 
Q 2069 2156 2228 2338 
Q 2531 2678 2651 2914 
Q 2772 3150 2772 3378 
Q 2772 3750 2511 3984 
Q 2250 4219 1831 4219 
Q 1534 4219 1204 4116 
Q 875 4013 500 3803 
L 500 4441 
Q 881 4594 1212 4672 
Q 1544 4750 1819 4750 
Q 2544 4750 2975 4387 
Q 3406 4025 3406 3419 
Q 3406 3131 3298 2873 
Q 3191 2616 2906 2266 
Q 2828 2175 2409 1742 
Q 1991 1309 1228 531 
z
" transform="scale(0.015625)"/>
        <path id="DejaVuSans-30" d="M 2034 4250 
Q 1547 4250 1301 3770 
Q 1056 3291 1056 2328 
Q 1056 1369 1301 889 
Q 1547 409 2034 409 
Q 2525 409 2770 889 
Q 3016 1369 3016 2328 
Q 3016 3291 2770 3770 
Q 2525 4250 2034 4250 
z
M 2034 4750 
Q 2819 4750 3233 4129 
Q 3647 3509 3647 2328 
Q 3647 1150 3233 529 
Q 2819 -91 2034 -91 
Q 1250 -91 836 529 
Q 422 1150 422 2328 
Q 422 3509 836 4129 
Q 1250 4750 2034 4750 
z
" transform="scale(0.015625)"/>
        <path id="DejaVuSans-31" d="M 794 531 
L 1825 531 
L 1825 4091 
L 703 3866 
L 703 4441 
L 1819 4666 
L 2450 4666 
L 2450 531 
L 3481 531 
L 3481 0 
L 794 0 
L 794 531 
z
" transform="scale(0.015625)"/>
        <path id="DejaVuSans-39" d="M 703 97 
L 703 672 
Q 941 559 1184 500 
Q 1428 441 1663 441 
Q 2288 441 2617 861 
Q 2947 1281 2994 2138 
Q 2813 1869 2534 1725 
Q 2256 1581 1919 1581 
Q 1219 1581 811 2004 
Q 403 2428 403 3163 
Q 403 3881 828 4315 
Q 1253 4750 1959 4750 
Q 2769 4750 3195 4129 
Q 3622 3509 3622 2328 
Q 3622 1225 3098 567 
Q 2575 -91 1691 -91 
Q 1453 -91 1209 -44 
Q 966 3 703 97 
z
M 1959 2075 
Q 2384 2075 2632 2365 
Q 2881 2656 2881 3163 
Q 2881 3666 2632 3958 
Q 2384 4250 1959 4250 
Q 1534 4250 1286 3958 
Q 1038 3666 1038 3163 
Q 1038 2656 1286 2365 
Q 1534 2075 1959 2075 
z
" transform="scale(0.015625)"/>
       </defs>
       <use xlink:href="#DejaVuSans-32"/>
       <use xlink:href="#DejaVuSans-30" x="63.623047"/>
       <use xlink:href="#DejaVuSans-31" x="127.246094"/>
       <use xlink:href="#DejaVuSans-39" x="190.869141"/>
      </g>
     </g>
    </g>
    <g id="xtick_2">
     <g id="line2d_3">
      <path d="M 225.538299 390.04 
L 225.538299 26.88 
" clip-path="url(#p31d3b2667e)" style="fill: none; stroke-dasharray: 1.85,0.8; stroke-dashoffset: 0; stroke: #b0b0b0; stroke-opacity: 0.5; stroke-width: 0.5"/>
     </g>
     <g id="line2d_4">
      <g>
       <use xlink:href="#m8decec720e" x="225.538299" y="390.04" style="stroke: #000000; stroke-width: 0.8"/>
      </g>
     </g>
     <g id="text_2">
      <!-- 2020 -->
      <g transform="translate(212.813299 404.638438) scale(0.1 -0.1)">
       <use xlink:href="#DejaVuSans-32"/>
       <use xlink:href="#DejaVuSans-30" x="63.623047"/>
       <use xlink:href="#DejaVuSans-32" x="127.246094"/>
       <use xlink:href="#DejaVuSans-30" x="190.869141"/>
      </g>
     </g>
    </g>
    <g id="xtick_3">
     <g id="line2d_5">
      <path d="M 364.345104 390.04 
L 364.345104 26.88 
" clip-path="url(#p31d3b2667e)" style="fill: none; stroke-dasharray: 1.85,0.8; stroke-dashoffset: 0; stroke: #b0b0b0; stroke-opacity: 0.5; stroke-width: 0.5"/>
     </g>
     <g id="line2d_6">
      <g>
       <use xlink:href="#m8decec720e" x="364.345104" y="390.04" style="stroke: #000000; stroke-width: 0.8"/>
      </g>
     </g>
     <g id="text_3">
      <!-- 2021 -->
      <g transform="translate(351.620104 404.638438) scale(0.1 -0.1)">
       <use xlink:href="#DejaVuSans-32"/>
       <use xlink:href="#DejaVuSans-30" x="63.623047"/>
       <use xlink:href="#DejaVuSans-32" x="127.246094"/>
       <use xlink:href="#DejaVuSans-31" x="190.869141"/>
      </g>
     </g>
    </g>
    <g id="xtick_4">
     <g id="line2d_7">
      <path d="M 502.772656 390.04 
L 502.772656 26.88 
" clip-path="url(#p31d3b2667e)" style="fill: none; stroke-dasharray: 1.85,0.8; stroke-dashoffset: 0; stroke: #b0b0b0; stroke-opacity: 0.5; stroke-width: 0.5"/>
     </g>
     <g id="line2d_8">
      <g>
       <use xlink:href="#m8decec720e" x="502.772656" y="390.04" style="stroke: #000000; stroke-width: 0.8"/>
      </g>
     </g>
     <g id="text_4">
      <!-- 2022 -->
      <g transform="translate(490.047656 404.638438) scale(0.1 -0.1)">
       <use xlink:href="#DejaVuSans-32"/>
       <use xlink:href="#DejaVuSans-30" x="63.623047"/>
       <use xlink:href="#DejaVuSans-32" x="127.246094"/>
       <use xlink:href="#DejaVuSans-32" x="190.869141"/>
      </g>
     </g>
    </g>
    <g id="xtick_5">
     <g id="line2d_9">
      <path d="M 641.200209 390.04 
L 641.200209 26.88 
" clip-path="url(#p31d3b2667e)" style="fill: none; stroke-dasharray: 1.85,0.8; stroke-dashoffset: 0; stroke: #b0b0b0; stroke-opacity: 0.5; stroke-width: 0.5"/>
     </g>
     <g id="line2d_10">
      <g>
       <use xlink:href="#m8decec720e" x="641.200209" y="390.04" style="stroke: #000000; stroke-width: 0.8"/>
      </g>
     </g>
     <g id="text_5">
      <!-- 2023 -->
      <g transform="translate(628.475209 404.638438) scale(0.1 -0.1)">
       <defs>
        <path id="DejaVuSans-33" d="M 2597 2516 
Q 3050 2419 3304 2112 
Q 3559 1806 3559 1356 
Q 3559 666 3084 287 
Q 2609 -91 1734 -91 
Q 1441 -91 1130 -33 
Q 819 25 488 141 
L 488 750 
Q 750 597 1062 519 
Q 1375 441 1716 441 
Q 2309 441 2620 675 
Q 2931 909 2931 1356 
Q 2931 1769 2642 2001 
Q 2353 2234 1838 2234 
L 1294 2234 
L 1294 2753 
L 1863 2753 
Q 2328 2753 2575 2939 
Q 2822 3125 2822 3475 
Q 2822 3834 2567 4026 
Q 2313 4219 1838 4219 
Q 1578 4219 1281 4162 
Q 984 4106 628 3988 
L 628 4550 
Q 988 4650 1302 4700 
Q 1616 4750 1894 4750 
Q 2613 4750 3031 4423 
Q 3450 4097 3450 3541 
Q 3450 3153 3228 2886 
Q 3006 2619 2597 2516 
z
" transform="scale(0.015625)"/>
       </defs>
       <use xlink:href="#DejaVuSans-32"/>
       <use xlink:href="#DejaVuSans-30" x="63.623047"/>
       <use xlink:href="#DejaVuSans-32" x="127.246094"/>
       <use xlink:href="#DejaVuSans-33" x="190.869141"/>
      </g>
     </g>
    </g>
    <g id="xtick_6">
     <g id="line2d_11">
      <path d="M 779.627761 390.04 
L 779.627761 26.88 
" clip-path="url(#p31d3b2667e)" style="fill: none; stroke-dasharray: 1.85,0.8; stroke-dashoffset: 0; stroke: #b0b0b0; stroke-opacity: 0.5; stroke-width: 0.5"/>
     </g>
     <g id="line2d_12">
      <g>
       <use xlink:href="#m8decec720e" x="779.627761" y="390.04" style="stroke: #000000; stroke-width: 0.8"/>
      </g>
     </g>
     <g id="text_6">
      <!-- 2024 -->
      <g transform="translate(766.902761 404.638438) scale(0.1 -0.1)">
       <defs>
        <path id="DejaVuSans-34" d="M 2419 4116 
L 825 1625 
L 2419 1625 
L 2419 4116 
z
M 2253 4666 
L 3047 4666 
L 3047 1625 
L 3713 1625 
L 3713 1100 
L 3047 1100 
L 3047 0 
L 2419 0 
L 2419 1100 
L 313 1100 
L 313 1709 
L 2253 4666 
z
" transform="scale(0.015625)"/>
       </defs>
       <use xlink:href="#DejaVuSans-32"/>
       <use xlink:href="#DejaVuSans-30" x="63.623047"/>
       <use xlink:href="#DejaVuSans-32" x="127.246094"/>
       <use xlink:href="#DejaVuSans-34" x="190.869141"/>
      </g>
     </g>
    </g>
    <g id="text_7">
     <!-- Date -->
     <g transform="translate(421.039219 418.316562) scale(0.1 -0.1)">
      <defs>
       <path id="DejaVuSans-44" d="M 1259 4147 
L 1259 519 
L 2022 519 
Q 2988 519 3436 956 
Q 3884 1394 3884 2338 
Q 3884 3275 3436 3711 
Q 2988 4147 2022 4147 
L 1259 4147 
z
M 628 4666 
L 1925 4666 
Q 3281 4666 3915 4102 
Q 4550 3538 4550 2338 
Q 4550 1131 3912 565 
Q 3275 0 1925 0 
L 628 0 
L 628 4666 
z
" transform="scale(0.015625)"/>
       <path id="DejaVuSans-61" d="M 2194 1759 
Q 1497 1759 1228 1600 
Q 959 1441 959 1056 
Q 959 750 1161 570 
Q 1363 391 1709 391 
Q 2188 391 2477 730 
Q 2766 1069 2766 1631 
L 2766 1759 
L 2194 1759 
z
M 3341 1997 
L 3341 0 
L 2766 0 
L 2766 531 
Q 2569 213 2275 61 
Q 1981 -91 1556 -91 
Q 1019 -91 701 211 
Q 384 513 384 1019 
Q 384 1609 779 1909 
Q 1175 2209 1959 2209 
L 2766 2209 
L 2766 2266 
Q 2766 2663 2505 2880 
Q 2244 3097 1772 3097 
Q 1472 3097 1187 3025 
Q 903 2953 641 2809 
L 641 3341 
Q 956 3463 1253 3523 
Q 1550 3584 1831 3584 
Q 2591 3584 2966 3190 
Q 3341 2797 3341 1997 
z
" transform="scale(0.015625)"/>
       <path id="DejaVuSans-74" d="M 1172 4494 
L 1172 3500 
L 2356 3500 
L 2356 3053 
L 1172 3053 
L 1172 1153 
Q 1172 725 1289 603 
Q 1406 481 1766 481 
L 2356 481 
L 2356 0 
L 1766 0 
Q 1100 0 847 248 
Q 594 497 594 1153 
L 594 3053 
L 172 3053 
L 172 3500 
L 594 3500 
L 594 4494 
L 1172 4494 
z
" transform="scale(0.015625)"/>
       <path id="DejaVuSans-65" d="M 3597 1894 
L 3597 1613 
L 953 1613 
Q 991 1019 1311 708 
Q 1631 397 2203 397 
Q 2534 397 2845 478 
Q 3156 559 3463 722 
L 3463 178 
Q 3153 47 2828 -22 
Q 2503 -91 2169 -91 
Q 1331 -91 842 396 
Q 353 884 353 1716 
Q 353 2575 817 3079 
Q 1281 3584 2069 3584 
Q 2775 3584 3186 3129 
Q 3597 2675 3597 1894 
z
M 3022 2063 
Q 3016 2534 2758 2815 
Q 2500 3097 2075 3097 
Q 1594 3097 1305 2825 
Q 1016 2553 972 2059 
L 3022 2063 
z
" transform="scale(0.015625)"/>
      </defs>
      <use xlink:href="#DejaVuSans-44"/>
      <use xlink:href="#DejaVuSans-61" x="77.001953"/>
      <use xlink:href="#DejaVuSans-74" x="138.28125"/>
      <use xlink:href="#DejaVuSans-65" x="177.490234"/>
     </g>
    </g>
   </g>
   <g id="matplotlib.axis_2">
    <g id="ytick_1">
     <g id="line2d_13">
      <path d="M 52.94 337.918149 
L 813.04 337.918149 
" clip-path="url(#p31d3b2667e)" style="fill: none; stroke-dasharray: 1.85,0.8; stroke-dashoffset: 0; stroke: #b0b0b0; stroke-opacity: 0.5; stroke-width: 0.5"/>
     </g>
     <g id="line2d_14">
      <defs>
       <path id="m240bdd474a" d="M 0 0 
L -3.5 0 
" style="stroke: #000000; stroke-width: 0.8"/>
      </defs>
      <g>
       <use xlink:href="#m240bdd474a" x="52.94" y="337.918149" style="stroke: #000000; stroke-width: 0.8"/>
      </g>
     </g>
     <g id="text_8">
      <!-- −10 -->
      <g style="fill: #d62728" transform="translate(24.835313 341.717368) scale(0.1 -0.1)">
       <defs>
        <path id="DejaVuSans-2212" d="M 678 2272 
L 4684 2272 
L 4684 1741 
L 678 1741 
L 678 2272 
z
" transform="scale(0.015625)"/>
       </defs>
       <use xlink:href="#DejaVuSans-2212"/>
       <use xlink:href="#DejaVuSans-31" x="83.789062"/>
       <use xlink:href="#DejaVuSans-30" x="147.412109"/>
      </g>
     </g>
    </g>
    <g id="ytick_2">
     <g id="line2d_15">
      <path d="M 52.94 279.964296 
L 813.04 279.964296 
" clip-path="url(#p31d3b2667e)" style="fill: none; stroke-dasharray: 1.85,0.8; stroke-dashoffset: 0; stroke: #b0b0b0; stroke-opacity: 0.5; stroke-width: 0.5"/>
     </g>
     <g id="line2d_16">
      <g>
       <use xlink:href="#m240bdd474a" x="52.94" y="279.964296" style="stroke: #000000; stroke-width: 0.8"/>
      </g>
     </g>
     <g id="text_9">
      <!-- 0 -->
      <g style="fill: #d62728" transform="translate(39.5775 283.763515) scale(0.1 -0.1)">
       <use xlink:href="#DejaVuSans-30"/>
      </g>
     </g>
    </g>
    <g id="ytick_3">
     <g id="line2d_17">
      <path d="M 52.94 222.010443 
L 813.04 222.010443 
" clip-path="url(#p31d3b2667e)" style="fill: none; stroke-dasharray: 1.85,0.8; stroke-dashoffset: 0; stroke: #b0b0b0; stroke-opacity: 0.5; stroke-width: 0.5"/>
     </g>
     <g id="line2d_18">
      <g>
       <use xlink:href="#m240bdd474a" x="52.94" y="222.010443" style="stroke: #000000; stroke-width: 0.8"/>
      </g>
     </g>
     <g id="text_10">
      <!-- 10 -->
      <g style="fill: #d62728" transform="translate(33.215 225.809662) scale(0.1 -0.1)">
       <use xlink:href="#DejaVuSans-31"/>
       <use xlink:href="#DejaVuSans-30" x="63.623047"/>
      </g>
     </g>
    </g>
    <g id="ytick_4">
     <g id="line2d_19">
      <path d="M 52.94 164.05659 
L 813.04 164.05659 
" clip-path="url(#p31d3b2667e)" style="fill: none; stroke-dasharray: 1.85,0.8; stroke-dashoffset: 0; stroke: #b0b0b0; stroke-opacity: 0.5; stroke-width: 0.5"/>
     </g>
     <g id="line2d_20">
      <g>
       <use xlink:href="#m240bdd474a" x="52.94" y="164.05659" style="stroke: #000000; stroke-width: 0.8"/>
      </g>
     </g>
     <g id="text_11">
      <!-- 20 -->
      <g style="fill: #d62728" transform="translate(33.215 167.855809) scale(0.1 -0.1)">
       <use xlink:href="#DejaVuSans-32"/>
       <use xlink:href="#DejaVuSans-30" x="63.623047"/>
      </g>
     </g>
    </g>
    <g id="ytick_5">
     <g id="line2d_21">
      <path d="M 52.94 106.102738 
L 813.04 106.102738 
" clip-path="url(#p31d3b2667e)" style="fill: none; stroke-dasharray: 1.85,0.8; stroke-dashoffset: 0; stroke: #b0b0b0; stroke-opacity: 0.5; stroke-width: 0.5"/>
     </g>
     <g id="line2d_22">
      <g>
       <use xlink:href="#m240bdd474a" x="52.94" y="106.102738" style="stroke: #000000; stroke-width: 0.8"/>
      </g>
     </g>
     <g id="text_12">
      <!-- 30 -->
      <g style="fill: #d62728" transform="translate(33.215 109.901956) scale(0.1 -0.1)">
       <use xlink:href="#DejaVuSans-33"/>
       <use xlink:href="#DejaVuSans-30" x="63.623047"/>
      </g>
     </g>
    </g>
    <g id="ytick_6">
     <g id="line2d_23">
      <path d="M 52.94 48.148885 
L 813.04 48.148885 
" clip-path="url(#p31d3b2667e)" style="fill: none; stroke-dasharray: 1.85,0.8; stroke-dashoffset: 0; stroke: #b0b0b0; stroke-opacity: 0.5; stroke-width: 0.5"/>
     </g>
     <g id="line2d_24">
      <g>
       <use xlink:href="#m240bdd474a" x="52.94" y="48.148885" style="stroke: #000000; stroke-width: 0.8"/>
      </g>
     </g>
     <g id="text_13">
      <!-- 40 -->
      <g style="fill: #d62728" transform="translate(33.215 51.948103) scale(0.1 -0.1)">
       <use xlink:href="#DejaVuSans-34"/>
       <use xlink:href="#DejaVuSans-30" x="63.623047"/>
      </g>
     </g>
    </g>
    <g id="text_14">
     <!-- Returns (%) -->
     <g style="fill: #d62728" transform="translate(18.755625 237.8975) rotate(-90) scale(0.1 -0.1)">
      <defs>
       <path id="DejaVuSans-52" d="M 2841 2188 
Q 3044 2119 3236 1894 
Q 3428 1669 3622 1275 
L 4263 0 
L 3584 0 
L 2988 1197 
Q 2756 1666 2539 1819 
Q 2322 1972 1947 1972 
L 1259 1972 
L 1259 0 
L 628 0 
L 628 4666 
L 2053 4666 
Q 2853 4666 3247 4331 
Q 3641 3997 3641 3322 
Q 3641 2881 3436 2590 
Q 3231 2300 2841 2188 
z
M 1259 4147 
L 1259 2491 
L 2053 2491 
Q 2509 2491 2742 2702 
Q 2975 2913 2975 3322 
Q 2975 3731 2742 3939 
Q 2509 4147 2053 4147 
L 1259 4147 
z
" transform="scale(0.015625)"/>
       <path id="DejaVuSans-75" d="M 544 1381 
L 544 3500 
L 1119 3500 
L 1119 1403 
Q 1119 906 1312 657 
Q 1506 409 1894 409 
Q 2359 409 2629 706 
Q 2900 1003 2900 1516 
L 2900 3500 
L 3475 3500 
L 3475 0 
L 2900 0 
L 2900 538 
Q 2691 219 2414 64 
Q 2138 -91 1772 -91 
Q 1169 -91 856 284 
Q 544 659 544 1381 
z
M 1991 3584 
L 1991 3584 
z
" transform="scale(0.015625)"/>
       <path id="DejaVuSans-72" d="M 2631 2963 
Q 2534 3019 2420 3045 
Q 2306 3072 2169 3072 
Q 1681 3072 1420 2755 
Q 1159 2438 1159 1844 
L 1159 0 
L 581 0 
L 581 3500 
L 1159 3500 
L 1159 2956 
Q 1341 3275 1631 3429 
Q 1922 3584 2338 3584 
Q 2397 3584 2469 3576 
Q 2541 3569 2628 3553 
L 2631 2963 
z
" transform="scale(0.015625)"/>
       <path id="DejaVuSans-6e" d="M 3513 2113 
L 3513 0 
L 2938 0 
L 2938 2094 
Q 2938 2591 2744 2837 
Q 2550 3084 2163 3084 
Q 1697 3084 1428 2787 
Q 1159 2491 1159 1978 
L 1159 0 
L 581 0 
L 581 3500 
L 1159 3500 
L 1159 2956 
Q 1366 3272 1645 3428 
Q 1925 3584 2291 3584 
Q 2894 3584 3203 3211 
Q 3513 2838 3513 2113 
z
" transform="scale(0.015625)"/>
       <path id="DejaVuSans-73" d="M 2834 3397 
L 2834 2853 
Q 2591 2978 2328 3040 
Q 2066 3103 1784 3103 
Q 1356 3103 1142 2972 
Q 928 2841 928 2578 
Q 928 2378 1081 2264 
Q 1234 2150 1697 2047 
L 1894 2003 
Q 2506 1872 2764 1633 
Q 3022 1394 3022 966 
Q 3022 478 2636 193 
Q 2250 -91 1575 -91 
Q 1294 -91 989 -36 
Q 684 19 347 128 
L 347 722 
Q 666 556 975 473 
Q 1284 391 1588 391 
Q 1994 391 2212 530 
Q 2431 669 2431 922 
Q 2431 1156 2273 1281 
Q 2116 1406 1581 1522 
L 1381 1569 
Q 847 1681 609 1914 
Q 372 2147 372 2553 
Q 372 3047 722 3315 
Q 1072 3584 1716 3584 
Q 2034 3584 2315 3537 
Q 2597 3491 2834 3397 
z
" transform="scale(0.015625)"/>
       <path id="DejaVuSans-20" transform="scale(0.015625)"/>
       <path id="DejaVuSans-28" d="M 1984 4856 
Q 1566 4138 1362 3434 
Q 1159 2731 1159 2009 
Q 1159 1288 1364 580 
Q 1569 -128 1984 -844 
L 1484 -844 
Q 1016 -109 783 600 
Q 550 1309 550 2009 
Q 550 2706 781 3412 
Q 1013 4119 1484 4856 
L 1984 4856 
z
" transform="scale(0.015625)"/>
       <path id="DejaVuSans-25" d="M 4653 2053 
Q 4381 2053 4226 1822 
Q 4072 1591 4072 1178 
Q 4072 772 4226 539 
Q 4381 306 4653 306 
Q 4919 306 5073 539 
Q 5228 772 5228 1178 
Q 5228 1588 5073 1820 
Q 4919 2053 4653 2053 
z
M 4653 2450 
Q 5147 2450 5437 2106 
Q 5728 1763 5728 1178 
Q 5728 594 5436 251 
Q 5144 -91 4653 -91 
Q 4153 -91 3862 251 
Q 3572 594 3572 1178 
Q 3572 1766 3864 2108 
Q 4156 2450 4653 2450 
z
M 1428 4353 
Q 1159 4353 1004 4120 
Q 850 3888 850 3481 
Q 850 3069 1003 2837 
Q 1156 2606 1428 2606 
Q 1700 2606 1854 2837 
Q 2009 3069 2009 3481 
Q 2009 3884 1853 4118 
Q 1697 4353 1428 4353 
z
M 4250 4750 
L 4750 4750 
L 1831 -91 
L 1331 -91 
L 4250 4750 
z
M 1428 4750 
Q 1922 4750 2215 4408 
Q 2509 4066 2509 3481 
Q 2509 2891 2217 2550 
Q 1925 2209 1428 2209 
Q 931 2209 642 2551 
Q 353 2894 353 3481 
Q 353 4063 643 4406 
Q 934 4750 1428 4750 
z
" transform="scale(0.015625)"/>
       <path id="DejaVuSans-29" d="M 513 4856 
L 1013 4856 
Q 1481 4119 1714 3412 
Q 1947 2706 1947 2009 
Q 1947 1309 1714 600 
Q 1481 -109 1013 -844 
L 513 -844 
Q 928 -128 1133 580 
Q 1338 1288 1338 2009 
Q 1338 2731 1133 3434 
Q 928 4138 513 4856 
z
" transform="scale(0.015625)"/>
      </defs>
      <use xlink:href="#DejaVuSans-52"/>
      <use xlink:href="#DejaVuSans-65" x="64.982422"/>
      <use xlink:href="#DejaVuSans-74" x="126.505859"/>
      <use xlink:href="#DejaVuSans-75" x="165.714844"/>
      <use xlink:href="#DejaVuSans-72" x="229.09375"/>
      <use xlink:href="#DejaVuSans-6e" x="268.457031"/>
      <use xlink:href="#DejaVuSans-73" x="331.835938"/>
      <use xlink:href="#DejaVuSans-20" x="383.935547"/>
      <use xlink:href="#DejaVuSans-28" x="415.722656"/>
      <use xlink:href="#DejaVuSans-25" x="454.736328"/>
      <use xlink:href="#DejaVuSans-29" x="549.755859"/>
     </g>
    </g>
   </g>
   <g id="line2d_25">
    <path d="M 87.49 279.964296 
L 109.107453 279.964296 
L 109.486707 271.100854 
L 110.624468 280.009633 
L 111.003721 281.614574 
L 111.382975 297.333015 
L 111.762228 301.077876 
L 112.141482 303.394612 
L 113.658496 286.066697 
L 114.03775 278.586042 
L 114.417003 279.696806 
L 114.796257 274.48755 
L 115.934018 278.404693 
L 116.313271 278.227878 
L 117.071778 283.93131 
L 117.451032 300.855724 
L 118.588793 300.497559 
L 118.968046 292.613403 
L 119.3473 301.65366 
L 119.726553 298.538988 
L 120.105807 287.181994 
L 121.243568 283.174177 
L 121.622821 278.71752 
L 122.002075 276.935765 
L 122.381328 279.878155 
L 122.760582 270.701886 
L 123.898342 272.569783 
L 124.277596 280.277124 
L 124.65685 273.553602 
L 125.036103 284.108125 
L 125.415357 287.848452 
L 126.553117 290.029177 
L 126.932371 296.267589 
L 127.311625 320.09234 
L 127.690878 324.104691 
L 129.207892 325.260792 
L 129.587146 313.23734 
L 129.9664 318.578074 
L 130.345653 310.784592 
L 130.724907 310.072796 
L 131.862667 307.533908 
L 132.241921 307.533908 
L 132.621175 312.323831 
L 134.896696 312.323831 
L 135.27595 315.287225 
L 138.689232 315.287225 
L 139.826992 321.498833 
L 140.206246 321.498833 
L 140.585499 318.415927 
L 140.964753 318.415927 
L 141.344007 317.110105 
L 143.240274 317.110105 
L 143.619528 314.244947 
L 146.274303 314.244947 
L 146.653557 305.308706 
L 149.308332 305.308706 
L 150.446092 295.489522 
L 151.204599 278.381049 
L 151.963106 269.021846 
L 153.100867 279.488758 
L 153.480121 274.879562 
L 153.859374 278.057185 
L 154.238628 272.894134 
L 154.617881 264.778757 
L 156.134896 259.061852 
L 156.514149 255.142627 
L 158.410417 273.217998 
L 158.789671 264.595703 
L 159.168924 266.900302 
L 159.927431 283.501857 
L 161.065192 278.014942 
L 161.444446 282.441084 
L 161.823699 280.873394 
L 162.202953 276.813359 
L 162.582206 284.468755 
L 163.719967 282.671075 
L 164.099221 280.08955 
L 164.478474 278.98184 
L 164.857728 285.158727 
L 165.236981 280.962574 
L 166.374742 281.150322 
L 166.753996 275.752587 
L 167.133249 277.780258 
L 167.512503 274.414887 
L 167.891756 278.84103 
L 169.029517 295.118721 
L 169.408771 287.557198 
L 169.788024 286.867227 
L 170.167278 278.151059 
L 170.546531 281.009511 
L 171.684292 285.158727 
L 172.063546 279.995676 
L 172.442799 290.598705 
L 172.822053 290.326471 
L 173.201306 280.685647 
L 174.339067 274.879562 
L 174.718321 282.394148 
L 175.097574 277.231097 
L 175.476828 279.347948 
L 175.856081 293.321041 
L 176.993842 290.002607 
L 177.373095 292.490259 
L 177.752349 291.429487 
L 178.131603 287.970243 
L 178.510856 292.030278 
L 180.02787 299.732611 
L 180.407124 298.807955 
L 180.786378 295.029541 
L 181.165631 296.916401 
L 182.303392 296.916401 
L 182.682645 295.144708 
L 185.716674 295.144708 
L 186.095928 293.069076 
L 187.612942 293.069076 
L 187.992195 300.142844 
L 190.64697 300.142844 
L 191.026224 306.647449 
L 193.301745 306.647449 
L 193.680999 302.330195 
L 196.335774 302.330195 
L 196.715027 299.275344 
L 198.611295 299.275344 
L 199.369802 294.734944 
L 199.749056 295.871198 
L 201.26607 284.799642 
L 201.645324 286.568689 
L 202.024577 285.843519 
L 202.403831 270.462508 
L 203.541592 271.321628 
L 203.920845 273.136864 
L 204.300099 276.448631 
L 204.679352 276.633388 
L 205.058606 262.702719 
L 206.196367 265.243126 
L 206.57562 261.206188 
L 206.954874 261.658843 
L 207.334127 262.337824 
L 207.713381 251.451025 
L 208.851142 252.993745 
L 209.230395 244.508785 
L 209.988902 238.471854 
L 210.368156 235.294035 
L 211.505917 222.180916 
L 211.88517 225.538872 
L 212.264424 218.689011 
L 213.022931 218.277927 
L 214.160692 223.723636 
L 214.539945 222.361054 
L 214.919199 222.180916 
L 215.298452 224.993839 
L 215.677706 218.642821 
L 216.815467 226.947643 
L 217.19472 224.587374 
L 217.573974 229.349483 
L 217.953227 227.899141 
L 218.332481 221.954589 
L 219.470241 214.739832 
L 219.849495 218.370305 
L 220.228749 220.31949 
L 220.608002 217.825272 
L 220.987256 211.926909 
L 222.50427 209.095509 
L 223.262777 218.425732 
L 223.642031 220.74905 
L 224.779791 226.393373 
L 225.159045 224.712085 
L 225.917552 223.802157 
L 226.296806 231.173957 
L 227.434566 225.303307 
L 227.81382 224.712085 
L 228.193074 221.525029 
L 228.572327 212.416514 
L 228.951581 214.421127 
L 230.089341 227.441868 
L 230.468595 218.425732 
L 230.847849 220.702861 
L 231.227102 219.294089 
L 231.606356 220.337966 
L 233.12337 226.624319 
L 233.502623 224.665896 
L 233.881877 230.083891 
L 234.261131 241.372537 
L 235.398891 246.836722 
L 235.778145 239.367925 
L 236.157398 238.730514 
L 236.915906 256.716596 
L 238.053666 250.707378 
L 238.812173 221.386461 
L 239.191427 216.970772 
L 239.570681 220.250206 
L 240.708441 215.788328 
L 241.846202 215.788328 
L 242.225456 212.401069 
L 243.74247 211.45227 
L 244.121723 205.580717 
L 244.500977 207.340808 
L 244.880231 205.489045 
L 246.017991 219.858538 
L 246.397245 239.732898 
L 246.776498 235.12641 
L 247.155752 256.224584 
L 247.535005 252.699819 
L 248.672766 233.861345 
L 249.05202 249.491319 
L 249.431273 221.934895 
L 249.810527 221.934895 
L 250.18978 222.260199 
L 252.086048 222.260199 
L 252.465302 269.73944 
L 253.982316 269.73944 
L 254.36157 231.641098 
L 255.49933 231.641098 
L 256.637091 244.255199 
L 260.050373 244.255199 
L 260.429627 220.13092 
L 297.97573 220.13092 
L 299.113491 223.724883 
L 299.492744 207.88583 
L 299.871998 198.590429 
L 300.251251 201.881661 
L 300.630505 187.152622 
L 301.768266 182.219656 
L 302.147519 194.422053 
L 302.526773 194.499676 
L 303.28528 222.040455 
L 304.423041 204.978834 
L 304.802294 210.490095 
L 305.181548 217.794456 
L 305.560801 216.839688 
L 305.940055 228.851908 
L 307.077816 212.900301 
L 307.457069 220.934322 
L 308.215576 229.806676 
L 308.59483 231.642469 
L 309.732591 241.360917 
L 310.111844 250.924119 
L 310.491098 239.563936 
L 310.870351 240.479892 
L 311.249605 241.857707 
L 312.387366 231.758904 
L 312.766619 234.856077 
L 313.145873 252.950089 
L 313.525126 256.625557 
L 315.042141 264.387896 
L 315.421394 254.250281 
L 315.800648 252.263122 
L 316.179901 252.375676 
L 316.559155 253.602126 
L 317.696915 245.68454 
L 318.076169 255.554354 
L 318.455423 242.967721 
L 318.834676 263.204139 
L 319.21393 267.411327 
L 321.489451 267.411327 
L 321.868705 260.778265 
L 329.074523 260.778265 
L 329.453776 257.270796 
L 329.83303 269.457003 
L 330.97079 248.037458 
L 331.350044 255.423379 
L 331.729297 242.607626 
L 332.108551 245.672914 
L 332.487805 242.53268 
L 334.004819 235.626414 
L 334.384072 243.788025 
L 334.763326 258.338775 
L 335.14258 256.824868 
L 336.28034 267.351023 
L 336.659594 267.684532 
L 337.038847 277.547415 
L 337.418101 272.042637 
L 337.797355 272.484818 
L 338.935115 281.054885 
L 339.314369 270.641149 
L 339.693622 288.07357 
L 340.072876 282.718684 
L 340.45213 296.9022 
L 341.58989 295.496964 
L 341.969144 286.964371 
L 342.348397 253.392345 
L 342.727651 253.171254 
L 343.106905 266.316769 
L 344.244665 272.451093 
L 344.623919 277.472469 
L 345.003172 268.314078 
L 345.382426 269.014822 
L 345.761679 258.597339 
L 346.89944 262.625682 
L 347.278694 270.011603 
L 347.657947 282.164084 
L 348.037201 281.275975 
L 348.416454 276.36327 
L 349.554215 273.556545 
L 349.933469 278.506723 
L 350.312722 272.230002 
L 351.071229 249.918601 
L 352.20899 234.959395 
L 352.588244 237.990957 
L 352.967497 236.585721 
L 353.346751 228.274219 
L 355.622272 228.274219 
L 356.001526 224.5194 
L 356.380779 222.736238 
L 357.51854 210.141009 
L 357.897794 209.469967 
L 358.277047 214.932549 
L 358.656301 201.112103 
L 359.035554 202.559743 
L 360.173315 203.015901 
L 360.552569 209.650922 
L 360.931822 207.453071 
L 361.311076 211.701746 
L 362.82809 225.126354 
L 363.207344 226.317641 
L 363.586597 226.242243 
L 365.482865 228.59466 
L 365.862119 226.430738 
L 366.241372 219.682621 
L 366.620626 204.320286 
L 366.999879 204.655807 
L 368.516894 195.223522 
L 368.896147 195.521344 
L 371.171668 195.521344 
L 371.550922 188.387256 
L 371.930176 189.86654 
L 372.309429 184.605242 
L 373.44719 174.009773 
L 373.826443 186.765872 
L 374.205697 206.623267 
L 374.584951 200.134089 
L 374.964204 184.568806 
L 376.101965 178.586083 
L 376.481218 179.161765 
L 376.860472 182.838116 
L 377.239726 175.379751 
L 377.618979 164.277828 
L 381.790768 164.277828 
L 382.170022 157.351355 
L 382.549276 174.324696 
L 382.928529 174.467699 
L 384.06629 189.336331 
L 384.824797 195.067446 
L 385.20405 211.967451 
L 385.583304 210.262417 
L 386.721065 203.119607 
L 387.100318 215.120848 
L 387.479572 237.931639 
L 387.858825 252.220926 
L 388.238079 233.546218 
L 389.37584 252.077923 
L 389.755093 236.846284 
L 390.134347 240.762363 
L 390.5136 225.673727 
L 390.892854 228.321113 
L 392.030615 214.361833 
L 392.789122 209.103727 
L 393.168375 220.488956 
L 393.547629 211.531109 
L 394.68539 201.231236 
L 395.443897 238.877658 
L 395.82315 239.710008 
L 396.202404 233.509551 
L 397.340165 237.135957 
L 397.719418 240.289353 
L 398.098672 223.17301 
L 398.477925 217.372227 
L 399.99494 215.084181 
L 400.374193 210.262417 
L 400.753447 222.593665 
L 401.1327 220.525623 
L 402.649715 220.525623 
L 403.028968 208.692292 
L 403.408222 208.692292 
L 403.787475 197.249749 
L 408.717772 197.249749 
L 409.097025 203.60891 
L 409.476279 199.871137 
L 410.61404 204.029321 
L 410.993293 226.600807 
L 411.7518 238.375853 
L 412.131054 232.295789 
L 413.268814 242.290269 
L 413.648068 244.318135 
L 414.027322 252.28475 
L 414.406575 252.45786 
L 414.785829 238.552496 
L 415.923589 237.224138 
L 416.302843 234.323654 
L 416.682097 236.803727 
L 417.06135 219.510344 
L 417.440604 224.505817 
L 418.578364 223.841638 
L 418.957618 225.622203 
L 419.336872 224.399831 
L 419.716125 222.34017 
L 420.095379 216.012805 
L 421.612393 221.849102 
L 421.991647 216.539203 
L 422.3709 216.012805 
L 422.750154 204.972596 
L 423.887914 181.31652 
L 424.267168 183.167742 
L 425.025675 157.55799 
L 425.404929 165.174851 
L 426.542689 168.004678 
L 428.059704 168.004678 
L 429.197464 162.237328 
L 429.576718 153.870711 
L 429.955971 154.687932 
L 430.335225 152.30467 
L 430.714479 147.246539 
L 431.852239 144.542869 
L 432.231493 140.73037 
L 432.610746 141.371187 
L 432.99 137.742293 
L 433.369254 136.637064 
L 434.886268 144.222461 
L 435.265521 154.263121 
L 435.644775 152.340671 
L 436.024029 146.569722 
L 437.161789 151.163441 
L 437.920296 164.23178 
L 438.29955 160.527284 
L 438.678804 150.594626 
L 439.816564 143.866052 
L 440.195818 137.101476 
L 440.575071 133.78939 
L 441.333578 118.33419 
L 442.850593 140.910375 
L 443.229846 119.547421 
L 443.6091 124.565951 
L 443.988353 122.431096 
L 445.126114 120.472645 
L 445.505368 105.481857 
L 445.884621 84.615716 
L 446.263875 80.486408 
L 446.643128 96.402421 
L 447.780889 73.433826 
L 451.194171 73.433826 
L 451.573425 91.828526 
L 451.952678 81.627999 
L 453.090439 59.040582 
L 453.469693 59.96688 
L 453.848946 54.255334 
L 454.2282 60.229393 
L 454.607453 62.156993 
L 456.124468 57.818019 
L 456.882975 43.649786 
L 457.262228 43.387273 
L 458.779243 44.242317 
L 459.158496 53.884065 
L 459.53775 50.842658 
L 461.054764 72.466276 
L 461.434018 72.207512 
L 461.813271 60.93443 
L 462.571778 51.176425 
L 463.709539 66.683477 
L 464.088793 58.781818 
L 464.468046 58.594309 
L 464.8473 48.581291 
L 465.226553 63.417058 
L 466.364314 86.266989 
L 466.743568 112.60085 
L 467.122821 112.045821 
L 467.502075 109.671948 
L 467.881328 130.144257 
L 469.019089 146.686361 
L 469.398342 144.053725 
L 469.777596 152.139143 
L 470.15685 141.162326 
L 470.536103 147.837671 
L 471.673864 149.097736 
L 472.053117 148.542707 
L 475.845653 148.542707 
L 476.983414 134.914722 
L 477.362667 134.914722 
L 477.741921 146.496109 
L 480.77595 146.496109 
L 481.155203 171.368831 
L 482.292964 166.586873 
L 482.672217 172.626093 
L 483.051471 180.569376 
L 483.430724 180.674753 
L 483.809978 176.506892 
L 484.947739 174.99527 
L 494.049824 174.99527 
L 494.429078 185.411106 
L 495.566839 177.145446 
L 500.876389 177.145446 
L 501.255642 180.589143 
L 501.634896 180.589143 
L 502.014149 177.363385 
L 502.393403 177.363385 
L 503.531164 187.63188 
L 503.910417 201.967791 
L 504.289671 227.041094 
L 504.668924 226.572196 
L 505.048178 231.075795 
L 506.185939 216.558141 
L 506.565192 210.073541 
L 506.944446 210.073541 
L 507.323699 229.414374 
L 510.357728 229.414374 
L 511.495488 225.231532 
L 513.012503 225.231532 
L 514.150263 208.816097 
L 515.288024 208.816097 
L 515.667278 208.656214 
L 517.942799 208.656214 
L 518.322053 217.273873 
L 520.597574 217.273873 
L 520.976828 223.023822 
L 522.493842 226.49549 
L 522.873095 236.213655 
L 523.252349 218.350423 
L 523.631603 208.381897 
L 525.148617 208.381897 
L 525.52787 204.915275 
L 525.907124 204.915275 
L 526.286378 213.462735 
L 528.941153 213.462735 
L 530.078913 212.326674 
L 530.83742 212.326674 
L 531.216674 200.5833 
L 534.250703 200.5833 
L 535.388463 192.968057 
L 535.767717 174.625472 
L 536.526224 188.205919 
L 536.905477 172.474156 
L 538.043238 166.680222 
L 538.422492 177.566301 
L 538.801745 180.214718 
L 539.180999 169.616873 
L 539.560252 168.543304 
L 540.698013 182.286666 
L 541.077267 188.373012 
L 541.45652 170.569301 
L 541.835774 178.393409 
L 543.352788 196.443582 
L 543.732042 191.146748 
L 544.111295 188.870112 
L 544.869802 220.621874 
L 546.007563 215.283267 
L 546.386817 238.713819 
L 546.76607 238.342038 
L 547.145324 240.702221 
L 547.524577 253.409609 
L 548.662338 244.553704 
L 549.041592 240.660448 
L 549.420845 225.5887 
L 550.179352 269.14555 
L 552.07562 269.14555 
L 552.454874 251.065776 
L 554.730395 251.065776 
L 555.109649 241.552836 
L 557.005917 241.552836 
L 557.38517 238.987171 
L 559.660692 238.987171 
L 560.039945 246.407699 
L 563.073974 246.407699 
L 563.453227 265.350691 
L 564.590988 290.473666 
L 564.970241 287.682706 
L 565.349495 275.444086 
L 565.728749 289.442225 
L 566.108002 271.790702 
L 577.864863 271.790702 
L 578.244116 255.341815 
L 578.62337 254.272617 
L 579.002623 248.894713 
L 579.381877 260.205068 
L 580.519638 257.950976 
L 580.898891 256.686291 
L 581.278145 251.583665 
L 581.657398 248.619434 
L 582.036652 249.369469 
L 583.174413 256.211535 
L 583.553666 255.497407 
L 583.93292 230.036142 
L 584.312173 221.574321 
L 584.691427 222.603623 
L 585.829188 221.05967 
L 586.208441 234.819604 
L 586.587695 219.794985 
L 587.346202 219.794985 
L 588.483963 207.716926 
L 588.863216 217.204818 
L 589.24247 230.63829 
L 589.621723 239.567124 
L 590.000977 244.671038 
L 591.517991 259.299043 
L 591.897245 253.040815 
L 592.276498 249.095236 
L 592.655752 269.70395 
L 593.793513 273.52887 
L 594.172766 277.116491 
L 594.55202 277.595109 
L 594.931273 269.860808 
L 595.310527 280.064615 
L 596.827541 286.841681 
L 597.586048 252.763297 
L 597.965302 243.754023 
L 599.103063 247.100325 
L 599.482316 275.559978 
L 599.86157 274.405665 
L 600.240823 271.135781 
L 600.620077 273.32777 
L 601.757838 281.102291 
L 602.137091 285.526488 
L 602.516345 296.888631 
L 604.412613 296.888631 
L 604.791866 292.360266 
L 605.17112 292.360266 
L 605.550373 301.197753 
L 607.067387 301.197753 
L 607.446641 285.159271 
L 608.205148 285.159271 
L 608.584402 301.233247 
L 610.859923 301.233247 
L 611.239177 307.304067 
L 612.376937 295.235201 
L 612.756191 295.005391 
L 613.135445 313.531923 
L 613.514698 318.580088 
L 613.893952 303.129181 
L 615.031712 293.335436 
L 615.79022 272.154595 
L 616.169473 282.821619 
L 626.409319 282.821619 
L 627.167827 282.194832 
L 628.305587 286.068236 
L 628.684841 288.335938 
L 629.064094 272.631046 
L 629.443348 268.130855 
L 629.822602 265.757515 
L 630.960362 278.529184 
L 631.339616 285.927385 
L 631.718869 281.670162 
L 632.098123 273.257833 
L 632.477377 285.230172 
L 633.615137 284.635077 
L 633.994391 273.99378 
L 634.373644 272.141589 
L 634.752898 281.039854 
L 635.132151 286.518959 
L 636.269912 297.075745 
L 636.649166 291.431139 
L 637.028419 283.578694 
L 637.407673 283.613906 
L 637.786926 290.976895 
L 639.303941 302.160468 
L 639.683194 308.083254 
L 640.062448 297.639149 
L 640.441701 299.459649 
L 641.958716 303.421085 
L 642.337969 294.762267 
L 642.717223 297.287022 
L 643.096476 289.36415 
L 644.234237 293.50165 
L 644.613491 281.124364 
L 644.992744 273.131067 
L 645.371998 274.638174 
L 645.751251 269.556972 
L 647.268266 270.398557 
L 647.647519 273.060642 
L 648.026773 277.758024 
L 648.406026 272.289483 
L 649.543787 265.243409 
L 649.923041 268.292834 
L 650.302294 269.764728 
L 650.681548 266.891366 
L 651.060801 266.750515 
L 652.198562 277.444631 
L 652.577816 271.412685 
L 652.957069 271.064078 
L 653.336323 269.099206 
L 653.715576 272.919791 
L 654.853337 277.374205 
L 655.232591 273.447982 
L 655.611844 284.173789 
L 655.991098 289.188087 
L 656.370351 288.97681 
L 657.508112 279.233439 
L 657.887366 281.335641 
L 658.266619 281.825098 
L 658.645873 287.504917 
L 659.025126 286.980246 
L 660.921394 303.843638 
L 661.300648 305.245106 
L 661.679901 315.516668 
L 662.817662 312.012998 
L 663.196915 311.555232 
L 663.576169 306.681786 
L 669.644226 306.681786 
L 670.781987 299.927709 
L 674.574523 299.927709 
L 674.953776 292.194927 
L 676.091537 292.402306 
L 676.47079 293.207218 
L 676.850044 290.163314 
L 677.229297 281.449874 
L 678.746312 285.68533 
L 679.125565 283.446338 
L 679.504819 283.794313 
L 679.884072 273.717091 
L 680.263326 278.405969 
L 681.401087 280.398918 
L 681.78034 284.810119 
L 682.159594 283.688866 
L 682.538847 288.553489 
L 682.918101 284.564076 
L 684.055862 284.493778 
L 684.435115 297.966394 
L 684.814369 307.277367 
L 685.193622 305.77299 
L 685.572876 300.451429 
L 686.710637 297.056035 
L 687.469144 296.949284 
L 687.848397 297.515064 
L 688.227651 290.430356 
L 689.365412 296.312336 
L 689.744665 297.550648 
L 690.123919 293.938906 
L 690.503172 294.963715 
L 690.882426 296.490255 
L 692.020187 287.950175 
L 692.39944 299.536216 
L 692.778694 298.365514 
L 693.157947 299.393882 
L 693.537201 293.369567 
L 695.054215 289.330821 
L 695.812722 308.606493 
L 696.191976 307.222288 
L 698.088244 311.652455 
L 698.467497 309.666886 
L 698.846751 299.393882 
L 699.984512 298.685767 
L 700.363765 300.42225 
L 700.743019 301.589394 
L 703.397794 301.589394 
L 703.777047 293.610568 
L 711.741372 293.610568 
L 712.120626 299.66454 
L 713.258386 299.66454 
L 713.63764 301.173013 
L 718.567936 301.173013 
L 718.94719 300.133147 
L 719.326443 301.795541 
L 719.705697 304.946437 
L 720.084951 297.570001 
L 721.222711 302.76585 
L 721.981218 313.289705 
L 722.360472 312.562843 
L 722.739726 307.544362 
L 723.877486 308.479893 
L 724.25674 303.075375 
L 724.635993 299.889701 
L 725.394501 298.888091 
L 726.911515 297.500445 
L 727.290768 305.603744 
L 727.670022 307.161803 
L 728.049276 309.446725 
L 729.187036 301.138235 
L 729.56629 300.755676 
L 729.945543 296.704026 
L 730.324797 302.661516 
L 730.70405 298.714201 
L 731.841811 296.081498 
L 732.221065 289.261511 
L 732.600318 287.390449 
L 732.979572 292.96538 
L 733.358825 288.465092 
L 734.87584 297.434366 
L 735.255093 302.59196 
L 735.634347 304.289131 
L 736.0136 305.050772 
L 737.151361 299.336729 
L 737.530615 301.44776 
L 737.909868 302.038988 
L 738.289122 301.312125 
L 738.668375 304.633434 
L 739.806136 308.789418 
L 740.18539 305.363775 
L 740.564643 310.138809 
L 740.943897 319.108083 
L 741.32315 320.387917 
L 742.460911 322.050311 
L 742.840165 322.015532 
L 743.219418 319.142861 
L 743.977925 320.252282 
L 745.115686 324.822126 
L 745.49494 331.367365 
L 748.908222 331.367365 
L 749.287475 330.082442 
L 750.80449 330.082442 
L 751.562997 350.06515 
L 751.94225 351.589197 
L 753.080011 353.722183 
L 753.459265 348.813254 
L 753.838518 359.753736 
L 754.217772 360.19258 
L 759.148068 360.19258 
L 759.527322 373.532727 
L 762.182097 373.532727 
L 762.56135 371.414195 
L 763.699111 366.91518 
L 764.078364 370.50064 
L 764.457618 367.795991 
L 765.216125 365.906667 
L 766.353886 370.405682 
L 766.733139 372.750147 
L 767.8709 358.572027 
L 769.008661 357.2328 
L 770.525675 357.2328 
L 771.663436 351.52477 
L 772.042689 347.150361 
L 772.421943 328.197866 
L 772.801196 323.630131 
L 773.18045 329.633065 
L 774.318211 332.211836 
L 774.697464 324.511566 
L 775.076718 340.207011 
L 775.835225 324.118361 
L 777.352239 320.972718 
L 777.731493 314.746968 
L 778.110746 314.255461 
L 778.49 317.827076 
L 778.49 317.827076 
" clip-path="url(#p31d3b2667e)" style="fill: none; stroke: #d62728; stroke-width: 1.5; stroke-linecap: square"/>
   </g>
   <g id="patch_3">
    <path d="M 52.94 390.04 
L 52.94 26.88 
" style="fill: none; stroke: #000000; stroke-width: 0.8; stroke-linejoin: miter; stroke-linecap: square"/>
   </g>
   <g id="patch_4">
    <path d="M 813.04 390.04 
L 813.04 26.88 
" style="fill: none; stroke: #000000; stroke-width: 0.8; stroke-linejoin: miter; stroke-linecap: square"/>
   </g>
   <g id="patch_5">
    <path d="M 52.94 390.04 
L 813.04 390.04 
" style="fill: none; stroke: #000000; stroke-width: 0.8; stroke-linejoin: miter; stroke-linecap: square"/>
   </g>
   <g id="patch_6">
    <path d="M 52.94 26.88 
L 813.04 26.88 
" style="fill: none; stroke: #000000; stroke-width: 0.8; stroke-linejoin: miter; stroke-linecap: square"/>
   </g>
  </g>
  <g id="axes_2">
   <g id="matplotlib.axis_3">
    <g id="ytick_7">
     <g id="line2d_26">
      <defs>
       <path id="md0f5e90c46" d="M 0 0 
L 3.5 0 
" style="stroke: #000000; stroke-width: 0.8"/>
      </defs>
      <g>
       <use xlink:href="#md0f5e90c46" x="813.04" y="340.838829" style="stroke: #000000; stroke-width: 0.8"/>
      </g>
     </g>
     <g id="text_15">
      <!-- 120 -->
      <g style="fill: #1f77b4" transform="translate(820.04 344.638048) scale(0.1 -0.1)">
       <use xlink:href="#DejaVuSans-31"/>
       <use xlink:href="#DejaVuSans-32" x="63.623047"/>
       <use xlink:href="#DejaVuSans-30" x="127.246094"/>
      </g>
     </g>
    </g>
    <g id="ytick_8">
     <g id="line2d_27">
      <g>
       <use xlink:href="#md0f5e90c46" x="813.04" y="280.339387" style="stroke: #000000; stroke-width: 0.8"/>
      </g>
     </g>
     <g id="text_16">
      <!-- 140 -->
      <g style="fill: #1f77b4" transform="translate(820.04 284.138606) scale(0.1 -0.1)">
       <use xlink:href="#DejaVuSans-31"/>
       <use xlink:href="#DejaVuSans-34" x="63.623047"/>
       <use xlink:href="#DejaVuSans-30" x="127.246094"/>
      </g>
     </g>
    </g>
    <g id="ytick_9">
     <g id="line2d_28">
      <g>
       <use xlink:href="#md0f5e90c46" x="813.04" y="219.839945" style="stroke: #000000; stroke-width: 0.8"/>
      </g>
     </g>
     <g id="text_17">
      <!-- 160 -->
      <g style="fill: #1f77b4" transform="translate(820.04 223.639164) scale(0.1 -0.1)">
       <defs>
        <path id="DejaVuSans-36" d="M 2113 2584 
Q 1688 2584 1439 2293 
Q 1191 2003 1191 1497 
Q 1191 994 1439 701 
Q 1688 409 2113 409 
Q 2538 409 2786 701 
Q 3034 994 3034 1497 
Q 3034 2003 2786 2293 
Q 2538 2584 2113 2584 
z
M 3366 4563 
L 3366 3988 
Q 3128 4100 2886 4159 
Q 2644 4219 2406 4219 
Q 1781 4219 1451 3797 
Q 1122 3375 1075 2522 
Q 1259 2794 1537 2939 
Q 1816 3084 2150 3084 
Q 2853 3084 3261 2657 
Q 3669 2231 3669 1497 
Q 3669 778 3244 343 
Q 2819 -91 2113 -91 
Q 1303 -91 875 529 
Q 447 1150 447 2328 
Q 447 3434 972 4092 
Q 1497 4750 2381 4750 
Q 2619 4750 2861 4703 
Q 3103 4656 3366 4563 
z
" transform="scale(0.015625)"/>
       </defs>
       <use xlink:href="#DejaVuSans-31"/>
       <use xlink:href="#DejaVuSans-36" x="63.623047"/>
       <use xlink:href="#DejaVuSans-30" x="127.246094"/>
      </g>
     </g>
    </g>
    <g id="ytick_10">
     <g id="line2d_29">
      <g>
       <use xlink:href="#md0f5e90c46" x="813.04" y="159.340503" style="stroke: #000000; stroke-width: 0.8"/>
      </g>
     </g>
     <g id="text_18">
      <!-- 180 -->
      <g style="fill: #1f77b4" transform="translate(820.04 163.139722) scale(0.1 -0.1)">
       <defs>
        <path id="DejaVuSans-38" d="M 2034 2216 
Q 1584 2216 1326 1975 
Q 1069 1734 1069 1313 
Q 1069 891 1326 650 
Q 1584 409 2034 409 
Q 2484 409 2743 651 
Q 3003 894 3003 1313 
Q 3003 1734 2745 1975 
Q 2488 2216 2034 2216 
z
M 1403 2484 
Q 997 2584 770 2862 
Q 544 3141 544 3541 
Q 544 4100 942 4425 
Q 1341 4750 2034 4750 
Q 2731 4750 3128 4425 
Q 3525 4100 3525 3541 
Q 3525 3141 3298 2862 
Q 3072 2584 2669 2484 
Q 3125 2378 3379 2068 
Q 3634 1759 3634 1313 
Q 3634 634 3220 271 
Q 2806 -91 2034 -91 
Q 1263 -91 848 271 
Q 434 634 434 1313 
Q 434 1759 690 2068 
Q 947 2378 1403 2484 
z
M 1172 3481 
Q 1172 3119 1398 2916 
Q 1625 2713 2034 2713 
Q 2441 2713 2670 2916 
Q 2900 3119 2900 3481 
Q 2900 3844 2670 4047 
Q 2441 4250 2034 4250 
Q 1625 4250 1398 4047 
Q 1172 3844 1172 3481 
z
" transform="scale(0.015625)"/>
       </defs>
       <use xlink:href="#DejaVuSans-31"/>
       <use xlink:href="#DejaVuSans-38" x="63.623047"/>
       <use xlink:href="#DejaVuSans-30" x="127.246094"/>
      </g>
     </g>
    </g>
    <g id="ytick_11">
     <g id="line2d_30">
      <g>
       <use xlink:href="#md0f5e90c46" x="813.04" y="98.841061" style="stroke: #000000; stroke-width: 0.8"/>
      </g>
     </g>
     <g id="text_19">
      <!-- 200 -->
      <g style="fill: #1f77b4" transform="translate(820.04 102.64028) scale(0.1 -0.1)">
       <use xlink:href="#DejaVuSans-32"/>
       <use xlink:href="#DejaVuSans-30" x="63.623047"/>
       <use xlink:href="#DejaVuSans-30" x="127.246094"/>
      </g>
     </g>
    </g>
    <g id="ytick_12">
     <g id="line2d_31">
      <g>
       <use xlink:href="#md0f5e90c46" x="813.04" y="38.341619" style="stroke: #000000; stroke-width: 0.8"/>
      </g>
     </g>
     <g id="text_20">
      <!-- 220 -->
      <g style="fill: #1f77b4" transform="translate(820.04 42.140838) scale(0.1 -0.1)">
       <use xlink:href="#DejaVuSans-32"/>
       <use xlink:href="#DejaVuSans-32" x="63.623047"/>
       <use xlink:href="#DejaVuSans-30" x="127.246094"/>
      </g>
     </g>
    </g>
    <g id="text_21">
     <!-- Close Price -->
     <g style="fill: #1f77b4" transform="translate(850.725937 235.867812) rotate(-90) scale(0.1 -0.1)">
      <defs>
       <path id="DejaVuSans-43" d="M 4122 4306 
L 4122 3641 
Q 3803 3938 3442 4084 
Q 3081 4231 2675 4231 
Q 1875 4231 1450 3742 
Q 1025 3253 1025 2328 
Q 1025 1406 1450 917 
Q 1875 428 2675 428 
Q 3081 428 3442 575 
Q 3803 722 4122 1019 
L 4122 359 
Q 3791 134 3420 21 
Q 3050 -91 2638 -91 
Q 1578 -91 968 557 
Q 359 1206 359 2328 
Q 359 3453 968 4101 
Q 1578 4750 2638 4750 
Q 3056 4750 3426 4639 
Q 3797 4528 4122 4306 
z
" transform="scale(0.015625)"/>
       <path id="DejaVuSans-6c" d="M 603 4863 
L 1178 4863 
L 1178 0 
L 603 0 
L 603 4863 
z
" transform="scale(0.015625)"/>
       <path id="DejaVuSans-6f" d="M 1959 3097 
Q 1497 3097 1228 2736 
Q 959 2375 959 1747 
Q 959 1119 1226 758 
Q 1494 397 1959 397 
Q 2419 397 2687 759 
Q 2956 1122 2956 1747 
Q 2956 2369 2687 2733 
Q 2419 3097 1959 3097 
z
M 1959 3584 
Q 2709 3584 3137 3096 
Q 3566 2609 3566 1747 
Q 3566 888 3137 398 
Q 2709 -91 1959 -91 
Q 1206 -91 779 398 
Q 353 888 353 1747 
Q 353 2609 779 3096 
Q 1206 3584 1959 3584 
z
" transform="scale(0.015625)"/>
       <path id="DejaVuSans-50" d="M 1259 4147 
L 1259 2394 
L 2053 2394 
Q 2494 2394 2734 2622 
Q 2975 2850 2975 3272 
Q 2975 3691 2734 3919 
Q 2494 4147 2053 4147 
L 1259 4147 
z
M 628 4666 
L 2053 4666 
Q 2838 4666 3239 4311 
Q 3641 3956 3641 3272 
Q 3641 2581 3239 2228 
Q 2838 1875 2053 1875 
L 1259 1875 
L 1259 0 
L 628 0 
L 628 4666 
z
" transform="scale(0.015625)"/>
       <path id="DejaVuSans-69" d="M 603 3500 
L 1178 3500 
L 1178 0 
L 603 0 
L 603 3500 
z
M 603 4863 
L 1178 4863 
L 1178 4134 
L 603 4134 
L 603 4863 
z
" transform="scale(0.015625)"/>
       <path id="DejaVuSans-63" d="M 3122 3366 
L 3122 2828 
Q 2878 2963 2633 3030 
Q 2388 3097 2138 3097 
Q 1578 3097 1268 2742 
Q 959 2388 959 1747 
Q 959 1106 1268 751 
Q 1578 397 2138 397 
Q 2388 397 2633 464 
Q 2878 531 3122 666 
L 3122 134 
Q 2881 22 2623 -34 
Q 2366 -91 2075 -91 
Q 1284 -91 818 406 
Q 353 903 353 1747 
Q 353 2603 823 3093 
Q 1294 3584 2113 3584 
Q 2378 3584 2631 3529 
Q 2884 3475 3122 3366 
z
" transform="scale(0.015625)"/>
      </defs>
      <use xlink:href="#DejaVuSans-43"/>
      <use xlink:href="#DejaVuSans-6c" x="69.824219"/>
      <use xlink:href="#DejaVuSans-6f" x="97.607422"/>
      <use xlink:href="#DejaVuSans-73" x="158.789062"/>
      <use xlink:href="#DejaVuSans-65" x="210.888672"/>
      <use xlink:href="#DejaVuSans-20" x="272.412109"/>
      <use xlink:href="#DejaVuSans-50" x="304.199219"/>
      <use xlink:href="#DejaVuSans-72" x="362.751953"/>
      <use xlink:href="#DejaVuSans-69" x="403.865234"/>
      <use xlink:href="#DejaVuSans-63" x="431.648438"/>
      <use xlink:href="#DejaVuSans-65" x="486.628906"/>
     </g>
    </g>
   </g>
   <g id="line2d_32">
    <path d="M 87.49 373.532727 
L 87.869254 371.155099 
L 88.248507 354.780925 
L 89.386268 346.580226 
L 89.765521 341.498273 
L 90.144775 339.268868 
L 90.524029 334.574112 
L 90.903282 334.338164 
L 92.041043 339.507841 
L 92.420296 333.327823 
L 92.79955 334.068941 
L 93.558057 324.410205 
L 95.075071 330.593248 
L 95.833578 331.425116 
L 96.212832 326.312913 
L 97.350593 331.691313 
L 97.729846 332.762153 
L 98.1091 329.552658 
L 98.488353 324.144008 
L 98.867607 322.567997 
L 100.005368 324.736902 
L 100.384621 326.343163 
L 100.763875 327.20528 
L 101.143128 334.991558 
L 101.522382 335.109532 
L 102.660143 333.445797 
L 103.039396 328.630041 
L 103.797903 324.410205 
L 104.177157 319.863672 
L 106.073425 322.86747 
L 106.452678 329.313685 
L 106.831932 323.163917 
L 107.969693 318.46916 
L 108.348946 318.853332 
L 108.7282 311.750697 
L 109.107453 317.189597 
L 109.486707 311.275777 
L 110.624468 317.219847 
L 111.003721 318.290687 
L 111.382975 328.778265 
L 111.762228 331.276892 
L 112.141482 332.822653 
L 113.658496 321.261209 
L 114.03775 316.270005 
L 114.417003 317.011124 
L 114.796257 313.535431 
L 115.934018 316.149007 
L 116.313271 316.031033 
L 117.071778 319.836448 
L 117.451032 331.128668 
L 118.588793 330.889696 
L 118.968046 325.629269 
L 119.3473 331.661064 
L 119.726553 329.582908 
L 120.105807 322.005353 
L 121.243568 319.331277 
L 121.622821 316.35773 
L 122.002075 315.168916 
L 122.381328 317.132123 
L 122.760582 311.009579 
L 123.898342 312.255868 
L 124.277596 317.39832 
L 124.65685 312.912286 
L 125.036103 319.954422 
L 125.415357 322.450023 
L 126.553117 323.905035 
L 126.932371 328.067397 
L 127.311625 343.963625 
L 127.690878 346.640725 
L 129.207892 347.412093 
L 129.587146 339.389867 
L 129.9664 342.953284 
L 130.345653 337.753357 
L 130.724907 337.278437 
L 131.862667 335.584452 
L 132.241921 337.48716 
L 132.621175 340.666405 
L 133.000428 338.942171 
L 133.379682 332.822653 
L 134.517442 332.01801 
L 134.896696 341.915719 
L 135.27595 343.875901 
L 135.655203 342.83531 
L 136.034457 345.361162 
L 137.172217 357.158553 
L 138.309978 344.263097 
L 138.689232 347.115646 
L 139.826992 351.187258 
L 140.206246 345.926832 
L 140.585499 343.875901 
L 140.964753 346.610476 
L 141.344007 345.748359 
L 142.861021 349.224052 
L 143.240274 355.107622 
L 143.619528 353.265414 
L 143.998782 357.663724 
L 145.136542 355.555318 
L 145.515796 349.34505 
L 145.895049 347.856764 
L 146.274303 350.412866 
L 146.653557 344.620044 
L 147.791317 345.273438 
L 148.170571 346.283779 
L 148.549824 344.054374 
L 148.929078 342.569113 
L 149.308332 346.6982 
L 150.446092 340.369958 
L 151.204599 329.343935 
L 151.963106 323.312141 
L 153.100867 330.057828 
L 153.480121 327.087306 
L 153.859374 329.135212 
L 154.238628 325.807743 
L 154.617881 320.577566 
L 156.134896 316.89315 
L 156.514149 314.367298 
L 158.410417 326.016466 
L 158.789671 320.459592 
L 159.168924 321.944853 
L 159.927431 332.644179 
L 161.065192 329.107987 
L 161.444446 331.960536 
L 161.823699 330.950195 
L 162.202953 328.333594 
L 162.582206 333.267324 
L 163.719967 332.108759 
L 164.099221 330.445025 
L 164.478474 329.731131 
L 164.857728 333.711995 
L 165.236981 331.00767 
L 166.374742 331.128668 
L 166.753996 327.649951 
L 167.133249 328.956738 
L 167.512503 326.787833 
L 167.891756 329.640382 
L 169.029517 340.130985 
L 169.408771 335.257755 
L 169.788024 334.813084 
L 170.167278 329.195711 
L 170.546531 331.037919 
L 171.684292 333.711995 
L 172.063546 330.384525 
L 172.442799 337.217937 
L 172.822053 337.042489 
L 173.201306 330.829196 
L 174.339067 327.087306 
L 174.718321 331.930286 
L 175.097574 328.602817 
L 175.476828 329.967079 
L 175.856081 338.972421 
L 176.993842 336.833766 
L 177.373095 338.437001 
L 177.752349 337.753357 
L 178.131603 335.523953 
L 178.510856 338.140554 
L 180.02787 343.104533 
L 180.407124 342.508613 
L 180.786378 340.073511 
L 182.303392 344.589794 
L 182.682645 343.458455 
L 183.061899 340.905378 
L 183.441153 341.28955 
L 184.958167 340.369958 
L 185.33742 337.99233 
L 185.716674 340.309459 
L 186.095928 338.972421 
L 186.475181 336.237846 
L 187.612942 339.804288 
L 187.992195 344.350821 
L 188.371449 346.967422 
L 188.750703 351.870902 
L 189.129956 355.168122 
L 190.267717 353.235165 
L 191.026224 362.657953 
L 191.784731 352.524296 
L 192.922492 354.188031 
L 193.301745 361.438889 
L 193.680999 358.764814 
L 194.439506 351.57143 
L 195.577267 347.381844 
L 195.95652 343.488704 
L 196.335774 345.808858 
L 196.715027 343.845651 
L 197.094281 344.381071 
L 198.232042 342.181916 
L 198.611295 336.981989 
L 199.369802 334.008442 
L 199.749056 334.752585 
L 201.26607 327.501727 
L 201.645324 328.660291 
L 202.024577 328.185371 
L 202.403831 318.112214 
L 203.541592 318.674858 
L 203.920845 319.863672 
L 204.300099 322.032577 
L 204.679352 322.153576 
L 205.058606 313.03026 
L 206.196367 314.693995 
L 206.57562 312.050169 
L 206.954874 312.346617 
L 207.334127 312.791288 
L 207.713381 305.661428 
L 208.851142 306.671769 
L 209.230395 301.114895 
L 209.988902 297.161257 
L 210.368156 295.080076 
L 211.505917 286.49218 
L 211.88517 288.691335 
L 212.264424 284.205301 
L 213.022931 283.936079 
L 214.160692 287.502521 
L 214.539945 286.610154 
L 214.919199 286.49218 
L 215.298452 288.334388 
L 215.677706 284.175052 
L 216.815467 289.613951 
L 217.19472 288.068191 
L 217.573974 291.186937 
L 217.953227 290.237096 
L 218.332481 286.343957 
L 219.470241 281.61895 
L 219.849495 283.996578 
L 220.228749 285.273116 
L 220.608002 283.639631 
L 220.987256 279.776742 
L 222.50427 277.922434 
L 223.262777 284.032878 
L 223.642031 285.554439 
L 224.779791 289.250955 
L 225.159045 288.149865 
L 225.917552 287.553945 
L 226.296806 292.381801 
L 227.434566 288.537061 
L 227.81382 288.149865 
L 228.193074 286.062634 
L 228.572327 280.097389 
L 228.951581 281.410227 
L 230.089341 289.937623 
L 230.468595 284.032878 
L 230.847849 285.524189 
L 231.227102 284.601573 
L 231.606356 285.285216 
L 233.12337 289.402203 
L 233.502623 288.119615 
L 233.881877 291.667907 
L 234.261131 299.060939 
L 235.398891 302.639481 
L 235.778145 297.748101 
L 236.157398 297.330655 
L 236.915906 309.109897 
L 238.053666 305.174408 
L 238.812173 285.971885 
L 239.191427 283.080012 
L 239.570681 285.227742 
L 240.708441 282.305619 
L 241.087695 279.383496 
L 241.466948 277.356764 
L 241.846202 279.053774 
L 242.225456 276.818319 
L 243.74247 276.19215 
L 244.121723 272.317161 
L 244.500977 273.47875 
L 244.880231 272.256662 
L 246.017991 281.739949 
L 246.397245 294.856228 
L 246.776498 291.816131 
L 247.155752 305.740078 
L 247.535005 303.413874 
L 248.672766 290.981239 
L 249.05202 301.296394 
L 249.431273 283.110261 
L 249.810527 294.768504 
L 250.18978 294.977227 
L 251.327541 318.441935 
L 251.706795 309.049397 
L 252.086048 325.716993 
L 252.465302 353.891583 
L 252.844555 329.682732 
L 253.982316 362.35848 
L 254.36157 340.297359 
L 254.740823 347.808365 
L 255.120077 342.85951 
L 255.49933 355.143922 
L 256.637091 362.149757 
L 257.016345 344.441571 
L 257.395598 344.946741 
L 257.774852 327.952448 
L 258.154105 333.884418 
L 259.291866 320.169195 
L 259.67112 322.198951 
L 260.050373 332.840803 
L 260.429627 318.293712 
L 260.80888 321.24306 
L 261.946641 305.649328 
L 262.325895 311.227377 
L 262.705148 301.505117 
L 264.601416 297.630127 
L 264.98067 286.092884 
L 265.359923 291.577158 
L 265.739177 277.861935 
L 266.11843 258.362965 
L 267.256191 252.192022 
L 267.635445 265.550298 
L 268.014698 263.880514 
L 268.393952 265.132852 
L 268.773205 257.25885 
L 269.910966 253.114638 
L 270.29022 262.029231 
L 270.669473 259.793776 
L 271.048727 261.642034 
L 271.42798 269.812484 
L 272.565741 262.954872 
L 272.944995 257.050127 
L 273.324248 257.767045 
L 274.082755 248.761703 
L 275.220516 230.097625 
L 275.599769 239.968109 
L 275.979023 239.729137 
L 276.358277 242.681509 
L 276.73753 233.736667 
L 277.875291 225.923164 
L 278.254544 233.585418 
L 278.633798 227.296501 
L 279.013052 235.615175 
L 279.392305 232.097132 
L 280.909319 244.856464 
L 281.288573 242.65126 
L 281.667827 236.211094 
L 282.04708 224.074906 
L 283.564094 226.997029 
L 283.943348 229.858653 
L 284.322602 234.272087 
L 284.701855 235.911622 
L 285.839616 230.515072 
L 286.218869 233.854641 
L 286.598123 228.966286 
L 286.977377 245.990829 
L 287.35663 245.213411 
L 288.494391 238.268075 
L 288.873644 233.736667 
L 289.632151 228.309867 
L 290.011405 212.20794 
L 291.149166 213.877725 
L 291.528419 214.177197 
L 291.907673 221.839452 
L 292.286926 216.234178 
L 292.66618 223.68771 
L 293.803941 225.387744 
L 294.562448 212.864359 
L 294.941701 209.467316 
L 296.837969 205.023632 
L 297.217223 202.636929 
L 297.596476 201.057893 
L 297.97573 205.531827 
L 299.113491 208.332951 
L 299.492744 195.98804 
L 299.871998 188.743232 
L 300.251251 191.308408 
L 300.630505 179.828639 
L 301.768266 175.9839 
L 302.147519 185.494412 
L 302.526773 185.554911 
L 303.28528 207.020113 
L 304.423041 193.722336 
L 304.802294 198.017796 
L 305.181548 203.710794 
L 305.560801 202.966651 
L 305.940055 212.328939 
L 307.077816 199.896304 
L 307.457069 206.157996 
L 308.215576 213.073082 
L 308.59483 214.503894 
L 309.732591 222.078424 
L 310.111844 229.531956 
L 310.491098 220.677862 
L 310.870351 221.391756 
L 311.249605 222.465621 
L 312.387366 214.594643 
L 312.766619 217.008571 
L 313.145873 231.110991 
L 313.525126 233.97564 
L 315.042141 240.025584 
L 315.421394 232.124357 
L 315.800648 230.575571 
L 316.179901 230.663295 
L 316.559155 231.619186 
L 317.696915 225.448243 
L 318.076169 233.140747 
L 318.455423 223.330763 
L 318.834676 239.102967 
L 319.21393 242.382037 
L 320.730944 253.41411 
L 321.110198 246.317526 
L 321.489451 254.04028 
L 323.385719 228.51859 
L 324.144226 234.393086 
L 324.52348 234.211587 
L 325.66124 238.355799 
L 326.040494 236.894738 
L 326.419748 242.351787 
L 326.799001 241.577395 
L 327.178255 230.545321 
L 328.316015 225.744691 
L 328.695269 225.148771 
L 329.074523 220.587113 
L 329.453776 217.755739 
L 329.83303 227.592949 
L 330.97079 210.302208 
L 331.350044 216.264428 
L 331.729297 205.919023 
L 332.108551 208.393451 
L 332.487805 205.858524 
L 334.004819 200.2835 
L 334.384072 206.87189 
L 334.763326 218.617856 
L 335.14258 217.395768 
L 336.28034 225.892914 
L 336.659594 226.162137 
L 337.038847 234.123863 
L 337.418101 229.680179 
L 337.797355 230.037126 
L 338.935115 236.955237 
L 339.314369 228.54884 
L 339.693622 242.62101 
L 340.072876 238.298325 
L 340.45213 249.747844 
L 341.58989 248.61348 
L 341.969144 241.725618 
L 342.348397 214.624893 
L 342.727651 214.44642 
L 343.106905 225.058022 
L 344.244665 230.009901 
L 344.623919 234.063364 
L 345.003172 226.670332 
L 345.382426 227.236002 
L 345.761679 218.826579 
L 346.89944 222.078424 
L 347.278694 228.040644 
L 347.657947 237.850629 
L 348.037201 237.13371 
L 348.416454 233.167972 
L 349.554215 230.902268 
L 349.933469 234.898256 
L 350.312722 229.831428 
L 351.071229 211.820744 
L 352.20899 199.745055 
L 352.588244 202.192258 
L 352.967497 201.057893 
L 353.346751 194.348505 
L 353.726004 193.574112 
L 354.863765 194.944425 
L 355.243019 186.21133 
L 355.622272 197.391627 
L 356.001526 194.378755 
L 356.380779 192.947943 
L 357.51854 182.841511 
L 357.897794 182.303066 
L 358.277047 186.686251 
L 358.656301 175.596703 
L 359.035554 176.758292 
L 360.173315 177.124314 
L 360.552569 182.448265 
L 360.931822 180.684706 
L 361.311076 184.09385 
L 362.82809 194.865775 
L 363.207344 195.821667 
L 363.586597 195.761167 
L 365.482865 197.64875 
L 365.862119 195.912416 
L 366.241372 190.497716 
L 366.620626 178.170954 
L 366.999879 178.440177 
L 368.516894 170.871697 
L 368.896147 171.11067 
L 369.275401 165.275498 
L 369.654654 162.4048 
L 371.171668 152.619015 
L 371.550922 146.69612 
L 371.930176 147.924258 
L 372.309429 143.556199 
L 373.44719 134.75958 
L 373.826443 145.350007 
L 374.205697 161.836105 
L 374.584951 156.44863 
L 374.964204 143.525949 
L 376.101965 138.558945 
L 376.481218 139.03689 
L 376.860472 142.089087 
L 377.239726 135.896969 
L 377.618979 126.679879 
L 378.75674 119.501621 
L 379.135993 122.762541 
L 379.515247 122.641542 
L 379.894501 129.553603 
L 380.273754 118.034509 
L 381.790768 130.36127 
L 382.170022 124.647098 
L 382.549276 138.649694 
L 382.928529 138.767668 
L 384.06629 151.03393 
L 384.824797 155.761961 
L 385.20405 169.704058 
L 385.583304 168.297445 
L 386.721065 162.4048 
L 387.100318 172.305534 
L 387.479572 191.123885 
L 387.858825 202.912201 
L 388.238079 187.506018 
L 389.37584 202.794227 
L 389.755093 190.228493 
L 390.134347 193.459163 
L 390.5136 181.011403 
L 390.892854 183.195433 
L 392.030615 171.679364 
L 392.789122 167.341554 
L 393.168375 176.734093 
L 393.547629 169.344086 
L 394.68539 160.846939 
L 395.443897 191.904328 
L 395.82315 192.590996 
L 396.202404 187.475769 
L 397.340165 190.467466 
L 397.719418 193.068942 
L 398.098672 178.948372 
L 398.477925 174.162866 
L 399.99494 172.275284 
L 400.374193 168.297445 
L 400.753447 178.470427 
L 401.1327 176.764342 
L 401.511954 174.519813 
L 402.649715 178.918123 
L 403.028968 169.195862 
L 403.408222 164.467831 
L 404.166729 147.385813 
L 405.30449 154.385599 
L 405.683743 155.014793 
L 406.062997 147.264815 
L 406.44225 146.817119 
L 406.821504 141.550642 
L 407.959265 131.43816 
L 408.338518 131.767882 
L 409.097025 142.267561 
L 409.476279 139.06714 
L 410.61404 142.627532 
L 410.993293 161.954079 
L 411.7518 172.036311 
L 412.131054 166.830334 
L 413.268814 175.38798 
L 413.648068 177.124314 
L 414.027322 183.945626 
L 414.406575 184.09385 
L 414.785829 172.18756 
L 415.923589 171.05017 
L 416.302843 168.566668 
L 416.682097 170.690198 
L 417.06135 155.88296 
L 417.440604 160.160271 
L 418.578364 159.591576 
L 418.957618 161.116162 
L 419.336872 160.069521 
L 419.716125 158.305963 
L 420.095379 152.888238 
L 421.612393 157.885492 
L 421.991647 153.338958 
L 422.3709 152.888238 
L 422.750154 143.4352 
L 423.887914 123.179987 
L 424.267168 124.765072 
L 425.025675 102.837049 
L 425.404929 109.358889 
L 426.542689 111.781892 
L 426.921943 121.894374 
L 427.301196 127.608546 
L 427.68045 119.202148 
L 428.059704 122.850265 
L 429.197464 118.004259 
L 429.576718 110.974224 
L 429.955971 111.660893 
L 430.335225 109.658361 
L 430.714479 105.408276 
L 431.852239 103.136522 
L 432.231493 99.933076 
L 432.610746 100.471521 
L 432.99 97.422349 
L 433.369254 96.493683 
L 434.886268 102.867299 
L 435.265521 111.303946 
L 435.644775 109.688611 
L 436.024029 104.839581 
L 437.161789 108.699445 
L 437.920296 119.680094 
L 438.29955 116.567398 
L 438.678804 108.2215 
L 439.816564 102.567827 
L 440.195818 96.883904 
L 440.575071 94.10093 
L 441.333578 81.114725 
L 442.850593 100.084325 
L 443.229846 82.13414 
L 443.6091 86.350951 
L 443.988353 84.557143 
L 445.126114 82.911558 
L 445.505368 70.315574 
L 445.884621 52.782836 
L 446.263875 49.313193 
L 446.643128 62.686595 
L 447.780889 43.387273 
L 448.160143 52.722337 
L 448.539396 77.136886 
L 448.91865 69.299184 
L 449.297903 69.356658 
L 450.435664 77.645082 
L 450.814918 63.672736 
L 451.194171 69.837629 
L 451.573425 84.675117 
L 451.952678 76.447193 
L 453.090439 58.227786 
L 453.469693 58.974954 
L 453.848946 54.367921 
L 454.2282 59.186702 
L 454.607453 60.741538 
L 456.124468 57.241645 
L 456.882975 45.8133 
L 457.262228 45.601552 
L 458.779243 46.291246 
L 459.158496 54.068449 
L 459.53775 51.615197 
L 461.054764 69.057186 
L 461.434018 68.848463 
L 461.813271 59.755397 
L 462.571778 51.884419 
L 463.709539 64.392679 
L 464.088793 58.019063 
L 464.468046 57.867814 
L 464.8473 49.791139 
L 465.226553 61.757928 
L 466.364314 80.189083 
L 466.743568 101.430437 
L 467.122821 100.982741 
L 467.502075 99.067934 
L 467.881328 115.581257 
L 469.019089 128.924409 
L 469.398342 126.800878 
L 469.777596 133.322718 
L 470.15685 124.468625 
L 470.536103 129.853075 
L 471.673864 130.869466 
L 472.053117 130.42177 
L 472.432371 125.814737 
L 472.811625 118.064759 
L 473.190878 120.965707 
L 474.328639 121.924623 
L 474.707892 115.971478 
L 475.087146 116.86687 
L 475.4664 111.842391 
L 475.845653 116.957619 
L 476.983414 105.707748 
L 477.362667 104.93033 
L 477.741921 114.504367 
L 478.121175 106.215943 
L 478.500428 106.966136 
L 480.017442 99.694103 
L 480.396696 96.883904 
L 480.77595 110.31478 
L 481.155203 131.020714 
L 482.292964 127.039851 
L 482.672217 132.067355 
L 483.051471 138.679944 
L 483.430724 138.767668 
L 483.809978 135.298025 
L 484.947739 134.039636 
L 485.326992 130.182797 
L 485.706246 129.883325 
L 486.085499 129.971049 
L 486.464753 125.424516 
L 487.602514 123.300986 
L 487.981767 129.853075 
L 488.361021 128.177241 
L 489.119528 115.520757 
L 490.257289 110.015308 
L 490.636542 118.064759 
L 491.015796 132.6058 
L 491.395049 135.80622 
L 491.774303 143.286976 
L 492.912064 159.022881 
L 493.291317 135.657997 
L 493.670571 131.259687 
L 494.429078 150.047789 
L 495.566839 143.256726 
L 495.946092 144.51209 
L 496.325346 131.078189 
L 496.704599 133.861163 
L 497.083853 122.133346 
L 498.221614 132.306327 
L 498.600867 132.454551 
L 498.980121 133.685715 
L 499.359374 132.965771 
L 500.876389 139.260738 
L 501.255642 142.110262 
L 501.634896 135.963519 
L 502.014149 133.265244 
L 503.531164 144.748038 
L 503.910417 156.678528 
L 504.289671 177.544785 
L 504.668924 177.154564 
L 505.048178 180.902504 
L 506.185939 168.820766 
L 506.565192 163.424215 
L 506.944446 168.309545 
L 507.323699 184.260223 
L 507.702953 183.331557 
L 509.219967 202.667178 
L 509.599221 209.113394 
L 509.978474 212.289615 
L 510.357728 220.865411 
L 511.495488 217.65894 
L 511.874742 228.960236 
L 512.633249 238.942644 
L 513.012503 221.945326 
L 514.150263 209.473366 
L 514.529517 200.150402 
L 514.908771 201.169817 
L 515.288024 211.421448 
L 515.667278 211.300449 
L 516.805038 210.10256 
L 517.184292 211.421448 
L 517.563546 199.578682 
L 517.942799 212.471113 
L 518.322053 218.977828 
L 519.459813 231.17754 
L 519.839067 223.863158 
L 520.218321 224.462102 
L 520.597574 238.2832 
L 520.976828 242.451611 
L 522.493842 244.968388 
L 522.873095 252.013548 
L 523.252349 239.063643 
L 523.631603 231.836984 
L 524.769363 232.977399 
L 525.148617 236.843313 
L 525.52787 234.356786 
L 526.286378 246.169302 
L 527.424138 255.970212 
L 527.803392 256.720405 
L 528.182645 245.987804 
L 528.561899 250.963883 
L 528.941153 260.078124 
L 530.078913 259.297681 
L 530.458167 255.132294 
L 530.83742 236.244369 
L 531.595928 218.466608 
L 532.733688 223.711909 
L 533.112942 214.180222 
L 533.492195 226.739906 
L 533.871449 220.38444 
L 534.250703 226.739906 
L 535.388463 221.225382 
L 535.767717 207.94273 
L 536.526224 217.776914 
L 536.905477 206.384869 
L 538.043238 202.189233 
L 538.422492 210.07231 
L 538.801745 211.990142 
L 539.180999 204.315788 
L 539.560252 203.53837 
L 540.698013 213.490529 
L 541.077267 217.897913 
L 541.45652 205.005482 
L 541.835774 210.671255 
L 543.352788 223.742159 
L 543.732042 219.906494 
L 544.111295 218.257885 
L 544.869802 241.250698 
L 546.007563 237.384783 
L 546.386817 254.351852 
L 546.76607 254.082629 
L 547.145324 255.791738 
L 547.524577 264.993704 
L 548.662338 258.580763 
L 549.041592 255.761489 
L 549.420845 244.847389 
L 550.179352 276.388773 
L 551.317113 293.924537 
L 551.696367 286.280432 
L 552.07562 299.590309 
L 552.834127 274.709914 
L 553.971888 275.547831 
L 554.351142 264.515758 
L 554.730395 274.349942 
L 555.109649 267.634504 
L 555.488902 266.645338 
L 556.626663 264.546008 
L 557.005917 271.079947 
L 557.38517 269.283114 
L 557.764424 265.084453 
L 558.143677 249.705495 
L 559.660692 260.168873 
L 560.039945 265.474674 
L 560.419199 263.705065 
L 560.798452 266.884311 
L 561.936213 268.711394 
L 562.315467 261.666234 
L 562.69472 257.921319 
L 563.453227 289.129956 
L 564.590988 306.665719 
L 564.970241 304.717637 
L 565.349495 296.175116 
L 565.728749 305.945776 
L 566.108002 293.625064 
L 567.625016 286.640404 
L 568.00427 281.092605 
L 568.383524 264.84548 
L 568.762777 255.57999 
L 569.900538 256.871653 
L 570.279791 266.645338 
L 570.659045 263.886564 
L 571.038299 266.763312 
L 571.417552 256.901903 
L 572.934566 246.768247 
L 573.31382 246.768247 
L 573.693074 234.087564 
L 574.072327 233.155872 
L 575.589341 243.979222 
L 575.968595 247.007219 
L 576.347849 255.280518 
L 576.727102 246.257026 
L 577.864863 258.220791 
L 578.244116 245.748831 
L 578.62337 244.938139 
L 579.002623 240.860476 
L 579.381877 249.436272 
L 580.519638 247.727163 
L 580.898891 246.768247 
L 581.278145 242.899307 
L 581.657398 240.651753 
L 582.036652 241.220448 
L 583.174413 246.408275 
L 583.553666 245.866805 
L 583.93292 226.561433 
L 584.312173 220.145467 
L 584.691427 220.92591 
L 585.829188 219.755246 
L 586.208441 230.188375 
L 586.587695 218.79633 
L 586.966948 223.203714 
L 587.346202 222.722743 
L 588.483963 213.638752 
L 588.863216 220.774661 
L 589.24247 230.878068 
L 589.621723 237.593506 
L 590.000977 241.432196 
L 591.517991 252.434019 
L 591.897245 247.727163 
L 592.276498 244.759665 
L 592.655752 260.259622 
L 593.793513 263.136371 
L 594.172766 265.834646 
L 594.55202 266.194617 
L 594.931273 260.377596 
L 595.310527 268.05195 
L 596.827541 273.149028 
L 597.586048 247.51844 
L 597.965302 240.742502 
L 599.103063 243.259279 
L 599.482316 264.663982 
L 599.86157 263.795815 
L 600.240823 261.336512 
L 600.620077 262.985122 
L 601.757838 268.832393 
L 602.137091 272.159862 
L 602.516345 280.705409 
L 602.895598 283.521658 
L 603.274852 288.050041 
L 604.412613 293.836812 
L 604.791866 290.536568 
L 605.17112 272.879806 
L 605.550373 279.595244 
L 605.929627 281.782299 
L 607.067387 273.899221 
L 607.446641 261.54826 
L 607.825895 258.789486 
L 608.205148 262.537426 
L 608.584402 274.888387 
L 609.722162 276.177025 
L 610.101416 275.547831 
L 610.48067 272.580334 
L 610.859923 262.957897 
L 611.239177 267.752478 
L 612.376937 258.220791 
L 612.756191 258.039293 
L 613.135445 272.671083 
L 613.514698 276.657996 
L 613.893952 264.455258 
L 615.031712 256.720405 
L 615.79022 239.992309 
L 616.169473 248.416856 
L 616.548727 230.248874 
L 617.686487 232.466179 
L 618.065741 229.828403 
L 618.444995 237.384783 
L 618.824248 235.406451 
L 619.203502 231.298539 
L 620.341262 226.022988 
L 620.720516 220.35419 
L 621.099769 223.832908 
L 621.479023 209.893837 
L 622.996037 206.536118 
L 623.375291 203.326622 
L 624.133798 208.093978 
L 624.513052 207.074563 
L 625.650812 208.245227 
L 626.030066 207.195562 
L 626.409319 208.45395 
L 627.167827 207.915505 
L 628.305587 211.242974 
L 628.684841 213.191056 
L 629.064094 199.699681 
L 629.443348 195.833766 
L 629.822602 193.794935 
L 630.960362 204.766509 
L 631.339616 211.121975 
L 631.718869 207.464784 
L 632.098123 200.238126 
L 632.477377 210.523031 
L 633.615137 210.011811 
L 633.994391 200.870345 
L 634.373644 199.27921 
L 634.752898 206.923314 
L 635.132151 211.630171 
L 636.269912 220.699037 
L 636.649166 215.850007 
L 637.028419 209.104319 
L 637.407673 209.134569 
L 637.786926 215.459785 
L 639.303941 225.067097 
L 639.683194 230.1551 
L 640.062448 221.183033 
L 640.441701 222.746943 
L 641.958716 226.150037 
L 642.337969 218.71163 
L 642.717223 220.880535 
L 643.096476 214.074348 
L 644.234237 217.62869 
L 644.613491 206.995914 
L 644.992744 200.129227 
L 645.371998 201.423915 
L 645.751251 197.05888 
L 647.268266 197.781849 
L 647.647519 200.068727 
L 648.026773 204.10404 
L 648.406026 199.406259 
L 649.543787 193.353289 
L 649.923041 195.972915 
L 650.302294 197.237354 
L 650.681548 194.768976 
L 651.060801 194.647977 
L 652.198562 203.834818 
L 652.577816 198.65304 
L 652.957069 198.353568 
L 653.336323 196.665634 
L 653.715576 199.947729 
L 654.853337 203.774318 
L 655.232591 200.401474 
L 655.611844 209.615539 
L 655.991098 213.9231 
L 656.370351 213.741601 
L 657.508112 205.371503 
L 657.887366 207.177412 
L 658.266619 207.597883 
L 658.645873 212.477163 
L 659.025126 212.026442 
L 660.921394 226.513033 
L 661.300648 227.716972 
L 661.679901 236.540816 
L 662.817662 233.530969 
L 663.196915 233.137722 
L 663.576169 228.951161 
L 663.955423 226.721757 
L 664.334676 217.68919 
L 665.472437 222.296222 
L 665.85169 231.059567 
L 666.230944 234.311412 
L 666.989451 248.105284 
L 668.506465 229.855628 
L 668.885719 231.812785 
L 669.264973 228.01947 
L 669.644226 235.666599 
L 671.16124 227.474975 
L 671.540494 236.991537 
L 672.299001 227.474975 
L 673.436762 228.56094 
L 673.816015 227.384225 
L 674.195269 222.144974 
L 674.574523 222.326472 
L 674.953776 215.671533 
L 676.091537 215.850007 
L 676.47079 216.542725 
L 676.850044 213.9231 
L 677.229297 206.424194 
L 678.746312 210.069285 
L 679.125565 208.142378 
L 679.504819 208.44185 
L 679.884072 199.769255 
L 680.263326 203.804568 
L 681.401087 205.519727 
L 681.78034 209.316067 
L 682.159594 208.351101 
L 682.538847 212.537662 
L 682.918101 209.104319 
L 684.055862 209.04382 
L 684.435115 220.638538 
L 684.814369 228.651689 
L 685.193622 227.357001 
L 685.572876 222.777193 
L 686.710637 219.85507 
L 687.08989 225.729566 
L 687.469144 225.638817 
L 687.848397 226.119787 
L 688.227651 220.097068 
L 689.365412 225.097347 
L 689.744665 226.150037 
L 690.123919 223.07969 
L 690.503172 223.950882 
L 690.882426 225.248595 
L 692.020187 217.988662 
L 692.39944 227.837971 
L 692.778694 226.842755 
L 693.157947 227.716972 
L 693.537201 222.595695 
L 695.054215 219.162351 
L 695.812722 235.548625 
L 696.191976 234.371911 
L 698.088244 238.138001 
L 698.467497 236.450067 
L 698.846751 227.716972 
L 699.984512 227.115003 
L 700.363765 228.591189 
L 700.743019 229.58338 
L 701.122272 227.565724 
L 701.501526 228.167693 
L 702.639286 224.855349 
L 703.01854 220.729287 
L 703.397794 223.742159 
L 703.777047 216.875472 
L 704.156301 217.356443 
L 705.673315 222.807443 
L 706.052569 226.812506 
L 706.431822 225.248595 
L 706.811076 230.999067 
L 707.948836 233.618693 
L 708.32809 239.583938 
L 708.707344 236.991537 
L 709.086597 237.835504 
L 709.465851 233.860691 
L 710.603611 234.52316 
L 711.362119 233.648943 
L 712.120626 244.25147 
L 713.258386 234.613909 
L 713.63764 235.878347 
L 714.016894 231.210815 
L 714.396147 228.409691 
L 714.775401 229.734629 
L 716.292415 220.578038 
L 716.671668 217.598441 
L 717.050922 216.603225 
L 717.430176 210.970727 
L 718.567936 218.23066 
L 718.94719 217.326193 
L 719.326443 218.77213 
L 719.705697 221.512755 
L 720.084951 215.096789 
L 721.222711 219.616097 
L 721.981218 228.769663 
L 722.360472 228.137443 
L 722.739726 223.772409 
L 723.877486 224.586126 
L 724.25674 219.88532 
L 724.635993 217.114445 
L 725.394501 216.243253 
L 726.911515 215.036289 
L 727.290768 222.084474 
L 727.670022 223.439662 
L 728.049276 225.427068 
L 729.187036 218.20041 
L 729.56629 217.867663 
L 729.945543 214.343571 
L 730.324797 219.525348 
L 730.70405 216.092005 
L 731.841811 213.802101 
L 732.221065 207.87013 
L 732.600318 206.242695 
L 732.979572 211.091726 
L 733.358825 207.177412 
L 734.87584 214.978815 
L 735.255093 219.464848 
L 735.634347 220.941035 
L 736.0136 221.603504 
L 737.151361 216.633475 
L 737.530615 218.469633 
L 737.909868 218.983878 
L 738.289122 218.351659 
L 738.668375 221.240507 
L 739.806136 224.855349 
L 740.18539 221.875751 
L 740.564643 226.029038 
L 740.943897 233.830441 
L 741.32315 234.943631 
L 742.460911 236.389567 
L 742.840165 236.359318 
L 743.219418 233.860691 
L 743.977925 234.825657 
L 745.115686 238.80047 
L 745.49494 244.493468 
L 745.874193 240.034659 
L 746.6327 233.558193 
L 747.770461 235.397377 
L 748.149715 231.150316 
L 748.528968 224.434878 
L 748.908222 232.656752 
L 749.287475 231.510287 
L 750.425236 231.422563 
L 750.80449 233.107473 
L 751.562997 250.876159 
L 751.94225 252.231346 
L 753.080011 254.128004 
L 753.459265 249.762969 
L 753.838518 259.491279 
L 754.217772 259.881501 
L 754.597025 270.363029 
L 755.734786 268.584345 
L 756.11404 269.007841 
L 756.872547 256.448157 
L 757.2518 246.810596 
L 758.389561 245.606657 
L 758.768814 243.017281 
L 759.148068 249.520971 
L 759.527322 261.660184 
L 759.906575 258.946784 
L 761.044336 260.244497 
L 761.423589 251.780625 
L 761.802843 250.485937 
L 762.182097 254.911472 
L 762.56135 252.954315 
L 763.699111 248.798003 
L 764.078364 252.110347 
L 764.457618 249.61172 
L 765.216125 247.866311 
L 766.353886 252.022623 
L 766.733139 254.188503 
L 767.8709 241.090374 
L 769.008661 239.85316 
L 769.387914 241.147848 
L 769.767168 239.039443 
L 770.146422 236.298818 
L 770.525675 240.155658 
L 771.663436 234.886156 
L 772.042689 230.847818 
L 772.421943 213.35138 
L 772.801196 209.134569 
L 773.18045 214.676318 
L 774.318211 217.056971 
L 774.697464 209.948286 
L 775.076718 224.437903 
L 775.835225 209.58529 
L 777.352239 206.681316 
L 777.731493 200.933869 
L 778.110746 200.480124 
L 778.49 203.777343 
L 778.49 203.777343 
" clip-path="url(#p31d3b2667e)" style="fill: none; stroke: #1f77b4; stroke-width: 1.5; stroke-linecap: square"/>
   </g>
   <g id="patch_7">
    <path d="M 52.94 390.04 
L 52.94 26.88 
" style="fill: none; stroke: #000000; stroke-width: 0.8; stroke-linejoin: miter; stroke-linecap: square"/>
   </g>
   <g id="patch_8">
    <path d="M 813.04 390.04 
L 813.04 26.88 
" style="fill: none; stroke: #000000; stroke-width: 0.8; stroke-linejoin: miter; stroke-linecap: square"/>
   </g>
   <g id="patch_9">
    <path d="M 52.94 390.04 
L 813.04 390.04 
" style="fill: none; stroke: #000000; stroke-width: 0.8; stroke-linejoin: miter; stroke-linecap: square"/>
   </g>
   <g id="patch_10">
    <path d="M 52.94 26.88 
L 813.04 26.88 
" style="fill: none; stroke: #000000; stroke-width: 0.8; stroke-linejoin: miter; stroke-linecap: square"/>
   </g>
   <g id="text_22">
    <!-- Stock Trading Performance for BBH -->
    <g transform="translate(327.732187 20.88) scale(0.12 -0.12)">
     <defs>
      <path id="DejaVuSans-53" d="M 3425 4513 
L 3425 3897 
Q 3066 4069 2747 4153 
Q 2428 4238 2131 4238 
Q 1616 4238 1336 4038 
Q 1056 3838 1056 3469 
Q 1056 3159 1242 3001 
Q 1428 2844 1947 2747 
L 2328 2669 
Q 3034 2534 3370 2195 
Q 3706 1856 3706 1288 
Q 3706 609 3251 259 
Q 2797 -91 1919 -91 
Q 1588 -91 1214 -16 
Q 841 59 441 206 
L 441 856 
Q 825 641 1194 531 
Q 1563 422 1919 422 
Q 2459 422 2753 634 
Q 3047 847 3047 1241 
Q 3047 1584 2836 1778 
Q 2625 1972 2144 2069 
L 1759 2144 
Q 1053 2284 737 2584 
Q 422 2884 422 3419 
Q 422 4038 858 4394 
Q 1294 4750 2059 4750 
Q 2388 4750 2728 4690 
Q 3069 4631 3425 4513 
z
" transform="scale(0.015625)"/>
      <path id="DejaVuSans-6b" d="M 581 4863 
L 1159 4863 
L 1159 1991 
L 2875 3500 
L 3609 3500 
L 1753 1863 
L 3688 0 
L 2938 0 
L 1159 1709 
L 1159 0 
L 581 0 
L 581 4863 
z
" transform="scale(0.015625)"/>
      <path id="DejaVuSans-54" d="M -19 4666 
L 3928 4666 
L 3928 4134 
L 2272 4134 
L 2272 0 
L 1638 0 
L 1638 4134 
L -19 4134 
L -19 4666 
z
" transform="scale(0.015625)"/>
      <path id="DejaVuSans-64" d="M 2906 2969 
L 2906 4863 
L 3481 4863 
L 3481 0 
L 2906 0 
L 2906 525 
Q 2725 213 2448 61 
Q 2172 -91 1784 -91 
Q 1150 -91 751 415 
Q 353 922 353 1747 
Q 353 2572 751 3078 
Q 1150 3584 1784 3584 
Q 2172 3584 2448 3432 
Q 2725 3281 2906 2969 
z
M 947 1747 
Q 947 1113 1208 752 
Q 1469 391 1925 391 
Q 2381 391 2643 752 
Q 2906 1113 2906 1747 
Q 2906 2381 2643 2742 
Q 2381 3103 1925 3103 
Q 1469 3103 1208 2742 
Q 947 2381 947 1747 
z
" transform="scale(0.015625)"/>
      <path id="DejaVuSans-67" d="M 2906 1791 
Q 2906 2416 2648 2759 
Q 2391 3103 1925 3103 
Q 1463 3103 1205 2759 
Q 947 2416 947 1791 
Q 947 1169 1205 825 
Q 1463 481 1925 481 
Q 2391 481 2648 825 
Q 2906 1169 2906 1791 
z
M 3481 434 
Q 3481 -459 3084 -895 
Q 2688 -1331 1869 -1331 
Q 1566 -1331 1297 -1286 
Q 1028 -1241 775 -1147 
L 775 -588 
Q 1028 -725 1275 -790 
Q 1522 -856 1778 -856 
Q 2344 -856 2625 -561 
Q 2906 -266 2906 331 
L 2906 616 
Q 2728 306 2450 153 
Q 2172 0 1784 0 
Q 1141 0 747 490 
Q 353 981 353 1791 
Q 353 2603 747 3093 
Q 1141 3584 1784 3584 
Q 2172 3584 2450 3431 
Q 2728 3278 2906 2969 
L 2906 3500 
L 3481 3500 
L 3481 434 
z
" transform="scale(0.015625)"/>
      <path id="DejaVuSans-66" d="M 2375 4863 
L 2375 4384 
L 1825 4384 
Q 1516 4384 1395 4259 
Q 1275 4134 1275 3809 
L 1275 3500 
L 2222 3500 
L 2222 3053 
L 1275 3053 
L 1275 0 
L 697 0 
L 697 3053 
L 147 3053 
L 147 3500 
L 697 3500 
L 697 3744 
Q 697 4328 969 4595 
Q 1241 4863 1831 4863 
L 2375 4863 
z
" transform="scale(0.015625)"/>
      <path id="DejaVuSans-6d" d="M 3328 2828 
Q 3544 3216 3844 3400 
Q 4144 3584 4550 3584 
Q 5097 3584 5394 3201 
Q 5691 2819 5691 2113 
L 5691 0 
L 5113 0 
L 5113 2094 
Q 5113 2597 4934 2840 
Q 4756 3084 4391 3084 
Q 3944 3084 3684 2787 
Q 3425 2491 3425 1978 
L 3425 0 
L 2847 0 
L 2847 2094 
Q 2847 2600 2669 2842 
Q 2491 3084 2119 3084 
Q 1678 3084 1418 2786 
Q 1159 2488 1159 1978 
L 1159 0 
L 581 0 
L 581 3500 
L 1159 3500 
L 1159 2956 
Q 1356 3278 1631 3431 
Q 1906 3584 2284 3584 
Q 2666 3584 2933 3390 
Q 3200 3197 3328 2828 
z
" transform="scale(0.015625)"/>
      <path id="DejaVuSans-42" d="M 1259 2228 
L 1259 519 
L 2272 519 
Q 2781 519 3026 730 
Q 3272 941 3272 1375 
Q 3272 1813 3026 2020 
Q 2781 2228 2272 2228 
L 1259 2228 
z
M 1259 4147 
L 1259 2741 
L 2194 2741 
Q 2656 2741 2882 2914 
Q 3109 3088 3109 3444 
Q 3109 3797 2882 3972 
Q 2656 4147 2194 4147 
L 1259 4147 
z
M 628 4666 
L 2241 4666 
Q 2963 4666 3353 4366 
Q 3744 4066 3744 3513 
Q 3744 3084 3544 2831 
Q 3344 2578 2956 2516 
Q 3422 2416 3680 2098 
Q 3938 1781 3938 1306 
Q 3938 681 3513 340 
Q 3088 0 2303 0 
L 628 0 
L 628 4666 
z
" transform="scale(0.015625)"/>
      <path id="DejaVuSans-48" d="M 628 4666 
L 1259 4666 
L 1259 2753 
L 3553 2753 
L 3553 4666 
L 4184 4666 
L 4184 0 
L 3553 0 
L 3553 2222 
L 1259 2222 
L 1259 0 
L 628 0 
L 628 4666 
z
" transform="scale(0.015625)"/>
     </defs>
     <use xlink:href="#DejaVuSans-53"/>
     <use xlink:href="#DejaVuSans-74" x="63.476562"/>
     <use xlink:href="#DejaVuSans-6f" x="102.685547"/>
     <use xlink:href="#DejaVuSans-63" x="163.867188"/>
     <use xlink:href="#DejaVuSans-6b" x="218.847656"/>
     <use xlink:href="#DejaVuSans-20" x="276.757812"/>
     <use xlink:href="#DejaVuSans-54" x="308.544922"/>
     <use xlink:href="#DejaVuSans-72" x="354.878906"/>
     <use xlink:href="#DejaVuSans-61" x="395.992188"/>
     <use xlink:href="#DejaVuSans-64" x="457.271484"/>
     <use xlink:href="#DejaVuSans-69" x="520.748047"/>
     <use xlink:href="#DejaVuSans-6e" x="548.53125"/>
     <use xlink:href="#DejaVuSans-67" x="611.910156"/>
     <use xlink:href="#DejaVuSans-20" x="675.386719"/>
     <use xlink:href="#DejaVuSans-50" x="707.173828"/>
     <use xlink:href="#DejaVuSans-65" x="763.851562"/>
     <use xlink:href="#DejaVuSans-72" x="825.375"/>
     <use xlink:href="#DejaVuSans-66" x="866.488281"/>
     <use xlink:href="#DejaVuSans-6f" x="901.693359"/>
     <use xlink:href="#DejaVuSans-72" x="962.875"/>
     <use xlink:href="#DejaVuSans-6d" x="1002.238281"/>
     <use xlink:href="#DejaVuSans-61" x="1099.650391"/>
     <use xlink:href="#DejaVuSans-6e" x="1160.929688"/>
     <use xlink:href="#DejaVuSans-63" x="1224.308594"/>
     <use xlink:href="#DejaVuSans-65" x="1279.289062"/>
     <use xlink:href="#DejaVuSans-20" x="1340.8125"/>
     <use xlink:href="#DejaVuSans-66" x="1372.599609"/>
     <use xlink:href="#DejaVuSans-6f" x="1407.804688"/>
     <use xlink:href="#DejaVuSans-72" x="1468.986328"/>
     <use xlink:href="#DejaVuSans-20" x="1510.099609"/>
     <use xlink:href="#DejaVuSans-42" x="1541.886719"/>
     <use xlink:href="#DejaVuSans-42" x="1610.490234"/>
     <use xlink:href="#DejaVuSans-48" x="1679.09375"/>
    </g>
   </g>
  </g>
 </g>
 <defs>
  <clipPath id="p31d3b2667e">
   <rect x="52.94" y="26.88" width="760.1" height="363.16"/>
  </clipPath>
 </defs>
</svg>
