<?xml version="1.0" encoding="utf-8" standalone="no"?>
<!DOCTYPE svg PUBLIC "-//W3C//DTD SVG 1.1//EN"
  "http://www.w3.org/Graphics/SVG/1.1/DTD/svg11.dtd">
<svg xmlns:xlink="http://www.w3.org/1999/xlink" width="864pt" height="432pt" viewBox="0 0 864 432" xmlns="http://www.w3.org/2000/svg" version="1.1">
 <metadata>
  <rdf:RDF xmlns:dc="http://purl.org/dc/elements/1.1/" xmlns:cc="http://creativecommons.org/ns#" xmlns:rdf="http://www.w3.org/1999/02/22-rdf-syntax-ns#">
   <cc:Work>
    <dc:type rdf:resource="http://purl.org/dc/dcmitype/StillImage"/>
    <dc:date>2024-04-16T14:18:45.074780</dc:date>
    <dc:format>image/svg+xml</dc:format>
    <dc:creator>
     <cc:Agent>
      <dc:title>Matplotlib v3.8.2, https://matplotlib.org/</dc:title>
     </cc:Agent>
    </dc:creator>
   </cc:Work>
  </rdf:RDF>
 </metadata>
 <defs>
  <style type="text/css">*{stroke-linejoin: round; stroke-linecap: butt}</style>
 </defs>
 <g id="figure_1">
  <g id="patch_1">
   <path d="M 0 432 
L 864 432 
L 864 0 
L 0 0 
z
" style="fill: #ffffff"/>
  </g>
  <g id="axes_1">
   <g id="patch_2">
    <path d="M 52.94 390.04 
L 813.13 390.04 
L 813.13 26.88 
L 52.94 26.88 
z
" style="fill: #ffffff"/>
   </g>
   <g id="matplotlib.axis_1">
    <g id="xtick_1">
     <g id="line2d_1">
      <path d="M 87.114792 390.04 
L 87.114792 26.88 
" clip-path="url(#pd7b4e65a87)" style="fill: none; stroke-dasharray: 1.85,0.8; stroke-dashoffset: 0; stroke: #b0b0b0; stroke-opacity: 0.5; stroke-width: 0.5"/>
     </g>
     <g id="line2d_2">
      <defs>
       <path id="m88a83b023a" d="M 0 0 
L 0 3.5 
" style="stroke: #000000; stroke-width: 0.8"/>
      </defs>
      <g>
       <use xlink:href="#m88a83b023a" x="87.114792" y="390.04" style="stroke: #000000; stroke-width: 0.8"/>
      </g>
     </g>
     <g id="text_1">
      <!-- 2019 -->
      <g transform="translate(74.389792 404.638438) scale(0.1 -0.1)">
       <defs>
        <path id="DejaVuSans-32" d="M 1228 531 
L 3431 531 
L 3431 0 
L 469 0 
L 469 531 
Q 828 903 1448 1529 
Q 2069 2156 2228 2338 
Q 2531 2678 2651 2914 
Q 2772 3150 2772 3378 
Q 2772 3750 2511 3984 
Q 2250 4219 1831 4219 
Q 1534 4219 1204 4116 
Q 875 4013 500 3803 
L 500 4441 
Q 881 4594 1212 4672 
Q 1544 4750 1819 4750 
Q 2544 4750 2975 4387 
Q 3406 4025 3406 3419 
Q 3406 3131 3298 2873 
Q 3191 2616 2906 2266 
Q 2828 2175 2409 1742 
Q 1991 1309 1228 531 
z
" transform="scale(0.015625)"/>
        <path id="DejaVuSans-30" d="M 2034 4250 
Q 1547 4250 1301 3770 
Q 1056 3291 1056 2328 
Q 1056 1369 1301 889 
Q 1547 409 2034 409 
Q 2525 409 2770 889 
Q 3016 1369 3016 2328 
Q 3016 3291 2770 3770 
Q 2525 4250 2034 4250 
z
M 2034 4750 
Q 2819 4750 3233 4129 
Q 3647 3509 3647 2328 
Q 3647 1150 3233 529 
Q 2819 -91 2034 -91 
Q 1250 -91 836 529 
Q 422 1150 422 2328 
Q 422 3509 836 4129 
Q 1250 4750 2034 4750 
z
" transform="scale(0.015625)"/>
        <path id="DejaVuSans-31" d="M 794 531 
L 1825 531 
L 1825 4091 
L 703 3866 
L 703 4441 
L 1819 4666 
L 2450 4666 
L 2450 531 
L 3481 531 
L 3481 0 
L 794 0 
L 794 531 
z
" transform="scale(0.015625)"/>
        <path id="DejaVuSans-39" d="M 703 97 
L 703 672 
Q 941 559 1184 500 
Q 1428 441 1663 441 
Q 2288 441 2617 861 
Q 2947 1281 2994 2138 
Q 2813 1869 2534 1725 
Q 2256 1581 1919 1581 
Q 1219 1581 811 2004 
Q 403 2428 403 3163 
Q 403 3881 828 4315 
Q 1253 4750 1959 4750 
Q 2769 4750 3195 4129 
Q 3622 3509 3622 2328 
Q 3622 1225 3098 567 
Q 2575 -91 1691 -91 
Q 1453 -91 1209 -44 
Q 966 3 703 97 
z
M 1959 2075 
Q 2384 2075 2632 2365 
Q 2881 2656 2881 3163 
Q 2881 3666 2632 3958 
Q 2384 4250 1959 4250 
Q 1534 4250 1286 3958 
Q 1038 3666 1038 3163 
Q 1038 2656 1286 2365 
Q 1534 2075 1959 2075 
z
" transform="scale(0.015625)"/>
       </defs>
       <use xlink:href="#DejaVuSans-32"/>
       <use xlink:href="#DejaVuSans-30" x="63.623047"/>
       <use xlink:href="#DejaVuSans-31" x="127.246094"/>
       <use xlink:href="#DejaVuSans-39" x="190.869141"/>
      </g>
     </g>
    </g>
    <g id="xtick_2">
     <g id="line2d_3">
      <path d="M 225.558735 390.04 
L 225.558735 26.88 
" clip-path="url(#pd7b4e65a87)" style="fill: none; stroke-dasharray: 1.85,0.8; stroke-dashoffset: 0; stroke: #b0b0b0; stroke-opacity: 0.5; stroke-width: 0.5"/>
     </g>
     <g id="line2d_4">
      <g>
       <use xlink:href="#m88a83b023a" x="225.558735" y="390.04" style="stroke: #000000; stroke-width: 0.8"/>
      </g>
     </g>
     <g id="text_2">
      <!-- 2020 -->
      <g transform="translate(212.833735 404.638438) scale(0.1 -0.1)">
       <use xlink:href="#DejaVuSans-32"/>
       <use xlink:href="#DejaVuSans-30" x="63.623047"/>
       <use xlink:href="#DejaVuSans-32" x="127.246094"/>
       <use xlink:href="#DejaVuSans-30" x="190.869141"/>
      </g>
     </g>
    </g>
    <g id="xtick_3">
     <g id="line2d_5">
      <path d="M 364.381976 390.04 
L 364.381976 26.88 
" clip-path="url(#pd7b4e65a87)" style="fill: none; stroke-dasharray: 1.85,0.8; stroke-dashoffset: 0; stroke: #b0b0b0; stroke-opacity: 0.5; stroke-width: 0.5"/>
     </g>
     <g id="line2d_6">
      <g>
       <use xlink:href="#m88a83b023a" x="364.381976" y="390.04" style="stroke: #000000; stroke-width: 0.8"/>
      </g>
     </g>
     <g id="text_3">
      <!-- 2021 -->
      <g transform="translate(351.656976 404.638438) scale(0.1 -0.1)">
       <use xlink:href="#DejaVuSans-32"/>
       <use xlink:href="#DejaVuSans-30" x="63.623047"/>
       <use xlink:href="#DejaVuSans-32" x="127.246094"/>
       <use xlink:href="#DejaVuSans-31" x="190.869141"/>
      </g>
     </g>
    </g>
    <g id="xtick_4">
     <g id="line2d_7">
      <path d="M 502.825919 390.04 
L 502.825919 26.88 
" clip-path="url(#pd7b4e65a87)" style="fill: none; stroke-dasharray: 1.85,0.8; stroke-dashoffset: 0; stroke: #b0b0b0; stroke-opacity: 0.5; stroke-width: 0.5"/>
     </g>
     <g id="line2d_8">
      <g>
       <use xlink:href="#m88a83b023a" x="502.825919" y="390.04" style="stroke: #000000; stroke-width: 0.8"/>
      </g>
     </g>
     <g id="text_4">
      <!-- 2022 -->
      <g transform="translate(490.100919 404.638438) scale(0.1 -0.1)">
       <use xlink:href="#DejaVuSans-32"/>
       <use xlink:href="#DejaVuSans-30" x="63.623047"/>
       <use xlink:href="#DejaVuSans-32" x="127.246094"/>
       <use xlink:href="#DejaVuSans-32" x="190.869141"/>
      </g>
     </g>
    </g>
    <g id="xtick_5">
     <g id="line2d_9">
      <path d="M 641.269862 390.04 
L 641.269862 26.88 
" clip-path="url(#pd7b4e65a87)" style="fill: none; stroke-dasharray: 1.85,0.8; stroke-dashoffset: 0; stroke: #b0b0b0; stroke-opacity: 0.5; stroke-width: 0.5"/>
     </g>
     <g id="line2d_10">
      <g>
       <use xlink:href="#m88a83b023a" x="641.269862" y="390.04" style="stroke: #000000; stroke-width: 0.8"/>
      </g>
     </g>
     <g id="text_5">
      <!-- 2023 -->
      <g transform="translate(628.544862 404.638438) scale(0.1 -0.1)">
       <defs>
        <path id="DejaVuSans-33" d="M 2597 2516 
Q 3050 2419 3304 2112 
Q 3559 1806 3559 1356 
Q 3559 666 3084 287 
Q 2609 -91 1734 -91 
Q 1441 -91 1130 -33 
Q 819 25 488 141 
L 488 750 
Q 750 597 1062 519 
Q 1375 441 1716 441 
Q 2309 441 2620 675 
Q 2931 909 2931 1356 
Q 2931 1769 2642 2001 
Q 2353 2234 1838 2234 
L 1294 2234 
L 1294 2753 
L 1863 2753 
Q 2328 2753 2575 2939 
Q 2822 3125 2822 3475 
Q 2822 3834 2567 4026 
Q 2313 4219 1838 4219 
Q 1578 4219 1281 4162 
Q 984 4106 628 3988 
L 628 4550 
Q 988 4650 1302 4700 
Q 1616 4750 1894 4750 
Q 2613 4750 3031 4423 
Q 3450 4097 3450 3541 
Q 3450 3153 3228 2886 
Q 3006 2619 2597 2516 
z
" transform="scale(0.015625)"/>
       </defs>
       <use xlink:href="#DejaVuSans-32"/>
       <use xlink:href="#DejaVuSans-30" x="63.623047"/>
       <use xlink:href="#DejaVuSans-32" x="127.246094"/>
       <use xlink:href="#DejaVuSans-33" x="190.869141"/>
      </g>
     </g>
    </g>
    <g id="xtick_6">
     <g id="line2d_11">
      <path d="M 779.713805 390.04 
L 779.713805 26.88 
" clip-path="url(#pd7b4e65a87)" style="fill: none; stroke-dasharray: 1.85,0.8; stroke-dashoffset: 0; stroke: #b0b0b0; stroke-opacity: 0.5; stroke-width: 0.5"/>
     </g>
     <g id="line2d_12">
      <g>
       <use xlink:href="#m88a83b023a" x="779.713805" y="390.04" style="stroke: #000000; stroke-width: 0.8"/>
      </g>
     </g>
     <g id="text_6">
      <!-- 2024 -->
      <g transform="translate(766.988805 404.638438) scale(0.1 -0.1)">
       <defs>
        <path id="DejaVuSans-34" d="M 2419 4116 
L 825 1625 
L 2419 1625 
L 2419 4116 
z
M 2253 4666 
L 3047 4666 
L 3047 1625 
L 3713 1625 
L 3713 1100 
L 3047 1100 
L 3047 0 
L 2419 0 
L 2419 1100 
L 313 1100 
L 313 1709 
L 2253 4666 
z
" transform="scale(0.015625)"/>
       </defs>
       <use xlink:href="#DejaVuSans-32"/>
       <use xlink:href="#DejaVuSans-30" x="63.623047"/>
       <use xlink:href="#DejaVuSans-32" x="127.246094"/>
       <use xlink:href="#DejaVuSans-34" x="190.869141"/>
      </g>
     </g>
    </g>
    <g id="text_7">
     <!-- Date -->
     <g transform="translate(421.084219 418.316562) scale(0.1 -0.1)">
      <defs>
       <path id="DejaVuSans-44" d="M 1259 4147 
L 1259 519 
L 2022 519 
Q 2988 519 3436 956 
Q 3884 1394 3884 2338 
Q 3884 3275 3436 3711 
Q 2988 4147 2022 4147 
L 1259 4147 
z
M 628 4666 
L 1925 4666 
Q 3281 4666 3915 4102 
Q 4550 3538 4550 2338 
Q 4550 1131 3912 565 
Q 3275 0 1925 0 
L 628 0 
L 628 4666 
z
" transform="scale(0.015625)"/>
       <path id="DejaVuSans-61" d="M 2194 1759 
Q 1497 1759 1228 1600 
Q 959 1441 959 1056 
Q 959 750 1161 570 
Q 1363 391 1709 391 
Q 2188 391 2477 730 
Q 2766 1069 2766 1631 
L 2766 1759 
L 2194 1759 
z
M 3341 1997 
L 3341 0 
L 2766 0 
L 2766 531 
Q 2569 213 2275 61 
Q 1981 -91 1556 -91 
Q 1019 -91 701 211 
Q 384 513 384 1019 
Q 384 1609 779 1909 
Q 1175 2209 1959 2209 
L 2766 2209 
L 2766 2266 
Q 2766 2663 2505 2880 
Q 2244 3097 1772 3097 
Q 1472 3097 1187 3025 
Q 903 2953 641 2809 
L 641 3341 
Q 956 3463 1253 3523 
Q 1550 3584 1831 3584 
Q 2591 3584 2966 3190 
Q 3341 2797 3341 1997 
z
" transform="scale(0.015625)"/>
       <path id="DejaVuSans-74" d="M 1172 4494 
L 1172 3500 
L 2356 3500 
L 2356 3053 
L 1172 3053 
L 1172 1153 
Q 1172 725 1289 603 
Q 1406 481 1766 481 
L 2356 481 
L 2356 0 
L 1766 0 
Q 1100 0 847 248 
Q 594 497 594 1153 
L 594 3053 
L 172 3053 
L 172 3500 
L 594 3500 
L 594 4494 
L 1172 4494 
z
" transform="scale(0.015625)"/>
       <path id="DejaVuSans-65" d="M 3597 1894 
L 3597 1613 
L 953 1613 
Q 991 1019 1311 708 
Q 1631 397 2203 397 
Q 2534 397 2845 478 
Q 3156 559 3463 722 
L 3463 178 
Q 3153 47 2828 -22 
Q 2503 -91 2169 -91 
Q 1331 -91 842 396 
Q 353 884 353 1716 
Q 353 2575 817 3079 
Q 1281 3584 2069 3584 
Q 2775 3584 3186 3129 
Q 3597 2675 3597 1894 
z
M 3022 2063 
Q 3016 2534 2758 2815 
Q 2500 3097 2075 3097 
Q 1594 3097 1305 2825 
Q 1016 2553 972 2059 
L 3022 2063 
z
" transform="scale(0.015625)"/>
      </defs>
      <use xlink:href="#DejaVuSans-44"/>
      <use xlink:href="#DejaVuSans-61" x="77.001953"/>
      <use xlink:href="#DejaVuSans-74" x="138.28125"/>
      <use xlink:href="#DejaVuSans-65" x="177.490234"/>
     </g>
    </g>
   </g>
   <g id="matplotlib.axis_2">
    <g id="ytick_1">
     <g id="line2d_13">
      <path d="M 52.94 389.138132 
L 813.13 389.138132 
" clip-path="url(#pd7b4e65a87)" style="fill: none; stroke-dasharray: 1.85,0.8; stroke-dashoffset: 0; stroke: #b0b0b0; stroke-opacity: 0.5; stroke-width: 0.5"/>
     </g>
     <g id="line2d_14">
      <defs>
       <path id="mc1b731d2d6" d="M 0 0 
L -3.5 0 
" style="stroke: #000000; stroke-width: 0.8"/>
      </defs>
      <g>
       <use xlink:href="#mc1b731d2d6" x="52.94" y="389.138132" style="stroke: #000000; stroke-width: 0.8"/>
      </g>
     </g>
     <g id="text_8">
      <!-- −60 -->
      <g style="fill: #d62728" transform="translate(24.835313 392.937351) scale(0.1 -0.1)">
       <defs>
        <path id="DejaVuSans-2212" d="M 678 2272 
L 4684 2272 
L 4684 1741 
L 678 1741 
L 678 2272 
z
" transform="scale(0.015625)"/>
        <path id="DejaVuSans-36" d="M 2113 2584 
Q 1688 2584 1439 2293 
Q 1191 2003 1191 1497 
Q 1191 994 1439 701 
Q 1688 409 2113 409 
Q 2538 409 2786 701 
Q 3034 994 3034 1497 
Q 3034 2003 2786 2293 
Q 2538 2584 2113 2584 
z
M 3366 4563 
L 3366 3988 
Q 3128 4100 2886 4159 
Q 2644 4219 2406 4219 
Q 1781 4219 1451 3797 
Q 1122 3375 1075 2522 
Q 1259 2794 1537 2939 
Q 1816 3084 2150 3084 
Q 2853 3084 3261 2657 
Q 3669 2231 3669 1497 
Q 3669 778 3244 343 
Q 2819 -91 2113 -91 
Q 1303 -91 875 529 
Q 447 1150 447 2328 
Q 447 3434 972 4092 
Q 1497 4750 2381 4750 
Q 2619 4750 2861 4703 
Q 3103 4656 3366 4563 
z
" transform="scale(0.015625)"/>
       </defs>
       <use xlink:href="#DejaVuSans-2212"/>
       <use xlink:href="#DejaVuSans-36" x="83.789062"/>
       <use xlink:href="#DejaVuSans-30" x="147.412109"/>
      </g>
     </g>
    </g>
    <g id="ytick_2">
     <g id="line2d_15">
      <path d="M 52.94 345.716107 
L 813.13 345.716107 
" clip-path="url(#pd7b4e65a87)" style="fill: none; stroke-dasharray: 1.85,0.8; stroke-dashoffset: 0; stroke: #b0b0b0; stroke-opacity: 0.5; stroke-width: 0.5"/>
     </g>
     <g id="line2d_16">
      <g>
       <use xlink:href="#mc1b731d2d6" x="52.94" y="345.716107" style="stroke: #000000; stroke-width: 0.8"/>
      </g>
     </g>
     <g id="text_9">
      <!-- −50 -->
      <g style="fill: #d62728" transform="translate(24.835313 349.515326) scale(0.1 -0.1)">
       <defs>
        <path id="DejaVuSans-35" d="M 691 4666 
L 3169 4666 
L 3169 4134 
L 1269 4134 
L 1269 2991 
Q 1406 3038 1543 3061 
Q 1681 3084 1819 3084 
Q 2600 3084 3056 2656 
Q 3513 2228 3513 1497 
Q 3513 744 3044 326 
Q 2575 -91 1722 -91 
Q 1428 -91 1123 -41 
Q 819 9 494 109 
L 494 744 
Q 775 591 1075 516 
Q 1375 441 1709 441 
Q 2250 441 2565 725 
Q 2881 1009 2881 1497 
Q 2881 1984 2565 2268 
Q 2250 2553 1709 2553 
Q 1456 2553 1204 2497 
Q 953 2441 691 2322 
L 691 4666 
z
" transform="scale(0.015625)"/>
       </defs>
       <use xlink:href="#DejaVuSans-2212"/>
       <use xlink:href="#DejaVuSans-35" x="83.789062"/>
       <use xlink:href="#DejaVuSans-30" x="147.412109"/>
      </g>
     </g>
    </g>
    <g id="ytick_3">
     <g id="line2d_17">
      <path d="M 52.94 302.294082 
L 813.13 302.294082 
" clip-path="url(#pd7b4e65a87)" style="fill: none; stroke-dasharray: 1.85,0.8; stroke-dashoffset: 0; stroke: #b0b0b0; stroke-opacity: 0.5; stroke-width: 0.5"/>
     </g>
     <g id="line2d_18">
      <g>
       <use xlink:href="#mc1b731d2d6" x="52.94" y="302.294082" style="stroke: #000000; stroke-width: 0.8"/>
      </g>
     </g>
     <g id="text_10">
      <!-- −40 -->
      <g style="fill: #d62728" transform="translate(24.835313 306.093301) scale(0.1 -0.1)">
       <use xlink:href="#DejaVuSans-2212"/>
       <use xlink:href="#DejaVuSans-34" x="83.789062"/>
       <use xlink:href="#DejaVuSans-30" x="147.412109"/>
      </g>
     </g>
    </g>
    <g id="ytick_4">
     <g id="line2d_19">
      <path d="M 52.94 258.872057 
L 813.13 258.872057 
" clip-path="url(#pd7b4e65a87)" style="fill: none; stroke-dasharray: 1.85,0.8; stroke-dashoffset: 0; stroke: #b0b0b0; stroke-opacity: 0.5; stroke-width: 0.5"/>
     </g>
     <g id="line2d_20">
      <g>
       <use xlink:href="#mc1b731d2d6" x="52.94" y="258.872057" style="stroke: #000000; stroke-width: 0.8"/>
      </g>
     </g>
     <g id="text_11">
      <!-- −30 -->
      <g style="fill: #d62728" transform="translate(24.835313 262.671276) scale(0.1 -0.1)">
       <use xlink:href="#DejaVuSans-2212"/>
       <use xlink:href="#DejaVuSans-33" x="83.789062"/>
       <use xlink:href="#DejaVuSans-30" x="147.412109"/>
      </g>
     </g>
    </g>
    <g id="ytick_5">
     <g id="line2d_21">
      <path d="M 52.94 215.450032 
L 813.13 215.450032 
" clip-path="url(#pd7b4e65a87)" style="fill: none; stroke-dasharray: 1.85,0.8; stroke-dashoffset: 0; stroke: #b0b0b0; stroke-opacity: 0.5; stroke-width: 0.5"/>
     </g>
     <g id="line2d_22">
      <g>
       <use xlink:href="#mc1b731d2d6" x="52.94" y="215.450032" style="stroke: #000000; stroke-width: 0.8"/>
      </g>
     </g>
     <g id="text_12">
      <!-- −20 -->
      <g style="fill: #d62728" transform="translate(24.835313 219.249251) scale(0.1 -0.1)">
       <use xlink:href="#DejaVuSans-2212"/>
       <use xlink:href="#DejaVuSans-32" x="83.789062"/>
       <use xlink:href="#DejaVuSans-30" x="147.412109"/>
      </g>
     </g>
    </g>
    <g id="ytick_6">
     <g id="line2d_23">
      <path d="M 52.94 172.028007 
L 813.13 172.028007 
" clip-path="url(#pd7b4e65a87)" style="fill: none; stroke-dasharray: 1.85,0.8; stroke-dashoffset: 0; stroke: #b0b0b0; stroke-opacity: 0.5; stroke-width: 0.5"/>
     </g>
     <g id="line2d_24">
      <g>
       <use xlink:href="#mc1b731d2d6" x="52.94" y="172.028007" style="stroke: #000000; stroke-width: 0.8"/>
      </g>
     </g>
     <g id="text_13">
      <!-- −10 -->
      <g style="fill: #d62728" transform="translate(24.835313 175.827225) scale(0.1 -0.1)">
       <use xlink:href="#DejaVuSans-2212"/>
       <use xlink:href="#DejaVuSans-31" x="83.789062"/>
       <use xlink:href="#DejaVuSans-30" x="147.412109"/>
      </g>
     </g>
    </g>
    <g id="ytick_7">
     <g id="line2d_25">
      <path d="M 52.94 128.605982 
L 813.13 128.605982 
" clip-path="url(#pd7b4e65a87)" style="fill: none; stroke-dasharray: 1.85,0.8; stroke-dashoffset: 0; stroke: #b0b0b0; stroke-opacity: 0.5; stroke-width: 0.5"/>
     </g>
     <g id="line2d_26">
      <g>
       <use xlink:href="#mc1b731d2d6" x="52.94" y="128.605982" style="stroke: #000000; stroke-width: 0.8"/>
      </g>
     </g>
     <g id="text_14">
      <!-- 0 -->
      <g style="fill: #d62728" transform="translate(39.5775 132.4052) scale(0.1 -0.1)">
       <use xlink:href="#DejaVuSans-30"/>
      </g>
     </g>
    </g>
    <g id="ytick_8">
     <g id="line2d_27">
      <path d="M 52.94 85.183957 
L 813.13 85.183957 
" clip-path="url(#pd7b4e65a87)" style="fill: none; stroke-dasharray: 1.85,0.8; stroke-dashoffset: 0; stroke: #b0b0b0; stroke-opacity: 0.5; stroke-width: 0.5"/>
     </g>
     <g id="line2d_28">
      <g>
       <use xlink:href="#mc1b731d2d6" x="52.94" y="85.183957" style="stroke: #000000; stroke-width: 0.8"/>
      </g>
     </g>
     <g id="text_15">
      <!-- 10 -->
      <g style="fill: #d62728" transform="translate(33.215 88.983175) scale(0.1 -0.1)">
       <use xlink:href="#DejaVuSans-31"/>
       <use xlink:href="#DejaVuSans-30" x="63.623047"/>
      </g>
     </g>
    </g>
    <g id="ytick_9">
     <g id="line2d_29">
      <path d="M 52.94 41.761932 
L 813.13 41.761932 
" clip-path="url(#pd7b4e65a87)" style="fill: none; stroke-dasharray: 1.85,0.8; stroke-dashoffset: 0; stroke: #b0b0b0; stroke-opacity: 0.5; stroke-width: 0.5"/>
     </g>
     <g id="line2d_30">
      <g>
       <use xlink:href="#mc1b731d2d6" x="52.94" y="41.761932" style="stroke: #000000; stroke-width: 0.8"/>
      </g>
     </g>
     <g id="text_16">
      <!-- 20 -->
      <g style="fill: #d62728" transform="translate(33.215 45.56115) scale(0.1 -0.1)">
       <use xlink:href="#DejaVuSans-32"/>
       <use xlink:href="#DejaVuSans-30" x="63.623047"/>
      </g>
     </g>
    </g>
    <g id="text_17">
     <!-- Returns (%) -->
     <g style="fill: #d62728" transform="translate(18.755625 237.8975) rotate(-90) scale(0.1 -0.1)">
      <defs>
       <path id="DejaVuSans-52" d="M 2841 2188 
Q 3044 2119 3236 1894 
Q 3428 1669 3622 1275 
L 4263 0 
L 3584 0 
L 2988 1197 
Q 2756 1666 2539 1819 
Q 2322 1972 1947 1972 
L 1259 1972 
L 1259 0 
L 628 0 
L 628 4666 
L 2053 4666 
Q 2853 4666 3247 4331 
Q 3641 3997 3641 3322 
Q 3641 2881 3436 2590 
Q 3231 2300 2841 2188 
z
M 1259 4147 
L 1259 2491 
L 2053 2491 
Q 2509 2491 2742 2702 
Q 2975 2913 2975 3322 
Q 2975 3731 2742 3939 
Q 2509 4147 2053 4147 
L 1259 4147 
z
" transform="scale(0.015625)"/>
       <path id="DejaVuSans-75" d="M 544 1381 
L 544 3500 
L 1119 3500 
L 1119 1403 
Q 1119 906 1312 657 
Q 1506 409 1894 409 
Q 2359 409 2629 706 
Q 2900 1003 2900 1516 
L 2900 3500 
L 3475 3500 
L 3475 0 
L 2900 0 
L 2900 538 
Q 2691 219 2414 64 
Q 2138 -91 1772 -91 
Q 1169 -91 856 284 
Q 544 659 544 1381 
z
M 1991 3584 
L 1991 3584 
z
" transform="scale(0.015625)"/>
       <path id="DejaVuSans-72" d="M 2631 2963 
Q 2534 3019 2420 3045 
Q 2306 3072 2169 3072 
Q 1681 3072 1420 2755 
Q 1159 2438 1159 1844 
L 1159 0 
L 581 0 
L 581 3500 
L 1159 3500 
L 1159 2956 
Q 1341 3275 1631 3429 
Q 1922 3584 2338 3584 
Q 2397 3584 2469 3576 
Q 2541 3569 2628 3553 
L 2631 2963 
z
" transform="scale(0.015625)"/>
       <path id="DejaVuSans-6e" d="M 3513 2113 
L 3513 0 
L 2938 0 
L 2938 2094 
Q 2938 2591 2744 2837 
Q 2550 3084 2163 3084 
Q 1697 3084 1428 2787 
Q 1159 2491 1159 1978 
L 1159 0 
L 581 0 
L 581 3500 
L 1159 3500 
L 1159 2956 
Q 1366 3272 1645 3428 
Q 1925 3584 2291 3584 
Q 2894 3584 3203 3211 
Q 3513 2838 3513 2113 
z
" transform="scale(0.015625)"/>
       <path id="DejaVuSans-73" d="M 2834 3397 
L 2834 2853 
Q 2591 2978 2328 3040 
Q 2066 3103 1784 3103 
Q 1356 3103 1142 2972 
Q 928 2841 928 2578 
Q 928 2378 1081 2264 
Q 1234 2150 1697 2047 
L 1894 2003 
Q 2506 1872 2764 1633 
Q 3022 1394 3022 966 
Q 3022 478 2636 193 
Q 2250 -91 1575 -91 
Q 1294 -91 989 -36 
Q 684 19 347 128 
L 347 722 
Q 666 556 975 473 
Q 1284 391 1588 391 
Q 1994 391 2212 530 
Q 2431 669 2431 922 
Q 2431 1156 2273 1281 
Q 2116 1406 1581 1522 
L 1381 1569 
Q 847 1681 609 1914 
Q 372 2147 372 2553 
Q 372 3047 722 3315 
Q 1072 3584 1716 3584 
Q 2034 3584 2315 3537 
Q 2597 3491 2834 3397 
z
" transform="scale(0.015625)"/>
       <path id="DejaVuSans-20" transform="scale(0.015625)"/>
       <path id="DejaVuSans-28" d="M 1984 4856 
Q 1566 4138 1362 3434 
Q 1159 2731 1159 2009 
Q 1159 1288 1364 580 
Q 1569 -128 1984 -844 
L 1484 -844 
Q 1016 -109 783 600 
Q 550 1309 550 2009 
Q 550 2706 781 3412 
Q 1013 4119 1484 4856 
L 1984 4856 
z
" transform="scale(0.015625)"/>
       <path id="DejaVuSans-25" d="M 4653 2053 
Q 4381 2053 4226 1822 
Q 4072 1591 4072 1178 
Q 4072 772 4226 539 
Q 4381 306 4653 306 
Q 4919 306 5073 539 
Q 5228 772 5228 1178 
Q 5228 1588 5073 1820 
Q 4919 2053 4653 2053 
z
M 4653 2450 
Q 5147 2450 5437 2106 
Q 5728 1763 5728 1178 
Q 5728 594 5436 251 
Q 5144 -91 4653 -91 
Q 4153 -91 3862 251 
Q 3572 594 3572 1178 
Q 3572 1766 3864 2108 
Q 4156 2450 4653 2450 
z
M 1428 4353 
Q 1159 4353 1004 4120 
Q 850 3888 850 3481 
Q 850 3069 1003 2837 
Q 1156 2606 1428 2606 
Q 1700 2606 1854 2837 
Q 2009 3069 2009 3481 
Q 2009 3884 1853 4118 
Q 1697 4353 1428 4353 
z
M 4250 4750 
L 4750 4750 
L 1831 -91 
L 1331 -91 
L 4250 4750 
z
M 1428 4750 
Q 1922 4750 2215 4408 
Q 2509 4066 2509 3481 
Q 2509 2891 2217 2550 
Q 1925 2209 1428 2209 
Q 931 2209 642 2551 
Q 353 2894 353 3481 
Q 353 4063 643 4406 
Q 934 4750 1428 4750 
z
" transform="scale(0.015625)"/>
       <path id="DejaVuSans-29" d="M 513 4856 
L 1013 4856 
Q 1481 4119 1714 3412 
Q 1947 2706 1947 2009 
Q 1947 1309 1714 600 
Q 1481 -109 1013 -844 
L 513 -844 
Q 928 -128 1133 580 
Q 1338 1288 1338 2009 
Q 1338 2731 1133 3434 
Q 928 4138 513 4856 
z
" transform="scale(0.015625)"/>
      </defs>
      <use xlink:href="#DejaVuSans-52"/>
      <use xlink:href="#DejaVuSans-65" x="64.982422"/>
      <use xlink:href="#DejaVuSans-74" x="126.505859"/>
      <use xlink:href="#DejaVuSans-75" x="165.714844"/>
      <use xlink:href="#DejaVuSans-72" x="229.09375"/>
      <use xlink:href="#DejaVuSans-6e" x="268.457031"/>
      <use xlink:href="#DejaVuSans-73" x="331.835938"/>
      <use xlink:href="#DejaVuSans-20" x="383.935547"/>
      <use xlink:href="#DejaVuSans-28" x="415.722656"/>
      <use xlink:href="#DejaVuSans-25" x="454.736328"/>
      <use xlink:href="#DejaVuSans-29" x="549.755859"/>
     </g>
    </g>
   </g>
   <g id="line2d_31">
    <path d="M 87.494091 128.605982 
L 87.873389 128.605982 
L 88.252688 89.549225 
L 137.182191 89.549225 
L 137.561489 77.543075 
L 137.940788 76.46466 
L 138.320086 61.07968 
L 138.699385 69.490859 
L 139.83728 72.366377 
L 140.216579 60.719954 
L 140.595877 63.020369 
L 140.975176 81.784942 
L 141.354474 72.726104 
L 142.871668 84.300735 
L 143.250966 89.261291 
L 143.630265 91.777847 
L 144.009563 105.07779 
L 145.147459 105.221375 
L 145.526757 76.033141 
L 145.906056 60.14485 
L 171.698352 60.14485 
L 172.07765 44.819538 
L 172.456949 90.008374 
L 172.836247 80.412122 
L 173.215546 58.712585 
L 174.353441 45.105687 
L 174.73274 59.858701 
L 175.491337 44.676084 
L 175.870635 81.700933 
L 177.008531 66.66177 
L 177.387829 74.253458 
L 177.767128 65.086051 
L 178.146426 45.750093 
L 178.525724 43.387273 
L 180.042918 51.837409 
L 189.146082 51.837409 
L 190.283977 50.252838 
L 191.042574 99.898997 
L 191.421873 92.108831 
L 191.801171 70.25656 
L 192.939066 76.660488 
L 193.318365 100.690933 
L 193.697663 88.609367 
L 236.937689 88.609367 
L 238.075585 77.401363 
L 238.454883 60.742505 
L 246.420151 60.742505 
L 246.79945 73.887789 
L 247.178748 137.42437 
L 247.558047 163.952066 
L 248.695942 105.863801 
L 249.07524 146.424604 
L 249.454539 103.495022 
L 249.833837 157.675365 
L 251.351031 296.294604 
L 251.73033 251.884692 
L 252.109628 251.884692 
L 252.488927 338.059832 
L 254.006121 338.059832 
L 254.385419 327.030117 
L 255.523315 327.030117 
L 256.66121 364.899225 
L 260.074896 364.899225 
L 260.454195 352.966415 
L 297.625445 352.966415 
L 298.004744 340.658628 
L 299.142639 344.553037 
L 299.521937 338.434084 
L 299.901236 326.543399 
L 300.280534 329.880944 
L 300.659833 329.74191 
L 301.797728 329.74191 
L 302.177027 322.648991 
L 321.521249 322.648991 
L 321.900547 322.515596 
L 323.038443 309.57285 
L 323.417741 312.642318 
L 323.79704 307.43854 
L 324.555637 321.448441 
L 326.072831 344.427892 
L 326.452129 357.990118 
L 326.831428 356.920868 
L 327.210726 350.240674 
L 328.348621 335.609197 
L 328.72792 343.225247 
L 329.107218 336.544354 
L 329.486517 333.80523 
L 329.865815 328.727863 
L 331.003711 316.568722 
L 331.383009 323.650496 
L 331.762308 312.026329 
L 339.348277 312.026329 
L 339.727576 329.643305 
L 340.106874 324.128829 
L 340.486173 322.123974 
L 341.624068 308.301849 
L 342.003366 291.61618 
L 427.724821 291.61618 
L 428.10412 311.685124 
L 429.242015 294.163009 
L 429.621314 293.405302 
L 430.000612 291.60805 
L 430.759209 271.562413 
L 432.276403 280.700427 
L 432.655702 278.253325 
L 438.724477 278.253325 
L 439.862373 301.496745 
L 440.620969 268.71222 
L 441.000268 277.095201 
L 441.379566 275.385426 
L 461.482385 275.385426 
L 461.861684 267.290838 
L 462.620281 267.290838 
L 463.758176 287.976049 
L 464.137475 289.466947 
L 464.516773 277.814198 
L 464.896072 257.355919 
L 466.413266 241.818921 
L 466.792564 257.126348 
L 467.171863 255.374213 
L 489.171174 255.374213 
L 490.309069 252.161263 
L 490.688368 275.270923 
L 491.067666 284.747653 
L 491.446965 261.330944 
L 491.826263 275.577971 
L 492.964159 264.637237 
L 493.343457 249.230797 
L 494.102054 257.147723 
L 494.481353 256.108672 
L 495.619248 266.978171 
L 495.998547 261.235146 
L 496.377845 258.682963 
L 496.757143 249.940692 
L 497.136442 249.940692 
L 498.274337 268.314103 
L 498.653636 249.940692 
L 499.032934 243.729888 
L 510.411889 243.729888 
L 511.549784 240.631501 
L 511.929082 240.15291 
L 512.308381 237.455654 
L 512.687679 244.902849 
L 525.204529 244.902849 
L 525.583827 219.649181 
L 525.963126 223.397486 
L 526.342424 223.397486 
L 527.48032 262.375739 
L 528.997514 262.375739 
L 530.135409 255.033925 
L 543.410856 255.033925 
L 543.790154 240.956433 
L 544.548751 240.956433 
L 544.92805 269.425451 
L 546.445243 269.425451 
L 546.824542 268.767753 
L 547.583139 268.767753 
L 548.721034 265.905367 
L 549.85893 265.905367 
L 550.238228 272.966503 
L 554.78981 272.966503 
L 555.169108 278.218645 
L 565.030869 278.218645 
L 565.410167 268.694725 
L 565.789466 291.99618 
L 566.168764 290.516661 
L 568.444555 290.516661 
L 568.823853 258.971574 
L 596.89194 258.971574 
L 597.650537 224.939203 
L 598.029836 216.003797 
L 599.167731 207.156278 
L 599.54703 246.970568 
L 599.926328 249.335796 
L 600.305627 246.576439 
L 600.684925 255.598825 
L 601.822821 245.963047 
L 602.202119 259.481676 
L 602.960716 293.399886 
L 603.340014 305.350153 
L 604.857208 321.342735 
L 605.236507 307.678686 
L 605.995104 324.638017 
L 607.132999 305.086494 
L 636.71828 305.086494 
L 637.097579 291.939389 
L 637.476877 299.901918 
L 637.856176 295.680067 
L 639.373369 295.605953 
L 639.752668 298.938813 
L 640.131966 287.56931 
L 640.511265 290.420998 
L 642.028459 287.199119 
L 642.407757 274.310844 
L 642.787056 281.495744 
L 643.166354 262.57077 
L 644.30425 266.126352 
L 644.683548 260.719054 
L 663.648472 260.719054 
L 664.02777 264.952806 
L 664.407069 251.427562 
L 665.544964 250.528212 
L 665.924263 274.057045 
L 666.303561 277.878611 
L 666.682859 312.572229 
L 667.062158 326.996823 
L 668.200053 354.496792 
L 668.579352 342.02047 
L 668.95865 360.116674 
L 669.337949 348.427428 
L 669.717247 369.745758 
L 670.855143 363.114252 
L 671.234441 347.907966 
L 671.61374 347.907966 
L 671.993038 352.759432 
L 687.164977 352.759432 
L 687.923574 367.965562 
L 688.302872 354.105572 
L 689.440768 352.577441 
L 689.820066 352.577441 
L 690.199365 356.258699 
L 692.475156 356.258699 
L 692.854454 343.624488 
L 698.164633 343.624488 
L 698.543931 336.372445 
L 726.612018 336.372445 
L 726.991317 348.480115 
L 727.370615 349.825301 
L 727.749914 353.369041 
L 728.129212 354.090816 
L 729.267108 354.5175 
L 729.646406 360.259463 
L 730.025705 354.845489 
L 730.405003 356.453199 
L 730.784301 354.451703 
L 731.922197 350.776701 
L 732.301495 345.198898 
L 732.680794 344.247166 
L 733.060092 346.839507 
L 733.439391 341.917682 
L 734.956585 348.283056 
L 735.715182 350.415813 
L 736.09448 349.497312 
L 737.232376 347.200394 
L 737.611674 341.78642 
L 737.990972 342.639456 
L 738.370271 336.766231 
L 738.749569 340.605394 
L 739.887465 338.341375 
L 742.542554 338.341375 
L 742.921853 347.323295 
L 743.301151 348.44599 
L 744.059748 348.44599 
L 745.197643 354.172336 
L 751.266419 354.172336 
L 751.645717 362.190893 
L 754.300807 362.190893 
L 754.680105 373.532727 
L 778.575909 373.532727 
L 778.575909 373.532727 
" clip-path="url(#pd7b4e65a87)" style="fill: none; stroke: #d62728; stroke-width: 1.5; stroke-linecap: square"/>
   </g>
   <g id="patch_3">
    <path d="M 52.94 390.04 
L 52.94 26.88 
" style="fill: none; stroke: #000000; stroke-width: 0.8; stroke-linejoin: miter; stroke-linecap: square"/>
   </g>
   <g id="patch_4">
    <path d="M 813.13 390.04 
L 813.13 26.88 
" style="fill: none; stroke: #000000; stroke-width: 0.8; stroke-linejoin: miter; stroke-linecap: square"/>
   </g>
   <g id="patch_5">
    <path d="M 52.94 390.04 
L 813.13 390.04 
" style="fill: none; stroke: #000000; stroke-width: 0.8; stroke-linejoin: miter; stroke-linecap: square"/>
   </g>
   <g id="patch_6">
    <path d="M 52.94 26.88 
L 813.13 26.88 
" style="fill: none; stroke: #000000; stroke-width: 0.8; stroke-linejoin: miter; stroke-linecap: square"/>
   </g>
  </g>
  <g id="axes_2">
   <g id="matplotlib.axis_3">
    <g id="ytick_10">
     <g id="line2d_32">
      <defs>
       <path id="m41809c8c04" d="M 0 0 
L 3.5 0 
" style="stroke: #000000; stroke-width: 0.8"/>
      </defs>
      <g>
       <use xlink:href="#m41809c8c04" x="813.13" y="359.149399" style="stroke: #000000; stroke-width: 0.8"/>
      </g>
     </g>
     <g id="text_18">
      <!-- 20 -->
      <g style="fill: #1f77b4" transform="translate(820.13 362.948618) scale(0.1 -0.1)">
       <use xlink:href="#DejaVuSans-32"/>
       <use xlink:href="#DejaVuSans-30" x="63.623047"/>
      </g>
     </g>
    </g>
    <g id="ytick_11">
     <g id="line2d_33">
      <g>
       <use xlink:href="#m41809c8c04" x="813.13" y="309.585042" style="stroke: #000000; stroke-width: 0.8"/>
      </g>
     </g>
     <g id="text_19">
      <!-- 40 -->
      <g style="fill: #1f77b4" transform="translate(820.13 313.384261) scale(0.1 -0.1)">
       <use xlink:href="#DejaVuSans-34"/>
       <use xlink:href="#DejaVuSans-30" x="63.623047"/>
      </g>
     </g>
    </g>
    <g id="ytick_12">
     <g id="line2d_34">
      <g>
       <use xlink:href="#m41809c8c04" x="813.13" y="260.020685" style="stroke: #000000; stroke-width: 0.8"/>
      </g>
     </g>
     <g id="text_20">
      <!-- 60 -->
      <g style="fill: #1f77b4" transform="translate(820.13 263.819904) scale(0.1 -0.1)">
       <use xlink:href="#DejaVuSans-36"/>
       <use xlink:href="#DejaVuSans-30" x="63.623047"/>
      </g>
     </g>
    </g>
    <g id="ytick_13">
     <g id="line2d_35">
      <g>
       <use xlink:href="#m41809c8c04" x="813.13" y="210.456328" style="stroke: #000000; stroke-width: 0.8"/>
      </g>
     </g>
     <g id="text_21">
      <!-- 80 -->
      <g style="fill: #1f77b4" transform="translate(820.13 214.255547) scale(0.1 -0.1)">
       <defs>
        <path id="DejaVuSans-38" d="M 2034 2216 
Q 1584 2216 1326 1975 
Q 1069 1734 1069 1313 
Q 1069 891 1326 650 
Q 1584 409 2034 409 
Q 2484 409 2743 651 
Q 3003 894 3003 1313 
Q 3003 1734 2745 1975 
Q 2488 2216 2034 2216 
z
M 1403 2484 
Q 997 2584 770 2862 
Q 544 3141 544 3541 
Q 544 4100 942 4425 
Q 1341 4750 2034 4750 
Q 2731 4750 3128 4425 
Q 3525 4100 3525 3541 
Q 3525 3141 3298 2862 
Q 3072 2584 2669 2484 
Q 3125 2378 3379 2068 
Q 3634 1759 3634 1313 
Q 3634 634 3220 271 
Q 2806 -91 2034 -91 
Q 1263 -91 848 271 
Q 434 634 434 1313 
Q 434 1759 690 2068 
Q 947 2378 1403 2484 
z
M 1172 3481 
Q 1172 3119 1398 2916 
Q 1625 2713 2034 2713 
Q 2441 2713 2670 2916 
Q 2900 3119 2900 3481 
Q 2900 3844 2670 4047 
Q 2441 4250 2034 4250 
Q 1625 4250 1398 4047 
Q 1172 3844 1172 3481 
z
" transform="scale(0.015625)"/>
       </defs>
       <use xlink:href="#DejaVuSans-38"/>
       <use xlink:href="#DejaVuSans-30" x="63.623047"/>
      </g>
     </g>
    </g>
    <g id="ytick_14">
     <g id="line2d_36">
      <g>
       <use xlink:href="#m41809c8c04" x="813.13" y="160.891972" style="stroke: #000000; stroke-width: 0.8"/>
      </g>
     </g>
     <g id="text_22">
      <!-- 100 -->
      <g style="fill: #1f77b4" transform="translate(820.13 164.69119) scale(0.1 -0.1)">
       <use xlink:href="#DejaVuSans-31"/>
       <use xlink:href="#DejaVuSans-30" x="63.623047"/>
       <use xlink:href="#DejaVuSans-30" x="127.246094"/>
      </g>
     </g>
    </g>
    <g id="ytick_15">
     <g id="line2d_37">
      <g>
       <use xlink:href="#m41809c8c04" x="813.13" y="111.327615" style="stroke: #000000; stroke-width: 0.8"/>
      </g>
     </g>
     <g id="text_23">
      <!-- 120 -->
      <g style="fill: #1f77b4" transform="translate(820.13 115.126834) scale(0.1 -0.1)">
       <use xlink:href="#DejaVuSans-31"/>
       <use xlink:href="#DejaVuSans-32" x="63.623047"/>
       <use xlink:href="#DejaVuSans-30" x="127.246094"/>
      </g>
     </g>
    </g>
    <g id="ytick_16">
     <g id="line2d_38">
      <g>
       <use xlink:href="#m41809c8c04" x="813.13" y="61.763258" style="stroke: #000000; stroke-width: 0.8"/>
      </g>
     </g>
     <g id="text_24">
      <!-- 140 -->
      <g style="fill: #1f77b4" transform="translate(820.13 65.562477) scale(0.1 -0.1)">
       <use xlink:href="#DejaVuSans-31"/>
       <use xlink:href="#DejaVuSans-34" x="63.623047"/>
       <use xlink:href="#DejaVuSans-30" x="127.246094"/>
      </g>
     </g>
    </g>
    <g id="text_25">
     <!-- Close Price -->
     <g style="fill: #1f77b4" transform="translate(850.815938 235.867812) rotate(-90) scale(0.1 -0.1)">
      <defs>
       <path id="DejaVuSans-43" d="M 4122 4306 
L 4122 3641 
Q 3803 3938 3442 4084 
Q 3081 4231 2675 4231 
Q 1875 4231 1450 3742 
Q 1025 3253 1025 2328 
Q 1025 1406 1450 917 
Q 1875 428 2675 428 
Q 3081 428 3442 575 
Q 3803 722 4122 1019 
L 4122 359 
Q 3791 134 3420 21 
Q 3050 -91 2638 -91 
Q 1578 -91 968 557 
Q 359 1206 359 2328 
Q 359 3453 968 4101 
Q 1578 4750 2638 4750 
Q 3056 4750 3426 4639 
Q 3797 4528 4122 4306 
z
" transform="scale(0.015625)"/>
       <path id="DejaVuSans-6c" d="M 603 4863 
L 1178 4863 
L 1178 0 
L 603 0 
L 603 4863 
z
" transform="scale(0.015625)"/>
       <path id="DejaVuSans-6f" d="M 1959 3097 
Q 1497 3097 1228 2736 
Q 959 2375 959 1747 
Q 959 1119 1226 758 
Q 1494 397 1959 397 
Q 2419 397 2687 759 
Q 2956 1122 2956 1747 
Q 2956 2369 2687 2733 
Q 2419 3097 1959 3097 
z
M 1959 3584 
Q 2709 3584 3137 3096 
Q 3566 2609 3566 1747 
Q 3566 888 3137 398 
Q 2709 -91 1959 -91 
Q 1206 -91 779 398 
Q 353 888 353 1747 
Q 353 2609 779 3096 
Q 1206 3584 1959 3584 
z
" transform="scale(0.015625)"/>
       <path id="DejaVuSans-50" d="M 1259 4147 
L 1259 2394 
L 2053 2394 
Q 2494 2394 2734 2622 
Q 2975 2850 2975 3272 
Q 2975 3691 2734 3919 
Q 2494 4147 2053 4147 
L 1259 4147 
z
M 628 4666 
L 2053 4666 
Q 2838 4666 3239 4311 
Q 3641 3956 3641 3272 
Q 3641 2581 3239 2228 
Q 2838 1875 2053 1875 
L 1259 1875 
L 1259 0 
L 628 0 
L 628 4666 
z
" transform="scale(0.015625)"/>
       <path id="DejaVuSans-69" d="M 603 3500 
L 1178 3500 
L 1178 0 
L 603 0 
L 603 3500 
z
M 603 4863 
L 1178 4863 
L 1178 4134 
L 603 4134 
L 603 4863 
z
" transform="scale(0.015625)"/>
       <path id="DejaVuSans-63" d="M 3122 3366 
L 3122 2828 
Q 2878 2963 2633 3030 
Q 2388 3097 2138 3097 
Q 1578 3097 1268 2742 
Q 959 2388 959 1747 
Q 959 1106 1268 751 
Q 1578 397 2138 397 
Q 2388 397 2633 464 
Q 2878 531 3122 666 
L 3122 134 
Q 2881 22 2623 -34 
Q 2366 -91 2075 -91 
Q 1284 -91 818 406 
Q 353 903 353 1747 
Q 353 2603 823 3093 
Q 1294 3584 2113 3584 
Q 2378 3584 2631 3529 
Q 2884 3475 3122 3366 
z
" transform="scale(0.015625)"/>
      </defs>
      <use xlink:href="#DejaVuSans-43"/>
      <use xlink:href="#DejaVuSans-6c" x="69.824219"/>
      <use xlink:href="#DejaVuSans-6f" x="97.607422"/>
      <use xlink:href="#DejaVuSans-73" x="158.789062"/>
      <use xlink:href="#DejaVuSans-65" x="210.888672"/>
      <use xlink:href="#DejaVuSans-20" x="272.412109"/>
      <use xlink:href="#DejaVuSans-50" x="304.199219"/>
      <use xlink:href="#DejaVuSans-72" x="362.751953"/>
      <use xlink:href="#DejaVuSans-69" x="403.865234"/>
      <use xlink:href="#DejaVuSans-63" x="431.648438"/>
      <use xlink:href="#DejaVuSans-65" x="486.628906"/>
     </g>
    </g>
   </g>
   <g id="line2d_39">
    <path d="M 87.494091 304.101985 
L 87.873389 309.873754 
L 88.252688 300.983396 
L 89.390583 299.33092 
L 90.528479 294.397284 
L 90.907777 294.117989 
L 92.045673 293.117037 
L 92.424971 290.301038 
L 92.80427 284.576107 
L 93.183568 282.621041 
L 93.562866 277.268338 
L 95.08006 281.015155 
L 95.459359 280.712565 
L 95.838657 279.595632 
L 96.217956 275.801976 
L 97.355851 276.337271 
L 97.73515 277.338224 
L 98.114448 274.312567 
L 98.493747 274.429044 
L 98.873045 272.264568 
L 100.010941 270.00716 
L 100.390239 269.634683 
L 100.769537 270.937978 
L 101.148836 273.172339 
L 101.528134 274.033272 
L 102.66603 272.823159 
L 103.045328 268.866684 
L 103.424627 267.261046 
L 103.803925 270.286455 
L 104.183224 263.9328 
L 105.700418 263.281276 
L 106.079716 262.280572 
L 106.459015 263.97939 
L 106.838313 263.001981 
L 107.976208 262.443391 
L 108.355507 263.048572 
L 108.734805 262.140801 
L 109.114104 262.210686 
L 109.493402 260.209278 
L 111.010596 263.304572 
L 111.389895 265.980799 
L 111.769193 269.588341 
L 112.148492 269.681274 
L 113.665686 263.397505 
L 114.044984 260.651392 
L 114.424283 259.115392 
L 114.803581 257.067393 
L 115.941476 254.437508 
L 116.320775 257.012872 
L 116.700073 263.288215 
L 117.079372 261.211964 
L 117.45867 270.846284 
L 118.596566 271.919352 
L 118.975864 267.510355 
L 119.355163 269.026777 
L 119.734461 265.597667 
L 120.11376 264.407874 
L 121.251655 257.152891 
L 121.630953 256.593062 
L 122.768849 253.397152 
L 123.906744 253.350562 
L 124.286043 256.453043 
L 124.665341 254.376792 
L 125.04464 253.140409 
L 125.423938 246.515389 
L 126.561834 248.684821 
L 126.941132 246.725294 
L 127.320431 246.958495 
L 127.699729 247.588458 
L 129.216923 248.941564 
L 129.596221 245.512207 
L 129.97552 245.39573 
L 130.354818 244.602453 
L 130.734117 240.730238 
L 131.872012 238.047319 
L 132.251311 235.784706 
L 132.630609 239.633626 
L 133.009908 239.28395 
L 133.389206 235.387943 
L 134.527102 237.440899 
L 134.9064 245.885674 
L 135.285699 246.818723 
L 135.664997 246.982038 
L 136.044295 243.972738 
L 137.182191 255.146774 
L 137.561489 251.251016 
L 137.940788 250.901091 
L 138.320086 245.908969 
L 138.699385 248.638231 
L 139.83728 249.57128 
L 140.216579 245.792245 
L 140.595877 246.538684 
L 140.975176 252.627418 
L 141.354474 249.688004 
L 142.871668 253.443743 
L 143.250966 255.053345 
L 143.630265 255.869918 
L 144.009563 260.185487 
L 145.147459 260.232077 
L 145.526757 250.761072 
L 145.906056 245.605635 
L 146.285354 243.156165 
L 147.802548 239.470312 
L 148.181847 239.727055 
L 148.561145 241.756468 
L 148.940444 241.639991 
L 149.319742 240.333475 
L 150.457637 242.549745 
L 150.836936 238.95732 
L 151.216234 238.070862 
L 151.595533 234.828114 
L 151.974831 237.324175 
L 153.112727 239.400426 
L 153.492025 242.954686 
L 153.871324 245.363018 
L 154.250622 241.411252 
L 154.629921 235.729442 
L 156.147115 229.836983 
L 156.526413 225.020071 
L 157.28501 224.108335 
L 158.422905 226.095866 
L 158.802204 223.66399 
L 159.181502 224.342031 
L 159.560801 222.82214 
L 159.940099 220.671047 
L 161.077995 222.144099 
L 161.457293 224.13163 
L 161.836592 227.709185 
L 162.21589 224.13163 
L 162.595189 228.176825 
L 163.733084 227.381813 
L 164.491681 218.356143 
L 164.870979 221.88686 
L 165.250278 216.462041 
L 166.388173 219.454985 
L 166.767472 219.876034 
L 167.14677 223.242941 
L 167.526069 231.099635 
L 167.905367 233.040328 
L 169.043263 249.431508 
L 169.422561 242.580475 
L 169.80186 243.258515 
L 170.181158 234.630352 
L 170.560457 236.617883 
L 171.698352 244.591301 
L 172.07765 239.587531 
L 172.456949 254.341849 
L 172.836247 251.208638 
L 173.215546 244.123661 
L 174.353441 239.68096 
L 174.73274 244.497872 
L 175.491337 239.540693 
L 175.870635 251.62944 
L 177.008531 246.719099 
L 177.387829 249.197812 
L 177.767128 246.204621 
L 178.146426 239.891361 
L 178.525724 239.119892 
L 180.042918 241.878891 
L 180.801515 229.29921 
L 181.180814 229.065266 
L 182.318709 227.264841 
L 182.698008 229.907117 
L 183.077306 228.410521 
L 183.456605 224.388869 
L 183.835903 223.66399 
L 184.973799 224.038201 
L 185.353097 222.190938 
L 185.732395 221.67646 
L 186.111694 222.424634 
L 186.490992 225.534549 
L 187.628888 224.856509 
L 188.008186 228.602583 
L 188.387485 225.510015 
L 188.766783 225.603939 
L 189.146082 227.384291 
L 190.283977 226.821983 
L 191.042574 244.439634 
L 191.421873 241.675182 
L 191.801171 233.920591 
L 192.939066 236.193116 
L 193.318365 244.720664 
L 194.45626 232.304049 
L 195.594156 231.413873 
L 195.973454 226.423734 
L 196.352753 227.079718 
L 197.11135 226.306762 
L 198.249245 220.49658 
L 198.628544 225.275823 
L 199.007842 223.870178 
L 199.387141 221.503976 
L 199.766439 220.332522 
L 200.904334 218.575466 
L 201.662931 216.279645 
L 202.04223 219.06764 
L 202.421528 213.21062 
L 203.559424 212.132843 
L 203.938722 213.655708 
L 204.318021 211.922194 
L 204.697319 209.227876 
L 205.076618 208.970141 
L 206.214513 209.251419 
L 206.593811 209.719802 
L 206.97311 210.750741 
L 207.731707 206.510262 
L 208.869602 205.198294 
L 209.248901 202.527766 
L 209.628199 204.519014 
L 210.007498 208.05667 
L 210.386796 205.549705 
L 211.524692 201.449989 
L 212.283289 196.202115 
L 213.041886 197.631303 
L 214.179781 203.98025 
L 214.559079 208.173642 
L 214.938378 204.612691 
L 215.317676 202.129269 
L 215.696975 197.022157 
L 216.83487 198.053096 
L 217.593467 201.028196 
L 217.972766 194.046809 
L 218.352064 194.374925 
L 219.869258 190.884107 
L 220.248557 191.563635 
L 220.627855 189.712654 
L 221.007153 188.541448 
L 222.145049 190.591182 
L 222.524347 189.653177 
L 223.282944 186.416376 
L 223.662243 186.62752 
L 224.800138 188.972906 
L 225.179437 186.74474 
L 225.938034 182.96868 
L 226.317332 187.026266 
L 227.455228 186.909046 
L 227.834526 191.13069 
L 228.593123 182.218275 
L 228.972421 184.610499 
L 230.110317 178.58273 
L 230.489615 180.928115 
L 230.868914 180.388855 
L 231.248212 174.290704 
L 231.627511 171.312134 
L 233.144705 173.375994 
L 233.524003 172.273683 
L 233.903302 171.804556 
L 234.2826 178.793874 
L 235.420495 188.081739 
L 235.799794 182.100808 
L 236.179092 182.523096 
L 236.558391 176.166963 
L 236.937689 190.403581 
L 238.075585 185.243684 
L 238.834182 169.599933 
L 239.21348 169.553095 
L 239.592779 171.851394 
L 240.730674 167.887733 
L 241.109973 165.284365 
L 241.489271 163.783308 
L 242.247868 157.662854 
L 243.765062 161.391085 
L 244.14436 158.904441 
L 244.523659 157.873502 
L 246.040853 186.158394 
L 246.420151 209.846935 
L 246.79945 215.05367 
L 247.178748 240.219972 
L 247.558047 250.727368 
L 248.695942 227.719098 
L 249.07524 243.784889 
L 249.454539 226.780845 
L 249.833837 248.24122 
L 251.351031 303.147128 
L 251.73033 285.556737 
L 252.109628 305.891258 
L 252.488927 334.388037 
L 252.868225 313.162102 
L 254.006121 350.40699 
L 254.385419 347.545639 
L 254.764718 363.541296 
L 255.144016 361.524275 
L 255.523315 366.801392 
L 256.66121 373.532727 
L 257.040508 361.252414 
L 257.419807 355.860556 
L 257.799105 346.259444 
L 258.178404 351.438424 
L 259.316299 348.080439 
L 259.695598 353.235628 
L 260.074896 363.215163 
L 260.454195 360.472024 
L 260.833493 363.380708 
L 261.971389 352.644573 
L 262.350687 351.414881 
L 263.109284 334.55383 
L 264.626478 342.168402 
L 265.005776 339.82723 
L 265.385075 348.103982 
L 265.764373 351.202002 
L 266.143672 342.996127 
L 267.281567 347.560261 
L 267.660866 352.928329 
L 268.040164 350.06673 
L 268.419463 350.72891 
L 270.315955 341.080712 
L 270.695253 334.22274 
L 271.45385 345.810143 
L 272.591746 346.401446 
L 272.971044 345.857477 
L 273.350343 348.718828 
L 274.10894 340.915168 
L 275.246835 343.800061 
L 276.005432 354.323565 
L 276.384731 350.941789 
L 276.764029 351.414881 
L 277.901924 342.712371 
L 278.281223 346.330569 
L 278.660521 342.428615 
L 279.03982 343.398094 
L 279.419118 342.948793 
L 280.936312 335.263344 
L 281.315611 329.067552 
L 282.074208 332.378203 
L 283.212103 329.658606 
L 283.591402 327.648524 
L 283.9707 320.081286 
L 284.349999 318.284082 
L 284.729297 308.517426 
L 285.867192 303.905958 
L 286.246491 308.848516 
L 286.625789 317.007057 
L 287.005088 336.824126 
L 287.384386 330.675419 
L 288.522282 328.074282 
L 288.90158 324.07766 
L 289.280879 326.726379 
L 289.660177 327.151889 
L 290.039476 329.966153 
L 291.177371 329.398641 
L 291.556669 328.5558 
L 291.935968 336.936141 
L 292.315266 332.343508 
L 292.694565 340.013592 
L 293.83246 337.811943 
L 294.211759 334.639824 
L 294.591057 334.118903 
L 294.970356 334.000692 
L 296.48755 331.088786 
L 296.866848 335.302748 
L 297.246147 333.503561 
L 297.625445 337.267479 
L 298.004744 333.077308 
L 299.142639 334.403155 
L 299.521937 332.319965 
L 299.901236 328.271796 
L 300.280534 329.408059 
L 300.659833 329.360725 
L 301.797728 329.360725 
L 302.177027 326.945949 
L 302.556325 325.785895 
L 302.935624 326.188358 
L 303.314922 327.750874 
L 304.832116 327.537748 
L 305.211415 322.826903 
L 305.590713 325.691228 
L 305.970011 325.928145 
L 307.107907 325.454558 
L 307.487205 325.59656 
L 307.866504 322.329773 
L 308.245802 321.856185 
L 308.625101 318.565608 
L 309.762996 318.376272 
L 310.142295 317.405554 
L 310.521593 316.932214 
L 310.900892 318.399815 
L 311.28019 318.163145 
L 312.418086 319.228531 
L 313.176682 321.690393 
L 313.555981 321.998187 
L 313.935279 322.589986 
L 315.452473 316.932214 
L 315.831772 317.642224 
L 316.21107 313.854516 
L 316.590369 311.795117 
L 317.728264 315.156571 
L 318.107563 313.972974 
L 318.486861 309.640802 
L 318.86616 315.606368 
L 319.245458 316.411293 
L 320.762652 322.968905 
L 321.14195 319.630994 
L 321.521249 323.489579 
L 321.900547 323.442245 
L 323.038443 318.849612 
L 323.417741 319.938788 
L 323.79704 318.092268 
L 324.555637 323.063573 
L 326.072831 331.217653 
L 326.452129 336.030105 
L 326.831428 335.650689 
L 327.210726 333.280274 
L 328.348621 328.088408 
L 328.72792 330.790904 
L 329.107218 328.420241 
L 329.486517 327.448284 
L 329.865815 325.64662 
L 331.003711 321.332042 
L 331.383009 323.844955 
L 332.141606 315.974631 
L 332.520905 315.761256 
L 333.6588 312.584429 
L 334.038098 317.68138 
L 334.417397 320.407667 
L 334.796695 318.345046 
L 335.175994 318.084338 
L 336.313889 321.972166 
L 336.693188 319.791334 
L 337.072486 320.218083 
L 337.451785 315.737466 
L 337.831083 314.36255 
L 338.968979 320.478792 
L 339.727576 331.525944 
L 340.106874 329.700488 
L 340.486173 329.036822 
L 341.624068 324.461288 
L 342.003366 318.937836 
L 342.382665 322.043291 
L 342.761963 315.95084 
L 343.141262 318.108129 
L 344.279157 297.554781 
L 344.658456 294.567785 
L 345.037754 296.487909 
L 345.417053 301.916693 
L 345.796351 296.890867 
L 346.934247 289.162544 
L 347.313545 289.755334 
L 347.692844 292.931914 
L 348.072142 291.770373 
L 348.45144 294.875828 
L 349.589336 289.044086 
L 349.968634 276.693144 
L 350.347933 278.660601 
L 351.10653 280.249138 
L 352.244425 287.147505 
L 352.623724 282.003221 
L 353.003022 278.447474 
L 353.382321 278.305224 
L 353.761619 273.279398 
L 354.899515 276.479769 
L 355.278813 276.171479 
L 355.658111 276.882727 
L 356.03741 276.029229 
L 356.416708 279.585224 
L 357.554604 283.87601 
L 357.933902 277.404392 
L 358.313201 276.740477 
L 358.692499 275.60248 
L 359.071798 278.565933 
L 360.209693 274.535855 
L 360.588992 278.360241 
L 360.96829 271.99816 
L 361.347589 271.808081 
L 362.864782 269.6954 
L 363.244081 271.262129 
L 363.623379 269.315489 
L 364.002678 264.37764 
L 365.519872 270.21756 
L 365.89917 268.365836 
L 366.278469 250.537537 
L 366.657767 242.98839 
L 367.037066 244.22279 
L 368.174961 242.1339 
L 368.55426 236.911056 
L 368.933558 237.836918 
L 369.312857 235.510367 
L 369.692155 244.151665 
L 371.209349 242.774767 
L 371.588647 244.768989 
L 371.967946 249.967795 
L 372.347244 252.792715 
L 373.48514 255.712799 
L 373.864438 258.846506 
L 374.243737 272.87644 
L 374.623035 265.303502 
L 375.002334 273.375058 
L 376.140229 267.986173 
L 376.519527 258.086684 
L 376.898826 255.974003 
L 377.278124 246.335718 
L 377.657423 245.623479 
L 379.174617 238.359327 
L 379.933214 239.237607 
L 380.312512 234.988207 
L 382.209005 224.28181 
L 382.588303 226.988024 
L 382.967602 220.91069 
L 384.105497 216.447668 
L 384.484795 213.622747 
L 384.864094 201.919116 
L 385.622691 223.973024 
L 386.760586 207.070587 
L 387.139885 209.064809 
L 387.519183 205.693689 
L 387.898482 213.005423 
L 388.27778 202.18032 
L 389.415676 193.871351 
L 389.794974 198.405746 
L 390.174273 186.986862 
L 390.553571 188.268844 
L 390.932869 181.099608 
L 392.070765 183.639781 
L 392.450063 190.405563 
L 393.20866 183.093582 
L 393.587959 190.547813 
L 394.725854 199.046613 
L 395.105153 207.797944 
L 395.484451 206.252527 
L 396.243048 186.567548 
L 397.380944 192.416142 
L 397.760242 186.995536 
L 398.13954 192.677594 
L 398.518839 185.26004 
L 400.036033 180.100886 
L 400.415331 180.814117 
L 400.79463 178.508135 
L 401.173928 178.127729 
L 401.553227 172.89745 
L 402.691122 169.378876 
L 403.070421 175.322386 
L 403.449719 170.971627 
L 403.829018 171.661067 
L 404.208316 167.048856 
L 405.346211 168.927097 
L 405.72551 181.242105 
L 406.104808 172.20801 
L 406.484107 179.221366 
L 406.863405 166.406998 
L 408.001301 164.14835 
L 408.380599 157.516639 
L 408.759898 156.77813 
L 409.139196 144.463866 
L 409.518495 151.54909 
L 410.65639 147.601289 
L 411.035689 142.134341 
L 411.414987 134.905379 
L 411.794286 124.137523 
L 412.173584 120.023681 
L 413.311479 121.924474 
L 414.070076 147.19734 
L 414.828673 119.523081 
L 415.966569 118.477273 
L 416.345867 129.67634 
L 416.725166 135.596802 
L 417.104464 134.194131 
L 417.483763 127.703678 
L 418.621658 124.635645 
L 419.000956 132.932718 
L 419.380255 130.080289 
L 419.759553 120.26159 
L 422.035344 114.175087 
L 422.793941 110.846841 
L 423.931837 116.41044 
L 424.311135 117.528116 
L 425.069732 134.717035 
L 425.449031 130.578411 
L 426.586926 139.066307 
L 426.966224 137.306772 
L 427.345523 137.259686 
L 428.10412 179.078621 
L 429.242015 163.05496 
L 429.621314 162.36205 
L 430.000612 160.718496 
L 430.759209 142.387119 
L 432.276403 150.74367 
L 432.655702 148.505839 
L 433.035 142.173992 
L 433.414298 143.55436 
L 434.931492 156.12388 
L 435.310791 154.696427 
L 435.690089 170.194458 
L 436.069388 150.411588 
L 437.207283 142.840633 
L 437.586582 151.982778 
L 437.96588 155.885972 
L 438.345179 153.150019 
L 438.724477 163.028691 
L 439.862373 183.097795 
L 440.620969 154.790599 
L 441.000268 162.02873 
L 441.379566 160.552456 
L 442.517462 156.696349 
L 442.89676 156.721131 
L 443.276059 156.909476 
L 443.655357 149.219566 
L 444.034656 154.029786 
L 445.172551 154.840164 
L 445.55185 146.436527 
L 445.931148 151.269052 
L 446.310447 142.07982 
L 446.689745 126.628132 
L 447.82764 124.509255 
L 448.586237 106.822215 
L 448.965536 105.773929 
L 449.344834 111.129357 
L 450.48273 112.938456 
L 451.620625 136.912736 
L 451.999924 130.531325 
L 453.137819 123.579924 
L 453.517118 117.557854 
L 453.896416 108.27445 
L 454.275714 112.653461 
L 454.655013 101.370136 
L 455.792908 112.271816 
L 456.172207 112.916152 
L 456.551505 117.557854 
L 456.930804 114.390692 
L 457.310102 117.914718 
L 458.827296 124.343215 
L 459.206595 126.484395 
L 459.585893 124.343215 
L 459.965192 130.675061 
L 461.103087 121.889779 
L 461.482385 133.103715 
L 461.861684 125.341937 
L 462.240982 126.937909 
L 462.620281 131.197965 
L 463.758176 150.624715 
L 464.137475 152.024908 
L 464.516773 141.081098 
L 464.896072 121.867475 
L 466.413266 107.275729 
L 466.792564 121.65187 
L 467.171863 120.006334 
L 467.551161 133.118584 
L 467.93046 121.079402 
L 469.068355 127.827589 
L 469.447653 112.616288 
L 469.826952 110.779929 
L 470.585549 99.432169 
L 472.482041 113.64227 
L 473.240638 86.344701 
L 474.378534 85.891187 
L 475.137131 67.820022 
L 475.516429 68.608096 
L 475.895727 57.570113 
L 477.033623 57.069513 
L 477.412921 55.305022 
L 477.79222 73.56701 
L 478.171518 59.475863 
L 478.550817 63.72105 
L 479.688712 63.339405 
L 480.447309 53.468663 
L 480.826608 67.344205 
L 481.205906 66.987341 
L 482.343802 62.71985 
L 482.7231 67.797718 
L 483.102398 71.205268 
L 483.860995 66.246354 
L 484.998891 66.461959 
L 485.378189 67.178164 
L 485.757488 77.834501 
L 486.136786 82.101992 
L 486.516085 92.08921 
L 487.65398 79.286736 
L 488.033279 65.103896 
L 488.412577 66.771736 
L 489.171174 98.549924 
L 490.309069 95.308415 
L 490.688368 118.623488 
L 491.067666 128.184453 
L 491.446965 104.559602 
L 491.826263 118.933265 
L 492.964159 107.895283 
L 493.343457 92.351901 
L 494.102054 100.339197 
L 494.481353 99.290911 
L 495.619248 110.257025 
L 495.998547 104.462951 
L 496.377845 101.888083 
L 496.757143 93.068106 
L 497.136442 112.353597 
L 498.274337 129.758121 
L 498.653636 112.353597 
L 499.412233 100.730755 
L 500.929427 91.811649 
L 501.308725 91.836431 
L 501.688024 92.361814 
L 502.067322 94.778076 
L 502.446621 96.091532 
L 503.584516 86.981603 
L 503.963814 64.238998 
L 504.343113 76.915082 
L 504.722411 61.250267 
L 505.10171 50.824404 
L 506.239605 53.525662 
L 506.618904 44.487601 
L 506.998202 43.387273 
L 507.377501 49.030175 
L 507.756799 57.736154 
L 509.273993 80.860405 
L 509.653292 97.360379 
L 510.03259 103.840919 
L 510.411889 122.87611 
L 511.549784 120.100506 
L 511.929082 119.671774 
L 512.308381 117.255512 
L 512.687679 123.926874 
L 513.066978 112.04382 
L 514.204873 102.812458 
L 514.584172 89.779511 
L 514.96347 83.514576 
L 515.342769 95.447195 
L 515.722067 80.357326 
L 516.859963 78.300406 
L 517.239261 65.986141 
L 517.61856 59.790597 
L 517.997858 67.634156 
L 518.377156 85.306327 
L 519.515052 95.806536 
L 519.89435 83.155234 
L 520.273649 81.026445 
L 520.652947 106.326571 
L 521.032246 107.260859 
L 522.54944 113.000412 
L 522.928738 127.012256 
L 523.308037 135.477848 
L 523.687335 110.343762 
L 524.825231 120.100506 
L 525.204529 151.02123 
L 525.583827 130.551151 
L 525.963126 133.589446 
L 526.342424 149.873815 
L 527.48032 179.598551 
L 527.859618 182.683189 
L 528.238917 158.698749 
L 528.997514 168.956836 
L 530.135409 163.098081 
L 530.514708 153.293756 
L 530.894006 130.479282 
L 531.273305 121.463526 
L 531.652603 117.805676 
L 532.790498 118.355841 
L 533.169797 104.294433 
L 533.549095 120.91584 
L 533.928394 115.223373 
L 534.307692 104.462951 
L 535.445588 106.732999 
L 535.824886 101.424656 
L 536.204185 109.746512 
L 536.583483 127.56242 
L 536.962782 129.9539 
L 538.100677 133.183018 
L 538.859274 146.860302 
L 539.238572 148.319972 
L 539.617871 142.270643 
L 540.755766 145.73767 
L 541.135065 154.081829 
L 541.514363 152.456118 
L 541.893662 160.993826 
L 543.410856 158.770617 
L 543.790154 147.338598 
L 544.169453 141.289268 
L 544.548751 155.37298 
L 544.92805 177.781026 
L 546.065945 176.585286 
L 546.445243 195.357538 
L 546.824542 194.879242 
L 547.20384 186.557387 
L 547.583139 209.729467 
L 548.721034 207.792492 
L 549.100333 199.470637 
L 549.479631 180.794043 
L 549.85893 200.57047 
L 552.134721 231.562566 
L 552.514019 233.379843 
L 552.893318 224.69939 
L 554.031213 229.003806 
L 554.410511 214.344652 
L 554.78981 230.558145 
L 555.169108 233.786519 
L 555.548407 233.953799 
L 556.686302 218.625278 
L 557.065601 220.514423 
L 557.444899 215.349074 
L 558.203496 190.431337 
L 559.72069 193.061717 
L 560.099989 203.440246 
L 560.479287 193.683502 
L 560.858585 203.057609 
L 561.996481 200.833656 
L 562.375779 196.505201 
L 562.755078 207.481724 
L 563.134376 222.188459 
L 563.513675 242.395352 
L 564.65157 258.273789 
L 565.030869 261.502164 
L 565.410167 256.575962 
L 565.789466 268.628527 
L 566.168764 267.863253 
L 567.685958 259.326041 
L 568.065256 259.968147 
L 568.444555 260.830815 
L 568.823853 243.699142 
L 569.961749 245.663874 
L 570.720346 253.930217 
L 571.099644 257.524376 
L 571.478943 251.725842 
L 572.996137 252.372905 
L 573.375435 253.930217 
L 573.754734 247.293302 
L 574.134032 248.898691 
L 575.271927 253.067549 
L 575.651226 255.727173 
L 576.030524 260.495264 
L 576.409823 269.097158 
L 576.789121 255.152226 
L 577.927017 257.164787 
L 578.306315 242.956421 
L 579.064912 237.685251 
L 579.444211 241.255124 
L 580.582106 238.1405 
L 580.961405 245.088927 
L 581.340703 237.110057 
L 581.720001 232.581609 
L 582.0993 225.32167 
L 583.237195 229.802288 
L 583.616494 235.936125 
L 583.995792 228.196899 
L 584.375091 230.137591 
L 584.754389 226.040353 
L 585.892285 226.759284 
L 586.271583 224.315266 
L 586.650882 211.208963 
L 587.03018 204.907351 
L 587.409479 195.083695 
L 588.547374 194.892129 
L 588.926672 190.794892 
L 589.305971 194.029461 
L 589.685269 193.262701 
L 590.064568 206.153399 
L 591.202463 219.619043 
L 591.581762 221.559736 
L 591.96106 218.708546 
L 592.340359 210.178768 
L 592.719657 228.388465 
L 593.857553 232.341966 
L 594.236851 234.714116 
L 594.61615 239.122865 
L 594.995448 237.181925 
L 595.374747 241.686582 
L 596.89194 242.501172 
L 597.650537 223.884056 
L 598.029836 218.996019 
L 599.167731 214.15606 
L 599.54703 235.936125 
L 599.926328 237.230003 
L 600.305627 235.72052 
L 600.684925 240.656139 
L 601.822821 235.384969 
L 602.202119 242.780219 
L 602.960716 261.334884 
L 603.340014 267.872175 
L 604.857208 276.62078 
L 605.236507 269.145979 
L 605.995104 278.423435 
L 607.132999 267.727943 
L 607.512298 251.697095 
L 607.891596 255.27812 
L 608.270895 261.911813 
L 608.650193 272.222439 
L 609.788089 274.193365 
L 610.167387 279.553007 
L 610.546685 280.610462 
L 610.925984 265.060141 
L 611.305282 272.150322 
L 612.443178 262.127914 
L 612.822476 254.725477 
L 613.581073 269.458482 
L 613.960372 257.200969 
L 615.098267 251.024011 
L 615.477566 245.448269 
L 615.856864 244.102101 
L 616.236163 240.232611 
L 616.615461 227.902982 
L 617.753356 231.508293 
L 618.132655 229.489289 
L 618.891252 242.083344 
L 619.27055 232.589788 
L 620.408446 227.75875 
L 620.787744 224.658499 
L 621.167043 233.839553 
L 621.546341 207.16129 
L 621.92564 202.378577 
L 623.063535 211.679825 
L 623.442834 210.309866 
L 624.20143 216.006049 
L 624.580729 211.775979 
L 625.718624 209.85313 
L 626.097923 203.820652 
L 626.477221 201.609339 
L 627.235818 199.133847 
L 628.373714 210.261788 
L 628.753012 206.680764 
L 629.132311 196.730471 
L 629.890908 203.315839 
L 631.408101 223.624835 
L 631.7874 226.41283 
L 632.166698 225.499606 
L 632.545997 227.109952 
L 634.063191 218.553657 
L 634.442489 225.980381 
L 634.821788 236.627548 
L 635.201086 241.098005 
L 636.338982 242.107383 
L 636.71828 240.668034 
L 637.097579 232.095631 
L 637.476877 237.287497 
L 637.856176 234.534693 
L 639.373369 234.486368 
L 639.752668 236.659517 
L 640.131966 229.246176 
L 640.511265 231.105583 
L 642.028459 229.004798 
L 642.407757 220.601161 
L 642.787056 225.285984 
L 643.166354 212.946194 
L 644.30425 215.264567 
L 644.683548 211.738806 
L 645.062847 206.836891 
L 645.442145 205.339552 
L 645.821443 201.234632 
L 647.338637 205.194824 
L 647.717936 216.785945 
L 648.097234 223.643917 
L 648.476533 214.998902 
L 649.614428 208.406594 
L 649.993727 207.70625 
L 650.752324 200.413598 
L 651.131622 200.413598 
L 652.269518 203.190441 
L 652.648816 195.390746 
L 653.028114 195.076756 
L 653.407413 193.748679 
L 653.786711 194.642077 
L 654.924607 195.68045 
L 655.303905 187.904794 
L 655.683204 191.720258 
L 656.062502 199.592565 
L 657.579696 190.392181 
L 657.958995 193.62799 
L 658.338293 192.589617 
L 658.717592 199.689215 
L 659.09689 199.809905 
L 660.614084 212.43915 
L 660.993382 213.743189 
L 661.372681 212.584126 
L 661.751979 212.632451 
L 662.889875 212.487476 
L 663.269173 211.859743 
L 664.02777 216.737619 
L 664.407069 208.02024 
L 665.544964 207.440585 
L 665.924263 222.605544 
L 666.303561 225.068644 
L 666.682859 247.429604 
L 667.062158 256.726638 
L 668.200053 274.4511 
L 668.579352 266.409779 
L 668.95865 278.073263 
L 669.337949 270.539233 
L 669.717247 284.279464 
L 670.855143 280.005282 
L 671.234441 270.204426 
L 671.61374 279.942087 
L 671.993038 282.849037 
L 672.372337 283.115445 
L 673.510232 277.883184 
L 673.88953 278.125553 
L 674.268829 272.384514 
L 674.648127 273.401822 
L 675.027426 269.017359 
L 676.165321 268.145275 
L 676.54462 272.457126 
L 676.923918 272.723534 
L 677.303217 271.633614 
L 678.820411 270.688917 
L 679.199709 267.006781 
L 679.579008 267.806254 
L 679.958306 264.463386 
L 680.337605 259.982025 
L 681.854798 253.538659 
L 682.234097 252.424452 
L 682.613395 253.926252 
L 682.992694 255.888257 
L 684.130589 256.905813 
L 684.509888 264.923591 
L 684.889186 269.138544 
L 685.647783 257.244833 
L 686.785679 258.455938 
L 687.164977 268.847849 
L 687.923574 278.973352 
L 688.302872 269.744221 
L 689.440768 268.726664 
L 689.820066 270.373936 
L 690.199365 272.796394 
L 690.578663 273.668231 
L 690.957962 275.364075 
L 692.095857 272.118106 
L 692.475156 276.042116 
L 692.854454 267.927439 
L 693.233753 265.044776 
L 693.613051 266.788946 
L 694.750947 265.941148 
L 695.509543 276.57518 
L 695.888842 276.672079 
L 696.26814 273.910601 
L 697.785334 273.789416 
L 698.164633 278.391962 
L 698.543931 274.080111 
L 698.92323 265.553554 
L 700.061125 267.781968 
L 700.440424 262.307585 
L 700.819722 260.757212 
L 701.199021 261.169091 
L 701.578319 261.09648 
L 702.716214 261.411213 
L 703.095513 258.843532 
L 703.474811 260.490803 
L 703.85411 254.992133 
L 704.233408 256.009442 
L 706.129901 260.134188 
L 706.509199 263.633183 
L 706.888498 265.541907 
L 708.026393 266.373844 
L 708.405692 263.461938 
L 708.78499 264.07381 
L 709.164288 256.928613 
L 709.543587 253.1357 
L 710.681482 250.150439 
L 711.440079 251.447291 
L 711.819378 255.803006 
L 712.198676 255.215669 
L 713.336572 253.184769 
L 713.71587 247.67916 
L 714.095169 244.59601 
L 714.474467 242.980955 
L 714.853766 246.357775 
L 715.991661 241.732924 
L 716.370959 235.786936 
L 716.750258 233.731255 
L 717.129556 230.256793 
L 717.508855 232.116448 
L 718.64675 226.855439 
L 719.026049 230.795062 
L 719.405347 227.173395 
L 719.784646 234.514372 
L 720.163944 233.706968 
L 721.30184 231.577931 
L 721.681138 231.700355 
L 722.060437 236.471916 
L 722.439735 236.227316 
L 722.819034 238.209394 
L 723.956929 231.431221 
L 724.715526 240.044515 
L 725.094824 239.677491 
L 725.474123 238.747663 
L 726.612018 239.848735 
L 726.991317 248.878122 
L 727.370615 249.881305 
L 727.749914 252.524076 
L 728.129212 253.062345 
L 729.267108 253.380548 
L 729.646406 257.662661 
L 730.025705 253.625148 
L 730.405003 254.82411 
L 730.784301 253.33148 
L 731.922197 250.590818 
L 732.301495 246.43113 
L 732.680794 245.721368 
L 733.060092 247.654626 
L 733.439391 243.984138 
L 734.956585 248.731164 
L 735.715182 250.321684 
L 736.09448 249.636705 
L 737.232376 247.92376 
L 737.611674 243.886248 
L 737.990972 244.522406 
L 738.370271 240.142404 
L 738.749569 243.005489 
L 739.887465 241.317079 
L 740.266763 241.948529 
L 740.646062 245.462642 
L 741.02536 253.547828 
L 741.404659 257.037407 
L 742.542554 256.398522 
L 742.921853 262.493203 
L 743.301151 263.255007 
L 743.68045 260.502699 
L 744.059748 264.287185 
L 745.197643 268.145275 
L 745.576942 275.173748 
L 745.95624 272.151066 
L 746.335539 270.308015 
L 746.714837 266.793655 
L 747.852733 266.793655 
L 748.232031 263.57445 
L 748.61133 262.984634 
L 748.990628 265.835328 
L 749.369927 265.147127 
L 750.507822 260.944813 
L 750.887121 258.413809 
L 751.645717 271.610319 
L 752.025016 278.147362 
L 753.162911 281.047124 
L 753.54221 278.31935 
L 754.300807 280.482091 
L 754.680105 287.731621 
L 755.818001 281.587872 
L 756.197299 277.361023 
L 756.576598 274.87884 
L 756.955896 265.392966 
L 757.335195 259.544124 
L 758.852388 262.026307 
L 759.231687 261.657548 
L 759.610985 263.426996 
L 759.990284 258.487412 
L 761.128179 259.39667 
L 761.507478 250.648065 
L 761.886776 247.748303 
L 762.266075 246.593205 
L 762.645373 243.963568 
L 763.783269 242.366357 
L 764.162567 242.56288 
L 764.541866 240.645978 
L 765.300463 239.441812 
L 766.817656 241.112874 
L 767.196955 237.475842 
L 767.955552 228.530715 
L 769.093447 228.702703 
L 769.852044 233.937195 
L 770.231343 232.167747 
L 770.610641 229.366122 
L 771.748537 225.680021 
L 772.127835 221.920068 
L 772.507134 212.925625 
L 772.886432 207.445294 
L 773.26573 210.959654 
L 774.403626 209.042753 
L 774.782924 204.447146 
L 775.162223 215.186503 
L 775.541521 210.264762 
L 775.92082 209.153529 
L 777.438014 206.782866 
L 778.196611 203.276188 
L 778.575909 204.609717 
L 778.575909 204.609717 
" clip-path="url(#pd7b4e65a87)" style="fill: none; stroke: #1f77b4; stroke-width: 1.5; stroke-linecap: square"/>
   </g>
   <g id="patch_7">
    <path d="M 52.94 390.04 
L 52.94 26.88 
" style="fill: none; stroke: #000000; stroke-width: 0.8; stroke-linejoin: miter; stroke-linecap: square"/>
   </g>
   <g id="patch_8">
    <path d="M 813.13 390.04 
L 813.13 26.88 
" style="fill: none; stroke: #000000; stroke-width: 0.8; stroke-linejoin: miter; stroke-linecap: square"/>
   </g>
   <g id="patch_9">
    <path d="M 52.94 390.04 
L 813.13 390.04 
" style="fill: none; stroke: #000000; stroke-width: 0.8; stroke-linejoin: miter; stroke-linecap: square"/>
   </g>
   <g id="patch_10">
    <path d="M 52.94 26.88 
L 813.13 26.88 
" style="fill: none; stroke: #000000; stroke-width: 0.8; stroke-linejoin: miter; stroke-linecap: square"/>
   </g>
   <g id="text_26">
    <!-- Stock Trading Performance for FAS -->
    <g transform="translate(329.705625 20.88) scale(0.12 -0.12)">
     <defs>
      <path id="DejaVuSans-53" d="M 3425 4513 
L 3425 3897 
Q 3066 4069 2747 4153 
Q 2428 4238 2131 4238 
Q 1616 4238 1336 4038 
Q 1056 3838 1056 3469 
Q 1056 3159 1242 3001 
Q 1428 2844 1947 2747 
L 2328 2669 
Q 3034 2534 3370 2195 
Q 3706 1856 3706 1288 
Q 3706 609 3251 259 
Q 2797 -91 1919 -91 
Q 1588 -91 1214 -16 
Q 841 59 441 206 
L 441 856 
Q 825 641 1194 531 
Q 1563 422 1919 422 
Q 2459 422 2753 634 
Q 3047 847 3047 1241 
Q 3047 1584 2836 1778 
Q 2625 1972 2144 2069 
L 1759 2144 
Q 1053 2284 737 2584 
Q 422 2884 422 3419 
Q 422 4038 858 4394 
Q 1294 4750 2059 4750 
Q 2388 4750 2728 4690 
Q 3069 4631 3425 4513 
z
" transform="scale(0.015625)"/>
      <path id="DejaVuSans-6b" d="M 581 4863 
L 1159 4863 
L 1159 1991 
L 2875 3500 
L 3609 3500 
L 1753 1863 
L 3688 0 
L 2938 0 
L 1159 1709 
L 1159 0 
L 581 0 
L 581 4863 
z
" transform="scale(0.015625)"/>
      <path id="DejaVuSans-54" d="M -19 4666 
L 3928 4666 
L 3928 4134 
L 2272 4134 
L 2272 0 
L 1638 0 
L 1638 4134 
L -19 4134 
L -19 4666 
z
" transform="scale(0.015625)"/>
      <path id="DejaVuSans-64" d="M 2906 2969 
L 2906 4863 
L 3481 4863 
L 3481 0 
L 2906 0 
L 2906 525 
Q 2725 213 2448 61 
Q 2172 -91 1784 -91 
Q 1150 -91 751 415 
Q 353 922 353 1747 
Q 353 2572 751 3078 
Q 1150 3584 1784 3584 
Q 2172 3584 2448 3432 
Q 2725 3281 2906 2969 
z
M 947 1747 
Q 947 1113 1208 752 
Q 1469 391 1925 391 
Q 2381 391 2643 752 
Q 2906 1113 2906 1747 
Q 2906 2381 2643 2742 
Q 2381 3103 1925 3103 
Q 1469 3103 1208 2742 
Q 947 2381 947 1747 
z
" transform="scale(0.015625)"/>
      <path id="DejaVuSans-67" d="M 2906 1791 
Q 2906 2416 2648 2759 
Q 2391 3103 1925 3103 
Q 1463 3103 1205 2759 
Q 947 2416 947 1791 
Q 947 1169 1205 825 
Q 1463 481 1925 481 
Q 2391 481 2648 825 
Q 2906 1169 2906 1791 
z
M 3481 434 
Q 3481 -459 3084 -895 
Q 2688 -1331 1869 -1331 
Q 1566 -1331 1297 -1286 
Q 1028 -1241 775 -1147 
L 775 -588 
Q 1028 -725 1275 -790 
Q 1522 -856 1778 -856 
Q 2344 -856 2625 -561 
Q 2906 -266 2906 331 
L 2906 616 
Q 2728 306 2450 153 
Q 2172 0 1784 0 
Q 1141 0 747 490 
Q 353 981 353 1791 
Q 353 2603 747 3093 
Q 1141 3584 1784 3584 
Q 2172 3584 2450 3431 
Q 2728 3278 2906 2969 
L 2906 3500 
L 3481 3500 
L 3481 434 
z
" transform="scale(0.015625)"/>
      <path id="DejaVuSans-66" d="M 2375 4863 
L 2375 4384 
L 1825 4384 
Q 1516 4384 1395 4259 
Q 1275 4134 1275 3809 
L 1275 3500 
L 2222 3500 
L 2222 3053 
L 1275 3053 
L 1275 0 
L 697 0 
L 697 3053 
L 147 3053 
L 147 3500 
L 697 3500 
L 697 3744 
Q 697 4328 969 4595 
Q 1241 4863 1831 4863 
L 2375 4863 
z
" transform="scale(0.015625)"/>
      <path id="DejaVuSans-6d" d="M 3328 2828 
Q 3544 3216 3844 3400 
Q 4144 3584 4550 3584 
Q 5097 3584 5394 3201 
Q 5691 2819 5691 2113 
L 5691 0 
L 5113 0 
L 5113 2094 
Q 5113 2597 4934 2840 
Q 4756 3084 4391 3084 
Q 3944 3084 3684 2787 
Q 3425 2491 3425 1978 
L 3425 0 
L 2847 0 
L 2847 2094 
Q 2847 2600 2669 2842 
Q 2491 3084 2119 3084 
Q 1678 3084 1418 2786 
Q 1159 2488 1159 1978 
L 1159 0 
L 581 0 
L 581 3500 
L 1159 3500 
L 1159 2956 
Q 1356 3278 1631 3431 
Q 1906 3584 2284 3584 
Q 2666 3584 2933 3390 
Q 3200 3197 3328 2828 
z
" transform="scale(0.015625)"/>
      <path id="DejaVuSans-46" d="M 628 4666 
L 3309 4666 
L 3309 4134 
L 1259 4134 
L 1259 2759 
L 3109 2759 
L 3109 2228 
L 1259 2228 
L 1259 0 
L 628 0 
L 628 4666 
z
" transform="scale(0.015625)"/>
      <path id="DejaVuSans-41" d="M 2188 4044 
L 1331 1722 
L 3047 1722 
L 2188 4044 
z
M 1831 4666 
L 2547 4666 
L 4325 0 
L 3669 0 
L 3244 1197 
L 1141 1197 
L 716 0 
L 50 0 
L 1831 4666 
z
" transform="scale(0.015625)"/>
     </defs>
     <use xlink:href="#DejaVuSans-53"/>
     <use xlink:href="#DejaVuSans-74" x="63.476562"/>
     <use xlink:href="#DejaVuSans-6f" x="102.685547"/>
     <use xlink:href="#DejaVuSans-63" x="163.867188"/>
     <use xlink:href="#DejaVuSans-6b" x="218.847656"/>
     <use xlink:href="#DejaVuSans-20" x="276.757812"/>
     <use xlink:href="#DejaVuSans-54" x="308.544922"/>
     <use xlink:href="#DejaVuSans-72" x="354.878906"/>
     <use xlink:href="#DejaVuSans-61" x="395.992188"/>
     <use xlink:href="#DejaVuSans-64" x="457.271484"/>
     <use xlink:href="#DejaVuSans-69" x="520.748047"/>
     <use xlink:href="#DejaVuSans-6e" x="548.53125"/>
     <use xlink:href="#DejaVuSans-67" x="611.910156"/>
     <use xlink:href="#DejaVuSans-20" x="675.386719"/>
     <use xlink:href="#DejaVuSans-50" x="707.173828"/>
     <use xlink:href="#DejaVuSans-65" x="763.851562"/>
     <use xlink:href="#DejaVuSans-72" x="825.375"/>
     <use xlink:href="#DejaVuSans-66" x="866.488281"/>
     <use xlink:href="#DejaVuSans-6f" x="901.693359"/>
     <use xlink:href="#DejaVuSans-72" x="962.875"/>
     <use xlink:href="#DejaVuSans-6d" x="1002.238281"/>
     <use xlink:href="#DejaVuSans-61" x="1099.650391"/>
     <use xlink:href="#DejaVuSans-6e" x="1160.929688"/>
     <use xlink:href="#DejaVuSans-63" x="1224.308594"/>
     <use xlink:href="#DejaVuSans-65" x="1279.289062"/>
     <use xlink:href="#DejaVuSans-20" x="1340.8125"/>
     <use xlink:href="#DejaVuSans-66" x="1372.599609"/>
     <use xlink:href="#DejaVuSans-6f" x="1407.804688"/>
     <use xlink:href="#DejaVuSans-72" x="1468.986328"/>
     <use xlink:href="#DejaVuSans-20" x="1510.099609"/>
     <use xlink:href="#DejaVuSans-46" x="1541.886719"/>
     <use xlink:href="#DejaVuSans-41" x="1590.28125"/>
     <use xlink:href="#DejaVuSans-53" x="1658.689453"/>
    </g>
   </g>
  </g>
 </g>
 <defs>
  <clipPath id="pd7b4e65a87">
   <rect x="52.94" y="26.88" width="760.19" height="363.16"/>
  </clipPath>
 </defs>
</svg>
