<?xml version="1.0" encoding="utf-8" standalone="no"?>
<!DOCTYPE svg PUBLIC "-//W3C//DTD SVG 1.1//EN"
  "http://www.w3.org/Graphics/SVG/1.1/DTD/svg11.dtd">
<svg xmlns:xlink="http://www.w3.org/1999/xlink" width="864pt" height="432pt" viewBox="0 0 864 432" xmlns="http://www.w3.org/2000/svg" version="1.1">
 <metadata>
  <rdf:RDF xmlns:dc="http://purl.org/dc/elements/1.1/" xmlns:cc="http://creativecommons.org/ns#" xmlns:rdf="http://www.w3.org/1999/02/22-rdf-syntax-ns#">
   <cc:Work>
    <dc:type rdf:resource="http://purl.org/dc/dcmitype/StillImage"/>
    <dc:date>2024-04-18T22:06:55.446321</dc:date>
    <dc:format>image/svg+xml</dc:format>
    <dc:creator>
     <cc:Agent>
      <dc:title>Matplotlib v3.8.2, https://matplotlib.org/</dc:title>
     </cc:Agent>
    </dc:creator>
   </cc:Work>
  </rdf:RDF>
 </metadata>
 <defs>
  <style type="text/css">*{stroke-linejoin: round; stroke-linecap: butt}</style>
 </defs>
 <g id="figure_1">
  <g id="patch_1">
   <path d="M 0 432 
L 864 432 
L 864 0 
L 0 0 
z
" style="fill: #ffffff"/>
  </g>
  <g id="axes_1">
   <g id="patch_2">
    <path d="M 52.85 390.04 
L 813.13 390.04 
L 813.13 26.88 
L 52.85 26.88 
z
" style="fill: #ffffff"/>
   </g>
   <g id="matplotlib.axis_1">
    <g id="xtick_1">
     <g id="line2d_1">
      <path d="M 87.028838 390.04 
L 87.028838 26.88 
" clip-path="url(#p296ec989fe)" style="fill: none; stroke-dasharray: 1.85,0.8; stroke-dashoffset: 0; stroke: #b0b0b0; stroke-opacity: 0.5; stroke-width: 0.5"/>
     </g>
     <g id="line2d_2">
      <defs>
       <path id="mba86242da5" d="M 0 0 
L 0 3.5 
" style="stroke: #000000; stroke-width: 0.8"/>
      </defs>
      <g>
       <use xlink:href="#mba86242da5" x="87.028838" y="390.04" style="stroke: #000000; stroke-width: 0.8"/>
      </g>
     </g>
     <g id="text_1">
      <!-- 2019 -->
      <g transform="translate(74.303838 404.638438) scale(0.1 -0.1)">
       <defs>
        <path id="DejaVuSans-32" d="M 1228 531 
L 3431 531 
L 3431 0 
L 469 0 
L 469 531 
Q 828 903 1448 1529 
Q 2069 2156 2228 2338 
Q 2531 2678 2651 2914 
Q 2772 3150 2772 3378 
Q 2772 3750 2511 3984 
Q 2250 4219 1831 4219 
Q 1534 4219 1204 4116 
Q 875 4013 500 3803 
L 500 4441 
Q 881 4594 1212 4672 
Q 1544 4750 1819 4750 
Q 2544 4750 2975 4387 
Q 3406 4025 3406 3419 
Q 3406 3131 3298 2873 
Q 3191 2616 2906 2266 
Q 2828 2175 2409 1742 
Q 1991 1309 1228 531 
z
" transform="scale(0.015625)"/>
        <path id="DejaVuSans-30" d="M 2034 4250 
Q 1547 4250 1301 3770 
Q 1056 3291 1056 2328 
Q 1056 1369 1301 889 
Q 1547 409 2034 409 
Q 2525 409 2770 889 
Q 3016 1369 3016 2328 
Q 3016 3291 2770 3770 
Q 2525 4250 2034 4250 
z
M 2034 4750 
Q 2819 4750 3233 4129 
Q 3647 3509 3647 2328 
Q 3647 1150 3233 529 
Q 2819 -91 2034 -91 
Q 1250 -91 836 529 
Q 422 1150 422 2328 
Q 422 3509 836 4129 
Q 1250 4750 2034 4750 
z
" transform="scale(0.015625)"/>
        <path id="DejaVuSans-31" d="M 794 531 
L 1825 531 
L 1825 4091 
L 703 3866 
L 703 4441 
L 1819 4666 
L 2450 4666 
L 2450 531 
L 3481 531 
L 3481 0 
L 794 0 
L 794 531 
z
" transform="scale(0.015625)"/>
        <path id="DejaVuSans-39" d="M 703 97 
L 703 672 
Q 941 559 1184 500 
Q 1428 441 1663 441 
Q 2288 441 2617 861 
Q 2947 1281 2994 2138 
Q 2813 1869 2534 1725 
Q 2256 1581 1919 1581 
Q 1219 1581 811 2004 
Q 403 2428 403 3163 
Q 403 3881 828 4315 
Q 1253 4750 1959 4750 
Q 2769 4750 3195 4129 
Q 3622 3509 3622 2328 
Q 3622 1225 3098 567 
Q 2575 -91 1691 -91 
Q 1453 -91 1209 -44 
Q 966 3 703 97 
z
M 1959 2075 
Q 2384 2075 2632 2365 
Q 2881 2656 2881 3163 
Q 2881 3666 2632 3958 
Q 2384 4250 1959 4250 
Q 1534 4250 1286 3958 
Q 1038 3666 1038 3163 
Q 1038 2656 1286 2365 
Q 1534 2075 1959 2075 
z
" transform="scale(0.015625)"/>
       </defs>
       <use xlink:href="#DejaVuSans-32"/>
       <use xlink:href="#DejaVuSans-30" x="63.623047"/>
       <use xlink:href="#DejaVuSans-31" x="127.246094"/>
       <use xlink:href="#DejaVuSans-39" x="190.869141"/>
      </g>
     </g>
    </g>
    <g id="xtick_2">
     <g id="line2d_3">
      <path d="M 225.489172 390.04 
L 225.489172 26.88 
" clip-path="url(#p296ec989fe)" style="fill: none; stroke-dasharray: 1.85,0.8; stroke-dashoffset: 0; stroke: #b0b0b0; stroke-opacity: 0.5; stroke-width: 0.5"/>
     </g>
     <g id="line2d_4">
      <g>
       <use xlink:href="#mba86242da5" x="225.489172" y="390.04" style="stroke: #000000; stroke-width: 0.8"/>
      </g>
     </g>
     <g id="text_2">
      <!-- 2020 -->
      <g transform="translate(212.764172 404.638438) scale(0.1 -0.1)">
       <use xlink:href="#DejaVuSans-32"/>
       <use xlink:href="#DejaVuSans-30" x="63.623047"/>
       <use xlink:href="#DejaVuSans-32" x="127.246094"/>
       <use xlink:href="#DejaVuSans-30" x="190.869141"/>
      </g>
     </g>
    </g>
    <g id="xtick_3">
     <g id="line2d_5">
      <path d="M 364.328848 390.04 
L 364.328848 26.88 
" clip-path="url(#p296ec989fe)" style="fill: none; stroke-dasharray: 1.85,0.8; stroke-dashoffset: 0; stroke: #b0b0b0; stroke-opacity: 0.5; stroke-width: 0.5"/>
     </g>
     <g id="line2d_6">
      <g>
       <use xlink:href="#mba86242da5" x="364.328848" y="390.04" style="stroke: #000000; stroke-width: 0.8"/>
      </g>
     </g>
     <g id="text_3">
      <!-- 2021 -->
      <g transform="translate(351.603848 404.638438) scale(0.1 -0.1)">
       <use xlink:href="#DejaVuSans-32"/>
       <use xlink:href="#DejaVuSans-30" x="63.623047"/>
       <use xlink:href="#DejaVuSans-32" x="127.246094"/>
       <use xlink:href="#DejaVuSans-31" x="190.869141"/>
      </g>
     </g>
    </g>
    <g id="xtick_4">
     <g id="line2d_7">
      <path d="M 502.789182 390.04 
L 502.789182 26.88 
" clip-path="url(#p296ec989fe)" style="fill: none; stroke-dasharray: 1.85,0.8; stroke-dashoffset: 0; stroke: #b0b0b0; stroke-opacity: 0.5; stroke-width: 0.5"/>
     </g>
     <g id="line2d_8">
      <g>
       <use xlink:href="#mba86242da5" x="502.789182" y="390.04" style="stroke: #000000; stroke-width: 0.8"/>
      </g>
     </g>
     <g id="text_4">
      <!-- 2022 -->
      <g transform="translate(490.064182 404.638438) scale(0.1 -0.1)">
       <use xlink:href="#DejaVuSans-32"/>
       <use xlink:href="#DejaVuSans-30" x="63.623047"/>
       <use xlink:href="#DejaVuSans-32" x="127.246094"/>
       <use xlink:href="#DejaVuSans-32" x="190.869141"/>
      </g>
     </g>
    </g>
    <g id="xtick_5">
     <g id="line2d_9">
      <path d="M 641.249515 390.04 
L 641.249515 26.88 
" clip-path="url(#p296ec989fe)" style="fill: none; stroke-dasharray: 1.85,0.8; stroke-dashoffset: 0; stroke: #b0b0b0; stroke-opacity: 0.5; stroke-width: 0.5"/>
     </g>
     <g id="line2d_10">
      <g>
       <use xlink:href="#mba86242da5" x="641.249515" y="390.04" style="stroke: #000000; stroke-width: 0.8"/>
      </g>
     </g>
     <g id="text_5">
      <!-- 2023 -->
      <g transform="translate(628.524515 404.638438) scale(0.1 -0.1)">
       <defs>
        <path id="DejaVuSans-33" d="M 2597 2516 
Q 3050 2419 3304 2112 
Q 3559 1806 3559 1356 
Q 3559 666 3084 287 
Q 2609 -91 1734 -91 
Q 1441 -91 1130 -33 
Q 819 25 488 141 
L 488 750 
Q 750 597 1062 519 
Q 1375 441 1716 441 
Q 2309 441 2620 675 
Q 2931 909 2931 1356 
Q 2931 1769 2642 2001 
Q 2353 2234 1838 2234 
L 1294 2234 
L 1294 2753 
L 1863 2753 
Q 2328 2753 2575 2939 
Q 2822 3125 2822 3475 
Q 2822 3834 2567 4026 
Q 2313 4219 1838 4219 
Q 1578 4219 1281 4162 
Q 984 4106 628 3988 
L 628 4550 
Q 988 4650 1302 4700 
Q 1616 4750 1894 4750 
Q 2613 4750 3031 4423 
Q 3450 4097 3450 3541 
Q 3450 3153 3228 2886 
Q 3006 2619 2597 2516 
z
" transform="scale(0.015625)"/>
       </defs>
       <use xlink:href="#DejaVuSans-32"/>
       <use xlink:href="#DejaVuSans-30" x="63.623047"/>
       <use xlink:href="#DejaVuSans-32" x="127.246094"/>
       <use xlink:href="#DejaVuSans-33" x="190.869141"/>
      </g>
     </g>
    </g>
    <g id="xtick_6">
     <g id="line2d_11">
      <path d="M 779.709848 390.04 
L 779.709848 26.88 
" clip-path="url(#p296ec989fe)" style="fill: none; stroke-dasharray: 1.85,0.8; stroke-dashoffset: 0; stroke: #b0b0b0; stroke-opacity: 0.5; stroke-width: 0.5"/>
     </g>
     <g id="line2d_12">
      <g>
       <use xlink:href="#mba86242da5" x="779.709848" y="390.04" style="stroke: #000000; stroke-width: 0.8"/>
      </g>
     </g>
     <g id="text_6">
      <!-- 2024 -->
      <g transform="translate(766.984848 404.638438) scale(0.1 -0.1)">
       <defs>
        <path id="DejaVuSans-34" d="M 2419 4116 
L 825 1625 
L 2419 1625 
L 2419 4116 
z
M 2253 4666 
L 3047 4666 
L 3047 1625 
L 3713 1625 
L 3713 1100 
L 3047 1100 
L 3047 0 
L 2419 0 
L 2419 1100 
L 313 1100 
L 313 1709 
L 2253 4666 
z
" transform="scale(0.015625)"/>
       </defs>
       <use xlink:href="#DejaVuSans-32"/>
       <use xlink:href="#DejaVuSans-30" x="63.623047"/>
       <use xlink:href="#DejaVuSans-32" x="127.246094"/>
       <use xlink:href="#DejaVuSans-34" x="190.869141"/>
      </g>
     </g>
    </g>
    <g id="text_7">
     <!-- Date -->
     <g transform="translate(421.039219 418.316562) scale(0.1 -0.1)">
      <defs>
       <path id="DejaVuSans-44" d="M 1259 4147 
L 1259 519 
L 2022 519 
Q 2988 519 3436 956 
Q 3884 1394 3884 2338 
Q 3884 3275 3436 3711 
Q 2988 4147 2022 4147 
L 1259 4147 
z
M 628 4666 
L 1925 4666 
Q 3281 4666 3915 4102 
Q 4550 3538 4550 2338 
Q 4550 1131 3912 565 
Q 3275 0 1925 0 
L 628 0 
L 628 4666 
z
" transform="scale(0.015625)"/>
       <path id="DejaVuSans-61" d="M 2194 1759 
Q 1497 1759 1228 1600 
Q 959 1441 959 1056 
Q 959 750 1161 570 
Q 1363 391 1709 391 
Q 2188 391 2477 730 
Q 2766 1069 2766 1631 
L 2766 1759 
L 2194 1759 
z
M 3341 1997 
L 3341 0 
L 2766 0 
L 2766 531 
Q 2569 213 2275 61 
Q 1981 -91 1556 -91 
Q 1019 -91 701 211 
Q 384 513 384 1019 
Q 384 1609 779 1909 
Q 1175 2209 1959 2209 
L 2766 2209 
L 2766 2266 
Q 2766 2663 2505 2880 
Q 2244 3097 1772 3097 
Q 1472 3097 1187 3025 
Q 903 2953 641 2809 
L 641 3341 
Q 956 3463 1253 3523 
Q 1550 3584 1831 3584 
Q 2591 3584 2966 3190 
Q 3341 2797 3341 1997 
z
" transform="scale(0.015625)"/>
       <path id="DejaVuSans-74" d="M 1172 4494 
L 1172 3500 
L 2356 3500 
L 2356 3053 
L 1172 3053 
L 1172 1153 
Q 1172 725 1289 603 
Q 1406 481 1766 481 
L 2356 481 
L 2356 0 
L 1766 0 
Q 1100 0 847 248 
Q 594 497 594 1153 
L 594 3053 
L 172 3053 
L 172 3500 
L 594 3500 
L 594 4494 
L 1172 4494 
z
" transform="scale(0.015625)"/>
       <path id="DejaVuSans-65" d="M 3597 1894 
L 3597 1613 
L 953 1613 
Q 991 1019 1311 708 
Q 1631 397 2203 397 
Q 2534 397 2845 478 
Q 3156 559 3463 722 
L 3463 178 
Q 3153 47 2828 -22 
Q 2503 -91 2169 -91 
Q 1331 -91 842 396 
Q 353 884 353 1716 
Q 353 2575 817 3079 
Q 1281 3584 2069 3584 
Q 2775 3584 3186 3129 
Q 3597 2675 3597 1894 
z
M 3022 2063 
Q 3016 2534 2758 2815 
Q 2500 3097 2075 3097 
Q 1594 3097 1305 2825 
Q 1016 2553 972 2059 
L 3022 2063 
z
" transform="scale(0.015625)"/>
      </defs>
      <use xlink:href="#DejaVuSans-44"/>
      <use xlink:href="#DejaVuSans-61" x="77.001953"/>
      <use xlink:href="#DejaVuSans-74" x="138.28125"/>
      <use xlink:href="#DejaVuSans-65" x="177.490234"/>
     </g>
    </g>
   </g>
   <g id="matplotlib.axis_2">
    <g id="ytick_1">
     <g id="line2d_13">
      <path d="M 52.85 355.865744 
L 813.13 355.865744 
" clip-path="url(#p296ec989fe)" style="fill: none; stroke-dasharray: 1.85,0.8; stroke-dashoffset: 0; stroke: #b0b0b0; stroke-opacity: 0.5; stroke-width: 0.5"/>
     </g>
     <g id="line2d_14">
      <defs>
       <path id="m33abb69b3a" d="M 0 0 
L -3.5 0 
" style="stroke: #000000; stroke-width: 0.8"/>
      </defs>
      <g>
       <use xlink:href="#m33abb69b3a" x="52.85" y="355.865744" style="stroke: #000000; stroke-width: 0.8"/>
      </g>
     </g>
     <g id="text_8">
      <!-- −40 -->
      <g style="fill: #d62728" transform="translate(24.745313 359.664963) scale(0.1 -0.1)">
       <defs>
        <path id="DejaVuSans-2212" d="M 678 2272 
L 4684 2272 
L 4684 1741 
L 678 1741 
L 678 2272 
z
" transform="scale(0.015625)"/>
       </defs>
       <use xlink:href="#DejaVuSans-2212"/>
       <use xlink:href="#DejaVuSans-34" x="83.789062"/>
       <use xlink:href="#DejaVuSans-30" x="147.412109"/>
      </g>
     </g>
    </g>
    <g id="ytick_2">
     <g id="line2d_15">
      <path d="M 52.85 298.877682 
L 813.13 298.877682 
" clip-path="url(#p296ec989fe)" style="fill: none; stroke-dasharray: 1.85,0.8; stroke-dashoffset: 0; stroke: #b0b0b0; stroke-opacity: 0.5; stroke-width: 0.5"/>
     </g>
     <g id="line2d_16">
      <g>
       <use xlink:href="#m33abb69b3a" x="52.85" y="298.877682" style="stroke: #000000; stroke-width: 0.8"/>
      </g>
     </g>
     <g id="text_9">
      <!-- −20 -->
      <g style="fill: #d62728" transform="translate(24.745313 302.676901) scale(0.1 -0.1)">
       <use xlink:href="#DejaVuSans-2212"/>
       <use xlink:href="#DejaVuSans-32" x="83.789062"/>
       <use xlink:href="#DejaVuSans-30" x="147.412109"/>
      </g>
     </g>
    </g>
    <g id="ytick_3">
     <g id="line2d_17">
      <path d="M 52.85 241.88962 
L 813.13 241.88962 
" clip-path="url(#p296ec989fe)" style="fill: none; stroke-dasharray: 1.85,0.8; stroke-dashoffset: 0; stroke: #b0b0b0; stroke-opacity: 0.5; stroke-width: 0.5"/>
     </g>
     <g id="line2d_18">
      <g>
       <use xlink:href="#m33abb69b3a" x="52.85" y="241.88962" style="stroke: #000000; stroke-width: 0.8"/>
      </g>
     </g>
     <g id="text_10">
      <!-- 0 -->
      <g style="fill: #d62728" transform="translate(39.4875 245.688839) scale(0.1 -0.1)">
       <use xlink:href="#DejaVuSans-30"/>
      </g>
     </g>
    </g>
    <g id="ytick_4">
     <g id="line2d_19">
      <path d="M 52.85 184.901558 
L 813.13 184.901558 
" clip-path="url(#p296ec989fe)" style="fill: none; stroke-dasharray: 1.85,0.8; stroke-dashoffset: 0; stroke: #b0b0b0; stroke-opacity: 0.5; stroke-width: 0.5"/>
     </g>
     <g id="line2d_20">
      <g>
       <use xlink:href="#m33abb69b3a" x="52.85" y="184.901558" style="stroke: #000000; stroke-width: 0.8"/>
      </g>
     </g>
     <g id="text_11">
      <!-- 20 -->
      <g style="fill: #d62728" transform="translate(33.125 188.700777) scale(0.1 -0.1)">
       <use xlink:href="#DejaVuSans-32"/>
       <use xlink:href="#DejaVuSans-30" x="63.623047"/>
      </g>
     </g>
    </g>
    <g id="ytick_5">
     <g id="line2d_21">
      <path d="M 52.85 127.913496 
L 813.13 127.913496 
" clip-path="url(#p296ec989fe)" style="fill: none; stroke-dasharray: 1.85,0.8; stroke-dashoffset: 0; stroke: #b0b0b0; stroke-opacity: 0.5; stroke-width: 0.5"/>
     </g>
     <g id="line2d_22">
      <g>
       <use xlink:href="#m33abb69b3a" x="52.85" y="127.913496" style="stroke: #000000; stroke-width: 0.8"/>
      </g>
     </g>
     <g id="text_12">
      <!-- 40 -->
      <g style="fill: #d62728" transform="translate(33.125 131.712715) scale(0.1 -0.1)">
       <use xlink:href="#DejaVuSans-34"/>
       <use xlink:href="#DejaVuSans-30" x="63.623047"/>
      </g>
     </g>
    </g>
    <g id="ytick_6">
     <g id="line2d_23">
      <path d="M 52.85 70.925434 
L 813.13 70.925434 
" clip-path="url(#p296ec989fe)" style="fill: none; stroke-dasharray: 1.85,0.8; stroke-dashoffset: 0; stroke: #b0b0b0; stroke-opacity: 0.5; stroke-width: 0.5"/>
     </g>
     <g id="line2d_24">
      <g>
       <use xlink:href="#m33abb69b3a" x="52.85" y="70.925434" style="stroke: #000000; stroke-width: 0.8"/>
      </g>
     </g>
     <g id="text_13">
      <!-- 60 -->
      <g style="fill: #d62728" transform="translate(33.125 74.724653) scale(0.1 -0.1)">
       <defs>
        <path id="DejaVuSans-36" d="M 2113 2584 
Q 1688 2584 1439 2293 
Q 1191 2003 1191 1497 
Q 1191 994 1439 701 
Q 1688 409 2113 409 
Q 2538 409 2786 701 
Q 3034 994 3034 1497 
Q 3034 2003 2786 2293 
Q 2538 2584 2113 2584 
z
M 3366 4563 
L 3366 3988 
Q 3128 4100 2886 4159 
Q 2644 4219 2406 4219 
Q 1781 4219 1451 3797 
Q 1122 3375 1075 2522 
Q 1259 2794 1537 2939 
Q 1816 3084 2150 3084 
Q 2853 3084 3261 2657 
Q 3669 2231 3669 1497 
Q 3669 778 3244 343 
Q 2819 -91 2113 -91 
Q 1303 -91 875 529 
Q 447 1150 447 2328 
Q 447 3434 972 4092 
Q 1497 4750 2381 4750 
Q 2619 4750 2861 4703 
Q 3103 4656 3366 4563 
z
" transform="scale(0.015625)"/>
       </defs>
       <use xlink:href="#DejaVuSans-36"/>
       <use xlink:href="#DejaVuSans-30" x="63.623047"/>
      </g>
     </g>
    </g>
    <g id="text_14">
     <!-- Returns (%) -->
     <g style="fill: #d62728" transform="translate(18.665625 237.8975) rotate(-90) scale(0.1 -0.1)">
      <defs>
       <path id="DejaVuSans-52" d="M 2841 2188 
Q 3044 2119 3236 1894 
Q 3428 1669 3622 1275 
L 4263 0 
L 3584 0 
L 2988 1197 
Q 2756 1666 2539 1819 
Q 2322 1972 1947 1972 
L 1259 1972 
L 1259 0 
L 628 0 
L 628 4666 
L 2053 4666 
Q 2853 4666 3247 4331 
Q 3641 3997 3641 3322 
Q 3641 2881 3436 2590 
Q 3231 2300 2841 2188 
z
M 1259 4147 
L 1259 2491 
L 2053 2491 
Q 2509 2491 2742 2702 
Q 2975 2913 2975 3322 
Q 2975 3731 2742 3939 
Q 2509 4147 2053 4147 
L 1259 4147 
z
" transform="scale(0.015625)"/>
       <path id="DejaVuSans-75" d="M 544 1381 
L 544 3500 
L 1119 3500 
L 1119 1403 
Q 1119 906 1312 657 
Q 1506 409 1894 409 
Q 2359 409 2629 706 
Q 2900 1003 2900 1516 
L 2900 3500 
L 3475 3500 
L 3475 0 
L 2900 0 
L 2900 538 
Q 2691 219 2414 64 
Q 2138 -91 1772 -91 
Q 1169 -91 856 284 
Q 544 659 544 1381 
z
M 1991 3584 
L 1991 3584 
z
" transform="scale(0.015625)"/>
       <path id="DejaVuSans-72" d="M 2631 2963 
Q 2534 3019 2420 3045 
Q 2306 3072 2169 3072 
Q 1681 3072 1420 2755 
Q 1159 2438 1159 1844 
L 1159 0 
L 581 0 
L 581 3500 
L 1159 3500 
L 1159 2956 
Q 1341 3275 1631 3429 
Q 1922 3584 2338 3584 
Q 2397 3584 2469 3576 
Q 2541 3569 2628 3553 
L 2631 2963 
z
" transform="scale(0.015625)"/>
       <path id="DejaVuSans-6e" d="M 3513 2113 
L 3513 0 
L 2938 0 
L 2938 2094 
Q 2938 2591 2744 2837 
Q 2550 3084 2163 3084 
Q 1697 3084 1428 2787 
Q 1159 2491 1159 1978 
L 1159 0 
L 581 0 
L 581 3500 
L 1159 3500 
L 1159 2956 
Q 1366 3272 1645 3428 
Q 1925 3584 2291 3584 
Q 2894 3584 3203 3211 
Q 3513 2838 3513 2113 
z
" transform="scale(0.015625)"/>
       <path id="DejaVuSans-73" d="M 2834 3397 
L 2834 2853 
Q 2591 2978 2328 3040 
Q 2066 3103 1784 3103 
Q 1356 3103 1142 2972 
Q 928 2841 928 2578 
Q 928 2378 1081 2264 
Q 1234 2150 1697 2047 
L 1894 2003 
Q 2506 1872 2764 1633 
Q 3022 1394 3022 966 
Q 3022 478 2636 193 
Q 2250 -91 1575 -91 
Q 1294 -91 989 -36 
Q 684 19 347 128 
L 347 722 
Q 666 556 975 473 
Q 1284 391 1588 391 
Q 1994 391 2212 530 
Q 2431 669 2431 922 
Q 2431 1156 2273 1281 
Q 2116 1406 1581 1522 
L 1381 1569 
Q 847 1681 609 1914 
Q 372 2147 372 2553 
Q 372 3047 722 3315 
Q 1072 3584 1716 3584 
Q 2034 3584 2315 3537 
Q 2597 3491 2834 3397 
z
" transform="scale(0.015625)"/>
       <path id="DejaVuSans-20" transform="scale(0.015625)"/>
       <path id="DejaVuSans-28" d="M 1984 4856 
Q 1566 4138 1362 3434 
Q 1159 2731 1159 2009 
Q 1159 1288 1364 580 
Q 1569 -128 1984 -844 
L 1484 -844 
Q 1016 -109 783 600 
Q 550 1309 550 2009 
Q 550 2706 781 3412 
Q 1013 4119 1484 4856 
L 1984 4856 
z
" transform="scale(0.015625)"/>
       <path id="DejaVuSans-25" d="M 4653 2053 
Q 4381 2053 4226 1822 
Q 4072 1591 4072 1178 
Q 4072 772 4226 539 
Q 4381 306 4653 306 
Q 4919 306 5073 539 
Q 5228 772 5228 1178 
Q 5228 1588 5073 1820 
Q 4919 2053 4653 2053 
z
M 4653 2450 
Q 5147 2450 5437 2106 
Q 5728 1763 5728 1178 
Q 5728 594 5436 251 
Q 5144 -91 4653 -91 
Q 4153 -91 3862 251 
Q 3572 594 3572 1178 
Q 3572 1766 3864 2108 
Q 4156 2450 4653 2450 
z
M 1428 4353 
Q 1159 4353 1004 4120 
Q 850 3888 850 3481 
Q 850 3069 1003 2837 
Q 1156 2606 1428 2606 
Q 1700 2606 1854 2837 
Q 2009 3069 2009 3481 
Q 2009 3884 1853 4118 
Q 1697 4353 1428 4353 
z
M 4250 4750 
L 4750 4750 
L 1831 -91 
L 1331 -91 
L 4250 4750 
z
M 1428 4750 
Q 1922 4750 2215 4408 
Q 2509 4066 2509 3481 
Q 2509 2891 2217 2550 
Q 1925 2209 1428 2209 
Q 931 2209 642 2551 
Q 353 2894 353 3481 
Q 353 4063 643 4406 
Q 934 4750 1428 4750 
z
" transform="scale(0.015625)"/>
       <path id="DejaVuSans-29" d="M 513 4856 
L 1013 4856 
Q 1481 4119 1714 3412 
Q 1947 2706 1947 2009 
Q 1947 1309 1714 600 
Q 1481 -109 1013 -844 
L 513 -844 
Q 928 -128 1133 580 
Q 1338 1288 1338 2009 
Q 1338 2731 1133 3434 
Q 928 4138 513 4856 
z
" transform="scale(0.015625)"/>
      </defs>
      <use xlink:href="#DejaVuSans-52"/>
      <use xlink:href="#DejaVuSans-65" x="64.982422"/>
      <use xlink:href="#DejaVuSans-74" x="126.505859"/>
      <use xlink:href="#DejaVuSans-75" x="165.714844"/>
      <use xlink:href="#DejaVuSans-72" x="229.09375"/>
      <use xlink:href="#DejaVuSans-6e" x="268.457031"/>
      <use xlink:href="#DejaVuSans-73" x="331.835938"/>
      <use xlink:href="#DejaVuSans-20" x="383.935547"/>
      <use xlink:href="#DejaVuSans-28" x="415.722656"/>
      <use xlink:href="#DejaVuSans-25" x="454.736328"/>
      <use xlink:href="#DejaVuSans-29" x="549.755859"/>
     </g>
    </g>
   </g>
   <g id="line2d_25">
    <path d="M 87.408182 241.88962 
L 87.787525 241.88962 
L 88.166869 216.260128 
L 137.102164 216.260128 
L 137.481508 208.381555 
L 137.860851 207.673886 
L 138.240195 197.578086 
L 138.619538 203.097598 
L 139.757568 204.984546 
L 140.136911 197.34203 
L 140.516255 198.851588 
L 140.895598 211.165117 
L 141.274942 205.220603 
L 142.792315 212.816009 
L 143.171659 216.071183 
L 143.551002 217.722576 
L 143.930345 226.450151 
L 145.068375 226.544373 
L 145.447719 207.390719 
L 145.827062 196.96464 
L 146.206406 192.010962 
L 147.723779 184.556889 
L 148.103122 185.076113 
L 151.137869 185.076113 
L 151.517213 178.58191 
L 151.896556 183.580734 
L 153.034586 187.738811 
L 153.41393 194.856875 
L 153.793273 199.680006 
L 154.172617 191.765863 
L 154.55196 180.386985 
L 156.069333 168.586246 
L 156.448677 158.939487 
L 157.207364 157.113566 
L 158.345394 161.093964 
L 158.724737 156.223684 
L 162.518171 156.223684 
L 163.656201 154.591762 
L 164.035544 143.888122 
L 164.794231 143.888122 
L 165.173574 132.76881 
L 171.622412 132.76881 
L 172.001755 120.754916 
L 172.381099 156.179571 
L 172.760442 148.65683 
L 173.139785 131.646022 
L 174.277816 120.979235 
L 174.657159 132.544491 
L 175.415846 120.642458 
L 175.795189 149.667161 
L 176.933219 137.877586 
L 177.312563 143.8289 
L 177.691906 136.642341 
L 178.071249 121.484401 
L 178.450593 119.632127 
L 179.967966 126.2564 
L 180.34731 112.895397 
L 236.869473 112.895397 
L 238.007503 103.112306 
L 238.386847 88.571345 
L 249.008461 88.571345 
L 249.387805 43.387273 
L 249.767148 100.412951 
L 251.284522 246.311921 
L 251.663865 199.569778 
L 252.043208 199.569778 
L 252.422552 290.266578 
L 253.939925 290.266578 
L 254.319269 278.657763 
L 255.457299 278.657763 
L 256.595329 318.514891 
L 297.564414 318.514891 
L 297.943757 306.297988 
L 299.081787 310.163639 
L 299.461131 304.08987 
L 299.840474 292.286989 
L 300.219817 295.599888 
L 300.599161 295.461881 
L 301.737191 295.461881 
L 302.116534 288.421338 
L 317.669613 288.421338 
L 318.048956 285.405231 
L 318.4283 274.365748 
L 321.463047 274.365748 
L 321.84239 274.225531 
L 322.98042 260.620815 
L 323.359763 263.847274 
L 323.739107 258.377344 
L 324.497794 273.103796 
L 326.015167 297.258553 
L 326.394511 311.514433 
L 326.773854 310.390495 
L 327.153197 303.368636 
L 328.291227 287.988817 
L 328.670571 295.994398 
L 329.049914 288.971804 
L 329.429258 286.092585 
L 329.808601 280.755531 
L 330.946631 267.974498 
L 331.325974 275.418477 
L 332.084661 252.104287 
L 332.464005 251.472209 
L 427.679193 251.472209 
L 428.058536 271.849966 
L 429.196566 254.058227 
L 429.57591 253.288861 
L 429.955253 251.463954 
L 430.71394 231.109862 
L 432.231313 240.388488 
L 438.680151 240.388488 
L 439.818181 263.786575 
L 440.576868 230.783895 
L 440.956211 239.222658 
L 441.335554 237.501505 
L 461.440753 237.501505 
L 461.820097 229.353591 
L 464.4755 229.353591 
L 464.854844 207.997813 
L 466.372217 191.779212 
L 466.751561 207.75817 
L 467.130904 205.92917 
L 467.510247 220.503325 
L 467.889591 207.121877 
L 489.13282 207.121877 
L 490.27085 203.780977 
L 490.650194 227.810937 
L 491.029537 237.665059 
L 491.40888 213.315824 
L 491.788224 228.130212 
L 492.926254 216.752514 
L 520.618321 216.752514 
L 520.997664 217.710508 
L 522.515037 223.59569 
L 522.894381 237.963057 
L 523.273724 246.643446 
L 523.653068 220.871634 
L 524.791098 230.875935 
L 525.170441 262.581211 
L 525.549784 241.591744 
L 525.929128 244.70713 
L 528.963875 244.70713 
L 530.101905 237.813227 
L 543.378923 237.813227 
L 543.758267 224.595323 
L 544.516953 224.595323 
L 544.896297 251.325787 
L 546.41367 251.325787 
L 546.793014 250.70821 
L 547.5517 250.70821 
L 548.689731 248.020554 
L 549.827761 248.020554 
L 550.207104 254.651364 
L 554.759225 254.651364 
L 555.138568 259.583389 
L 565.760183 259.583389 
L 566.139526 258.123466 
L 568.036243 258.123466 
L 568.415586 259.681804 
L 568.79493 228.734844 
L 573.34705 228.734844 
L 573.726394 215.952942 
L 600.659773 215.952942 
L 601.797804 206.202519 
L 602.177147 219.881991 
L 602.935834 254.203753 
L 603.315177 266.296203 
L 604.832551 282.479062 
L 605.211894 268.65244 
L 605.970581 285.813551 
L 607.108611 266.029407 
L 610.902045 266.029407 
L 611.281388 278.900824 
L 636.697394 278.900824 
L 637.076738 266.254116 
L 637.456081 273.913581 
L 637.835425 269.852419 
L 639.352798 269.781126 
L 639.732142 272.987133 
L 640.111485 262.050368 
L 640.490828 264.793516 
L 642.008202 261.694266 
L 642.387545 249.296536 
L 642.766889 256.207969 
L 643.146232 238.003304 
L 644.284262 241.423557 
L 644.663605 236.222067 
L 663.630774 236.222067 
L 664.010118 240.294827 
L 664.389461 227.283892 
L 665.527491 226.418741 
L 665.906835 249.05287 
L 666.286178 252.729117 
L 666.665521 286.103481 
L 667.044865 299.979568 
L 668.182895 326.433828 
L 668.562238 314.431929 
L 668.941582 331.840009 
L 669.320925 320.595256 
L 669.700268 341.102939 
L 670.838299 334.723601 
L 671.217642 320.095547 
L 671.596985 320.095547 
L 671.976329 324.762136 
L 676.528449 324.762136 
L 676.907793 325.157215 
L 679.563196 325.157215 
L 679.94254 320.373136 
L 680.321883 313.959725 
L 681.839257 304.73843 
L 682.2186 303.143855 
L 682.597943 305.293127 
L 682.977287 308.101011 
L 684.115317 309.557266 
L 684.49466 321.03175 
L 684.874004 327.063895 
L 685.63269 310.042448 
L 686.77072 311.775697 
L 687.150064 326.647873 
L 687.908751 341.138784 
L 688.288094 327.930697 
L 689.426124 326.474442 
L 689.805468 326.474442 
L 690.184811 329.982795 
L 692.460871 329.982795 
L 692.840215 317.943253 
L 695.116275 317.943253 
L 695.495618 326.040554 
L 726.601775 326.040554 
L 726.981119 336.776374 
L 727.360462 337.969144 
L 727.739805 341.111364 
L 728.119149 341.751359 
L 729.257179 342.129698 
L 729.636522 347.221073 
L 730.015866 342.420524 
L 730.395209 343.846074 
L 730.774552 342.071356 
L 731.912583 338.812747 
L 732.291926 333.866933 
L 732.671269 333.023036 
L 733.050613 335.321653 
L 733.429956 330.957492 
L 734.94733 336.601642 
L 735.706016 338.49275 
L 736.08536 337.678318 
L 737.22339 335.641651 
L 737.602733 330.841102 
L 737.982077 331.597486 
L 738.36142 326.389723 
L 738.740763 329.793892 
L 739.878794 327.786396 
L 740.258137 327.786396 
L 740.63748 331.980386 
L 741.016824 341.629819 
L 741.396167 345.794529 
L 742.534197 345.032039 
L 742.913541 352.305862 
L 743.292884 353.215053 
L 744.051571 353.215053 
L 745.189601 357.85284 
L 751.259095 357.85284 
L 751.638438 364.347162 
L 754.293842 364.347162 
L 754.673185 373.532727 
L 778.571818 373.532727 
L 778.571818 373.532727 
" clip-path="url(#p296ec989fe)" style="fill: none; stroke: #d62728; stroke-width: 1.5; stroke-linecap: square"/>
   </g>
   <g id="patch_3">
    <path d="M 52.85 390.04 
L 52.85 26.88 
" style="fill: none; stroke: #000000; stroke-width: 0.8; stroke-linejoin: miter; stroke-linecap: square"/>
   </g>
   <g id="patch_4">
    <path d="M 813.13 390.04 
L 813.13 26.88 
" style="fill: none; stroke: #000000; stroke-width: 0.8; stroke-linejoin: miter; stroke-linecap: square"/>
   </g>
   <g id="patch_5">
    <path d="M 52.85 390.04 
L 813.13 390.04 
" style="fill: none; stroke: #000000; stroke-width: 0.8; stroke-linejoin: miter; stroke-linecap: square"/>
   </g>
   <g id="patch_6">
    <path d="M 52.85 26.88 
L 813.13 26.88 
" style="fill: none; stroke: #000000; stroke-width: 0.8; stroke-linejoin: miter; stroke-linecap: square"/>
   </g>
  </g>
  <g id="axes_2">
   <g id="matplotlib.axis_3">
    <g id="ytick_7">
     <g id="line2d_26">
      <defs>
       <path id="m514699d212" d="M 0 0 
L 3.5 0 
" style="stroke: #000000; stroke-width: 0.8"/>
      </defs>
      <g>
       <use xlink:href="#m514699d212" x="813.13" y="359.149399" style="stroke: #000000; stroke-width: 0.8"/>
      </g>
     </g>
     <g id="text_15">
      <!-- 20 -->
      <g style="fill: #1f77b4" transform="translate(820.13 362.948618) scale(0.1 -0.1)">
       <use xlink:href="#DejaVuSans-32"/>
       <use xlink:href="#DejaVuSans-30" x="63.623047"/>
      </g>
     </g>
    </g>
    <g id="ytick_8">
     <g id="line2d_27">
      <g>
       <use xlink:href="#m514699d212" x="813.13" y="309.585042" style="stroke: #000000; stroke-width: 0.8"/>
      </g>
     </g>
     <g id="text_16">
      <!-- 40 -->
      <g style="fill: #1f77b4" transform="translate(820.13 313.384261) scale(0.1 -0.1)">
       <use xlink:href="#DejaVuSans-34"/>
       <use xlink:href="#DejaVuSans-30" x="63.623047"/>
      </g>
     </g>
    </g>
    <g id="ytick_9">
     <g id="line2d_28">
      <g>
       <use xlink:href="#m514699d212" x="813.13" y="260.020685" style="stroke: #000000; stroke-width: 0.8"/>
      </g>
     </g>
     <g id="text_17">
      <!-- 60 -->
      <g style="fill: #1f77b4" transform="translate(820.13 263.819904) scale(0.1 -0.1)">
       <use xlink:href="#DejaVuSans-36"/>
       <use xlink:href="#DejaVuSans-30" x="63.623047"/>
      </g>
     </g>
    </g>
    <g id="ytick_10">
     <g id="line2d_29">
      <g>
       <use xlink:href="#m514699d212" x="813.13" y="210.456328" style="stroke: #000000; stroke-width: 0.8"/>
      </g>
     </g>
     <g id="text_18">
      <!-- 80 -->
      <g style="fill: #1f77b4" transform="translate(820.13 214.255547) scale(0.1 -0.1)">
       <defs>
        <path id="DejaVuSans-38" d="M 2034 2216 
Q 1584 2216 1326 1975 
Q 1069 1734 1069 1313 
Q 1069 891 1326 650 
Q 1584 409 2034 409 
Q 2484 409 2743 651 
Q 3003 894 3003 1313 
Q 3003 1734 2745 1975 
Q 2488 2216 2034 2216 
z
M 1403 2484 
Q 997 2584 770 2862 
Q 544 3141 544 3541 
Q 544 4100 942 4425 
Q 1341 4750 2034 4750 
Q 2731 4750 3128 4425 
Q 3525 4100 3525 3541 
Q 3525 3141 3298 2862 
Q 3072 2584 2669 2484 
Q 3125 2378 3379 2068 
Q 3634 1759 3634 1313 
Q 3634 634 3220 271 
Q 2806 -91 2034 -91 
Q 1263 -91 848 271 
Q 434 634 434 1313 
Q 434 1759 690 2068 
Q 947 2378 1403 2484 
z
M 1172 3481 
Q 1172 3119 1398 2916 
Q 1625 2713 2034 2713 
Q 2441 2713 2670 2916 
Q 2900 3119 2900 3481 
Q 2900 3844 2670 4047 
Q 2441 4250 2034 4250 
Q 1625 4250 1398 4047 
Q 1172 3844 1172 3481 
z
" transform="scale(0.015625)"/>
       </defs>
       <use xlink:href="#DejaVuSans-38"/>
       <use xlink:href="#DejaVuSans-30" x="63.623047"/>
      </g>
     </g>
    </g>
    <g id="ytick_11">
     <g id="line2d_30">
      <g>
       <use xlink:href="#m514699d212" x="813.13" y="160.891972" style="stroke: #000000; stroke-width: 0.8"/>
      </g>
     </g>
     <g id="text_19">
      <!-- 100 -->
      <g style="fill: #1f77b4" transform="translate(820.13 164.69119) scale(0.1 -0.1)">
       <use xlink:href="#DejaVuSans-31"/>
       <use xlink:href="#DejaVuSans-30" x="63.623047"/>
       <use xlink:href="#DejaVuSans-30" x="127.246094"/>
      </g>
     </g>
    </g>
    <g id="ytick_12">
     <g id="line2d_31">
      <g>
       <use xlink:href="#m514699d212" x="813.13" y="111.327615" style="stroke: #000000; stroke-width: 0.8"/>
      </g>
     </g>
     <g id="text_20">
      <!-- 120 -->
      <g style="fill: #1f77b4" transform="translate(820.13 115.126834) scale(0.1 -0.1)">
       <use xlink:href="#DejaVuSans-31"/>
       <use xlink:href="#DejaVuSans-32" x="63.623047"/>
       <use xlink:href="#DejaVuSans-30" x="127.246094"/>
      </g>
     </g>
    </g>
    <g id="ytick_13">
     <g id="line2d_32">
      <g>
       <use xlink:href="#m514699d212" x="813.13" y="61.763258" style="stroke: #000000; stroke-width: 0.8"/>
      </g>
     </g>
     <g id="text_21">
      <!-- 140 -->
      <g style="fill: #1f77b4" transform="translate(820.13 65.562477) scale(0.1 -0.1)">
       <use xlink:href="#DejaVuSans-31"/>
       <use xlink:href="#DejaVuSans-34" x="63.623047"/>
       <use xlink:href="#DejaVuSans-30" x="127.246094"/>
      </g>
     </g>
    </g>
    <g id="text_22">
     <!-- Close Price -->
     <g style="fill: #1f77b4" transform="translate(850.815938 235.867812) rotate(-90) scale(0.1 -0.1)">
      <defs>
       <path id="DejaVuSans-43" d="M 4122 4306 
L 4122 3641 
Q 3803 3938 3442 4084 
Q 3081 4231 2675 4231 
Q 1875 4231 1450 3742 
Q 1025 3253 1025 2328 
Q 1025 1406 1450 917 
Q 1875 428 2675 428 
Q 3081 428 3442 575 
Q 3803 722 4122 1019 
L 4122 359 
Q 3791 134 3420 21 
Q 3050 -91 2638 -91 
Q 1578 -91 968 557 
Q 359 1206 359 2328 
Q 359 3453 968 4101 
Q 1578 4750 2638 4750 
Q 3056 4750 3426 4639 
Q 3797 4528 4122 4306 
z
" transform="scale(0.015625)"/>
       <path id="DejaVuSans-6c" d="M 603 4863 
L 1178 4863 
L 1178 0 
L 603 0 
L 603 4863 
z
" transform="scale(0.015625)"/>
       <path id="DejaVuSans-6f" d="M 1959 3097 
Q 1497 3097 1228 2736 
Q 959 2375 959 1747 
Q 959 1119 1226 758 
Q 1494 397 1959 397 
Q 2419 397 2687 759 
Q 2956 1122 2956 1747 
Q 2956 2369 2687 2733 
Q 2419 3097 1959 3097 
z
M 1959 3584 
Q 2709 3584 3137 3096 
Q 3566 2609 3566 1747 
Q 3566 888 3137 398 
Q 2709 -91 1959 -91 
Q 1206 -91 779 398 
Q 353 888 353 1747 
Q 353 2609 779 3096 
Q 1206 3584 1959 3584 
z
" transform="scale(0.015625)"/>
       <path id="DejaVuSans-50" d="M 1259 4147 
L 1259 2394 
L 2053 2394 
Q 2494 2394 2734 2622 
Q 2975 2850 2975 3272 
Q 2975 3691 2734 3919 
Q 2494 4147 2053 4147 
L 1259 4147 
z
M 628 4666 
L 2053 4666 
Q 2838 4666 3239 4311 
Q 3641 3956 3641 3272 
Q 3641 2581 3239 2228 
Q 2838 1875 2053 1875 
L 1259 1875 
L 1259 0 
L 628 0 
L 628 4666 
z
" transform="scale(0.015625)"/>
       <path id="DejaVuSans-69" d="M 603 3500 
L 1178 3500 
L 1178 0 
L 603 0 
L 603 3500 
z
M 603 4863 
L 1178 4863 
L 1178 4134 
L 603 4134 
L 603 4863 
z
" transform="scale(0.015625)"/>
       <path id="DejaVuSans-63" d="M 3122 3366 
L 3122 2828 
Q 2878 2963 2633 3030 
Q 2388 3097 2138 3097 
Q 1578 3097 1268 2742 
Q 959 2388 959 1747 
Q 959 1106 1268 751 
Q 1578 397 2138 397 
Q 2388 397 2633 464 
Q 2878 531 3122 666 
L 3122 134 
Q 2881 22 2623 -34 
Q 2366 -91 2075 -91 
Q 1284 -91 818 406 
Q 353 903 353 1747 
Q 353 2603 823 3093 
Q 1294 3584 2113 3584 
Q 2378 3584 2631 3529 
Q 2884 3475 3122 3366 
z
" transform="scale(0.015625)"/>
      </defs>
      <use xlink:href="#DejaVuSans-43"/>
      <use xlink:href="#DejaVuSans-6c" x="69.824219"/>
      <use xlink:href="#DejaVuSans-6f" x="97.607422"/>
      <use xlink:href="#DejaVuSans-73" x="158.789062"/>
      <use xlink:href="#DejaVuSans-65" x="210.888672"/>
      <use xlink:href="#DejaVuSans-20" x="272.412109"/>
      <use xlink:href="#DejaVuSans-50" x="304.199219"/>
      <use xlink:href="#DejaVuSans-72" x="362.751953"/>
      <use xlink:href="#DejaVuSans-69" x="403.865234"/>
      <use xlink:href="#DejaVuSans-63" x="431.648438"/>
      <use xlink:href="#DejaVuSans-65" x="486.628906"/>
     </g>
    </g>
   </g>
   <g id="line2d_33">
    <path d="M 87.408182 304.101985 
L 87.787525 309.873754 
L 88.166869 300.983396 
L 89.304899 299.33092 
L 90.442929 294.397284 
L 90.822272 294.117989 
L 91.960302 293.117037 
L 92.339646 290.301038 
L 92.718989 284.576107 
L 93.098333 282.621041 
L 93.477676 277.268338 
L 94.995049 281.015155 
L 95.374393 280.712565 
L 95.753736 279.595632 
L 96.13308 275.801976 
L 97.27111 276.337271 
L 97.650453 277.338224 
L 98.029796 274.312567 
L 98.40914 274.429044 
L 98.788483 272.264568 
L 99.926513 270.00716 
L 100.305857 269.634683 
L 100.6852 270.937978 
L 101.064543 273.172339 
L 101.443887 274.033272 
L 102.581917 272.823159 
L 102.96126 268.866684 
L 103.340604 267.261046 
L 103.719947 270.286455 
L 104.09929 263.9328 
L 105.616664 263.281276 
L 105.996007 262.280572 
L 106.375351 263.97939 
L 106.754694 263.001981 
L 107.892724 262.443391 
L 108.272068 263.048572 
L 108.651411 262.140801 
L 109.030754 262.210686 
L 109.410098 260.209278 
L 110.927471 263.304572 
L 111.306815 265.980799 
L 111.686158 269.588341 
L 112.065501 269.681274 
L 113.582875 263.397505 
L 113.962218 260.651392 
L 114.341562 259.115392 
L 114.720905 257.067393 
L 115.858935 254.437508 
L 116.238279 257.012872 
L 116.617622 263.288215 
L 116.996965 261.211964 
L 117.376309 270.846284 
L 118.514339 271.919352 
L 118.893682 267.510355 
L 119.273026 269.026777 
L 119.652369 265.597667 
L 120.031712 264.407874 
L 121.169743 257.152891 
L 121.549086 256.593062 
L 122.687116 253.397152 
L 123.825146 253.350562 
L 124.20449 256.453043 
L 124.583833 254.376792 
L 124.963176 253.140409 
L 125.34252 246.515389 
L 126.48055 248.684821 
L 126.859893 246.725294 
L 127.239237 246.958495 
L 127.61858 247.588458 
L 129.135953 248.941564 
L 129.515297 245.512207 
L 129.89464 245.39573 
L 130.273984 244.602453 
L 130.653327 240.730238 
L 131.791357 238.047319 
L 132.170701 235.784706 
L 132.550044 239.633626 
L 132.929387 239.28395 
L 133.308731 235.387943 
L 134.446761 237.440899 
L 134.826104 245.885674 
L 135.205448 246.818723 
L 135.584791 246.982038 
L 135.964134 243.972738 
L 137.102164 255.146774 
L 137.481508 251.251016 
L 137.860851 250.901091 
L 138.240195 245.908969 
L 138.619538 248.638231 
L 139.757568 249.57128 
L 140.136911 245.792245 
L 140.516255 246.538684 
L 140.895598 252.627418 
L 141.274942 249.688004 
L 142.792315 253.443743 
L 143.171659 255.053345 
L 143.551002 255.869918 
L 143.930345 260.185487 
L 145.068375 260.232077 
L 145.447719 250.761072 
L 145.827062 245.605635 
L 146.206406 243.156165 
L 147.723779 239.470312 
L 148.103122 239.727055 
L 148.482466 241.756468 
L 148.861809 241.639991 
L 149.241153 240.333475 
L 150.379183 242.549745 
L 150.758526 238.95732 
L 151.137869 238.070862 
L 151.517213 234.828114 
L 151.896556 237.324175 
L 153.034586 239.400426 
L 153.41393 242.954686 
L 153.793273 245.363018 
L 154.172617 241.411252 
L 154.55196 235.729442 
L 156.069333 229.836983 
L 156.448677 225.020071 
L 157.207364 224.108335 
L 158.345394 226.095866 
L 158.724737 223.66399 
L 159.10408 224.342031 
L 159.483424 222.82214 
L 159.862767 220.671047 
L 161.000797 222.144099 
L 161.380141 224.13163 
L 161.759484 227.709185 
L 162.138827 224.13163 
L 162.518171 228.176825 
L 163.656201 227.381813 
L 164.414888 218.356143 
L 164.794231 221.88686 
L 165.173574 216.462041 
L 166.311605 219.454985 
L 166.690948 219.876034 
L 167.070291 223.242941 
L 167.449635 231.099635 
L 167.828978 233.040328 
L 168.967008 249.431508 
L 169.346352 242.580475 
L 169.725695 243.258515 
L 170.105038 234.630352 
L 170.484382 236.617883 
L 171.622412 244.591301 
L 172.001755 239.587531 
L 172.381099 254.341849 
L 172.760442 251.208638 
L 173.139785 244.123661 
L 174.277816 239.68096 
L 174.657159 244.497872 
L 175.415846 239.540693 
L 175.795189 251.62944 
L 176.933219 246.719099 
L 177.312563 249.197812 
L 177.691906 246.204621 
L 178.071249 239.891361 
L 178.450593 239.119892 
L 179.967966 241.878891 
L 180.726653 229.29921 
L 181.105996 229.065266 
L 182.244027 227.264841 
L 182.62337 229.907117 
L 183.002713 228.410521 
L 183.382057 224.388869 
L 183.7614 223.66399 
L 184.89943 224.038201 
L 185.278774 222.190938 
L 185.658117 221.67646 
L 186.03746 222.424634 
L 186.416804 225.534549 
L 187.554834 224.856509 
L 187.934177 228.602583 
L 188.313521 225.510015 
L 188.692864 225.603939 
L 189.072207 227.384291 
L 190.210238 226.821983 
L 190.968924 244.439634 
L 191.348268 241.675182 
L 191.727611 233.920591 
L 192.865641 236.193116 
L 193.244985 244.720664 
L 194.383015 232.304049 
L 195.521045 231.413873 
L 195.900388 226.423734 
L 196.279732 227.079718 
L 197.038418 226.306762 
L 198.176448 220.49658 
L 198.555792 225.275823 
L 198.935135 223.870178 
L 199.314479 221.503976 
L 199.693822 220.332522 
L 200.831852 218.575466 
L 201.590539 216.279645 
L 201.969882 219.06764 
L 202.349226 213.21062 
L 203.487256 212.132843 
L 203.866599 213.655708 
L 204.245943 211.922194 
L 204.625286 209.227876 
L 205.004629 208.970141 
L 206.142659 209.251419 
L 206.522003 209.719802 
L 206.901346 210.750741 
L 207.660033 206.510262 
L 208.798063 205.198294 
L 209.177406 202.527766 
L 209.55675 204.519014 
L 209.936093 208.05667 
L 210.315437 205.549705 
L 211.453467 201.449989 
L 212.212153 196.202115 
L 212.97084 197.631303 
L 214.10887 203.98025 
L 214.488214 208.173642 
L 214.867557 204.612691 
L 215.246901 202.129269 
L 215.626244 197.022157 
L 216.764274 198.053096 
L 217.522961 201.028196 
L 217.902304 194.046809 
L 218.281648 194.374925 
L 219.799021 190.884107 
L 220.178364 191.563635 
L 220.557708 189.712654 
L 220.937051 188.541448 
L 222.075081 190.591182 
L 222.454425 189.653177 
L 223.213111 186.416376 
L 223.592455 186.62752 
L 224.730485 188.972906 
L 225.109828 186.74474 
L 225.868515 182.96868 
L 226.247858 187.026266 
L 227.385889 186.909046 
L 227.765232 191.13069 
L 228.523919 182.218275 
L 228.903262 184.610499 
L 230.041292 178.58273 
L 230.420636 180.928115 
L 230.799979 180.388855 
L 231.179322 174.290704 
L 231.558666 171.312134 
L 233.076039 173.375994 
L 233.455383 172.273683 
L 233.834726 171.804556 
L 234.214069 178.793874 
L 235.3521 188.081739 
L 235.731443 182.100808 
L 236.110786 182.523096 
L 236.49013 176.166963 
L 236.869473 190.403581 
L 238.007503 185.243684 
L 238.76619 169.599933 
L 239.145533 169.553095 
L 239.524877 171.851394 
L 240.662907 167.887733 
L 241.04225 165.284365 
L 241.421594 163.783308 
L 242.18028 157.662854 
L 243.697654 161.391085 
L 244.076997 158.904441 
L 244.456341 157.873502 
L 245.973714 186.158394 
L 246.353058 209.846935 
L 246.732401 215.05367 
L 247.111744 240.219972 
L 247.491088 250.727368 
L 248.629118 227.719098 
L 249.008461 243.784889 
L 249.387805 226.780845 
L 249.767148 248.24122 
L 251.284522 303.147128 
L 251.663865 285.556737 
L 252.043208 305.891258 
L 252.422552 334.388037 
L 252.801895 313.162102 
L 253.939925 350.40699 
L 254.319269 347.545639 
L 254.698612 363.541296 
L 255.077955 361.524275 
L 255.457299 366.801392 
L 256.595329 373.532727 
L 256.974672 361.252414 
L 257.354016 355.860556 
L 257.733359 346.259444 
L 258.112702 351.438424 
L 259.250732 348.080439 
L 259.630076 353.235628 
L 260.009419 363.215163 
L 260.388763 360.472024 
L 260.768106 363.380708 
L 261.906136 352.644573 
L 262.285479 351.414881 
L 263.044166 334.55383 
L 264.56154 342.168402 
L 264.940883 339.82723 
L 265.320227 348.103982 
L 265.69957 351.202002 
L 266.078913 342.996127 
L 267.216943 347.560261 
L 267.596287 352.928329 
L 267.97563 350.06673 
L 268.354974 350.72891 
L 270.25169 341.080712 
L 270.631034 334.22274 
L 271.389721 345.810143 
L 272.527751 346.401446 
L 272.907094 345.857477 
L 273.286437 348.718828 
L 274.045124 340.915168 
L 275.183154 343.800061 
L 275.941841 354.323565 
L 276.321185 350.941789 
L 276.700528 351.414881 
L 277.838558 342.712371 
L 278.217901 346.330569 
L 278.597245 342.428615 
L 278.976588 343.398094 
L 279.355932 342.948793 
L 280.873305 335.263344 
L 281.252648 329.067552 
L 282.011335 332.378203 
L 283.149365 329.658606 
L 283.528709 327.648524 
L 283.908052 320.081286 
L 284.287395 318.284082 
L 284.666739 308.517426 
L 285.804769 303.905958 
L 286.184112 308.848516 
L 286.563456 317.007057 
L 286.942799 336.824126 
L 287.322143 330.675419 
L 288.460173 328.074282 
L 288.839516 324.07766 
L 289.218859 326.726379 
L 289.598203 327.151889 
L 289.977546 329.966153 
L 291.115576 329.398641 
L 291.49492 328.5558 
L 291.874263 336.936141 
L 292.253606 332.343508 
L 292.63295 340.013592 
L 293.77098 337.811943 
L 294.150323 334.639824 
L 294.529667 334.118903 
L 294.90901 334.000692 
L 296.426384 331.088786 
L 296.805727 335.302748 
L 297.18507 333.503561 
L 297.564414 337.267479 
L 297.943757 333.077308 
L 299.081787 334.403155 
L 299.461131 332.319965 
L 299.840474 328.271796 
L 300.219817 329.408059 
L 300.599161 329.360725 
L 301.737191 329.360725 
L 302.116534 326.945949 
L 302.495878 325.785895 
L 302.875221 326.188358 
L 303.254564 327.750874 
L 304.771938 327.537748 
L 305.151281 322.826903 
L 305.530625 325.691228 
L 305.909968 325.928145 
L 307.047998 325.454558 
L 307.427342 325.59656 
L 307.806685 322.329773 
L 308.186028 321.856185 
L 308.565372 318.565608 
L 309.703402 318.376272 
L 310.082745 317.405554 
L 310.462089 316.932214 
L 310.841432 318.399815 
L 311.220775 318.163145 
L 312.358806 319.228531 
L 313.117492 321.690393 
L 313.496836 321.998187 
L 313.876179 322.589986 
L 315.393553 316.932214 
L 315.772896 317.642224 
L 316.152239 313.854516 
L 316.531583 311.795117 
L 317.669613 315.156571 
L 318.048956 313.972974 
L 318.4283 309.640802 
L 318.807643 315.606368 
L 319.186986 316.411293 
L 320.70436 322.968905 
L 321.083703 319.630994 
L 321.463047 323.489579 
L 321.84239 323.442245 
L 322.98042 318.849612 
L 323.359763 319.938788 
L 323.739107 318.092268 
L 324.497794 323.063573 
L 326.015167 331.217653 
L 326.394511 336.030105 
L 326.773854 335.650689 
L 327.153197 333.280274 
L 328.291227 328.088408 
L 328.670571 330.790904 
L 329.049914 328.420241 
L 329.429258 327.448284 
L 329.808601 325.64662 
L 330.946631 321.332042 
L 331.325974 323.844955 
L 332.084661 315.974631 
L 332.464005 315.761256 
L 333.602035 312.584429 
L 333.981378 317.68138 
L 334.360721 320.407667 
L 334.740065 318.345046 
L 335.119408 318.084338 
L 336.257438 321.972166 
L 336.636782 319.791334 
L 337.016125 320.218083 
L 337.395469 315.737466 
L 337.774812 314.36255 
L 338.912842 320.478792 
L 339.671529 331.525944 
L 340.050872 329.700488 
L 340.430216 329.036822 
L 341.568246 324.461288 
L 341.947589 318.937836 
L 342.326932 322.043291 
L 342.706276 315.95084 
L 343.085619 318.108129 
L 344.223649 297.554781 
L 344.602993 294.567785 
L 344.982336 296.487909 
L 345.361679 301.916693 
L 345.741023 296.890867 
L 346.879053 289.162544 
L 347.258396 289.755334 
L 347.63774 292.931914 
L 348.017083 291.770373 
L 348.396427 294.875828 
L 349.534457 289.044086 
L 349.9138 276.693144 
L 350.293143 278.660601 
L 351.05183 280.249138 
L 352.18986 287.147505 
L 352.569204 282.003221 
L 352.948547 278.447474 
L 353.32789 278.305224 
L 353.707234 273.279398 
L 354.845264 276.479769 
L 355.224607 276.171479 
L 355.603951 276.882727 
L 355.983294 276.029229 
L 356.362637 279.585224 
L 357.500668 283.87601 
L 357.880011 277.404392 
L 358.259354 276.740477 
L 358.638698 275.60248 
L 359.018041 278.565933 
L 360.156071 274.535855 
L 360.535415 278.360241 
L 360.914758 271.99816 
L 361.294101 271.808081 
L 362.811475 269.6954 
L 363.190818 271.262129 
L 363.570162 269.315489 
L 363.949505 264.37764 
L 365.466879 270.21756 
L 365.846222 268.365836 
L 366.225565 250.537537 
L 366.604909 242.98839 
L 366.984252 244.22279 
L 368.122282 242.1339 
L 368.501626 236.911056 
L 368.880969 237.836918 
L 369.260312 235.510367 
L 369.639656 244.151665 
L 371.157029 242.774767 
L 371.536373 244.768989 
L 371.915716 249.967795 
L 372.295059 252.792715 
L 373.43309 255.712799 
L 373.812433 258.846506 
L 374.191776 272.87644 
L 374.57112 265.303502 
L 374.950463 273.375058 
L 376.088493 267.986173 
L 376.467837 258.086684 
L 376.84718 255.974003 
L 377.226523 246.335718 
L 377.605867 245.623479 
L 379.12324 238.359327 
L 379.881927 239.237607 
L 380.26127 234.988207 
L 382.157987 224.28181 
L 382.537331 226.988024 
L 382.916674 220.91069 
L 384.054704 216.447668 
L 384.434048 213.622747 
L 384.813391 201.919116 
L 385.572078 223.973024 
L 386.710108 207.070587 
L 387.089451 209.064809 
L 387.468795 205.693689 
L 387.848138 213.005423 
L 388.227481 202.18032 
L 389.365511 193.871351 
L 389.744855 198.405746 
L 390.124198 186.986862 
L 390.503542 188.268844 
L 390.882885 181.099608 
L 392.020915 183.639781 
L 392.400258 190.405563 
L 393.158945 183.093582 
L 393.538289 190.547813 
L 394.676319 199.046613 
L 395.055662 207.797944 
L 395.435005 206.252527 
L 396.193692 186.567548 
L 397.331722 192.416142 
L 397.711066 186.995536 
L 398.090409 192.677594 
L 398.469753 185.26004 
L 399.987126 180.100886 
L 400.366469 180.814117 
L 400.745813 178.508135 
L 401.125156 178.127729 
L 401.5045 172.89745 
L 402.64253 169.378876 
L 403.021873 175.322386 
L 403.401216 170.971627 
L 403.78056 171.661067 
L 404.159903 167.048856 
L 405.297933 168.927097 
L 405.677277 181.242105 
L 406.05662 172.20801 
L 406.435963 179.221366 
L 406.815307 166.406998 
L 407.953337 164.14835 
L 408.33268 157.516639 
L 408.712024 156.77813 
L 409.091367 144.463866 
L 409.470711 151.54909 
L 410.608741 147.601289 
L 410.988084 142.134341 
L 411.367427 134.905379 
L 411.746771 124.137523 
L 412.126114 120.023681 
L 413.264144 121.924474 
L 414.022831 147.19734 
L 414.781518 119.523081 
L 415.919548 118.477273 
L 416.298891 129.67634 
L 416.678235 135.596802 
L 417.057578 134.194131 
L 417.436921 127.703678 
L 418.574952 124.635645 
L 418.954295 132.932718 
L 419.333638 130.080289 
L 419.712982 120.26159 
L 421.989042 114.175087 
L 422.747729 110.846841 
L 423.885759 116.41044 
L 424.265102 117.528116 
L 425.023789 134.717035 
L 425.403132 130.578411 
L 426.541163 139.066307 
L 426.920506 137.306772 
L 427.299849 137.259686 
L 428.058536 179.078621 
L 429.196566 163.05496 
L 429.57591 162.36205 
L 429.955253 160.718496 
L 430.71394 142.387119 
L 432.231313 150.74367 
L 432.610657 148.505839 
L 432.99 142.173992 
L 433.369343 143.55436 
L 434.886717 156.12388 
L 435.26606 154.696427 
L 435.645404 170.194458 
L 436.024747 150.411588 
L 437.162777 142.840633 
L 437.542121 151.982778 
L 437.921464 155.885972 
L 438.300807 153.150019 
L 438.680151 163.028691 
L 439.818181 183.097795 
L 440.576868 154.790599 
L 440.956211 162.02873 
L 441.335554 160.552456 
L 442.473584 156.696349 
L 442.852928 156.721131 
L 443.232271 156.909476 
L 443.611615 149.219566 
L 443.990958 154.029786 
L 445.128988 154.840164 
L 445.508332 146.436527 
L 445.887675 151.269052 
L 446.267018 142.07982 
L 446.646362 126.628132 
L 447.784392 124.509255 
L 448.543079 106.822215 
L 448.922422 105.773929 
L 449.301765 111.129357 
L 450.439795 112.938456 
L 451.577826 136.912736 
L 451.957169 130.531325 
L 453.095199 123.579924 
L 453.474542 117.557854 
L 453.853886 108.27445 
L 454.233229 112.653461 
L 454.612573 101.370136 
L 455.750603 112.271816 
L 456.129946 112.916152 
L 456.509289 117.557854 
L 456.888633 114.390692 
L 457.267976 117.914718 
L 458.78535 124.343215 
L 459.164693 126.484395 
L 459.544037 124.343215 
L 459.92338 130.675061 
L 461.06141 121.889779 
L 461.440753 133.103715 
L 461.820097 125.341937 
L 462.19944 126.937909 
L 462.578784 131.197965 
L 463.716814 150.624715 
L 464.096157 152.024908 
L 464.4755 141.081098 
L 464.854844 121.867475 
L 466.372217 107.275729 
L 466.751561 121.65187 
L 467.130904 120.006334 
L 467.510247 133.118584 
L 467.889591 121.079402 
L 469.027621 127.827589 
L 469.406964 112.616288 
L 469.786308 110.779929 
L 470.544995 99.432169 
L 472.441711 113.64227 
L 473.200398 86.344701 
L 474.338428 85.891187 
L 475.097115 67.820022 
L 475.476458 68.608096 
L 475.855802 57.570113 
L 476.993832 57.069513 
L 477.373175 55.305022 
L 477.752519 73.56701 
L 478.131862 59.475863 
L 478.511205 63.72105 
L 479.649236 63.339405 
L 480.407922 53.468663 
L 480.787266 67.344205 
L 481.166609 66.987341 
L 482.304639 62.71985 
L 482.683983 67.797718 
L 483.063326 71.205268 
L 483.822013 66.246354 
L 484.960043 66.461959 
L 485.339386 67.178164 
L 485.71873 77.834501 
L 486.098073 82.101992 
L 486.477416 92.08921 
L 487.615447 79.286736 
L 487.99479 65.103896 
L 488.374133 66.771736 
L 489.13282 98.549924 
L 490.27085 95.308415 
L 490.650194 118.623488 
L 491.029537 128.184453 
L 491.40888 104.559602 
L 491.788224 118.933265 
L 492.926254 107.895283 
L 493.305597 92.351901 
L 494.064284 100.339197 
L 494.443627 99.290911 
L 495.581658 110.257025 
L 495.961001 104.462951 
L 496.340344 101.888083 
L 496.719688 93.068106 
L 497.099031 112.353597 
L 498.237061 129.758121 
L 498.616405 112.353597 
L 499.375091 100.730755 
L 500.892465 91.811649 
L 501.271808 91.836431 
L 501.651152 92.361814 
L 502.030495 94.778076 
L 502.409838 96.091532 
L 503.547868 86.981603 
L 503.927212 64.238998 
L 504.306555 76.915082 
L 504.685899 61.250267 
L 505.065242 50.824404 
L 506.203272 53.525662 
L 506.582616 44.487601 
L 506.961959 43.387273 
L 507.341302 49.030175 
L 507.720646 57.736154 
L 509.238019 80.860405 
L 509.617363 97.360379 
L 509.996706 103.840919 
L 510.376049 122.87611 
L 511.514079 120.100506 
L 511.893423 119.671774 
L 512.272766 117.255512 
L 512.65211 123.926874 
L 513.031453 112.04382 
L 514.169483 102.812458 
L 514.548826 89.779511 
L 514.92817 83.514576 
L 515.307513 95.447195 
L 515.686857 80.357326 
L 516.824887 78.300406 
L 517.20423 65.986141 
L 517.583573 59.790597 
L 517.962917 67.634156 
L 518.34226 85.306327 
L 519.48029 95.806536 
L 519.859634 83.155234 
L 520.238977 81.026445 
L 520.618321 106.326571 
L 520.997664 107.260859 
L 522.515037 113.000412 
L 522.894381 127.012256 
L 523.273724 135.477848 
L 523.653068 110.343762 
L 524.791098 120.100506 
L 525.170441 151.02123 
L 525.549784 130.551151 
L 525.929128 133.589446 
L 526.308471 149.873815 
L 527.446501 179.598551 
L 527.825845 182.683189 
L 528.205188 158.698749 
L 528.963875 168.956836 
L 530.101905 163.098081 
L 530.481248 153.293756 
L 530.860592 130.479282 
L 531.239935 121.463526 
L 531.619279 117.805676 
L 532.757309 118.355841 
L 533.136652 104.294433 
L 533.515995 120.91584 
L 533.895339 115.223373 
L 534.274682 104.462951 
L 535.412712 106.732999 
L 535.792056 101.424656 
L 536.171399 109.746512 
L 536.550742 127.56242 
L 536.930086 129.9539 
L 538.068116 133.183018 
L 538.826803 146.860302 
L 539.206146 148.319972 
L 539.585489 142.270643 
L 540.72352 145.73767 
L 541.102863 154.081829 
L 541.482206 152.456118 
L 541.86155 160.993826 
L 543.378923 158.770617 
L 543.758267 147.338598 
L 544.13761 141.289268 
L 544.516953 155.37298 
L 544.896297 177.781026 
L 546.034327 176.585286 
L 546.41367 195.357538 
L 546.793014 194.879242 
L 547.172357 186.557387 
L 547.5517 209.729467 
L 548.689731 207.792492 
L 549.069074 199.470637 
L 549.448417 180.794043 
L 549.827761 200.57047 
L 552.103821 231.562566 
L 552.483164 233.379843 
L 552.862508 224.69939 
L 554.000538 229.003806 
L 554.379881 214.344652 
L 554.759225 230.558145 
L 555.138568 233.786519 
L 555.517911 233.953799 
L 556.655942 218.625278 
L 557.035285 220.514423 
L 557.414628 215.349074 
L 558.173315 190.431337 
L 559.690689 193.061717 
L 560.070032 203.440246 
L 560.449375 193.683502 
L 560.828719 203.057609 
L 561.966749 200.833656 
L 562.346092 196.505201 
L 562.725436 207.481724 
L 563.104779 222.188459 
L 563.484122 242.395352 
L 564.622152 258.273789 
L 565.001496 261.502164 
L 565.380839 256.575962 
L 565.760183 268.628527 
L 566.139526 267.863253 
L 567.6569 259.326041 
L 568.036243 259.968147 
L 568.415586 260.830815 
L 568.79493 243.699142 
L 569.93296 245.663874 
L 570.691647 253.930217 
L 571.07099 257.524376 
L 571.450333 251.725842 
L 572.967707 252.372905 
L 573.34705 253.930217 
L 573.726394 247.293302 
L 574.105737 248.898691 
L 575.243767 253.067549 
L 575.62311 255.727173 
L 576.002454 260.495264 
L 576.381797 269.097158 
L 576.761141 255.152226 
L 577.899171 257.164787 
L 578.278514 242.956421 
L 579.037201 237.685251 
L 579.416544 241.255124 
L 580.554574 238.1405 
L 580.933918 245.088927 
L 581.313261 237.110057 
L 581.692605 232.581609 
L 582.071948 225.32167 
L 583.209978 229.802288 
L 583.589321 235.936125 
L 583.968665 228.196899 
L 584.348008 230.137591 
L 584.727352 226.040353 
L 585.865382 226.759284 
L 586.244725 224.315266 
L 586.624068 211.208963 
L 587.003412 204.907351 
L 587.382755 195.083695 
L 588.520785 194.892129 
L 588.900129 190.794892 
L 589.279472 194.029461 
L 589.658815 193.262701 
L 590.038159 206.153399 
L 591.176189 219.619043 
L 591.555532 221.559736 
L 591.934876 218.708546 
L 592.314219 210.178768 
L 592.693563 228.388465 
L 593.831593 232.341966 
L 594.210936 234.714116 
L 594.590279 239.122865 
L 594.969623 237.181925 
L 595.348966 241.686582 
L 596.86634 242.501172 
L 597.625026 223.884056 
L 598.00437 218.996019 
L 599.1424 214.15606 
L 599.521743 235.936125 
L 599.901087 237.230003 
L 600.28043 235.72052 
L 600.659773 240.656139 
L 601.797804 235.384969 
L 602.177147 242.780219 
L 602.935834 261.334884 
L 603.315177 267.872175 
L 604.832551 276.62078 
L 605.211894 269.145979 
L 605.970581 278.423435 
L 607.108611 267.727943 
L 607.487954 251.697095 
L 607.867298 255.27812 
L 608.246641 261.911813 
L 608.625984 272.222439 
L 609.764015 274.193365 
L 610.143358 279.553007 
L 610.522701 280.610462 
L 610.902045 265.060141 
L 611.281388 272.150322 
L 612.419418 262.127914 
L 612.798762 254.725477 
L 613.557448 269.458482 
L 613.936792 257.200969 
L 615.074822 251.024011 
L 615.454165 245.448269 
L 615.833509 244.102101 
L 616.212852 240.232611 
L 616.592195 227.902982 
L 617.730226 231.508293 
L 618.109569 229.489289 
L 618.868256 242.083344 
L 619.247599 232.589788 
L 620.385629 227.75875 
L 620.764973 224.658499 
L 621.144316 233.839553 
L 621.523659 207.16129 
L 621.903003 202.378577 
L 623.041033 211.679825 
L 623.420376 210.309866 
L 624.179063 216.006049 
L 624.558406 211.775979 
L 625.696436 209.85313 
L 626.07578 203.820652 
L 626.455123 201.609339 
L 627.21381 199.133847 
L 628.35184 210.261788 
L 628.731184 206.680764 
L 629.110527 196.730471 
L 629.869214 203.315839 
L 631.386587 223.624835 
L 631.765931 226.41283 
L 632.145274 225.499606 
L 632.524617 227.109952 
L 634.041991 218.553657 
L 634.421334 225.980381 
L 634.800678 236.627548 
L 635.180021 241.098005 
L 636.318051 242.107383 
L 636.697394 240.668034 
L 637.076738 232.095631 
L 637.456081 237.287497 
L 637.835425 234.534693 
L 639.352798 234.486368 
L 639.732142 236.659517 
L 640.111485 229.246176 
L 640.490828 231.105583 
L 642.008202 229.004798 
L 642.387545 220.601161 
L 642.766889 225.285984 
L 643.146232 212.946194 
L 644.284262 215.264567 
L 644.663605 211.738806 
L 645.042949 206.836891 
L 645.422292 205.339552 
L 645.801636 201.234632 
L 647.319009 205.194824 
L 647.698352 216.785945 
L 648.077696 223.643917 
L 648.457039 214.998902 
L 649.595069 208.406594 
L 649.974413 207.70625 
L 650.733099 200.413598 
L 651.112443 200.413598 
L 652.250473 203.190441 
L 652.629816 195.390746 
L 653.00916 195.076756 
L 653.388503 193.748679 
L 653.767847 194.642077 
L 654.905877 195.68045 
L 655.28522 187.904794 
L 655.664563 191.720258 
L 656.043907 199.592565 
L 657.56128 190.392181 
L 657.940624 193.62799 
L 658.319967 192.589617 
L 658.69931 199.689215 
L 659.078654 199.809905 
L 660.596027 212.43915 
L 660.975371 213.743189 
L 661.354714 212.584126 
L 661.734057 212.632451 
L 662.872088 212.487476 
L 663.251431 211.859743 
L 664.010118 216.737619 
L 664.389461 208.02024 
L 665.527491 207.440585 
L 665.906835 222.605544 
L 666.286178 225.068644 
L 666.665521 247.429604 
L 667.044865 256.726638 
L 668.182895 274.4511 
L 668.562238 266.409779 
L 668.941582 278.073263 
L 669.320925 270.539233 
L 669.700268 284.279464 
L 670.838299 280.005282 
L 671.217642 270.204426 
L 671.596985 279.942087 
L 671.976329 282.849037 
L 672.355672 283.115445 
L 673.493702 277.883184 
L 673.873046 278.125553 
L 674.252389 272.384514 
L 674.631732 273.401822 
L 675.011076 269.017359 
L 676.149106 268.145275 
L 676.528449 272.457126 
L 676.907793 272.723534 
L 677.287136 271.633614 
L 678.80451 270.688917 
L 679.183853 267.006781 
L 679.563196 267.806254 
L 679.94254 264.463386 
L 680.321883 259.982025 
L 681.839257 253.538659 
L 682.2186 252.424452 
L 682.597943 253.926252 
L 682.977287 255.888257 
L 684.115317 256.905813 
L 684.49466 264.923591 
L 684.874004 269.138544 
L 685.63269 257.244833 
L 686.77072 258.455938 
L 687.150064 268.847849 
L 687.908751 278.973352 
L 688.288094 269.744221 
L 689.426124 268.726664 
L 689.805468 270.373936 
L 690.184811 272.796394 
L 690.564154 273.668231 
L 690.943498 275.364075 
L 692.081528 272.118106 
L 692.460871 276.042116 
L 692.840215 267.927439 
L 693.219558 265.044776 
L 693.598901 266.788946 
L 694.736931 265.941148 
L 695.495618 276.57518 
L 695.874962 276.672079 
L 696.254305 273.910601 
L 697.771678 273.789416 
L 698.151022 278.391962 
L 698.530365 274.080111 
L 698.909709 265.553554 
L 700.047739 267.781968 
L 700.427082 262.307585 
L 700.806426 260.757212 
L 701.185769 261.169091 
L 701.565112 261.09648 
L 702.703142 261.411213 
L 703.082486 258.843532 
L 703.461829 260.490803 
L 703.841173 254.992133 
L 704.220516 256.009442 
L 706.117233 260.134188 
L 706.496576 263.633183 
L 706.87592 265.541907 
L 708.01395 266.373844 
L 708.393293 263.461938 
L 708.772636 264.07381 
L 709.15198 256.928613 
L 709.531323 253.1357 
L 710.669353 250.150439 
L 711.42804 251.447291 
L 711.807383 255.803006 
L 712.186727 255.215669 
L 713.324757 253.184769 
L 713.7041 247.67916 
L 714.083444 244.59601 
L 714.462787 242.980955 
L 714.842131 246.357775 
L 715.980161 241.732924 
L 716.359504 235.786936 
L 716.738847 233.731255 
L 717.118191 230.256793 
L 717.497534 232.116448 
L 718.635564 226.855439 
L 719.014908 230.795062 
L 719.394251 227.173395 
L 719.773594 234.514372 
L 720.152938 233.706968 
L 721.290968 231.577931 
L 721.670311 231.700355 
L 722.049655 236.471916 
L 722.428998 236.227316 
L 722.808341 238.209394 
L 723.946372 231.431221 
L 724.705058 240.044515 
L 725.084402 239.677491 
L 725.463745 238.747663 
L 726.601775 239.848735 
L 726.981119 248.878122 
L 727.360462 249.881305 
L 727.739805 252.524076 
L 728.119149 253.062345 
L 729.257179 253.380548 
L 729.636522 257.662661 
L 730.015866 253.625148 
L 730.395209 254.82411 
L 730.774552 253.33148 
L 731.912583 250.590818 
L 732.291926 246.43113 
L 732.671269 245.721368 
L 733.050613 247.654626 
L 733.429956 243.984138 
L 734.94733 248.731164 
L 735.706016 250.321684 
L 736.08536 249.636705 
L 737.22339 247.92376 
L 737.602733 243.886248 
L 737.982077 244.522406 
L 738.36142 240.142404 
L 738.740763 243.005489 
L 739.878794 241.317079 
L 740.258137 241.948529 
L 740.63748 245.462642 
L 741.016824 253.547828 
L 741.396167 257.037407 
L 742.534197 256.398522 
L 742.913541 262.493203 
L 743.292884 263.255007 
L 743.672227 260.502699 
L 744.051571 264.287185 
L 745.189601 268.145275 
L 745.568944 275.173748 
L 745.948288 272.151066 
L 746.327631 270.308015 
L 746.706974 266.793655 
L 747.845004 266.793655 
L 748.224348 263.57445 
L 748.603691 262.984634 
L 748.983035 265.835328 
L 749.362378 265.147127 
L 750.500408 260.944813 
L 750.879752 258.413809 
L 751.638438 271.610319 
L 752.017782 278.147362 
L 753.155812 281.047124 
L 753.535155 278.31935 
L 754.293842 280.482091 
L 754.673185 287.731621 
L 755.811215 281.587872 
L 756.190559 277.361023 
L 756.569902 274.87884 
L 756.949246 265.392966 
L 757.328589 259.544124 
L 758.845962 262.026307 
L 759.225306 261.657548 
L 759.604649 263.426996 
L 759.983993 258.487412 
L 761.122023 259.39667 
L 761.501366 250.648065 
L 761.88071 247.748303 
L 762.260053 246.593205 
L 762.639396 243.963568 
L 763.777426 242.366357 
L 764.15677 242.56288 
L 764.536113 240.645978 
L 765.2948 239.441812 
L 766.812173 241.112874 
L 767.191517 237.475842 
L 767.950204 228.530715 
L 769.088234 228.702703 
L 769.84692 233.937195 
L 770.226264 232.167747 
L 770.605607 229.366122 
L 771.743637 225.680021 
L 772.122981 221.920068 
L 772.502324 212.925625 
L 772.881667 207.445294 
L 773.261011 210.959654 
L 774.399041 209.042753 
L 774.778384 204.447146 
L 775.157728 215.186503 
L 775.537071 210.264762 
L 775.916415 209.153529 
L 777.433788 206.782866 
L 778.192475 203.276188 
L 778.571818 204.609717 
L 778.571818 204.609717 
" clip-path="url(#p296ec989fe)" style="fill: none; stroke: #1f77b4; stroke-width: 1.5; stroke-linecap: square"/>
   </g>
   <g id="patch_7">
    <path d="M 52.85 390.04 
L 52.85 26.88 
" style="fill: none; stroke: #000000; stroke-width: 0.8; stroke-linejoin: miter; stroke-linecap: square"/>
   </g>
   <g id="patch_8">
    <path d="M 813.13 390.04 
L 813.13 26.88 
" style="fill: none; stroke: #000000; stroke-width: 0.8; stroke-linejoin: miter; stroke-linecap: square"/>
   </g>
   <g id="patch_9">
    <path d="M 52.85 390.04 
L 813.13 390.04 
" style="fill: none; stroke: #000000; stroke-width: 0.8; stroke-linejoin: miter; stroke-linecap: square"/>
   </g>
   <g id="patch_10">
    <path d="M 52.85 26.88 
L 813.13 26.88 
" style="fill: none; stroke: #000000; stroke-width: 0.8; stroke-linejoin: miter; stroke-linecap: square"/>
   </g>
   <g id="text_23">
    <!-- Stock Trading Performance for FAS -->
    <g transform="translate(329.660625 20.88) scale(0.12 -0.12)">
     <defs>
      <path id="DejaVuSans-53" d="M 3425 4513 
L 3425 3897 
Q 3066 4069 2747 4153 
Q 2428 4238 2131 4238 
Q 1616 4238 1336 4038 
Q 1056 3838 1056 3469 
Q 1056 3159 1242 3001 
Q 1428 2844 1947 2747 
L 2328 2669 
Q 3034 2534 3370 2195 
Q 3706 1856 3706 1288 
Q 3706 609 3251 259 
Q 2797 -91 1919 -91 
Q 1588 -91 1214 -16 
Q 841 59 441 206 
L 441 856 
Q 825 641 1194 531 
Q 1563 422 1919 422 
Q 2459 422 2753 634 
Q 3047 847 3047 1241 
Q 3047 1584 2836 1778 
Q 2625 1972 2144 2069 
L 1759 2144 
Q 1053 2284 737 2584 
Q 422 2884 422 3419 
Q 422 4038 858 4394 
Q 1294 4750 2059 4750 
Q 2388 4750 2728 4690 
Q 3069 4631 3425 4513 
z
" transform="scale(0.015625)"/>
      <path id="DejaVuSans-6b" d="M 581 4863 
L 1159 4863 
L 1159 1991 
L 2875 3500 
L 3609 3500 
L 1753 1863 
L 3688 0 
L 2938 0 
L 1159 1709 
L 1159 0 
L 581 0 
L 581 4863 
z
" transform="scale(0.015625)"/>
      <path id="DejaVuSans-54" d="M -19 4666 
L 3928 4666 
L 3928 4134 
L 2272 4134 
L 2272 0 
L 1638 0 
L 1638 4134 
L -19 4134 
L -19 4666 
z
" transform="scale(0.015625)"/>
      <path id="DejaVuSans-64" d="M 2906 2969 
L 2906 4863 
L 3481 4863 
L 3481 0 
L 2906 0 
L 2906 525 
Q 2725 213 2448 61 
Q 2172 -91 1784 -91 
Q 1150 -91 751 415 
Q 353 922 353 1747 
Q 353 2572 751 3078 
Q 1150 3584 1784 3584 
Q 2172 3584 2448 3432 
Q 2725 3281 2906 2969 
z
M 947 1747 
Q 947 1113 1208 752 
Q 1469 391 1925 391 
Q 2381 391 2643 752 
Q 2906 1113 2906 1747 
Q 2906 2381 2643 2742 
Q 2381 3103 1925 3103 
Q 1469 3103 1208 2742 
Q 947 2381 947 1747 
z
" transform="scale(0.015625)"/>
      <path id="DejaVuSans-67" d="M 2906 1791 
Q 2906 2416 2648 2759 
Q 2391 3103 1925 3103 
Q 1463 3103 1205 2759 
Q 947 2416 947 1791 
Q 947 1169 1205 825 
Q 1463 481 1925 481 
Q 2391 481 2648 825 
Q 2906 1169 2906 1791 
z
M 3481 434 
Q 3481 -459 3084 -895 
Q 2688 -1331 1869 -1331 
Q 1566 -1331 1297 -1286 
Q 1028 -1241 775 -1147 
L 775 -588 
Q 1028 -725 1275 -790 
Q 1522 -856 1778 -856 
Q 2344 -856 2625 -561 
Q 2906 -266 2906 331 
L 2906 616 
Q 2728 306 2450 153 
Q 2172 0 1784 0 
Q 1141 0 747 490 
Q 353 981 353 1791 
Q 353 2603 747 3093 
Q 1141 3584 1784 3584 
Q 2172 3584 2450 3431 
Q 2728 3278 2906 2969 
L 2906 3500 
L 3481 3500 
L 3481 434 
z
" transform="scale(0.015625)"/>
      <path id="DejaVuSans-66" d="M 2375 4863 
L 2375 4384 
L 1825 4384 
Q 1516 4384 1395 4259 
Q 1275 4134 1275 3809 
L 1275 3500 
L 2222 3500 
L 2222 3053 
L 1275 3053 
L 1275 0 
L 697 0 
L 697 3053 
L 147 3053 
L 147 3500 
L 697 3500 
L 697 3744 
Q 697 4328 969 4595 
Q 1241 4863 1831 4863 
L 2375 4863 
z
" transform="scale(0.015625)"/>
      <path id="DejaVuSans-6d" d="M 3328 2828 
Q 3544 3216 3844 3400 
Q 4144 3584 4550 3584 
Q 5097 3584 5394 3201 
Q 5691 2819 5691 2113 
L 5691 0 
L 5113 0 
L 5113 2094 
Q 5113 2597 4934 2840 
Q 4756 3084 4391 3084 
Q 3944 3084 3684 2787 
Q 3425 2491 3425 1978 
L 3425 0 
L 2847 0 
L 2847 2094 
Q 2847 2600 2669 2842 
Q 2491 3084 2119 3084 
Q 1678 3084 1418 2786 
Q 1159 2488 1159 1978 
L 1159 0 
L 581 0 
L 581 3500 
L 1159 3500 
L 1159 2956 
Q 1356 3278 1631 3431 
Q 1906 3584 2284 3584 
Q 2666 3584 2933 3390 
Q 3200 3197 3328 2828 
z
" transform="scale(0.015625)"/>
      <path id="DejaVuSans-46" d="M 628 4666 
L 3309 4666 
L 3309 4134 
L 1259 4134 
L 1259 2759 
L 3109 2759 
L 3109 2228 
L 1259 2228 
L 1259 0 
L 628 0 
L 628 4666 
z
" transform="scale(0.015625)"/>
      <path id="DejaVuSans-41" d="M 2188 4044 
L 1331 1722 
L 3047 1722 
L 2188 4044 
z
M 1831 4666 
L 2547 4666 
L 4325 0 
L 3669 0 
L 3244 1197 
L 1141 1197 
L 716 0 
L 50 0 
L 1831 4666 
z
" transform="scale(0.015625)"/>
     </defs>
     <use xlink:href="#DejaVuSans-53"/>
     <use xlink:href="#DejaVuSans-74" x="63.476562"/>
     <use xlink:href="#DejaVuSans-6f" x="102.685547"/>
     <use xlink:href="#DejaVuSans-63" x="163.867188"/>
     <use xlink:href="#DejaVuSans-6b" x="218.847656"/>
     <use xlink:href="#DejaVuSans-20" x="276.757812"/>
     <use xlink:href="#DejaVuSans-54" x="308.544922"/>
     <use xlink:href="#DejaVuSans-72" x="354.878906"/>
     <use xlink:href="#DejaVuSans-61" x="395.992188"/>
     <use xlink:href="#DejaVuSans-64" x="457.271484"/>
     <use xlink:href="#DejaVuSans-69" x="520.748047"/>
     <use xlink:href="#DejaVuSans-6e" x="548.53125"/>
     <use xlink:href="#DejaVuSans-67" x="611.910156"/>
     <use xlink:href="#DejaVuSans-20" x="675.386719"/>
     <use xlink:href="#DejaVuSans-50" x="707.173828"/>
     <use xlink:href="#DejaVuSans-65" x="763.851562"/>
     <use xlink:href="#DejaVuSans-72" x="825.375"/>
     <use xlink:href="#DejaVuSans-66" x="866.488281"/>
     <use xlink:href="#DejaVuSans-6f" x="901.693359"/>
     <use xlink:href="#DejaVuSans-72" x="962.875"/>
     <use xlink:href="#DejaVuSans-6d" x="1002.238281"/>
     <use xlink:href="#DejaVuSans-61" x="1099.650391"/>
     <use xlink:href="#DejaVuSans-6e" x="1160.929688"/>
     <use xlink:href="#DejaVuSans-63" x="1224.308594"/>
     <use xlink:href="#DejaVuSans-65" x="1279.289062"/>
     <use xlink:href="#DejaVuSans-20" x="1340.8125"/>
     <use xlink:href="#DejaVuSans-66" x="1372.599609"/>
     <use xlink:href="#DejaVuSans-6f" x="1407.804688"/>
     <use xlink:href="#DejaVuSans-72" x="1468.986328"/>
     <use xlink:href="#DejaVuSans-20" x="1510.099609"/>
     <use xlink:href="#DejaVuSans-46" x="1541.886719"/>
     <use xlink:href="#DejaVuSans-41" x="1590.28125"/>
     <use xlink:href="#DejaVuSans-53" x="1658.689453"/>
    </g>
   </g>
  </g>
 </g>
 <defs>
  <clipPath id="p296ec989fe">
   <rect x="52.85" y="26.88" width="760.28" height="363.16"/>
  </clipPath>
 </defs>
</svg>
