<?xml version="1.0" encoding="utf-8" standalone="no"?>
<!DOCTYPE svg PUBLIC "-//W3C//DTD SVG 1.1//EN"
  "http://www.w3.org/Graphics/SVG/1.1/DTD/svg11.dtd">
<svg xmlns:xlink="http://www.w3.org/1999/xlink" width="864pt" height="432pt" viewBox="0 0 864 432" xmlns="http://www.w3.org/2000/svg" version="1.1">
 <metadata>
  <rdf:RDF xmlns:dc="http://purl.org/dc/elements/1.1/" xmlns:cc="http://creativecommons.org/ns#" xmlns:rdf="http://www.w3.org/1999/02/22-rdf-syntax-ns#">
   <cc:Work>
    <dc:type rdf:resource="http://purl.org/dc/dcmitype/StillImage"/>
    <dc:date>2024-04-16T14:18:45.353792</dc:date>
    <dc:format>image/svg+xml</dc:format>
    <dc:creator>
     <cc:Agent>
      <dc:title>Matplotlib v3.8.2, https://matplotlib.org/</dc:title>
     </cc:Agent>
    </dc:creator>
   </cc:Work>
  </rdf:RDF>
 </metadata>
 <defs>
  <style type="text/css">*{stroke-linejoin: round; stroke-linecap: butt}</style>
 </defs>
 <g id="figure_1">
  <g id="patch_1">
   <path d="M 0 432 
L 864 432 
L 864 0 
L 0 0 
z
" style="fill: #ffffff"/>
  </g>
  <g id="axes_1">
   <g id="patch_2">
    <path d="M 44.57 390.04 
L 813.04 390.04 
L 813.04 26.88 
L 44.57 26.88 
z
" style="fill: #ffffff"/>
   </g>
   <g id="matplotlib.axis_1">
    <g id="xtick_1">
     <g id="line2d_1">
      <path d="M 79.117025 390.04 
L 79.117025 26.88 
" clip-path="url(#pec7ff7c081)" style="fill: none; stroke-dasharray: 1.85,0.8; stroke-dashoffset: 0; stroke: #b0b0b0; stroke-opacity: 0.5; stroke-width: 0.5"/>
     </g>
     <g id="line2d_2">
      <defs>
       <path id="m100bdc9445" d="M 0 0 
L 0 3.5 
" style="stroke: #000000; stroke-width: 0.8"/>
      </defs>
      <g>
       <use xlink:href="#m100bdc9445" x="79.117025" y="390.04" style="stroke: #000000; stroke-width: 0.8"/>
      </g>
     </g>
     <g id="text_1">
      <!-- 2019 -->
      <g transform="translate(66.392025 404.638438) scale(0.1 -0.1)">
       <defs>
        <path id="DejaVuSans-32" d="M 1228 531 
L 3431 531 
L 3431 0 
L 469 0 
L 469 531 
Q 828 903 1448 1529 
Q 2069 2156 2228 2338 
Q 2531 2678 2651 2914 
Q 2772 3150 2772 3378 
Q 2772 3750 2511 3984 
Q 2250 4219 1831 4219 
Q 1534 4219 1204 4116 
Q 875 4013 500 3803 
L 500 4441 
Q 881 4594 1212 4672 
Q 1544 4750 1819 4750 
Q 2544 4750 2975 4387 
Q 3406 4025 3406 3419 
Q 3406 3131 3298 2873 
Q 3191 2616 2906 2266 
Q 2828 2175 2409 1742 
Q 1991 1309 1228 531 
z
" transform="scale(0.015625)"/>
        <path id="DejaVuSans-30" d="M 2034 4250 
Q 1547 4250 1301 3770 
Q 1056 3291 1056 2328 
Q 1056 1369 1301 889 
Q 1547 409 2034 409 
Q 2525 409 2770 889 
Q 3016 1369 3016 2328 
Q 3016 3291 2770 3770 
Q 2525 4250 2034 4250 
z
M 2034 4750 
Q 2819 4750 3233 4129 
Q 3647 3509 3647 2328 
Q 3647 1150 3233 529 
Q 2819 -91 2034 -91 
Q 1250 -91 836 529 
Q 422 1150 422 2328 
Q 422 3509 836 4129 
Q 1250 4750 2034 4750 
z
" transform="scale(0.015625)"/>
        <path id="DejaVuSans-31" d="M 794 531 
L 1825 531 
L 1825 4091 
L 703 3866 
L 703 4441 
L 1819 4666 
L 2450 4666 
L 2450 531 
L 3481 531 
L 3481 0 
L 794 0 
L 794 531 
z
" transform="scale(0.015625)"/>
        <path id="DejaVuSans-39" d="M 703 97 
L 703 672 
Q 941 559 1184 500 
Q 1428 441 1663 441 
Q 2288 441 2617 861 
Q 2947 1281 2994 2138 
Q 2813 1869 2534 1725 
Q 2256 1581 1919 1581 
Q 1219 1581 811 2004 
Q 403 2428 403 3163 
Q 403 3881 828 4315 
Q 1253 4750 1959 4750 
Q 2769 4750 3195 4129 
Q 3622 3509 3622 2328 
Q 3622 1225 3098 567 
Q 2575 -91 1691 -91 
Q 1453 -91 1209 -44 
Q 966 3 703 97 
z
M 1959 2075 
Q 2384 2075 2632 2365 
Q 2881 2656 2881 3163 
Q 2881 3666 2632 3958 
Q 2384 4250 1959 4250 
Q 1534 4250 1286 3958 
Q 1038 3666 1038 3163 
Q 1038 2656 1286 2365 
Q 1534 2075 1959 2075 
z
" transform="scale(0.015625)"/>
       </defs>
       <use xlink:href="#DejaVuSans-32"/>
       <use xlink:href="#DejaVuSans-30" x="63.623047"/>
       <use xlink:href="#DejaVuSans-31" x="127.246094"/>
       <use xlink:href="#DejaVuSans-39" x="190.869141"/>
      </g>
     </g>
    </g>
    <g id="xtick_2">
     <g id="line2d_3">
      <path d="M 219.068901 390.04 
L 219.068901 26.88 
" clip-path="url(#pec7ff7c081)" style="fill: none; stroke-dasharray: 1.85,0.8; stroke-dashoffset: 0; stroke: #b0b0b0; stroke-opacity: 0.5; stroke-width: 0.5"/>
     </g>
     <g id="line2d_4">
      <g>
       <use xlink:href="#m100bdc9445" x="219.068901" y="390.04" style="stroke: #000000; stroke-width: 0.8"/>
      </g>
     </g>
     <g id="text_2">
      <!-- 2020 -->
      <g transform="translate(206.343901 404.638438) scale(0.1 -0.1)">
       <use xlink:href="#DejaVuSans-32"/>
       <use xlink:href="#DejaVuSans-30" x="63.623047"/>
       <use xlink:href="#DejaVuSans-32" x="127.246094"/>
       <use xlink:href="#DejaVuSans-30" x="190.869141"/>
      </g>
     </g>
    </g>
    <g id="xtick_3">
     <g id="line2d_5">
      <path d="M 359.404207 390.04 
L 359.404207 26.88 
" clip-path="url(#pec7ff7c081)" style="fill: none; stroke-dasharray: 1.85,0.8; stroke-dashoffset: 0; stroke: #b0b0b0; stroke-opacity: 0.5; stroke-width: 0.5"/>
     </g>
     <g id="line2d_6">
      <g>
       <use xlink:href="#m100bdc9445" x="359.404207" y="390.04" style="stroke: #000000; stroke-width: 0.8"/>
      </g>
     </g>
     <g id="text_3">
      <!-- 2021 -->
      <g transform="translate(346.679207 404.638438) scale(0.1 -0.1)">
       <use xlink:href="#DejaVuSans-32"/>
       <use xlink:href="#DejaVuSans-30" x="63.623047"/>
       <use xlink:href="#DejaVuSans-32" x="127.246094"/>
       <use xlink:href="#DejaVuSans-31" x="190.869141"/>
      </g>
     </g>
    </g>
    <g id="xtick_4">
     <g id="line2d_7">
      <path d="M 499.356083 390.04 
L 499.356083 26.88 
" clip-path="url(#pec7ff7c081)" style="fill: none; stroke-dasharray: 1.85,0.8; stroke-dashoffset: 0; stroke: #b0b0b0; stroke-opacity: 0.5; stroke-width: 0.5"/>
     </g>
     <g id="line2d_8">
      <g>
       <use xlink:href="#m100bdc9445" x="499.356083" y="390.04" style="stroke: #000000; stroke-width: 0.8"/>
      </g>
     </g>
     <g id="text_4">
      <!-- 2022 -->
      <g transform="translate(486.631083 404.638438) scale(0.1 -0.1)">
       <use xlink:href="#DejaVuSans-32"/>
       <use xlink:href="#DejaVuSans-30" x="63.623047"/>
       <use xlink:href="#DejaVuSans-32" x="127.246094"/>
       <use xlink:href="#DejaVuSans-32" x="190.869141"/>
      </g>
     </g>
    </g>
    <g id="xtick_5">
     <g id="line2d_9">
      <path d="M 639.307959 390.04 
L 639.307959 26.88 
" clip-path="url(#pec7ff7c081)" style="fill: none; stroke-dasharray: 1.85,0.8; stroke-dashoffset: 0; stroke: #b0b0b0; stroke-opacity: 0.5; stroke-width: 0.5"/>
     </g>
     <g id="line2d_10">
      <g>
       <use xlink:href="#m100bdc9445" x="639.307959" y="390.04" style="stroke: #000000; stroke-width: 0.8"/>
      </g>
     </g>
     <g id="text_5">
      <!-- 2023 -->
      <g transform="translate(626.582959 404.638438) scale(0.1 -0.1)">
       <defs>
        <path id="DejaVuSans-33" d="M 2597 2516 
Q 3050 2419 3304 2112 
Q 3559 1806 3559 1356 
Q 3559 666 3084 287 
Q 2609 -91 1734 -91 
Q 1441 -91 1130 -33 
Q 819 25 488 141 
L 488 750 
Q 750 597 1062 519 
Q 1375 441 1716 441 
Q 2309 441 2620 675 
Q 2931 909 2931 1356 
Q 2931 1769 2642 2001 
Q 2353 2234 1838 2234 
L 1294 2234 
L 1294 2753 
L 1863 2753 
Q 2328 2753 2575 2939 
Q 2822 3125 2822 3475 
Q 2822 3834 2567 4026 
Q 2313 4219 1838 4219 
Q 1578 4219 1281 4162 
Q 984 4106 628 3988 
L 628 4550 
Q 988 4650 1302 4700 
Q 1616 4750 1894 4750 
Q 2613 4750 3031 4423 
Q 3450 4097 3450 3541 
Q 3450 3153 3228 2886 
Q 3006 2619 2597 2516 
z
" transform="scale(0.015625)"/>
       </defs>
       <use xlink:href="#DejaVuSans-32"/>
       <use xlink:href="#DejaVuSans-30" x="63.623047"/>
       <use xlink:href="#DejaVuSans-32" x="127.246094"/>
       <use xlink:href="#DejaVuSans-33" x="190.869141"/>
      </g>
     </g>
    </g>
    <g id="xtick_6">
     <g id="line2d_11">
      <path d="M 779.259835 390.04 
L 779.259835 26.88 
" clip-path="url(#pec7ff7c081)" style="fill: none; stroke-dasharray: 1.85,0.8; stroke-dashoffset: 0; stroke: #b0b0b0; stroke-opacity: 0.5; stroke-width: 0.5"/>
     </g>
     <g id="line2d_12">
      <g>
       <use xlink:href="#m100bdc9445" x="779.259835" y="390.04" style="stroke: #000000; stroke-width: 0.8"/>
      </g>
     </g>
     <g id="text_6">
      <!-- 2024 -->
      <g transform="translate(766.534835 404.638438) scale(0.1 -0.1)">
       <defs>
        <path id="DejaVuSans-34" d="M 2419 4116 
L 825 1625 
L 2419 1625 
L 2419 4116 
z
M 2253 4666 
L 3047 4666 
L 3047 1625 
L 3713 1625 
L 3713 1100 
L 3047 1100 
L 3047 0 
L 2419 0 
L 2419 1100 
L 313 1100 
L 313 1709 
L 2253 4666 
z
" transform="scale(0.015625)"/>
       </defs>
       <use xlink:href="#DejaVuSans-32"/>
       <use xlink:href="#DejaVuSans-30" x="63.623047"/>
       <use xlink:href="#DejaVuSans-32" x="127.246094"/>
       <use xlink:href="#DejaVuSans-34" x="190.869141"/>
      </g>
     </g>
    </g>
    <g id="text_7">
     <!-- Date -->
     <g transform="translate(416.854219 418.316562) scale(0.1 -0.1)">
      <defs>
       <path id="DejaVuSans-44" d="M 1259 4147 
L 1259 519 
L 2022 519 
Q 2988 519 3436 956 
Q 3884 1394 3884 2338 
Q 3884 3275 3436 3711 
Q 2988 4147 2022 4147 
L 1259 4147 
z
M 628 4666 
L 1925 4666 
Q 3281 4666 3915 4102 
Q 4550 3538 4550 2338 
Q 4550 1131 3912 565 
Q 3275 0 1925 0 
L 628 0 
L 628 4666 
z
" transform="scale(0.015625)"/>
       <path id="DejaVuSans-61" d="M 2194 1759 
Q 1497 1759 1228 1600 
Q 959 1441 959 1056 
Q 959 750 1161 570 
Q 1363 391 1709 391 
Q 2188 391 2477 730 
Q 2766 1069 2766 1631 
L 2766 1759 
L 2194 1759 
z
M 3341 1997 
L 3341 0 
L 2766 0 
L 2766 531 
Q 2569 213 2275 61 
Q 1981 -91 1556 -91 
Q 1019 -91 701 211 
Q 384 513 384 1019 
Q 384 1609 779 1909 
Q 1175 2209 1959 2209 
L 2766 2209 
L 2766 2266 
Q 2766 2663 2505 2880 
Q 2244 3097 1772 3097 
Q 1472 3097 1187 3025 
Q 903 2953 641 2809 
L 641 3341 
Q 956 3463 1253 3523 
Q 1550 3584 1831 3584 
Q 2591 3584 2966 3190 
Q 3341 2797 3341 1997 
z
" transform="scale(0.015625)"/>
       <path id="DejaVuSans-74" d="M 1172 4494 
L 1172 3500 
L 2356 3500 
L 2356 3053 
L 1172 3053 
L 1172 1153 
Q 1172 725 1289 603 
Q 1406 481 1766 481 
L 2356 481 
L 2356 0 
L 1766 0 
Q 1100 0 847 248 
Q 594 497 594 1153 
L 594 3053 
L 172 3053 
L 172 3500 
L 594 3500 
L 594 4494 
L 1172 4494 
z
" transform="scale(0.015625)"/>
       <path id="DejaVuSans-65" d="M 3597 1894 
L 3597 1613 
L 953 1613 
Q 991 1019 1311 708 
Q 1631 397 2203 397 
Q 2534 397 2845 478 
Q 3156 559 3463 722 
L 3463 178 
Q 3153 47 2828 -22 
Q 2503 -91 2169 -91 
Q 1331 -91 842 396 
Q 353 884 353 1716 
Q 353 2575 817 3079 
Q 1281 3584 2069 3584 
Q 2775 3584 3186 3129 
Q 3597 2675 3597 1894 
z
M 3022 2063 
Q 3016 2534 2758 2815 
Q 2500 3097 2075 3097 
Q 1594 3097 1305 2825 
Q 1016 2553 972 2059 
L 3022 2063 
z
" transform="scale(0.015625)"/>
      </defs>
      <use xlink:href="#DejaVuSans-44"/>
      <use xlink:href="#DejaVuSans-61" x="77.001953"/>
      <use xlink:href="#DejaVuSans-74" x="138.28125"/>
      <use xlink:href="#DejaVuSans-65" x="177.490234"/>
     </g>
    </g>
   </g>
   <g id="matplotlib.axis_2">
    <g id="ytick_1">
     <g id="line2d_13">
      <path d="M 44.57 373.532727 
L 813.04 373.532727 
" clip-path="url(#pec7ff7c081)" style="fill: none; stroke-dasharray: 1.85,0.8; stroke-dashoffset: 0; stroke: #b0b0b0; stroke-opacity: 0.5; stroke-width: 0.5"/>
     </g>
     <g id="line2d_14">
      <defs>
       <path id="m7f0429d5e1" d="M 0 0 
L -3.5 0 
" style="stroke: #000000; stroke-width: 0.8"/>
      </defs>
      <g>
       <use xlink:href="#m7f0429d5e1" x="44.57" y="373.532727" style="stroke: #000000; stroke-width: 0.8"/>
      </g>
     </g>
     <g id="text_8">
      <!-- 0 -->
      <g style="fill: #d62728" transform="translate(31.2075 377.331946) scale(0.1 -0.1)">
       <use xlink:href="#DejaVuSans-30"/>
      </g>
     </g>
    </g>
    <g id="ytick_2">
     <g id="line2d_15">
      <path d="M 44.57 316.334071 
L 813.04 316.334071 
" clip-path="url(#pec7ff7c081)" style="fill: none; stroke-dasharray: 1.85,0.8; stroke-dashoffset: 0; stroke: #b0b0b0; stroke-opacity: 0.5; stroke-width: 0.5"/>
     </g>
     <g id="line2d_16">
      <g>
       <use xlink:href="#m7f0429d5e1" x="44.57" y="316.334071" style="stroke: #000000; stroke-width: 0.8"/>
      </g>
     </g>
     <g id="text_9">
      <!-- 10 -->
      <g style="fill: #d62728" transform="translate(24.845 320.13329) scale(0.1 -0.1)">
       <use xlink:href="#DejaVuSans-31"/>
       <use xlink:href="#DejaVuSans-30" x="63.623047"/>
      </g>
     </g>
    </g>
    <g id="ytick_3">
     <g id="line2d_17">
      <path d="M 44.57 259.135415 
L 813.04 259.135415 
" clip-path="url(#pec7ff7c081)" style="fill: none; stroke-dasharray: 1.85,0.8; stroke-dashoffset: 0; stroke: #b0b0b0; stroke-opacity: 0.5; stroke-width: 0.5"/>
     </g>
     <g id="line2d_18">
      <g>
       <use xlink:href="#m7f0429d5e1" x="44.57" y="259.135415" style="stroke: #000000; stroke-width: 0.8"/>
      </g>
     </g>
     <g id="text_10">
      <!-- 20 -->
      <g style="fill: #d62728" transform="translate(24.845 262.934634) scale(0.1 -0.1)">
       <use xlink:href="#DejaVuSans-32"/>
       <use xlink:href="#DejaVuSans-30" x="63.623047"/>
      </g>
     </g>
    </g>
    <g id="ytick_4">
     <g id="line2d_19">
      <path d="M 44.57 201.936759 
L 813.04 201.936759 
" clip-path="url(#pec7ff7c081)" style="fill: none; stroke-dasharray: 1.85,0.8; stroke-dashoffset: 0; stroke: #b0b0b0; stroke-opacity: 0.5; stroke-width: 0.5"/>
     </g>
     <g id="line2d_20">
      <g>
       <use xlink:href="#m7f0429d5e1" x="44.57" y="201.936759" style="stroke: #000000; stroke-width: 0.8"/>
      </g>
     </g>
     <g id="text_11">
      <!-- 30 -->
      <g style="fill: #d62728" transform="translate(24.845 205.735978) scale(0.1 -0.1)">
       <use xlink:href="#DejaVuSans-33"/>
       <use xlink:href="#DejaVuSans-30" x="63.623047"/>
      </g>
     </g>
    </g>
    <g id="ytick_5">
     <g id="line2d_21">
      <path d="M 44.57 144.738103 
L 813.04 144.738103 
" clip-path="url(#pec7ff7c081)" style="fill: none; stroke-dasharray: 1.85,0.8; stroke-dashoffset: 0; stroke: #b0b0b0; stroke-opacity: 0.5; stroke-width: 0.5"/>
     </g>
     <g id="line2d_22">
      <g>
       <use xlink:href="#m7f0429d5e1" x="44.57" y="144.738103" style="stroke: #000000; stroke-width: 0.8"/>
      </g>
     </g>
     <g id="text_12">
      <!-- 40 -->
      <g style="fill: #d62728" transform="translate(24.845 148.537322) scale(0.1 -0.1)">
       <use xlink:href="#DejaVuSans-34"/>
       <use xlink:href="#DejaVuSans-30" x="63.623047"/>
      </g>
     </g>
    </g>
    <g id="ytick_6">
     <g id="line2d_23">
      <path d="M 44.57 87.539447 
L 813.04 87.539447 
" clip-path="url(#pec7ff7c081)" style="fill: none; stroke-dasharray: 1.85,0.8; stroke-dashoffset: 0; stroke: #b0b0b0; stroke-opacity: 0.5; stroke-width: 0.5"/>
     </g>
     <g id="line2d_24">
      <g>
       <use xlink:href="#m7f0429d5e1" x="44.57" y="87.539447" style="stroke: #000000; stroke-width: 0.8"/>
      </g>
     </g>
     <g id="text_13">
      <!-- 50 -->
      <g style="fill: #d62728" transform="translate(24.845 91.338666) scale(0.1 -0.1)">
       <defs>
        <path id="DejaVuSans-35" d="M 691 4666 
L 3169 4666 
L 3169 4134 
L 1269 4134 
L 1269 2991 
Q 1406 3038 1543 3061 
Q 1681 3084 1819 3084 
Q 2600 3084 3056 2656 
Q 3513 2228 3513 1497 
Q 3513 744 3044 326 
Q 2575 -91 1722 -91 
Q 1428 -91 1123 -41 
Q 819 9 494 109 
L 494 744 
Q 775 591 1075 516 
Q 1375 441 1709 441 
Q 2250 441 2565 725 
Q 2881 1009 2881 1497 
Q 2881 1984 2565 2268 
Q 2250 2553 1709 2553 
Q 1456 2553 1204 2497 
Q 953 2441 691 2322 
L 691 4666 
z
" transform="scale(0.015625)"/>
       </defs>
       <use xlink:href="#DejaVuSans-35"/>
       <use xlink:href="#DejaVuSans-30" x="63.623047"/>
      </g>
     </g>
    </g>
    <g id="ytick_7">
     <g id="line2d_25">
      <path d="M 44.57 30.340791 
L 813.04 30.340791 
" clip-path="url(#pec7ff7c081)" style="fill: none; stroke-dasharray: 1.85,0.8; stroke-dashoffset: 0; stroke: #b0b0b0; stroke-opacity: 0.5; stroke-width: 0.5"/>
     </g>
     <g id="line2d_26">
      <g>
       <use xlink:href="#m7f0429d5e1" x="44.57" y="30.340791" style="stroke: #000000; stroke-width: 0.8"/>
      </g>
     </g>
     <g id="text_14">
      <!-- 60 -->
      <g style="fill: #d62728" transform="translate(24.845 34.14001) scale(0.1 -0.1)">
       <defs>
        <path id="DejaVuSans-36" d="M 2113 2584 
Q 1688 2584 1439 2293 
Q 1191 2003 1191 1497 
Q 1191 994 1439 701 
Q 1688 409 2113 409 
Q 2538 409 2786 701 
Q 3034 994 3034 1497 
Q 3034 2003 2786 2293 
Q 2538 2584 2113 2584 
z
M 3366 4563 
L 3366 3988 
Q 3128 4100 2886 4159 
Q 2644 4219 2406 4219 
Q 1781 4219 1451 3797 
Q 1122 3375 1075 2522 
Q 1259 2794 1537 2939 
Q 1816 3084 2150 3084 
Q 2853 3084 3261 2657 
Q 3669 2231 3669 1497 
Q 3669 778 3244 343 
Q 2819 -91 2113 -91 
Q 1303 -91 875 529 
Q 447 1150 447 2328 
Q 447 3434 972 4092 
Q 1497 4750 2381 4750 
Q 2619 4750 2861 4703 
Q 3103 4656 3366 4563 
z
" transform="scale(0.015625)"/>
       </defs>
       <use xlink:href="#DejaVuSans-36"/>
       <use xlink:href="#DejaVuSans-30" x="63.623047"/>
      </g>
     </g>
    </g>
    <g id="text_15">
     <!-- Returns (%) -->
     <g style="fill: #d62728" transform="translate(18.765312 237.8975) rotate(-90) scale(0.1 -0.1)">
      <defs>
       <path id="DejaVuSans-52" d="M 2841 2188 
Q 3044 2119 3236 1894 
Q 3428 1669 3622 1275 
L 4263 0 
L 3584 0 
L 2988 1197 
Q 2756 1666 2539 1819 
Q 2322 1972 1947 1972 
L 1259 1972 
L 1259 0 
L 628 0 
L 628 4666 
L 2053 4666 
Q 2853 4666 3247 4331 
Q 3641 3997 3641 3322 
Q 3641 2881 3436 2590 
Q 3231 2300 2841 2188 
z
M 1259 4147 
L 1259 2491 
L 2053 2491 
Q 2509 2491 2742 2702 
Q 2975 2913 2975 3322 
Q 2975 3731 2742 3939 
Q 2509 4147 2053 4147 
L 1259 4147 
z
" transform="scale(0.015625)"/>
       <path id="DejaVuSans-75" d="M 544 1381 
L 544 3500 
L 1119 3500 
L 1119 1403 
Q 1119 906 1312 657 
Q 1506 409 1894 409 
Q 2359 409 2629 706 
Q 2900 1003 2900 1516 
L 2900 3500 
L 3475 3500 
L 3475 0 
L 2900 0 
L 2900 538 
Q 2691 219 2414 64 
Q 2138 -91 1772 -91 
Q 1169 -91 856 284 
Q 544 659 544 1381 
z
M 1991 3584 
L 1991 3584 
z
" transform="scale(0.015625)"/>
       <path id="DejaVuSans-72" d="M 2631 2963 
Q 2534 3019 2420 3045 
Q 2306 3072 2169 3072 
Q 1681 3072 1420 2755 
Q 1159 2438 1159 1844 
L 1159 0 
L 581 0 
L 581 3500 
L 1159 3500 
L 1159 2956 
Q 1341 3275 1631 3429 
Q 1922 3584 2338 3584 
Q 2397 3584 2469 3576 
Q 2541 3569 2628 3553 
L 2631 2963 
z
" transform="scale(0.015625)"/>
       <path id="DejaVuSans-6e" d="M 3513 2113 
L 3513 0 
L 2938 0 
L 2938 2094 
Q 2938 2591 2744 2837 
Q 2550 3084 2163 3084 
Q 1697 3084 1428 2787 
Q 1159 2491 1159 1978 
L 1159 0 
L 581 0 
L 581 3500 
L 1159 3500 
L 1159 2956 
Q 1366 3272 1645 3428 
Q 1925 3584 2291 3584 
Q 2894 3584 3203 3211 
Q 3513 2838 3513 2113 
z
" transform="scale(0.015625)"/>
       <path id="DejaVuSans-73" d="M 2834 3397 
L 2834 2853 
Q 2591 2978 2328 3040 
Q 2066 3103 1784 3103 
Q 1356 3103 1142 2972 
Q 928 2841 928 2578 
Q 928 2378 1081 2264 
Q 1234 2150 1697 2047 
L 1894 2003 
Q 2506 1872 2764 1633 
Q 3022 1394 3022 966 
Q 3022 478 2636 193 
Q 2250 -91 1575 -91 
Q 1294 -91 989 -36 
Q 684 19 347 128 
L 347 722 
Q 666 556 975 473 
Q 1284 391 1588 391 
Q 1994 391 2212 530 
Q 2431 669 2431 922 
Q 2431 1156 2273 1281 
Q 2116 1406 1581 1522 
L 1381 1569 
Q 847 1681 609 1914 
Q 372 2147 372 2553 
Q 372 3047 722 3315 
Q 1072 3584 1716 3584 
Q 2034 3584 2315 3537 
Q 2597 3491 2834 3397 
z
" transform="scale(0.015625)"/>
       <path id="DejaVuSans-20" transform="scale(0.015625)"/>
       <path id="DejaVuSans-28" d="M 1984 4856 
Q 1566 4138 1362 3434 
Q 1159 2731 1159 2009 
Q 1159 1288 1364 580 
Q 1569 -128 1984 -844 
L 1484 -844 
Q 1016 -109 783 600 
Q 550 1309 550 2009 
Q 550 2706 781 3412 
Q 1013 4119 1484 4856 
L 1984 4856 
z
" transform="scale(0.015625)"/>
       <path id="DejaVuSans-25" d="M 4653 2053 
Q 4381 2053 4226 1822 
Q 4072 1591 4072 1178 
Q 4072 772 4226 539 
Q 4381 306 4653 306 
Q 4919 306 5073 539 
Q 5228 772 5228 1178 
Q 5228 1588 5073 1820 
Q 4919 2053 4653 2053 
z
M 4653 2450 
Q 5147 2450 5437 2106 
Q 5728 1763 5728 1178 
Q 5728 594 5436 251 
Q 5144 -91 4653 -91 
Q 4153 -91 3862 251 
Q 3572 594 3572 1178 
Q 3572 1766 3864 2108 
Q 4156 2450 4653 2450 
z
M 1428 4353 
Q 1159 4353 1004 4120 
Q 850 3888 850 3481 
Q 850 3069 1003 2837 
Q 1156 2606 1428 2606 
Q 1700 2606 1854 2837 
Q 2009 3069 2009 3481 
Q 2009 3884 1853 4118 
Q 1697 4353 1428 4353 
z
M 4250 4750 
L 4750 4750 
L 1831 -91 
L 1331 -91 
L 4250 4750 
z
M 1428 4750 
Q 1922 4750 2215 4408 
Q 2509 4066 2509 3481 
Q 2509 2891 2217 2550 
Q 1925 2209 1428 2209 
Q 931 2209 642 2551 
Q 353 2894 353 3481 
Q 353 4063 643 4406 
Q 934 4750 1428 4750 
z
" transform="scale(0.015625)"/>
       <path id="DejaVuSans-29" d="M 513 4856 
L 1013 4856 
Q 1481 4119 1714 3412 
Q 1947 2706 1947 2009 
Q 1947 1309 1714 600 
Q 1481 -109 1013 -844 
L 513 -844 
Q 928 -128 1133 580 
Q 1338 1288 1338 2009 
Q 1338 2731 1133 3434 
Q 928 4138 513 4856 
z
" transform="scale(0.015625)"/>
      </defs>
      <use xlink:href="#DejaVuSans-52"/>
      <use xlink:href="#DejaVuSans-65" x="64.982422"/>
      <use xlink:href="#DejaVuSans-74" x="126.505859"/>
      <use xlink:href="#DejaVuSans-75" x="165.714844"/>
      <use xlink:href="#DejaVuSans-72" x="229.09375"/>
      <use xlink:href="#DejaVuSans-6e" x="268.457031"/>
      <use xlink:href="#DejaVuSans-73" x="331.835938"/>
      <use xlink:href="#DejaVuSans-20" x="383.935547"/>
      <use xlink:href="#DejaVuSans-28" x="415.722656"/>
      <use xlink:href="#DejaVuSans-25" x="454.736328"/>
      <use xlink:href="#DejaVuSans-29" x="549.755859"/>
     </g>
    </g>
   </g>
   <g id="line2d_27">
    <path d="M 79.500455 373.532727 
L 87.93591 373.532727 
L 88.31934 365.172194 
L 89.469629 363.141104 
L 90.236489 356.528253 
L 90.619919 356.244845 
L 91.003348 357.425712 
L 92.153638 359.976383 
L 92.537068 358.464874 
L 92.920497 362.432584 
L 93.303927 361.015545 
L 93.687357 358.795516 
L 94.837646 361.67683 
L 95.221076 360.448729 
L 95.604506 362.763227 
L 96.371366 356.008672 
L 97.905085 347.034089 
L 98.288515 348.073251 
L 98.671944 354.827806 
L 99.055374 352.702247 
L 100.205664 353.316297 
L 100.589093 352.324369 
L 101.355953 359.834679 
L 101.739383 369.80119 
L 102.889672 371.312699 
L 103.273102 370.556944 
L 104.039962 371.548872 
L 104.423391 365.266664 
L 105.573681 368.100743 
L 106.34054 360.543198 
L 106.72397 367.297753 
L 107.1074 364.652613 
L 108.257689 364.32197 
L 108.641119 362.715992 
L 109.024549 358.93722 
L 109.407979 361.298953 
L 110.941698 355.441856 
L 111.708558 361.440657 
L 112.091987 369.706721 
L 112.475417 369.187139 
L 113.625707 371.454403 
L 114.009136 369.328843 
L 114.392566 370.179067 
L 114.775996 368.714793 
L 115.159426 369.328843 
L 116.309715 366.825407 
L 116.693145 363.802389 
L 117.076575 362.007473 
L 117.460004 369.470547 
L 117.843434 370.037363 
L 124.361741 370.037363 
L 124.745171 368.27529 
L 125.1286 368.27529 
L 125.51203 370.480447 
L 135.481205 370.480447 
L 135.864635 370.29009 
L 136.248065 366.387769 
L 136.631494 358.583126 
L 137.781784 350.112234 
L 138.165214 349.921877 
L 138.932073 346.44786 
L 139.315503 343.069021 
L 140.465792 349.06527 
L 140.849222 349.779109 
L 141.616082 343.021431 
L 141.999512 343.211788 
L 143.149801 343.592503 
L 143.916661 336.882414 
L 144.30009 321.558665 
L 144.68352 317.418398 
L 145.83381 308.090898 
L 154.269265 308.090898 
L 155.036125 288.448102 
L 155.419554 298.125068 
L 156.569844 298.221356 
L 156.953274 301.880308 
L 157.336703 298.606509 
L 157.720133 303.180199 
L 158.103563 302.121029 
L 159.253852 297.836203 
L 159.637282 295.669718 
L 160.020712 304.191226 
L 160.404142 288.785111 
L 160.787572 291.288604 
L 161.937861 282.141224 
L 162.321291 276.749084 
L 162.704721 266.590677 
L 163.08815 263.172445 
L 173.824185 263.172445 
L 174.207615 268.988107 
L 175.357904 271.514583 
L 175.741334 277.282575 
L 176.124763 273.23068 
L 176.508193 271.848268 
L 176.891623 277.425584 
L 178.425342 270.513526 
L 178.808772 274.756099 
L 179.192202 272.038946 
L 179.575632 264.078163 
L 180.725921 260.264614 
L 181.109351 256.641743 
L 181.492781 269.417131 
L 181.87621 269.607809 
L 183.40993 283.527262 
L 183.793359 279.90439 
L 184.176789 272.134285 
L 184.560219 269.083446 
L 184.943649 269.083446 
L 186.093938 274.851438 
L 186.477368 268.988107 
L 186.860798 268.368405 
L 187.244228 274.279406 
L 187.627657 277.997616 
L 188.777947 275.328132 
L 189.161377 279.999729 
L 189.544806 276.18618 
L 189.928236 275.232793 
L 190.311666 275.947833 
L 191.461955 279.14168 
L 192.228815 275.614148 
L 192.612245 270.847212 
L 192.995675 269.274123 
L 194.529394 276.94889 
L 199.513981 276.94889 
L 199.897411 275.144066 
L 200.280841 272.461221 
L 201.0477 272.461221 
L 202.19799 270.464799 
L 203.348279 270.464799 
L 203.731709 271.736622 
L 248.592995 271.736622 
L 248.976425 284.474489 
L 250.510144 244.920062 
L 250.893574 210.920495 
L 251.277004 220.976705 
L 251.660434 211.686682 
L 252.043863 216.427467 
L 253.194153 213.219057 
L 253.577583 236.539887 
L 253.961012 229.835747 
L 254.344442 218.103502 
L 254.727872 214.511998 
L 255.878161 194.255918 
L 256.261591 198.278402 
L 256.645021 204.934655 
L 257.028451 185.588422 
L 269.298204 185.588422 
L 269.681634 182.633277 
L 270.448494 168.477176 
L 270.831923 164.092121 
L 271.982213 170.002412 
L 272.365643 162.519221 
L 272.749072 160.660339 
L 273.132502 172.099612 
L 273.515932 167.523903 
L 275.049651 178.581867 
L 275.433081 177.199622 
L 275.816511 174.625785 
L 276.199941 168.953812 
L 277.35023 165.379039 
L 277.73366 170.431385 
L 278.11709 184.730477 
L 278.500519 176.722985 
L 278.883949 192.308996 
L 280.034239 184.158513 
L 280.417668 176.818313 
L 280.801098 165.808012 
L 281.184528 171.432321 
L 281.567958 170.336058 
L 283.101677 172.099612 
L 283.485107 170.622039 
L 283.868537 172.147276 
L 284.251966 163.615484 
L 285.402256 158.563139 
L 307.641184 158.563139 
L 308.024614 153.122551 
L 308.408044 159.469903 
L 309.558333 163.917367 
L 309.941763 162.967424 
L 310.325193 153.727061 
L 310.708622 162.881065 
L 311.092052 149.279596 
L 312.242342 147.379709 
L 312.625771 146.429765 
L 313.009201 156.922326 
L 313.392631 163.312858 
L 313.776061 161.153894 
L 315.30978 162.665169 
L 315.69321 155.065618 
L 316.07664 157.613195 
L 316.460069 157.656374 
L 317.610359 151.43856 
L 317.993789 153.338447 
L 318.377218 151.093126 
L 318.760648 155.454231 
L 319.144078 154.417929 
L 320.294367 170.307899 
L 320.677797 174.064495 
L 321.061227 190.731691 
L 321.444657 187.925039 
L 321.828087 190.084002 
L 322.978376 182.484452 
L 323.361806 176.050741 
L 323.745236 180.670922 
L 324.128665 173.848598 
L 324.512095 174.539467 
L 325.662384 170.782871 
L 326.045814 179.893696 
L 326.429244 180.23913 
L 326.812674 177.518836 
L 327.196104 163.571933 
L 328.346393 165.817255 
L 334.48127 165.817255 
L 334.8647 169.048676 
L 335.248129 165.507393 
L 336.398419 157.9379 
L 336.781849 153.46703 
L 339.082427 153.46703 
L 339.465857 150.843202 
L 342.916725 150.843202 
L 343.300155 148.438896 
L 344.450445 148.438896 
L 344.833874 160.656667 
L 347.134453 160.656667 
L 347.517883 144.129504 
L 350.585321 144.129504 
L 350.968751 145.662577 
L 352.50247 145.662577 
L 352.8859 134.473147 
L 362.088215 134.473147 
L 363.238505 136.063956 
L 363.621934 130.823644 
L 364.005364 134.332781 
L 364.388794 134.753878 
L 364.772224 144.813405 
L 366.305943 138.029073 
L 366.689373 124.881504 
L 367.072803 125.396178 
L 367.456232 125.396178 
L 368.606522 124.688773 
L 369.373381 124.688773 
L 369.756811 123.927528 
L 371.67396 123.927528 
L 372.05739 125.168567 
L 372.82425 125.168567 
L 373.974539 116.908538 
L 375.124828 116.908538 
L 375.508258 119.425118 
L 377.808837 119.425118 
L 378.192267 115.998192 
L 380.109416 115.998192 
L 380.492846 131.606321 
L 383.176854 131.606321 
L 383.560284 131.094565 
L 386.244292 131.094565 
L 387.394582 127.514295 
L 398.130616 127.514295 
L 398.514046 121.717898 
L 421.136404 121.717898 
L 422.286693 126.545951 
L 422.670123 129.639654 
L 423.053553 143.420698 
L 423.436983 168.076579 
L 423.820413 172.389015 
L 424.970702 162.920406 
L 425.354132 166.201607 
L 426.120991 167.185967 
L 426.504421 164.607881 
L 427.654711 164.654755 
L 428.03814 172.857758 
L 429.18843 161.32668 
L 430.722149 157.436113 
L 431.105579 154.436158 
L 431.489009 154.951776 
L 431.872438 152.326815 
L 433.022728 153.311175 
L 433.406158 152.279941 
L 433.789587 143.748818 
L 434.173017 143.608195 
L 434.556447 151.389329 
L 435.706736 150.451843 
L 447.59306 150.451843 
L 447.97649 150.022407 
L 449.893639 150.022407 
L 450.277069 149.119949 
L 457.945665 149.119949 
L 458.329094 167.151711 
L 458.712524 168.385463 
L 459.862814 162.833579 
L 460.246243 157.613858 
L 460.629673 160.555883 
L 461.013103 169.619215 
L 462.930252 169.619215 
L 463.313682 173.114111 
L 476.733725 173.114111 
L 477.500584 154.150342 
L 478.650874 151.308107 
L 479.034303 147.394209 
L 479.417733 138.72772 
L 479.801163 134.2081 
L 480.184593 132.670497 
L 481.334882 133.928535 
L 481.718312 139.799383 
L 482.101742 132.437527 
L 482.485172 135.046792 
L 484.402321 166.078413 
L 485.55261 168.081956 
L 486.702899 169.153618 
L 487.086329 174.372149 
L 487.469759 171.296944 
L 487.853189 175.583594 
L 488.236619 169.107024 
L 489.386908 171.017379 
L 489.770338 168.268332 
L 490.153768 167.848986 
L 490.537197 172.601576 
L 490.920627 169.339995 
L 492.070917 167.383045 
L 492.454346 174.651713 
L 492.837776 171.343538 
L 493.221206 161.978139 
L 493.604636 163.655523 
L 494.754925 166.963699 
L 495.138355 167.289857 
L 495.521785 159.974595 
L 495.905215 158.204022 
L 497.438934 156.340261 
L 497.822364 159.741625 
L 498.205793 159.974595 
L 498.972653 148.931811 
L 500.122942 161.18604 
L 500.506372 155.408381 
L 500.889802 157.784676 
L 501.273232 167.429639 
L 501.656662 163.888494 
L 502.806951 161.512198 
L 503.190381 152.053611 
L 503.57381 149.95688 
L 504.34067 154.942441 
L 505.874389 156.247073 
L 506.257819 143.713281 
L 506.641249 145.716824 
L 507.024679 148.326089 
L 508.174968 143.946251 
L 508.558398 141.383579 
L 509.325257 164.587404 
L 509.708687 166.917105 
L 510.858977 162.304297 
L 511.242406 161.65198 
L 511.625836 158.809745 
L 512.009266 159.928001 
L 512.392696 158.716557 
L 513.926415 150.469414 
L 530.030467 150.469414 
L 530.413896 139.610221 
L 530.797326 133.759553 
L 531.180756 137.083796 
L 532.331045 151.799111 
L 532.714475 151.444526 
L 533.097905 145.061979 
L 533.481335 144.751717 
L 533.864764 149.848889 
L 535.015054 145.992767 
L 535.398484 151.001293 
L 535.781913 149.139717 
L 536.165343 146.125737 
L 536.548773 141.117211 
L 537.699062 137.12812 
L 538.082492 130.922866 
L 538.465922 127.022421 
L 538.849352 129.726139 
L 540.383071 127.199714 
L 540.766501 139.565898 
L 541.149931 135.621129 
L 541.53336 138.50214 
L 541.91679 146.347353 
L 543.06708 160.708082 
L 543.450509 159.511355 
L 543.833939 165.450669 
L 544.217369 161.239961 
L 544.600799 161.328608 
L 545.751088 175.86663 
L 546.134518 173.827761 
L 546.517948 166.248487 
L 546.901378 169.218144 
L 547.284807 167.93277 
L 548.435097 179.190873 
L 548.818527 185.662066 
L 549.201956 179.456812 
L 549.585386 191.202471 
L 549.968816 197.319077 
L 551.502535 197.319077 
L 551.885965 196.921455 
L 552.269395 185.920575 
L 556.870552 185.920575 
L 557.253982 181.083107 
L 561.85514 181.083107 
L 562.23857 187.200527 
L 563.005429 168.668345 
L 563.388859 175.05565 
L 564.922578 177.934436 
L 565.306008 174.875726 
L 565.689438 174.875726 
L 566.072867 175.645168 
L 570.290595 175.645168 
L 570.674025 187.840545 
L 572.591174 187.840545 
L 572.974604 190.656435 
L 574.124893 190.656435 
L 575.275183 189.944398 
L 576.042042 189.944398 
L 576.425472 179.283518 
L 587.544936 179.283518 
L 588.695226 184.368798 
L 589.078655 179.048088 
L 589.845515 174.433666 
L 590.228945 183.803767 
L 591.379234 183.332908 
L 594.446672 183.332908 
L 594.830102 175.582627 
L 597.130681 175.582627 
L 597.514111 178.544888 
L 599.81469 178.544888 
L 600.198119 174.983792 
L 600.964979 174.983792 
L 602.115268 183.947462 
L 602.498698 183.947462 
L 602.882128 168.117219 
L 610.934154 168.117219 
L 611.317584 169.347081 
L 611.701013 155.511127 
L 612.851303 158.073341 
L 613.234733 156.279791 
L 614.385022 156.279791 
L 615.535311 162.721075 
L 616.302171 162.721075 
L 616.685601 165.70021 
L 628.955354 165.70021 
L 629.338784 163.565641 
L 629.722214 156.497849 
L 630.105644 155.833762 
L 630.489073 153.035106 
L 631.639363 159.581114 
L 632.022793 146.157053 
L 632.406222 148.101882 
L 632.789652 161.146464 
L 633.173082 154.315847 
L 634.323371 156.545284 
L 634.706801 143.453267 
L 635.090231 144.781443 
L 635.473661 154.458151 
L 635.857091 152.086409 
L 637.39081 145.398096 
L 637.77424 149.003144 
L 638.541099 140.796916 
L 640.074818 134.061168 
L 640.458248 126.424157 
L 640.841678 136.622649 
L 641.225108 121.490934 
L 642.375397 119.640975 
L 642.758827 116.605144 
L 643.142257 117.174363 
L 643.909116 97.536337 
L 654.261721 97.536337 
L 654.645151 95.919079 
L 655.79544 100.231766 
L 656.17887 99.594665 
L 656.5623 108.024008 
L 656.945729 108.710117 
L 657.329159 106.210719 
L 658.862878 109.347218 
L 659.246308 114.051968 
L 659.629738 114.493038 
L 660.013168 120.471991 
L 661.163457 117.237476 
L 661.930317 108.661109 
L 662.313747 109.151187 
L 662.697176 100.182758 
L 663.847466 104.446438 
L 664.230896 119.14878 
L 664.614325 119.540843 
L 664.997755 111.405546 
L 665.381185 93.419681 
L 666.531474 73.865565 
L 666.914904 78.913369 
L 667.298334 72.150292 
L 667.681764 70.386011 
L 683.785815 70.338645 
L 684.169245 70.101813 
L 685.319534 74.033209 
L 685.702964 57.218205 
L 686.469824 43.387273 
L 686.853254 57.502402 
L 688.003543 56.41298 
L 688.386973 50.113274 
L 688.770403 51.392162 
L 689.153832 59.065487 
L 689.537262 60.581206 
L 690.687552 58.686558 
L 691.070981 69.77025 
L 691.454411 72.801687 
L 691.837841 84.122211 
L 692.221271 75.596294 
L 693.37156 77.63304 
L 693.75499 76.590984 
L 694.52185 91.890269 
L 694.905279 88.479902 
L 696.822428 81.848633 
L 697.205858 75.027899 
L 697.589288 87.864141 
L 698.739577 82.701225 
L 699.123007 81.7539 
L 699.506437 92.1271 
L 699.889867 80.853942 
L 700.273297 83.174887 
L 701.423586 83.932746 
L 701.807016 90.279818 
L 704.491024 90.279818 
L 704.874454 91.516842 
L 707.175033 91.516842 
L 707.558463 93.487232 
L 710.242471 93.487232 
L 710.625901 96.026441 
L 720.595076 96.026441 
L 720.978506 100.074355 
L 721.361935 100.356768 
L 721.745365 97.297298 
L 722.895655 99.227117 
L 723.279084 104.592958 
L 725.963093 104.592958 
L 726.346523 109.449982 
L 740.149996 109.449982 
L 740.533425 106.773582 
L 741.683715 106.773582 
L 742.067144 113.475217 
L 743.217434 113.475217 
L 744.367723 122.210138 
L 745.518013 122.210138 
L 745.901442 117.967857 
L 774.658677 117.967857 
L 775.042107 112.116989 
L 775.425537 108.421704 
L 776.959256 102.042939 
L 777.342686 98.215679 
L 777.726116 103.142726 
L 778.109545 104.46247 
L 778.109545 104.46247 
" clip-path="url(#pec7ff7c081)" style="fill: none; stroke: #d62728; stroke-width: 1.5; stroke-linecap: square"/>
   </g>
   <g id="patch_3">
    <path d="M 44.57 390.04 
L 44.57 26.88 
" style="fill: none; stroke: #000000; stroke-width: 0.8; stroke-linejoin: miter; stroke-linecap: square"/>
   </g>
   <g id="patch_4">
    <path d="M 813.04 390.04 
L 813.04 26.88 
" style="fill: none; stroke: #000000; stroke-width: 0.8; stroke-linejoin: miter; stroke-linecap: square"/>
   </g>
   <g id="patch_5">
    <path d="M 44.57 390.04 
L 813.04 390.04 
" style="fill: none; stroke: #000000; stroke-width: 0.8; stroke-linejoin: miter; stroke-linecap: square"/>
   </g>
   <g id="patch_6">
    <path d="M 44.57 26.88 
L 813.04 26.88 
" style="fill: none; stroke: #000000; stroke-width: 0.8; stroke-linejoin: miter; stroke-linecap: square"/>
   </g>
  </g>
  <g id="axes_2">
   <g id="matplotlib.axis_3">
    <g id="ytick_8">
     <g id="line2d_28">
      <defs>
       <path id="m67853a2d36" d="M 0 0 
L 3.5 0 
" style="stroke: #000000; stroke-width: 0.8"/>
      </defs>
      <g>
       <use xlink:href="#m67853a2d36" x="813.04" y="373.264861" style="stroke: #000000; stroke-width: 0.8"/>
      </g>
     </g>
     <g id="text_16">
      <!-- 120 -->
      <g style="fill: #1f77b4" transform="translate(820.04 377.06408) scale(0.1 -0.1)">
       <use xlink:href="#DejaVuSans-31"/>
       <use xlink:href="#DejaVuSans-32" x="63.623047"/>
       <use xlink:href="#DejaVuSans-30" x="127.246094"/>
      </g>
     </g>
    </g>
    <g id="ytick_9">
     <g id="line2d_29">
      <g>
       <use xlink:href="#m67853a2d36" x="813.04" y="328.620445" style="stroke: #000000; stroke-width: 0.8"/>
      </g>
     </g>
     <g id="text_17">
      <!-- 130 -->
      <g style="fill: #1f77b4" transform="translate(820.04 332.419664) scale(0.1 -0.1)">
       <use xlink:href="#DejaVuSans-31"/>
       <use xlink:href="#DejaVuSans-33" x="63.623047"/>
       <use xlink:href="#DejaVuSans-30" x="127.246094"/>
      </g>
     </g>
    </g>
    <g id="ytick_10">
     <g id="line2d_30">
      <g>
       <use xlink:href="#m67853a2d36" x="813.04" y="283.976029" style="stroke: #000000; stroke-width: 0.8"/>
      </g>
     </g>
     <g id="text_18">
      <!-- 140 -->
      <g style="fill: #1f77b4" transform="translate(820.04 287.775248) scale(0.1 -0.1)">
       <use xlink:href="#DejaVuSans-31"/>
       <use xlink:href="#DejaVuSans-34" x="63.623047"/>
       <use xlink:href="#DejaVuSans-30" x="127.246094"/>
      </g>
     </g>
    </g>
    <g id="ytick_11">
     <g id="line2d_31">
      <g>
       <use xlink:href="#m67853a2d36" x="813.04" y="239.331613" style="stroke: #000000; stroke-width: 0.8"/>
      </g>
     </g>
     <g id="text_19">
      <!-- 150 -->
      <g style="fill: #1f77b4" transform="translate(820.04 243.130832) scale(0.1 -0.1)">
       <use xlink:href="#DejaVuSans-31"/>
       <use xlink:href="#DejaVuSans-35" x="63.623047"/>
       <use xlink:href="#DejaVuSans-30" x="127.246094"/>
      </g>
     </g>
    </g>
    <g id="ytick_12">
     <g id="line2d_32">
      <g>
       <use xlink:href="#m67853a2d36" x="813.04" y="194.687198" style="stroke: #000000; stroke-width: 0.8"/>
      </g>
     </g>
     <g id="text_20">
      <!-- 160 -->
      <g style="fill: #1f77b4" transform="translate(820.04 198.486416) scale(0.1 -0.1)">
       <use xlink:href="#DejaVuSans-31"/>
       <use xlink:href="#DejaVuSans-36" x="63.623047"/>
       <use xlink:href="#DejaVuSans-30" x="127.246094"/>
      </g>
     </g>
    </g>
    <g id="ytick_13">
     <g id="line2d_33">
      <g>
       <use xlink:href="#m67853a2d36" x="813.04" y="150.042782" style="stroke: #000000; stroke-width: 0.8"/>
      </g>
     </g>
     <g id="text_21">
      <!-- 170 -->
      <g style="fill: #1f77b4" transform="translate(820.04 153.842001) scale(0.1 -0.1)">
       <defs>
        <path id="DejaVuSans-37" d="M 525 4666 
L 3525 4666 
L 3525 4397 
L 1831 0 
L 1172 0 
L 2766 4134 
L 525 4134 
L 525 4666 
z
" transform="scale(0.015625)"/>
       </defs>
       <use xlink:href="#DejaVuSans-31"/>
       <use xlink:href="#DejaVuSans-37" x="63.623047"/>
       <use xlink:href="#DejaVuSans-30" x="127.246094"/>
      </g>
     </g>
    </g>
    <g id="ytick_14">
     <g id="line2d_34">
      <g>
       <use xlink:href="#m67853a2d36" x="813.04" y="105.398366" style="stroke: #000000; stroke-width: 0.8"/>
      </g>
     </g>
     <g id="text_22">
      <!-- 180 -->
      <g style="fill: #1f77b4" transform="translate(820.04 109.197585) scale(0.1 -0.1)">
       <defs>
        <path id="DejaVuSans-38" d="M 2034 2216 
Q 1584 2216 1326 1975 
Q 1069 1734 1069 1313 
Q 1069 891 1326 650 
Q 1584 409 2034 409 
Q 2484 409 2743 651 
Q 3003 894 3003 1313 
Q 3003 1734 2745 1975 
Q 2488 2216 2034 2216 
z
M 1403 2484 
Q 997 2584 770 2862 
Q 544 3141 544 3541 
Q 544 4100 942 4425 
Q 1341 4750 2034 4750 
Q 2731 4750 3128 4425 
Q 3525 4100 3525 3541 
Q 3525 3141 3298 2862 
Q 3072 2584 2669 2484 
Q 3125 2378 3379 2068 
Q 3634 1759 3634 1313 
Q 3634 634 3220 271 
Q 2806 -91 2034 -91 
Q 1263 -91 848 271 
Q 434 634 434 1313 
Q 434 1759 690 2068 
Q 947 2378 1403 2484 
z
M 1172 3481 
Q 1172 3119 1398 2916 
Q 1625 2713 2034 2713 
Q 2441 2713 2670 2916 
Q 2900 3119 2900 3481 
Q 2900 3844 2670 4047 
Q 2441 4250 2034 4250 
Q 1625 4250 1398 4047 
Q 1172 3844 1172 3481 
z
" transform="scale(0.015625)"/>
       </defs>
       <use xlink:href="#DejaVuSans-31"/>
       <use xlink:href="#DejaVuSans-38" x="63.623047"/>
       <use xlink:href="#DejaVuSans-30" x="127.246094"/>
      </g>
     </g>
    </g>
    <g id="ytick_15">
     <g id="line2d_35">
      <g>
       <use xlink:href="#m67853a2d36" x="813.04" y="60.75395" style="stroke: #000000; stroke-width: 0.8"/>
      </g>
     </g>
     <g id="text_23">
      <!-- 190 -->
      <g style="fill: #1f77b4" transform="translate(820.04 64.553169) scale(0.1 -0.1)">
       <use xlink:href="#DejaVuSans-31"/>
       <use xlink:href="#DejaVuSans-39" x="63.623047"/>
       <use xlink:href="#DejaVuSans-30" x="127.246094"/>
      </g>
     </g>
    </g>
    <g id="text_24">
     <!-- Close Price -->
     <g style="fill: #1f77b4" transform="translate(850.725937 235.867812) rotate(-90) scale(0.1 -0.1)">
      <defs>
       <path id="DejaVuSans-43" d="M 4122 4306 
L 4122 3641 
Q 3803 3938 3442 4084 
Q 3081 4231 2675 4231 
Q 1875 4231 1450 3742 
Q 1025 3253 1025 2328 
Q 1025 1406 1450 917 
Q 1875 428 2675 428 
Q 3081 428 3442 575 
Q 3803 722 4122 1019 
L 4122 359 
Q 3791 134 3420 21 
Q 3050 -91 2638 -91 
Q 1578 -91 968 557 
Q 359 1206 359 2328 
Q 359 3453 968 4101 
Q 1578 4750 2638 4750 
Q 3056 4750 3426 4639 
Q 3797 4528 4122 4306 
z
" transform="scale(0.015625)"/>
       <path id="DejaVuSans-6c" d="M 603 4863 
L 1178 4863 
L 1178 0 
L 603 0 
L 603 4863 
z
" transform="scale(0.015625)"/>
       <path id="DejaVuSans-6f" d="M 1959 3097 
Q 1497 3097 1228 2736 
Q 959 2375 959 1747 
Q 959 1119 1226 758 
Q 1494 397 1959 397 
Q 2419 397 2687 759 
Q 2956 1122 2956 1747 
Q 2956 2369 2687 2733 
Q 2419 3097 1959 3097 
z
M 1959 3584 
Q 2709 3584 3137 3096 
Q 3566 2609 3566 1747 
Q 3566 888 3137 398 
Q 2709 -91 1959 -91 
Q 1206 -91 779 398 
Q 353 888 353 1747 
Q 353 2609 779 3096 
Q 1206 3584 1959 3584 
z
" transform="scale(0.015625)"/>
       <path id="DejaVuSans-50" d="M 1259 4147 
L 1259 2394 
L 2053 2394 
Q 2494 2394 2734 2622 
Q 2975 2850 2975 3272 
Q 2975 3691 2734 3919 
Q 2494 4147 2053 4147 
L 1259 4147 
z
M 628 4666 
L 2053 4666 
Q 2838 4666 3239 4311 
Q 3641 3956 3641 3272 
Q 3641 2581 3239 2228 
Q 2838 1875 2053 1875 
L 1259 1875 
L 1259 0 
L 628 0 
L 628 4666 
z
" transform="scale(0.015625)"/>
       <path id="DejaVuSans-69" d="M 603 3500 
L 1178 3500 
L 1178 0 
L 603 0 
L 603 3500 
z
M 603 4863 
L 1178 4863 
L 1178 4134 
L 603 4134 
L 603 4863 
z
" transform="scale(0.015625)"/>
       <path id="DejaVuSans-63" d="M 3122 3366 
L 3122 2828 
Q 2878 2963 2633 3030 
Q 2388 3097 2138 3097 
Q 1578 3097 1268 2742 
Q 959 2388 959 1747 
Q 959 1106 1268 751 
Q 1578 397 2138 397 
Q 2388 397 2633 464 
Q 2878 531 3122 666 
L 3122 134 
Q 2881 22 2623 -34 
Q 2366 -91 2075 -91 
Q 1284 -91 818 406 
Q 353 903 353 1747 
Q 353 2603 823 3093 
Q 1294 3584 2113 3584 
Q 2378 3584 2631 3529 
Q 2884 3475 3122 3366 
z
" transform="scale(0.015625)"/>
      </defs>
      <use xlink:href="#DejaVuSans-43"/>
      <use xlink:href="#DejaVuSans-6c" x="69.824219"/>
      <use xlink:href="#DejaVuSans-6f" x="97.607422"/>
      <use xlink:href="#DejaVuSans-73" x="158.789062"/>
      <use xlink:href="#DejaVuSans-65" x="210.888672"/>
      <use xlink:href="#DejaVuSans-20" x="272.412109"/>
      <use xlink:href="#DejaVuSans-50" x="304.199219"/>
      <use xlink:href="#DejaVuSans-72" x="362.751953"/>
      <use xlink:href="#DejaVuSans-69" x="403.865234"/>
      <use xlink:href="#DejaVuSans-63" x="431.648438"/>
      <use xlink:href="#DejaVuSans-65" x="486.628906"/>
     </g>
    </g>
   </g>
   <g id="line2d_36">
    <path d="M 79.500455 367.327153 
L 79.883884 362.416268 
L 80.267314 366.836065 
L 81.417604 364.960999 
L 81.801033 366.434265 
L 82.184463 362.952001 
L 82.567893 366.166399 
L 82.951323 365.228866 
L 84.101612 363.934178 
L 84.485042 364.871711 
L 84.868472 363.130578 
L 85.251902 363.844889 
L 85.635331 368.71113 
L 87.16905 366.79142 
L 87.93591 368.398619 
L 88.31934 360.496558 
L 89.469629 358.576848 
L 90.236489 352.32663 
L 90.619919 352.058763 
L 91.003348 353.174874 
L 92.153638 355.585672 
L 92.537068 354.157051 
L 92.920497 357.907182 
L 93.303927 356.567849 
L 93.687357 354.469562 
L 94.837646 357.192871 
L 95.221076 356.032116 
L 95.604506 358.219693 
L 96.371366 351.835541 
L 97.905085 343.353102 
L 98.288515 344.335279 
L 98.671944 350.719431 
L 99.055374 348.710432 
L 100.205664 349.29081 
L 100.589093 348.353277 
L 101.355953 355.451739 
L 101.739383 364.871711 
L 102.889672 366.300332 
L 103.273102 365.586021 
L 104.039962 366.523554 
L 104.423391 360.585847 
L 105.573681 363.264512 
L 106.34054 356.121405 
L 106.72397 362.505557 
L 107.1074 360.005469 
L 108.257689 359.692958 
L 108.641119 358.175048 
L 109.024549 354.603495 
L 109.407979 356.835716 
L 110.941698 351.299808 
L 111.708558 356.969649 
L 112.091987 364.782422 
L 112.475417 364.291333 
L 113.625707 366.434265 
L 114.009136 364.425266 
L 114.392566 365.228866 
L 114.775996 363.844889 
L 115.159426 364.425266 
L 116.309715 362.059112 
L 116.693145 359.20187 
L 117.076575 357.505382 
L 117.460004 364.5592 
L 117.843434 365.094933 
L 118.993724 366.121754 
L 119.377153 370.987996 
L 119.760583 372.014817 
L 120.144013 371.613017 
L 121.677732 371.613017 
L 122.061162 372.729128 
L 122.444592 371.166573 
L 122.828022 370.720129 
L 123.211451 367.148576 
L 124.361741 369.559374 
L 124.745171 367.907531 
L 125.1286 371.479084 
L 125.51203 373.532727 
L 125.89546 370.362974 
L 127.045749 369.648663 
L 127.429179 367.862886 
L 127.812609 369.202219 
L 128.579469 366.880709 
L 129.729758 361.344802 
L 130.113188 362.282335 
L 130.496618 362.594845 
L 131.263477 370.362974 
L 132.413767 370.407618 
L 132.797196 371.657662 
L 133.180626 372.193395 
L 133.564056 368.041464 
L 133.947486 367.461087 
L 135.481205 369.559374 
L 135.864635 369.380797 
L 136.248065 365.719955 
L 136.631494 358.39827 
L 137.781784 350.451564 
L 138.165214 350.272987 
L 138.932073 347.013944 
L 139.315503 343.844191 
L 140.465792 349.469387 
L 140.849222 350.139053 
L 141.616082 343.799546 
L 141.999512 343.978124 
L 143.149801 344.335279 
L 143.916661 338.040417 
L 144.30009 323.664915 
L 144.68352 319.780851 
L 145.83381 311.030545 
L 146.217239 309.86979 
L 146.600669 315.361054 
L 146.984099 315.941431 
L 147.367529 314.334232 
L 148.517818 325.852491 
L 148.901248 313.396699 
L 149.284678 312.414522 
L 150.051537 319.06654 
L 151.201827 322.861315 
L 151.585256 320.807672 
L 151.968686 311.521634 
L 152.352116 316.566453 
L 152.735546 312.860966 
L 153.885835 312.860966 
L 154.269265 317.905785 
L 155.036125 299.690864 
L 155.419554 308.664391 
L 156.569844 308.75368 
L 156.953274 312.146656 
L 157.336703 309.110835 
L 157.720133 313.352055 
L 158.103563 312.369878 
L 159.253852 308.396525 
L 159.637282 306.387526 
L 160.020712 314.289588 
L 160.404142 300.003375 
L 160.787572 302.324884 
L 161.937861 293.842445 
L 162.321291 288.842271 
L 162.704721 279.422299 
L 163.08815 276.252545 
L 163.47158 278.350833 
L 164.62187 272.234548 
L 165.005299 276.029323 
L 165.772159 267.457595 
L 166.155589 271.564882 
L 167.305878 279.020499 
L 167.689308 274.109613 
L 168.456168 277.725811 
L 168.839597 265.359308 
L 169.989887 265.270019 
L 170.373317 259.10909 
L 170.756746 260.939511 
L 171.140176 265.58253 
L 171.523606 267.234373 
L 173.057325 258.30549 
L 173.440755 254.242848 
L 173.824185 269.957683 
L 174.207615 275.404301 
L 175.357904 277.770455 
L 175.741334 283.17243 
L 176.124763 279.377654 
L 176.508193 278.082966 
L 176.891623 283.306363 
L 178.425342 276.832923 
L 178.808772 280.806276 
L 179.192202 278.261544 
L 179.575632 270.805927 
L 180.725921 267.234373 
L 181.109351 263.841398 
L 181.492781 275.806101 
L 181.87621 275.984679 
L 183.40993 289.020848 
L 183.793359 285.627873 
L 184.176789 278.350833 
L 184.560219 275.49359 
L 184.943649 275.49359 
L 186.093938 280.895565 
L 186.477368 275.404301 
L 186.860798 274.823924 
L 187.244228 280.359832 
L 187.627657 283.842096 
L 188.777947 281.342009 
L 189.161377 285.717161 
L 189.544806 282.145608 
L 189.928236 281.25272 
L 190.311666 281.922386 
L 191.461955 284.913562 
L 192.228815 281.609875 
L 192.612245 277.145434 
L 192.995675 275.672168 
L 194.529394 282.859919 
L 194.912824 279.422299 
L 195.296253 273.127436 
L 195.679683 272.547059 
L 196.829973 274.37748 
L 197.213402 284.645695 
L 197.596832 281.967031 
L 197.980262 291.699513 
L 198.363692 295.628222 
L 199.513981 297.101487 
L 199.897411 295.449644 
L 200.664271 290.404825 
L 201.0477 291.96738 
L 202.19799 290.136959 
L 202.964849 289.511937 
L 203.348279 292.904912 
L 203.731709 294.065667 
L 204.881998 297.012199 
L 205.265428 294.065667 
L 205.648858 297.32471 
L 206.415717 293.529934 
L 207.566007 293.842445 
L 207.949437 287.949382 
L 208.332866 288.797626 
L 208.716296 288.440471 
L 209.099726 294.6014 
L 210.250015 294.779978 
L 210.633445 293.038846 
L 211.016875 288.797626 
L 211.400305 290.985203 
L 211.783735 288.217249 
L 212.934024 288.261893 
L 213.317454 288.395826 
L 213.700884 288.351182 
L 214.084313 286.743983 
L 215.618033 284.199251 
L 216.001462 278.306188 
L 216.768322 273.350658 
L 217.151752 273.57388 
L 218.302041 272.234548 
L 218.685471 271.029149 
L 219.452331 266.341485 
L 219.83576 257.814402 
L 221.36948 248.39443 
L 222.136339 257.055447 
L 222.519769 253.126738 
L 223.670058 257.992979 
L 224.053488 258.573357 
L 224.436918 254.778581 
L 224.820348 255.805403 
L 225.203778 254.600004 
L 227.120927 253.662471 
L 227.504356 252.189205 
L 227.887786 248.349785 
L 229.038076 243.840699 
L 229.421505 249.778407 
L 229.804935 246.206854 
L 230.188365 246.162209 
L 230.571795 242.322789 
L 231.722084 246.653298 
L 232.105514 255.26967 
L 232.488944 254.46607 
L 232.872374 250.939162 
L 233.255803 249.198029 
L 234.406093 247.501542 
L 234.789523 249.778407 
L 235.172952 250.31414 
L 235.939812 243.796055 
L 237.473531 235.268972 
L 237.856961 231.340263 
L 238.240391 228.572309 
L 238.62382 218.348738 
L 239.77411 212.143164 
L 240.15754 224.598956 
L 240.540969 221.60778 
L 240.924399 221.473847 
L 241.307829 246.564009 
L 242.458118 242.903167 
L 242.841548 221.964936 
L 243.224978 220.759537 
L 243.608408 205.892946 
L 243.991838 205.62508 
L 245.142127 204.464325 
L 245.525557 219.330915 
L 245.908987 221.786358 
L 246.675846 269.332661 
L 247.826136 276.654345 
L 248.209565 268.082617 
L 248.976425 292.726335 
L 250.510144 255.850047 
L 250.893574 224.152512 
L 251.277004 233.527839 
L 251.660434 224.866823 
L 252.043863 229.28662 
L 253.194153 226.295444 
L 253.577583 248.037275 
L 253.961012 241.787056 
L 254.344442 230.849175 
L 254.727872 227.500843 
L 255.878161 208.616255 
L 256.261591 212.366386 
L 256.645021 218.57196 
L 257.028451 200.535616 
L 258.56217 188.392335 
L 258.9456 182.722494 
L 259.32903 186.427981 
L 259.712459 187.053003 
L 260.095889 201.071349 
L 261.246179 196.02653 
L 261.629608 200.892772 
L 262.013038 186.963714 
L 262.396468 179.775963 
L 262.779898 182.901072 
L 263.930187 187.722669 
L 264.313617 190.937067 
L 264.697047 186.963714 
L 265.080476 200.044528 
L 265.463906 195.669375 
L 266.614196 193.169288 
L 266.997625 190.133467 
L 267.381055 199.374861 
L 267.764485 188.481624 
L 268.147915 192.812132 
L 269.298204 197.276574 
L 269.681634 194.50862 
L 270.448494 181.249229 
L 270.831923 177.141942 
L 271.982213 182.67785 
L 272.365643 175.668677 
L 272.749072 173.927544 
L 273.132502 184.642204 
L 273.515932 180.35634 
L 275.049651 190.713845 
L 275.433081 189.419157 
L 275.816511 187.008358 
L 276.199941 181.695673 
L 277.35023 178.347342 
L 277.73366 183.07965 
L 278.11709 196.472974 
L 278.500519 188.972713 
L 278.883949 203.571436 
L 280.034239 195.937241 
L 280.417668 189.062001 
L 280.801098 178.749141 
L 281.184528 184.017182 
L 281.567958 182.990361 
L 283.101677 184.642204 
L 283.485107 183.258227 
L 283.868537 184.686849 
L 284.251966 176.695498 
L 285.402256 171.96319 
L 285.785686 165.757616 
L 286.169115 168.346992 
L 286.552545 168.793437 
L 286.935975 165.48975 
L 288.086264 165.08795 
L 288.469694 161.784263 
L 288.853124 165.132595 
L 289.236554 163.525396 
L 290.770273 159.060954 
L 291.537133 149.640982 
L 292.303992 153.65898 
L 293.454282 152.721447 
L 293.837711 149.194538 
L 294.221141 148.524872 
L 294.604571 155.712623 
L 294.988001 149.507049 
L 296.13829 145.846207 
L 297.672009 111.20214 
L 298.822299 95.442662 
L 299.589158 82.495781 
L 299.972588 88.612066 
L 300.356018 81.156448 
L 301.506307 80.218916 
L 301.889737 62.584372 
L 302.273167 54.726954 
L 302.656597 43.387273 
L 303.040026 57.137753 
L 304.190316 60.084284 
L 304.573746 105.666233 
L 304.957175 109.416364 
L 305.340605 90.531776 
L 305.724035 94.058685 
L 307.257754 68.879234 
L 307.641184 95.398017 
L 308.024614 89.772821 
L 308.408044 96.33555 
L 309.558333 100.933925 
L 309.941763 99.951747 
L 310.325193 90.397843 
L 310.708622 99.862459 
L 311.092052 85.799468 
L 312.242342 83.835113 
L 312.625771 82.852936 
L 313.009201 93.701529 
L 313.392631 100.308903 
L 313.776061 98.076682 
L 315.30978 99.639237 
L 315.69321 91.781819 
L 316.07664 94.41584 
L 316.460069 94.460484 
L 317.610359 88.031688 
L 317.993789 89.996043 
L 318.377218 87.674533 
L 318.760648 92.183619 
L 319.144078 91.112153 
L 320.294367 107.541298 
L 320.677797 111.425362 
L 321.061227 128.658107 
L 321.444657 125.75622 
L 321.828087 127.988441 
L 322.978376 120.131023 
L 323.361806 113.479005 
L 323.745236 118.255958 
L 324.128665 111.20214 
L 324.512095 111.916451 
L 325.662384 108.032387 
L 326.045814 117.452358 
L 326.429244 117.809514 
L 326.812674 114.996916 
L 327.196104 100.576769 
L 328.346393 102.898279 
L 328.729823 115.577293 
L 329.496682 110.219963 
L 329.880112 112.987917 
L 331.030402 112.586117 
L 331.413831 108.746697 
L 331.797261 102.719701 
L 332.180691 110.621763 
L 332.564121 111.470007 
L 333.71441 111.871807 
L 334.09784 109.773519 
L 334.48127 122.675755 
L 334.8647 125.934797 
L 335.248129 122.363244 
L 336.398419 114.729049 
L 336.781849 110.219963 
L 337.165278 110.666407 
L 337.548708 92.317552 
L 337.932138 91.156798 
L 339.082427 127.363419 
L 339.465857 124.774043 
L 339.849287 128.167018 
L 340.616147 118.07738 
L 341.766436 118.122025 
L 342.149866 121.023912 
L 342.533296 125.532998 
L 342.916725 127.006263 
L 343.300155 124.640109 
L 344.450445 140.087077 
L 344.833874 151.873203 
L 345.217304 152.230358 
L 345.984164 159.909198 
L 347.134453 164.909372 
L 347.517883 149.239182 
L 348.284743 137.497701 
L 348.668172 139.685278 
L 350.201892 125.488353 
L 350.585321 138.881678 
L 350.968751 140.354944 
L 351.352181 138.926322 
L 352.50247 143.167542 
L 352.8859 132.452882 
L 353.26933 128.167018 
L 353.65276 119.952446 
L 354.03619 121.291778 
L 355.186479 123.791866 
L 355.569909 129.997439 
L 355.953338 124.818687 
L 356.336768 121.693578 
L 357.870487 124.550821 
L 358.253917 121.693578 
L 358.637347 115.666582 
L 359.020777 112.72005 
L 360.554496 94.996217 
L 360.937926 92.585419 
L 361.321356 105.84481 
L 361.704785 107.719876 
L 362.088215 135.131547 
L 363.238505 136.649457 
L 363.621934 131.649283 
L 364.005364 134.997614 
L 364.388794 135.399414 
L 364.772224 144.997963 
L 366.305943 138.524523 
L 366.689373 125.979442 
L 367.072803 126.47053 
L 367.456232 132.63146 
L 368.606522 131.961794 
L 368.989952 133.881503 
L 369.373381 138.792389 
L 369.756811 138.078079 
L 370.140241 138.390589 
L 371.29053 131.158194 
L 371.67396 140.62281 
L 372.05739 141.783565 
L 372.44082 158.301999 
L 372.82425 150.891026 
L 374.741399 137.944145 
L 375.124828 144.640808 
L 375.508258 146.962317 
L 377.041977 157.900199 
L 377.425407 166.427283 
L 377.808837 166.471927 
L 378.192267 163.391462 
L 379.342556 152.230358 
L 379.725986 153.971491 
L 380.109416 154.507224 
L 380.876275 186.606558 
L 382.026565 187.856602 
L 382.409995 183.927894 
L 383.176854 198.973062 
L 383.560284 198.526617 
L 384.710573 205.892946 
L 385.094003 190.937067 
L 385.477433 187.276225 
L 385.860863 187.901247 
L 386.244292 188.03518 
L 387.394582 184.865426 
L 387.778012 184.19576 
L 388.161441 179.017008 
L 388.544871 183.258227 
L 388.928301 180.222407 
L 390.07859 181.293873 
L 390.46202 186.606558 
L 390.84545 184.106471 
L 391.22888 186.740492 
L 391.61231 184.686849 
L 392.762599 193.303221 
L 393.146029 205.535791 
L 393.912888 185.847603 
L 395.446608 186.11547 
L 395.830037 180.311696 
L 396.213467 182.365339 
L 396.596897 174.552566 
L 396.980327 180.088474 
L 398.130616 184.508271 
L 398.514046 179.374163 
L 398.897476 182.543917 
L 399.280906 170.802435 
L 399.664335 166.337994 
L 400.814625 168.391637 
L 401.198055 165.757616 
L 401.581484 158.391288 
L 401.964914 163.257529 
L 402.348344 166.114772 
L 403.498633 164.150417 
L 403.882063 166.025483 
L 404.265493 163.837906 
L 405.032353 169.418458 
L 406.182642 159.819909 
L 406.566072 165.311172 
L 406.949502 162.230707 
L 407.332931 149.774915 
L 407.716361 142.94432 
L 408.866651 140.62281 
L 409.25008 140.488877 
L 409.63351 148.123072 
L 410.01694 144.997963 
L 410.40037 138.033434 
L 411.550659 129.059907 
L 411.934089 127.541996 
L 412.317519 127.006263 
L 412.700949 123.43471 
L 413.084378 123.077555 
L 414.234668 121.693578 
L 414.618097 114.550471 
L 415.001527 115.934448 
L 415.384957 115.621937 
L 415.768387 112.630762 
L 417.302106 114.773694 
L 417.685536 110.889629 
L 418.068966 126.515175 
L 418.452395 118.07738 
L 419.602685 114.907627 
L 419.986115 117.36307 
L 420.369544 118.88098 
L 420.752974 115.488004 
L 421.136404 124.416887 
L 422.286693 129.015262 
L 422.670123 131.961794 
L 423.053553 145.087252 
L 423.436983 168.570215 
L 423.820413 172.677501 
L 424.970702 163.659329 
L 425.354132 166.784438 
L 426.120991 167.721971 
L 426.504421 165.266528 
L 427.654711 165.311172 
L 428.03814 173.123945 
L 429.18843 162.141419 
L 430.722149 158.435932 
L 431.105579 155.57869 
L 431.489009 156.069778 
L 431.872438 153.569691 
L 433.022728 154.507224 
L 433.406158 153.525046 
L 433.789587 145.399763 
L 434.173017 145.265829 
L 434.556447 152.676803 
L 435.706736 151.783914 
L 436.090166 152.766091 
L 436.473596 155.57869 
L 436.857026 154.105424 
L 437.240456 156.471578 
L 438.390745 158.257354 
L 438.774175 157.007311 
L 439.157605 153.212535 
L 439.541034 144.819385 
L 439.924464 150.846381 
L 441.074754 151.783914 
L 441.458183 152.319647 
L 441.841613 152.14107 
L 442.225043 155.132245 
L 442.608473 173.972189 
L 443.758762 187.008358 
L 444.142192 186.785136 
L 444.525622 176.829431 
L 444.909051 176.650854 
L 445.292481 166.159416 
L 446.442771 162.45393 
L 446.8262 163.57004 
L 447.20963 162.989663 
L 447.59306 165.177239 
L 447.97649 164.775439 
L 449.126779 155.712623 
L 449.510209 156.069778 
L 449.893639 161.293175 
L 450.277069 160.444931 
L 450.660498 149.194538 
L 451.810788 152.944669 
L 452.194218 151.426759 
L 452.577647 151.382114 
L 452.961077 153.391113 
L 453.344507 145.310474 
L 454.878226 160.266353 
L 455.261656 162.141419 
L 455.645086 158.837732 
L 456.028516 162.632507 
L 457.178805 160.13242 
L 457.562235 155.310823 
L 457.945665 159.73062 
L 458.329094 176.695498 
L 458.712524 177.856253 
L 459.862814 172.632856 
L 460.246243 167.721971 
L 460.629673 170.489924 
L 461.013103 179.017008 
L 461.396533 179.954541 
L 462.546822 178.43663 
L 462.930252 185.535093 
L 463.313682 188.794135 
L 463.697112 175.847254 
L 464.080541 174.195411 
L 465.230831 170.757791 
L 465.614261 174.195411 
L 465.99769 172.231057 
L 466.38112 176.115121 
L 466.76455 175.80261 
L 467.914839 177.186587 
L 468.298269 173.8829 
L 468.681699 160.802086 
L 469.065129 158.971665 
L 469.448559 170.891724 
L 470.598848 172.722145 
L 470.982278 170.355991 
L 471.365708 163.882551 
L 471.749137 164.552217 
L 472.132567 159.998487 
L 473.282857 154.819734 
L 473.666286 160.400286 
L 474.049716 158.435932 
L 474.433146 158.61451 
L 474.816576 164.998661 
L 475.966865 161.114597 
L 476.350295 162.721796 
L 476.733725 168.92737 
L 477.500584 150.757093 
L 478.650874 148.033783 
L 479.034303 144.283652 
L 479.417733 135.979791 
L 479.801163 131.649283 
L 480.184593 130.176017 
L 481.334882 131.381416 
L 481.718312 137.006613 
L 482.101742 129.952795 
L 482.485172 132.452882 
L 484.402321 162.186063 
L 485.55261 164.105773 
L 486.702899 165.132595 
L 487.086329 170.132769 
L 487.469759 167.186238 
L 487.853189 171.293524 
L 488.236619 165.08795 
L 489.386908 166.918371 
L 489.770338 164.284351 
L 490.153768 163.882551 
L 490.537197 168.436281 
L 490.920627 165.311172 
L 492.070917 163.436107 
L 492.454346 170.400636 
L 492.837776 167.230882 
L 493.221206 158.257354 
L 493.604636 159.864553 
L 494.754925 163.034307 
L 495.138355 163.346818 
L 495.521785 156.337645 
L 495.905215 154.641157 
L 497.438934 152.85538 
L 497.822364 156.114423 
L 498.205793 156.337645 
L 498.972653 145.756918 
L 500.122942 157.498399 
L 500.506372 151.962492 
L 500.889802 154.239357 
L 501.273232 163.480751 
L 501.656662 160.087776 
L 502.806951 157.81091 
L 503.190381 148.748094 
L 503.57381 146.739095 
L 504.34067 151.516048 
L 505.874389 152.766091 
L 506.257819 140.756743 
L 506.641249 142.676453 
L 507.024679 145.176541 
L 508.174968 140.979966 
L 508.558398 138.524523 
L 509.325257 160.757442 
L 509.708687 162.989663 
L 510.858977 158.569865 
L 511.242406 157.944844 
L 511.625836 155.221534 
L 512.009266 156.293 
L 512.392696 155.132245 
L 513.926415 147.230184 
L 514.309845 144.640808 
L 514.693275 147.542695 
L 515.076704 133.03326 
L 516.226994 128.881329 
L 516.610424 136.292302 
L 516.993853 128.345596 
L 517.377283 117.675581 
L 517.760713 118.255958 
L 519.294432 116.604115 
L 519.677862 113.032561 
L 520.061292 118.166669 
L 520.444722 120.80069 
L 521.595011 112.630762 
L 521.978441 98.165971 
L 522.361871 106.603765 
L 522.7453 101.826813 
L 523.12873 88.969221 
L 524.27902 76.781296 
L 524.662449 54.012644 
L 525.045879 79.415316 
L 525.429309 76.82594 
L 525.812739 82.674359 
L 526.963028 95.130151 
L 527.346458 110.353896 
L 528.113318 101.425013 
L 528.496747 108.523475 
L 529.647037 102.40719 
L 530.030467 108.255609 
L 530.413896 97.317727 
L 530.797326 91.424664 
L 531.180756 94.772995 
L 532.331045 109.594941 
L 532.714475 109.237786 
L 533.097905 102.80899 
L 533.481335 102.496479 
L 533.864764 107.630587 
L 535.015054 103.746523 
L 535.398484 108.791342 
L 535.781913 106.916276 
L 536.165343 103.880456 
L 536.548773 98.835637 
L 537.699062 94.81764 
L 538.082492 88.567421 
L 538.465922 84.638713 
L 538.849352 87.362022 
L 540.383071 84.817291 
L 540.766501 97.273083 
L 541.149931 93.29973 
L 541.53336 96.201617 
L 541.91679 104.103678 
L 543.06708 118.568469 
L 543.450509 117.36307 
L 543.833939 123.345421 
L 544.217369 119.104202 
L 544.600799 119.193491 
L 545.751088 133.836859 
L 546.134518 131.783216 
L 546.517948 124.149021 
L 546.901378 127.140197 
L 547.284807 125.845509 
L 548.435097 137.18519 
L 548.818527 143.703275 
L 549.201956 137.453057 
L 549.585386 149.283827 
L 549.968816 155.444756 
L 551.119105 148.257005 
L 551.502535 153.033958 
L 551.885965 152.632158 
L 552.269395 141.515699 
L 552.652825 140.979966 
L 553.803114 137.408412 
L 554.186544 131.604638 
L 554.569974 136.292302 
L 554.953403 137.720923 
L 555.336833 137.319123 
L 556.870552 144.953319 
L 557.253982 140.087077 
L 557.637412 130.622461 
L 558.020842 138.524523 
L 559.171131 141.917498 
L 559.554561 136.917324 
L 559.937991 137.631634 
L 560.321421 140.087077 
L 560.70485 129.774217 
L 562.23857 156.426933 
L 563.005429 138.033434 
L 563.388859 144.372941 
L 564.922578 147.230184 
L 565.306008 144.194364 
L 565.689438 148.882027 
L 566.072867 149.640982 
L 567.223157 150.489226 
L 567.606587 151.73927 
L 567.990016 152.319647 
L 568.373446 156.918022 
L 568.756876 157.543044 
L 570.290595 173.4811 
L 570.674025 185.133293 
L 571.440885 184.418982 
L 572.591174 188.303046 
L 572.974604 190.981711 
L 573.358034 187.544091 
L 573.741463 197.678374 
L 574.124893 199.106995 
L 575.275183 198.437329 
L 575.658612 196.740841 
L 576.042042 203.437503 
L 576.425472 193.481799 
L 576.808902 191.696022 
L 578.342621 194.50862 
L 579.109481 178.43663 
L 579.49291 176.382987 
L 580.6432 172.231057 
L 581.02663 176.606209 
L 581.410059 174.820433 
L 581.793489 162.677152 
L 582.176919 171.070302 
L 583.710638 162.543218 
L 584.477498 166.382638 
L 584.860928 159.552043 
L 586.011217 169.195236 
L 586.394647 170.489924 
L 586.778077 175.266877 
L 587.161506 177.186587 
L 587.544936 182.543917 
L 588.695226 187.365514 
L 589.078655 182.320695 
L 589.845515 177.945542 
L 590.228945 186.829781 
L 591.379234 186.383336 
L 592.529524 204.196458 
L 592.912953 197.990885 
L 594.446672 202.142815 
L 594.830102 194.955064 
L 595.213532 199.240928 
L 595.596962 195.490797 
L 596.747251 191.8746 
L 597.130681 201.205282 
L 597.514111 203.928592 
L 597.897541 217.098694 
L 598.28097 213.259275 
L 599.43126 212.723542 
L 599.81469 216.696895 
L 600.198119 213.482497 
L 600.581549 213.884297 
L 600.964979 225.893644 
L 602.115268 233.84035 
L 602.498698 232.456373 
L 602.882128 218.393383 
L 603.265558 218.527316 
L 603.648988 218.482671 
L 604.799277 201.696371 
L 605.182707 191.562089 
L 605.566137 195.535442 
L 605.949566 196.339041 
L 606.332996 204.151814 
L 607.483286 214.866474 
L 607.866715 216.295095 
L 608.250145 212.589608 
L 608.633575 217.411205 
L 609.017005 226.027578 
L 610.167294 224.063223 
L 610.550724 222.589958 
L 610.934154 231.786707 
L 611.317584 232.858173 
L 611.701013 220.804181 
L 612.851303 223.036402 
L 613.234733 221.473847 
L 613.618162 217.098694 
L 614.001592 218.17016 
L 614.385022 225.223978 
L 615.535311 230.80453 
L 615.918741 223.884646 
L 616.302171 228.661598 
L 616.685601 231.250974 
L 617.069031 210.446677 
L 618.21932 213.21463 
L 618.60275 197.142641 
L 618.98618 200.714194 
L 619.369609 179.150941 
L 619.753039 174.329344 
L 620.903329 172.722145 
L 621.286758 170.132769 
L 621.670188 171.829257 
L 622.437048 182.231406 
L 623.587337 186.294048 
L 623.970767 185.445804 
L 624.354197 180.936718 
L 625.121056 180.311696 
L 626.271346 186.070825 
L 626.654775 182.499272 
L 627.038205 173.213234 
L 627.421635 159.685976 
L 627.805065 162.275352 
L 628.955354 175.088299 
L 629.338784 173.079301 
L 629.722214 166.427283 
L 630.105644 165.802261 
L 630.489073 163.16824 
L 631.639363 169.32917 
L 632.022793 156.6948 
L 632.406222 158.525221 
L 632.789652 170.802435 
L 633.173082 164.373639 
L 634.323371 166.471927 
L 634.706801 154.150068 
L 635.090231 155.400112 
L 635.473661 164.507573 
L 635.857091 162.275352 
L 637.39081 155.980489 
L 637.77424 159.373465 
L 638.541099 151.649981 
L 640.074818 145.310474 
L 640.458248 138.122723 
L 640.841678 147.721272 
L 641.225108 133.479704 
L 642.375397 131.738572 
L 642.758827 128.881329 
L 643.142257 129.417062 
L 643.909116 110.934274 
L 645.442836 116.15767 
L 645.826265 118.434536 
L 646.209695 105.889455 
L 646.593125 108.56812 
L 647.743414 107.05021 
L 648.510274 100.442836 
L 648.893704 107.76452 
L 649.277134 108.880631 
L 650.427423 110.934274 
L 650.810853 108.032387 
L 651.194283 97.942749 
L 651.961142 134.595814 
L 653.494861 132.274305 
L 653.878291 130.354595 
L 654.261721 136.515524 
L 654.645151 135.042258 
L 655.79544 138.970967 
L 656.17887 138.390589 
L 656.5623 146.069429 
L 656.945729 146.694451 
L 657.329159 144.417586 
L 658.862878 147.274828 
L 659.246308 151.560692 
L 659.629738 151.962492 
L 660.013168 157.409111 
L 661.163457 154.462579 
L 661.930317 146.649806 
L 662.313747 147.096251 
L 662.697176 138.926322 
L 663.847466 142.810387 
L 664.230896 156.203711 
L 664.614325 156.560867 
L 664.997755 149.149894 
L 665.381185 132.765393 
L 666.531474 114.952271 
L 666.914904 119.550646 
L 667.298334 113.389717 
L 667.681764 111.782518 
L 668.065194 88.567421 
L 669.215483 88.254911 
L 669.598913 103.746523 
L 670.365772 79.772472 
L 670.749202 89.103154 
L 671.899492 96.692705 
L 672.282921 90.040687 
L 672.666351 94.103329 
L 673.049781 86.737 
L 673.433211 91.022864 
L 674.5835 85.129801 
L 674.96693 69.772122 
L 675.35036 70.441789 
L 675.73379 76.42414 
L 677.267509 82.58507 
L 678.034368 73.299031 
L 678.417798 62.003994 
L 678.801228 77.004518 
L 679.951517 80.710004 
L 680.334947 77.495606 
L 680.718377 81.468959 
L 681.101807 78.209917 
L 681.485237 86.42449 
L 682.635526 83.924402 
L 683.018956 79.727827 
L 683.402385 84.236913 
L 683.785815 84.192269 
L 684.169245 83.969047 
L 685.319534 87.674533 
L 685.702964 71.825766 
L 686.469824 58.789596 
L 686.853254 72.093632 
L 688.003543 71.06681 
L 688.386973 65.129103 
L 688.770403 66.334502 
L 689.153832 73.566898 
L 689.537262 74.995519 
L 690.687552 73.209742 
L 691.070981 83.656536 
L 691.454411 86.513778 
L 691.837841 97.183794 
L 692.221271 89.147799 
L 693.37156 91.067509 
L 693.75499 90.085332 
L 694.52185 104.505478 
L 694.905279 101.29108 
L 696.822428 95.040862 
L 697.205858 88.612066 
L 697.589288 100.710703 
L 698.739577 95.844461 
L 699.123007 94.951573 
L 699.506437 104.7287 
L 699.889867 94.103329 
L 700.273297 96.290905 
L 701.423586 97.005216 
L 701.807016 102.987568 
L 702.190446 102.541124 
L 702.573875 96.871283 
L 702.957305 98.121326 
L 704.491024 106.514477 
L 704.874454 107.675231 
L 705.257884 115.621937 
L 705.641314 113.434361 
L 706.791603 112.050384 
L 707.175033 115.711226 
L 707.558463 117.541647 
L 707.941893 118.389891 
L 708.325322 113.12185 
L 709.475612 112.228962 
L 710.242471 115.04156 
L 710.625901 117.407714 
L 711.009331 111.470007 
L 712.15962 110.844985 
L 712.54305 107.853809 
L 712.92648 97.005216 
L 713.30991 96.424839 
L 713.693339 99.014215 
L 714.843629 98.433837 
L 715.227059 89.147799 
L 715.610488 89.013866 
L 715.993918 93.165796 
L 716.377348 95.665884 
L 717.527637 99.148148 
L 718.294497 90.665709 
L 718.677927 103.523301 
L 719.061357 97.094505 
L 720.211646 94.906929 
L 720.595076 103.344723 
L 720.978506 107.184143 
L 721.361935 107.452009 
L 721.745365 104.550122 
L 722.895655 106.380543 
L 723.662514 115.264782 
L 724.045944 116.113026 
L 724.429374 116.113026 
L 725.579663 118.523824 
L 725.963093 120.622112 
L 726.346523 125.175842 
L 726.729953 126.381242 
L 727.113382 126.247308 
L 728.263672 124.104376 
L 728.647102 122.809688 
L 729.030531 114.818338 
L 729.413961 114.996916 
L 729.797391 116.023737 
L 730.94768 113.746872 
L 731.33111 105.978744 
L 731.71454 103.969745 
L 732.09797 105.309077 
L 732.4814 104.907278 
L 734.015119 111.470007 
L 734.398549 115.086204 
L 734.781978 114.237961 
L 735.165408 113.970094 
L 736.315698 112.496828 
L 736.699127 116.604115 
L 737.082557 118.434536 
L 737.465987 118.032736 
L 737.849417 112.809339 
L 738.999706 108.121676 
L 739.383136 108.880631 
L 739.766566 108.300253 
L 740.149996 114.104027 
L 740.533425 111.559296 
L 741.683715 115.666582 
L 742.067144 122.006089 
L 742.450574 131.738572 
L 742.834004 135.622636 
L 743.217434 143.569342 
L 744.751153 153.792913 
L 745.134583 153.882202 
L 745.518013 155.266179 
L 745.901442 151.382114 
L 747.051732 137.453057 
L 747.435162 138.747745 
L 747.818591 133.122548 
L 748.202021 135.488702 
L 748.585451 110.621763 
L 749.73574 114.505827 
L 750.11917 113.032561 
L 750.88603 91.603242 
L 751.26946 89.371021 
L 752.419749 92.138975 
L 752.803179 92.228264 
L 753.186609 88.790644 
L 753.570038 87.495955 
L 753.953468 77.942051 
L 755.103758 82.629714 
L 755.487187 87.1388 
L 755.870617 89.728176 
L 756.637477 84.013691 
L 757.787766 90.442487 
L 758.171196 93.835463 
L 758.554626 101.960746 
L 758.938056 98.746348 
L 759.321485 107.585943 
L 760.471775 103.121501 
L 760.855205 95.93375 
L 761.238634 98.076682 
L 761.622064 88.924577 
L 762.005494 89.013866 
L 763.155783 90.353198 
L 763.539213 81.513604 
L 763.922643 85.040513 
L 764.689503 80.754649 
L 765.839792 75.174097 
L 766.223222 64.057637 
L 766.606652 62.807594 
L 766.990081 66.334502 
L 767.373511 51.780423 
L 768.523801 70.307855 
L 768.90723 73.477609 
L 769.29066 70.397144 
L 769.67409 69.013167 
L 770.05752 80.218916 
L 771.207809 89.371021 
L 771.591239 89.817465 
L 771.974669 71.334677 
L 772.358098 66.423791 
L 772.741528 74.147275 
L 773.891818 70.3525 
L 774.275247 64.638015 
L 774.658677 69.236389 
L 775.042107 63.298682 
L 775.425537 59.548551 
L 776.959256 53.075111 
L 777.342686 49.191047 
L 777.726116 54.191221 
L 778.109545 55.530554 
L 778.109545 55.530554 
" clip-path="url(#pec7ff7c081)" style="fill: none; stroke: #1f77b4; stroke-width: 1.5; stroke-linecap: square"/>
   </g>
   <g id="patch_7">
    <path d="M 44.57 390.04 
L 44.57 26.88 
" style="fill: none; stroke: #000000; stroke-width: 0.8; stroke-linejoin: miter; stroke-linecap: square"/>
   </g>
   <g id="patch_8">
    <path d="M 813.04 390.04 
L 813.04 26.88 
" style="fill: none; stroke: #000000; stroke-width: 0.8; stroke-linejoin: miter; stroke-linecap: square"/>
   </g>
   <g id="patch_9">
    <path d="M 44.57 390.04 
L 813.04 390.04 
" style="fill: none; stroke: #000000; stroke-width: 0.8; stroke-linejoin: miter; stroke-linecap: square"/>
   </g>
   <g id="patch_10">
    <path d="M 44.57 26.88 
L 813.04 26.88 
" style="fill: none; stroke: #000000; stroke-width: 0.8; stroke-linejoin: miter; stroke-linecap: square"/>
   </g>
   <g id="text_25">
    <!-- Stock Trading Performance for GLD -->
    <g transform="translate(323.680312 20.88) scale(0.12 -0.12)">
     <defs>
      <path id="DejaVuSans-53" d="M 3425 4513 
L 3425 3897 
Q 3066 4069 2747 4153 
Q 2428 4238 2131 4238 
Q 1616 4238 1336 4038 
Q 1056 3838 1056 3469 
Q 1056 3159 1242 3001 
Q 1428 2844 1947 2747 
L 2328 2669 
Q 3034 2534 3370 2195 
Q 3706 1856 3706 1288 
Q 3706 609 3251 259 
Q 2797 -91 1919 -91 
Q 1588 -91 1214 -16 
Q 841 59 441 206 
L 441 856 
Q 825 641 1194 531 
Q 1563 422 1919 422 
Q 2459 422 2753 634 
Q 3047 847 3047 1241 
Q 3047 1584 2836 1778 
Q 2625 1972 2144 2069 
L 1759 2144 
Q 1053 2284 737 2584 
Q 422 2884 422 3419 
Q 422 4038 858 4394 
Q 1294 4750 2059 4750 
Q 2388 4750 2728 4690 
Q 3069 4631 3425 4513 
z
" transform="scale(0.015625)"/>
      <path id="DejaVuSans-6b" d="M 581 4863 
L 1159 4863 
L 1159 1991 
L 2875 3500 
L 3609 3500 
L 1753 1863 
L 3688 0 
L 2938 0 
L 1159 1709 
L 1159 0 
L 581 0 
L 581 4863 
z
" transform="scale(0.015625)"/>
      <path id="DejaVuSans-54" d="M -19 4666 
L 3928 4666 
L 3928 4134 
L 2272 4134 
L 2272 0 
L 1638 0 
L 1638 4134 
L -19 4134 
L -19 4666 
z
" transform="scale(0.015625)"/>
      <path id="DejaVuSans-64" d="M 2906 2969 
L 2906 4863 
L 3481 4863 
L 3481 0 
L 2906 0 
L 2906 525 
Q 2725 213 2448 61 
Q 2172 -91 1784 -91 
Q 1150 -91 751 415 
Q 353 922 353 1747 
Q 353 2572 751 3078 
Q 1150 3584 1784 3584 
Q 2172 3584 2448 3432 
Q 2725 3281 2906 2969 
z
M 947 1747 
Q 947 1113 1208 752 
Q 1469 391 1925 391 
Q 2381 391 2643 752 
Q 2906 1113 2906 1747 
Q 2906 2381 2643 2742 
Q 2381 3103 1925 3103 
Q 1469 3103 1208 2742 
Q 947 2381 947 1747 
z
" transform="scale(0.015625)"/>
      <path id="DejaVuSans-67" d="M 2906 1791 
Q 2906 2416 2648 2759 
Q 2391 3103 1925 3103 
Q 1463 3103 1205 2759 
Q 947 2416 947 1791 
Q 947 1169 1205 825 
Q 1463 481 1925 481 
Q 2391 481 2648 825 
Q 2906 1169 2906 1791 
z
M 3481 434 
Q 3481 -459 3084 -895 
Q 2688 -1331 1869 -1331 
Q 1566 -1331 1297 -1286 
Q 1028 -1241 775 -1147 
L 775 -588 
Q 1028 -725 1275 -790 
Q 1522 -856 1778 -856 
Q 2344 -856 2625 -561 
Q 2906 -266 2906 331 
L 2906 616 
Q 2728 306 2450 153 
Q 2172 0 1784 0 
Q 1141 0 747 490 
Q 353 981 353 1791 
Q 353 2603 747 3093 
Q 1141 3584 1784 3584 
Q 2172 3584 2450 3431 
Q 2728 3278 2906 2969 
L 2906 3500 
L 3481 3500 
L 3481 434 
z
" transform="scale(0.015625)"/>
      <path id="DejaVuSans-66" d="M 2375 4863 
L 2375 4384 
L 1825 4384 
Q 1516 4384 1395 4259 
Q 1275 4134 1275 3809 
L 1275 3500 
L 2222 3500 
L 2222 3053 
L 1275 3053 
L 1275 0 
L 697 0 
L 697 3053 
L 147 3053 
L 147 3500 
L 697 3500 
L 697 3744 
Q 697 4328 969 4595 
Q 1241 4863 1831 4863 
L 2375 4863 
z
" transform="scale(0.015625)"/>
      <path id="DejaVuSans-6d" d="M 3328 2828 
Q 3544 3216 3844 3400 
Q 4144 3584 4550 3584 
Q 5097 3584 5394 3201 
Q 5691 2819 5691 2113 
L 5691 0 
L 5113 0 
L 5113 2094 
Q 5113 2597 4934 2840 
Q 4756 3084 4391 3084 
Q 3944 3084 3684 2787 
Q 3425 2491 3425 1978 
L 3425 0 
L 2847 0 
L 2847 2094 
Q 2847 2600 2669 2842 
Q 2491 3084 2119 3084 
Q 1678 3084 1418 2786 
Q 1159 2488 1159 1978 
L 1159 0 
L 581 0 
L 581 3500 
L 1159 3500 
L 1159 2956 
Q 1356 3278 1631 3431 
Q 1906 3584 2284 3584 
Q 2666 3584 2933 3390 
Q 3200 3197 3328 2828 
z
" transform="scale(0.015625)"/>
      <path id="DejaVuSans-47" d="M 3809 666 
L 3809 1919 
L 2778 1919 
L 2778 2438 
L 4434 2438 
L 4434 434 
Q 4069 175 3628 42 
Q 3188 -91 2688 -91 
Q 1594 -91 976 548 
Q 359 1188 359 2328 
Q 359 3472 976 4111 
Q 1594 4750 2688 4750 
Q 3144 4750 3555 4637 
Q 3966 4525 4313 4306 
L 4313 3634 
Q 3963 3931 3569 4081 
Q 3175 4231 2741 4231 
Q 1884 4231 1454 3753 
Q 1025 3275 1025 2328 
Q 1025 1384 1454 906 
Q 1884 428 2741 428 
Q 3075 428 3337 486 
Q 3600 544 3809 666 
z
" transform="scale(0.015625)"/>
      <path id="DejaVuSans-4c" d="M 628 4666 
L 1259 4666 
L 1259 531 
L 3531 531 
L 3531 0 
L 628 0 
L 628 4666 
z
" transform="scale(0.015625)"/>
     </defs>
     <use xlink:href="#DejaVuSans-53"/>
     <use xlink:href="#DejaVuSans-74" x="63.476562"/>
     <use xlink:href="#DejaVuSans-6f" x="102.685547"/>
     <use xlink:href="#DejaVuSans-63" x="163.867188"/>
     <use xlink:href="#DejaVuSans-6b" x="218.847656"/>
     <use xlink:href="#DejaVuSans-20" x="276.757812"/>
     <use xlink:href="#DejaVuSans-54" x="308.544922"/>
     <use xlink:href="#DejaVuSans-72" x="354.878906"/>
     <use xlink:href="#DejaVuSans-61" x="395.992188"/>
     <use xlink:href="#DejaVuSans-64" x="457.271484"/>
     <use xlink:href="#DejaVuSans-69" x="520.748047"/>
     <use xlink:href="#DejaVuSans-6e" x="548.53125"/>
     <use xlink:href="#DejaVuSans-67" x="611.910156"/>
     <use xlink:href="#DejaVuSans-20" x="675.386719"/>
     <use xlink:href="#DejaVuSans-50" x="707.173828"/>
     <use xlink:href="#DejaVuSans-65" x="763.851562"/>
     <use xlink:href="#DejaVuSans-72" x="825.375"/>
     <use xlink:href="#DejaVuSans-66" x="866.488281"/>
     <use xlink:href="#DejaVuSans-6f" x="901.693359"/>
     <use xlink:href="#DejaVuSans-72" x="962.875"/>
     <use xlink:href="#DejaVuSans-6d" x="1002.238281"/>
     <use xlink:href="#DejaVuSans-61" x="1099.650391"/>
     <use xlink:href="#DejaVuSans-6e" x="1160.929688"/>
     <use xlink:href="#DejaVuSans-63" x="1224.308594"/>
     <use xlink:href="#DejaVuSans-65" x="1279.289062"/>
     <use xlink:href="#DejaVuSans-20" x="1340.8125"/>
     <use xlink:href="#DejaVuSans-66" x="1372.599609"/>
     <use xlink:href="#DejaVuSans-6f" x="1407.804688"/>
     <use xlink:href="#DejaVuSans-72" x="1468.986328"/>
     <use xlink:href="#DejaVuSans-20" x="1510.099609"/>
     <use xlink:href="#DejaVuSans-47" x="1541.886719"/>
     <use xlink:href="#DejaVuSans-4c" x="1619.376953"/>
     <use xlink:href="#DejaVuSans-44" x="1675.089844"/>
    </g>
   </g>
  </g>
 </g>
 <defs>
  <clipPath id="pec7ff7c081">
   <rect x="44.57" y="26.88" width="768.47" height="363.16"/>
  </clipPath>
 </defs>
</svg>
