<?xml version="1.0" encoding="utf-8" standalone="no"?>
<!DOCTYPE svg PUBLIC "-//W3C//DTD SVG 1.1//EN"
  "http://www.w3.org/Graphics/SVG/1.1/DTD/svg11.dtd">
<svg xmlns:xlink="http://www.w3.org/1999/xlink" width="864pt" height="432pt" viewBox="0 0 864 432" xmlns="http://www.w3.org/2000/svg" version="1.1">
 <metadata>
  <rdf:RDF xmlns:dc="http://purl.org/dc/elements/1.1/" xmlns:cc="http://creativecommons.org/ns#" xmlns:rdf="http://www.w3.org/1999/02/22-rdf-syntax-ns#">
   <cc:Work>
    <dc:type rdf:resource="http://purl.org/dc/dcmitype/StillImage"/>
    <dc:date>2024-04-18T22:06:55.988514</dc:date>
    <dc:format>image/svg+xml</dc:format>
    <dc:creator>
     <cc:Agent>
      <dc:title>Matplotlib v3.8.2, https://matplotlib.org/</dc:title>
     </cc:Agent>
    </dc:creator>
   </cc:Work>
  </rdf:RDF>
 </metadata>
 <defs>
  <style type="text/css">*{stroke-linejoin: round; stroke-linecap: butt}</style>
 </defs>
 <g id="figure_1">
  <g id="patch_1">
   <path d="M 0 432 
L 864 432 
L 864 0 
L 0 0 
z
" style="fill: #ffffff"/>
  </g>
  <g id="axes_1">
   <g id="patch_2">
    <path d="M 50.87 390.04 
L 813.13 390.04 
L 813.13 26.88 
L 50.87 26.88 
z
" style="fill: #ffffff"/>
   </g>
   <g id="matplotlib.axis_1">
    <g id="xtick_1">
     <g id="line2d_1">
      <path d="M 85.137851 390.04 
L 85.137851 26.88 
" clip-path="url(#pd9a4da9c9c)" style="fill: none; stroke-dasharray: 1.85,0.8; stroke-dashoffset: 0; stroke: #b0b0b0; stroke-opacity: 0.5; stroke-width: 0.5"/>
     </g>
     <g id="line2d_2">
      <defs>
       <path id="m555352e0ec" d="M 0 0 
L 0 3.5 
" style="stroke: #000000; stroke-width: 0.8"/>
      </defs>
      <g>
       <use xlink:href="#m555352e0ec" x="85.137851" y="390.04" style="stroke: #000000; stroke-width: 0.8"/>
      </g>
     </g>
     <g id="text_1">
      <!-- 2019 -->
      <g transform="translate(72.412851 404.638438) scale(0.1 -0.1)">
       <defs>
        <path id="DejaVuSans-32" d="M 1228 531 
L 3431 531 
L 3431 0 
L 469 0 
L 469 531 
Q 828 903 1448 1529 
Q 2069 2156 2228 2338 
Q 2531 2678 2651 2914 
Q 2772 3150 2772 3378 
Q 2772 3750 2511 3984 
Q 2250 4219 1831 4219 
Q 1534 4219 1204 4116 
Q 875 4013 500 3803 
L 500 4441 
Q 881 4594 1212 4672 
Q 1544 4750 1819 4750 
Q 2544 4750 2975 4387 
Q 3406 4025 3406 3419 
Q 3406 3131 3298 2873 
Q 3191 2616 2906 2266 
Q 2828 2175 2409 1742 
Q 1991 1309 1228 531 
z
" transform="scale(0.015625)"/>
        <path id="DejaVuSans-30" d="M 2034 4250 
Q 1547 4250 1301 3770 
Q 1056 3291 1056 2328 
Q 1056 1369 1301 889 
Q 1547 409 2034 409 
Q 2525 409 2770 889 
Q 3016 1369 3016 2328 
Q 3016 3291 2770 3770 
Q 2525 4250 2034 4250 
z
M 2034 4750 
Q 2819 4750 3233 4129 
Q 3647 3509 3647 2328 
Q 3647 1150 3233 529 
Q 2819 -91 2034 -91 
Q 1250 -91 836 529 
Q 422 1150 422 2328 
Q 422 3509 836 4129 
Q 1250 4750 2034 4750 
z
" transform="scale(0.015625)"/>
        <path id="DejaVuSans-31" d="M 794 531 
L 1825 531 
L 1825 4091 
L 703 3866 
L 703 4441 
L 1819 4666 
L 2450 4666 
L 2450 531 
L 3481 531 
L 3481 0 
L 794 0 
L 794 531 
z
" transform="scale(0.015625)"/>
        <path id="DejaVuSans-39" d="M 703 97 
L 703 672 
Q 941 559 1184 500 
Q 1428 441 1663 441 
Q 2288 441 2617 861 
Q 2947 1281 2994 2138 
Q 2813 1869 2534 1725 
Q 2256 1581 1919 1581 
Q 1219 1581 811 2004 
Q 403 2428 403 3163 
Q 403 3881 828 4315 
Q 1253 4750 1959 4750 
Q 2769 4750 3195 4129 
Q 3622 3509 3622 2328 
Q 3622 1225 3098 567 
Q 2575 -91 1691 -91 
Q 1453 -91 1209 -44 
Q 966 3 703 97 
z
M 1959 2075 
Q 2384 2075 2632 2365 
Q 2881 2656 2881 3163 
Q 2881 3666 2632 3958 
Q 2384 4250 1959 4250 
Q 1534 4250 1286 3958 
Q 1038 3666 1038 3163 
Q 1038 2656 1286 2365 
Q 1534 2075 1959 2075 
z
" transform="scale(0.015625)"/>
       </defs>
       <use xlink:href="#DejaVuSans-32"/>
       <use xlink:href="#DejaVuSans-30" x="63.623047"/>
       <use xlink:href="#DejaVuSans-31" x="127.246094"/>
       <use xlink:href="#DejaVuSans-39" x="190.869141"/>
      </g>
     </g>
    </g>
    <g id="xtick_2">
     <g id="line2d_3">
      <path d="M 223.958777 390.04 
L 223.958777 26.88 
" clip-path="url(#pd9a4da9c9c)" style="fill: none; stroke-dasharray: 1.85,0.8; stroke-dashoffset: 0; stroke: #b0b0b0; stroke-opacity: 0.5; stroke-width: 0.5"/>
     </g>
     <g id="line2d_4">
      <g>
       <use xlink:href="#m555352e0ec" x="223.958777" y="390.04" style="stroke: #000000; stroke-width: 0.8"/>
      </g>
     </g>
     <g id="text_2">
      <!-- 2020 -->
      <g transform="translate(211.233777 404.638438) scale(0.1 -0.1)">
       <use xlink:href="#DejaVuSans-32"/>
       <use xlink:href="#DejaVuSans-30" x="63.623047"/>
       <use xlink:href="#DejaVuSans-32" x="127.246094"/>
       <use xlink:href="#DejaVuSans-30" x="190.869141"/>
      </g>
     </g>
    </g>
    <g id="xtick_3">
     <g id="line2d_5">
      <path d="M 363.160034 390.04 
L 363.160034 26.88 
" clip-path="url(#pd9a4da9c9c)" style="fill: none; stroke-dasharray: 1.85,0.8; stroke-dashoffset: 0; stroke: #b0b0b0; stroke-opacity: 0.5; stroke-width: 0.5"/>
     </g>
     <g id="line2d_6">
      <g>
       <use xlink:href="#m555352e0ec" x="363.160034" y="390.04" style="stroke: #000000; stroke-width: 0.8"/>
      </g>
     </g>
     <g id="text_3">
      <!-- 2021 -->
      <g transform="translate(350.435034 404.638438) scale(0.1 -0.1)">
       <use xlink:href="#DejaVuSans-32"/>
       <use xlink:href="#DejaVuSans-30" x="63.623047"/>
       <use xlink:href="#DejaVuSans-32" x="127.246094"/>
       <use xlink:href="#DejaVuSans-31" x="190.869141"/>
      </g>
     </g>
    </g>
    <g id="xtick_4">
     <g id="line2d_7">
      <path d="M 501.98096 390.04 
L 501.98096 26.88 
" clip-path="url(#pd9a4da9c9c)" style="fill: none; stroke-dasharray: 1.85,0.8; stroke-dashoffset: 0; stroke: #b0b0b0; stroke-opacity: 0.5; stroke-width: 0.5"/>
     </g>
     <g id="line2d_8">
      <g>
       <use xlink:href="#m555352e0ec" x="501.98096" y="390.04" style="stroke: #000000; stroke-width: 0.8"/>
      </g>
     </g>
     <g id="text_4">
      <!-- 2022 -->
      <g transform="translate(489.25596 404.638438) scale(0.1 -0.1)">
       <use xlink:href="#DejaVuSans-32"/>
       <use xlink:href="#DejaVuSans-30" x="63.623047"/>
       <use xlink:href="#DejaVuSans-32" x="127.246094"/>
       <use xlink:href="#DejaVuSans-32" x="190.869141"/>
      </g>
     </g>
    </g>
    <g id="xtick_5">
     <g id="line2d_9">
      <path d="M 640.801886 390.04 
L 640.801886 26.88 
" clip-path="url(#pd9a4da9c9c)" style="fill: none; stroke-dasharray: 1.85,0.8; stroke-dashoffset: 0; stroke: #b0b0b0; stroke-opacity: 0.5; stroke-width: 0.5"/>
     </g>
     <g id="line2d_10">
      <g>
       <use xlink:href="#m555352e0ec" x="640.801886" y="390.04" style="stroke: #000000; stroke-width: 0.8"/>
      </g>
     </g>
     <g id="text_5">
      <!-- 2023 -->
      <g transform="translate(628.076886 404.638438) scale(0.1 -0.1)">
       <defs>
        <path id="DejaVuSans-33" d="M 2597 2516 
Q 3050 2419 3304 2112 
Q 3559 1806 3559 1356 
Q 3559 666 3084 287 
Q 2609 -91 1734 -91 
Q 1441 -91 1130 -33 
Q 819 25 488 141 
L 488 750 
Q 750 597 1062 519 
Q 1375 441 1716 441 
Q 2309 441 2620 675 
Q 2931 909 2931 1356 
Q 2931 1769 2642 2001 
Q 2353 2234 1838 2234 
L 1294 2234 
L 1294 2753 
L 1863 2753 
Q 2328 2753 2575 2939 
Q 2822 3125 2822 3475 
Q 2822 3834 2567 4026 
Q 2313 4219 1838 4219 
Q 1578 4219 1281 4162 
Q 984 4106 628 3988 
L 628 4550 
Q 988 4650 1302 4700 
Q 1616 4750 1894 4750 
Q 2613 4750 3031 4423 
Q 3450 4097 3450 3541 
Q 3450 3153 3228 2886 
Q 3006 2619 2597 2516 
z
" transform="scale(0.015625)"/>
       </defs>
       <use xlink:href="#DejaVuSans-32"/>
       <use xlink:href="#DejaVuSans-30" x="63.623047"/>
       <use xlink:href="#DejaVuSans-32" x="127.246094"/>
       <use xlink:href="#DejaVuSans-33" x="190.869141"/>
      </g>
     </g>
    </g>
    <g id="xtick_6">
     <g id="line2d_11">
      <path d="M 779.622812 390.04 
L 779.622812 26.88 
" clip-path="url(#pd9a4da9c9c)" style="fill: none; stroke-dasharray: 1.85,0.8; stroke-dashoffset: 0; stroke: #b0b0b0; stroke-opacity: 0.5; stroke-width: 0.5"/>
     </g>
     <g id="line2d_12">
      <g>
       <use xlink:href="#m555352e0ec" x="779.622812" y="390.04" style="stroke: #000000; stroke-width: 0.8"/>
      </g>
     </g>
     <g id="text_6">
      <!-- 2024 -->
      <g transform="translate(766.897812 404.638438) scale(0.1 -0.1)">
       <defs>
        <path id="DejaVuSans-34" d="M 2419 4116 
L 825 1625 
L 2419 1625 
L 2419 4116 
z
M 2253 4666 
L 3047 4666 
L 3047 1625 
L 3713 1625 
L 3713 1100 
L 3047 1100 
L 3047 0 
L 2419 0 
L 2419 1100 
L 313 1100 
L 313 1709 
L 2253 4666 
z
" transform="scale(0.015625)"/>
       </defs>
       <use xlink:href="#DejaVuSans-32"/>
       <use xlink:href="#DejaVuSans-30" x="63.623047"/>
       <use xlink:href="#DejaVuSans-32" x="127.246094"/>
       <use xlink:href="#DejaVuSans-34" x="190.869141"/>
      </g>
     </g>
    </g>
    <g id="text_7">
     <!-- Date -->
     <g transform="translate(420.049219 418.316562) scale(0.1 -0.1)">
      <defs>
       <path id="DejaVuSans-44" d="M 1259 4147 
L 1259 519 
L 2022 519 
Q 2988 519 3436 956 
Q 3884 1394 3884 2338 
Q 3884 3275 3436 3711 
Q 2988 4147 2022 4147 
L 1259 4147 
z
M 628 4666 
L 1925 4666 
Q 3281 4666 3915 4102 
Q 4550 3538 4550 2338 
Q 4550 1131 3912 565 
Q 3275 0 1925 0 
L 628 0 
L 628 4666 
z
" transform="scale(0.015625)"/>
       <path id="DejaVuSans-61" d="M 2194 1759 
Q 1497 1759 1228 1600 
Q 959 1441 959 1056 
Q 959 750 1161 570 
Q 1363 391 1709 391 
Q 2188 391 2477 730 
Q 2766 1069 2766 1631 
L 2766 1759 
L 2194 1759 
z
M 3341 1997 
L 3341 0 
L 2766 0 
L 2766 531 
Q 2569 213 2275 61 
Q 1981 -91 1556 -91 
Q 1019 -91 701 211 
Q 384 513 384 1019 
Q 384 1609 779 1909 
Q 1175 2209 1959 2209 
L 2766 2209 
L 2766 2266 
Q 2766 2663 2505 2880 
Q 2244 3097 1772 3097 
Q 1472 3097 1187 3025 
Q 903 2953 641 2809 
L 641 3341 
Q 956 3463 1253 3523 
Q 1550 3584 1831 3584 
Q 2591 3584 2966 3190 
Q 3341 2797 3341 1997 
z
" transform="scale(0.015625)"/>
       <path id="DejaVuSans-74" d="M 1172 4494 
L 1172 3500 
L 2356 3500 
L 2356 3053 
L 1172 3053 
L 1172 1153 
Q 1172 725 1289 603 
Q 1406 481 1766 481 
L 2356 481 
L 2356 0 
L 1766 0 
Q 1100 0 847 248 
Q 594 497 594 1153 
L 594 3053 
L 172 3053 
L 172 3500 
L 594 3500 
L 594 4494 
L 1172 4494 
z
" transform="scale(0.015625)"/>
       <path id="DejaVuSans-65" d="M 3597 1894 
L 3597 1613 
L 953 1613 
Q 991 1019 1311 708 
Q 1631 397 2203 397 
Q 2534 397 2845 478 
Q 3156 559 3463 722 
L 3463 178 
Q 3153 47 2828 -22 
Q 2503 -91 2169 -91 
Q 1331 -91 842 396 
Q 353 884 353 1716 
Q 353 2575 817 3079 
Q 1281 3584 2069 3584 
Q 2775 3584 3186 3129 
Q 3597 2675 3597 1894 
z
M 3022 2063 
Q 3016 2534 2758 2815 
Q 2500 3097 2075 3097 
Q 1594 3097 1305 2825 
Q 1016 2553 972 2059 
L 3022 2063 
z
" transform="scale(0.015625)"/>
      </defs>
      <use xlink:href="#DejaVuSans-44"/>
      <use xlink:href="#DejaVuSans-61" x="77.001953"/>
      <use xlink:href="#DejaVuSans-74" x="138.28125"/>
      <use xlink:href="#DejaVuSans-65" x="177.490234"/>
     </g>
    </g>
   </g>
   <g id="matplotlib.axis_2">
    <g id="ytick_1">
     <g id="line2d_13">
      <path d="M 50.87 373.532727 
L 813.13 373.532727 
" clip-path="url(#pd9a4da9c9c)" style="fill: none; stroke-dasharray: 1.85,0.8; stroke-dashoffset: 0; stroke: #b0b0b0; stroke-opacity: 0.5; stroke-width: 0.5"/>
     </g>
     <g id="line2d_14">
      <defs>
       <path id="m5afa5721ef" d="M 0 0 
L -3.5 0 
" style="stroke: #000000; stroke-width: 0.8"/>
      </defs>
      <g>
       <use xlink:href="#m5afa5721ef" x="50.87" y="373.532727" style="stroke: #000000; stroke-width: 0.8"/>
      </g>
     </g>
     <g id="text_8">
      <!-- 0 -->
      <g style="fill: #d62728" transform="translate(37.5075 377.331946) scale(0.1 -0.1)">
       <use xlink:href="#DejaVuSans-30"/>
      </g>
     </g>
    </g>
    <g id="ytick_2">
     <g id="line2d_15">
      <path d="M 50.87 332.206653 
L 813.13 332.206653 
" clip-path="url(#pd9a4da9c9c)" style="fill: none; stroke-dasharray: 1.85,0.8; stroke-dashoffset: 0; stroke: #b0b0b0; stroke-opacity: 0.5; stroke-width: 0.5"/>
     </g>
     <g id="line2d_16">
      <g>
       <use xlink:href="#m5afa5721ef" x="50.87" y="332.206653" style="stroke: #000000; stroke-width: 0.8"/>
      </g>
     </g>
     <g id="text_9">
      <!-- 25 -->
      <g style="fill: #d62728" transform="translate(31.145 336.005872) scale(0.1 -0.1)">
       <defs>
        <path id="DejaVuSans-35" d="M 691 4666 
L 3169 4666 
L 3169 4134 
L 1269 4134 
L 1269 2991 
Q 1406 3038 1543 3061 
Q 1681 3084 1819 3084 
Q 2600 3084 3056 2656 
Q 3513 2228 3513 1497 
Q 3513 744 3044 326 
Q 2575 -91 1722 -91 
Q 1428 -91 1123 -41 
Q 819 9 494 109 
L 494 744 
Q 775 591 1075 516 
Q 1375 441 1709 441 
Q 2250 441 2565 725 
Q 2881 1009 2881 1497 
Q 2881 1984 2565 2268 
Q 2250 2553 1709 2553 
Q 1456 2553 1204 2497 
Q 953 2441 691 2322 
L 691 4666 
z
" transform="scale(0.015625)"/>
       </defs>
       <use xlink:href="#DejaVuSans-32"/>
       <use xlink:href="#DejaVuSans-35" x="63.623047"/>
      </g>
     </g>
    </g>
    <g id="ytick_3">
     <g id="line2d_17">
      <path d="M 50.87 290.880579 
L 813.13 290.880579 
" clip-path="url(#pd9a4da9c9c)" style="fill: none; stroke-dasharray: 1.85,0.8; stroke-dashoffset: 0; stroke: #b0b0b0; stroke-opacity: 0.5; stroke-width: 0.5"/>
     </g>
     <g id="line2d_18">
      <g>
       <use xlink:href="#m5afa5721ef" x="50.87" y="290.880579" style="stroke: #000000; stroke-width: 0.8"/>
      </g>
     </g>
     <g id="text_10">
      <!-- 50 -->
      <g style="fill: #d62728" transform="translate(31.145 294.679798) scale(0.1 -0.1)">
       <use xlink:href="#DejaVuSans-35"/>
       <use xlink:href="#DejaVuSans-30" x="63.623047"/>
      </g>
     </g>
    </g>
    <g id="ytick_4">
     <g id="line2d_19">
      <path d="M 50.87 249.554505 
L 813.13 249.554505 
" clip-path="url(#pd9a4da9c9c)" style="fill: none; stroke-dasharray: 1.85,0.8; stroke-dashoffset: 0; stroke: #b0b0b0; stroke-opacity: 0.5; stroke-width: 0.5"/>
     </g>
     <g id="line2d_20">
      <g>
       <use xlink:href="#m5afa5721ef" x="50.87" y="249.554505" style="stroke: #000000; stroke-width: 0.8"/>
      </g>
     </g>
     <g id="text_11">
      <!-- 75 -->
      <g style="fill: #d62728" transform="translate(31.145 253.353724) scale(0.1 -0.1)">
       <defs>
        <path id="DejaVuSans-37" d="M 525 4666 
L 3525 4666 
L 3525 4397 
L 1831 0 
L 1172 0 
L 2766 4134 
L 525 4134 
L 525 4666 
z
" transform="scale(0.015625)"/>
       </defs>
       <use xlink:href="#DejaVuSans-37"/>
       <use xlink:href="#DejaVuSans-35" x="63.623047"/>
      </g>
     </g>
    </g>
    <g id="ytick_5">
     <g id="line2d_21">
      <path d="M 50.87 208.228431 
L 813.13 208.228431 
" clip-path="url(#pd9a4da9c9c)" style="fill: none; stroke-dasharray: 1.85,0.8; stroke-dashoffset: 0; stroke: #b0b0b0; stroke-opacity: 0.5; stroke-width: 0.5"/>
     </g>
     <g id="line2d_22">
      <g>
       <use xlink:href="#m5afa5721ef" x="50.87" y="208.228431" style="stroke: #000000; stroke-width: 0.8"/>
      </g>
     </g>
     <g id="text_12">
      <!-- 100 -->
      <g style="fill: #d62728" transform="translate(24.7825 212.02765) scale(0.1 -0.1)">
       <use xlink:href="#DejaVuSans-31"/>
       <use xlink:href="#DejaVuSans-30" x="63.623047"/>
       <use xlink:href="#DejaVuSans-30" x="127.246094"/>
      </g>
     </g>
    </g>
    <g id="ytick_6">
     <g id="line2d_23">
      <path d="M 50.87 166.902357 
L 813.13 166.902357 
" clip-path="url(#pd9a4da9c9c)" style="fill: none; stroke-dasharray: 1.85,0.8; stroke-dashoffset: 0; stroke: #b0b0b0; stroke-opacity: 0.5; stroke-width: 0.5"/>
     </g>
     <g id="line2d_24">
      <g>
       <use xlink:href="#m5afa5721ef" x="50.87" y="166.902357" style="stroke: #000000; stroke-width: 0.8"/>
      </g>
     </g>
     <g id="text_13">
      <!-- 125 -->
      <g style="fill: #d62728" transform="translate(24.7825 170.701576) scale(0.1 -0.1)">
       <use xlink:href="#DejaVuSans-31"/>
       <use xlink:href="#DejaVuSans-32" x="63.623047"/>
       <use xlink:href="#DejaVuSans-35" x="127.246094"/>
      </g>
     </g>
    </g>
    <g id="ytick_7">
     <g id="line2d_25">
      <path d="M 50.87 125.576283 
L 813.13 125.576283 
" clip-path="url(#pd9a4da9c9c)" style="fill: none; stroke-dasharray: 1.85,0.8; stroke-dashoffset: 0; stroke: #b0b0b0; stroke-opacity: 0.5; stroke-width: 0.5"/>
     </g>
     <g id="line2d_26">
      <g>
       <use xlink:href="#m5afa5721ef" x="50.87" y="125.576283" style="stroke: #000000; stroke-width: 0.8"/>
      </g>
     </g>
     <g id="text_14">
      <!-- 150 -->
      <g style="fill: #d62728" transform="translate(24.7825 129.375502) scale(0.1 -0.1)">
       <use xlink:href="#DejaVuSans-31"/>
       <use xlink:href="#DejaVuSans-35" x="63.623047"/>
       <use xlink:href="#DejaVuSans-30" x="127.246094"/>
      </g>
     </g>
    </g>
    <g id="ytick_8">
     <g id="line2d_27">
      <path d="M 50.87 84.250209 
L 813.13 84.250209 
" clip-path="url(#pd9a4da9c9c)" style="fill: none; stroke-dasharray: 1.85,0.8; stroke-dashoffset: 0; stroke: #b0b0b0; stroke-opacity: 0.5; stroke-width: 0.5"/>
     </g>
     <g id="line2d_28">
      <g>
       <use xlink:href="#m5afa5721ef" x="50.87" y="84.250209" style="stroke: #000000; stroke-width: 0.8"/>
      </g>
     </g>
     <g id="text_15">
      <!-- 175 -->
      <g style="fill: #d62728" transform="translate(24.7825 88.049428) scale(0.1 -0.1)">
       <use xlink:href="#DejaVuSans-31"/>
       <use xlink:href="#DejaVuSans-37" x="63.623047"/>
       <use xlink:href="#DejaVuSans-35" x="127.246094"/>
      </g>
     </g>
    </g>
    <g id="ytick_9">
     <g id="line2d_29">
      <path d="M 50.87 42.924135 
L 813.13 42.924135 
" clip-path="url(#pd9a4da9c9c)" style="fill: none; stroke-dasharray: 1.85,0.8; stroke-dashoffset: 0; stroke: #b0b0b0; stroke-opacity: 0.5; stroke-width: 0.5"/>
     </g>
     <g id="line2d_30">
      <g>
       <use xlink:href="#m5afa5721ef" x="50.87" y="42.924135" style="stroke: #000000; stroke-width: 0.8"/>
      </g>
     </g>
     <g id="text_16">
      <!-- 200 -->
      <g style="fill: #d62728" transform="translate(24.7825 46.723354) scale(0.1 -0.1)">
       <use xlink:href="#DejaVuSans-32"/>
       <use xlink:href="#DejaVuSans-30" x="63.623047"/>
       <use xlink:href="#DejaVuSans-30" x="127.246094"/>
      </g>
     </g>
    </g>
    <g id="text_17">
     <!-- Returns (%) -->
     <g style="fill: #d62728" transform="translate(18.702813 237.8975) rotate(-90) scale(0.1 -0.1)">
      <defs>
       <path id="DejaVuSans-52" d="M 2841 2188 
Q 3044 2119 3236 1894 
Q 3428 1669 3622 1275 
L 4263 0 
L 3584 0 
L 2988 1197 
Q 2756 1666 2539 1819 
Q 2322 1972 1947 1972 
L 1259 1972 
L 1259 0 
L 628 0 
L 628 4666 
L 2053 4666 
Q 2853 4666 3247 4331 
Q 3641 3997 3641 3322 
Q 3641 2881 3436 2590 
Q 3231 2300 2841 2188 
z
M 1259 4147 
L 1259 2491 
L 2053 2491 
Q 2509 2491 2742 2702 
Q 2975 2913 2975 3322 
Q 2975 3731 2742 3939 
Q 2509 4147 2053 4147 
L 1259 4147 
z
" transform="scale(0.015625)"/>
       <path id="DejaVuSans-75" d="M 544 1381 
L 544 3500 
L 1119 3500 
L 1119 1403 
Q 1119 906 1312 657 
Q 1506 409 1894 409 
Q 2359 409 2629 706 
Q 2900 1003 2900 1516 
L 2900 3500 
L 3475 3500 
L 3475 0 
L 2900 0 
L 2900 538 
Q 2691 219 2414 64 
Q 2138 -91 1772 -91 
Q 1169 -91 856 284 
Q 544 659 544 1381 
z
M 1991 3584 
L 1991 3584 
z
" transform="scale(0.015625)"/>
       <path id="DejaVuSans-72" d="M 2631 2963 
Q 2534 3019 2420 3045 
Q 2306 3072 2169 3072 
Q 1681 3072 1420 2755 
Q 1159 2438 1159 1844 
L 1159 0 
L 581 0 
L 581 3500 
L 1159 3500 
L 1159 2956 
Q 1341 3275 1631 3429 
Q 1922 3584 2338 3584 
Q 2397 3584 2469 3576 
Q 2541 3569 2628 3553 
L 2631 2963 
z
" transform="scale(0.015625)"/>
       <path id="DejaVuSans-6e" d="M 3513 2113 
L 3513 0 
L 2938 0 
L 2938 2094 
Q 2938 2591 2744 2837 
Q 2550 3084 2163 3084 
Q 1697 3084 1428 2787 
Q 1159 2491 1159 1978 
L 1159 0 
L 581 0 
L 581 3500 
L 1159 3500 
L 1159 2956 
Q 1366 3272 1645 3428 
Q 1925 3584 2291 3584 
Q 2894 3584 3203 3211 
Q 3513 2838 3513 2113 
z
" transform="scale(0.015625)"/>
       <path id="DejaVuSans-73" d="M 2834 3397 
L 2834 2853 
Q 2591 2978 2328 3040 
Q 2066 3103 1784 3103 
Q 1356 3103 1142 2972 
Q 928 2841 928 2578 
Q 928 2378 1081 2264 
Q 1234 2150 1697 2047 
L 1894 2003 
Q 2506 1872 2764 1633 
Q 3022 1394 3022 966 
Q 3022 478 2636 193 
Q 2250 -91 1575 -91 
Q 1294 -91 989 -36 
Q 684 19 347 128 
L 347 722 
Q 666 556 975 473 
Q 1284 391 1588 391 
Q 1994 391 2212 530 
Q 2431 669 2431 922 
Q 2431 1156 2273 1281 
Q 2116 1406 1581 1522 
L 1381 1569 
Q 847 1681 609 1914 
Q 372 2147 372 2553 
Q 372 3047 722 3315 
Q 1072 3584 1716 3584 
Q 2034 3584 2315 3537 
Q 2597 3491 2834 3397 
z
" transform="scale(0.015625)"/>
       <path id="DejaVuSans-20" transform="scale(0.015625)"/>
       <path id="DejaVuSans-28" d="M 1984 4856 
Q 1566 4138 1362 3434 
Q 1159 2731 1159 2009 
Q 1159 1288 1364 580 
Q 1569 -128 1984 -844 
L 1484 -844 
Q 1016 -109 783 600 
Q 550 1309 550 2009 
Q 550 2706 781 3412 
Q 1013 4119 1484 4856 
L 1984 4856 
z
" transform="scale(0.015625)"/>
       <path id="DejaVuSans-25" d="M 4653 2053 
Q 4381 2053 4226 1822 
Q 4072 1591 4072 1178 
Q 4072 772 4226 539 
Q 4381 306 4653 306 
Q 4919 306 5073 539 
Q 5228 772 5228 1178 
Q 5228 1588 5073 1820 
Q 4919 2053 4653 2053 
z
M 4653 2450 
Q 5147 2450 5437 2106 
Q 5728 1763 5728 1178 
Q 5728 594 5436 251 
Q 5144 -91 4653 -91 
Q 4153 -91 3862 251 
Q 3572 594 3572 1178 
Q 3572 1766 3864 2108 
Q 4156 2450 4653 2450 
z
M 1428 4353 
Q 1159 4353 1004 4120 
Q 850 3888 850 3481 
Q 850 3069 1003 2837 
Q 1156 2606 1428 2606 
Q 1700 2606 1854 2837 
Q 2009 3069 2009 3481 
Q 2009 3884 1853 4118 
Q 1697 4353 1428 4353 
z
M 4250 4750 
L 4750 4750 
L 1831 -91 
L 1331 -91 
L 4250 4750 
z
M 1428 4750 
Q 1922 4750 2215 4408 
Q 2509 4066 2509 3481 
Q 2509 2891 2217 2550 
Q 1925 2209 1428 2209 
Q 931 2209 642 2551 
Q 353 2894 353 3481 
Q 353 4063 643 4406 
Q 934 4750 1428 4750 
z
" transform="scale(0.015625)"/>
       <path id="DejaVuSans-29" d="M 513 4856 
L 1013 4856 
Q 1481 4119 1714 3412 
Q 1947 2706 1947 2009 
Q 1947 1309 1714 600 
Q 1481 -109 1013 -844 
L 513 -844 
Q 928 -128 1133 580 
Q 1338 1288 1338 2009 
Q 1338 2731 1133 3434 
Q 928 4138 513 4856 
z
" transform="scale(0.015625)"/>
      </defs>
      <use xlink:href="#DejaVuSans-52"/>
      <use xlink:href="#DejaVuSans-65" x="64.982422"/>
      <use xlink:href="#DejaVuSans-74" x="126.505859"/>
      <use xlink:href="#DejaVuSans-75" x="165.714844"/>
      <use xlink:href="#DejaVuSans-72" x="229.09375"/>
      <use xlink:href="#DejaVuSans-6e" x="268.457031"/>
      <use xlink:href="#DejaVuSans-73" x="331.835938"/>
      <use xlink:href="#DejaVuSans-20" x="383.935547"/>
      <use xlink:href="#DejaVuSans-28" x="415.722656"/>
      <use xlink:href="#DejaVuSans-25" x="454.736328"/>
      <use xlink:href="#DejaVuSans-29" x="549.755859"/>
     </g>
    </g>
   </g>
   <g id="line2d_31">
    <path d="M 85.518182 373.532727 
L 85.898513 373.532727 
L 86.278844 364.642034 
L 90.462489 364.642034 
L 90.84282 364.024275 
L 91.603483 361.228185 
L 93.124808 365.714219 
L 93.505139 364.897548 
L 93.885471 365.167615 
L 94.265802 362.403869 
L 95.406796 365.785375 
L 95.787127 367.31522 
L 96.54779 358.299486 
L 96.928121 359.208337 
L 98.069115 355.642473 
L 98.449446 353.509423 
L 98.829777 358.483844 
L 99.210109 361.155412 
L 99.59044 361.74568 
L 100.731434 361.753765 
L 101.111765 357.4909 
L 101.492097 357.686578 
L 101.872428 357.442385 
L 102.252759 358.739357 
L 103.774084 357.945326 
L 104.154416 358.715099 
L 104.534747 361.4368 
L 104.915078 359.269789 
L 106.056072 359.426655 
L 106.436404 358.500016 
L 106.816735 358.351236 
L 107.197066 357.72539 
L 107.577397 354.318009 
L 108.718391 353.216715 
L 109.098723 350.915479 
L 109.479054 351.58984 
L 109.859385 353.944442 
L 110.239717 354.102925 
L 111.380711 348.695102 
L 114.04303 348.727208 
L 114.423361 346.385119 
L 114.803692 342.35268 
L 115.184024 341.137491 
L 115.564355 345.317614 
L 116.705349 347.324202 
L 117.08568 348.669418 
L 117.466011 350.531531 
L 117.846343 351.258718 
L 118.226674 350.484978 
L 119.747999 346.121854 
L 120.128331 345.250193 
L 120.508662 343.792607 
L 120.888993 345.052744 
L 122.029987 345.584089 
L 122.410318 346.641962 
L 122.79065 345.853774 
L 123.170981 345.458878 
L 123.551312 343.331895 
L 124.692306 342.813393 
L 125.072637 341.845415 
L 125.452969 340.366961 
L 125.8333 340.362145 
L 127.354625 338.360374 
L 127.734957 335.838495 
L 128.115288 337.211 
L 128.875951 334.613673 
L 130.016944 332.141558 
L 130.397276 348.049784 
L 130.777607 351.324534 
L 131.157938 352.202617 
L 131.53827 348.544207 
L 132.679264 347.903704 
L 133.059595 350.358162 
L 133.439926 351.615088 
L 133.820257 352.239538 
L 134.200589 351.936142 
L 135.721914 358.972041 
L 136.102245 351.945774 
L 136.482577 349.57479 
L 136.862908 352.25238 
L 138.003902 356.016739 
L 138.384233 354.286258 
L 138.764564 353.998914 
L 139.144896 355.708527 
L 139.525227 356.880374 
L 141.046552 356.771216 
L 141.426884 359.610938 
L 141.807215 359.371753 
L 142.187546 361.6705 
L 144.089203 361.6705 
L 144.469534 361.310137 
L 144.849865 361.310137 
L 145.990859 358.922132 
L 150.174504 358.922132 
L 151.315497 359.942032 
L 151.695829 364.619783 
L 156.640136 364.619783 
L 157.020467 363.296432 
L 157.400798 360.854163 
L 157.78113 360.272076 
L 158.161461 360.164398 
L 159.302455 359.315456 
L 159.682786 358.809836 
L 160.063117 359.938117 
L 160.443449 359.941239 
L 160.82378 362.47402 
L 161.964774 361.230257 
L 162.345105 359.959965 
L 162.725437 361.270832 
L 163.105768 362.158787 
L 163.486099 343.69898 
L 164.627093 345.415591 
L 165.007424 347.642503 
L 168.810737 347.642503 
L 169.951731 349.782899 
L 170.332063 346.152273 
L 170.712394 351.45981 
L 171.092725 350.981842 
L 171.473057 349.317805 
L 172.61405 345.962373 
L 172.994382 348.498661 
L 173.374713 347.121083 
L 173.755044 347.397886 
L 174.135376 353.551926 
L 175.27637 350.719523 
L 175.656701 350.888501 
L 176.037032 350.376738 
L 176.417364 346.863592 
L 178.31902 350.799989 
L 178.699351 348.704654 
L 179.079683 343.881522 
L 179.460014 344.919534 
L 180.601008 345.003218 
L 180.981339 344.747336 
L 181.742002 340.201007 
L 182.122333 339.346458 
L 183.643658 341.021761 
L 184.02399 340.497122 
L 184.404321 339.483251 
L 184.784652 340.896234 
L 185.925646 340.236412 
L 186.305977 342.693844 
L 186.686309 338.226372 
L 187.06664 339.051953 
L 187.446971 341.675144 
L 188.587965 342.65522 
L 188.968297 344.892175 
L 189.348628 349.473909 
L 189.728959 347.671471 
L 190.10929 344.26454 
L 191.250284 344.476971 
L 191.630616 347.462259 
L 192.010947 345.341175 
L 192.77161 343.226529 
L 193.912604 342.954554 
L 194.292935 338.791243 
L 194.673266 338.689856 
L 195.053597 337.172267 
L 195.433929 338.392132 
L 196.574923 338.285917 
L 196.955254 338.825039 
L 197.335585 336.197019 
L 197.715917 335.897686 
L 198.096248 335.231427 
L 199.237242 331.229049 
L 199.617573 335.635367 
L 200.378236 336.039306 
L 200.758567 333.845803 
L 201.899561 331.008572 
L 202.279892 330.902357 
L 202.660224 330.939371 
L 203.040555 328.193871 
L 203.420886 327.789932 
L 204.56188 329.750083 
L 205.322543 329.941593 
L 205.702874 327.775448 
L 206.083205 324.00803 
L 207.60453 327.13172 
L 207.984862 329.128886 
L 208.365193 329.40247 
L 208.745524 330.369672 
L 209.886518 328.543093 
L 210.26685 327.4391 
L 210.647181 327.529222 
L 211.407844 328.821506 
L 212.548837 331.241923 
L 212.929169 330.379328 
L 213.3095 326.314185 
L 213.689831 325.092711 
L 214.070163 323.082671 
L 215.971819 322.37457 
L 216.35215 321.529677 
L 216.732482 321.922351 
L 217.873476 319.775518 
L 218.253807 320.749157 
L 218.634138 321.151487 
L 219.01447 320.601099 
L 219.394801 321.639111 
L 220.535795 321.75981 
L 220.916126 322.609531 
L 221.676789 319.899436 
L 222.05712 321.268967 
L 223.198114 323.803646 
L 223.578445 323.662026 
L 224.339108 318.77774 
L 224.719439 319.857594 
L 225.860433 314.458325 
L 226.240764 314.598336 
L 226.621096 312.831303 
L 227.001427 310.335247 
L 232.706397 310.335247 
L 233.84739 315.446751 
L 234.227722 312.53969 
L 234.608053 311.594039 
L 234.988384 312.028696 
L 235.368716 315.39534 
L 236.50971 307.339386 
L 236.890041 313.394983 
L 237.270372 313.214266 
L 237.650704 308.852117 
L 238.031035 308.384744 
L 239.172029 303.796698 
L 239.55236 303.779561 
L 239.932691 302.302662 
L 240.313023 302.865067 
L 245.637661 302.865067 
L 246.017992 299.062586 
L 247.158986 290.150744 
L 247.539317 298.693795 
L 247.919649 290.614417 
L 248.29998 302.694994 
L 248.680311 306.38827 
L 249.821305 321.220455 
L 250.201637 309.614293 
L 250.581968 321.247308 
L 250.962299 339.239276 
L 251.34263 320.473922 
L 252.483624 344.713847 
L 252.863956 338.363846 
L 254.00495 338.363846 
L 255.145944 341.298975 
L 256.667269 341.298975 
L 257.808263 334.877078 
L 258.568925 334.877078 
L 258.949257 332.069424 
L 259.329588 332.069424 
L 260.470582 315.300415 
L 276.824828 315.300415 
L 277.205159 309.891245 
L 277.58549 310.529226 
L 277.965822 309.289069 
L 279.867478 308.081461 
L 280.24781 308.262114 
L 280.628141 306.278187 
L 299.264375 306.278187 
L 300.405369 298.579916 
L 300.7857 299.700055 
L 301.166031 298.154877 
L 301.546363 306.258239 
L 301.926694 306.84286 
L 303.067688 304.030237 
L 303.448019 308.612066 
L 303.82835 305.285406 
L 304.208682 303.838432 
L 304.589013 311.278918 
L 305.730007 312.584724 
L 306.110338 314.03937 
L 306.49067 312.713616 
L 306.871001 308.648893 
L 307.251332 309.509712 
L 308.392326 309.262667 
L 308.772657 311.684009 
L 309.152989 307.648439 
L 309.53332 305.8332 
L 309.913651 307.478117 
L 311.054645 305.905319 
L 322.084253 305.905319 
L 322.844916 312.842913 
L 323.225247 318.213466 
L 324.366241 322.570052 
L 324.746572 317.386879 
L 325.126904 324.980303 
L 325.887566 320.484694 
L 327.408891 316.802072 
L 327.789223 316.761271 
L 328.169554 313.664967 
L 328.549885 318.450714 
L 329.690879 314.279997 
L 330.831873 314.279997 
L 331.212204 309.853657 
L 335.015517 309.853657 
L 335.395849 306.672459 
L 335.77618 301.094918 
L 336.536843 293.979001 
L 337.677837 301.521664 
L 338.058168 299.461047 
L 338.438499 312.53798 
L 339.199162 296.961747 
L 340.340156 296.212704 
L 340.720487 292.604759 
L 341.100818 277.844716 
L 341.48115 275.719938 
L 341.861481 275.961661 
L 343.002475 275.775146 
L 343.382806 279.148828 
L 343.763137 277.310537 
L 359.356721 277.310537 
L 361.638709 269.330474 
L 362.399371 274.879645 
L 362.779703 273.004125 
L 364.301028 276.591284 
L 364.681359 274.667208 
L 365.06169 275.52151 
L 365.442022 267.637043 
L 365.822353 264.608291 
L 366.963347 270.752288 
L 367.343678 273.812905 
L 367.72401 272.621738 
L 368.104341 274.779496 
L 368.484672 275.384943 
L 370.005997 267.089258 
L 370.386329 252.516045 
L 370.76666 251.855971 
L 371.146991 250.368909 
L 372.668317 250.619281 
L 373.048648 250.619281 
L 373.428979 245.531223 
L 373.80931 249.840015 
L 375.330636 235.392889 
L 375.710967 212.948444 
L 376.091298 214.163784 
L 384.078256 214.163784 
L 384.458587 213.28475 
L 385.599581 206.14699 
L 385.979912 207.054793 
L 386.360243 214.90537 
L 386.740575 211.331695 
L 387.120906 201.828533 
L 388.2619 201.828533 
L 388.642231 197.080346 
L 389.022563 196.690768 
L 389.402894 186.744881 
L 389.783225 195.545343 
L 390.924219 194.782836 
L 391.30455 190.450864 
L 391.684882 190.690605 
L 392.065213 199.824039 
L 392.445544 198.661965 
L 393.586538 199.431131 
L 393.96687 197.037059 
L 394.347201 198.3523 
L 394.727532 198.468841 
L 395.107863 199.937249 
L 396.248857 196.537601 
L 396.629189 196.607525 
L 397.00952 194.426555 
L 397.389851 182.922357 
L 398.911177 168.304867 
L 399.291508 168.434726 
L 399.671839 164.28589 
L 400.05217 161.662067 
L 400.432502 158.259089 
L 401.573496 163.43348 
L 401.953827 161.355732 
L 402.334158 163.426821 
L 402.71449 156.464367 
L 403.094821 156.281232 
L 404.235815 155.508736 
L 404.616146 156.967155 
L 404.996477 157.027091 
L 405.376809 161.249181 
L 405.75714 153.361064 
L 406.898134 151.456462 
L 407.278465 154.722921 
L 407.658797 142.606054 
L 408.039128 134.285073 
L 408.419459 137.57484 
L 409.560453 140.065474 
L 409.940784 146.874761 
L 410.321116 146.461875 
L 410.701447 142.366314 
L 411.081778 139.476113 
L 412.222772 148.972487 
L 412.603103 154.449884 
L 412.983435 166.050644 
L 413.363766 162.238109 
L 413.744097 153.217886 
L 414.885091 152.342168 
L 415.265423 155.33559 
L 415.645754 154.456543 
L 416.026085 146.571756 
L 416.406417 148.399774 
L 417.54741 138.147553 
L 417.927742 137.751316 
L 418.308073 133.679063 
L 418.688404 138.840136 
L 419.068736 137.3351 
L 420.590061 134.295062 
L 420.970392 134.295062 
L 421.350723 137.08184 
L 421.731055 129.202675 
L 422.872049 126.810189 
L 423.25238 124.006703 
L 423.632711 122.579899 
L 424.013043 117.534293 
L 424.393374 118.814073 
L 425.534368 116.625416 
L 426.29503 118.814073 
L 426.675362 116.561928 
L 427.055693 119.248463 
L 428.196687 116.281245 
L 428.577018 114.463491 
L 428.95735 116.257855 
L 429.337681 113.517857 
L 429.718012 114.476856 
L 430.859006 115.061612 
L 431.619669 120.087169 
L 432 116.571952 
L 432.380331 108.716178 
L 434.281988 104.178473 
L 434.662319 107.185788 
L 435.04265 105.859228 
L 436.563976 101.111012 
L 436.944307 97.475503 
L 437.324638 100.205476 
L 437.70497 98.267429 
L 438.845963 106.928496 
L 439.606626 95.747967 
L 439.986957 93.312042 
L 440.367289 78.318906 
L 441.508283 72.207374 
L 441.888614 81.727197 
L 442.268945 83.110562 
L 442.649277 82.582611 
L 443.029608 86.989998 
L 444.550933 83.451391 
L 444.931264 84.290097 
L 445.311596 81.246026 
L 445.691927 80.925246 
L 446.832921 77.697395 
L 447.213252 77.383297 
L 447.593583 78.743272 
L 447.973915 76.404249 
L 448.354246 76.347444 
L 449.49524 74.643299 
L 449.875571 80.039759 
L 450.255903 82.482367 
L 450.636234 81.336246 
L 451.016565 76.243859 
L 452.157559 67.345548 
L 452.53789 63.008332 
L 452.918222 61.163845 
L 453.298553 63.927234 
L 453.678884 55.814166 
L 454.819878 52.746705 
L 455.20021 52.770095 
L 455.580541 51.50034 
L 455.960872 56.923531 
L 456.341203 55.065679 
L 457.862529 52.579632 
L 458.24286 54.704801 
L 458.623191 54.604557 
L 459.003523 64.602209 
L 460.144517 59.442993 
L 460.524848 59.640139 
L 460.905179 53.625509 
L 461.28551 56.405605 
L 461.665842 66.129257 
L 462.806836 74.305812 
L 463.187167 72.204033 
L 463.567498 67.883524 
L 464.328161 62.223089 
L 465.469155 66.005623 
L 465.849486 83.772171 
L 466.610149 93.522554 
L 466.99048 82.843245 
L 468.131474 91.855165 
L 468.511805 83.795561 
L 468.892137 79.862661 
L 469.272468 73.741105 
L 469.652799 70.834034 
L 470.793793 74.870519 
L 471.174124 82.004538 
L 471.554456 78.038224 
L 471.934787 66.303013 
L 472.315118 65.424208 
L 473.456112 61.130431 
L 473.836443 58.250091 
L 474.216775 62.951527 
L 474.597106 61.728552 
L 474.977437 75.615664 
L 476.118431 75.121128 
L 476.498763 72.117155 
L 476.879094 49.542244 
L 477.259425 50.541341 
L 477.639757 43.387273 
L 478.78075 58.410482 
L 479.161082 51.430169 
L 479.541413 48.332635 
L 482.964395 48.332635 
L 484.105389 49.174992 
L 484.48572 50.19762 
L 484.866051 50.243507 
L 485.246383 44.845212 
L 485.626714 47.326395 
L 486.767708 56.743094 
L 487.148039 57.798499 
L 487.52837 57.929605 
L 488.289033 70.748508 
L 489.430027 59.90603 
L 489.810358 71.908797 
L 490.19069 74.64236 
L 490.571021 67.565906 
L 490.951352 71.685917 
L 492.092346 67.503631 
L 492.472677 53.60638 
L 492.853009 51.361187 
L 493.23334 53.376944 
L 493.613671 51.511959 
L 494.754665 57.972214 
L 495.134997 63.652388 
L 495.515328 55.795852 
L 496.27599 70.758341 
L 497.416984 72.07268 
L 497.797316 66.110628 
L 498.177647 57.169189 
L 498.557978 56.533324 
L 500.079303 53.514605 
L 500.459635 58.811294 
L 500.839966 58.624467 
L 501.220297 60.269849 
L 501.600629 64.606185 
L 502.741623 63.31479 
L 503.121954 65.468208 
L 503.502285 87.634979 
L 503.882617 87.972577 
L 504.262948 89.762176 
L 505.403942 84.619538 
L 506.164604 74.544031 
L 506.544936 82.793885 
L 506.925267 80.647022 
L 511.108911 80.647022 
L 511.489243 71.590933 
L 512.249905 71.590933 
L 513.390899 63.146321 
L 517.194212 63.146321 
L 517.574543 78.494439 
L 518.715537 74.478943 
L 519.4762 66.969623 
L 519.856531 84.744198 
L 520.236863 91.06603 
L 521.758188 94.721161 
L 522.138519 100.957192 
L 522.51885 83.494933 
L 522.899182 77.15594 
L 524.040176 75.882651 
L 524.420507 78.364021 
L 524.800838 76.363137 
L 528.22382 76.363137 
L 529.364814 89.598131 
L 536.210777 89.598131 
L 537.351771 80.201566 
L 537.732103 88.439126 
L 538.112434 100.849743 
L 538.492765 103.119862 
L 538.873096 110.958314 
L 540.394422 128.953231 
L 540.774753 122.848497 
L 541.155084 132.532419 
L 542.67641 130.271879 
L 543.056741 122.066248 
L 543.437072 129.365109 
L 543.817403 139.923872 
L 544.197735 156.922619 
L 545.338729 145.313407 
L 546.099391 171.58739 
L 546.860054 171.58739 
L 548.001048 164.588591 
L 549.142042 164.588591 
L 549.522373 168.069852 
L 550.663367 168.069852 
L 551.043698 163.148605 
L 551.42403 163.148605 
L 551.804361 165.785803 
L 553.325686 165.785803 
L 553.706017 159.585343 
L 554.086349 159.585343 
L 554.46668 165.17273 
L 556.368336 165.17273 
L 556.748668 165.476103 
L 560.17165 165.476103 
L 561.312643 157.505057 
L 562.453637 157.505057 
L 562.833969 169.088729 
L 565.115956 169.088729 
L 565.496288 164.824002 
L 567.017613 150.438351 
L 567.397944 150.372473 
L 567.778276 148.115288 
L 568.158607 127.821429 
L 569.299601 134.464695 
L 574.624239 134.464695 
L 575.00457 140.266924 
L 575.384902 149.508155 
L 575.765233 152.100419 
L 576.145564 147.49542 
L 577.286558 157.409876 
L 577.66689 141.065078 
L 578.047221 140.787459 
L 578.427552 139.60758 
L 578.807883 162.788737 
L 579.948877 163.309272 
L 580.329209 172.921818 
L 580.70954 144.604716 
L 581.089871 141.169185 
L 584.132522 141.169185 
L 585.653847 141.438287 
L 586.034178 141.438287 
L 586.41451 144.172048 
L 586.794841 134.850911 
L 587.935835 134.093363 
L 588.316166 135.312027 
L 588.696497 142.525204 
L 589.076829 140.746613 
L 589.45716 149.771318 
L 590.598154 159.817067 
L 590.978485 160.805173 
L 591.358816 161.035731 
L 591.739148 151.154667 
L 592.119479 172.234271 
L 593.260473 175.396212 
L 593.640804 176.812497 
L 594.021136 179.3157 
L 594.401467 174.704537 
L 594.781798 180.863734 
L 596.303123 184.816159 
L 596.683455 174.935095 
L 597.063786 178.426405 
L 597.444117 170.653301 
L 598.585111 170.356869 
L 598.965443 191.963463 
L 599.345774 190.118997 
L 599.726105 196.607563 
L 600.106436 197.496859 
L 601.24743 196.772247 
L 602.008093 209.42001 
L 603.90975 209.42001 
L 604.290081 211.820268 
L 605.050743 211.820268 
L 605.431075 218.28763 
L 608.093394 218.28763 
L 609.234388 221.056229 
L 610.755713 221.056229 
L 611.896707 209.284645 
L 613.418032 209.284645 
L 614.559026 204.446015 
L 615.319689 204.446015 
L 615.70002 212.274704 
L 616.080351 198.239487 
L 617.221345 205.010245 
L 617.982008 231.775898 
L 621.024658 231.775898 
L 621.40499 223.428692 
L 625.968965 223.428692 
L 626.729628 227.322561 
L 629.391947 227.322561 
L 630.532941 230.288358 
L 631.293603 244.870194 
L 632.054266 251.296087 
L 633.19526 249.782295 
L 633.575591 242.707633 
L 633.955923 244.375894 
L 634.336254 257.073213 
L 634.716585 258.123599 
L 635.857579 263.406426 
L 636.998573 263.406426 
L 637.378904 258.569473 
L 638.90023 258.569473 
L 639.280561 263.254704 
L 642.323211 263.254704 
L 642.703543 258.840076 
L 651.831494 258.840076 
L 652.592156 248.892698 
L 652.972488 227.825982 
L 653.352819 238.059204 
L 654.493813 243.061477 
L 654.874144 229.998398 
L 658.297126 229.998398 
L 658.677457 233.835464 
L 660.198783 242.025505 
L 660.579114 242.831611 
L 660.959445 245.185442 
L 661.339776 250.731454 
L 662.861102 247.66825 
L 663.241433 246.99112 
L 664.002096 235.673387 
L 665.14309 230.643283 
L 665.523421 235.189723 
L 665.903752 233.641999 
L 666.664415 245.378908 
L 667.805409 243.283031 
L 668.566071 227.51559 
L 668.946403 212.941186 
L 669.326734 208.459235 
L 670.467728 210.16818 
L 670.848059 197.560676 
L 671.22839 202.784246 
L 671.608722 196.206417 
L 676.553029 196.206417 
L 676.93336 183.311269 
L 678.454685 189.677228 
L 679.215348 195.324977 
L 679.595679 185.629131 
L 679.97601 181.483096 
L 681.497336 195.651436 
L 681.877667 195.977896 
L 682.257998 193.105052 
L 682.63833 193.072407 
L 683.779323 190.232209 
L 684.159655 197.316379 
L 684.539986 197.838715 
L 684.920317 185.041504 
L 685.300649 185.531193 
L 686.441643 187.196136 
L 686.821974 192.843885 
L 687.202305 192.386842 
L 687.582636 195.357623 
L 687.962968 192.076705 
L 689.103962 185.465901 
L 689.484293 186.44528 
L 690.244956 157.194513 
L 690.625287 153.864626 
L 691.766281 156.998637 
L 692.146612 146.780456 
L 692.526943 142.24267 
L 692.907275 135.582897 
L 693.287606 136.464337 
L 694.4286 127.911099 
L 694.808931 136.333753 
L 695.189263 141.720334 
L 703.936883 141.720334 
L 705.458208 142.392534 
L 705.838539 150.683001 
L 706.21887 142.328515 
L 706.599202 145.049325 
L 707.740196 157.629068 
L 708.120527 157.885144 
L 708.500858 151.259173 
L 708.88119 154.684192 
L 709.261521 151.611277 
L 710.402515 152.923668 
L 711.163177 146.297696 
L 711.543509 151.739315 
L 711.92384 154.268068 
L 713.064834 164.735182 
L 713.445165 162.046382 
L 713.825496 155.932563 
L 714.205828 139.255601 
L 714.586159 136.470772 
L 715.727153 138.519382 
L 716.107484 141.656315 
L 718.769803 141.656315 
L 719.150135 119.435237 
L 719.530466 118.75599 
L 719.910797 108.599632 
L 721.051791 108.276181 
L 721.432123 112.222282 
L 721.812454 122.734437 
L 722.192785 122.313951 
L 722.573116 123.057888 
L 723.71411 112.060557 
L 724.094442 112.384007 
L 724.474773 117.850328 
L 724.855104 117.656257 
L 725.235436 117.785638 
L 726.376429 112.416353 
L 727.137092 121.214217 
L 727.517423 116.84763 
L 727.897755 124.448727 
L 729.038749 121.796429 
L 729.41908 119.338202 
L 729.799411 107.95273 
L 730.179743 116.97701 
L 730.560074 116.103693 
L 731.701068 112.545733 
L 732.081399 100.578049 
L 732.46173 95.920356 
L 732.842062 94.561862 
L 733.222393 96.340842 
L 734.743718 96.631948 
L 735.124049 100.96619 
L 735.884712 95.047038 
L 737.025706 93.300403 
L 737.406037 98.702034 
L 738.1667 89.257267 
L 738.547031 91.489078 
L 739.688025 89.354302 
L 740.068356 89.774788 
L 740.829019 113.936572 
L 741.20935 114.292368 
L 742.350344 111.316619 
L 742.730676 120.114484 
L 743.491338 108.211491 
L 743.871669 112.351662 
L 745.012663 101.613092 
L 745.392995 107.661624 
L 745.773326 98.055132 
L 748.815976 98.055132 
L 749.196308 103.427564 
L 751.097964 103.427564 
L 751.478296 104.365385 
L 751.858627 111.367781 
L 752.999621 107.74154 
L 753.379952 100.801666 
L 753.760283 142.847301 
L 754.140615 152.944506 
L 754.520946 153.069549 
L 755.66194 145.723285 
L 756.042271 147.130017 
L 756.422603 140.033839 
L 756.802934 136.876509 
L 757.183265 131.280844 
L 758.324259 127.904689 
L 759.084922 122.246503 
L 759.465253 127.154432 
L 762.507903 127.154432 
L 763.648897 124.208333 
L 764.029229 122.103976 
L 764.40956 117.895263 
L 765.170223 123.306466 
L 766.311216 123.817524 
L 766.691548 122.103976 
L 767.45221 136.233229 
L 767.832542 138.036963 
L 768.973536 146.123705 
L 769.353867 140.832751 
L 769.734198 143.718726 
L 770.114529 122.615034 
L 770.494861 128.056299 
L 771.635855 128.056299 
L 772.016186 131.288805 
L 778.481818 131.288805 
L 778.481818 131.288805 
" clip-path="url(#pd9a4da9c9c)" style="fill: none; stroke: #d62728; stroke-width: 1.5; stroke-linecap: square"/>
   </g>
   <g id="patch_3">
    <path d="M 50.87 390.04 
L 50.87 26.88 
" style="fill: none; stroke: #000000; stroke-width: 0.8; stroke-linejoin: miter; stroke-linecap: square"/>
   </g>
   <g id="patch_4">
    <path d="M 813.13 390.04 
L 813.13 26.88 
" style="fill: none; stroke: #000000; stroke-width: 0.8; stroke-linejoin: miter; stroke-linecap: square"/>
   </g>
   <g id="patch_5">
    <path d="M 50.87 390.04 
L 813.13 390.04 
" style="fill: none; stroke: #000000; stroke-width: 0.8; stroke-linejoin: miter; stroke-linecap: square"/>
   </g>
   <g id="patch_6">
    <path d="M 50.87 26.88 
L 813.13 26.88 
" style="fill: none; stroke: #000000; stroke-width: 0.8; stroke-linejoin: miter; stroke-linecap: square"/>
   </g>
  </g>
  <g id="axes_2">
   <g id="matplotlib.axis_3">
    <g id="ytick_10">
     <g id="line2d_32">
      <defs>
       <path id="mf9bc43d3c7" d="M 0 0 
L 3.5 0 
" style="stroke: #000000; stroke-width: 0.8"/>
      </defs>
      <g>
       <use xlink:href="#mf9bc43d3c7" x="813.13" y="343.140681" style="stroke: #000000; stroke-width: 0.8"/>
      </g>
     </g>
     <g id="text_18">
      <!-- 60 -->
      <g style="fill: #1f77b4" transform="translate(820.13 346.9399) scale(0.1 -0.1)">
       <defs>
        <path id="DejaVuSans-36" d="M 2113 2584 
Q 1688 2584 1439 2293 
Q 1191 2003 1191 1497 
Q 1191 994 1439 701 
Q 1688 409 2113 409 
Q 2538 409 2786 701 
Q 3034 994 3034 1497 
Q 3034 2003 2786 2293 
Q 2538 2584 2113 2584 
z
M 3366 4563 
L 3366 3988 
Q 3128 4100 2886 4159 
Q 2644 4219 2406 4219 
Q 1781 4219 1451 3797 
Q 1122 3375 1075 2522 
Q 1259 2794 1537 2939 
Q 1816 3084 2150 3084 
Q 2853 3084 3261 2657 
Q 3669 2231 3669 1497 
Q 3669 778 3244 343 
Q 2819 -91 2113 -91 
Q 1303 -91 875 529 
Q 447 1150 447 2328 
Q 447 3434 972 4092 
Q 1497 4750 2381 4750 
Q 2619 4750 2861 4703 
Q 3103 4656 3366 4563 
z
" transform="scale(0.015625)"/>
       </defs>
       <use xlink:href="#DejaVuSans-36"/>
       <use xlink:href="#DejaVuSans-30" x="63.623047"/>
      </g>
     </g>
    </g>
    <g id="ytick_11">
     <g id="line2d_33">
      <g>
       <use xlink:href="#mf9bc43d3c7" x="813.13" y="277.049465" style="stroke: #000000; stroke-width: 0.8"/>
      </g>
     </g>
     <g id="text_19">
      <!-- 80 -->
      <g style="fill: #1f77b4" transform="translate(820.13 280.848683) scale(0.1 -0.1)">
       <defs>
        <path id="DejaVuSans-38" d="M 2034 2216 
Q 1584 2216 1326 1975 
Q 1069 1734 1069 1313 
Q 1069 891 1326 650 
Q 1584 409 2034 409 
Q 2484 409 2743 651 
Q 3003 894 3003 1313 
Q 3003 1734 2745 1975 
Q 2488 2216 2034 2216 
z
M 1403 2484 
Q 997 2584 770 2862 
Q 544 3141 544 3541 
Q 544 4100 942 4425 
Q 1341 4750 2034 4750 
Q 2731 4750 3128 4425 
Q 3525 4100 3525 3541 
Q 3525 3141 3298 2862 
Q 3072 2584 2669 2484 
Q 3125 2378 3379 2068 
Q 3634 1759 3634 1313 
Q 3634 634 3220 271 
Q 2806 -91 2034 -91 
Q 1263 -91 848 271 
Q 434 634 434 1313 
Q 434 1759 690 2068 
Q 947 2378 1403 2484 
z
M 1172 3481 
Q 1172 3119 1398 2916 
Q 1625 2713 2034 2713 
Q 2441 2713 2670 2916 
Q 2900 3119 2900 3481 
Q 2900 3844 2670 4047 
Q 2441 4250 2034 4250 
Q 1625 4250 1398 4047 
Q 1172 3844 1172 3481 
z
" transform="scale(0.015625)"/>
       </defs>
       <use xlink:href="#DejaVuSans-38"/>
       <use xlink:href="#DejaVuSans-30" x="63.623047"/>
      </g>
     </g>
    </g>
    <g id="ytick_12">
     <g id="line2d_34">
      <g>
       <use xlink:href="#mf9bc43d3c7" x="813.13" y="210.958248" style="stroke: #000000; stroke-width: 0.8"/>
      </g>
     </g>
     <g id="text_20">
      <!-- 100 -->
      <g style="fill: #1f77b4" transform="translate(820.13 214.757467) scale(0.1 -0.1)">
       <use xlink:href="#DejaVuSans-31"/>
       <use xlink:href="#DejaVuSans-30" x="63.623047"/>
       <use xlink:href="#DejaVuSans-30" x="127.246094"/>
      </g>
     </g>
    </g>
    <g id="ytick_13">
     <g id="line2d_35">
      <g>
       <use xlink:href="#mf9bc43d3c7" x="813.13" y="144.867031" style="stroke: #000000; stroke-width: 0.8"/>
      </g>
     </g>
     <g id="text_21">
      <!-- 120 -->
      <g style="fill: #1f77b4" transform="translate(820.13 148.66625) scale(0.1 -0.1)">
       <use xlink:href="#DejaVuSans-31"/>
       <use xlink:href="#DejaVuSans-32" x="63.623047"/>
       <use xlink:href="#DejaVuSans-30" x="127.246094"/>
      </g>
     </g>
    </g>
    <g id="ytick_14">
     <g id="line2d_36">
      <g>
       <use xlink:href="#mf9bc43d3c7" x="813.13" y="78.775815" style="stroke: #000000; stroke-width: 0.8"/>
      </g>
     </g>
     <g id="text_22">
      <!-- 140 -->
      <g style="fill: #1f77b4" transform="translate(820.13 82.575033) scale(0.1 -0.1)">
       <use xlink:href="#DejaVuSans-31"/>
       <use xlink:href="#DejaVuSans-34" x="63.623047"/>
       <use xlink:href="#DejaVuSans-30" x="127.246094"/>
      </g>
     </g>
    </g>
    <g id="text_23">
     <!-- Close Price -->
     <g style="fill: #1f77b4" transform="translate(850.815938 235.867812) rotate(-90) scale(0.1 -0.1)">
      <defs>
       <path id="DejaVuSans-43" d="M 4122 4306 
L 4122 3641 
Q 3803 3938 3442 4084 
Q 3081 4231 2675 4231 
Q 1875 4231 1450 3742 
Q 1025 3253 1025 2328 
Q 1025 1406 1450 917 
Q 1875 428 2675 428 
Q 3081 428 3442 575 
Q 3803 722 4122 1019 
L 4122 359 
Q 3791 134 3420 21 
Q 3050 -91 2638 -91 
Q 1578 -91 968 557 
Q 359 1206 359 2328 
Q 359 3453 968 4101 
Q 1578 4750 2638 4750 
Q 3056 4750 3426 4639 
Q 3797 4528 4122 4306 
z
" transform="scale(0.015625)"/>
       <path id="DejaVuSans-6c" d="M 603 4863 
L 1178 4863 
L 1178 0 
L 603 0 
L 603 4863 
z
" transform="scale(0.015625)"/>
       <path id="DejaVuSans-6f" d="M 1959 3097 
Q 1497 3097 1228 2736 
Q 959 2375 959 1747 
Q 959 1119 1226 758 
Q 1494 397 1959 397 
Q 2419 397 2687 759 
Q 2956 1122 2956 1747 
Q 2956 2369 2687 2733 
Q 2419 3097 1959 3097 
z
M 1959 3584 
Q 2709 3584 3137 3096 
Q 3566 2609 3566 1747 
Q 3566 888 3137 398 
Q 2709 -91 1959 -91 
Q 1206 -91 779 398 
Q 353 888 353 1747 
Q 353 2609 779 3096 
Q 1206 3584 1959 3584 
z
" transform="scale(0.015625)"/>
       <path id="DejaVuSans-50" d="M 1259 4147 
L 1259 2394 
L 2053 2394 
Q 2494 2394 2734 2622 
Q 2975 2850 2975 3272 
Q 2975 3691 2734 3919 
Q 2494 4147 2053 4147 
L 1259 4147 
z
M 628 4666 
L 2053 4666 
Q 2838 4666 3239 4311 
Q 3641 3956 3641 3272 
Q 3641 2581 3239 2228 
Q 2838 1875 2053 1875 
L 1259 1875 
L 1259 0 
L 628 0 
L 628 4666 
z
" transform="scale(0.015625)"/>
       <path id="DejaVuSans-69" d="M 603 3500 
L 1178 3500 
L 1178 0 
L 603 0 
L 603 3500 
z
M 603 4863 
L 1178 4863 
L 1178 4134 
L 603 4134 
L 603 4863 
z
" transform="scale(0.015625)"/>
       <path id="DejaVuSans-63" d="M 3122 3366 
L 3122 2828 
Q 2878 2963 2633 3030 
Q 2388 3097 2138 3097 
Q 1578 3097 1268 2742 
Q 959 2388 959 1747 
Q 959 1106 1268 751 
Q 1578 397 2138 397 
Q 2388 397 2633 464 
Q 2878 531 3122 666 
L 3122 134 
Q 2881 22 2623 -34 
Q 2366 -91 2075 -91 
Q 1284 -91 818 406 
Q 353 903 353 1747 
Q 353 2603 823 3093 
Q 1294 3584 2113 3584 
Q 2378 3584 2631 3529 
Q 2884 3475 3122 3366 
z
" transform="scale(0.015625)"/>
      </defs>
      <use xlink:href="#DejaVuSans-43"/>
      <use xlink:href="#DejaVuSans-6c" x="69.824219"/>
      <use xlink:href="#DejaVuSans-6f" x="97.607422"/>
      <use xlink:href="#DejaVuSans-73" x="158.789062"/>
      <use xlink:href="#DejaVuSans-65" x="210.888672"/>
      <use xlink:href="#DejaVuSans-20" x="272.412109"/>
      <use xlink:href="#DejaVuSans-50" x="304.199219"/>
      <use xlink:href="#DejaVuSans-72" x="362.751953"/>
      <use xlink:href="#DejaVuSans-69" x="403.865234"/>
      <use xlink:href="#DejaVuSans-63" x="431.648438"/>
      <use xlink:href="#DejaVuSans-65" x="486.628906"/>
     </g>
    </g>
   </g>
   <g id="line2d_37">
    <path d="M 85.518182 368.610584 
L 85.898513 373.532727 
L 86.278844 364.503015 
L 87.419838 364.886344 
L 87.80017 363.582695 
L 88.180501 363.850364 
L 88.560832 364.565801 
L 88.941164 366.736898 
L 90.082157 368.802248 
L 90.462489 363.438946 
L 90.84282 362.807775 
L 91.603483 359.950982 
L 93.124808 364.534408 
L 93.505139 363.700007 
L 93.885471 363.975937 
L 94.265802 361.15219 
L 95.406796 364.607108 
L 95.787127 366.170166 
L 96.54779 356.958702 
L 96.928121 357.887284 
L 98.069115 354.244006 
L 98.449446 352.064648 
L 98.829777 357.147062 
L 99.210109 359.87663 
L 99.59044 360.479712 
L 100.731434 360.487973 
L 101.111765 356.132562 
L 101.492097 356.332488 
L 101.872428 356.082994 
L 102.252759 357.408123 
L 103.774084 356.596853 
L 104.154416 357.383338 
L 104.534747 360.164126 
L 104.915078 357.950071 
L 106.056072 358.110342 
L 106.436404 357.163585 
L 106.816735 357.011575 
L 107.197066 356.372143 
L 107.577397 352.890788 
L 108.718391 351.765585 
L 109.098723 349.41439 
L 109.479054 350.103391 
L 109.859385 352.509111 
L 110.239717 352.671035 
L 111.380711 347.145809 
L 111.761042 344.264232 
L 112.141373 344.244405 
L 112.521704 345.528226 
L 112.902036 345.708325 
L 114.04303 345.741371 
L 114.423361 343.330694 
L 114.803692 339.180165 
L 115.184024 337.929389 
L 115.564355 342.231927 
L 116.705349 344.297278 
L 117.08568 345.681889 
L 117.466011 347.598534 
L 117.846343 348.347017 
L 118.226674 347.550618 
L 119.747999 343.05972 
L 120.128331 342.162531 
L 120.508662 340.662261 
L 120.888993 341.959301 
L 122.029987 342.506206 
L 122.410318 343.595058 
L 122.79065 342.783789 
L 123.170981 342.377328 
L 123.551312 340.188056 
L 124.692306 339.65437 
L 125.072637 338.658045 
L 125.452969 337.136294 
L 125.8333 337.131337 
L 127.354625 335.070944 
L 127.734957 332.475211 
L 128.115288 333.887911 
L 128.875951 331.214521 
L 130.016944 328.670009 
L 130.397276 345.044108 
L 130.777607 348.41476 
L 131.157938 349.318558 
L 131.53827 345.553011 
L 132.679264 344.893751 
L 133.059595 347.420088 
L 133.439926 348.713823 
L 133.820257 349.35656 
L 134.200589 349.044279 
L 135.721914 356.286224 
L 136.102245 349.054193 
L 136.482577 346.613775 
L 136.862908 349.369778 
L 138.003902 353.244376 
L 138.384233 351.463218 
L 138.764564 351.16746 
L 139.144896 352.927138 
L 139.525227 354.133303 
L 141.046552 354.020948 
L 141.426884 356.943832 
L 141.807215 356.697642 
L 142.187546 359.063708 
L 143.32854 370.200078 
L 143.708871 367.420942 
L 144.089203 369.210362 
L 144.469534 368.860078 
L 144.849865 365.27463 
L 145.990859 362.90526 
L 146.751522 363.458774 
L 147.131853 361.518996 
L 147.512184 362.084076 
L 148.653178 360.902696 
L 149.03351 359.068665 
L 149.413841 359.278504 
L 150.174504 356.048296 
L 151.315497 357.099146 
L 151.695829 361.918848 
L 152.07616 363.001092 
L 152.456491 363.627306 
L 152.836823 362.817689 
L 153.977817 360.002203 
L 154.738479 356.097864 
L 155.499142 354.443932 
L 156.640136 356.962007 
L 157.020467 355.560873 
L 157.400798 352.975054 
L 157.78113 352.358754 
L 158.161461 352.244746 
L 159.302455 351.345906 
L 159.682786 350.810567 
L 160.063117 352.005166 
L 160.443449 352.00847 
L 160.82378 354.690121 
L 161.964774 353.373254 
L 162.345105 352.028298 
L 162.725437 353.416213 
L 163.105768 354.356361 
L 163.486099 334.811536 
L 164.627093 336.629044 
L 165.007424 338.986848 
L 165.768087 341.651977 
L 167.289412 351.018754 
L 167.669744 348.105784 
L 168.050075 347.438263 
L 168.430406 342.347587 
L 168.810737 345.121766 
L 169.951731 347.319298 
L 170.332063 343.591754 
L 170.712394 349.040975 
L 171.092725 348.550247 
L 171.473057 346.841789 
L 172.61405 343.396785 
L 172.994382 346.000779 
L 173.374713 344.586427 
L 173.755044 344.870619 
L 174.135376 351.188939 
L 175.27637 348.280926 
L 175.656701 348.454415 
L 176.037032 347.92899 
L 176.417364 344.322062 
L 178.31902 348.36354 
L 178.699351 346.212271 
L 179.079683 341.260386 
L 179.460014 342.326107 
L 180.601008 342.412026 
L 180.981339 342.149313 
L 181.742002 337.481621 
L 182.122333 336.60426 
L 183.643658 338.324284 
L 184.02399 337.78564 
L 184.404321 336.744704 
L 184.784652 338.195406 
L 185.925646 337.517971 
L 186.305977 340.041003 
L 186.686309 335.454273 
L 187.06664 336.301893 
L 187.446971 338.99511 
L 188.587965 340.001349 
L 188.968297 342.298018 
L 189.348628 347.002061 
L 189.728959 345.151507 
L 190.10929 341.653629 
L 191.250284 341.87173 
L 191.630616 344.93671 
L 192.010947 342.759005 
L 192.77161 340.587908 
L 193.912604 340.308673 
L 194.292935 336.034223 
L 194.673266 335.93013 
L 195.053597 334.372029 
L 195.433929 335.624458 
L 196.574923 335.515407 
L 196.955254 336.068921 
L 197.335585 333.370747 
L 197.715917 333.063423 
L 198.096248 332.379379 
L 199.237242 328.270158 
L 199.617573 332.794101 
L 200.378236 333.208824 
L 200.758567 330.956766 
L 201.899561 328.043795 
L 202.279892 327.934745 
L 202.660224 327.972747 
L 203.040555 325.153957 
L 203.420886 324.739234 
L 204.56188 326.751712 
L 205.322543 326.948333 
L 205.702874 324.724364 
L 206.083205 320.856375 
L 207.60453 324.063452 
L 207.984862 326.113932 
L 208.365193 326.394819 
L 208.745524 327.38784 
L 209.886518 325.512502 
L 210.26685 324.379037 
L 210.647181 324.471565 
L 211.407844 325.798346 
L 212.548837 328.283376 
L 212.929169 327.397753 
L 213.3095 323.224093 
L 213.689831 321.970012 
L 214.070163 319.906314 
L 215.971819 319.179311 
L 216.35215 318.311863 
L 216.732482 318.71502 
L 217.873476 316.510878 
L 218.253807 317.510507 
L 218.634138 317.923578 
L 219.01447 317.358498 
L 219.394801 318.424219 
L 220.535795 318.54814 
L 220.916126 319.420544 
L 221.676789 316.638103 
L 222.05712 318.044194 
L 223.198114 320.646536 
L 223.578445 320.501135 
L 224.339108 315.486464 
L 224.719439 316.595144 
L 225.860433 311.051743 
L 226.240764 311.195492 
L 226.621096 309.381288 
L 227.001427 306.818601 
L 227.381758 305.182843 
L 228.522752 303.613177 
L 228.903084 304.992831 
L 229.283415 303.618134 
L 229.663746 301.552783 
L 230.044077 296.812391 
L 232.326065 295.778063 
L 232.706397 299.07271 
L 233.84739 304.493842 
L 234.227722 301.410687 
L 234.608053 300.407753 
L 234.988384 300.868739 
L 235.368716 304.439317 
L 236.50971 295.895375 
L 236.890041 302.317789 
L 237.270372 302.126125 
L 237.650704 297.499739 
L 238.031035 297.004055 
L 239.172029 292.138089 
L 239.55236 292.119914 
L 239.932691 290.553552 
L 240.313023 291.150026 
L 240.693354 290.145439 
L 242.214679 290.322233 
L 242.59501 289.162332 
L 242.975342 290.57338 
L 243.355673 296.032514 
L 244.496667 306.5278 
L 244.876998 312.003457 
L 245.25733 311.221928 
L 245.637661 323.628902 
L 246.017992 320.119458 
L 247.158986 311.894406 
L 247.539317 319.779088 
L 247.919649 312.322347 
L 248.29998 323.471935 
L 248.680311 326.88059 
L 249.821305 340.569733 
L 250.201637 329.857999 
L 250.581968 340.594517 
L 250.962299 357.199935 
L 251.34263 339.880732 
L 252.483624 362.252609 
L 252.863956 356.39197 
L 253.244287 360.192215 
L 253.624618 357.137149 
L 254.00495 364.236998 
L 255.145944 366.831078 
L 255.526275 353.969727 
L 255.906606 359.252068 
L 256.286937 349.460654 
L 256.667269 357.893893 
L 257.808263 351.927509 
L 258.188594 349.285512 
L 258.568925 358.734904 
L 258.949257 356.220133 
L 259.329588 360.013769 
L 260.470582 345.301864 
L 260.850913 345.369608 
L 261.231244 341.442137 
L 261.611576 341.24882 
L 263.132901 340.239277 
L 263.513232 331.701944 
L 263.893564 332.818886 
L 264.273895 332.653657 
L 264.654226 329.385447 
L 265.79522 332.134841 
L 266.175551 340.440855 
L 266.555883 332.696617 
L 266.936214 330.532129 
L 267.316545 330.036445 
L 268.457539 330.603177 
L 268.83787 337.577453 
L 269.218202 319.764218 
L 269.598533 318.577881 
L 269.978864 323.212527 
L 271.119858 322.189766 
L 271.50019 318.173072 
L 271.880521 318.802591 
L 272.260852 314.62893 
L 272.641184 312.016675 
L 273.782177 309.55643 
L 274.54284 318.467178 
L 274.923171 317.343627 
L 275.303503 314.524837 
L 276.444497 312.748635 
L 276.824828 314.47626 
L 277.205159 308.984741 
L 277.58549 309.632434 
L 277.965822 308.373397 
L 279.487147 307.282892 
L 279.867478 307.147405 
L 280.24781 307.330808 
L 280.628141 305.316678 
L 281.769135 304.837517 
L 282.149466 303.614829 
L 282.529797 304.084077 
L 282.910129 308.082595 
L 283.29046 303.751968 
L 284.431454 302.393794 
L 285.192117 299.214806 
L 285.572448 309.460597 
L 285.952779 307.917367 
L 287.093773 306.815296 
L 287.474104 303.036531 
L 287.854436 301.648615 
L 288.234767 304.153473 
L 288.615098 304.854039 
L 289.756092 301.526347 
L 290.136424 299.452735 
L 290.516755 304.812732 
L 290.897086 303.266198 
L 291.277417 316.720717 
L 292.418411 310.92617 
L 292.798743 307.846319 
L 293.559405 299.404819 
L 295.08073 294.282749 
L 295.461062 296.020948 
L 295.841393 294.233181 
L 296.221724 291.756413 
L 296.602056 286.67565 
L 297.74305 291.698583 
L 298.123381 290.171876 
L 298.503712 291.318558 
L 298.884044 290.598164 
L 299.264375 291.002973 
L 300.405369 282.713482 
L 300.7857 283.919647 
L 301.166031 282.2558 
L 301.546363 290.981493 
L 301.926694 291.611012 
L 303.067688 288.582382 
L 303.448019 293.516091 
L 303.82835 289.933947 
L 304.208682 288.375847 
L 304.589013 296.387755 
L 305.730007 297.793845 
L 306.110338 299.360207 
L 306.49067 297.932637 
L 306.871001 293.555746 
L 307.251332 294.482675 
L 308.392326 294.216658 
L 308.772657 296.823957 
L 309.152989 292.478459 
L 309.53332 290.523811 
L 309.913651 292.295056 
L 311.054645 290.601469 
L 311.434977 283.889906 
L 311.815308 285.71898 
L 312.195639 280.064876 
L 312.57597 280.28463 
L 313.716964 278.999156 
L 314.097296 275.69129 
L 314.477627 268.39482 
L 314.857958 271.377186 
L 315.23829 269.711687 
L 316.379284 271.40197 
L 316.759615 267.01847 
L 317.139946 255.854011 
L 317.520277 270.136323 
L 317.900609 278.529908 
L 319.421934 288.220533 
L 319.802265 284.16088 
L 320.182597 288.281667 
L 320.562928 290.148744 
L 321.703922 290.386672 
L 322.084253 286.725219 
L 322.844916 294.310838 
L 323.225247 300.183043 
L 324.366241 304.946567 
L 324.746572 299.279245 
L 325.126904 307.581954 
L 325.887566 302.66642 
L 327.408891 298.639813 
L 327.789223 298.595201 
L 328.169554 295.209679 
L 328.549885 300.442451 
L 329.690879 295.882157 
L 330.07121 301.265286 
L 330.451542 300.133474 
L 331.212204 291.057498 
L 332.353198 282.14675 
L 332.73353 281.728723 
L 333.113861 282.323544 
L 333.494192 283.802335 
L 333.874524 281.508969 
L 335.015517 287.853726 
L 335.395849 284.331064 
L 335.77618 278.15484 
L 336.536843 270.275115 
L 337.677837 278.627392 
L 338.058168 276.345593 
L 338.438499 290.826179 
L 339.199162 273.578023 
L 340.340156 272.748579 
L 340.720487 268.753365 
L 341.100818 252.409007 
L 341.48115 250.056159 
L 341.861481 250.323829 
L 343.002475 250.117294 
L 343.382806 253.8531 
L 343.763137 251.81749 
L 344.143469 252.291695 
L 344.5238 247.800797 
L 345.664794 247.080402 
L 346.045125 248.935913 
L 346.425457 252.797293 
L 346.805788 249.965284 
L 347.186119 253.555689 
L 348.327113 254.766811 
L 348.707444 249.145753 
L 349.087776 248.724421 
L 349.848438 245.129059 
L 350.989432 250.490709 
L 351.750095 239.385733 
L 352.130426 239.580702 
L 352.510757 239.379123 
L 353.651751 240.785214 
L 354.032083 240.938876 
L 354.412414 246.626025 
L 354.792745 248.080032 
L 355.173077 247.015964 
L 356.31407 250.603064 
L 356.694402 249.329156 
L 357.074733 250.117294 
L 357.835396 255.402939 
L 358.97639 254.021632 
L 359.356721 256.643802 
L 361.638709 247.954459 
L 362.399371 253.996848 
L 362.779703 251.95463 
L 364.301028 255.860621 
L 364.681359 253.765529 
L 365.06169 254.695763 
L 365.442022 246.110514 
L 365.822353 242.812562 
L 366.963347 249.502646 
L 367.343678 252.835295 
L 367.72401 251.538255 
L 368.104341 253.887798 
L 368.484672 254.547058 
L 370.005997 245.514041 
L 370.386329 229.645539 
L 370.76666 228.926798 
L 371.146991 227.307563 
L 372.287985 227.580189 
L 372.668317 224.632521 
L 373.048648 238.916485 
L 373.428979 233.576315 
L 373.80931 238.098606 
L 375.330636 222.935629 
L 375.710967 199.379067 
L 376.091298 200.654627 
L 376.47163 194.7659 
L 377.612623 195.605258 
L 377.992955 197.161707 
L 378.373286 195.198797 
L 378.753617 195.112879 
L 379.133949 193.758009 
L 380.655274 190.81695 
L 381.035605 189.75949 
L 381.415937 191.593522 
L 381.796268 194.247084 
L 382.937262 200.238253 
L 383.317593 199.250189 
L 383.697924 195.235148 
L 384.078256 205.776697 
L 384.458587 204.867942 
L 385.599581 197.488858 
L 385.979912 198.427353 
L 386.360243 206.543355 
L 386.740575 202.848856 
L 387.120906 193.024396 
L 388.2619 206.963034 
L 388.642231 202.25073 
L 389.022563 201.864097 
L 389.402894 191.993373 
L 389.783225 200.727328 
L 390.924219 199.970583 
L 391.30455 195.67135 
L 391.684882 195.909278 
L 392.065213 204.973688 
L 392.445544 203.820397 
L 393.586538 204.58375 
L 393.96687 202.207771 
L 394.347201 203.513072 
L 394.727532 203.628732 
L 395.107863 205.086043 
L 396.248857 201.712087 
L 396.629189 201.781483 
L 397.00952 199.616995 
L 397.389851 188.199738 
L 398.911177 173.692715 
L 399.291508 173.821593 
L 399.671839 169.704111 
L 400.05217 167.100117 
L 400.432502 163.722855 
L 401.573496 168.858143 
L 401.953827 166.796097 
L 402.334158 168.851534 
L 402.71449 161.941697 
L 403.094821 161.759946 
L 404.235815 160.993288 
L 404.616146 162.440686 
L 404.996477 162.500168 
L 405.376809 166.690351 
L 405.75714 158.861846 
L 406.898134 156.971638 
L 407.278465 160.213412 
L 407.658797 148.188115 
L 408.039128 139.930017 
L 408.419459 143.194924 
L 409.560453 145.666735 
L 409.940784 152.424562 
L 410.321116 152.014796 
L 410.701447 147.950187 
L 411.081778 145.081828 
L 412.222772 154.506435 
L 412.603103 159.942438 
L 412.983435 171.455528 
L 413.363766 167.671806 
L 413.744097 158.71975 
L 414.885091 157.850651 
L 415.265423 160.821451 
L 415.645754 159.949047 
L 416.026085 152.123847 
L 416.406417 153.938051 
L 417.54741 143.763308 
L 417.927742 143.370065 
L 418.308073 139.328587 
L 418.688404 144.450657 
L 419.068736 142.956995 
L 420.590061 139.939931 
L 420.970392 141.350979 
L 421.350723 144.106982 
L 421.731055 136.314828 
L 422.872049 133.948762 
L 423.25238 131.176236 
L 423.632711 129.765188 
L 424.013043 124.775301 
L 424.393374 126.040948 
L 425.534368 123.876461 
L 426.29503 126.040948 
L 426.675362 123.813674 
L 427.055693 126.470541 
L 428.196687 123.536091 
L 428.577018 121.73841 
L 428.95735 123.512959 
L 429.337681 120.803219 
L 429.718012 121.751628 
L 430.859006 122.329926 
L 431.619669 127.299986 
L 432 123.823588 
L 432.380331 116.054565 
L 434.281988 111.566972 
L 434.662319 114.541077 
L 435.04265 113.229166 
L 436.563976 108.533385 
L 436.944307 104.938023 
L 437.324638 107.637849 
L 437.70497 105.721204 
L 438.845963 114.286625 
L 439.606626 103.229565 
L 439.986957 100.82054 
L 440.367289 85.992976 
L 441.508283 79.948934 
L 441.888614 89.363628 
L 442.268945 90.731716 
L 442.649277 90.209595 
L 443.029608 94.568311 
L 444.550933 91.068781 
L 444.931264 91.898226 
L 445.311596 88.887771 
L 445.691927 88.570533 
L 446.832921 85.378327 
L 447.213252 85.067699 
L 447.593583 86.412655 
L 447.973915 84.099462 
L 448.354246 84.043285 
L 449.49524 82.357959 
L 449.875571 87.694824 
L 450.255903 90.110458 
L 450.636234 88.976994 
L 451.016565 83.940843 
L 452.157559 75.140798 
L 452.53789 70.851478 
L 452.918222 69.02736 
L 453.298553 71.760232 
L 453.678884 63.736758 
L 454.819878 60.703171 
L 455.20021 60.726303 
L 455.580541 59.47057 
L 455.960872 64.833873 
L 456.341203 62.996537 
L 457.862529 60.537943 
L 458.24286 62.639644 
L 458.623191 62.540507 
L 459.003523 72.427753 
L 460.144517 67.325511 
L 460.524848 67.52048 
L 460.905179 61.572271 
L 461.28551 64.321666 
L 461.665842 73.937938 
L 462.806836 82.024198 
L 463.187167 79.945629 
L 463.567498 75.672832 
L 464.328161 70.074906 
L 465.469155 73.815669 
L 465.849486 91.386019 
L 466.610149 101.028727 
L 466.99048 90.467351 
L 468.131474 99.379751 
L 468.511805 91.409151 
L 468.892137 87.519683 
L 469.272468 81.465727 
L 469.652799 78.590759 
L 470.793793 82.582669 
L 471.174124 89.637906 
L 471.554456 85.715392 
L 471.934787 74.109775 
L 472.315118 73.240675 
L 473.456112 68.994315 
L 473.836443 66.145783 
L 474.216775 70.7953 
L 474.597106 69.585831 
L 474.977437 83.319586 
L 476.118431 82.830511 
L 476.498763 79.859711 
L 476.879094 57.534098 
L 477.259425 58.522161 
L 477.639757 51.447097 
L 478.78075 66.304402 
L 479.161082 59.401175 
L 479.541413 56.337847 
L 479.921744 50.082313 
L 480.302076 48.238368 
L 481.44307 47.871562 
L 481.823401 48.211932 
L 482.203732 56.879795 
L 482.584063 56.476638 
L 482.964395 46.903325 
L 484.105389 47.752598 
L 484.48572 48.783621 
L 484.866051 48.829884 
L 485.246383 43.387273 
L 485.626714 45.888825 
L 486.767708 55.382829 
L 487.148039 56.446897 
L 487.52837 56.57908 
L 488.289033 69.503217 
L 489.430027 58.57173 
L 489.810358 70.673032 
L 490.19069 73.429035 
L 490.571021 66.294488 
L 490.951352 70.448321 
L 492.092346 66.231702 
L 492.472677 52.220364 
L 492.853009 49.95674 
L 493.23334 51.989045 
L 493.613671 50.108749 
L 494.754665 56.622039 
L 495.134997 62.348843 
L 495.515328 54.42781 
L 496.27599 69.513131 
L 497.416984 70.83826 
L 497.797316 64.827263 
L 498.177647 55.812421 
L 498.557978 55.171337 
L 500.079303 52.127836 
L 500.459635 57.468006 
L 500.839966 57.279646 
L 501.220297 58.938536 
L 501.600629 63.31047 
L 502.741623 62.008473 
L 503.121954 64.179569 
L 503.502285 86.528314 
L 503.882617 86.868684 
L 504.262948 88.672974 
L 505.403942 83.488118 
L 506.164604 73.329898 
L 506.544936 81.647478 
L 506.925267 79.482991 
L 508.826923 93.144045 
L 509.207255 100.232328 
L 509.587586 111.517403 
L 510.72858 110.592126 
L 511.108911 122.610814 
L 511.489243 114.332889 
L 511.869574 114.726132 
L 512.249905 100.949418 
L 513.390899 92.988731 
L 513.77123 85.788093 
L 514.151562 52.220364 
L 514.531893 70.018728 
L 514.912224 68.809259 
L 516.053218 82.285258 
L 516.43355 81.376504 
L 516.813881 73.974288 
L 517.194212 83.395591 
L 517.574543 98.173587 
L 518.715537 94.307251 
L 519.4762 87.076871 
L 519.856531 104.191192 
L 520.236863 110.278193 
L 521.758188 113.79755 
L 522.138519 119.801937 
L 522.51885 102.988332 
L 522.899182 96.884808 
L 524.040176 95.658816 
L 524.420507 98.048013 
L 524.800838 96.121454 
L 525.18117 97.585375 
L 525.561501 104.809145 
L 526.702495 123.503046 
L 527.082826 120.813133 
L 527.463157 99.045991 
L 527.843489 102.958591 
L 528.22382 110.251757 
L 529.364814 122.590987 
L 529.745145 112.941669 
L 530.125476 99.624289 
L 530.505808 96.620443 
L 530.886139 89.347105 
L 532.027133 90.411173 
L 532.407464 77.860451 
L 532.787796 83.722742 
L 533.168127 74.440231 
L 533.548458 73.749578 
L 534.689452 72.331921 
L 535.069783 68.035992 
L 535.450115 70.035251 
L 535.830446 79.932411 
L 537.351771 66.7373 
L 537.732103 75.263067 
L 538.112434 88.107894 
L 538.492765 90.457437 
L 538.873096 98.570134 
L 540.394422 117.194639 
L 540.774753 110.876319 
L 541.155084 120.899052 
L 542.67641 118.559423 
L 543.056741 110.066701 
L 543.437072 117.620927 
L 543.817403 128.54911 
L 544.197735 146.142592 
L 545.338729 134.127209 
L 546.099391 161.32044 
L 546.479723 146.813418 
L 546.860054 161.502191 
L 548.001048 154.261898 
L 548.381379 151.04656 
L 548.76171 136.357787 
L 549.142042 155.620072 
L 549.522373 159.208825 
L 550.663367 167.721374 
L 551.043698 162.761228 
L 551.804361 167.466923 
L 552.184692 156.380121 
L 553.325686 162.07388 
L 553.706017 155.768778 
L 554.086349 169.978389 
L 554.847011 180.182873 
L 555.988005 172.407241 
L 556.368336 191.37542 
L 556.748668 191.659613 
L 557.128999 183.543611 
L 557.50933 168.663174 
L 559.030656 164.565518 
L 559.410987 164.241671 
L 559.791318 152.315511 
L 560.17165 162.830624 
L 561.312643 154.747668 
L 561.692975 154.023969 
L 562.073306 153.994228 
L 562.453637 161.660809 
L 562.833969 173.197031 
L 563.974963 188.232783 
L 564.355294 187.185237 
L 564.735625 176.620556 
L 565.115956 189.029182 
L 565.496288 184.964572 
L 567.017613 171.25395 
L 567.397944 171.191163 
L 567.778276 169.039894 
L 568.158607 149.698299 
L 569.299601 156.029838 
L 569.679932 169.413309 
L 570.060263 170.454246 
L 570.440595 179.987904 
L 570.820926 180.949531 
L 572.722583 160.682659 
L 573.102914 147.160397 
L 573.483245 144.308561 
L 574.624239 156.360294 
L 575.00457 161.88552 
L 575.384902 170.685565 
L 575.765233 173.154072 
L 576.145564 168.76892 
L 577.286558 178.21005 
L 577.66689 162.645569 
L 578.047221 162.381204 
L 578.427552 161.257653 
L 578.807883 183.332119 
L 579.948877 183.827804 
L 580.329209 192.981437 
L 580.70954 166.016221 
L 581.089871 162.744705 
L 581.470203 155.970356 
L 582.611196 159.803646 
L 582.991528 158.415731 
L 583.371859 148.898596 
L 583.75219 148.601185 
L 584.132522 150.74915 
L 585.273516 151.013514 
L 585.653847 153.128433 
L 586.034178 142.719067 
L 586.41451 145.461852 
L 586.794841 136.109945 
L 587.935835 135.349896 
L 588.316166 136.572584 
L 588.696497 143.809572 
L 589.076829 142.025109 
L 589.45716 151.079606 
L 590.598154 161.158516 
L 590.978485 162.149884 
L 591.358816 162.381204 
L 591.739148 152.467521 
L 592.119479 173.616711 
L 593.260473 176.789089 
L 593.640804 178.21005 
L 594.021136 180.721516 
L 594.401467 176.095131 
L 594.781798 182.27466 
L 596.303123 186.240133 
L 596.683455 176.32645 
L 597.063786 179.829285 
L 597.444117 172.030521 
L 598.585111 171.733111 
L 598.965443 193.41103 
L 599.345774 191.560476 
L 599.726105 198.070461 
L 600.106436 198.962692 
L 601.24743 198.235689 
L 602.008093 210.925202 
L 602.388424 209.074648 
L 602.768756 213.701033 
L 603.90975 214.890675 
L 604.290081 217.269959 
L 604.670412 208.512873 
L 605.431075 223.680807 
L 606.572069 213.271441 
L 606.9524 202.994256 
L 607.332731 203.622123 
L 607.713063 203.556032 
L 608.093394 212.379209 
L 609.234388 215.221131 
L 609.614719 217.402142 
L 609.99505 216.576001 
L 610.375382 211.916571 
L 610.755713 220.27711 
L 611.896707 208.380691 
L 612.277038 206.364908 
L 612.65737 209.999925 
L 613.037701 209.206831 
L 613.418032 206.067498 
L 614.559026 201.143702 
L 614.939357 194.666763 
L 615.319689 228.075873 
L 615.70002 235.411998 
L 616.080351 222.259846 
L 617.221345 228.604603 
L 617.982008 253.68622 
L 618.362339 265.516547 
L 618.74267 254.908907 
L 619.883664 248.465013 
L 620.263996 247.605828 
L 620.644327 252.595714 
L 621.024658 230.223838 
L 621.40499 221.764162 
L 622.545983 224.077354 
L 622.926315 215.188086 
L 623.306646 214.295854 
L 623.686977 215.915089 
L 625.208303 224.738267 
L 625.968965 214.85763 
L 626.729628 218.889194 
L 627.870622 223.350351 
L 628.250953 226.027045 
L 628.631284 206.166635 
L 629.011616 206.72841 
L 629.391947 208.215462 
L 630.532941 211.387841 
L 631.293603 226.985368 
L 632.054266 233.858855 
L 633.19526 232.23962 
L 633.575591 224.672175 
L 633.955923 226.456638 
L 634.336254 240.038383 
L 634.716585 241.161934 
L 635.857579 246.812733 
L 636.618242 243.177716 
L 636.998573 249.753792 
L 637.378904 244.631723 
L 638.90023 250.844297 
L 639.280561 255.702002 
L 639.660892 247.473645 
L 640.041223 248.200649 
L 641.562549 244.995225 
L 641.94288 248.26674 
L 642.323211 254.677588 
L 642.703543 250.084248 
L 643.844536 247.969329 
L 644.224868 246.515323 
L 644.605199 236.535549 
L 644.98553 237.692145 
L 645.365862 234.751086 
L 646.887187 236.866005 
L 647.267518 238.121738 
L 647.64785 231.083023 
L 648.028181 213.337532 
L 649.169175 206.959729 
L 649.929837 221.764162 
L 650.310169 213.734079 
L 650.6905 208.61201 
L 651.831494 217.732598 
L 652.592156 206.232726 
L 652.972488 181.878113 
L 653.352819 193.70844 
L 654.493813 199.491422 
L 654.874144 184.389579 
L 655.254476 210.958248 
L 655.634807 225.960954 
L 656.015138 227.943691 
L 657.156132 227.481052 
L 657.536463 227.64628 
L 657.916795 220.541474 
L 658.677457 228.835922 
L 660.198783 237.229507 
L 660.579114 238.055647 
L 660.959445 240.467976 
L 661.339776 246.151821 
L 662.861102 243.012488 
L 663.241433 242.31853 
L 664.002096 230.719522 
L 665.14309 225.564407 
L 665.523421 230.223838 
L 665.903752 228.637648 
L 666.664415 240.66625 
L 667.805409 238.518285 
L 668.566071 222.358983 
L 668.946403 207.422368 
L 669.326734 202.829028 
L 670.467728 204.580446 
L 670.848059 191.659613 
L 671.22839 197.013001 
L 671.608722 190.271697 
L 671.989053 190.932609 
L 673.130047 200.846292 
L 673.510378 206.464045 
L 673.89071 204.679582 
L 674.271041 206.596228 
L 674.651372 197.740005 
L 676.172697 194.038897 
L 676.553029 194.600672 
L 676.93336 181.547657 
L 678.454685 187.99155 
L 679.215348 193.70844 
L 679.595679 183.893895 
L 679.97601 179.697103 
L 681.497336 194.038897 
L 681.877667 194.369353 
L 682.257998 191.461339 
L 682.63833 191.428293 
L 683.779323 188.553326 
L 684.159655 195.724223 
L 684.539986 196.252952 
L 684.920317 183.299074 
L 685.300649 183.794758 
L 686.441643 185.480084 
L 686.821974 191.196974 
L 687.202305 190.734336 
L 687.582636 193.741486 
L 687.962968 190.420402 
L 689.103962 183.728667 
L 689.484293 184.720035 
L 690.244956 155.11117 
L 690.625287 151.740518 
L 691.766281 154.912896 
L 692.146612 144.569621 
L 692.526943 139.976281 
L 692.907275 133.234977 
L 693.287606 134.127209 
L 694.4286 125.469259 
L 694.808931 133.995026 
L 695.189263 139.447552 
L 695.569594 130.492192 
L 695.949925 126.923266 
L 697.47125 129.533869 
L 697.851582 133.730661 
L 698.612244 127.584178 
L 699.753238 122.957793 
L 700.13357 118.727955 
L 700.513901 135.151622 
L 700.894232 136.043854 
L 701.274563 135.382942 
L 702.415557 130.492192 
L 702.795889 130.227827 
L 703.17622 130.393055 
L 703.556551 125.733624 
L 703.936883 131.450514 
L 705.458208 132.144472 
L 705.838539 140.703285 
L 706.21887 132.078381 
L 706.599202 134.887258 
L 707.740196 147.874182 
L 708.120527 148.138547 
L 708.500858 141.298106 
L 708.88119 144.833986 
L 709.261521 141.661607 
L 710.402515 143.016477 
L 711.163177 136.176036 
L 711.543509 141.79379 
L 711.92384 144.404393 
L 713.064834 155.210307 
L 713.445165 152.434476 
L 713.825496 146.122764 
L 714.205828 128.906003 
L 714.586159 126.031035 
L 715.727153 128.145954 
L 716.107484 131.384423 
L 716.487816 135.680352 
L 716.868147 146.420175 
L 717.248478 143.842617 
L 718.389472 138.654457 
L 718.769803 135.647307 
L 719.150135 112.944974 
L 719.530466 112.251016 
L 719.910797 101.874695 
L 721.051791 101.544239 
L 721.432123 105.575803 
L 721.812454 116.315626 
L 722.192785 115.886033 
L 722.573116 116.646082 
L 723.71411 105.410575 
L 724.094442 105.741031 
L 724.474773 111.325739 
L 724.855104 111.127465 
L 725.235436 111.259648 
L 726.376429 105.774077 
L 727.137092 114.762482 
L 727.517423 110.301325 
L 727.897755 118.067043 
L 729.038749 115.357303 
L 729.41908 112.845837 
L 729.799411 101.213783 
L 730.179743 110.433507 
L 730.560074 109.541276 
L 731.701068 105.906259 
L 732.081399 93.679384 
L 732.46173 88.920816 
L 732.842062 87.532901 
L 733.222393 89.350409 
L 734.743718 89.64782 
L 735.124049 94.075931 
L 735.884712 88.028585 
L 737.025706 86.244122 
L 737.406037 91.762739 
L 738.1667 82.113421 
L 738.547031 84.393568 
L 739.688025 82.212558 
L 740.068356 82.642151 
L 740.829019 107.32722 
L 741.20935 107.690722 
L 742.350344 104.650526 
L 742.730676 113.638931 
L 743.491338 101.478148 
L 743.871669 105.707985 
L 745.012663 94.736844 
L 745.392995 100.916372 
L 745.773326 91.101827 
L 746.153657 92.027104 
L 746.533989 82.972607 
L 747.674983 80.428095 
L 748.055314 81.419463 
L 748.435645 73.158061 
L 749.196308 83.468291 
L 750.717633 75.504299 
L 751.097964 81.155098 
L 751.478296 82.146467 
L 751.858627 89.548683 
L 752.999621 85.715392 
L 753.379952 78.379267 
L 753.760283 122.825611 
L 754.140615 133.499342 
L 754.520946 133.631525 
L 755.66194 125.865807 
L 756.042271 127.352859 
L 756.422603 119.851506 
L 756.802934 116.513899 
L 757.183265 110.598736 
L 758.324259 107.02981 
L 759.084922 101.048555 
L 759.465253 106.236715 
L 759.845584 98.404906 
L 760.986578 99.792822 
L 761.366909 93.877658 
L 761.747241 90.738325 
L 762.127572 83.071744 
L 762.507903 88.887771 
L 763.648897 85.649301 
L 764.029229 83.336109 
L 764.40956 78.709723 
L 765.170223 84.657933 
L 766.311216 85.219708 
L 766.691548 83.336109 
L 767.45221 98.867545 
L 767.832542 100.850281 
L 768.973536 109.73955 
L 769.353867 103.923523 
L 769.734198 107.095901 
L 770.114529 83.897884 
L 770.494861 89.879139 
L 771.635855 96.289987 
L 772.016186 99.792822 
L 772.396517 98.702317 
L 772.776849 101.246828 
L 773.15718 99.131909 
L 775.058836 79.899365 
L 775.439168 72.827605 
L 775.819499 69.787409 
L 777.340824 69.456953 
L 777.721156 74.017247 
L 778.101487 74.545977 
L 778.481818 75.702573 
L 778.481818 75.702573 
" clip-path="url(#pd9a4da9c9c)" style="fill: none; stroke: #1f77b4; stroke-width: 1.5; stroke-linecap: square"/>
   </g>
   <g id="patch_7">
    <path d="M 50.87 390.04 
L 50.87 26.88 
" style="fill: none; stroke: #000000; stroke-width: 0.8; stroke-linejoin: miter; stroke-linecap: square"/>
   </g>
   <g id="patch_8">
    <path d="M 813.13 390.04 
L 813.13 26.88 
" style="fill: none; stroke: #000000; stroke-width: 0.8; stroke-linejoin: miter; stroke-linecap: square"/>
   </g>
   <g id="patch_9">
    <path d="M 50.87 390.04 
L 813.13 390.04 
" style="fill: none; stroke: #000000; stroke-width: 0.8; stroke-linejoin: miter; stroke-linecap: square"/>
   </g>
   <g id="patch_10">
    <path d="M 50.87 26.88 
L 813.13 26.88 
" style="fill: none; stroke: #000000; stroke-width: 0.8; stroke-linejoin: miter; stroke-linecap: square"/>
   </g>
   <g id="text_24">
    <!-- Stock Trading Performance for GOOG -->
    <g transform="translate(320.743125 20.88) scale(0.12 -0.12)">
     <defs>
      <path id="DejaVuSans-53" d="M 3425 4513 
L 3425 3897 
Q 3066 4069 2747 4153 
Q 2428 4238 2131 4238 
Q 1616 4238 1336 4038 
Q 1056 3838 1056 3469 
Q 1056 3159 1242 3001 
Q 1428 2844 1947 2747 
L 2328 2669 
Q 3034 2534 3370 2195 
Q 3706 1856 3706 1288 
Q 3706 609 3251 259 
Q 2797 -91 1919 -91 
Q 1588 -91 1214 -16 
Q 841 59 441 206 
L 441 856 
Q 825 641 1194 531 
Q 1563 422 1919 422 
Q 2459 422 2753 634 
Q 3047 847 3047 1241 
Q 3047 1584 2836 1778 
Q 2625 1972 2144 2069 
L 1759 2144 
Q 1053 2284 737 2584 
Q 422 2884 422 3419 
Q 422 4038 858 4394 
Q 1294 4750 2059 4750 
Q 2388 4750 2728 4690 
Q 3069 4631 3425 4513 
z
" transform="scale(0.015625)"/>
      <path id="DejaVuSans-6b" d="M 581 4863 
L 1159 4863 
L 1159 1991 
L 2875 3500 
L 3609 3500 
L 1753 1863 
L 3688 0 
L 2938 0 
L 1159 1709 
L 1159 0 
L 581 0 
L 581 4863 
z
" transform="scale(0.015625)"/>
      <path id="DejaVuSans-54" d="M -19 4666 
L 3928 4666 
L 3928 4134 
L 2272 4134 
L 2272 0 
L 1638 0 
L 1638 4134 
L -19 4134 
L -19 4666 
z
" transform="scale(0.015625)"/>
      <path id="DejaVuSans-64" d="M 2906 2969 
L 2906 4863 
L 3481 4863 
L 3481 0 
L 2906 0 
L 2906 525 
Q 2725 213 2448 61 
Q 2172 -91 1784 -91 
Q 1150 -91 751 415 
Q 353 922 353 1747 
Q 353 2572 751 3078 
Q 1150 3584 1784 3584 
Q 2172 3584 2448 3432 
Q 2725 3281 2906 2969 
z
M 947 1747 
Q 947 1113 1208 752 
Q 1469 391 1925 391 
Q 2381 391 2643 752 
Q 2906 1113 2906 1747 
Q 2906 2381 2643 2742 
Q 2381 3103 1925 3103 
Q 1469 3103 1208 2742 
Q 947 2381 947 1747 
z
" transform="scale(0.015625)"/>
      <path id="DejaVuSans-67" d="M 2906 1791 
Q 2906 2416 2648 2759 
Q 2391 3103 1925 3103 
Q 1463 3103 1205 2759 
Q 947 2416 947 1791 
Q 947 1169 1205 825 
Q 1463 481 1925 481 
Q 2391 481 2648 825 
Q 2906 1169 2906 1791 
z
M 3481 434 
Q 3481 -459 3084 -895 
Q 2688 -1331 1869 -1331 
Q 1566 -1331 1297 -1286 
Q 1028 -1241 775 -1147 
L 775 -588 
Q 1028 -725 1275 -790 
Q 1522 -856 1778 -856 
Q 2344 -856 2625 -561 
Q 2906 -266 2906 331 
L 2906 616 
Q 2728 306 2450 153 
Q 2172 0 1784 0 
Q 1141 0 747 490 
Q 353 981 353 1791 
Q 353 2603 747 3093 
Q 1141 3584 1784 3584 
Q 2172 3584 2450 3431 
Q 2728 3278 2906 2969 
L 2906 3500 
L 3481 3500 
L 3481 434 
z
" transform="scale(0.015625)"/>
      <path id="DejaVuSans-66" d="M 2375 4863 
L 2375 4384 
L 1825 4384 
Q 1516 4384 1395 4259 
Q 1275 4134 1275 3809 
L 1275 3500 
L 2222 3500 
L 2222 3053 
L 1275 3053 
L 1275 0 
L 697 0 
L 697 3053 
L 147 3053 
L 147 3500 
L 697 3500 
L 697 3744 
Q 697 4328 969 4595 
Q 1241 4863 1831 4863 
L 2375 4863 
z
" transform="scale(0.015625)"/>
      <path id="DejaVuSans-6d" d="M 3328 2828 
Q 3544 3216 3844 3400 
Q 4144 3584 4550 3584 
Q 5097 3584 5394 3201 
Q 5691 2819 5691 2113 
L 5691 0 
L 5113 0 
L 5113 2094 
Q 5113 2597 4934 2840 
Q 4756 3084 4391 3084 
Q 3944 3084 3684 2787 
Q 3425 2491 3425 1978 
L 3425 0 
L 2847 0 
L 2847 2094 
Q 2847 2600 2669 2842 
Q 2491 3084 2119 3084 
Q 1678 3084 1418 2786 
Q 1159 2488 1159 1978 
L 1159 0 
L 581 0 
L 581 3500 
L 1159 3500 
L 1159 2956 
Q 1356 3278 1631 3431 
Q 1906 3584 2284 3584 
Q 2666 3584 2933 3390 
Q 3200 3197 3328 2828 
z
" transform="scale(0.015625)"/>
      <path id="DejaVuSans-47" d="M 3809 666 
L 3809 1919 
L 2778 1919 
L 2778 2438 
L 4434 2438 
L 4434 434 
Q 4069 175 3628 42 
Q 3188 -91 2688 -91 
Q 1594 -91 976 548 
Q 359 1188 359 2328 
Q 359 3472 976 4111 
Q 1594 4750 2688 4750 
Q 3144 4750 3555 4637 
Q 3966 4525 4313 4306 
L 4313 3634 
Q 3963 3931 3569 4081 
Q 3175 4231 2741 4231 
Q 1884 4231 1454 3753 
Q 1025 3275 1025 2328 
Q 1025 1384 1454 906 
Q 1884 428 2741 428 
Q 3075 428 3337 486 
Q 3600 544 3809 666 
z
" transform="scale(0.015625)"/>
      <path id="DejaVuSans-4f" d="M 2522 4238 
Q 1834 4238 1429 3725 
Q 1025 3213 1025 2328 
Q 1025 1447 1429 934 
Q 1834 422 2522 422 
Q 3209 422 3611 934 
Q 4013 1447 4013 2328 
Q 4013 3213 3611 3725 
Q 3209 4238 2522 4238 
z
M 2522 4750 
Q 3503 4750 4090 4092 
Q 4678 3434 4678 2328 
Q 4678 1225 4090 567 
Q 3503 -91 2522 -91 
Q 1538 -91 948 565 
Q 359 1222 359 2328 
Q 359 3434 948 4092 
Q 1538 4750 2522 4750 
z
" transform="scale(0.015625)"/>
     </defs>
     <use xlink:href="#DejaVuSans-53"/>
     <use xlink:href="#DejaVuSans-74" x="63.476562"/>
     <use xlink:href="#DejaVuSans-6f" x="102.685547"/>
     <use xlink:href="#DejaVuSans-63" x="163.867188"/>
     <use xlink:href="#DejaVuSans-6b" x="218.847656"/>
     <use xlink:href="#DejaVuSans-20" x="276.757812"/>
     <use xlink:href="#DejaVuSans-54" x="308.544922"/>
     <use xlink:href="#DejaVuSans-72" x="354.878906"/>
     <use xlink:href="#DejaVuSans-61" x="395.992188"/>
     <use xlink:href="#DejaVuSans-64" x="457.271484"/>
     <use xlink:href="#DejaVuSans-69" x="520.748047"/>
     <use xlink:href="#DejaVuSans-6e" x="548.53125"/>
     <use xlink:href="#DejaVuSans-67" x="611.910156"/>
     <use xlink:href="#DejaVuSans-20" x="675.386719"/>
     <use xlink:href="#DejaVuSans-50" x="707.173828"/>
     <use xlink:href="#DejaVuSans-65" x="763.851562"/>
     <use xlink:href="#DejaVuSans-72" x="825.375"/>
     <use xlink:href="#DejaVuSans-66" x="866.488281"/>
     <use xlink:href="#DejaVuSans-6f" x="901.693359"/>
     <use xlink:href="#DejaVuSans-72" x="962.875"/>
     <use xlink:href="#DejaVuSans-6d" x="1002.238281"/>
     <use xlink:href="#DejaVuSans-61" x="1099.650391"/>
     <use xlink:href="#DejaVuSans-6e" x="1160.929688"/>
     <use xlink:href="#DejaVuSans-63" x="1224.308594"/>
     <use xlink:href="#DejaVuSans-65" x="1279.289062"/>
     <use xlink:href="#DejaVuSans-20" x="1340.8125"/>
     <use xlink:href="#DejaVuSans-66" x="1372.599609"/>
     <use xlink:href="#DejaVuSans-6f" x="1407.804688"/>
     <use xlink:href="#DejaVuSans-72" x="1468.986328"/>
     <use xlink:href="#DejaVuSans-20" x="1510.099609"/>
     <use xlink:href="#DejaVuSans-47" x="1541.886719"/>
     <use xlink:href="#DejaVuSans-4f" x="1619.376953"/>
     <use xlink:href="#DejaVuSans-4f" x="1698.087891"/>
     <use xlink:href="#DejaVuSans-47" x="1776.798828"/>
    </g>
   </g>
  </g>
 </g>
 <defs>
  <clipPath id="pd9a4da9c9c">
   <rect x="50.87" y="26.88" width="762.26" height="363.16"/>
  </clipPath>
 </defs>
</svg>
