<?xml version="1.0" encoding="utf-8" standalone="no"?>
<!DOCTYPE svg PUBLIC "-//W3C//DTD SVG 1.1//EN"
  "http://www.w3.org/Graphics/SVG/1.1/DTD/svg11.dtd">
<svg xmlns:xlink="http://www.w3.org/1999/xlink" width="864pt" height="432pt" viewBox="0 0 864 432" xmlns="http://www.w3.org/2000/svg" version="1.1">
 <metadata>
  <rdf:RDF xmlns:dc="http://purl.org/dc/elements/1.1/" xmlns:cc="http://creativecommons.org/ns#" xmlns:rdf="http://www.w3.org/1999/02/22-rdf-syntax-ns#">
   <cc:Work>
    <dc:type rdf:resource="http://purl.org/dc/dcmitype/StillImage"/>
    <dc:date>2024-04-16T14:18:45.624026</dc:date>
    <dc:format>image/svg+xml</dc:format>
    <dc:creator>
     <cc:Agent>
      <dc:title>Matplotlib v3.8.2, https://matplotlib.org/</dc:title>
     </cc:Agent>
    </dc:creator>
   </cc:Work>
  </rdf:RDF>
 </metadata>
 <defs>
  <style type="text/css">*{stroke-linejoin: round; stroke-linecap: butt}</style>
 </defs>
 <g id="figure_1">
  <g id="patch_1">
   <path d="M 0 432 
L 864 432 
L 864 0 
L 0 0 
z
" style="fill: #ffffff"/>
  </g>
  <g id="axes_1">
   <g id="patch_2">
    <path d="M 59.24 390.04 
L 813.13 390.04 
L 813.13 26.88 
L 59.24 26.88 
z
" style="fill: #ffffff"/>
   </g>
   <g id="matplotlib.axis_1">
    <g id="xtick_1">
     <g id="line2d_1">
      <path d="M 93.131572 390.04 
L 93.131572 26.88 
" clip-path="url(#p9c57f65312)" style="fill: none; stroke-dasharray: 1.85,0.8; stroke-dashoffset: 0; stroke: #b0b0b0; stroke-opacity: 0.5; stroke-width: 0.5"/>
     </g>
     <g id="line2d_2">
      <defs>
       <path id="ma77ff54c86" d="M 0 0 
L 0 3.5 
" style="stroke: #000000; stroke-width: 0.8"/>
      </defs>
      <g>
       <use xlink:href="#ma77ff54c86" x="93.131572" y="390.04" style="stroke: #000000; stroke-width: 0.8"/>
      </g>
     </g>
     <g id="text_1">
      <!-- 2019 -->
      <g transform="translate(80.406572 404.638438) scale(0.1 -0.1)">
       <defs>
        <path id="DejaVuSans-32" d="M 1228 531 
L 3431 531 
L 3431 0 
L 469 0 
L 469 531 
Q 828 903 1448 1529 
Q 2069 2156 2228 2338 
Q 2531 2678 2651 2914 
Q 2772 3150 2772 3378 
Q 2772 3750 2511 3984 
Q 2250 4219 1831 4219 
Q 1534 4219 1204 4116 
Q 875 4013 500 3803 
L 500 4441 
Q 881 4594 1212 4672 
Q 1544 4750 1819 4750 
Q 2544 4750 2975 4387 
Q 3406 4025 3406 3419 
Q 3406 3131 3298 2873 
Q 3191 2616 2906 2266 
Q 2828 2175 2409 1742 
Q 1991 1309 1228 531 
z
" transform="scale(0.015625)"/>
        <path id="DejaVuSans-30" d="M 2034 4250 
Q 1547 4250 1301 3770 
Q 1056 3291 1056 2328 
Q 1056 1369 1301 889 
Q 1547 409 2034 409 
Q 2525 409 2770 889 
Q 3016 1369 3016 2328 
Q 3016 3291 2770 3770 
Q 2525 4250 2034 4250 
z
M 2034 4750 
Q 2819 4750 3233 4129 
Q 3647 3509 3647 2328 
Q 3647 1150 3233 529 
Q 2819 -91 2034 -91 
Q 1250 -91 836 529 
Q 422 1150 422 2328 
Q 422 3509 836 4129 
Q 1250 4750 2034 4750 
z
" transform="scale(0.015625)"/>
        <path id="DejaVuSans-31" d="M 794 531 
L 1825 531 
L 1825 4091 
L 703 3866 
L 703 4441 
L 1819 4666 
L 2450 4666 
L 2450 531 
L 3481 531 
L 3481 0 
L 794 0 
L 794 531 
z
" transform="scale(0.015625)"/>
        <path id="DejaVuSans-39" d="M 703 97 
L 703 672 
Q 941 559 1184 500 
Q 1428 441 1663 441 
Q 2288 441 2617 861 
Q 2947 1281 2994 2138 
Q 2813 1869 2534 1725 
Q 2256 1581 1919 1581 
Q 1219 1581 811 2004 
Q 403 2428 403 3163 
Q 403 3881 828 4315 
Q 1253 4750 1959 4750 
Q 2769 4750 3195 4129 
Q 3622 3509 3622 2328 
Q 3622 1225 3098 567 
Q 2575 -91 1691 -91 
Q 1453 -91 1209 -44 
Q 966 3 703 97 
z
M 1959 2075 
Q 2384 2075 2632 2365 
Q 2881 2656 2881 3163 
Q 2881 3666 2632 3958 
Q 2384 4250 1959 4250 
Q 1534 4250 1286 3958 
Q 1038 3666 1038 3163 
Q 1038 2656 1286 2365 
Q 1534 2075 1959 2075 
z
" transform="scale(0.015625)"/>
       </defs>
       <use xlink:href="#DejaVuSans-32"/>
       <use xlink:href="#DejaVuSans-30" x="63.623047"/>
       <use xlink:href="#DejaVuSans-31" x="127.246094"/>
       <use xlink:href="#DejaVuSans-39" x="190.869141"/>
      </g>
     </g>
    </g>
    <g id="xtick_2">
     <g id="line2d_3">
      <path d="M 230.428174 390.04 
L 230.428174 26.88 
" clip-path="url(#p9c57f65312)" style="fill: none; stroke-dasharray: 1.85,0.8; stroke-dashoffset: 0; stroke: #b0b0b0; stroke-opacity: 0.5; stroke-width: 0.5"/>
     </g>
     <g id="line2d_4">
      <g>
       <use xlink:href="#ma77ff54c86" x="230.428174" y="390.04" style="stroke: #000000; stroke-width: 0.8"/>
      </g>
     </g>
     <g id="text_2">
      <!-- 2020 -->
      <g transform="translate(217.703174 404.638438) scale(0.1 -0.1)">
       <use xlink:href="#DejaVuSans-32"/>
       <use xlink:href="#DejaVuSans-30" x="63.623047"/>
       <use xlink:href="#DejaVuSans-32" x="127.246094"/>
       <use xlink:href="#DejaVuSans-30" x="190.869141"/>
      </g>
     </g>
    </g>
    <g id="xtick_3">
     <g id="line2d_5">
      <path d="M 368.100932 390.04 
L 368.100932 26.88 
" clip-path="url(#p9c57f65312)" style="fill: none; stroke-dasharray: 1.85,0.8; stroke-dashoffset: 0; stroke: #b0b0b0; stroke-opacity: 0.5; stroke-width: 0.5"/>
     </g>
     <g id="line2d_6">
      <g>
       <use xlink:href="#ma77ff54c86" x="368.100932" y="390.04" style="stroke: #000000; stroke-width: 0.8"/>
      </g>
     </g>
     <g id="text_3">
      <!-- 2021 -->
      <g transform="translate(355.375932 404.638438) scale(0.1 -0.1)">
       <use xlink:href="#DejaVuSans-32"/>
       <use xlink:href="#DejaVuSans-30" x="63.623047"/>
       <use xlink:href="#DejaVuSans-32" x="127.246094"/>
       <use xlink:href="#DejaVuSans-31" x="190.869141"/>
      </g>
     </g>
    </g>
    <g id="xtick_4">
     <g id="line2d_7">
      <path d="M 505.397534 390.04 
L 505.397534 26.88 
" clip-path="url(#p9c57f65312)" style="fill: none; stroke-dasharray: 1.85,0.8; stroke-dashoffset: 0; stroke: #b0b0b0; stroke-opacity: 0.5; stroke-width: 0.5"/>
     </g>
     <g id="line2d_8">
      <g>
       <use xlink:href="#ma77ff54c86" x="505.397534" y="390.04" style="stroke: #000000; stroke-width: 0.8"/>
      </g>
     </g>
     <g id="text_4">
      <!-- 2022 -->
      <g transform="translate(492.672534 404.638438) scale(0.1 -0.1)">
       <use xlink:href="#DejaVuSans-32"/>
       <use xlink:href="#DejaVuSans-30" x="63.623047"/>
       <use xlink:href="#DejaVuSans-32" x="127.246094"/>
       <use xlink:href="#DejaVuSans-32" x="190.869141"/>
      </g>
     </g>
    </g>
    <g id="xtick_5">
     <g id="line2d_9">
      <path d="M 642.694136 390.04 
L 642.694136 26.88 
" clip-path="url(#p9c57f65312)" style="fill: none; stroke-dasharray: 1.85,0.8; stroke-dashoffset: 0; stroke: #b0b0b0; stroke-opacity: 0.5; stroke-width: 0.5"/>
     </g>
     <g id="line2d_10">
      <g>
       <use xlink:href="#ma77ff54c86" x="642.694136" y="390.04" style="stroke: #000000; stroke-width: 0.8"/>
      </g>
     </g>
     <g id="text_5">
      <!-- 2023 -->
      <g transform="translate(629.969136 404.638438) scale(0.1 -0.1)">
       <defs>
        <path id="DejaVuSans-33" d="M 2597 2516 
Q 3050 2419 3304 2112 
Q 3559 1806 3559 1356 
Q 3559 666 3084 287 
Q 2609 -91 1734 -91 
Q 1441 -91 1130 -33 
Q 819 25 488 141 
L 488 750 
Q 750 597 1062 519 
Q 1375 441 1716 441 
Q 2309 441 2620 675 
Q 2931 909 2931 1356 
Q 2931 1769 2642 2001 
Q 2353 2234 1838 2234 
L 1294 2234 
L 1294 2753 
L 1863 2753 
Q 2328 2753 2575 2939 
Q 2822 3125 2822 3475 
Q 2822 3834 2567 4026 
Q 2313 4219 1838 4219 
Q 1578 4219 1281 4162 
Q 984 4106 628 3988 
L 628 4550 
Q 988 4650 1302 4700 
Q 1616 4750 1894 4750 
Q 2613 4750 3031 4423 
Q 3450 4097 3450 3541 
Q 3450 3153 3228 2886 
Q 3006 2619 2597 2516 
z
" transform="scale(0.015625)"/>
       </defs>
       <use xlink:href="#DejaVuSans-32"/>
       <use xlink:href="#DejaVuSans-30" x="63.623047"/>
       <use xlink:href="#DejaVuSans-32" x="127.246094"/>
       <use xlink:href="#DejaVuSans-33" x="190.869141"/>
      </g>
     </g>
    </g>
    <g id="xtick_6">
     <g id="line2d_11">
      <path d="M 779.990738 390.04 
L 779.990738 26.88 
" clip-path="url(#p9c57f65312)" style="fill: none; stroke-dasharray: 1.85,0.8; stroke-dashoffset: 0; stroke: #b0b0b0; stroke-opacity: 0.5; stroke-width: 0.5"/>
     </g>
     <g id="line2d_12">
      <g>
       <use xlink:href="#ma77ff54c86" x="779.990738" y="390.04" style="stroke: #000000; stroke-width: 0.8"/>
      </g>
     </g>
     <g id="text_6">
      <!-- 2024 -->
      <g transform="translate(767.265738 404.638438) scale(0.1 -0.1)">
       <defs>
        <path id="DejaVuSans-34" d="M 2419 4116 
L 825 1625 
L 2419 1625 
L 2419 4116 
z
M 2253 4666 
L 3047 4666 
L 3047 1625 
L 3713 1625 
L 3713 1100 
L 3047 1100 
L 3047 0 
L 2419 0 
L 2419 1100 
L 313 1100 
L 313 1709 
L 2253 4666 
z
" transform="scale(0.015625)"/>
       </defs>
       <use xlink:href="#DejaVuSans-32"/>
       <use xlink:href="#DejaVuSans-30" x="63.623047"/>
       <use xlink:href="#DejaVuSans-32" x="127.246094"/>
       <use xlink:href="#DejaVuSans-34" x="190.869141"/>
      </g>
     </g>
    </g>
    <g id="text_7">
     <!-- Date -->
     <g transform="translate(424.234219 418.316562) scale(0.1 -0.1)">
      <defs>
       <path id="DejaVuSans-44" d="M 1259 4147 
L 1259 519 
L 2022 519 
Q 2988 519 3436 956 
Q 3884 1394 3884 2338 
Q 3884 3275 3436 3711 
Q 2988 4147 2022 4147 
L 1259 4147 
z
M 628 4666 
L 1925 4666 
Q 3281 4666 3915 4102 
Q 4550 3538 4550 2338 
Q 4550 1131 3912 565 
Q 3275 0 1925 0 
L 628 0 
L 628 4666 
z
" transform="scale(0.015625)"/>
       <path id="DejaVuSans-61" d="M 2194 1759 
Q 1497 1759 1228 1600 
Q 959 1441 959 1056 
Q 959 750 1161 570 
Q 1363 391 1709 391 
Q 2188 391 2477 730 
Q 2766 1069 2766 1631 
L 2766 1759 
L 2194 1759 
z
M 3341 1997 
L 3341 0 
L 2766 0 
L 2766 531 
Q 2569 213 2275 61 
Q 1981 -91 1556 -91 
Q 1019 -91 701 211 
Q 384 513 384 1019 
Q 384 1609 779 1909 
Q 1175 2209 1959 2209 
L 2766 2209 
L 2766 2266 
Q 2766 2663 2505 2880 
Q 2244 3097 1772 3097 
Q 1472 3097 1187 3025 
Q 903 2953 641 2809 
L 641 3341 
Q 956 3463 1253 3523 
Q 1550 3584 1831 3584 
Q 2591 3584 2966 3190 
Q 3341 2797 3341 1997 
z
" transform="scale(0.015625)"/>
       <path id="DejaVuSans-74" d="M 1172 4494 
L 1172 3500 
L 2356 3500 
L 2356 3053 
L 1172 3053 
L 1172 1153 
Q 1172 725 1289 603 
Q 1406 481 1766 481 
L 2356 481 
L 2356 0 
L 1766 0 
Q 1100 0 847 248 
Q 594 497 594 1153 
L 594 3053 
L 172 3053 
L 172 3500 
L 594 3500 
L 594 4494 
L 1172 4494 
z
" transform="scale(0.015625)"/>
       <path id="DejaVuSans-65" d="M 3597 1894 
L 3597 1613 
L 953 1613 
Q 991 1019 1311 708 
Q 1631 397 2203 397 
Q 2534 397 2845 478 
Q 3156 559 3463 722 
L 3463 178 
Q 3153 47 2828 -22 
Q 2503 -91 2169 -91 
Q 1331 -91 842 396 
Q 353 884 353 1716 
Q 353 2575 817 3079 
Q 1281 3584 2069 3584 
Q 2775 3584 3186 3129 
Q 3597 2675 3597 1894 
z
M 3022 2063 
Q 3016 2534 2758 2815 
Q 2500 3097 2075 3097 
Q 1594 3097 1305 2825 
Q 1016 2553 972 2059 
L 3022 2063 
z
" transform="scale(0.015625)"/>
      </defs>
      <use xlink:href="#DejaVuSans-44"/>
      <use xlink:href="#DejaVuSans-61" x="77.001953"/>
      <use xlink:href="#DejaVuSans-74" x="138.28125"/>
      <use xlink:href="#DejaVuSans-65" x="177.490234"/>
     </g>
    </g>
   </g>
   <g id="matplotlib.axis_2">
    <g id="ytick_1">
     <g id="line2d_13">
      <path d="M 59.24 373.548724 
L 813.13 373.548724 
" clip-path="url(#p9c57f65312)" style="fill: none; stroke-dasharray: 1.85,0.8; stroke-dashoffset: 0; stroke: #b0b0b0; stroke-opacity: 0.5; stroke-width: 0.5"/>
     </g>
     <g id="line2d_14">
      <defs>
       <path id="m541fe30fa3" d="M 0 0 
L -3.5 0 
" style="stroke: #000000; stroke-width: 0.8"/>
      </defs>
      <g>
       <use xlink:href="#m541fe30fa3" x="59.24" y="373.548724" style="stroke: #000000; stroke-width: 0.8"/>
      </g>
     </g>
     <g id="text_8">
      <!-- −100 -->
      <g style="fill: #d62728" transform="translate(24.772813 377.347943) scale(0.1 -0.1)">
       <defs>
        <path id="DejaVuSans-2212" d="M 678 2272 
L 4684 2272 
L 4684 1741 
L 678 1741 
L 678 2272 
z
" transform="scale(0.015625)"/>
       </defs>
       <use xlink:href="#DejaVuSans-2212"/>
       <use xlink:href="#DejaVuSans-31" x="83.789062"/>
       <use xlink:href="#DejaVuSans-30" x="147.412109"/>
       <use xlink:href="#DejaVuSans-30" x="211.035156"/>
      </g>
     </g>
    </g>
    <g id="ytick_2">
     <g id="line2d_15">
      <path d="M 59.24 315.844915 
L 813.13 315.844915 
" clip-path="url(#p9c57f65312)" style="fill: none; stroke-dasharray: 1.85,0.8; stroke-dashoffset: 0; stroke: #b0b0b0; stroke-opacity: 0.5; stroke-width: 0.5"/>
     </g>
     <g id="line2d_16">
      <g>
       <use xlink:href="#m541fe30fa3" x="59.24" y="315.844915" style="stroke: #000000; stroke-width: 0.8"/>
      </g>
     </g>
     <g id="text_9">
      <!-- −80 -->
      <g style="fill: #d62728" transform="translate(31.135313 319.644133) scale(0.1 -0.1)">
       <defs>
        <path id="DejaVuSans-38" d="M 2034 2216 
Q 1584 2216 1326 1975 
Q 1069 1734 1069 1313 
Q 1069 891 1326 650 
Q 1584 409 2034 409 
Q 2484 409 2743 651 
Q 3003 894 3003 1313 
Q 3003 1734 2745 1975 
Q 2488 2216 2034 2216 
z
M 1403 2484 
Q 997 2584 770 2862 
Q 544 3141 544 3541 
Q 544 4100 942 4425 
Q 1341 4750 2034 4750 
Q 2731 4750 3128 4425 
Q 3525 4100 3525 3541 
Q 3525 3141 3298 2862 
Q 3072 2584 2669 2484 
Q 3125 2378 3379 2068 
Q 3634 1759 3634 1313 
Q 3634 634 3220 271 
Q 2806 -91 2034 -91 
Q 1263 -91 848 271 
Q 434 634 434 1313 
Q 434 1759 690 2068 
Q 947 2378 1403 2484 
z
M 1172 3481 
Q 1172 3119 1398 2916 
Q 1625 2713 2034 2713 
Q 2441 2713 2670 2916 
Q 2900 3119 2900 3481 
Q 2900 3844 2670 4047 
Q 2441 4250 2034 4250 
Q 1625 4250 1398 4047 
Q 1172 3844 1172 3481 
z
" transform="scale(0.015625)"/>
       </defs>
       <use xlink:href="#DejaVuSans-2212"/>
       <use xlink:href="#DejaVuSans-38" x="83.789062"/>
       <use xlink:href="#DejaVuSans-30" x="147.412109"/>
      </g>
     </g>
    </g>
    <g id="ytick_3">
     <g id="line2d_17">
      <path d="M 59.24 258.141105 
L 813.13 258.141105 
" clip-path="url(#p9c57f65312)" style="fill: none; stroke-dasharray: 1.85,0.8; stroke-dashoffset: 0; stroke: #b0b0b0; stroke-opacity: 0.5; stroke-width: 0.5"/>
     </g>
     <g id="line2d_18">
      <g>
       <use xlink:href="#m541fe30fa3" x="59.24" y="258.141105" style="stroke: #000000; stroke-width: 0.8"/>
      </g>
     </g>
     <g id="text_10">
      <!-- −60 -->
      <g style="fill: #d62728" transform="translate(31.135313 261.940324) scale(0.1 -0.1)">
       <defs>
        <path id="DejaVuSans-36" d="M 2113 2584 
Q 1688 2584 1439 2293 
Q 1191 2003 1191 1497 
Q 1191 994 1439 701 
Q 1688 409 2113 409 
Q 2538 409 2786 701 
Q 3034 994 3034 1497 
Q 3034 2003 2786 2293 
Q 2538 2584 2113 2584 
z
M 3366 4563 
L 3366 3988 
Q 3128 4100 2886 4159 
Q 2644 4219 2406 4219 
Q 1781 4219 1451 3797 
Q 1122 3375 1075 2522 
Q 1259 2794 1537 2939 
Q 1816 3084 2150 3084 
Q 2853 3084 3261 2657 
Q 3669 2231 3669 1497 
Q 3669 778 3244 343 
Q 2819 -91 2113 -91 
Q 1303 -91 875 529 
Q 447 1150 447 2328 
Q 447 3434 972 4092 
Q 1497 4750 2381 4750 
Q 2619 4750 2861 4703 
Q 3103 4656 3366 4563 
z
" transform="scale(0.015625)"/>
       </defs>
       <use xlink:href="#DejaVuSans-2212"/>
       <use xlink:href="#DejaVuSans-36" x="83.789062"/>
       <use xlink:href="#DejaVuSans-30" x="147.412109"/>
      </g>
     </g>
    </g>
    <g id="ytick_4">
     <g id="line2d_19">
      <path d="M 59.24 200.437296 
L 813.13 200.437296 
" clip-path="url(#p9c57f65312)" style="fill: none; stroke-dasharray: 1.85,0.8; stroke-dashoffset: 0; stroke: #b0b0b0; stroke-opacity: 0.5; stroke-width: 0.5"/>
     </g>
     <g id="line2d_20">
      <g>
       <use xlink:href="#m541fe30fa3" x="59.24" y="200.437296" style="stroke: #000000; stroke-width: 0.8"/>
      </g>
     </g>
     <g id="text_11">
      <!-- −40 -->
      <g style="fill: #d62728" transform="translate(31.135313 204.236515) scale(0.1 -0.1)">
       <use xlink:href="#DejaVuSans-2212"/>
       <use xlink:href="#DejaVuSans-34" x="83.789062"/>
       <use xlink:href="#DejaVuSans-30" x="147.412109"/>
      </g>
     </g>
    </g>
    <g id="ytick_5">
     <g id="line2d_21">
      <path d="M 59.24 142.733486 
L 813.13 142.733486 
" clip-path="url(#p9c57f65312)" style="fill: none; stroke-dasharray: 1.85,0.8; stroke-dashoffset: 0; stroke: #b0b0b0; stroke-opacity: 0.5; stroke-width: 0.5"/>
     </g>
     <g id="line2d_22">
      <g>
       <use xlink:href="#m541fe30fa3" x="59.24" y="142.733486" style="stroke: #000000; stroke-width: 0.8"/>
      </g>
     </g>
     <g id="text_12">
      <!-- −20 -->
      <g style="fill: #d62728" transform="translate(31.135313 146.532705) scale(0.1 -0.1)">
       <use xlink:href="#DejaVuSans-2212"/>
       <use xlink:href="#DejaVuSans-32" x="83.789062"/>
       <use xlink:href="#DejaVuSans-30" x="147.412109"/>
      </g>
     </g>
    </g>
    <g id="ytick_6">
     <g id="line2d_23">
      <path d="M 59.24 85.029677 
L 813.13 85.029677 
" clip-path="url(#p9c57f65312)" style="fill: none; stroke-dasharray: 1.85,0.8; stroke-dashoffset: 0; stroke: #b0b0b0; stroke-opacity: 0.5; stroke-width: 0.5"/>
     </g>
     <g id="line2d_24">
      <g>
       <use xlink:href="#m541fe30fa3" x="59.24" y="85.029677" style="stroke: #000000; stroke-width: 0.8"/>
      </g>
     </g>
     <g id="text_13">
      <!-- 0 -->
      <g style="fill: #d62728" transform="translate(45.8775 88.828896) scale(0.1 -0.1)">
       <use xlink:href="#DejaVuSans-30"/>
      </g>
     </g>
    </g>
    <g id="ytick_7">
     <g id="line2d_25">
      <path d="M 59.24 27.325867 
L 813.13 27.325867 
" clip-path="url(#p9c57f65312)" style="fill: none; stroke-dasharray: 1.85,0.8; stroke-dashoffset: 0; stroke: #b0b0b0; stroke-opacity: 0.5; stroke-width: 0.5"/>
     </g>
     <g id="line2d_26">
      <g>
       <use xlink:href="#m541fe30fa3" x="59.24" y="27.325867" style="stroke: #000000; stroke-width: 0.8"/>
      </g>
     </g>
     <g id="text_14">
      <!-- 20 -->
      <g style="fill: #d62728" transform="translate(39.515 31.125086) scale(0.1 -0.1)">
       <use xlink:href="#DejaVuSans-32"/>
       <use xlink:href="#DejaVuSans-30" x="63.623047"/>
      </g>
     </g>
    </g>
    <g id="text_15">
     <!-- Returns (%) -->
     <g style="fill: #d62728" transform="translate(18.693125 237.8975) rotate(-90) scale(0.1 -0.1)">
      <defs>
       <path id="DejaVuSans-52" d="M 2841 2188 
Q 3044 2119 3236 1894 
Q 3428 1669 3622 1275 
L 4263 0 
L 3584 0 
L 2988 1197 
Q 2756 1666 2539 1819 
Q 2322 1972 1947 1972 
L 1259 1972 
L 1259 0 
L 628 0 
L 628 4666 
L 2053 4666 
Q 2853 4666 3247 4331 
Q 3641 3997 3641 3322 
Q 3641 2881 3436 2590 
Q 3231 2300 2841 2188 
z
M 1259 4147 
L 1259 2491 
L 2053 2491 
Q 2509 2491 2742 2702 
Q 2975 2913 2975 3322 
Q 2975 3731 2742 3939 
Q 2509 4147 2053 4147 
L 1259 4147 
z
" transform="scale(0.015625)"/>
       <path id="DejaVuSans-75" d="M 544 1381 
L 544 3500 
L 1119 3500 
L 1119 1403 
Q 1119 906 1312 657 
Q 1506 409 1894 409 
Q 2359 409 2629 706 
Q 2900 1003 2900 1516 
L 2900 3500 
L 3475 3500 
L 3475 0 
L 2900 0 
L 2900 538 
Q 2691 219 2414 64 
Q 2138 -91 1772 -91 
Q 1169 -91 856 284 
Q 544 659 544 1381 
z
M 1991 3584 
L 1991 3584 
z
" transform="scale(0.015625)"/>
       <path id="DejaVuSans-72" d="M 2631 2963 
Q 2534 3019 2420 3045 
Q 2306 3072 2169 3072 
Q 1681 3072 1420 2755 
Q 1159 2438 1159 1844 
L 1159 0 
L 581 0 
L 581 3500 
L 1159 3500 
L 1159 2956 
Q 1341 3275 1631 3429 
Q 1922 3584 2338 3584 
Q 2397 3584 2469 3576 
Q 2541 3569 2628 3553 
L 2631 2963 
z
" transform="scale(0.015625)"/>
       <path id="DejaVuSans-6e" d="M 3513 2113 
L 3513 0 
L 2938 0 
L 2938 2094 
Q 2938 2591 2744 2837 
Q 2550 3084 2163 3084 
Q 1697 3084 1428 2787 
Q 1159 2491 1159 1978 
L 1159 0 
L 581 0 
L 581 3500 
L 1159 3500 
L 1159 2956 
Q 1366 3272 1645 3428 
Q 1925 3584 2291 3584 
Q 2894 3584 3203 3211 
Q 3513 2838 3513 2113 
z
" transform="scale(0.015625)"/>
       <path id="DejaVuSans-73" d="M 2834 3397 
L 2834 2853 
Q 2591 2978 2328 3040 
Q 2066 3103 1784 3103 
Q 1356 3103 1142 2972 
Q 928 2841 928 2578 
Q 928 2378 1081 2264 
Q 1234 2150 1697 2047 
L 1894 2003 
Q 2506 1872 2764 1633 
Q 3022 1394 3022 966 
Q 3022 478 2636 193 
Q 2250 -91 1575 -91 
Q 1294 -91 989 -36 
Q 684 19 347 128 
L 347 722 
Q 666 556 975 473 
Q 1284 391 1588 391 
Q 1994 391 2212 530 
Q 2431 669 2431 922 
Q 2431 1156 2273 1281 
Q 2116 1406 1581 1522 
L 1381 1569 
Q 847 1681 609 1914 
Q 372 2147 372 2553 
Q 372 3047 722 3315 
Q 1072 3584 1716 3584 
Q 2034 3584 2315 3537 
Q 2597 3491 2834 3397 
z
" transform="scale(0.015625)"/>
       <path id="DejaVuSans-20" transform="scale(0.015625)"/>
       <path id="DejaVuSans-28" d="M 1984 4856 
Q 1566 4138 1362 3434 
Q 1159 2731 1159 2009 
Q 1159 1288 1364 580 
Q 1569 -128 1984 -844 
L 1484 -844 
Q 1016 -109 783 600 
Q 550 1309 550 2009 
Q 550 2706 781 3412 
Q 1013 4119 1484 4856 
L 1984 4856 
z
" transform="scale(0.015625)"/>
       <path id="DejaVuSans-25" d="M 4653 2053 
Q 4381 2053 4226 1822 
Q 4072 1591 4072 1178 
Q 4072 772 4226 539 
Q 4381 306 4653 306 
Q 4919 306 5073 539 
Q 5228 772 5228 1178 
Q 5228 1588 5073 1820 
Q 4919 2053 4653 2053 
z
M 4653 2450 
Q 5147 2450 5437 2106 
Q 5728 1763 5728 1178 
Q 5728 594 5436 251 
Q 5144 -91 4653 -91 
Q 4153 -91 3862 251 
Q 3572 594 3572 1178 
Q 3572 1766 3864 2108 
Q 4156 2450 4653 2450 
z
M 1428 4353 
Q 1159 4353 1004 4120 
Q 850 3888 850 3481 
Q 850 3069 1003 2837 
Q 1156 2606 1428 2606 
Q 1700 2606 1854 2837 
Q 2009 3069 2009 3481 
Q 2009 3884 1853 4118 
Q 1697 4353 1428 4353 
z
M 4250 4750 
L 4750 4750 
L 1831 -91 
L 1331 -91 
L 4250 4750 
z
M 1428 4750 
Q 1922 4750 2215 4408 
Q 2509 4066 2509 3481 
Q 2509 2891 2217 2550 
Q 1925 2209 1428 2209 
Q 931 2209 642 2551 
Q 353 2894 353 3481 
Q 353 4063 643 4406 
Q 934 4750 1428 4750 
z
" transform="scale(0.015625)"/>
       <path id="DejaVuSans-29" d="M 513 4856 
L 1013 4856 
Q 1481 4119 1714 3412 
Q 1947 2706 1947 2009 
Q 1947 1309 1714 600 
Q 1481 -109 1013 -844 
L 513 -844 
Q 928 -128 1133 580 
Q 1338 1288 1338 2009 
Q 1338 2731 1133 3434 
Q 928 4138 513 4856 
z
" transform="scale(0.015625)"/>
      </defs>
      <use xlink:href="#DejaVuSans-52"/>
      <use xlink:href="#DejaVuSans-65" x="64.982422"/>
      <use xlink:href="#DejaVuSans-74" x="126.505859"/>
      <use xlink:href="#DejaVuSans-75" x="165.714844"/>
      <use xlink:href="#DejaVuSans-72" x="229.09375"/>
      <use xlink:href="#DejaVuSans-6e" x="268.457031"/>
      <use xlink:href="#DejaVuSans-73" x="331.835938"/>
      <use xlink:href="#DejaVuSans-20" x="383.935547"/>
      <use xlink:href="#DejaVuSans-28" x="415.722656"/>
      <use xlink:href="#DejaVuSans-25" x="454.736328"/>
      <use xlink:href="#DejaVuSans-29" x="549.755859"/>
     </g>
    </g>
   </g>
   <g id="line2d_27">
    <path d="M 93.507727 85.029677 
L 93.883882 85.029677 
L 94.260037 69.512027 
L 103.287759 69.512027 
L 103.663914 72.199794 
L 104.416224 56.360152 
L 104.79238 57.956902 
L 105.920845 51.692075 
L 106.297 47.944544 
L 106.673155 56.684048 
L 107.04931 61.377696 
L 107.425465 62.414731 
L 108.55393 62.428937 
L 108.930085 54.939557 
L 109.30624 55.283341 
L 109.682395 54.854321 
L 110.058551 57.132956 
L 111.563171 55.737931 
L 111.939326 57.090338 
L 112.315481 61.872063 
L 112.691636 58.064867 
L 113.820101 58.340463 
L 114.196256 56.71246 
L 114.572411 56.45107 
L 114.948567 55.351529 
L 115.324722 49.365139 
L 116.453187 47.430288 
L 116.829342 43.387273 
L 117.205497 44.57205 
L 137.894026 44.57205 
L 138.270181 50.218581 
L 138.646336 51.732626 
L 139.022491 45.424565 
L 140.150956 44.32017 
L 140.527112 48.5523 
L 140.903267 50.719572 
L 141.279422 51.796288 
L 141.655577 51.273154 
L 142.784042 373.532318 
L 390.294081 373.531358 
L 778.862273 373.531358 
L 778.862273 373.531358 
" clip-path="url(#p9c57f65312)" style="fill: none; stroke: #d62728; stroke-width: 1.5; stroke-linecap: square"/>
   </g>
   <g id="patch_3">
    <path d="M 59.24 390.04 
L 59.24 26.88 
" style="fill: none; stroke: #000000; stroke-width: 0.8; stroke-linejoin: miter; stroke-linecap: square"/>
   </g>
   <g id="patch_4">
    <path d="M 813.13 390.04 
L 813.13 26.88 
" style="fill: none; stroke: #000000; stroke-width: 0.8; stroke-linejoin: miter; stroke-linecap: square"/>
   </g>
   <g id="patch_5">
    <path d="M 59.24 390.04 
L 813.13 390.04 
" style="fill: none; stroke: #000000; stroke-width: 0.8; stroke-linejoin: miter; stroke-linecap: square"/>
   </g>
   <g id="patch_6">
    <path d="M 59.24 26.88 
L 813.13 26.88 
" style="fill: none; stroke: #000000; stroke-width: 0.8; stroke-linejoin: miter; stroke-linecap: square"/>
   </g>
  </g>
  <g id="axes_2">
   <g id="matplotlib.axis_3">
    <g id="ytick_8">
     <g id="line2d_28">
      <defs>
       <path id="m4ab646280c" d="M 0 0 
L 3.5 0 
" style="stroke: #000000; stroke-width: 0.8"/>
      </defs>
      <g>
       <use xlink:href="#m4ab646280c" x="813.13" y="343.140681" style="stroke: #000000; stroke-width: 0.8"/>
      </g>
     </g>
     <g id="text_16">
      <!-- 60 -->
      <g style="fill: #1f77b4" transform="translate(820.13 346.9399) scale(0.1 -0.1)">
       <use xlink:href="#DejaVuSans-36"/>
       <use xlink:href="#DejaVuSans-30" x="63.623047"/>
      </g>
     </g>
    </g>
    <g id="ytick_9">
     <g id="line2d_29">
      <g>
       <use xlink:href="#m4ab646280c" x="813.13" y="277.049465" style="stroke: #000000; stroke-width: 0.8"/>
      </g>
     </g>
     <g id="text_17">
      <!-- 80 -->
      <g style="fill: #1f77b4" transform="translate(820.13 280.848683) scale(0.1 -0.1)">
       <use xlink:href="#DejaVuSans-38"/>
       <use xlink:href="#DejaVuSans-30" x="63.623047"/>
      </g>
     </g>
    </g>
    <g id="ytick_10">
     <g id="line2d_30">
      <g>
       <use xlink:href="#m4ab646280c" x="813.13" y="210.958248" style="stroke: #000000; stroke-width: 0.8"/>
      </g>
     </g>
     <g id="text_18">
      <!-- 100 -->
      <g style="fill: #1f77b4" transform="translate(820.13 214.757467) scale(0.1 -0.1)">
       <use xlink:href="#DejaVuSans-31"/>
       <use xlink:href="#DejaVuSans-30" x="63.623047"/>
       <use xlink:href="#DejaVuSans-30" x="127.246094"/>
      </g>
     </g>
    </g>
    <g id="ytick_11">
     <g id="line2d_31">
      <g>
       <use xlink:href="#m4ab646280c" x="813.13" y="144.867031" style="stroke: #000000; stroke-width: 0.8"/>
      </g>
     </g>
     <g id="text_19">
      <!-- 120 -->
      <g style="fill: #1f77b4" transform="translate(820.13 148.66625) scale(0.1 -0.1)">
       <use xlink:href="#DejaVuSans-31"/>
       <use xlink:href="#DejaVuSans-32" x="63.623047"/>
       <use xlink:href="#DejaVuSans-30" x="127.246094"/>
      </g>
     </g>
    </g>
    <g id="ytick_12">
     <g id="line2d_32">
      <g>
       <use xlink:href="#m4ab646280c" x="813.13" y="78.775815" style="stroke: #000000; stroke-width: 0.8"/>
      </g>
     </g>
     <g id="text_20">
      <!-- 140 -->
      <g style="fill: #1f77b4" transform="translate(820.13 82.575033) scale(0.1 -0.1)">
       <use xlink:href="#DejaVuSans-31"/>
       <use xlink:href="#DejaVuSans-34" x="63.623047"/>
       <use xlink:href="#DejaVuSans-30" x="127.246094"/>
      </g>
     </g>
    </g>
    <g id="text_21">
     <!-- Close Price -->
     <g style="fill: #1f77b4" transform="translate(850.815938 235.867812) rotate(-90) scale(0.1 -0.1)">
      <defs>
       <path id="DejaVuSans-43" d="M 4122 4306 
L 4122 3641 
Q 3803 3938 3442 4084 
Q 3081 4231 2675 4231 
Q 1875 4231 1450 3742 
Q 1025 3253 1025 2328 
Q 1025 1406 1450 917 
Q 1875 428 2675 428 
Q 3081 428 3442 575 
Q 3803 722 4122 1019 
L 4122 359 
Q 3791 134 3420 21 
Q 3050 -91 2638 -91 
Q 1578 -91 968 557 
Q 359 1206 359 2328 
Q 359 3453 968 4101 
Q 1578 4750 2638 4750 
Q 3056 4750 3426 4639 
Q 3797 4528 4122 4306 
z
" transform="scale(0.015625)"/>
       <path id="DejaVuSans-6c" d="M 603 4863 
L 1178 4863 
L 1178 0 
L 603 0 
L 603 4863 
z
" transform="scale(0.015625)"/>
       <path id="DejaVuSans-6f" d="M 1959 3097 
Q 1497 3097 1228 2736 
Q 959 2375 959 1747 
Q 959 1119 1226 758 
Q 1494 397 1959 397 
Q 2419 397 2687 759 
Q 2956 1122 2956 1747 
Q 2956 2369 2687 2733 
Q 2419 3097 1959 3097 
z
M 1959 3584 
Q 2709 3584 3137 3096 
Q 3566 2609 3566 1747 
Q 3566 888 3137 398 
Q 2709 -91 1959 -91 
Q 1206 -91 779 398 
Q 353 888 353 1747 
Q 353 2609 779 3096 
Q 1206 3584 1959 3584 
z
" transform="scale(0.015625)"/>
       <path id="DejaVuSans-50" d="M 1259 4147 
L 1259 2394 
L 2053 2394 
Q 2494 2394 2734 2622 
Q 2975 2850 2975 3272 
Q 2975 3691 2734 3919 
Q 2494 4147 2053 4147 
L 1259 4147 
z
M 628 4666 
L 2053 4666 
Q 2838 4666 3239 4311 
Q 3641 3956 3641 3272 
Q 3641 2581 3239 2228 
Q 2838 1875 2053 1875 
L 1259 1875 
L 1259 0 
L 628 0 
L 628 4666 
z
" transform="scale(0.015625)"/>
       <path id="DejaVuSans-69" d="M 603 3500 
L 1178 3500 
L 1178 0 
L 603 0 
L 603 3500 
z
M 603 4863 
L 1178 4863 
L 1178 4134 
L 603 4134 
L 603 4863 
z
" transform="scale(0.015625)"/>
       <path id="DejaVuSans-63" d="M 3122 3366 
L 3122 2828 
Q 2878 2963 2633 3030 
Q 2388 3097 2138 3097 
Q 1578 3097 1268 2742 
Q 959 2388 959 1747 
Q 959 1106 1268 751 
Q 1578 397 2138 397 
Q 2388 397 2633 464 
Q 2878 531 3122 666 
L 3122 134 
Q 2881 22 2623 -34 
Q 2366 -91 2075 -91 
Q 1284 -91 818 406 
Q 353 903 353 1747 
Q 353 2603 823 3093 
Q 1294 3584 2113 3584 
Q 2378 3584 2631 3529 
Q 2884 3475 3122 3366 
z
" transform="scale(0.015625)"/>
      </defs>
      <use xlink:href="#DejaVuSans-43"/>
      <use xlink:href="#DejaVuSans-6c" x="69.824219"/>
      <use xlink:href="#DejaVuSans-6f" x="97.607422"/>
      <use xlink:href="#DejaVuSans-73" x="158.789062"/>
      <use xlink:href="#DejaVuSans-65" x="210.888672"/>
      <use xlink:href="#DejaVuSans-20" x="272.412109"/>
      <use xlink:href="#DejaVuSans-50" x="304.199219"/>
      <use xlink:href="#DejaVuSans-72" x="362.751953"/>
      <use xlink:href="#DejaVuSans-69" x="403.865234"/>
      <use xlink:href="#DejaVuSans-63" x="431.648438"/>
      <use xlink:href="#DejaVuSans-65" x="486.628906"/>
     </g>
    </g>
   </g>
   <g id="line2d_33">
    <path d="M 93.507727 368.610584 
L 93.883882 373.532727 
L 94.260037 364.503015 
L 95.388503 364.886344 
L 95.764658 363.582695 
L 96.140813 363.850364 
L 96.516968 364.565801 
L 96.893123 366.736898 
L 98.021588 368.802248 
L 98.397743 363.438946 
L 98.773898 362.807775 
L 99.526208 359.950982 
L 101.030829 364.534408 
L 101.406984 363.700007 
L 101.783139 363.975937 
L 102.159294 361.15219 
L 103.287759 364.607108 
L 103.663914 366.170166 
L 104.416224 356.958702 
L 104.79238 357.887284 
L 105.920845 354.244006 
L 106.297 352.064648 
L 106.673155 357.147062 
L 107.04931 359.87663 
L 107.425465 360.479712 
L 108.55393 360.487973 
L 108.930085 356.132562 
L 109.30624 356.332488 
L 109.682395 356.082994 
L 110.058551 357.408123 
L 111.563171 356.596853 
L 111.939326 357.383338 
L 112.315481 360.164126 
L 112.691636 357.950071 
L 113.820101 358.110342 
L 114.196256 357.163585 
L 114.572411 357.011575 
L 114.948567 356.372143 
L 115.324722 352.890788 
L 116.453187 351.765585 
L 116.829342 349.41439 
L 117.205497 350.103391 
L 117.581652 352.509111 
L 117.957807 352.671035 
L 119.086272 347.145809 
L 119.462427 344.264232 
L 119.838582 344.244405 
L 120.214738 345.528226 
L 120.590893 345.708325 
L 121.719358 345.741371 
L 122.095513 343.330694 
L 122.471668 339.180165 
L 122.847823 337.929389 
L 123.223978 342.231927 
L 124.352443 344.297278 
L 124.728598 345.681889 
L 125.104754 347.598534 
L 125.480909 348.347017 
L 125.857064 347.550618 
L 127.361684 343.05972 
L 127.737839 342.162531 
L 128.113994 340.662261 
L 128.490149 341.959301 
L 129.618614 342.506206 
L 129.994769 343.595058 
L 130.370925 342.783789 
L 130.74708 342.377328 
L 131.123235 340.188056 
L 132.2517 339.65437 
L 132.627855 338.658045 
L 133.00401 337.136294 
L 133.380165 337.131337 
L 134.884785 335.070944 
L 135.260941 332.475211 
L 135.637096 333.887911 
L 136.389406 331.214521 
L 137.517871 328.670009 
L 137.894026 345.044108 
L 138.270181 348.41476 
L 138.646336 349.318558 
L 139.022491 345.553011 
L 140.150956 344.893751 
L 140.527112 347.420088 
L 140.903267 348.713823 
L 141.279422 349.35656 
L 141.655577 349.044279 
L 143.160197 356.286224 
L 143.536352 349.054193 
L 143.912507 346.613775 
L 144.288662 349.369778 
L 145.417128 353.244376 
L 145.793283 351.463218 
L 146.169438 351.16746 
L 146.545593 352.927138 
L 146.921748 354.133303 
L 148.426368 354.020948 
L 148.802523 356.943832 
L 149.178678 356.697642 
L 149.554833 359.063708 
L 150.683299 370.200078 
L 151.059454 367.420942 
L 151.435609 369.210362 
L 151.811764 368.860078 
L 152.187919 365.27463 
L 153.316384 362.90526 
L 154.068694 363.458774 
L 154.444849 361.518996 
L 154.821004 362.084076 
L 155.94947 360.902696 
L 156.325625 359.068665 
L 156.70178 359.278504 
L 157.45409 356.048296 
L 158.582555 357.099146 
L 158.95871 361.918848 
L 159.334865 363.001092 
L 159.71102 363.627306 
L 160.087175 362.817689 
L 161.215641 360.002203 
L 161.967951 356.097864 
L 162.720261 354.443932 
L 163.848726 356.962007 
L 164.224881 355.560873 
L 164.601036 352.975054 
L 164.977191 352.358754 
L 165.353346 352.244746 
L 166.481812 351.345906 
L 166.857967 350.810567 
L 167.234122 352.005166 
L 167.610277 352.00847 
L 167.986432 354.690121 
L 169.114897 353.373254 
L 169.491052 352.028298 
L 169.867207 353.416213 
L 170.243362 354.356361 
L 170.619518 334.811536 
L 171.747983 336.629044 
L 172.124138 338.986848 
L 172.876448 341.651977 
L 174.381068 351.018754 
L 174.757223 348.105784 
L 175.133378 347.438263 
L 175.509533 342.347587 
L 175.885689 345.121766 
L 177.014154 347.319298 
L 177.390309 343.591754 
L 177.766464 349.040975 
L 178.142619 348.550247 
L 178.518774 346.841789 
L 179.647239 343.396785 
L 180.023394 346.000779 
L 180.399549 344.586427 
L 180.775705 344.870619 
L 181.15186 351.188939 
L 182.280325 348.280926 
L 182.65648 348.454415 
L 183.032635 347.92899 
L 183.40879 344.322062 
L 185.289565 348.36354 
L 185.66572 346.212271 
L 186.041876 341.260386 
L 186.418031 342.326107 
L 187.546496 342.412026 
L 187.922651 342.149313 
L 188.674961 337.481621 
L 189.051116 336.60426 
L 190.555736 338.324284 
L 190.931892 337.78564 
L 191.308047 336.744704 
L 191.684202 338.195406 
L 192.812667 337.517971 
L 193.188822 340.041003 
L 193.564977 335.454273 
L 193.941132 336.301893 
L 194.317287 338.99511 
L 195.445752 340.001349 
L 195.821907 342.298018 
L 196.198063 347.002061 
L 196.574218 345.151507 
L 196.950373 341.653629 
L 198.078838 341.87173 
L 198.454993 344.93671 
L 198.831148 342.759005 
L 199.583458 340.587908 
L 200.711923 340.308673 
L 201.088079 336.034223 
L 201.464234 335.93013 
L 201.840389 334.372029 
L 202.216544 335.624458 
L 203.345009 335.515407 
L 203.721164 336.068921 
L 204.097319 333.370747 
L 204.473474 333.063423 
L 204.849629 332.379379 
L 205.978095 328.270158 
L 206.35425 332.794101 
L 207.10656 333.208824 
L 207.482715 330.956766 
L 208.61118 328.043795 
L 208.987335 327.934745 
L 209.36349 327.972747 
L 209.739645 325.153957 
L 210.1158 324.739234 
L 211.244266 326.751712 
L 211.996576 326.948333 
L 212.372731 324.724364 
L 212.748886 320.856375 
L 214.253506 324.063452 
L 214.629661 326.113932 
L 215.005816 326.394819 
L 215.381971 327.38784 
L 216.510437 325.512502 
L 216.886592 324.379037 
L 217.262747 324.471565 
L 218.015057 325.798346 
L 219.143522 328.283376 
L 219.519677 327.397753 
L 219.895832 323.224093 
L 220.271987 321.970012 
L 220.648142 319.906314 
L 222.528918 319.179311 
L 222.905073 318.311863 
L 223.281228 318.71502 
L 224.409693 316.510878 
L 224.785848 317.510507 
L 225.162003 317.923578 
L 225.538158 317.358498 
L 225.914313 318.424219 
L 227.042779 318.54814 
L 227.418934 319.420544 
L 228.171244 316.638103 
L 228.547399 318.044194 
L 229.675864 320.646536 
L 230.052019 320.501135 
L 230.804329 315.486464 
L 231.180484 316.595144 
L 232.30895 311.051743 
L 232.685105 311.195492 
L 233.06126 309.381288 
L 233.437415 306.818601 
L 233.81357 305.182843 
L 234.942035 303.613177 
L 235.31819 304.992831 
L 235.694345 303.618134 
L 236.0705 301.552783 
L 236.446656 296.812391 
L 238.703586 295.778063 
L 239.079741 299.07271 
L 240.208206 304.493842 
L 240.584361 301.410687 
L 240.960516 300.407753 
L 241.336671 300.868739 
L 241.712827 304.439317 
L 242.841292 295.895375 
L 243.217447 302.317789 
L 243.593602 302.126125 
L 243.969757 297.499739 
L 244.345912 297.004055 
L 245.474377 292.138089 
L 245.850532 292.119914 
L 246.226687 290.553552 
L 246.602843 291.150026 
L 246.978998 290.145439 
L 248.483618 290.322233 
L 248.859773 289.162332 
L 249.235928 290.57338 
L 249.612083 296.032514 
L 250.740548 306.5278 
L 251.116703 312.003457 
L 251.492858 311.221928 
L 251.869014 323.628902 
L 252.245169 320.119458 
L 253.373634 311.894406 
L 253.749789 319.779088 
L 254.125944 312.322347 
L 254.502099 323.471935 
L 254.878254 326.88059 
L 256.006719 340.569733 
L 256.382874 329.857999 
L 256.75903 340.594517 
L 257.135185 357.199935 
L 257.51134 339.880732 
L 258.639805 362.252609 
L 259.01596 356.39197 
L 259.392115 360.192215 
L 259.76827 357.137149 
L 260.144425 364.236998 
L 261.27289 366.831078 
L 261.649046 353.969727 
L 262.025201 359.252068 
L 262.401356 349.460654 
L 262.777511 357.893893 
L 263.905976 351.927509 
L 264.282131 349.285512 
L 264.658286 358.734904 
L 265.034441 356.220133 
L 265.410596 360.013769 
L 266.539061 345.301864 
L 266.915217 345.369608 
L 267.291372 341.442137 
L 267.667527 341.24882 
L 269.172147 340.239277 
L 269.548302 331.701944 
L 269.924457 332.818886 
L 270.300612 332.653657 
L 270.676767 329.385447 
L 271.805233 332.134841 
L 272.181388 340.440855 
L 272.557543 332.696617 
L 272.933698 330.532129 
L 273.309853 330.036445 
L 274.438318 330.603177 
L 274.814473 337.577453 
L 275.190628 319.764218 
L 275.566783 318.577881 
L 275.942938 323.212527 
L 277.071404 322.189766 
L 277.447559 318.173072 
L 277.823714 318.802591 
L 278.199869 314.62893 
L 278.576024 312.016675 
L 279.704489 309.55643 
L 280.456799 318.467178 
L 280.832954 317.343627 
L 281.209109 314.524837 
L 282.337575 312.748635 
L 282.71373 314.47626 
L 283.089885 308.984741 
L 283.46604 309.632434 
L 283.842195 308.373397 
L 285.72297 307.147405 
L 286.099125 307.330808 
L 286.47528 305.316678 
L 287.603746 304.837517 
L 287.979901 303.614829 
L 288.356056 304.084077 
L 288.732211 308.082595 
L 289.108366 303.751968 
L 290.236831 302.393794 
L 290.989141 299.214806 
L 291.365296 309.460597 
L 291.741451 307.917367 
L 292.869917 306.815296 
L 293.246072 303.036531 
L 293.622227 301.648615 
L 293.998382 304.153473 
L 294.374537 304.854039 
L 295.503002 301.526347 
L 295.879157 299.452735 
L 296.255312 304.812732 
L 296.631467 303.266198 
L 297.007622 316.720717 
L 298.136088 310.92617 
L 298.512243 307.846319 
L 299.264553 299.404819 
L 300.769173 294.282749 
L 301.145328 296.020948 
L 301.521483 294.233181 
L 301.897638 291.756413 
L 302.273794 286.67565 
L 303.402259 291.698583 
L 303.778414 290.171876 
L 304.154569 291.318558 
L 304.530724 290.598164 
L 304.906879 291.002973 
L 306.035344 282.713482 
L 306.411499 283.919647 
L 306.787654 282.2558 
L 307.16381 290.981493 
L 307.539965 291.611012 
L 308.66843 288.582382 
L 309.044585 293.516091 
L 309.42074 289.933947 
L 309.796895 288.375847 
L 310.17305 296.387755 
L 311.301515 297.793845 
L 311.67767 299.360207 
L 312.053825 297.932637 
L 312.429981 293.555746 
L 312.806136 294.482675 
L 313.934601 294.216658 
L 314.310756 296.823957 
L 314.686911 292.478459 
L 315.063066 290.523811 
L 315.439221 292.295056 
L 316.567686 290.601469 
L 316.943841 283.889906 
L 317.319997 285.71898 
L 317.696152 280.064876 
L 318.072307 280.28463 
L 319.200772 278.999156 
L 319.576927 275.69129 
L 319.953082 268.39482 
L 320.329237 271.377186 
L 320.705392 269.711687 
L 321.833857 271.40197 
L 322.210012 267.01847 
L 322.586168 255.854011 
L 322.962323 270.136323 
L 323.338478 278.529908 
L 324.843098 288.220533 
L 325.219253 284.16088 
L 325.595408 288.281667 
L 325.971563 290.148744 
L 327.100028 290.386672 
L 327.476184 286.725219 
L 328.228494 294.310838 
L 328.604649 300.183043 
L 329.733114 304.946567 
L 330.109269 299.279245 
L 330.485424 307.581954 
L 331.237734 302.66642 
L 332.742355 298.639813 
L 333.11851 298.595201 
L 333.494665 295.209679 
L 333.87082 300.442451 
L 334.999285 295.882157 
L 335.37544 301.265286 
L 335.751595 300.133474 
L 336.503905 291.057498 
L 337.632371 282.14675 
L 338.008526 281.728723 
L 338.384681 282.323544 
L 338.760836 283.802335 
L 339.136991 281.508969 
L 340.265456 287.853726 
L 340.641611 284.331064 
L 341.017766 278.15484 
L 341.770076 270.275115 
L 342.898542 278.627392 
L 343.274697 276.345593 
L 343.650852 290.826179 
L 344.403162 273.578023 
L 345.531627 272.748579 
L 345.907782 268.753365 
L 346.283937 252.409007 
L 346.660092 250.056159 
L 347.036247 250.323829 
L 348.164713 250.117294 
L 348.540868 253.8531 
L 348.917023 251.81749 
L 349.293178 252.291695 
L 349.669333 247.800797 
L 350.797798 247.080402 
L 351.173953 248.935913 
L 351.550108 252.797293 
L 351.926263 249.965284 
L 352.302418 253.555689 
L 353.430884 254.766811 
L 353.807039 249.145753 
L 354.183194 248.724421 
L 354.935504 245.129059 
L 356.063969 250.490709 
L 356.816279 239.385733 
L 357.192434 239.580702 
L 357.568589 239.379123 
L 358.697055 240.785214 
L 359.07321 240.938876 
L 359.449365 246.626025 
L 359.82552 248.080032 
L 360.201675 247.015964 
L 361.33014 250.603064 
L 361.706295 249.329156 
L 362.08245 250.117294 
L 362.834761 255.402939 
L 363.963226 254.021632 
L 364.339381 256.643802 
L 366.596311 247.954459 
L 367.348621 253.996848 
L 367.724776 251.95463 
L 369.229397 255.860621 
L 369.605552 253.765529 
L 369.981707 254.695763 
L 370.357862 246.110514 
L 370.734017 242.812562 
L 371.862482 249.502646 
L 372.238637 252.835295 
L 372.614792 251.538255 
L 372.990948 253.887798 
L 373.367103 254.547058 
L 374.871723 245.514041 
L 375.247878 229.645539 
L 375.624033 228.926798 
L 376.000188 227.307563 
L 377.128653 227.580189 
L 377.504808 224.632521 
L 377.880963 238.916485 
L 378.257119 233.576315 
L 378.633274 238.098606 
L 380.137894 222.935629 
L 380.514049 199.379067 
L 380.890204 200.654627 
L 381.266359 194.7659 
L 382.394824 195.605258 
L 382.770979 197.161707 
L 383.147135 195.198797 
L 383.52329 195.112879 
L 383.899445 193.758009 
L 385.404065 190.81695 
L 385.78022 189.75949 
L 386.156375 191.593522 
L 386.53253 194.247084 
L 387.660995 200.238253 
L 388.03715 199.250189 
L 388.413306 195.235148 
L 388.789461 205.776697 
L 389.165616 204.867942 
L 390.294081 197.488858 
L 390.670236 198.427353 
L 391.046391 206.543355 
L 391.422546 202.848856 
L 391.798701 193.024396 
L 392.927166 206.963034 
L 393.303322 202.25073 
L 393.679477 201.864097 
L 394.055632 191.993373 
L 394.431787 200.727328 
L 395.560252 199.970583 
L 395.936407 195.67135 
L 396.312562 195.909278 
L 396.688717 204.973688 
L 397.064872 203.820397 
L 398.193337 204.58375 
L 398.569493 202.207771 
L 398.945648 203.513072 
L 399.321803 203.628732 
L 399.697958 205.086043 
L 400.826423 201.712087 
L 401.202578 201.781483 
L 401.578733 199.616995 
L 401.954888 188.199738 
L 403.459509 173.692715 
L 403.835664 173.821593 
L 404.211819 169.704111 
L 404.964129 163.722855 
L 406.092594 168.858143 
L 406.468749 166.796097 
L 406.844904 168.851534 
L 407.221059 161.941697 
L 407.597214 161.759946 
L 408.72568 160.993288 
L 409.101835 162.440686 
L 409.47799 162.500168 
L 409.854145 166.690351 
L 410.2303 158.861846 
L 411.358765 156.971638 
L 411.73492 160.213412 
L 412.111075 148.188115 
L 412.48723 139.930017 
L 412.863385 143.194924 
L 413.991851 145.666735 
L 414.368006 152.424562 
L 414.744161 152.014796 
L 415.496471 145.081828 
L 416.624936 154.506435 
L 417.001091 159.942438 
L 417.377246 171.455528 
L 417.753401 167.671806 
L 418.129556 158.71975 
L 419.258022 157.850651 
L 419.634177 160.821451 
L 420.010332 159.949047 
L 420.386487 152.123847 
L 420.762642 153.938051 
L 421.891107 143.763308 
L 422.267262 143.370065 
L 422.643417 139.328587 
L 423.019572 144.450657 
L 423.395727 142.956995 
L 424.900348 139.939931 
L 425.276503 141.350979 
L 425.652658 144.106982 
L 426.028813 136.314828 
L 427.157278 133.948762 
L 427.533433 131.176236 
L 427.909588 129.765188 
L 428.285743 124.775301 
L 428.661899 126.040948 
L 429.790364 123.876461 
L 430.542674 126.040948 
L 430.918829 123.813674 
L 431.294984 126.470541 
L 432.423449 123.536091 
L 432.799604 121.73841 
L 433.175759 123.512959 
L 433.551914 120.803219 
L 433.92807 121.751628 
L 435.056535 122.329926 
L 435.808845 127.299986 
L 436.185 123.823588 
L 436.561155 116.054565 
L 438.44193 111.566972 
L 438.818086 114.541077 
L 439.194241 113.229166 
L 440.698861 108.533385 
L 441.075016 104.938023 
L 441.451171 107.637849 
L 441.827326 105.721204 
L 442.955791 114.286625 
L 443.708101 103.229565 
L 444.084257 100.82054 
L 444.460412 85.992976 
L 445.588877 79.948934 
L 445.965032 89.363628 
L 446.341187 90.731716 
L 446.717342 90.209595 
L 447.093497 94.568311 
L 448.598117 91.068781 
L 448.974273 91.898226 
L 449.350428 88.887771 
L 449.726583 88.570533 
L 450.855048 85.378327 
L 451.231203 85.067699 
L 451.607358 86.412655 
L 451.983513 84.099462 
L 452.359668 84.043285 
L 453.488133 82.357959 
L 453.864288 87.694824 
L 454.240444 90.110458 
L 454.616599 88.976994 
L 454.992754 83.940843 
L 456.121219 75.140798 
L 456.497374 70.851478 
L 456.873529 69.02736 
L 457.249684 71.760232 
L 457.625839 63.736758 
L 458.754304 60.703171 
L 459.13046 60.726303 
L 459.506615 59.47057 
L 459.88277 64.833873 
L 460.258925 62.996537 
L 461.763545 60.537943 
L 462.1397 62.639644 
L 462.515855 62.540507 
L 462.89201 72.427753 
L 464.020476 67.325511 
L 464.396631 67.52048 
L 464.772786 61.572271 
L 465.148941 64.321666 
L 465.525096 73.937938 
L 466.653561 82.024198 
L 467.029716 79.945629 
L 467.405871 75.672832 
L 468.158181 70.074906 
L 469.286647 73.815669 
L 469.662802 91.386019 
L 470.415112 101.028727 
L 470.791267 90.467351 
L 471.919732 99.379751 
L 472.295887 91.409151 
L 472.672042 87.519683 
L 473.048197 81.465727 
L 473.424352 78.590759 
L 474.552818 82.582669 
L 474.928973 89.637906 
L 475.305128 85.715392 
L 475.681283 74.109775 
L 476.057438 73.240675 
L 477.185903 68.994315 
L 477.562058 66.145783 
L 477.938213 70.7953 
L 478.314368 69.585831 
L 478.690523 83.319586 
L 479.818989 82.830511 
L 480.195144 79.859711 
L 480.571299 57.534098 
L 480.947454 58.522161 
L 481.323609 51.447097 
L 482.452074 66.304402 
L 482.828229 59.401175 
L 483.204384 56.337847 
L 483.580539 50.082313 
L 483.956694 48.238368 
L 485.08516 47.871562 
L 485.461315 48.211932 
L 485.83747 56.879795 
L 486.213625 56.476638 
L 486.58978 46.903325 
L 487.718245 47.752598 
L 488.0944 48.783621 
L 488.470555 48.829884 
L 488.84671 43.387273 
L 489.222865 45.888825 
L 490.351331 55.382829 
L 490.727486 56.446897 
L 491.103641 56.57908 
L 491.855951 69.503217 
L 492.984416 58.57173 
L 493.360571 70.673032 
L 493.736726 73.429035 
L 494.112881 66.294488 
L 494.489037 70.448321 
L 495.617502 66.231702 
L 495.993657 52.220364 
L 496.369812 49.95674 
L 496.745967 51.989045 
L 497.122122 50.108749 
L 498.250587 56.622039 
L 498.626742 62.348843 
L 499.002897 54.42781 
L 499.755208 69.513131 
L 500.883673 70.83826 
L 501.259828 64.827263 
L 501.635983 55.812421 
L 502.012138 55.171337 
L 503.516758 52.127836 
L 503.892913 57.468006 
L 504.269068 57.279646 
L 504.645224 58.938536 
L 505.021379 63.31047 
L 506.149844 62.008473 
L 506.525999 64.179569 
L 506.902154 86.528314 
L 507.278309 86.868684 
L 507.654464 88.672974 
L 508.782929 83.488118 
L 509.535239 73.329898 
L 509.911395 81.647478 
L 510.28755 79.482991 
L 512.168325 93.144045 
L 512.54448 100.232328 
L 512.920635 111.517403 
L 514.0491 110.592126 
L 514.425255 122.610814 
L 514.801411 114.332889 
L 515.177566 114.726132 
L 515.553721 100.949418 
L 516.682186 92.988731 
L 517.058341 85.788093 
L 517.434496 52.220364 
L 517.810651 70.018728 
L 518.186806 68.809259 
L 519.315271 82.285258 
L 519.691427 81.376504 
L 520.067582 73.974288 
L 520.443737 83.395591 
L 520.819892 98.173587 
L 521.948357 94.307251 
L 522.700667 87.076871 
L 523.076822 104.191192 
L 523.452977 110.278193 
L 524.957598 113.79755 
L 525.333753 119.801937 
L 525.709908 102.988332 
L 526.086063 96.884808 
L 527.214528 95.658816 
L 527.590683 98.048013 
L 527.966838 96.121454 
L 528.342993 97.585375 
L 528.719148 104.809145 
L 529.847614 123.503046 
L 530.223769 120.813133 
L 530.599924 99.045991 
L 530.976079 102.958591 
L 531.352234 110.251757 
L 532.480699 122.590987 
L 532.856854 112.941669 
L 533.233009 99.624289 
L 533.609164 96.620443 
L 533.985319 89.347105 
L 535.113785 90.411173 
L 535.48994 77.860451 
L 535.866095 83.722742 
L 536.24225 74.440231 
L 536.618405 73.749578 
L 537.74687 72.331921 
L 538.123025 68.035992 
L 538.49918 70.035251 
L 538.875335 79.932411 
L 540.379956 66.7373 
L 540.756111 75.263067 
L 541.132266 88.107894 
L 541.508421 90.457437 
L 541.884576 98.570134 
L 543.389196 117.194639 
L 543.765351 110.876319 
L 544.141506 120.899052 
L 545.646127 118.559423 
L 546.022282 110.066701 
L 546.398437 117.620927 
L 546.774592 128.54911 
L 547.150747 146.142592 
L 548.279212 134.127209 
L 549.031522 161.32044 
L 549.407677 146.813418 
L 549.783832 161.502191 
L 550.912298 154.261898 
L 551.288453 151.04656 
L 551.664608 136.357787 
L 552.040763 155.620072 
L 552.416918 159.208825 
L 553.545383 167.721374 
L 553.921538 162.761228 
L 554.673848 167.466923 
L 555.050003 156.380121 
L 556.178469 162.07388 
L 556.554624 155.768778 
L 556.930779 169.978389 
L 557.683089 180.182873 
L 558.811554 172.407241 
L 559.187709 191.37542 
L 559.563864 191.659613 
L 559.940019 183.543611 
L 560.316175 168.663174 
L 561.820795 164.565518 
L 562.19695 164.241671 
L 562.573105 152.315511 
L 562.94926 162.830624 
L 564.077725 154.747668 
L 564.45388 154.023969 
L 564.830035 153.994228 
L 565.20619 161.660809 
L 565.582346 173.197031 
L 566.710811 188.232783 
L 567.086966 187.185237 
L 567.463121 176.620556 
L 567.839276 189.029182 
L 568.215431 184.964572 
L 569.720051 171.25395 
L 570.096206 171.191163 
L 570.472362 169.039894 
L 570.848517 149.698299 
L 571.976982 156.029838 
L 572.353137 169.413309 
L 572.729292 170.454246 
L 573.105447 179.987904 
L 573.481602 180.949531 
L 575.362378 160.682659 
L 575.738533 147.160397 
L 576.114688 144.308561 
L 577.243153 156.360294 
L 577.619308 161.88552 
L 577.995463 170.685565 
L 578.371618 173.154072 
L 578.747773 168.76892 
L 579.876238 178.21005 
L 580.252393 162.645569 
L 580.628549 162.381204 
L 581.004704 161.257653 
L 581.380859 183.332119 
L 582.509324 183.827804 
L 582.885479 192.981437 
L 583.261634 166.016221 
L 583.637789 162.744705 
L 584.013944 155.970356 
L 585.142409 159.803646 
L 585.518565 158.415731 
L 585.89472 148.898596 
L 586.270875 148.601185 
L 586.64703 150.74915 
L 587.775495 151.013514 
L 588.15165 153.128433 
L 588.527805 142.719067 
L 588.90396 145.461852 
L 589.280115 136.109945 
L 590.40858 135.349896 
L 590.784736 136.572584 
L 591.160891 143.809572 
L 591.537046 142.025109 
L 591.913201 151.079606 
L 593.041666 161.158516 
L 593.417821 162.149884 
L 593.793976 162.381204 
L 594.170131 152.467521 
L 594.546286 173.616711 
L 595.674752 176.789089 
L 596.050907 178.21005 
L 596.427062 180.721516 
L 596.803217 176.095131 
L 597.179372 182.27466 
L 598.683992 186.240133 
L 599.060147 176.32645 
L 599.436302 179.829285 
L 599.812457 172.030521 
L 600.940923 171.733111 
L 601.317078 193.41103 
L 601.693233 191.560476 
L 602.069388 198.070461 
L 602.445543 198.962692 
L 603.574008 198.235689 
L 604.326318 210.925202 
L 604.702473 209.074648 
L 605.078628 213.701033 
L 606.207094 214.890675 
L 606.583249 217.269959 
L 606.959404 208.512873 
L 607.711714 223.680807 
L 608.840179 213.271441 
L 609.216334 202.994256 
L 609.592489 203.622123 
L 609.968644 203.556032 
L 610.344799 212.379209 
L 611.473265 215.221131 
L 611.84942 217.402142 
L 612.225575 216.576001 
L 612.60173 211.916571 
L 612.977885 220.27711 
L 614.10635 208.380691 
L 614.482505 206.364908 
L 614.85866 209.999925 
L 615.234815 209.206831 
L 615.61097 206.067498 
L 616.739436 201.143702 
L 617.115591 194.666763 
L 617.491746 228.075873 
L 617.867901 235.411998 
L 618.244056 222.259846 
L 619.372521 228.604603 
L 620.124831 253.68622 
L 620.500986 265.516547 
L 620.877142 254.908907 
L 622.005607 248.465013 
L 622.381762 247.605828 
L 622.757917 252.595714 
L 623.134072 230.223838 
L 623.510227 221.764162 
L 624.638692 224.077354 
L 625.014847 215.188086 
L 625.391002 214.295854 
L 625.767157 215.915089 
L 627.271778 224.738267 
L 628.024088 214.85763 
L 628.776398 218.889194 
L 629.904863 223.350351 
L 630.281018 226.027045 
L 630.657173 206.166635 
L 631.033329 206.72841 
L 631.409484 208.215462 
L 632.537949 211.387841 
L 633.290259 226.985368 
L 634.042569 233.858855 
L 635.171034 232.23962 
L 635.547189 224.672175 
L 635.923344 226.456638 
L 636.2995 240.038383 
L 636.675655 241.161934 
L 637.80412 246.812733 
L 638.55643 243.177716 
L 638.932585 249.753792 
L 639.30874 244.631723 
L 640.81336 250.844297 
L 641.189516 255.702002 
L 641.565671 247.473645 
L 641.941826 248.200649 
L 643.446446 244.995225 
L 643.822601 248.26674 
L 644.198756 254.677588 
L 644.574911 250.084248 
L 645.703376 247.969329 
L 646.079531 246.515323 
L 646.455687 236.535549 
L 646.831842 237.692145 
L 647.207997 234.751086 
L 648.712617 236.866005 
L 649.088772 238.121738 
L 649.464927 231.083023 
L 649.841082 213.337532 
L 650.969547 206.959729 
L 651.721858 221.764162 
L 652.098013 213.734079 
L 652.474168 208.61201 
L 653.602633 217.732598 
L 654.354943 206.232726 
L 654.731098 181.878113 
L 655.107253 193.70844 
L 656.235718 199.491422 
L 656.611874 184.389579 
L 656.988029 210.958248 
L 657.364184 225.960954 
L 657.740339 227.943691 
L 658.868804 227.481052 
L 659.244959 227.64628 
L 659.621114 220.541474 
L 660.373424 228.835922 
L 661.878045 237.229507 
L 662.2542 238.055647 
L 662.630355 240.467976 
L 663.00651 246.151821 
L 664.51113 243.012488 
L 664.887285 242.31853 
L 665.639595 230.719522 
L 666.768061 225.564407 
L 667.144216 230.223838 
L 667.520371 228.637648 
L 668.272681 240.66625 
L 669.401146 238.518285 
L 670.153456 222.358983 
L 670.529611 207.422368 
L 670.905766 202.829028 
L 672.034232 204.580446 
L 672.410387 191.659613 
L 672.786542 197.013001 
L 673.162697 190.271697 
L 673.538852 190.932609 
L 674.667317 200.846292 
L 675.043472 206.464045 
L 675.419627 204.679582 
L 675.795782 206.596228 
L 676.171937 197.740005 
L 677.676558 194.038897 
L 678.052713 194.600672 
L 678.428868 181.547657 
L 679.933488 187.99155 
L 680.685798 193.70844 
L 681.061953 183.893895 
L 681.438108 179.697103 
L 682.942729 194.038897 
L 683.318884 194.369353 
L 683.695039 191.461339 
L 684.071194 191.428293 
L 685.199659 188.553326 
L 685.575814 195.724223 
L 685.951969 196.252952 
L 686.328124 183.299074 
L 686.70428 183.794758 
L 687.832745 185.480084 
L 688.2089 191.196974 
L 688.585055 190.734336 
L 688.96121 193.741486 
L 689.337365 190.420402 
L 690.46583 183.728667 
L 690.841985 184.720035 
L 691.594295 155.11117 
L 691.970451 151.740518 
L 693.098916 154.912896 
L 693.475071 144.569621 
L 693.851226 139.976281 
L 694.227381 133.234977 
L 694.603536 134.127209 
L 695.732001 125.469259 
L 696.108156 133.995026 
L 696.484311 139.447552 
L 696.860467 130.492192 
L 697.236622 126.923266 
L 698.741242 129.533869 
L 699.117397 133.730661 
L 699.869707 127.584178 
L 700.998172 122.957793 
L 701.374327 118.727955 
L 701.750482 135.151622 
L 702.126638 136.043854 
L 702.502793 135.382942 
L 703.631258 130.492192 
L 704.007413 130.227827 
L 704.383568 130.393055 
L 704.759723 125.733624 
L 705.135878 131.450514 
L 706.640498 132.144472 
L 707.016654 140.703285 
L 707.392809 132.078381 
L 707.768964 134.887258 
L 708.897429 147.874182 
L 709.273584 148.138547 
L 709.649739 141.298106 
L 710.025894 144.833986 
L 710.402049 141.661607 
L 711.530514 143.016477 
L 712.282825 136.176036 
L 712.65898 141.79379 
L 713.035135 144.404393 
L 714.1636 155.210307 
L 714.539755 152.434476 
L 714.91591 146.122764 
L 715.292065 128.906003 
L 715.66822 126.031035 
L 716.796685 128.145954 
L 717.172841 131.384423 
L 717.548996 135.680352 
L 717.925151 146.420175 
L 718.301306 143.842617 
L 719.429771 138.654457 
L 719.805926 135.647307 
L 720.182081 112.944974 
L 720.558236 112.251016 
L 720.934391 101.874695 
L 722.062857 101.544239 
L 722.439012 105.575803 
L 722.815167 116.315626 
L 723.191322 115.886033 
L 723.567477 116.646082 
L 724.695942 105.410575 
L 725.072097 105.741031 
L 725.448252 111.325739 
L 725.824407 111.127465 
L 726.200562 111.259648 
L 727.329028 105.774077 
L 728.081338 114.762482 
L 728.457493 110.301325 
L 728.833648 118.067043 
L 729.962113 115.357303 
L 730.338268 112.845837 
L 730.714423 101.213783 
L 731.090578 110.433507 
L 731.466733 109.541276 
L 732.595199 105.906259 
L 732.971354 93.679384 
L 733.347509 88.920816 
L 733.723664 87.532901 
L 734.099819 89.350409 
L 735.604439 89.64782 
L 735.980594 94.075931 
L 736.732904 88.028585 
L 737.86137 86.244122 
L 738.237525 91.762739 
L 738.989835 82.113421 
L 739.36599 84.393568 
L 740.494455 82.212558 
L 740.87061 82.642151 
L 741.62292 107.32722 
L 741.999075 107.690722 
L 743.127541 104.650526 
L 743.503696 113.638931 
L 744.256006 101.478148 
L 744.632161 105.707985 
L 745.760626 94.736844 
L 746.136781 100.916372 
L 746.512936 91.101827 
L 746.889091 92.027104 
L 747.265246 82.972607 
L 748.393712 80.428095 
L 748.769867 81.419463 
L 749.146022 73.158061 
L 749.898332 83.468291 
L 751.402952 75.504299 
L 751.779107 81.155098 
L 752.155262 82.146467 
L 752.531418 89.548683 
L 753.659883 85.715392 
L 754.036038 78.379267 
L 754.412193 122.825611 
L 754.788348 133.499342 
L 755.164503 133.631525 
L 756.292968 125.865807 
L 756.669123 127.352859 
L 757.045278 119.851506 
L 757.421433 116.513899 
L 757.797589 110.598736 
L 758.926054 107.02981 
L 759.678364 101.048555 
L 760.054519 106.236715 
L 760.430674 98.404906 
L 761.559139 99.792822 
L 761.935294 93.877658 
L 762.311449 90.738325 
L 762.687605 83.071744 
L 763.06376 88.887771 
L 764.192225 85.649301 
L 764.56838 83.336109 
L 764.944535 78.709723 
L 765.696845 84.657933 
L 766.82531 85.219708 
L 767.201465 83.336109 
L 767.953776 98.867545 
L 768.329931 100.850281 
L 769.458396 109.73955 
L 769.834551 103.923523 
L 770.210706 107.095901 
L 770.586861 83.897884 
L 770.963016 89.879139 
L 772.091481 96.289987 
L 772.467636 99.792822 
L 772.843792 98.702317 
L 773.219947 101.246828 
L 773.596102 99.131909 
L 775.476877 79.899365 
L 775.853032 72.827605 
L 776.229187 69.787409 
L 777.733808 69.456953 
L 778.109963 74.017247 
L 778.486118 74.545977 
L 778.862273 75.702573 
L 778.862273 75.702573 
" clip-path="url(#p9c57f65312)" style="fill: none; stroke: #1f77b4; stroke-width: 1.5; stroke-linecap: square"/>
   </g>
   <g id="patch_7">
    <path d="M 59.24 390.04 
L 59.24 26.88 
" style="fill: none; stroke: #000000; stroke-width: 0.8; stroke-linejoin: miter; stroke-linecap: square"/>
   </g>
   <g id="patch_8">
    <path d="M 813.13 390.04 
L 813.13 26.88 
" style="fill: none; stroke: #000000; stroke-width: 0.8; stroke-linejoin: miter; stroke-linecap: square"/>
   </g>
   <g id="patch_9">
    <path d="M 59.24 390.04 
L 813.13 390.04 
" style="fill: none; stroke: #000000; stroke-width: 0.8; stroke-linejoin: miter; stroke-linecap: square"/>
   </g>
   <g id="patch_10">
    <path d="M 59.24 26.88 
L 813.13 26.88 
" style="fill: none; stroke: #000000; stroke-width: 0.8; stroke-linejoin: miter; stroke-linecap: square"/>
   </g>
   <g id="text_22">
    <!-- Stock Trading Performance for GOOG -->
    <g transform="translate(324.928125 20.88) scale(0.12 -0.12)">
     <defs>
      <path id="DejaVuSans-53" d="M 3425 4513 
L 3425 3897 
Q 3066 4069 2747 4153 
Q 2428 4238 2131 4238 
Q 1616 4238 1336 4038 
Q 1056 3838 1056 3469 
Q 1056 3159 1242 3001 
Q 1428 2844 1947 2747 
L 2328 2669 
Q 3034 2534 3370 2195 
Q 3706 1856 3706 1288 
Q 3706 609 3251 259 
Q 2797 -91 1919 -91 
Q 1588 -91 1214 -16 
Q 841 59 441 206 
L 441 856 
Q 825 641 1194 531 
Q 1563 422 1919 422 
Q 2459 422 2753 634 
Q 3047 847 3047 1241 
Q 3047 1584 2836 1778 
Q 2625 1972 2144 2069 
L 1759 2144 
Q 1053 2284 737 2584 
Q 422 2884 422 3419 
Q 422 4038 858 4394 
Q 1294 4750 2059 4750 
Q 2388 4750 2728 4690 
Q 3069 4631 3425 4513 
z
" transform="scale(0.015625)"/>
      <path id="DejaVuSans-6b" d="M 581 4863 
L 1159 4863 
L 1159 1991 
L 2875 3500 
L 3609 3500 
L 1753 1863 
L 3688 0 
L 2938 0 
L 1159 1709 
L 1159 0 
L 581 0 
L 581 4863 
z
" transform="scale(0.015625)"/>
      <path id="DejaVuSans-54" d="M -19 4666 
L 3928 4666 
L 3928 4134 
L 2272 4134 
L 2272 0 
L 1638 0 
L 1638 4134 
L -19 4134 
L -19 4666 
z
" transform="scale(0.015625)"/>
      <path id="DejaVuSans-64" d="M 2906 2969 
L 2906 4863 
L 3481 4863 
L 3481 0 
L 2906 0 
L 2906 525 
Q 2725 213 2448 61 
Q 2172 -91 1784 -91 
Q 1150 -91 751 415 
Q 353 922 353 1747 
Q 353 2572 751 3078 
Q 1150 3584 1784 3584 
Q 2172 3584 2448 3432 
Q 2725 3281 2906 2969 
z
M 947 1747 
Q 947 1113 1208 752 
Q 1469 391 1925 391 
Q 2381 391 2643 752 
Q 2906 1113 2906 1747 
Q 2906 2381 2643 2742 
Q 2381 3103 1925 3103 
Q 1469 3103 1208 2742 
Q 947 2381 947 1747 
z
" transform="scale(0.015625)"/>
      <path id="DejaVuSans-67" d="M 2906 1791 
Q 2906 2416 2648 2759 
Q 2391 3103 1925 3103 
Q 1463 3103 1205 2759 
Q 947 2416 947 1791 
Q 947 1169 1205 825 
Q 1463 481 1925 481 
Q 2391 481 2648 825 
Q 2906 1169 2906 1791 
z
M 3481 434 
Q 3481 -459 3084 -895 
Q 2688 -1331 1869 -1331 
Q 1566 -1331 1297 -1286 
Q 1028 -1241 775 -1147 
L 775 -588 
Q 1028 -725 1275 -790 
Q 1522 -856 1778 -856 
Q 2344 -856 2625 -561 
Q 2906 -266 2906 331 
L 2906 616 
Q 2728 306 2450 153 
Q 2172 0 1784 0 
Q 1141 0 747 490 
Q 353 981 353 1791 
Q 353 2603 747 3093 
Q 1141 3584 1784 3584 
Q 2172 3584 2450 3431 
Q 2728 3278 2906 2969 
L 2906 3500 
L 3481 3500 
L 3481 434 
z
" transform="scale(0.015625)"/>
      <path id="DejaVuSans-66" d="M 2375 4863 
L 2375 4384 
L 1825 4384 
Q 1516 4384 1395 4259 
Q 1275 4134 1275 3809 
L 1275 3500 
L 2222 3500 
L 2222 3053 
L 1275 3053 
L 1275 0 
L 697 0 
L 697 3053 
L 147 3053 
L 147 3500 
L 697 3500 
L 697 3744 
Q 697 4328 969 4595 
Q 1241 4863 1831 4863 
L 2375 4863 
z
" transform="scale(0.015625)"/>
      <path id="DejaVuSans-6d" d="M 3328 2828 
Q 3544 3216 3844 3400 
Q 4144 3584 4550 3584 
Q 5097 3584 5394 3201 
Q 5691 2819 5691 2113 
L 5691 0 
L 5113 0 
L 5113 2094 
Q 5113 2597 4934 2840 
Q 4756 3084 4391 3084 
Q 3944 3084 3684 2787 
Q 3425 2491 3425 1978 
L 3425 0 
L 2847 0 
L 2847 2094 
Q 2847 2600 2669 2842 
Q 2491 3084 2119 3084 
Q 1678 3084 1418 2786 
Q 1159 2488 1159 1978 
L 1159 0 
L 581 0 
L 581 3500 
L 1159 3500 
L 1159 2956 
Q 1356 3278 1631 3431 
Q 1906 3584 2284 3584 
Q 2666 3584 2933 3390 
Q 3200 3197 3328 2828 
z
" transform="scale(0.015625)"/>
      <path id="DejaVuSans-47" d="M 3809 666 
L 3809 1919 
L 2778 1919 
L 2778 2438 
L 4434 2438 
L 4434 434 
Q 4069 175 3628 42 
Q 3188 -91 2688 -91 
Q 1594 -91 976 548 
Q 359 1188 359 2328 
Q 359 3472 976 4111 
Q 1594 4750 2688 4750 
Q 3144 4750 3555 4637 
Q 3966 4525 4313 4306 
L 4313 3634 
Q 3963 3931 3569 4081 
Q 3175 4231 2741 4231 
Q 1884 4231 1454 3753 
Q 1025 3275 1025 2328 
Q 1025 1384 1454 906 
Q 1884 428 2741 428 
Q 3075 428 3337 486 
Q 3600 544 3809 666 
z
" transform="scale(0.015625)"/>
      <path id="DejaVuSans-4f" d="M 2522 4238 
Q 1834 4238 1429 3725 
Q 1025 3213 1025 2328 
Q 1025 1447 1429 934 
Q 1834 422 2522 422 
Q 3209 422 3611 934 
Q 4013 1447 4013 2328 
Q 4013 3213 3611 3725 
Q 3209 4238 2522 4238 
z
M 2522 4750 
Q 3503 4750 4090 4092 
Q 4678 3434 4678 2328 
Q 4678 1225 4090 567 
Q 3503 -91 2522 -91 
Q 1538 -91 948 565 
Q 359 1222 359 2328 
Q 359 3434 948 4092 
Q 1538 4750 2522 4750 
z
" transform="scale(0.015625)"/>
     </defs>
     <use xlink:href="#DejaVuSans-53"/>
     <use xlink:href="#DejaVuSans-74" x="63.476562"/>
     <use xlink:href="#DejaVuSans-6f" x="102.685547"/>
     <use xlink:href="#DejaVuSans-63" x="163.867188"/>
     <use xlink:href="#DejaVuSans-6b" x="218.847656"/>
     <use xlink:href="#DejaVuSans-20" x="276.757812"/>
     <use xlink:href="#DejaVuSans-54" x="308.544922"/>
     <use xlink:href="#DejaVuSans-72" x="354.878906"/>
     <use xlink:href="#DejaVuSans-61" x="395.992188"/>
     <use xlink:href="#DejaVuSans-64" x="457.271484"/>
     <use xlink:href="#DejaVuSans-69" x="520.748047"/>
     <use xlink:href="#DejaVuSans-6e" x="548.53125"/>
     <use xlink:href="#DejaVuSans-67" x="611.910156"/>
     <use xlink:href="#DejaVuSans-20" x="675.386719"/>
     <use xlink:href="#DejaVuSans-50" x="707.173828"/>
     <use xlink:href="#DejaVuSans-65" x="763.851562"/>
     <use xlink:href="#DejaVuSans-72" x="825.375"/>
     <use xlink:href="#DejaVuSans-66" x="866.488281"/>
     <use xlink:href="#DejaVuSans-6f" x="901.693359"/>
     <use xlink:href="#DejaVuSans-72" x="962.875"/>
     <use xlink:href="#DejaVuSans-6d" x="1002.238281"/>
     <use xlink:href="#DejaVuSans-61" x="1099.650391"/>
     <use xlink:href="#DejaVuSans-6e" x="1160.929688"/>
     <use xlink:href="#DejaVuSans-63" x="1224.308594"/>
     <use xlink:href="#DejaVuSans-65" x="1279.289062"/>
     <use xlink:href="#DejaVuSans-20" x="1340.8125"/>
     <use xlink:href="#DejaVuSans-66" x="1372.599609"/>
     <use xlink:href="#DejaVuSans-6f" x="1407.804688"/>
     <use xlink:href="#DejaVuSans-72" x="1468.986328"/>
     <use xlink:href="#DejaVuSans-20" x="1510.099609"/>
     <use xlink:href="#DejaVuSans-47" x="1541.886719"/>
     <use xlink:href="#DejaVuSans-4f" x="1619.376953"/>
     <use xlink:href="#DejaVuSans-4f" x="1698.087891"/>
     <use xlink:href="#DejaVuSans-47" x="1776.798828"/>
    </g>
   </g>
  </g>
 </g>
 <defs>
  <clipPath id="p9c57f65312">
   <rect x="59.24" y="26.88" width="753.89" height="363.16"/>
  </clipPath>
 </defs>
</svg>
