<?xml version="1.0" encoding="utf-8" standalone="no"?>
<!DOCTYPE svg PUBLIC "-//W3C//DTD SVG 1.1//EN"
  "http://www.w3.org/Graphics/SVG/1.1/DTD/svg11.dtd">
<svg xmlns:xlink="http://www.w3.org/1999/xlink" width="864pt" height="432pt" viewBox="0 0 864 432" xmlns="http://www.w3.org/2000/svg" version="1.1">
 <metadata>
  <rdf:RDF xmlns:dc="http://purl.org/dc/elements/1.1/" xmlns:cc="http://creativecommons.org/ns#" xmlns:rdf="http://www.w3.org/1999/02/22-rdf-syntax-ns#">
   <cc:Work>
    <dc:type rdf:resource="http://purl.org/dc/dcmitype/StillImage"/>
    <dc:date>2024-04-16T14:18:45.887965</dc:date>
    <dc:format>image/svg+xml</dc:format>
    <dc:creator>
     <cc:Agent>
      <dc:title>Matplotlib v3.8.2, https://matplotlib.org/</dc:title>
     </cc:Agent>
    </dc:creator>
   </cc:Work>
  </rdf:RDF>
 </metadata>
 <defs>
  <style type="text/css">*{stroke-linejoin: round; stroke-linecap: butt}</style>
 </defs>
 <g id="figure_1">
  <g id="patch_1">
   <path d="M 0 432 
L 864 432 
L 864 0 
L 0 0 
z
" style="fill: #ffffff"/>
  </g>
  <g id="axes_1">
   <g id="patch_2">
    <path d="M 52.94 390.04 
L 813.22 390.04 
L 813.22 26.88 
L 52.94 26.88 
z
" style="fill: #ffffff"/>
   </g>
   <g id="matplotlib.axis_1">
    <g id="xtick_1">
     <g id="line2d_1">
      <path d="M 87.118838 390.04 
L 87.118838 26.88 
" clip-path="url(#p85e65a85f0)" style="fill: none; stroke-dasharray: 1.85,0.8; stroke-dashoffset: 0; stroke: #b0b0b0; stroke-opacity: 0.5; stroke-width: 0.5"/>
     </g>
     <g id="line2d_2">
      <defs>
       <path id="m908c2f76ed" d="M 0 0 
L 0 3.5 
" style="stroke: #000000; stroke-width: 0.8"/>
      </defs>
      <g>
       <use xlink:href="#m908c2f76ed" x="87.118838" y="390.04" style="stroke: #000000; stroke-width: 0.8"/>
      </g>
     </g>
     <g id="text_1">
      <!-- 2019 -->
      <g transform="translate(74.393838 404.638438) scale(0.1 -0.1)">
       <defs>
        <path id="DejaVuSans-32" d="M 1228 531 
L 3431 531 
L 3431 0 
L 469 0 
L 469 531 
Q 828 903 1448 1529 
Q 2069 2156 2228 2338 
Q 2531 2678 2651 2914 
Q 2772 3150 2772 3378 
Q 2772 3750 2511 3984 
Q 2250 4219 1831 4219 
Q 1534 4219 1204 4116 
Q 875 4013 500 3803 
L 500 4441 
Q 881 4594 1212 4672 
Q 1544 4750 1819 4750 
Q 2544 4750 2975 4387 
Q 3406 4025 3406 3419 
Q 3406 3131 3298 2873 
Q 3191 2616 2906 2266 
Q 2828 2175 2409 1742 
Q 1991 1309 1228 531 
z
" transform="scale(0.015625)"/>
        <path id="DejaVuSans-30" d="M 2034 4250 
Q 1547 4250 1301 3770 
Q 1056 3291 1056 2328 
Q 1056 1369 1301 889 
Q 1547 409 2034 409 
Q 2525 409 2770 889 
Q 3016 1369 3016 2328 
Q 3016 3291 2770 3770 
Q 2525 4250 2034 4250 
z
M 2034 4750 
Q 2819 4750 3233 4129 
Q 3647 3509 3647 2328 
Q 3647 1150 3233 529 
Q 2819 -91 2034 -91 
Q 1250 -91 836 529 
Q 422 1150 422 2328 
Q 422 3509 836 4129 
Q 1250 4750 2034 4750 
z
" transform="scale(0.015625)"/>
        <path id="DejaVuSans-31" d="M 794 531 
L 1825 531 
L 1825 4091 
L 703 3866 
L 703 4441 
L 1819 4666 
L 2450 4666 
L 2450 531 
L 3481 531 
L 3481 0 
L 794 0 
L 794 531 
z
" transform="scale(0.015625)"/>
        <path id="DejaVuSans-39" d="M 703 97 
L 703 672 
Q 941 559 1184 500 
Q 1428 441 1663 441 
Q 2288 441 2617 861 
Q 2947 1281 2994 2138 
Q 2813 1869 2534 1725 
Q 2256 1581 1919 1581 
Q 1219 1581 811 2004 
Q 403 2428 403 3163 
Q 403 3881 828 4315 
Q 1253 4750 1959 4750 
Q 2769 4750 3195 4129 
Q 3622 3509 3622 2328 
Q 3622 1225 3098 567 
Q 2575 -91 1691 -91 
Q 1453 -91 1209 -44 
Q 966 3 703 97 
z
M 1959 2075 
Q 2384 2075 2632 2365 
Q 2881 2656 2881 3163 
Q 2881 3666 2632 3958 
Q 2384 4250 1959 4250 
Q 1534 4250 1286 3958 
Q 1038 3666 1038 3163 
Q 1038 2656 1286 2365 
Q 1534 2075 1959 2075 
z
" transform="scale(0.015625)"/>
       </defs>
       <use xlink:href="#DejaVuSans-32"/>
       <use xlink:href="#DejaVuSans-30" x="63.623047"/>
       <use xlink:href="#DejaVuSans-31" x="127.246094"/>
       <use xlink:href="#DejaVuSans-39" x="190.869141"/>
      </g>
     </g>
    </g>
    <g id="xtick_2">
     <g id="line2d_3">
      <path d="M 225.579172 390.04 
L 225.579172 26.88 
" clip-path="url(#p85e65a85f0)" style="fill: none; stroke-dasharray: 1.85,0.8; stroke-dashoffset: 0; stroke: #b0b0b0; stroke-opacity: 0.5; stroke-width: 0.5"/>
     </g>
     <g id="line2d_4">
      <g>
       <use xlink:href="#m908c2f76ed" x="225.579172" y="390.04" style="stroke: #000000; stroke-width: 0.8"/>
      </g>
     </g>
     <g id="text_2">
      <!-- 2020 -->
      <g transform="translate(212.854172 404.638438) scale(0.1 -0.1)">
       <use xlink:href="#DejaVuSans-32"/>
       <use xlink:href="#DejaVuSans-30" x="63.623047"/>
       <use xlink:href="#DejaVuSans-32" x="127.246094"/>
       <use xlink:href="#DejaVuSans-30" x="190.869141"/>
      </g>
     </g>
    </g>
    <g id="xtick_3">
     <g id="line2d_5">
      <path d="M 364.418848 390.04 
L 364.418848 26.88 
" clip-path="url(#p85e65a85f0)" style="fill: none; stroke-dasharray: 1.85,0.8; stroke-dashoffset: 0; stroke: #b0b0b0; stroke-opacity: 0.5; stroke-width: 0.5"/>
     </g>
     <g id="line2d_6">
      <g>
       <use xlink:href="#m908c2f76ed" x="364.418848" y="390.04" style="stroke: #000000; stroke-width: 0.8"/>
      </g>
     </g>
     <g id="text_3">
      <!-- 2021 -->
      <g transform="translate(351.693848 404.638438) scale(0.1 -0.1)">
       <use xlink:href="#DejaVuSans-32"/>
       <use xlink:href="#DejaVuSans-30" x="63.623047"/>
       <use xlink:href="#DejaVuSans-32" x="127.246094"/>
       <use xlink:href="#DejaVuSans-31" x="190.869141"/>
      </g>
     </g>
    </g>
    <g id="xtick_4">
     <g id="line2d_7">
      <path d="M 502.879182 390.04 
L 502.879182 26.88 
" clip-path="url(#p85e65a85f0)" style="fill: none; stroke-dasharray: 1.85,0.8; stroke-dashoffset: 0; stroke: #b0b0b0; stroke-opacity: 0.5; stroke-width: 0.5"/>
     </g>
     <g id="line2d_8">
      <g>
       <use xlink:href="#m908c2f76ed" x="502.879182" y="390.04" style="stroke: #000000; stroke-width: 0.8"/>
      </g>
     </g>
     <g id="text_4">
      <!-- 2022 -->
      <g transform="translate(490.154182 404.638438) scale(0.1 -0.1)">
       <use xlink:href="#DejaVuSans-32"/>
       <use xlink:href="#DejaVuSans-30" x="63.623047"/>
       <use xlink:href="#DejaVuSans-32" x="127.246094"/>
       <use xlink:href="#DejaVuSans-32" x="190.869141"/>
      </g>
     </g>
    </g>
    <g id="xtick_5">
     <g id="line2d_9">
      <path d="M 641.339515 390.04 
L 641.339515 26.88 
" clip-path="url(#p85e65a85f0)" style="fill: none; stroke-dasharray: 1.85,0.8; stroke-dashoffset: 0; stroke: #b0b0b0; stroke-opacity: 0.5; stroke-width: 0.5"/>
     </g>
     <g id="line2d_10">
      <g>
       <use xlink:href="#m908c2f76ed" x="641.339515" y="390.04" style="stroke: #000000; stroke-width: 0.8"/>
      </g>
     </g>
     <g id="text_5">
      <!-- 2023 -->
      <g transform="translate(628.614515 404.638438) scale(0.1 -0.1)">
       <defs>
        <path id="DejaVuSans-33" d="M 2597 2516 
Q 3050 2419 3304 2112 
Q 3559 1806 3559 1356 
Q 3559 666 3084 287 
Q 2609 -91 1734 -91 
Q 1441 -91 1130 -33 
Q 819 25 488 141 
L 488 750 
Q 750 597 1062 519 
Q 1375 441 1716 441 
Q 2309 441 2620 675 
Q 2931 909 2931 1356 
Q 2931 1769 2642 2001 
Q 2353 2234 1838 2234 
L 1294 2234 
L 1294 2753 
L 1863 2753 
Q 2328 2753 2575 2939 
Q 2822 3125 2822 3475 
Q 2822 3834 2567 4026 
Q 2313 4219 1838 4219 
Q 1578 4219 1281 4162 
Q 984 4106 628 3988 
L 628 4550 
Q 988 4650 1302 4700 
Q 1616 4750 1894 4750 
Q 2613 4750 3031 4423 
Q 3450 4097 3450 3541 
Q 3450 3153 3228 2886 
Q 3006 2619 2597 2516 
z
" transform="scale(0.015625)"/>
       </defs>
       <use xlink:href="#DejaVuSans-32"/>
       <use xlink:href="#DejaVuSans-30" x="63.623047"/>
       <use xlink:href="#DejaVuSans-32" x="127.246094"/>
       <use xlink:href="#DejaVuSans-33" x="190.869141"/>
      </g>
     </g>
    </g>
    <g id="xtick_6">
     <g id="line2d_11">
      <path d="M 779.799848 390.04 
L 779.799848 26.88 
" clip-path="url(#p85e65a85f0)" style="fill: none; stroke-dasharray: 1.85,0.8; stroke-dashoffset: 0; stroke: #b0b0b0; stroke-opacity: 0.5; stroke-width: 0.5"/>
     </g>
     <g id="line2d_12">
      <g>
       <use xlink:href="#m908c2f76ed" x="779.799848" y="390.04" style="stroke: #000000; stroke-width: 0.8"/>
      </g>
     </g>
     <g id="text_6">
      <!-- 2024 -->
      <g transform="translate(767.074848 404.638438) scale(0.1 -0.1)">
       <defs>
        <path id="DejaVuSans-34" d="M 2419 4116 
L 825 1625 
L 2419 1625 
L 2419 4116 
z
M 2253 4666 
L 3047 4666 
L 3047 1625 
L 3713 1625 
L 3713 1100 
L 3047 1100 
L 3047 0 
L 2419 0 
L 2419 1100 
L 313 1100 
L 313 1709 
L 2253 4666 
z
" transform="scale(0.015625)"/>
       </defs>
       <use xlink:href="#DejaVuSans-32"/>
       <use xlink:href="#DejaVuSans-30" x="63.623047"/>
       <use xlink:href="#DejaVuSans-32" x="127.246094"/>
       <use xlink:href="#DejaVuSans-34" x="190.869141"/>
      </g>
     </g>
    </g>
    <g id="text_7">
     <!-- Date -->
     <g transform="translate(421.129219 418.316562) scale(0.1 -0.1)">
      <defs>
       <path id="DejaVuSans-44" d="M 1259 4147 
L 1259 519 
L 2022 519 
Q 2988 519 3436 956 
Q 3884 1394 3884 2338 
Q 3884 3275 3436 3711 
Q 2988 4147 2022 4147 
L 1259 4147 
z
M 628 4666 
L 1925 4666 
Q 3281 4666 3915 4102 
Q 4550 3538 4550 2338 
Q 4550 1131 3912 565 
Q 3275 0 1925 0 
L 628 0 
L 628 4666 
z
" transform="scale(0.015625)"/>
       <path id="DejaVuSans-61" d="M 2194 1759 
Q 1497 1759 1228 1600 
Q 959 1441 959 1056 
Q 959 750 1161 570 
Q 1363 391 1709 391 
Q 2188 391 2477 730 
Q 2766 1069 2766 1631 
L 2766 1759 
L 2194 1759 
z
M 3341 1997 
L 3341 0 
L 2766 0 
L 2766 531 
Q 2569 213 2275 61 
Q 1981 -91 1556 -91 
Q 1019 -91 701 211 
Q 384 513 384 1019 
Q 384 1609 779 1909 
Q 1175 2209 1959 2209 
L 2766 2209 
L 2766 2266 
Q 2766 2663 2505 2880 
Q 2244 3097 1772 3097 
Q 1472 3097 1187 3025 
Q 903 2953 641 2809 
L 641 3341 
Q 956 3463 1253 3523 
Q 1550 3584 1831 3584 
Q 2591 3584 2966 3190 
Q 3341 2797 3341 1997 
z
" transform="scale(0.015625)"/>
       <path id="DejaVuSans-74" d="M 1172 4494 
L 1172 3500 
L 2356 3500 
L 2356 3053 
L 1172 3053 
L 1172 1153 
Q 1172 725 1289 603 
Q 1406 481 1766 481 
L 2356 481 
L 2356 0 
L 1766 0 
Q 1100 0 847 248 
Q 594 497 594 1153 
L 594 3053 
L 172 3053 
L 172 3500 
L 594 3500 
L 594 4494 
L 1172 4494 
z
" transform="scale(0.015625)"/>
       <path id="DejaVuSans-65" d="M 3597 1894 
L 3597 1613 
L 953 1613 
Q 991 1019 1311 708 
Q 1631 397 2203 397 
Q 2534 397 2845 478 
Q 3156 559 3463 722 
L 3463 178 
Q 3153 47 2828 -22 
Q 2503 -91 2169 -91 
Q 1331 -91 842 396 
Q 353 884 353 1716 
Q 353 2575 817 3079 
Q 1281 3584 2069 3584 
Q 2775 3584 3186 3129 
Q 3597 2675 3597 1894 
z
M 3022 2063 
Q 3016 2534 2758 2815 
Q 2500 3097 2075 3097 
Q 1594 3097 1305 2825 
Q 1016 2553 972 2059 
L 3022 2063 
z
" transform="scale(0.015625)"/>
      </defs>
      <use xlink:href="#DejaVuSans-44"/>
      <use xlink:href="#DejaVuSans-61" x="77.001953"/>
      <use xlink:href="#DejaVuSans-74" x="138.28125"/>
      <use xlink:href="#DejaVuSans-65" x="177.490234"/>
     </g>
    </g>
   </g>
   <g id="matplotlib.axis_2">
    <g id="ytick_1">
     <g id="line2d_13">
      <path d="M 52.94 382.04917 
L 813.22 382.04917 
" clip-path="url(#p85e65a85f0)" style="fill: none; stroke-dasharray: 1.85,0.8; stroke-dashoffset: 0; stroke: #b0b0b0; stroke-opacity: 0.5; stroke-width: 0.5"/>
     </g>
     <g id="line2d_14">
      <defs>
       <path id="md2b03356fb" d="M 0 0 
L -3.5 0 
" style="stroke: #000000; stroke-width: 0.8"/>
      </defs>
      <g>
       <use xlink:href="#md2b03356fb" x="52.94" y="382.04917" style="stroke: #000000; stroke-width: 0.8"/>
      </g>
     </g>
     <g id="text_8">
      <!-- −10 -->
      <g style="fill: #d62728" transform="translate(24.835313 385.848389) scale(0.1 -0.1)">
       <defs>
        <path id="DejaVuSans-2212" d="M 678 2272 
L 4684 2272 
L 4684 1741 
L 678 1741 
L 678 2272 
z
" transform="scale(0.015625)"/>
       </defs>
       <use xlink:href="#DejaVuSans-2212"/>
       <use xlink:href="#DejaVuSans-31" x="83.789062"/>
       <use xlink:href="#DejaVuSans-30" x="147.412109"/>
      </g>
     </g>
    </g>
    <g id="ytick_2">
     <g id="line2d_15">
      <path d="M 52.94 333.311566 
L 813.22 333.311566 
" clip-path="url(#p85e65a85f0)" style="fill: none; stroke-dasharray: 1.85,0.8; stroke-dashoffset: 0; stroke: #b0b0b0; stroke-opacity: 0.5; stroke-width: 0.5"/>
     </g>
     <g id="line2d_16">
      <g>
       <use xlink:href="#md2b03356fb" x="52.94" y="333.311566" style="stroke: #000000; stroke-width: 0.8"/>
      </g>
     </g>
     <g id="text_9">
      <!-- 0 -->
      <g style="fill: #d62728" transform="translate(39.5775 337.110785) scale(0.1 -0.1)">
       <use xlink:href="#DejaVuSans-30"/>
      </g>
     </g>
    </g>
    <g id="ytick_3">
     <g id="line2d_17">
      <path d="M 52.94 284.573962 
L 813.22 284.573962 
" clip-path="url(#p85e65a85f0)" style="fill: none; stroke-dasharray: 1.85,0.8; stroke-dashoffset: 0; stroke: #b0b0b0; stroke-opacity: 0.5; stroke-width: 0.5"/>
     </g>
     <g id="line2d_18">
      <g>
       <use xlink:href="#md2b03356fb" x="52.94" y="284.573962" style="stroke: #000000; stroke-width: 0.8"/>
      </g>
     </g>
     <g id="text_10">
      <!-- 10 -->
      <g style="fill: #d62728" transform="translate(33.215 288.373181) scale(0.1 -0.1)">
       <use xlink:href="#DejaVuSans-31"/>
       <use xlink:href="#DejaVuSans-30" x="63.623047"/>
      </g>
     </g>
    </g>
    <g id="ytick_4">
     <g id="line2d_19">
      <path d="M 52.94 235.836358 
L 813.22 235.836358 
" clip-path="url(#p85e65a85f0)" style="fill: none; stroke-dasharray: 1.85,0.8; stroke-dashoffset: 0; stroke: #b0b0b0; stroke-opacity: 0.5; stroke-width: 0.5"/>
     </g>
     <g id="line2d_20">
      <g>
       <use xlink:href="#md2b03356fb" x="52.94" y="235.836358" style="stroke: #000000; stroke-width: 0.8"/>
      </g>
     </g>
     <g id="text_11">
      <!-- 20 -->
      <g style="fill: #d62728" transform="translate(33.215 239.635577) scale(0.1 -0.1)">
       <use xlink:href="#DejaVuSans-32"/>
       <use xlink:href="#DejaVuSans-30" x="63.623047"/>
      </g>
     </g>
    </g>
    <g id="ytick_5">
     <g id="line2d_21">
      <path d="M 52.94 187.098754 
L 813.22 187.098754 
" clip-path="url(#p85e65a85f0)" style="fill: none; stroke-dasharray: 1.85,0.8; stroke-dashoffset: 0; stroke: #b0b0b0; stroke-opacity: 0.5; stroke-width: 0.5"/>
     </g>
     <g id="line2d_22">
      <g>
       <use xlink:href="#md2b03356fb" x="52.94" y="187.098754" style="stroke: #000000; stroke-width: 0.8"/>
      </g>
     </g>
     <g id="text_12">
      <!-- 30 -->
      <g style="fill: #d62728" transform="translate(33.215 190.897973) scale(0.1 -0.1)">
       <use xlink:href="#DejaVuSans-33"/>
       <use xlink:href="#DejaVuSans-30" x="63.623047"/>
      </g>
     </g>
    </g>
    <g id="ytick_6">
     <g id="line2d_23">
      <path d="M 52.94 138.36115 
L 813.22 138.36115 
" clip-path="url(#p85e65a85f0)" style="fill: none; stroke-dasharray: 1.85,0.8; stroke-dashoffset: 0; stroke: #b0b0b0; stroke-opacity: 0.5; stroke-width: 0.5"/>
     </g>
     <g id="line2d_24">
      <g>
       <use xlink:href="#md2b03356fb" x="52.94" y="138.36115" style="stroke: #000000; stroke-width: 0.8"/>
      </g>
     </g>
     <g id="text_13">
      <!-- 40 -->
      <g style="fill: #d62728" transform="translate(33.215 142.160368) scale(0.1 -0.1)">
       <use xlink:href="#DejaVuSans-34"/>
       <use xlink:href="#DejaVuSans-30" x="63.623047"/>
      </g>
     </g>
    </g>
    <g id="ytick_7">
     <g id="line2d_25">
      <path d="M 52.94 89.623546 
L 813.22 89.623546 
" clip-path="url(#p85e65a85f0)" style="fill: none; stroke-dasharray: 1.85,0.8; stroke-dashoffset: 0; stroke: #b0b0b0; stroke-opacity: 0.5; stroke-width: 0.5"/>
     </g>
     <g id="line2d_26">
      <g>
       <use xlink:href="#md2b03356fb" x="52.94" y="89.623546" style="stroke: #000000; stroke-width: 0.8"/>
      </g>
     </g>
     <g id="text_14">
      <!-- 50 -->
      <g style="fill: #d62728" transform="translate(33.215 93.422764) scale(0.1 -0.1)">
       <defs>
        <path id="DejaVuSans-35" d="M 691 4666 
L 3169 4666 
L 3169 4134 
L 1269 4134 
L 1269 2991 
Q 1406 3038 1543 3061 
Q 1681 3084 1819 3084 
Q 2600 3084 3056 2656 
Q 3513 2228 3513 1497 
Q 3513 744 3044 326 
Q 2575 -91 1722 -91 
Q 1428 -91 1123 -41 
Q 819 9 494 109 
L 494 744 
Q 775 591 1075 516 
Q 1375 441 1709 441 
Q 2250 441 2565 725 
Q 2881 1009 2881 1497 
Q 2881 1984 2565 2268 
Q 2250 2553 1709 2553 
Q 1456 2553 1204 2497 
Q 953 2441 691 2322 
L 691 4666 
z
" transform="scale(0.015625)"/>
       </defs>
       <use xlink:href="#DejaVuSans-35"/>
       <use xlink:href="#DejaVuSans-30" x="63.623047"/>
      </g>
     </g>
    </g>
    <g id="ytick_8">
     <g id="line2d_27">
      <path d="M 52.94 40.885941 
L 813.22 40.885941 
" clip-path="url(#p85e65a85f0)" style="fill: none; stroke-dasharray: 1.85,0.8; stroke-dashoffset: 0; stroke: #b0b0b0; stroke-opacity: 0.5; stroke-width: 0.5"/>
     </g>
     <g id="line2d_28">
      <g>
       <use xlink:href="#md2b03356fb" x="52.94" y="40.885941" style="stroke: #000000; stroke-width: 0.8"/>
      </g>
     </g>
     <g id="text_15">
      <!-- 60 -->
      <g style="fill: #d62728" transform="translate(33.215 44.68516) scale(0.1 -0.1)">
       <defs>
        <path id="DejaVuSans-36" d="M 2113 2584 
Q 1688 2584 1439 2293 
Q 1191 2003 1191 1497 
Q 1191 994 1439 701 
Q 1688 409 2113 409 
Q 2538 409 2786 701 
Q 3034 994 3034 1497 
Q 3034 2003 2786 2293 
Q 2538 2584 2113 2584 
z
M 3366 4563 
L 3366 3988 
Q 3128 4100 2886 4159 
Q 2644 4219 2406 4219 
Q 1781 4219 1451 3797 
Q 1122 3375 1075 2522 
Q 1259 2794 1537 2939 
Q 1816 3084 2150 3084 
Q 2853 3084 3261 2657 
Q 3669 2231 3669 1497 
Q 3669 778 3244 343 
Q 2819 -91 2113 -91 
Q 1303 -91 875 529 
Q 447 1150 447 2328 
Q 447 3434 972 4092 
Q 1497 4750 2381 4750 
Q 2619 4750 2861 4703 
Q 3103 4656 3366 4563 
z
" transform="scale(0.015625)"/>
       </defs>
       <use xlink:href="#DejaVuSans-36"/>
       <use xlink:href="#DejaVuSans-30" x="63.623047"/>
      </g>
     </g>
    </g>
    <g id="text_16">
     <!-- Returns (%) -->
     <g style="fill: #d62728" transform="translate(18.755625 237.8975) rotate(-90) scale(0.1 -0.1)">
      <defs>
       <path id="DejaVuSans-52" d="M 2841 2188 
Q 3044 2119 3236 1894 
Q 3428 1669 3622 1275 
L 4263 0 
L 3584 0 
L 2988 1197 
Q 2756 1666 2539 1819 
Q 2322 1972 1947 1972 
L 1259 1972 
L 1259 0 
L 628 0 
L 628 4666 
L 2053 4666 
Q 2853 4666 3247 4331 
Q 3641 3997 3641 3322 
Q 3641 2881 3436 2590 
Q 3231 2300 2841 2188 
z
M 1259 4147 
L 1259 2491 
L 2053 2491 
Q 2509 2491 2742 2702 
Q 2975 2913 2975 3322 
Q 2975 3731 2742 3939 
Q 2509 4147 2053 4147 
L 1259 4147 
z
" transform="scale(0.015625)"/>
       <path id="DejaVuSans-75" d="M 544 1381 
L 544 3500 
L 1119 3500 
L 1119 1403 
Q 1119 906 1312 657 
Q 1506 409 1894 409 
Q 2359 409 2629 706 
Q 2900 1003 2900 1516 
L 2900 3500 
L 3475 3500 
L 3475 0 
L 2900 0 
L 2900 538 
Q 2691 219 2414 64 
Q 2138 -91 1772 -91 
Q 1169 -91 856 284 
Q 544 659 544 1381 
z
M 1991 3584 
L 1991 3584 
z
" transform="scale(0.015625)"/>
       <path id="DejaVuSans-72" d="M 2631 2963 
Q 2534 3019 2420 3045 
Q 2306 3072 2169 3072 
Q 1681 3072 1420 2755 
Q 1159 2438 1159 1844 
L 1159 0 
L 581 0 
L 581 3500 
L 1159 3500 
L 1159 2956 
Q 1341 3275 1631 3429 
Q 1922 3584 2338 3584 
Q 2397 3584 2469 3576 
Q 2541 3569 2628 3553 
L 2631 2963 
z
" transform="scale(0.015625)"/>
       <path id="DejaVuSans-6e" d="M 3513 2113 
L 3513 0 
L 2938 0 
L 2938 2094 
Q 2938 2591 2744 2837 
Q 2550 3084 2163 3084 
Q 1697 3084 1428 2787 
Q 1159 2491 1159 1978 
L 1159 0 
L 581 0 
L 581 3500 
L 1159 3500 
L 1159 2956 
Q 1366 3272 1645 3428 
Q 1925 3584 2291 3584 
Q 2894 3584 3203 3211 
Q 3513 2838 3513 2113 
z
" transform="scale(0.015625)"/>
       <path id="DejaVuSans-73" d="M 2834 3397 
L 2834 2853 
Q 2591 2978 2328 3040 
Q 2066 3103 1784 3103 
Q 1356 3103 1142 2972 
Q 928 2841 928 2578 
Q 928 2378 1081 2264 
Q 1234 2150 1697 2047 
L 1894 2003 
Q 2506 1872 2764 1633 
Q 3022 1394 3022 966 
Q 3022 478 2636 193 
Q 2250 -91 1575 -91 
Q 1294 -91 989 -36 
Q 684 19 347 128 
L 347 722 
Q 666 556 975 473 
Q 1284 391 1588 391 
Q 1994 391 2212 530 
Q 2431 669 2431 922 
Q 2431 1156 2273 1281 
Q 2116 1406 1581 1522 
L 1381 1569 
Q 847 1681 609 1914 
Q 372 2147 372 2553 
Q 372 3047 722 3315 
Q 1072 3584 1716 3584 
Q 2034 3584 2315 3537 
Q 2597 3491 2834 3397 
z
" transform="scale(0.015625)"/>
       <path id="DejaVuSans-20" transform="scale(0.015625)"/>
       <path id="DejaVuSans-28" d="M 1984 4856 
Q 1566 4138 1362 3434 
Q 1159 2731 1159 2009 
Q 1159 1288 1364 580 
Q 1569 -128 1984 -844 
L 1484 -844 
Q 1016 -109 783 600 
Q 550 1309 550 2009 
Q 550 2706 781 3412 
Q 1013 4119 1484 4856 
L 1984 4856 
z
" transform="scale(0.015625)"/>
       <path id="DejaVuSans-25" d="M 4653 2053 
Q 4381 2053 4226 1822 
Q 4072 1591 4072 1178 
Q 4072 772 4226 539 
Q 4381 306 4653 306 
Q 4919 306 5073 539 
Q 5228 772 5228 1178 
Q 5228 1588 5073 1820 
Q 4919 2053 4653 2053 
z
M 4653 2450 
Q 5147 2450 5437 2106 
Q 5728 1763 5728 1178 
Q 5728 594 5436 251 
Q 5144 -91 4653 -91 
Q 4153 -91 3862 251 
Q 3572 594 3572 1178 
Q 3572 1766 3864 2108 
Q 4156 2450 4653 2450 
z
M 1428 4353 
Q 1159 4353 1004 4120 
Q 850 3888 850 3481 
Q 850 3069 1003 2837 
Q 1156 2606 1428 2606 
Q 1700 2606 1854 2837 
Q 2009 3069 2009 3481 
Q 2009 3884 1853 4118 
Q 1697 4353 1428 4353 
z
M 4250 4750 
L 4750 4750 
L 1831 -91 
L 1331 -91 
L 4250 4750 
z
M 1428 4750 
Q 1922 4750 2215 4408 
Q 2509 4066 2509 3481 
Q 2509 2891 2217 2550 
Q 1925 2209 1428 2209 
Q 931 2209 642 2551 
Q 353 2894 353 3481 
Q 353 4063 643 4406 
Q 934 4750 1428 4750 
z
" transform="scale(0.015625)"/>
       <path id="DejaVuSans-29" d="M 513 4856 
L 1013 4856 
Q 1481 4119 1714 3412 
Q 1947 2706 1947 2009 
Q 1947 1309 1714 600 
Q 1481 -109 1013 -844 
L 513 -844 
Q 928 -128 1133 580 
Q 1338 1288 1338 2009 
Q 1338 2731 1133 3434 
Q 928 4138 513 4856 
z
" transform="scale(0.015625)"/>
      </defs>
      <use xlink:href="#DejaVuSans-52"/>
      <use xlink:href="#DejaVuSans-65" x="64.982422"/>
      <use xlink:href="#DejaVuSans-74" x="126.505859"/>
      <use xlink:href="#DejaVuSans-75" x="165.714844"/>
      <use xlink:href="#DejaVuSans-72" x="229.09375"/>
      <use xlink:href="#DejaVuSans-6e" x="268.457031"/>
      <use xlink:href="#DejaVuSans-73" x="331.835938"/>
      <use xlink:href="#DejaVuSans-20" x="383.935547"/>
      <use xlink:href="#DejaVuSans-28" x="415.722656"/>
      <use xlink:href="#DejaVuSans-25" x="454.736328"/>
      <use xlink:href="#DejaVuSans-29" x="549.755859"/>
     </g>
    </g>
   </g>
   <g id="line2d_29">
    <path d="M 87.498182 333.311566 
L 87.877525 333.311566 
L 88.256869 316.174782 
L 134.916104 316.174782 
L 135.295448 316.852608 
L 135.674791 318.244134 
L 136.054134 316.01807 
L 137.192164 328.543691 
L 137.571508 324.159535 
L 137.950851 321.183897 
L 138.330195 316.782748 
L 138.709538 319.671533 
L 139.847568 323.011573 
L 140.226911 318.661403 
L 140.606255 320.105795 
L 140.985598 326.351613 
L 141.364942 325.133791 
L 142.882315 329.797386 
L 143.261659 332.997706 
L 143.641002 331.902611 
L 144.020345 338.112555 
L 145.158375 339.713659 
L 145.537719 329.170538 
L 146.675749 316.592051 
L 147.813779 314.277246 
L 148.193122 314.364099 
L 148.572466 315.51206 
L 148.951809 313.199144 
L 149.331153 313.842985 
L 150.469183 313.372849 
L 150.848526 308.629955 
L 171.712412 308.629955 
L 172.091755 300.732981 
L 172.471099 316.069575 
L 172.850442 314.762306 
L 173.229785 307.271233 
L 174.367816 301.104581 
L 174.747159 305.133105 
L 175.126502 300.910206 
L 175.505846 301.104581 
L 175.885189 314.531723 
L 177.023219 308.894839 
L 177.402563 310.857649 
L 177.781906 307.412251 
L 178.161249 300.732981 
L 178.540593 300.750132 
L 180.057966 304.037362 
L 180.816653 291.281006 
L 181.195996 290.928462 
L 182.71337 290.680729 
L 189.162207 290.680729 
L 190.300238 287.967315 
L 190.679581 294.40904 
L 191.058924 303.828435 
L 191.438268 299.529484 
L 191.817611 292.429033 
L 192.955641 294.801595 
L 193.334985 302.938007 
L 194.473015 289.091361 
L 195.611045 289.449448 
L 195.990388 284.22177 
L 196.369732 285.202199 
L 196.749075 283.704746 
L 197.128418 286.040925 
L 198.266448 282.205379 
L 198.645792 284.078152 
L 199.025135 282.527083 
L 199.404479 281.563888 
L 199.783822 279.423029 
L 200.921852 276.389827 
L 201.301195 276.567912 
L 201.680539 274.854076 
L 202.059882 276.460678 
L 202.439226 271.142999 
L 203.577256 269.074907 
L 203.956599 269.733633 
L 204.335943 269.484696 
L 204.715286 267.521923 
L 205.094629 266.290642 
L 206.232659 267.200219 
L 206.612003 266.256173 
L 206.991346 265.951704 
L 207.37069 265.166595 
L 207.750033 261.045729 
L 208.888063 260.794877 
L 209.267406 260.921261 
L 209.64675 262.989353 
L 210.026093 263.793611 
L 210.405437 262.596799 
L 211.92281 257.263801 
L 212.302153 254.550387 
L 213.06084 256.674011 
L 214.19887 261.401901 
L 214.578214 265.256595 
L 214.957557 261.813604 
L 215.336901 260.63594 
L 215.716244 255.639965 
L 217.233617 257.905292 
L 217.612961 256.478692 
L 217.992304 251.482716 
L 218.371648 251.285482 
L 219.509678 247.193339 
L 220.268364 247.105254 
L 221.027051 241.69949 
L 222.544425 241.21502 
L 223.303111 238.216286 
L 223.682455 238.32352 
L 224.820485 241.465872 
L 225.199828 240.15608 
L 225.958515 234.623933 
L 226.337858 239.131608 
L 227.475889 236.833728 
L 227.855232 238.430755 
L 228.234575 235.468404 
L 228.613919 231.517964 
L 228.993262 233.151374 
L 230.131292 229.040083 
L 230.510636 229.955405 
L 230.889979 228.626464 
L 231.269322 223.707085 
L 231.648666 221.732823 
L 233.166039 223.02538 
L 233.545383 222.898997 
L 233.924726 222.163675 
L 234.304069 227.603907 
L 235.4421 237.228197 
L 235.821443 231.01626 
L 236.200786 231.427964 
L 236.58013 229.650936 
L 236.959473 240.15608 
L 238.097503 235.989257 
L 238.85619 220.313881 
L 239.235533 218.016001 
L 239.614877 221.282821 
L 241.13225 215.735354 
L 241.511594 211.855766 
L 241.890937 212.610237 
L 242.27028 211.731297 
L 243.787654 213.184707 
L 244.166997 210.275973 
L 244.546341 212.773003 
L 246.063714 239.095225 
L 246.443058 256.530394 
L 246.822401 258.703806 
L 247.201744 284.202621 
L 247.581088 289.229234 
L 248.719118 263.211482 
L 249.098461 279.191326 
L 249.477805 255.400603 
L 249.857148 275.133652 
L 250.236491 284.219855 
L 251.374522 327.134689 
L 251.753865 300.649701 
L 252.133208 325.932131 
L 252.512552 373.532727 
L 252.891895 332.971306 
L 254.029925 332.971306 
L 254.409269 301.957796 
L 254.788612 301.957796 
L 255.167955 300.044941 
L 260.099419 300.044941 
L 260.478763 287.831891 
L 291.964263 287.831891 
L 292.343606 282.247571 
L 292.72295 295.090401 
L 293.86098 287.203839 
L 294.240323 280.170028 
L 294.99901 273.609557 
L 296.516384 265.21466 
L 296.895727 270.938956 
L 297.27507 266.837281 
L 297.654414 269.647858 
L 298.033757 264.098533 
L 299.171787 269.036383 
L 299.930474 256.66321 
L 300.309817 258.619195 
L 301.827191 252.301842 
L 302.206534 251.272279 
L 302.585878 247.920214 
L 302.965221 254.849043 
L 303.344564 258.460801 
L 304.482595 254.325974 
L 304.861938 257.816173 
L 305.241281 251.045738 
L 305.620625 252.999882 
L 305.999968 248.531689 
L 307.137998 244.534996 
L 307.517342 242.459294 
L 308.276028 234.762437 
L 308.655372 234.34435 
L 309.793402 232.581753 
L 310.172745 237.503027 
L 310.552089 229.371506 
L 310.931432 230.382651 
L 311.310775 230.436063 
L 312.448806 228.53349 
L 312.828149 227.277386 
L 313.207492 229.684611 
L 313.966179 225.7929 
L 315.483553 217.696373 
L 315.862896 211.570566 
L 316.242239 210.244474 
L 321.553047 210.244474 
L 321.93239 209.952372 
L 323.449763 198.681463 
L 323.829107 201.158565 
L 324.20845 206.474053 
L 324.587794 213.667064 
L 325.725824 220.421923 
L 326.105167 214.341589 
L 326.484511 228.450885 
L 326.863854 226.896211 
L 327.243197 217.237627 
L 328.381227 207.213916 
L 328.760571 210.598072 
L 329.519258 201.946471 
L 329.898601 207.780825 
L 331.036631 197.080667 
L 331.415974 197.080667 
L 331.795318 186.245323 
L 339.382185 186.245323 
L 339.761529 207.831596 
L 340.140872 201.718791 
L 340.520216 208.316615 
L 341.658246 201.328027 
L 342.416932 176.338769 
L 342.796276 163.742031 
L 385.282734 163.742031 
L 385.662078 167.182665 
L 386.800108 151.334624 
L 387.179451 156.486625 
L 387.938138 173.462448 
L 388.317481 161.534797 
L 389.455511 164.751665 
L 389.834855 155.511003 
L 390.214198 151.438452 
L 390.593542 144.558974 
L 390.972885 143.497425 
L 392.110915 139.390862 
L 392.490258 140.348583 
L 392.869602 138.123449 
L 416.388891 138.123449 
L 416.768235 139.971198 
L 417.147578 132.776329 
L 417.526921 133.17375 
L 418.664952 126.257592 
L 419.044295 127.759534 
L 419.423638 126.489851 
L 419.802982 126.126838 
L 420.182325 124.805542 
L 421.699699 125.350921 
L 422.079042 124.194787 
L 422.458385 126.852863 
L 422.837729 120.531976 
L 423.975759 121.125527 
L 424.355102 121.092839 
L 424.734446 122.214564 
L 425.113789 118.830463 
L 425.493132 117.672609 
L 426.631163 115.983139 
L 427.010506 117.357769 
L 427.389849 121.247678 
L 427.769193 121.462733 
L 428.148536 130.863203 
L 429.66591 117.805083 
L 430.045253 118.217988 
L 430.424596 114.147433 
L 430.80394 111.547852 
L 431.94197 110.042469 
L 432.321313 109.727629 
L 432.700657 109.099669 
L 433.08 105.077287 
L 433.459343 99.632102 
L 434.976717 101.469529 
L 435.35606 98.52242 
L 435.735404 104.315133 
L 436.114747 96.702197 
L 437.252777 94.021756 
L 437.632121 96.569723 
L 438.011464 95.609719 
L 438.390807 98.092311 
L 438.770151 103.554699 
L 439.908181 114.262702 
L 440.287524 104.017497 
L 440.666868 98.2093 
L 441.046211 96.636821 
L 441.425554 89.503887 
L 442.563584 87.54947 
L 442.942928 90.894 
L 443.322271 91.291421 
L 443.701615 88.046676 
L 444.080958 91.754219 
L 445.218988 93.226914 
L 445.598332 87.416996 
L 445.977675 90.909484 
L 446.357018 86.374411 
L 446.736362 85.101288 
L 447.874392 85.613978 
L 448.253735 84.753759 
L 449.391765 79.423844 
L 450.529795 77.52104 
L 450.909139 82.568804 
L 451.288482 90.529268 
L 451.667826 89.453994 
L 452.047169 83.628593 
L 453.185199 77.2062 
L 453.943886 74.358876 
L 454.323229 78.761476 
L 454.702573 72.241018 
L 455.840603 68.913692 
L 456.219946 69.725738 
L 456.599289 69.393694 
L 456.978633 67.143362 
L 457.357976 67.473686 
L 458.87535 69.908105 
L 459.254693 70.900797 
L 459.634037 74.243607 
L 460.01338 79.936534 
L 461.15141 78.216097 
L 461.530753 82.171383 
L 461.910097 76.031141 
L 462.28944 77.421255 
L 462.668784 84.586877 
L 463.806814 96.999833 
L 464.186157 97.414458 
L 464.944844 81.526219 
L 465.324187 80.108578 
L 466.462217 82.43461 
L 466.841561 97.170156 
L 467.220904 95.924559 
L 467.600247 104.896641 
L 467.979591 96.373594 
L 469.117621 105.775784 
L 469.496964 98.283279 
L 469.876308 95.210578 
L 470.255651 89.195929 
L 470.634995 90.276363 
L 472.152368 97.552093 
L 472.531711 94.978319 
L 472.911055 82.551599 
L 473.290398 76.886199 
L 489.22282 76.886199 
L 490.36085 67.39152 
L 490.740194 81.713803 
L 491.119537 90.337273 
L 491.49888 79.081781 
L 491.878224 85.735414 
L 493.016254 76.886199 
L 493.395597 61.433517 
L 493.774941 59.430237 
L 494.154284 64.565524 
L 494.533627 57.31492 
L 495.671658 64.073901 
L 496.051001 69.419883 
L 496.430344 57.610897 
L 497.189031 72.10876 
L 498.327061 80.514845 
L 498.706405 67.329649 
L 499.085748 59.732903 
L 499.465091 55.0675 
L 500.982465 44.101297 
L 501.361808 44.69994 
L 501.741152 43.890601 
L 502.499838 48.004182 
L 503.637868 43.387273 
L 504.017212 43.646462 
L 504.396555 58.793133 
L 504.775899 59.360005 
L 505.155242 62.405058 
L 506.293272 63.831433 
L 506.672616 56.363445 
L 507.051959 54.338427 
L 507.431302 64.851468 
L 507.810646 64.592279 
L 509.328019 77.956399 
L 510.086706 93.7987 
L 510.466049 107.957109 
L 511.604079 105.462206 
L 511.983423 113.691039 
L 512.362766 115.326438 
L 512.74211 119.003578 
L 513.121453 101.850282 
L 514.259483 88.857387 
L 515.397513 88.857387 
L 515.776857 85.188203 
L 520.708321 85.188203 
L 521.087664 90.262005 
L 522.605037 98.183013 
L 522.984381 111.347237 
L 523.363724 100.193517 
L 523.743068 84.334214 
L 525.260441 84.334214 
L 525.639784 70.902745 
L 526.398471 70.902745 
L 527.536501 92.928393 
L 529.053875 92.928393 
L 530.191905 98.428276 
L 540.81352 98.428276 
L 541.192863 101.191695 
L 541.572206 92.773611 
L 541.95155 101.763552 
L 543.468923 101.502853 
L 543.848267 89.895821 
L 544.22761 90.550094 
L 544.606953 101.126099 
L 544.986297 121.250448 
L 546.124327 116.934604 
L 546.50367 137.417205 
L 546.883014 135.358517 
L 547.262357 118.143915 
L 547.6417 144.496468 
L 548.779731 140.146985 
L 549.159074 136.993357 
L 549.538417 116.411522 
L 549.917761 141.406754 
L 550.297104 145.068326 
L 554.849225 145.068326 
L 555.228568 149.290266 
L 555.607911 149.290266 
L 556.745942 136.74798 
L 565.470839 136.74798 
L 565.850183 159.223469 
L 566.229526 158.016322 
L 567.7469 141.164327 
L 568.126243 142.33635 
L 570.402303 142.33635 
L 570.781647 142.816408 
L 592.783563 142.816408 
L 593.921593 146.892224 
L 594.300936 154.613746 
L 594.680279 159.623178 
L 595.059623 157.359973 
L 595.438966 164.448275 
L 596.95634 167.061372 
L 597.335683 155.229898 
L 597.715026 151.036313 
L 598.09437 140.353508 
L 599.2324 133.014307 
L 599.611743 163.017985 
L 599.991087 160.505588 
L 600.37043 168.12641 
L 600.749773 173.069276 
L 601.887804 168.027416 
L 602.267147 175.697734 
L 602.64649 186.698002 
L 603.025834 192.055618 
L 603.405177 202.489231 
L 604.922551 210.157842 
L 605.301894 198.297352 
L 606.060581 220.661434 
L 607.198611 204.788278 
L 607.577954 185.936773 
L 608.336641 185.936773 
L 608.715984 203.630641 
L 632.614617 203.630641 
L 633.752647 194.978337 
L 634.131991 189.983619 
L 634.511334 193.763922 
L 634.890678 209.293127 
L 635.270021 216.759703 
L 636.408051 221.77992 
L 636.787394 221.08984 
L 637.166738 212.147479 
L 637.546081 220.43004 
L 637.925425 217.309537 
L 639.442798 219.629992 
L 639.822142 226.924447 
L 640.201485 216.649737 
L 640.580828 217.905588 
L 642.098202 220.540006 
L 642.477545 215.865627 
L 642.856889 222.736152 
L 643.236232 209.089131 
L 644.374262 209.51306 
L 644.753605 205.120769 
L 645.132949 197.450196 
L 645.891636 192.555883 
L 647.409009 193.717705 
L 647.788352 203.598766 
L 648.167696 207.991058 
L 648.547039 196.744178 
L 649.685069 189.34135 
L 650.064413 189.763686 
L 650.443756 189.653719 
L 650.823099 182.721039 
L 651.202443 181.136882 
L 652.340473 189.261664 
L 653.478503 163.867335 
L 653.857847 170.627894 
L 654.995877 174.626537 
L 655.37522 166.281821 
L 656.133907 178.908861 
L 656.51325 177.512763 
L 657.65128 169.952157 
L 658.030624 170.297994 
L 658.409967 168.227752 
L 658.78931 177.012335 
L 659.168654 178.798895 
L 660.686027 191.521559 
L 661.065371 192.587757 
L 661.444714 189.277602 
L 661.824057 196.101909 
L 662.962088 193.921701 
L 663.720774 198.548269 
L 664.100118 193.653956 
L 664.479461 183.599178 
L 665.617491 182.878817 
L 665.996835 192.933594 
L 666.376178 191.835522 
L 667.134865 212.147479 
L 668.272895 213.419267 
L 668.652238 203.206711 
L 669.031582 207.002952 
L 669.410925 196.446153 
L 669.790268 203.850574 
L 670.928299 197.732284 
L 671.307642 189.639376 
L 671.686985 200.210518 
L 672.066329 198.639111 
L 672.445672 194.527314 
L 673.583702 193.440397 
L 673.963046 194.607 
L 674.342389 185.549891 
L 674.721732 182.021396 
L 675.101076 173.058317 
L 676.239106 170.758579 
L 676.618449 174.083078 
L 676.997793 175.609862 
L 677.377136 173.168283 
L 678.89451 172.428797 
L 679.273853 172.444735 
L 679.653196 174.870376 
L 680.03254 166.458724 
L 680.411883 168.065193 
L 681.549913 165.655489 
L 681.929257 165.277777 
L 682.3086 165.323995 
L 682.687943 168.994331 
L 683.067287 168.632557 
L 684.205317 167.813385 
L 684.58466 178.177344 
L 684.964004 180.792638 
L 685.343347 168.097067 
L 685.72269 162.694358 
L 686.86072 163.166099 
L 687.240064 170.522709 
L 687.998751 179.705721 
L 688.378094 167.987101 
L 689.516124 167.63967 
L 689.895468 170.302775 
L 690.274811 167.561578 
L 691.033498 169.38798 
L 692.171528 167.230084 
L 692.550871 171.593688 
L 693.309558 157.353803 
L 693.688901 158.314816 
L 694.826931 158.125163 
L 695.206275 165.371807 
L 695.585618 170.286838 
L 695.964962 164.552635 
L 696.344305 155.936986 
L 697.861678 155.811083 
L 698.241022 159.905348 
L 698.620365 153.101759 
L 698.999709 143.587253 
L 700.137739 144.752262 
L 700.517082 143.319508 
L 700.896426 145.549122 
L 701.275769 141.646102 
L 701.655112 140.286659 
L 702.793142 134.109402 
L 703.172486 129.621487 
L 703.551829 128.816659 
L 703.931173 120.267947 
L 704.310516 122.763712 
L 705.827889 126.065899 
L 706.207233 129.733048 
L 706.586576 127.235689 
L 706.96592 132.514089 
L 708.10395 135.421033 
L 708.483293 127.836521 
L 708.862636 127.614994 
L 709.24198 124.849891 
L 709.621323 116.317116 
L 710.759353 115.306697 
L 711.51804 116.522706 
L 711.897383 122.290377 
L 712.276727 124.075343 
L 713.414757 122.226628 
L 714.173444 112.256318 
L 714.552787 106.220902 
L 714.932131 106.931701 
L 716.070161 104.276564 
L 716.449504 99.079444 
L 716.828847 97.751875 
L 717.208191 102.254134 
L 717.587534 102.270071 
L 718.725564 99.093787 
L 719.104908 97.151043 
L 719.484251 97.087294 
L 719.863594 101.764862 
L 720.242938 94.970835 
L 721.380968 93.453614 
L 721.760311 95.476044 
L 722.139655 105.604132 
L 722.518998 107.658437 
L 722.898341 110.976561 
L 724.036372 104.703681 
L 724.415715 107.706248 
L 724.795058 112.525657 
L 725.174402 112.208506 
L 725.553745 112.635623 
L 726.691775 108.844164 
L 727.071119 116.902011 
L 727.829805 127.535308 
L 728.209149 127.409405 
L 729.347179 122.731837 
L 729.726522 124.723987 
L 730.105866 117.043852 
L 730.485209 126.493016 
L 730.864552 121.531766 
L 732.002583 117.313191 
L 732.381926 107.153228 
L 732.761269 104.024756 
L 733.140613 105.288576 
L 733.519956 103.771355 
L 735.03733 106.852015 
L 735.416673 111.814858 
L 735.796016 113.773539 
L 736.17536 112.904962 
L 737.31339 108.117428 
L 737.692733 111.972636 
L 738.072077 111.308055 
L 738.45142 104.973019 
L 738.830763 114.200656 
L 739.968794 112.983054 
L 740.348137 114.564024 
L 740.72748 121.248084 
L 741.106824 132.702148 
L 741.486167 134.346866 
L 742.624197 131.502077 
L 743.003541 141.585541 
L 743.382884 141.411825 
L 745.279601 141.411825 
L 745.658944 150.460704 
L 754.004499 150.460704 
L 754.383842 158.544635 
L 754.763185 161.579317 
L 755.901215 153.752019 
L 778.661818 153.752019 
L 778.661818 153.752019 
" clip-path="url(#p85e65a85f0)" style="fill: none; stroke: #d62728; stroke-width: 1.5; stroke-linecap: square"/>
   </g>
   <g id="patch_3">
    <path d="M 52.94 390.04 
L 52.94 26.88 
" style="fill: none; stroke: #000000; stroke-width: 0.8; stroke-linejoin: miter; stroke-linecap: square"/>
   </g>
   <g id="patch_4">
    <path d="M 813.22 390.04 
L 813.22 26.88 
" style="fill: none; stroke: #000000; stroke-width: 0.8; stroke-linejoin: miter; stroke-linecap: square"/>
   </g>
   <g id="patch_5">
    <path d="M 52.94 390.04 
L 813.22 390.04 
" style="fill: none; stroke: #000000; stroke-width: 0.8; stroke-linejoin: miter; stroke-linecap: square"/>
   </g>
   <g id="patch_6">
    <path d="M 52.94 26.88 
L 813.22 26.88 
" style="fill: none; stroke: #000000; stroke-width: 0.8; stroke-linejoin: miter; stroke-linecap: square"/>
   </g>
  </g>
  <g id="axes_2">
   <g id="matplotlib.axis_3">
    <g id="ytick_9">
     <g id="line2d_30">
      <defs>
       <path id="m2beb156832" d="M 0 0 
L 3.5 0 
" style="stroke: #000000; stroke-width: 0.8"/>
      </defs>
      <g>
       <use xlink:href="#m2beb156832" x="813.22" y="386.642877" style="stroke: #000000; stroke-width: 0.8"/>
      </g>
     </g>
     <g id="text_17">
      <!-- 200 -->
      <g style="fill: #1f77b4" transform="translate(820.22 390.442096) scale(0.1 -0.1)">
       <use xlink:href="#DejaVuSans-32"/>
       <use xlink:href="#DejaVuSans-30" x="63.623047"/>
       <use xlink:href="#DejaVuSans-30" x="127.246094"/>
      </g>
     </g>
    </g>
    <g id="ytick_10">
     <g id="line2d_31">
      <g>
       <use xlink:href="#m2beb156832" x="813.22" y="325.127536" style="stroke: #000000; stroke-width: 0.8"/>
      </g>
     </g>
     <g id="text_18">
      <!-- 250 -->
      <g style="fill: #1f77b4" transform="translate(820.22 328.926754) scale(0.1 -0.1)">
       <use xlink:href="#DejaVuSans-32"/>
       <use xlink:href="#DejaVuSans-35" x="63.623047"/>
       <use xlink:href="#DejaVuSans-30" x="127.246094"/>
      </g>
     </g>
    </g>
    <g id="ytick_11">
     <g id="line2d_32">
      <g>
       <use xlink:href="#m2beb156832" x="813.22" y="263.612194" style="stroke: #000000; stroke-width: 0.8"/>
      </g>
     </g>
     <g id="text_19">
      <!-- 300 -->
      <g style="fill: #1f77b4" transform="translate(820.22 267.411413) scale(0.1 -0.1)">
       <use xlink:href="#DejaVuSans-33"/>
       <use xlink:href="#DejaVuSans-30" x="63.623047"/>
       <use xlink:href="#DejaVuSans-30" x="127.246094"/>
      </g>
     </g>
    </g>
    <g id="ytick_12">
     <g id="line2d_33">
      <g>
       <use xlink:href="#m2beb156832" x="813.22" y="202.096853" style="stroke: #000000; stroke-width: 0.8"/>
      </g>
     </g>
     <g id="text_20">
      <!-- 350 -->
      <g style="fill: #1f77b4" transform="translate(820.22 205.896072) scale(0.1 -0.1)">
       <use xlink:href="#DejaVuSans-33"/>
       <use xlink:href="#DejaVuSans-35" x="63.623047"/>
       <use xlink:href="#DejaVuSans-30" x="127.246094"/>
      </g>
     </g>
    </g>
    <g id="ytick_13">
     <g id="line2d_34">
      <g>
       <use xlink:href="#m2beb156832" x="813.22" y="140.581512" style="stroke: #000000; stroke-width: 0.8"/>
      </g>
     </g>
     <g id="text_21">
      <!-- 400 -->
      <g style="fill: #1f77b4" transform="translate(820.22 144.380731) scale(0.1 -0.1)">
       <use xlink:href="#DejaVuSans-34"/>
       <use xlink:href="#DejaVuSans-30" x="63.623047"/>
       <use xlink:href="#DejaVuSans-30" x="127.246094"/>
      </g>
     </g>
    </g>
    <g id="ytick_14">
     <g id="line2d_35">
      <g>
       <use xlink:href="#m2beb156832" x="813.22" y="79.066171" style="stroke: #000000; stroke-width: 0.8"/>
      </g>
     </g>
     <g id="text_22">
      <!-- 450 -->
      <g style="fill: #1f77b4" transform="translate(820.22 82.865389) scale(0.1 -0.1)">
       <use xlink:href="#DejaVuSans-34"/>
       <use xlink:href="#DejaVuSans-35" x="63.623047"/>
       <use xlink:href="#DejaVuSans-30" x="127.246094"/>
      </g>
     </g>
    </g>
    <g id="text_23">
     <!-- Close Price -->
     <g style="fill: #1f77b4" transform="translate(850.905938 235.867812) rotate(-90) scale(0.1 -0.1)">
      <defs>
       <path id="DejaVuSans-43" d="M 4122 4306 
L 4122 3641 
Q 3803 3938 3442 4084 
Q 3081 4231 2675 4231 
Q 1875 4231 1450 3742 
Q 1025 3253 1025 2328 
Q 1025 1406 1450 917 
Q 1875 428 2675 428 
Q 3081 428 3442 575 
Q 3803 722 4122 1019 
L 4122 359 
Q 3791 134 3420 21 
Q 3050 -91 2638 -91 
Q 1578 -91 968 557 
Q 359 1206 359 2328 
Q 359 3453 968 4101 
Q 1578 4750 2638 4750 
Q 3056 4750 3426 4639 
Q 3797 4528 4122 4306 
z
" transform="scale(0.015625)"/>
       <path id="DejaVuSans-6c" d="M 603 4863 
L 1178 4863 
L 1178 0 
L 603 0 
L 603 4863 
z
" transform="scale(0.015625)"/>
       <path id="DejaVuSans-6f" d="M 1959 3097 
Q 1497 3097 1228 2736 
Q 959 2375 959 1747 
Q 959 1119 1226 758 
Q 1494 397 1959 397 
Q 2419 397 2687 759 
Q 2956 1122 2956 1747 
Q 2956 2369 2687 2733 
Q 2419 3097 1959 3097 
z
M 1959 3584 
Q 2709 3584 3137 3096 
Q 3566 2609 3566 1747 
Q 3566 888 3137 398 
Q 2709 -91 1959 -91 
Q 1206 -91 779 398 
Q 353 888 353 1747 
Q 353 2609 779 3096 
Q 1206 3584 1959 3584 
z
" transform="scale(0.015625)"/>
       <path id="DejaVuSans-50" d="M 1259 4147 
L 1259 2394 
L 2053 2394 
Q 2494 2394 2734 2622 
Q 2975 2850 2975 3272 
Q 2975 3691 2734 3919 
Q 2494 4147 2053 4147 
L 1259 4147 
z
M 628 4666 
L 2053 4666 
Q 2838 4666 3239 4311 
Q 3641 3956 3641 3272 
Q 3641 2581 3239 2228 
Q 2838 1875 2053 1875 
L 1259 1875 
L 1259 0 
L 628 0 
L 628 4666 
z
" transform="scale(0.015625)"/>
       <path id="DejaVuSans-69" d="M 603 3500 
L 1178 3500 
L 1178 0 
L 603 0 
L 603 3500 
z
M 603 4863 
L 1178 4863 
L 1178 4134 
L 603 4134 
L 603 4863 
z
" transform="scale(0.015625)"/>
       <path id="DejaVuSans-63" d="M 3122 3366 
L 3122 2828 
Q 2878 2963 2633 3030 
Q 2388 3097 2138 3097 
Q 1578 3097 1268 2742 
Q 959 2388 959 1747 
Q 959 1106 1268 751 
Q 1578 397 2138 397 
Q 2388 397 2633 464 
Q 2878 531 3122 666 
L 3122 134 
Q 2881 22 2623 -34 
Q 2366 -91 2075 -91 
Q 1284 -91 818 406 
Q 353 903 353 1747 
Q 353 2603 823 3093 
Q 1294 3584 2113 3584 
Q 2378 3584 2631 3529 
Q 2884 3475 3122 3366 
z
" transform="scale(0.015625)"/>
      </defs>
      <use xlink:href="#DejaVuSans-43"/>
      <use xlink:href="#DejaVuSans-6c" x="69.824219"/>
      <use xlink:href="#DejaVuSans-6f" x="97.607422"/>
      <use xlink:href="#DejaVuSans-73" x="158.789062"/>
      <use xlink:href="#DejaVuSans-65" x="210.888672"/>
      <use xlink:href="#DejaVuSans-20" x="272.412109"/>
      <use xlink:href="#DejaVuSans-50" x="304.199219"/>
      <use xlink:href="#DejaVuSans-72" x="362.751953"/>
      <use xlink:href="#DejaVuSans-69" x="403.865234"/>
      <use xlink:href="#DejaVuSans-63" x="431.648438"/>
      <use xlink:href="#DejaVuSans-65" x="486.628906"/>
     </g>
    </g>
   </g>
   <g id="line2d_36">
    <path d="M 87.498182 348.460304 
L 87.877525 355.564096 
L 88.256869 345.818836 
L 89.394899 343.887254 
L 89.774242 341.041554 
L 90.532929 338.535419 
L 90.912272 338.692899 
L 92.050302 340.116364 
L 92.429646 336.954475 
L 92.808989 336.174461 
L 93.188333 333.995587 
L 93.567676 329.99832 
L 95.085049 334.030036 
L 95.843736 333.306615 
L 96.22308 330.641771 
L 97.36111 333.069166 
L 97.740453 333.48747 
L 98.119796 328.688044 
L 98.49914 326.06872 
L 98.878483 325.898938 
L 100.016513 323.697919 
L 100.395857 322.37657 
L 100.7752 322.839165 
L 101.154543 325.752531 
L 101.533887 325.414197 
L 102.671917 325.244415 
L 103.05126 321.247148 
L 103.430604 320.298581 
L 103.809947 321.009699 
L 104.18929 317.475027 
L 105.706664 317.034577 
L 106.086007 316.425575 
L 106.465351 317.418433 
L 106.844694 315.60127 
L 107.982724 315.104226 
L 108.741411 315.499154 
L 109.120754 316.165981 
L 109.500098 313.91821 
L 111.017471 315.623415 
L 111.776158 320.185393 
L 112.155501 320.817771 
L 114.052218 312.969644 
L 114.431562 313.128353 
L 114.810905 311.693815 
L 115.948935 310.417987 
L 116.328279 310.271581 
L 116.707622 311.428069 
L 117.086965 307.82204 
L 117.466309 313.955119 
L 118.604339 314.23932 
L 118.983682 311.915271 
L 119.363026 313.478991 
L 119.742369 312.221617 
L 120.121712 310.100568 
L 121.259743 306.371508 
L 121.639086 306.291538 
L 122.397773 304.919746 
L 122.777116 303.423693 
L 123.915146 303.060752 
L 124.29449 304.761036 
L 124.673833 303.684518 
L 125.053176 303.706663 
L 125.43252 301.484729 
L 126.57055 301.756627 
L 126.949893 301.508105 
L 127.329237 302.380393 
L 127.70858 301.666815 
L 129.225953 301.32602 
L 129.605297 298.447102 
L 129.98464 299.149607 
L 130.363984 299.353838 
L 130.743327 297.732294 
L 132.260701 297.199571 
L 132.640044 299.625736 
L 133.019387 300.238429 
L 133.398731 297.120831 
L 134.536761 298.378205 
L 134.916104 304.036386 
L 135.295448 304.478066 
L 135.674791 305.384802 
L 136.054134 303.93427 
L 137.192164 312.096126 
L 137.571508 309.239353 
L 137.950851 307.30039 
L 138.330195 304.432544 
L 138.709538 306.314914 
L 139.847568 308.491327 
L 140.226911 305.6567 
L 140.606255 306.597884 
L 140.985598 310.667739 
L 141.364942 309.874192 
L 142.882315 312.913049 
L 143.261659 314.998419 
L 143.641002 314.284842 
L 144.020345 318.331321 
L 145.158375 319.374621 
L 145.537719 312.504588 
L 146.675749 304.308283 
L 147.813779 302.799927 
L 148.193122 302.856521 
L 148.572466 303.604548 
L 148.951809 302.097422 
L 149.331153 302.516957 
L 150.469183 302.21061 
L 150.848526 299.12008 
L 151.227869 298.218265 
L 151.607213 295.047764 
L 151.986556 295.560802 
L 153.124586 295.902827 
L 153.50393 299.165601 
L 153.883273 299.542075 
L 154.64196 296.495835 
L 156.159333 292.526865 
L 156.538677 289.960445 
L 157.297364 290.393513 
L 158.435394 292.161464 
L 158.814737 291.613978 
L 159.19408 290.051488 
L 159.573424 289.447407 
L 159.952767 287.667153 
L 161.090797 287.701602 
L 161.470141 288.865472 
L 161.849484 291.10094 
L 162.228827 289.766057 
L 162.608171 291.762845 
L 163.746201 290.986521 
L 164.125544 288.545592 
L 164.504888 286.89206 
L 164.884231 288.557896 
L 165.263574 286.208009 
L 166.401605 286.835466 
L 166.780948 287.679456 
L 167.539635 294.476902 
L 167.918978 296.872309 
L 169.057008 306.966977 
L 169.436352 302.621533 
L 169.815695 302.301653 
L 170.195038 295.891754 
L 170.574382 298.081701 
L 171.712412 302.13064 
L 172.091755 297.032249 
L 172.471099 306.933758 
L 172.850442 306.089768 
L 173.229785 301.253432 
L 174.367816 297.272159 
L 174.747159 299.873027 
L 175.126502 297.146667 
L 175.505846 297.272159 
L 175.885189 305.940901 
L 177.023219 302.301653 
L 177.402563 303.568869 
L 177.781906 301.344474 
L 178.161249 297.032249 
L 178.540593 297.043322 
L 180.057966 299.165601 
L 180.816653 290.929927 
L 181.195996 290.70232 
L 182.71337 290.564526 
L 183.092713 288.089149 
L 183.472057 286.994176 
L 183.8514 287.234085 
L 184.98943 288.249088 
L 185.368774 287.416171 
L 185.748117 287.165188 
L 186.12746 287.21071 
L 186.506804 289.116455 
L 187.644834 288.933139 
L 188.024177 291.670572 
L 188.403521 289.743911 
L 188.782864 290.431653 
L 189.162207 292.254968 
L 190.300238 290.511623 
L 190.679581 294.650375 
L 191.058924 300.702254 
L 191.438268 297.940215 
L 191.817611 293.378238 
L 192.955641 294.902588 
L 193.334985 300.130162 
L 194.473015 291.233813 
L 195.611045 291.46388 
L 195.990388 288.105143 
L 196.369732 288.73506 
L 196.749075 287.77296 
L 197.128418 289.273934 
L 198.266448 286.80963 
L 198.645792 288.01287 
L 199.025135 287.016321 
L 199.404479 286.397477 
L 199.783822 285.021994 
L 200.921852 283.073188 
L 201.301195 283.187606 
L 201.680539 282.086482 
L 202.059882 283.118709 
L 202.439226 279.702147 
L 203.577256 278.373416 
L 203.956599 278.796641 
L 204.335943 278.636701 
L 204.715286 277.375637 
L 205.094629 276.584549 
L 206.232659 277.168945 
L 206.612003 276.562404 
L 206.991346 276.366785 
L 207.37069 275.862359 
L 207.750033 273.214739 
L 208.888063 273.053569 
L 209.267406 273.134769 
L 209.64675 274.463501 
L 210.026093 274.980229 
L 210.405437 274.211288 
L 211.92281 270.784883 
L 212.302153 269.041538 
L 213.06084 270.405949 
L 214.19887 273.443576 
L 214.578214 275.920184 
L 214.957557 273.708092 
L 215.336901 272.951453 
L 215.716244 269.741583 
L 217.233617 271.197036 
L 217.612961 270.280457 
L 217.992304 267.070587 
L 218.371648 266.943865 
L 219.509678 264.3147 
L 220.268364 264.258105 
L 221.027051 260.784949 
L 222.544425 260.473682 
L 223.303111 258.547021 
L 223.682455 258.615918 
L 224.820485 260.634852 
L 225.199828 259.793322 
L 225.958515 256.238966 
L 226.337858 259.135108 
L 227.475889 257.65874 
L 227.855232 258.684816 
L 228.234575 256.781531 
L 228.613919 254.243408 
L 228.993262 255.29286 
L 230.131292 252.651391 
L 230.510636 253.239477 
L 230.889979 252.385645 
L 231.269322 249.224986 
L 231.648666 247.95654 
L 233.166039 248.786997 
L 233.545383 248.705797 
L 233.924726 248.233359 
L 234.304069 251.728661 
L 235.4421 257.912183 
L 235.821443 253.921067 
L 236.200786 254.185583 
L 236.58013 253.043859 
L 236.959473 259.793322 
L 238.097503 257.116174 
L 238.85619 247.044883 
L 239.235533 245.568514 
L 239.614877 247.667418 
L 241.13225 244.103219 
L 241.511594 241.610617 
L 241.890937 242.095358 
L 242.27028 241.530647 
L 243.787654 242.46445 
L 244.166997 240.595614 
L 244.546341 242.199934 
L 246.063714 259.111732 
L 246.443058 270.313676 
L 246.822401 271.710074 
L 247.201744 288.09284 
L 247.581088 291.322395 
L 248.719118 274.606216 
L 249.098461 284.873127 
L 249.477805 269.587795 
L 249.857148 282.266106 
L 250.236491 288.103912 
L 251.374522 315.676319 
L 251.753865 298.659945 
L 252.133208 314.903686 
L 252.512552 345.486653 
L 252.891895 319.426294 
L 254.029925 355.685896 
L 254.409269 338.069133 
L 254.788612 354.474044 
L 255.167955 353.447968 
L 255.547299 366.022934 
L 256.685329 373.532727 
L 257.064672 349.041009 
L 257.444016 345.417756 
L 257.823359 328.119642 
L 258.202702 337.558556 
L 259.340732 328.131945 
L 259.720076 332.728371 
L 260.099419 346.19531 
L 260.478763 339.474143 
L 260.858106 343.617817 
L 261.996136 324.138369 
L 262.375479 324.010417 
L 262.754823 313.458075 
L 263.134166 308.674642 
L 264.65154 311.786088 
L 265.030883 302.045749 
L 265.410227 309.313172 
L 265.78957 307.595663 
L 266.168913 298.854333 
L 267.306943 304.797946 
L 267.686287 314.781885 
L 268.06563 307.58336 
L 268.444974 307.676864 
L 268.824317 303.125959 
L 269.962347 298.145677 
L 270.34169 299.945615 
L 270.721034 291.249807 
L 271.100377 294.698357 
L 271.479721 303.555336 
L 272.617751 302.278277 
L 272.997094 299.364911 
L 273.376437 301.558548 
L 273.755781 297.635099 
L 274.135124 292.027361 
L 275.273154 292.039664 
L 276.031841 304.704442 
L 276.411185 300.780994 
L 276.790528 299.341535 
L 277.928558 289.032794 
L 278.307901 292.573617 
L 278.687245 286.769029 
L 279.066588 289.299771 
L 279.445932 288.603417 
L 280.963305 284.238288 
L 281.342648 279.15343 
L 281.721992 279.849784 
L 282.101335 278.422628 
L 283.239365 276.680513 
L 283.618709 273.720395 
L 283.998052 268.891441 
L 284.377395 270.109445 
L 284.756739 260.660688 
L 285.894769 256.109783 
L 286.653456 261.090065 
L 287.032799 282.589677 
L 287.412143 278.213476 
L 288.550173 274.959314 
L 288.929516 268.081899 
L 289.308859 269.725589 
L 289.688203 269.446309 
L 290.067546 271.660862 
L 291.205576 269.072296 
L 291.58492 267.592237 
L 291.964263 276.813387 
L 292.343606 273.083096 
L 292.72295 281.662026 
L 293.86098 276.393852 
L 294.240323 271.69531 
L 294.99901 267.312957 
L 296.516384 261.705219 
L 296.895727 265.529012 
L 297.27507 262.789119 
L 297.654414 264.666567 
L 298.033757 260.959653 
L 299.171787 264.258105 
L 299.930474 255.992904 
L 300.309817 257.29949 
L 301.827191 253.079538 
L 302.206534 252.391796 
L 302.585878 250.152638 
L 302.965221 254.781052 
L 303.344564 257.193684 
L 304.482595 254.431645 
L 304.861938 256.763076 
L 305.241281 252.240468 
L 305.620625 253.545824 
L 305.999968 250.5611 
L 307.137998 247.891334 
L 307.517342 246.504778 
L 308.276028 241.363326 
L 308.655372 241.084046 
L 309.793402 239.906642 
L 310.172745 243.194022 
L 310.552089 237.762218 
L 310.931432 238.437656 
L 311.310775 238.473335 
L 312.448806 237.202428 
L 312.828149 236.363359 
L 313.207492 237.97137 
L 313.966179 235.371731 
L 315.483553 229.963303 
L 315.862896 225.871302 
L 316.242239 224.985481 
L 316.621583 222.37477 
L 317.759613 223.808078 
L 318.138956 219.973211 
L 318.5183 213.934865 
L 318.897643 228.413116 
L 319.276986 231.723872 
L 320.79436 242.62316 
L 321.173703 234.987876 
L 321.553047 241.935418 
L 321.93239 241.748412 
L 323.449763 234.532662 
L 323.829107 236.118528 
L 324.20845 239.521556 
L 324.587794 244.126595 
L 325.725824 248.451123 
L 326.105167 244.558433 
L 326.484511 253.591345 
L 326.863854 252.596027 
L 327.243197 246.412505 
L 328.381227 239.995225 
L 328.760571 242.161795 
L 329.519258 236.622954 
L 329.898601 240.358165 
L 331.036631 233.507817 
L 331.415974 239.17584 
L 331.795318 232.337795 
L 332.554005 225.18233 
L 333.692035 218.531292 
L 334.450721 223.800696 
L 335.209408 224.666832 
L 336.347438 230.791299 
L 336.726782 229.210355 
L 337.106125 229.995291 
L 337.485469 227.699538 
L 337.864812 226.411407 
L 339.002842 233.870757 
L 339.382185 235.230246 
L 339.761529 248.755009 
L 340.140872 244.925064 
L 340.520216 249.058895 
L 341.658246 244.680233 
L 342.416932 229.023348 
L 342.796276 221.13093 
L 343.175619 221.165379 
L 344.313649 216.025157 
L 344.692993 216.564031 
L 345.072336 213.565773 
L 345.451679 217.559349 
L 345.831023 211.914702 
L 346.969053 206.692049 
L 347.348396 208.858619 
L 347.72774 213.964393 
L 348.107083 212.266569 
L 348.486427 215.088893 
L 349.624457 212.582758 
L 350.0038 205.860362 
L 350.383143 206.469364 
L 351.14183 205.310415 
L 352.27986 207.254299 
L 352.659204 202.570521 
L 353.038547 201.656403 
L 353.41789 201.738834 
L 353.797234 198.038071 
L 354.935264 198.846382 
L 355.314607 197.640682 
L 355.693951 201.446021 
L 356.073294 201.679779 
L 356.452637 202.218653 
L 357.590668 204.17115 
L 357.970011 198.337035 
L 358.349354 197.643142 
L 358.728698 195.220668 
L 359.108041 196.949249 
L 360.246071 198.385017 
L 360.625415 199.220396 
L 361.004758 198.843922 
L 361.384101 197.162092 
L 362.901475 193.373978 
L 363.280818 194.221659 
L 363.660162 193.644645 
L 364.039505 191.186492 
L 365.556879 197.267899 
L 366.315565 191.7389 
L 366.694909 185.212122 
L 367.074252 182.659236 
L 368.212282 185.599669 
L 368.591626 185.529541 
L 368.970969 184.40012 
L 369.350312 185.952767 
L 369.729656 189.174941 
L 371.247029 185.705475 
L 371.626373 179.553941 
L 372.005716 179.154091 
L 372.385059 180.695666 
L 373.52309 178.895727 
L 373.902433 179.566244 
L 374.281776 190.621781 
L 374.66112 186.881649 
L 375.040463 195.738627 
L 376.178493 188.586854 
L 376.557837 182.282762 
L 376.93718 181.929664 
L 377.316523 176.826351 
L 377.695867 175.037485 
L 378.833897 171.591395 
L 379.21324 171.980172 
L 379.592584 172.168409 
L 379.971927 171.392086 
L 380.35127 169.086491 
L 381.868644 169.450662 
L 382.247987 169.392837 
L 382.627331 171.356407 
L 383.006674 172.227464 
L 384.144704 175.731378 
L 384.524048 175.249098 
L 384.903391 170.226985 
L 385.282734 181.318201 
L 385.662078 183.682851 
L 386.800108 172.790945 
L 387.179451 176.331768 
L 387.938138 187.998767 
L 388.317481 179.801233 
L 389.455511 182.012094 
L 389.834855 175.66125 
L 390.214198 172.862302 
L 390.593542 168.134233 
L 390.972885 167.404661 
L 392.110915 164.582337 
L 392.490258 165.240552 
L 392.869602 163.71128 
L 393.248945 170.556707 
L 393.628289 171.415462 
L 394.766319 167.768832 
L 395.145662 171.392086 
L 395.525005 173.755505 
L 395.904349 171.134952 
L 396.283692 163.664529 
L 397.421722 163.900747 
L 397.801066 165.057236 
L 398.180409 163.22777 
L 398.559753 158.200736 
L 400.077126 151.390988 
L 400.456469 151.686261 
L 400.835813 151.084641 
L 401.215156 148.843022 
L 401.5945 145.337878 
L 402.73253 145.137338 
L 403.111873 143.708952 
L 403.491216 145.337878 
L 403.87056 140.098001 
L 404.249903 138.363269 
L 405.387933 140.782052 
L 405.767277 144.358554 
L 406.14662 139.790425 
L 406.525963 144.169087 
L 406.905307 139.047319 
L 408.043337 137.937583 
L 408.802024 138.280838 
L 409.181367 135.153398 
L 409.560711 138.374341 
L 410.698741 137.312587 
L 411.078084 140.321917 
L 411.457427 140.25179 
L 412.216114 132.650954 
L 413.354144 137.513127 
L 413.733488 141.927468 
L 414.112831 152.418294 
L 414.492174 146.718282 
L 414.871518 139.21218 
L 416.009548 140.393275 
L 416.388891 144.629221 
L 416.768235 145.950571 
L 417.147578 140.805428 
L 417.526921 141.089629 
L 418.664952 136.143795 
L 419.044295 137.217853 
L 419.423638 136.309887 
L 419.802982 136.050292 
L 420.182325 135.105416 
L 421.699699 135.495423 
L 422.079042 134.668657 
L 422.458385 136.569481 
L 422.837729 132.049334 
L 423.975759 132.47379 
L 424.355102 132.450414 
L 424.734446 133.252574 
L 425.113789 130.832561 
L 425.493132 130.004564 
L 426.631163 128.796403 
L 427.010506 129.779418 
L 427.389849 132.561142 
L 427.769193 132.71493 
L 428.148536 139.437327 
L 429.66591 130.099298 
L 430.045253 130.394571 
L 430.424596 127.483665 
L 430.80394 125.624672 
L 432.700657 123.873945 
L 433.08 120.997488 
L 433.459343 117.103567 
L 434.976717 118.417534 
L 435.35606 116.310019 
L 435.735404 120.452462 
L 436.114747 115.008354 
L 437.252777 113.091536 
L 437.632121 114.913621 
L 438.011464 114.227109 
L 438.390807 116.002442 
L 438.770151 119.908666 
L 439.908181 127.566096 
L 440.287524 120.239619 
L 440.666868 116.086103 
L 441.046211 114.961603 
L 441.425554 109.86075 
L 442.563584 108.463122 
L 442.942928 110.854838 
L 443.322271 111.139039 
L 443.701615 108.818681 
L 444.080958 111.469992 
L 445.218988 112.523134 
L 445.598332 108.368388 
L 445.977675 110.865911 
L 446.357018 107.622822 
L 446.736362 106.712395 
L 447.874392 107.079027 
L 448.253735 106.463873 
L 449.391765 102.652383 
L 450.529795 101.291663 
L 450.909139 104.901384 
L 451.288482 110.594013 
L 451.667826 109.825072 
L 452.047169 105.659253 
L 453.185199 101.066517 
L 453.943886 99.030359 
L 454.323229 102.178715 
L 454.702573 97.515852 
L 455.840603 95.136438 
L 456.219946 95.717143 
L 456.599289 95.479694 
L 456.978633 93.870453 
L 457.357976 94.106672 
L 458.87535 95.847556 
L 459.254693 96.557443 
L 459.634037 98.947929 
L 460.01338 103.019014 
L 461.15141 101.788707 
L 461.530753 104.617183 
L 461.910097 100.226218 
L 462.28944 101.220306 
L 462.668784 106.344534 
L 463.806814 115.221197 
L 464.186157 115.517701 
L 464.944844 104.155818 
L 465.324187 103.142045 
L 466.462217 104.80542 
L 466.841561 115.342998 
L 467.220904 114.452256 
L 467.600247 120.868306 
L 467.979591 114.773366 
L 469.117621 121.496992 
L 469.496964 116.139006 
L 469.876308 113.941678 
L 470.255651 109.640526 
L 470.634995 110.413158 
L 472.152368 115.616126 
L 472.531711 113.775587 
L 472.911055 104.889081 
L 473.290398 100.83768 
L 474.428428 99.292415 
L 474.807772 95.099529 
L 475.187115 93.031383 
L 475.566458 91.630064 
L 475.945802 92.283357 
L 477.083832 89.456112 
L 477.463175 88.838498 
L 477.842519 91.262202 
L 478.221862 86.058004 
L 478.601205 85.024547 
L 479.739236 83.895125 
L 480.118579 81.733476 
L 480.877266 75.804627 
L 481.256609 73.844748 
L 482.394639 73.262813 
L 482.773983 75.211619 
L 483.153326 79.618578 
L 483.532669 79.393432 
L 483.912013 75.317426 
L 485.050043 75.17594 
L 485.429386 72.954006 
L 485.80873 74.272895 
L 486.188073 72.431126 
L 486.567416 73.345244 
L 487.705447 75.020922 
L 488.08479 74.248289 
L 488.464133 72.798988 
L 489.22282 85.463766 
L 490.36085 78.478084 
L 490.740194 89.015662 
L 491.119537 95.360354 
L 491.49888 87.079159 
L 491.878224 91.97455 
L 493.016254 85.463766 
L 493.395597 74.094501 
L 493.774941 72.620593 
L 494.154284 76.398865 
L 494.533627 71.064255 
L 495.671658 76.037155 
L 496.051001 79.970446 
L 496.430344 71.282019 
L 497.189031 81.94878 
L 498.327061 88.133532 
L 498.706405 78.432563 
L 499.085748 72.843279 
L 499.465091 69.410723 
L 500.982465 61.342371 
L 501.361808 61.78282 
L 501.741152 61.187352 
L 502.499838 64.213907 
L 503.637868 60.81703 
L 504.017212 61.007727 
L 504.396555 72.151846 
L 504.775899 72.56892 
L 505.155242 74.809309 
L 506.293272 75.858761 
L 506.672616 70.36421 
L 507.051959 68.874309 
L 507.431302 76.609248 
L 507.810646 76.41855 
L 509.328019 86.251162 
L 510.086706 97.907089 
L 510.466049 108.324097 
L 511.604079 106.488479 
L 511.983423 112.542819 
L 512.362766 113.746059 
L 512.74211 116.451504 
L 513.121453 103.831017 
L 514.638826 90.553545 
L 515.01817 85.345657 
L 515.397513 98.049805 
L 515.776857 95.368966 
L 516.914887 97.275942 
L 517.29423 93.020311 
L 517.673573 85.058995 
L 518.43226 105.499313 
L 519.57029 107.215591 
L 519.949634 98.764613 
L 520.328977 98.156842 
L 520.708321 109.372319 
L 521.087664 112.983269 
L 522.605037 118.620535 
L 522.984381 127.989322 
L 523.363724 120.051382 
L 523.743068 108.764547 
L 524.881098 109.825072 
L 525.260441 117.930333 
L 525.639784 108.538171 
L 526.019128 111.052918 
L 526.398471 115.510319 
L 527.915845 134.448432 
L 528.295188 121.040549 
L 528.674531 123.387974 
L 529.053875 129.741278 
L 530.191905 133.542927 
L 530.950592 111.255918 
L 531.709279 99.122632 
L 532.847309 99.229669 
L 533.226652 92.722576 
L 533.605995 99.491725 
L 533.985339 91.777701 
L 534.364682 89.051341 
L 535.502712 85.23739 
L 535.882056 78.254168 
L 536.261399 81.697797 
L 536.640742 90.188144 
L 537.020086 88.872946 
L 538.158116 84.07721 
L 538.916803 96.406115 
L 539.296146 93.751113 
L 539.675489 95.185651 
L 540.81352 104.476928 
L 541.192863 106.498322 
L 541.572206 100.340636 
L 541.95155 106.916626 
L 543.468923 106.725929 
L 543.848267 98.235581 
L 544.22761 98.714171 
L 544.606953 106.45034 
L 544.986297 121.170961 
L 546.124327 118.013994 
L 546.50367 132.99667 
L 546.883014 131.490775 
L 547.262357 118.898584 
L 547.6417 138.175032 
L 548.779731 134.993458 
L 549.159074 132.686633 
L 549.538417 117.631368 
L 549.917761 135.914958 
L 550.297104 138.593336 
L 551.435134 154.485209 
L 551.814478 153.540334 
L 552.193821 161.098108 
L 552.573164 161.792002 
L 552.952508 150.312009 
L 554.090538 152.344475 
L 554.469881 142.396214 
L 554.849225 162.090966 
L 555.228568 165.03263 
L 555.607911 164.79272 
L 556.745942 156.05139 
L 557.125285 159.471643 
L 557.504628 155.286139 
L 557.883972 145.94688 
L 558.263315 133.761921 
L 559.780689 136.608851 
L 560.160032 140.625803 
L 560.539375 131.359132 
L 560.918719 139.586194 
L 562.056749 138.102444 
L 562.436092 133.510939 
L 562.815436 138.915676 
L 563.574122 164.738586 
L 564.712152 182.730593 
L 565.091496 183.930143 
L 565.470839 177.536238 
L 565.850183 192.494308 
L 566.229526 191.690918 
L 567.7469 180.475441 
L 568.126243 181.255455 
L 568.505586 176.732848 
L 568.88493 162.494507 
L 570.02296 164.198482 
L 570.402303 173.757966 
L 570.781647 174.082767 
L 571.16099 177.909021 
L 571.540333 173.182182 
L 573.057707 172.199167 
L 573.43705 170.555477 
L 573.816394 163.706359 
L 574.195737 164.077912 
L 575.333767 169.416213 
L 575.71311 173.578341 
L 576.092454 175.929457 
L 576.471797 177.033042 
L 576.851141 168.336004 
L 577.989171 172.0909 
L 578.368514 159.711553 
L 578.747857 156.784653 
L 579.127201 151.927401 
L 579.506544 156.210099 
L 580.644574 155.717977 
L 581.023918 161.379849 
L 581.403261 149.192429 
L 582.161948 135.769782 
L 583.299978 137.36549 
L 583.679321 140.519997 
L 584.058665 132.842882 
L 584.438008 133.322702 
L 584.817352 134.19868 
L 585.955382 134.630518 
L 586.334725 136.717118 
L 586.714068 126.329638 
L 587.093412 126.150013 
L 587.472755 117.813454 
L 588.610785 115.545998 
L 588.990129 114.465789 
L 589.369472 118.364631 
L 589.748815 116.853814 
L 590.128159 123.678326 
L 591.266189 134.354929 
L 591.645532 135.457284 
L 592.024876 133.910788 
L 592.404219 126.880815 
L 592.783563 144.166626 
L 593.921593 147.104599 
L 594.300936 152.670507 
L 594.680279 156.281457 
L 595.059623 154.65007 
L 595.438966 159.759535 
L 596.95634 161.643134 
L 597.335683 153.114647 
L 597.715026 150.091784 
L 598.09437 142.391293 
L 599.2324 137.100974 
L 599.611743 158.728538 
L 599.991087 156.917526 
L 600.37043 162.410846 
L 600.749773 165.973814 
L 601.887804 162.339488 
L 602.267147 167.868487 
L 602.64649 175.797814 
L 603.025834 179.659748 
L 603.405177 187.180613 
L 604.922551 192.708382 
L 605.301894 184.15898 
L 606.060581 200.27969 
L 607.198611 188.837836 
L 607.577954 175.249098 
L 607.957298 176.321925 
L 608.336641 180.83223 
L 608.715984 193.431802 
L 609.854015 196.698267 
L 610.233358 199.689143 
L 610.612701 201.088002 
L 610.992045 189.596936 
L 611.371388 199.749428 
L 612.509418 188.608999 
L 612.888762 183.52045 
L 613.647448 190.272374 
L 614.026792 179.58962 
L 615.164822 174.020021 
L 615.544165 166.652944 
L 615.923509 170.172852 
L 616.302852 172.633465 
L 616.682195 161.842444 
L 617.820226 165.145818 
L 618.199569 167.002351 
L 618.578912 178.938788 
L 618.958256 183.495844 
L 619.337599 177.14254 
L 620.475629 172.69375 
L 620.854973 170.197458 
L 621.234316 179.637602 
L 621.613659 154.824774 
L 621.993003 150.218505 
L 623.131033 154.269906 
L 623.510376 150.207432 
L 623.88972 153.751946 
L 624.269063 155.367339 
L 624.648406 153.101114 
L 625.786436 154.933041 
L 626.16578 148.349669 
L 626.545123 145.455988 
L 627.30381 145.492897 
L 628.44184 153.209381 
L 628.821184 154.028765 
L 629.200527 139.186344 
L 629.57987 139.391805 
L 629.959214 139.922067 
L 631.097244 148.796271 
L 631.476587 155.716746 
L 631.855931 156.633325 
L 632.235274 152.895653 
L 632.614617 156.440167 
L 633.752647 149.760831 
L 634.131991 145.90505 
L 634.511334 148.823337 
L 634.890678 160.811447 
L 635.270021 166.575434 
L 636.408051 170.450901 
L 636.787394 169.918178 
L 637.166738 163.014927 
L 637.546081 169.408831 
L 637.925425 166.99989 
L 639.442798 168.791217 
L 639.822142 174.422331 
L 640.201485 166.490543 
L 640.580828 167.460025 
L 642.098202 169.493722 
L 642.477545 165.885232 
L 642.856889 171.189085 
L 643.236232 160.653968 
L 644.374262 160.981229 
L 644.753605 157.590504 
L 645.132949 151.669037 
L 645.891636 147.890765 
L 647.409009 148.787658 
L 647.788352 156.415561 
L 648.167696 159.806286 
L 648.547039 151.124011 
L 649.685069 145.409236 
L 650.064413 145.735267 
L 650.443756 145.650376 
L 650.823099 140.298541 
L 651.202443 139.075616 
L 652.340473 145.347721 
L 653.478503 125.744012 
L 653.857847 130.962973 
L 654.995877 134.049813 
L 655.37522 127.607926 
L 656.133907 137.355647 
L 656.51325 136.277899 
L 657.65128 130.441323 
L 658.030624 130.7083 
L 658.409967 129.110131 
L 658.78931 135.891582 
L 659.168654 137.270756 
L 660.686027 147.092296 
L 661.065371 147.915371 
L 661.444714 145.360024 
L 661.824057 150.628197 
L 662.962088 148.945138 
L 663.720774 152.516718 
L 664.100118 148.738446 
L 664.479461 140.97644 
L 665.617491 140.420342 
L 665.996835 148.182347 
L 666.376178 147.334666 
L 667.134865 163.014927 
L 668.272895 163.996711 
L 668.652238 156.112905 
L 669.031582 159.043496 
L 669.410925 150.893944 
L 669.790268 156.609949 
L 670.928299 151.886801 
L 671.307642 145.639303 
L 671.686985 153.799928 
L 672.066329 152.586846 
L 672.445672 149.412654 
L 673.583702 148.573585 
L 673.963046 149.47417 
L 674.342389 142.482336 
L 674.721732 139.758437 
L 675.101076 132.839191 
L 676.239106 131.063858 
L 676.618449 133.630278 
L 676.997793 134.808912 
L 677.377136 132.924082 
L 678.89451 132.35322 
L 679.273853 132.365523 
L 679.653196 134.23805 
L 680.03254 127.74449 
L 680.411883 128.98464 
L 681.549913 127.124416 
L 681.929257 126.832833 
L 682.3086 126.868512 
L 682.687943 129.701909 
L 683.067287 129.422629 
L 684.205317 128.790251 
L 684.58466 136.790937 
L 684.964004 138.80987 
L 685.343347 129.009246 
L 685.72269 124.838506 
L 686.86072 125.202677 
L 687.240064 130.881773 
L 687.998751 137.970801 
L 688.378094 128.924355 
L 689.516124 128.656148 
L 689.895468 130.711991 
L 690.274811 128.595863 
L 691.033498 130.005794 
L 692.171528 128.339959 
L 692.550871 131.708539 
L 693.309558 120.715748 
L 693.688901 121.457623 
L 694.826931 121.311216 
L 695.206275 126.905421 
L 695.585618 130.699687 
L 695.964962 126.273044 
L 696.344305 119.622005 
L 697.861678 119.524811 
L 698.241022 122.685469 
L 698.620365 117.433289 
L 698.999709 110.088357 
L 700.137739 110.987712 
L 700.517082 109.881666 
L 700.896426 111.602865 
L 701.275769 108.589844 
L 701.655112 107.540392 
L 702.793142 102.771723 
L 703.172486 99.307179 
L 703.551829 98.685874 
L 703.931173 92.086508 
L 704.310516 94.013168 
L 705.827889 96.562364 
L 706.207233 99.3933 
L 706.586576 97.465409 
L 706.96592 101.540185 
L 708.10395 103.784265 
L 708.483293 97.929235 
L 708.862636 97.758222 
L 709.24198 95.62364 
L 709.621323 89.036577 
L 710.759353 88.256563 
L 711.51804 89.195287 
L 711.897383 93.647767 
L 712.276727 95.025711 
L 713.414757 93.598555 
L 714.173444 85.901755 
L 714.552787 81.242583 
L 714.932131 81.7913 
L 716.070161 79.741609 
L 716.449504 75.729579 
L 716.828847 74.704733 
L 717.208191 78.18035 
L 717.587534 78.192653 
L 718.725564 75.740651 
L 719.104908 74.240907 
L 719.484251 74.191695 
L 719.863594 77.802646 
L 720.242938 72.557848 
L 721.380968 71.386595 
L 721.760311 72.947855 
L 722.139655 80.766455 
L 722.518998 82.35232 
L 722.898341 84.913819 
L 724.036372 80.071331 
L 724.415715 82.389229 
L 724.795058 86.109677 
L 725.174402 85.864846 
L 725.553745 86.194568 
L 726.691775 83.267668 
L 727.071119 89.4881 
L 727.829805 97.696707 
L 728.209149 97.599513 
L 729.347179 93.988562 
L 729.726522 95.526446 
L 730.105866 89.597597 
L 730.485209 96.892086 
L 730.864552 93.062141 
L 732.002583 89.805519 
L 732.381926 81.962313 
L 732.761269 79.547221 
L 733.140613 80.522854 
L 733.519956 79.351602 
L 735.03733 81.729785 
L 735.416673 85.56096 
L 735.796016 87.073007 
L 736.17536 86.40249 
L 737.31339 82.706649 
L 737.692733 85.682761 
L 738.072077 85.169723 
L 738.45142 80.279253 
L 738.830763 87.40273 
L 739.968794 86.462775 
L 740.348137 87.68324 
L 740.72748 92.843146 
L 741.106824 101.685362 
L 741.486167 102.955038 
L 742.624197 100.758941 
L 743.003541 108.543092 
L 743.382884 108.408988 
L 743.762227 105.345524 
L 744.141571 106.497092 
L 745.279601 106.681638 
L 745.658944 113.690696 
L 746.038288 110.014539 
L 746.417631 110.25937 
L 746.796974 104.120139 
L 747.935004 100.639601 
L 748.693691 95.591652 
L 749.452378 101.620155 
L 750.590408 96.093617 
L 750.969752 95.934908 
L 751.349095 102.968572 
L 751.728438 107.771689 
L 752.107782 114.22957 
L 753.245812 115.136306 
L 753.625155 111.239924 
L 754.383842 124.853269 
L 754.763185 127.18101 
L 755.901215 121.177113 
L 756.280559 118.125952 
L 756.659902 112.500989 
L 757.039246 102.477679 
L 757.418589 97.723774 
L 758.556619 96.436873 
L 758.935962 95.015868 
L 759.315306 94.574188 
L 759.694649 98.63051 
L 760.073993 90.273036 
L 761.212023 90.898031 
L 761.591366 80.274332 
L 761.97071 79.159674 
L 762.729396 77.885076 
L 763.867426 73.425214 
L 764.24677 74.710884 
L 764.626113 72.591066 
L 765.3848 72.175222 
L 766.52283 73.216062 
L 766.902173 72.738703 
L 767.281517 72.995837 
L 767.66086 70.974443 
L 768.040204 67.653845 
L 769.178234 70.446641 
L 769.557577 70.569672 
L 769.93692 72.897412 
L 770.316264 68.59626 
L 770.695607 66.157791 
L 771.833637 63.953082 
L 772.212981 61.134449 
L 772.592324 53.304776 
L 772.971667 51.491304 
L 773.351011 52.470628 
L 774.489041 49.248454 
L 774.868384 45.878644 
L 775.247728 54.287791 
L 775.627071 48.419228 
L 776.006415 47.299648 
L 777.523788 44.777519 
L 777.903131 43.65794 
L 778.282475 43.387273 
L 778.661818 45.072793 
L 778.661818 45.072793 
" clip-path="url(#p85e65a85f0)" style="fill: none; stroke: #1f77b4; stroke-width: 1.5; stroke-linecap: square"/>
   </g>
   <g id="patch_7">
    <path d="M 52.94 390.04 
L 52.94 26.88 
" style="fill: none; stroke: #000000; stroke-width: 0.8; stroke-linejoin: miter; stroke-linecap: square"/>
   </g>
   <g id="patch_8">
    <path d="M 813.22 390.04 
L 813.22 26.88 
" style="fill: none; stroke: #000000; stroke-width: 0.8; stroke-linejoin: miter; stroke-linecap: square"/>
   </g>
   <g id="patch_9">
    <path d="M 52.94 390.04 
L 813.22 390.04 
" style="fill: none; stroke: #000000; stroke-width: 0.8; stroke-linejoin: miter; stroke-linecap: square"/>
   </g>
   <g id="patch_10">
    <path d="M 52.94 26.88 
L 813.22 26.88 
" style="fill: none; stroke: #000000; stroke-width: 0.8; stroke-linejoin: miter; stroke-linecap: square"/>
   </g>
   <g id="text_24">
    <!-- Stock Trading Performance for IVV -->
    <g transform="translate(330.58875 20.88) scale(0.12 -0.12)">
     <defs>
      <path id="DejaVuSans-53" d="M 3425 4513 
L 3425 3897 
Q 3066 4069 2747 4153 
Q 2428 4238 2131 4238 
Q 1616 4238 1336 4038 
Q 1056 3838 1056 3469 
Q 1056 3159 1242 3001 
Q 1428 2844 1947 2747 
L 2328 2669 
Q 3034 2534 3370 2195 
Q 3706 1856 3706 1288 
Q 3706 609 3251 259 
Q 2797 -91 1919 -91 
Q 1588 -91 1214 -16 
Q 841 59 441 206 
L 441 856 
Q 825 641 1194 531 
Q 1563 422 1919 422 
Q 2459 422 2753 634 
Q 3047 847 3047 1241 
Q 3047 1584 2836 1778 
Q 2625 1972 2144 2069 
L 1759 2144 
Q 1053 2284 737 2584 
Q 422 2884 422 3419 
Q 422 4038 858 4394 
Q 1294 4750 2059 4750 
Q 2388 4750 2728 4690 
Q 3069 4631 3425 4513 
z
" transform="scale(0.015625)"/>
      <path id="DejaVuSans-6b" d="M 581 4863 
L 1159 4863 
L 1159 1991 
L 2875 3500 
L 3609 3500 
L 1753 1863 
L 3688 0 
L 2938 0 
L 1159 1709 
L 1159 0 
L 581 0 
L 581 4863 
z
" transform="scale(0.015625)"/>
      <path id="DejaVuSans-54" d="M -19 4666 
L 3928 4666 
L 3928 4134 
L 2272 4134 
L 2272 0 
L 1638 0 
L 1638 4134 
L -19 4134 
L -19 4666 
z
" transform="scale(0.015625)"/>
      <path id="DejaVuSans-64" d="M 2906 2969 
L 2906 4863 
L 3481 4863 
L 3481 0 
L 2906 0 
L 2906 525 
Q 2725 213 2448 61 
Q 2172 -91 1784 -91 
Q 1150 -91 751 415 
Q 353 922 353 1747 
Q 353 2572 751 3078 
Q 1150 3584 1784 3584 
Q 2172 3584 2448 3432 
Q 2725 3281 2906 2969 
z
M 947 1747 
Q 947 1113 1208 752 
Q 1469 391 1925 391 
Q 2381 391 2643 752 
Q 2906 1113 2906 1747 
Q 2906 2381 2643 2742 
Q 2381 3103 1925 3103 
Q 1469 3103 1208 2742 
Q 947 2381 947 1747 
z
" transform="scale(0.015625)"/>
      <path id="DejaVuSans-67" d="M 2906 1791 
Q 2906 2416 2648 2759 
Q 2391 3103 1925 3103 
Q 1463 3103 1205 2759 
Q 947 2416 947 1791 
Q 947 1169 1205 825 
Q 1463 481 1925 481 
Q 2391 481 2648 825 
Q 2906 1169 2906 1791 
z
M 3481 434 
Q 3481 -459 3084 -895 
Q 2688 -1331 1869 -1331 
Q 1566 -1331 1297 -1286 
Q 1028 -1241 775 -1147 
L 775 -588 
Q 1028 -725 1275 -790 
Q 1522 -856 1778 -856 
Q 2344 -856 2625 -561 
Q 2906 -266 2906 331 
L 2906 616 
Q 2728 306 2450 153 
Q 2172 0 1784 0 
Q 1141 0 747 490 
Q 353 981 353 1791 
Q 353 2603 747 3093 
Q 1141 3584 1784 3584 
Q 2172 3584 2450 3431 
Q 2728 3278 2906 2969 
L 2906 3500 
L 3481 3500 
L 3481 434 
z
" transform="scale(0.015625)"/>
      <path id="DejaVuSans-66" d="M 2375 4863 
L 2375 4384 
L 1825 4384 
Q 1516 4384 1395 4259 
Q 1275 4134 1275 3809 
L 1275 3500 
L 2222 3500 
L 2222 3053 
L 1275 3053 
L 1275 0 
L 697 0 
L 697 3053 
L 147 3053 
L 147 3500 
L 697 3500 
L 697 3744 
Q 697 4328 969 4595 
Q 1241 4863 1831 4863 
L 2375 4863 
z
" transform="scale(0.015625)"/>
      <path id="DejaVuSans-6d" d="M 3328 2828 
Q 3544 3216 3844 3400 
Q 4144 3584 4550 3584 
Q 5097 3584 5394 3201 
Q 5691 2819 5691 2113 
L 5691 0 
L 5113 0 
L 5113 2094 
Q 5113 2597 4934 2840 
Q 4756 3084 4391 3084 
Q 3944 3084 3684 2787 
Q 3425 2491 3425 1978 
L 3425 0 
L 2847 0 
L 2847 2094 
Q 2847 2600 2669 2842 
Q 2491 3084 2119 3084 
Q 1678 3084 1418 2786 
Q 1159 2488 1159 1978 
L 1159 0 
L 581 0 
L 581 3500 
L 1159 3500 
L 1159 2956 
Q 1356 3278 1631 3431 
Q 1906 3584 2284 3584 
Q 2666 3584 2933 3390 
Q 3200 3197 3328 2828 
z
" transform="scale(0.015625)"/>
      <path id="DejaVuSans-49" d="M 628 4666 
L 1259 4666 
L 1259 0 
L 628 0 
L 628 4666 
z
" transform="scale(0.015625)"/>
      <path id="DejaVuSans-56" d="M 1831 0 
L 50 4666 
L 709 4666 
L 2188 738 
L 3669 4666 
L 4325 4666 
L 2547 0 
L 1831 0 
z
" transform="scale(0.015625)"/>
     </defs>
     <use xlink:href="#DejaVuSans-53"/>
     <use xlink:href="#DejaVuSans-74" x="63.476562"/>
     <use xlink:href="#DejaVuSans-6f" x="102.685547"/>
     <use xlink:href="#DejaVuSans-63" x="163.867188"/>
     <use xlink:href="#DejaVuSans-6b" x="218.847656"/>
     <use xlink:href="#DejaVuSans-20" x="276.757812"/>
     <use xlink:href="#DejaVuSans-54" x="308.544922"/>
     <use xlink:href="#DejaVuSans-72" x="354.878906"/>
     <use xlink:href="#DejaVuSans-61" x="395.992188"/>
     <use xlink:href="#DejaVuSans-64" x="457.271484"/>
     <use xlink:href="#DejaVuSans-69" x="520.748047"/>
     <use xlink:href="#DejaVuSans-6e" x="548.53125"/>
     <use xlink:href="#DejaVuSans-67" x="611.910156"/>
     <use xlink:href="#DejaVuSans-20" x="675.386719"/>
     <use xlink:href="#DejaVuSans-50" x="707.173828"/>
     <use xlink:href="#DejaVuSans-65" x="763.851562"/>
     <use xlink:href="#DejaVuSans-72" x="825.375"/>
     <use xlink:href="#DejaVuSans-66" x="866.488281"/>
     <use xlink:href="#DejaVuSans-6f" x="901.693359"/>
     <use xlink:href="#DejaVuSans-72" x="962.875"/>
     <use xlink:href="#DejaVuSans-6d" x="1002.238281"/>
     <use xlink:href="#DejaVuSans-61" x="1099.650391"/>
     <use xlink:href="#DejaVuSans-6e" x="1160.929688"/>
     <use xlink:href="#DejaVuSans-63" x="1224.308594"/>
     <use xlink:href="#DejaVuSans-65" x="1279.289062"/>
     <use xlink:href="#DejaVuSans-20" x="1340.8125"/>
     <use xlink:href="#DejaVuSans-66" x="1372.599609"/>
     <use xlink:href="#DejaVuSans-6f" x="1407.804688"/>
     <use xlink:href="#DejaVuSans-72" x="1468.986328"/>
     <use xlink:href="#DejaVuSans-20" x="1510.099609"/>
     <use xlink:href="#DejaVuSans-49" x="1541.886719"/>
     <use xlink:href="#DejaVuSans-56" x="1571.378906"/>
     <use xlink:href="#DejaVuSans-56" x="1639.787109"/>
    </g>
   </g>
  </g>
 </g>
 <defs>
  <clipPath id="p85e65a85f0">
   <rect x="52.94" y="26.88" width="760.28" height="363.16"/>
  </clipPath>
 </defs>
</svg>
