<?xml version="1.0" encoding="utf-8" standalone="no"?>
<!DOCTYPE svg PUBLIC "-//W3C//DTD SVG 1.1//EN"
  "http://www.w3.org/Graphics/SVG/1.1/DTD/svg11.dtd">
<svg xmlns:xlink="http://www.w3.org/1999/xlink" width="864pt" height="432pt" viewBox="0 0 864 432" xmlns="http://www.w3.org/2000/svg" version="1.1">
 <metadata>
  <rdf:RDF xmlns:dc="http://purl.org/dc/elements/1.1/" xmlns:cc="http://creativecommons.org/ns#" xmlns:rdf="http://www.w3.org/1999/02/22-rdf-syntax-ns#">
   <cc:Work>
    <dc:type rdf:resource="http://purl.org/dc/dcmitype/StillImage"/>
    <dc:date>2024-04-18T22:06:56.257675</dc:date>
    <dc:format>image/svg+xml</dc:format>
    <dc:creator>
     <cc:Agent>
      <dc:title>Matplotlib v3.8.2, https://matplotlib.org/</dc:title>
     </cc:Agent>
    </dc:creator>
   </cc:Work>
  </rdf:RDF>
 </metadata>
 <defs>
  <style type="text/css">*{stroke-linejoin: round; stroke-linecap: butt}</style>
 </defs>
 <g id="figure_1">
  <g id="patch_1">
   <path d="M 0 432 
L 864 432 
L 864 0 
L 0 0 
z
" style="fill: #ffffff"/>
  </g>
  <g id="axes_1">
   <g id="patch_2">
    <path d="M 50.87 390.04 
L 813.22 390.04 
L 813.22 26.88 
L 50.87 26.88 
z
" style="fill: #ffffff"/>
   </g>
   <g id="matplotlib.axis_1">
    <g id="xtick_1">
     <g id="line2d_1">
      <path d="M 85.141897 390.04 
L 85.141897 26.88 
" clip-path="url(#p9f84e90b70)" style="fill: none; stroke-dasharray: 1.85,0.8; stroke-dashoffset: 0; stroke: #b0b0b0; stroke-opacity: 0.5; stroke-width: 0.5"/>
     </g>
     <g id="line2d_2">
      <defs>
       <path id="mec3d1803ff" d="M 0 0 
L 0 3.5 
" style="stroke: #000000; stroke-width: 0.8"/>
      </defs>
      <g>
       <use xlink:href="#mec3d1803ff" x="85.141897" y="390.04" style="stroke: #000000; stroke-width: 0.8"/>
      </g>
     </g>
     <g id="text_1">
      <!-- 2019 -->
      <g transform="translate(72.416897 404.638438) scale(0.1 -0.1)">
       <defs>
        <path id="DejaVuSans-32" d="M 1228 531 
L 3431 531 
L 3431 0 
L 469 0 
L 469 531 
Q 828 903 1448 1529 
Q 2069 2156 2228 2338 
Q 2531 2678 2651 2914 
Q 2772 3150 2772 3378 
Q 2772 3750 2511 3984 
Q 2250 4219 1831 4219 
Q 1534 4219 1204 4116 
Q 875 4013 500 3803 
L 500 4441 
Q 881 4594 1212 4672 
Q 1544 4750 1819 4750 
Q 2544 4750 2975 4387 
Q 3406 4025 3406 3419 
Q 3406 3131 3298 2873 
Q 3191 2616 2906 2266 
Q 2828 2175 2409 1742 
Q 1991 1309 1228 531 
z
" transform="scale(0.015625)"/>
        <path id="DejaVuSans-30" d="M 2034 4250 
Q 1547 4250 1301 3770 
Q 1056 3291 1056 2328 
Q 1056 1369 1301 889 
Q 1547 409 2034 409 
Q 2525 409 2770 889 
Q 3016 1369 3016 2328 
Q 3016 3291 2770 3770 
Q 2525 4250 2034 4250 
z
M 2034 4750 
Q 2819 4750 3233 4129 
Q 3647 3509 3647 2328 
Q 3647 1150 3233 529 
Q 2819 -91 2034 -91 
Q 1250 -91 836 529 
Q 422 1150 422 2328 
Q 422 3509 836 4129 
Q 1250 4750 2034 4750 
z
" transform="scale(0.015625)"/>
        <path id="DejaVuSans-31" d="M 794 531 
L 1825 531 
L 1825 4091 
L 703 3866 
L 703 4441 
L 1819 4666 
L 2450 4666 
L 2450 531 
L 3481 531 
L 3481 0 
L 794 0 
L 794 531 
z
" transform="scale(0.015625)"/>
        <path id="DejaVuSans-39" d="M 703 97 
L 703 672 
Q 941 559 1184 500 
Q 1428 441 1663 441 
Q 2288 441 2617 861 
Q 2947 1281 2994 2138 
Q 2813 1869 2534 1725 
Q 2256 1581 1919 1581 
Q 1219 1581 811 2004 
Q 403 2428 403 3163 
Q 403 3881 828 4315 
Q 1253 4750 1959 4750 
Q 2769 4750 3195 4129 
Q 3622 3509 3622 2328 
Q 3622 1225 3098 567 
Q 2575 -91 1691 -91 
Q 1453 -91 1209 -44 
Q 966 3 703 97 
z
M 1959 2075 
Q 2384 2075 2632 2365 
Q 2881 2656 2881 3163 
Q 2881 3666 2632 3958 
Q 2384 4250 1959 4250 
Q 1534 4250 1286 3958 
Q 1038 3666 1038 3163 
Q 1038 2656 1286 2365 
Q 1534 2075 1959 2075 
z
" transform="scale(0.015625)"/>
       </defs>
       <use xlink:href="#DejaVuSans-32"/>
       <use xlink:href="#DejaVuSans-30" x="63.623047"/>
       <use xlink:href="#DejaVuSans-31" x="127.246094"/>
       <use xlink:href="#DejaVuSans-39" x="190.869141"/>
      </g>
     </g>
    </g>
    <g id="xtick_2">
     <g id="line2d_3">
      <path d="M 223.979213 390.04 
L 223.979213 26.88 
" clip-path="url(#p9f84e90b70)" style="fill: none; stroke-dasharray: 1.85,0.8; stroke-dashoffset: 0; stroke: #b0b0b0; stroke-opacity: 0.5; stroke-width: 0.5"/>
     </g>
     <g id="line2d_4">
      <g>
       <use xlink:href="#mec3d1803ff" x="223.979213" y="390.04" style="stroke: #000000; stroke-width: 0.8"/>
      </g>
     </g>
     <g id="text_2">
      <!-- 2020 -->
      <g transform="translate(211.254213 404.638438) scale(0.1 -0.1)">
       <use xlink:href="#DejaVuSans-32"/>
       <use xlink:href="#DejaVuSans-30" x="63.623047"/>
       <use xlink:href="#DejaVuSans-32" x="127.246094"/>
       <use xlink:href="#DejaVuSans-30" x="190.869141"/>
      </g>
     </g>
    </g>
    <g id="xtick_3">
     <g id="line2d_5">
      <path d="M 363.196906 390.04 
L 363.196906 26.88 
" clip-path="url(#p9f84e90b70)" style="fill: none; stroke-dasharray: 1.85,0.8; stroke-dashoffset: 0; stroke: #b0b0b0; stroke-opacity: 0.5; stroke-width: 0.5"/>
     </g>
     <g id="line2d_6">
      <g>
       <use xlink:href="#mec3d1803ff" x="363.196906" y="390.04" style="stroke: #000000; stroke-width: 0.8"/>
      </g>
     </g>
     <g id="text_3">
      <!-- 2021 -->
      <g transform="translate(350.471906 404.638438) scale(0.1 -0.1)">
       <use xlink:href="#DejaVuSans-32"/>
       <use xlink:href="#DejaVuSans-30" x="63.623047"/>
       <use xlink:href="#DejaVuSans-32" x="127.246094"/>
       <use xlink:href="#DejaVuSans-31" x="190.869141"/>
      </g>
     </g>
    </g>
    <g id="xtick_4">
     <g id="line2d_7">
      <path d="M 502.034223 390.04 
L 502.034223 26.88 
" clip-path="url(#p9f84e90b70)" style="fill: none; stroke-dasharray: 1.85,0.8; stroke-dashoffset: 0; stroke: #b0b0b0; stroke-opacity: 0.5; stroke-width: 0.5"/>
     </g>
     <g id="line2d_8">
      <g>
       <use xlink:href="#mec3d1803ff" x="502.034223" y="390.04" style="stroke: #000000; stroke-width: 0.8"/>
      </g>
     </g>
     <g id="text_4">
      <!-- 2022 -->
      <g transform="translate(489.309223 404.638438) scale(0.1 -0.1)">
       <use xlink:href="#DejaVuSans-32"/>
       <use xlink:href="#DejaVuSans-30" x="63.623047"/>
       <use xlink:href="#DejaVuSans-32" x="127.246094"/>
       <use xlink:href="#DejaVuSans-32" x="190.869141"/>
      </g>
     </g>
    </g>
    <g id="xtick_5">
     <g id="line2d_9">
      <path d="M 640.871539 390.04 
L 640.871539 26.88 
" clip-path="url(#p9f84e90b70)" style="fill: none; stroke-dasharray: 1.85,0.8; stroke-dashoffset: 0; stroke: #b0b0b0; stroke-opacity: 0.5; stroke-width: 0.5"/>
     </g>
     <g id="line2d_10">
      <g>
       <use xlink:href="#mec3d1803ff" x="640.871539" y="390.04" style="stroke: #000000; stroke-width: 0.8"/>
      </g>
     </g>
     <g id="text_5">
      <!-- 2023 -->
      <g transform="translate(628.146539 404.638438) scale(0.1 -0.1)">
       <defs>
        <path id="DejaVuSans-33" d="M 2597 2516 
Q 3050 2419 3304 2112 
Q 3559 1806 3559 1356 
Q 3559 666 3084 287 
Q 2609 -91 1734 -91 
Q 1441 -91 1130 -33 
Q 819 25 488 141 
L 488 750 
Q 750 597 1062 519 
Q 1375 441 1716 441 
Q 2309 441 2620 675 
Q 2931 909 2931 1356 
Q 2931 1769 2642 2001 
Q 2353 2234 1838 2234 
L 1294 2234 
L 1294 2753 
L 1863 2753 
Q 2328 2753 2575 2939 
Q 2822 3125 2822 3475 
Q 2822 3834 2567 4026 
Q 2313 4219 1838 4219 
Q 1578 4219 1281 4162 
Q 984 4106 628 3988 
L 628 4550 
Q 988 4650 1302 4700 
Q 1616 4750 1894 4750 
Q 2613 4750 3031 4423 
Q 3450 4097 3450 3541 
Q 3450 3153 3228 2886 
Q 3006 2619 2597 2516 
z
" transform="scale(0.015625)"/>
       </defs>
       <use xlink:href="#DejaVuSans-32"/>
       <use xlink:href="#DejaVuSans-30" x="63.623047"/>
       <use xlink:href="#DejaVuSans-32" x="127.246094"/>
       <use xlink:href="#DejaVuSans-33" x="190.869141"/>
      </g>
     </g>
    </g>
    <g id="xtick_6">
     <g id="line2d_11">
      <path d="M 779.708856 390.04 
L 779.708856 26.88 
" clip-path="url(#p9f84e90b70)" style="fill: none; stroke-dasharray: 1.85,0.8; stroke-dashoffset: 0; stroke: #b0b0b0; stroke-opacity: 0.5; stroke-width: 0.5"/>
     </g>
     <g id="line2d_12">
      <g>
       <use xlink:href="#mec3d1803ff" x="779.708856" y="390.04" style="stroke: #000000; stroke-width: 0.8"/>
      </g>
     </g>
     <g id="text_6">
      <!-- 2024 -->
      <g transform="translate(766.983856 404.638438) scale(0.1 -0.1)">
       <defs>
        <path id="DejaVuSans-34" d="M 2419 4116 
L 825 1625 
L 2419 1625 
L 2419 4116 
z
M 2253 4666 
L 3047 4666 
L 3047 1625 
L 3713 1625 
L 3713 1100 
L 3047 1100 
L 3047 0 
L 2419 0 
L 2419 1100 
L 313 1100 
L 313 1709 
L 2253 4666 
z
" transform="scale(0.015625)"/>
       </defs>
       <use xlink:href="#DejaVuSans-32"/>
       <use xlink:href="#DejaVuSans-30" x="63.623047"/>
       <use xlink:href="#DejaVuSans-32" x="127.246094"/>
       <use xlink:href="#DejaVuSans-34" x="190.869141"/>
      </g>
     </g>
    </g>
    <g id="text_7">
     <!-- Date -->
     <g transform="translate(420.094219 418.316562) scale(0.1 -0.1)">
      <defs>
       <path id="DejaVuSans-44" d="M 1259 4147 
L 1259 519 
L 2022 519 
Q 2988 519 3436 956 
Q 3884 1394 3884 2338 
Q 3884 3275 3436 3711 
Q 2988 4147 2022 4147 
L 1259 4147 
z
M 628 4666 
L 1925 4666 
Q 3281 4666 3915 4102 
Q 4550 3538 4550 2338 
Q 4550 1131 3912 565 
Q 3275 0 1925 0 
L 628 0 
L 628 4666 
z
" transform="scale(0.015625)"/>
       <path id="DejaVuSans-61" d="M 2194 1759 
Q 1497 1759 1228 1600 
Q 959 1441 959 1056 
Q 959 750 1161 570 
Q 1363 391 1709 391 
Q 2188 391 2477 730 
Q 2766 1069 2766 1631 
L 2766 1759 
L 2194 1759 
z
M 3341 1997 
L 3341 0 
L 2766 0 
L 2766 531 
Q 2569 213 2275 61 
Q 1981 -91 1556 -91 
Q 1019 -91 701 211 
Q 384 513 384 1019 
Q 384 1609 779 1909 
Q 1175 2209 1959 2209 
L 2766 2209 
L 2766 2266 
Q 2766 2663 2505 2880 
Q 2244 3097 1772 3097 
Q 1472 3097 1187 3025 
Q 903 2953 641 2809 
L 641 3341 
Q 956 3463 1253 3523 
Q 1550 3584 1831 3584 
Q 2591 3584 2966 3190 
Q 3341 2797 3341 1997 
z
" transform="scale(0.015625)"/>
       <path id="DejaVuSans-74" d="M 1172 4494 
L 1172 3500 
L 2356 3500 
L 2356 3053 
L 1172 3053 
L 1172 1153 
Q 1172 725 1289 603 
Q 1406 481 1766 481 
L 2356 481 
L 2356 0 
L 1766 0 
Q 1100 0 847 248 
Q 594 497 594 1153 
L 594 3053 
L 172 3053 
L 172 3500 
L 594 3500 
L 594 4494 
L 1172 4494 
z
" transform="scale(0.015625)"/>
       <path id="DejaVuSans-65" d="M 3597 1894 
L 3597 1613 
L 953 1613 
Q 991 1019 1311 708 
Q 1631 397 2203 397 
Q 2534 397 2845 478 
Q 3156 559 3463 722 
L 3463 178 
Q 3153 47 2828 -22 
Q 2503 -91 2169 -91 
Q 1331 -91 842 396 
Q 353 884 353 1716 
Q 353 2575 817 3079 
Q 1281 3584 2069 3584 
Q 2775 3584 3186 3129 
Q 3597 2675 3597 1894 
z
M 3022 2063 
Q 3016 2534 2758 2815 
Q 2500 3097 2075 3097 
Q 1594 3097 1305 2825 
Q 1016 2553 972 2059 
L 3022 2063 
z
" transform="scale(0.015625)"/>
      </defs>
      <use xlink:href="#DejaVuSans-44"/>
      <use xlink:href="#DejaVuSans-61" x="77.001953"/>
      <use xlink:href="#DejaVuSans-74" x="138.28125"/>
      <use xlink:href="#DejaVuSans-65" x="177.490234"/>
     </g>
    </g>
   </g>
   <g id="matplotlib.axis_2">
    <g id="ytick_1">
     <g id="line2d_13">
      <path d="M 50.87 373.532727 
L 813.22 373.532727 
" clip-path="url(#p9f84e90b70)" style="fill: none; stroke-dasharray: 1.85,0.8; stroke-dashoffset: 0; stroke: #b0b0b0; stroke-opacity: 0.5; stroke-width: 0.5"/>
     </g>
     <g id="line2d_14">
      <defs>
       <path id="m0be316cd2d" d="M 0 0 
L -3.5 0 
" style="stroke: #000000; stroke-width: 0.8"/>
      </defs>
      <g>
       <use xlink:href="#m0be316cd2d" x="50.87" y="373.532727" style="stroke: #000000; stroke-width: 0.8"/>
      </g>
     </g>
     <g id="text_8">
      <!-- 0 -->
      <g style="fill: #d62728" transform="translate(37.5075 377.331946) scale(0.1 -0.1)">
       <use xlink:href="#DejaVuSans-30"/>
      </g>
     </g>
    </g>
    <g id="ytick_2">
     <g id="line2d_15">
      <path d="M 50.87 305.702286 
L 813.22 305.702286 
" clip-path="url(#p9f84e90b70)" style="fill: none; stroke-dasharray: 1.85,0.8; stroke-dashoffset: 0; stroke: #b0b0b0; stroke-opacity: 0.5; stroke-width: 0.5"/>
     </g>
     <g id="line2d_16">
      <g>
       <use xlink:href="#m0be316cd2d" x="50.87" y="305.702286" style="stroke: #000000; stroke-width: 0.8"/>
      </g>
     </g>
     <g id="text_9">
      <!-- 20 -->
      <g style="fill: #d62728" transform="translate(31.145 309.501505) scale(0.1 -0.1)">
       <use xlink:href="#DejaVuSans-32"/>
       <use xlink:href="#DejaVuSans-30" x="63.623047"/>
      </g>
     </g>
    </g>
    <g id="ytick_3">
     <g id="line2d_17">
      <path d="M 50.87 237.871844 
L 813.22 237.871844 
" clip-path="url(#p9f84e90b70)" style="fill: none; stroke-dasharray: 1.85,0.8; stroke-dashoffset: 0; stroke: #b0b0b0; stroke-opacity: 0.5; stroke-width: 0.5"/>
     </g>
     <g id="line2d_18">
      <g>
       <use xlink:href="#m0be316cd2d" x="50.87" y="237.871844" style="stroke: #000000; stroke-width: 0.8"/>
      </g>
     </g>
     <g id="text_10">
      <!-- 40 -->
      <g style="fill: #d62728" transform="translate(31.145 241.671063) scale(0.1 -0.1)">
       <use xlink:href="#DejaVuSans-34"/>
       <use xlink:href="#DejaVuSans-30" x="63.623047"/>
      </g>
     </g>
    </g>
    <g id="ytick_4">
     <g id="line2d_19">
      <path d="M 50.87 170.041403 
L 813.22 170.041403 
" clip-path="url(#p9f84e90b70)" style="fill: none; stroke-dasharray: 1.85,0.8; stroke-dashoffset: 0; stroke: #b0b0b0; stroke-opacity: 0.5; stroke-width: 0.5"/>
     </g>
     <g id="line2d_20">
      <g>
       <use xlink:href="#m0be316cd2d" x="50.87" y="170.041403" style="stroke: #000000; stroke-width: 0.8"/>
      </g>
     </g>
     <g id="text_11">
      <!-- 60 -->
      <g style="fill: #d62728" transform="translate(31.145 173.840622) scale(0.1 -0.1)">
       <defs>
        <path id="DejaVuSans-36" d="M 2113 2584 
Q 1688 2584 1439 2293 
Q 1191 2003 1191 1497 
Q 1191 994 1439 701 
Q 1688 409 2113 409 
Q 2538 409 2786 701 
Q 3034 994 3034 1497 
Q 3034 2003 2786 2293 
Q 2538 2584 2113 2584 
z
M 3366 4563 
L 3366 3988 
Q 3128 4100 2886 4159 
Q 2644 4219 2406 4219 
Q 1781 4219 1451 3797 
Q 1122 3375 1075 2522 
Q 1259 2794 1537 2939 
Q 1816 3084 2150 3084 
Q 2853 3084 3261 2657 
Q 3669 2231 3669 1497 
Q 3669 778 3244 343 
Q 2819 -91 2113 -91 
Q 1303 -91 875 529 
Q 447 1150 447 2328 
Q 447 3434 972 4092 
Q 1497 4750 2381 4750 
Q 2619 4750 2861 4703 
Q 3103 4656 3366 4563 
z
" transform="scale(0.015625)"/>
       </defs>
       <use xlink:href="#DejaVuSans-36"/>
       <use xlink:href="#DejaVuSans-30" x="63.623047"/>
      </g>
     </g>
    </g>
    <g id="ytick_5">
     <g id="line2d_21">
      <path d="M 50.87 102.210962 
L 813.22 102.210962 
" clip-path="url(#p9f84e90b70)" style="fill: none; stroke-dasharray: 1.85,0.8; stroke-dashoffset: 0; stroke: #b0b0b0; stroke-opacity: 0.5; stroke-width: 0.5"/>
     </g>
     <g id="line2d_22">
      <g>
       <use xlink:href="#m0be316cd2d" x="50.87" y="102.210962" style="stroke: #000000; stroke-width: 0.8"/>
      </g>
     </g>
     <g id="text_12">
      <!-- 80 -->
      <g style="fill: #d62728" transform="translate(31.145 106.01018) scale(0.1 -0.1)">
       <defs>
        <path id="DejaVuSans-38" d="M 2034 2216 
Q 1584 2216 1326 1975 
Q 1069 1734 1069 1313 
Q 1069 891 1326 650 
Q 1584 409 2034 409 
Q 2484 409 2743 651 
Q 3003 894 3003 1313 
Q 3003 1734 2745 1975 
Q 2488 2216 2034 2216 
z
M 1403 2484 
Q 997 2584 770 2862 
Q 544 3141 544 3541 
Q 544 4100 942 4425 
Q 1341 4750 2034 4750 
Q 2731 4750 3128 4425 
Q 3525 4100 3525 3541 
Q 3525 3141 3298 2862 
Q 3072 2584 2669 2484 
Q 3125 2378 3379 2068 
Q 3634 1759 3634 1313 
Q 3634 634 3220 271 
Q 2806 -91 2034 -91 
Q 1263 -91 848 271 
Q 434 634 434 1313 
Q 434 1759 690 2068 
Q 947 2378 1403 2484 
z
M 1172 3481 
Q 1172 3119 1398 2916 
Q 1625 2713 2034 2713 
Q 2441 2713 2670 2916 
Q 2900 3119 2900 3481 
Q 2900 3844 2670 4047 
Q 2441 4250 2034 4250 
Q 1625 4250 1398 4047 
Q 1172 3844 1172 3481 
z
" transform="scale(0.015625)"/>
       </defs>
       <use xlink:href="#DejaVuSans-38"/>
       <use xlink:href="#DejaVuSans-30" x="63.623047"/>
      </g>
     </g>
    </g>
    <g id="ytick_6">
     <g id="line2d_23">
      <path d="M 50.87 34.38052 
L 813.22 34.38052 
" clip-path="url(#p9f84e90b70)" style="fill: none; stroke-dasharray: 1.85,0.8; stroke-dashoffset: 0; stroke: #b0b0b0; stroke-opacity: 0.5; stroke-width: 0.5"/>
     </g>
     <g id="line2d_24">
      <g>
       <use xlink:href="#m0be316cd2d" x="50.87" y="34.38052" style="stroke: #000000; stroke-width: 0.8"/>
      </g>
     </g>
     <g id="text_13">
      <!-- 100 -->
      <g style="fill: #d62728" transform="translate(24.7825 38.179739) scale(0.1 -0.1)">
       <use xlink:href="#DejaVuSans-31"/>
       <use xlink:href="#DejaVuSans-30" x="63.623047"/>
       <use xlink:href="#DejaVuSans-30" x="127.246094"/>
      </g>
     </g>
    </g>
    <g id="text_14">
     <!-- Returns (%) -->
     <g style="fill: #d62728" transform="translate(18.702813 237.8975) rotate(-90) scale(0.1 -0.1)">
      <defs>
       <path id="DejaVuSans-52" d="M 2841 2188 
Q 3044 2119 3236 1894 
Q 3428 1669 3622 1275 
L 4263 0 
L 3584 0 
L 2988 1197 
Q 2756 1666 2539 1819 
Q 2322 1972 1947 1972 
L 1259 1972 
L 1259 0 
L 628 0 
L 628 4666 
L 2053 4666 
Q 2853 4666 3247 4331 
Q 3641 3997 3641 3322 
Q 3641 2881 3436 2590 
Q 3231 2300 2841 2188 
z
M 1259 4147 
L 1259 2491 
L 2053 2491 
Q 2509 2491 2742 2702 
Q 2975 2913 2975 3322 
Q 2975 3731 2742 3939 
Q 2509 4147 2053 4147 
L 1259 4147 
z
" transform="scale(0.015625)"/>
       <path id="DejaVuSans-75" d="M 544 1381 
L 544 3500 
L 1119 3500 
L 1119 1403 
Q 1119 906 1312 657 
Q 1506 409 1894 409 
Q 2359 409 2629 706 
Q 2900 1003 2900 1516 
L 2900 3500 
L 3475 3500 
L 3475 0 
L 2900 0 
L 2900 538 
Q 2691 219 2414 64 
Q 2138 -91 1772 -91 
Q 1169 -91 856 284 
Q 544 659 544 1381 
z
M 1991 3584 
L 1991 3584 
z
" transform="scale(0.015625)"/>
       <path id="DejaVuSans-72" d="M 2631 2963 
Q 2534 3019 2420 3045 
Q 2306 3072 2169 3072 
Q 1681 3072 1420 2755 
Q 1159 2438 1159 1844 
L 1159 0 
L 581 0 
L 581 3500 
L 1159 3500 
L 1159 2956 
Q 1341 3275 1631 3429 
Q 1922 3584 2338 3584 
Q 2397 3584 2469 3576 
Q 2541 3569 2628 3553 
L 2631 2963 
z
" transform="scale(0.015625)"/>
       <path id="DejaVuSans-6e" d="M 3513 2113 
L 3513 0 
L 2938 0 
L 2938 2094 
Q 2938 2591 2744 2837 
Q 2550 3084 2163 3084 
Q 1697 3084 1428 2787 
Q 1159 2491 1159 1978 
L 1159 0 
L 581 0 
L 581 3500 
L 1159 3500 
L 1159 2956 
Q 1366 3272 1645 3428 
Q 1925 3584 2291 3584 
Q 2894 3584 3203 3211 
Q 3513 2838 3513 2113 
z
" transform="scale(0.015625)"/>
       <path id="DejaVuSans-73" d="M 2834 3397 
L 2834 2853 
Q 2591 2978 2328 3040 
Q 2066 3103 1784 3103 
Q 1356 3103 1142 2972 
Q 928 2841 928 2578 
Q 928 2378 1081 2264 
Q 1234 2150 1697 2047 
L 1894 2003 
Q 2506 1872 2764 1633 
Q 3022 1394 3022 966 
Q 3022 478 2636 193 
Q 2250 -91 1575 -91 
Q 1294 -91 989 -36 
Q 684 19 347 128 
L 347 722 
Q 666 556 975 473 
Q 1284 391 1588 391 
Q 1994 391 2212 530 
Q 2431 669 2431 922 
Q 2431 1156 2273 1281 
Q 2116 1406 1581 1522 
L 1381 1569 
Q 847 1681 609 1914 
Q 372 2147 372 2553 
Q 372 3047 722 3315 
Q 1072 3584 1716 3584 
Q 2034 3584 2315 3537 
Q 2597 3491 2834 3397 
z
" transform="scale(0.015625)"/>
       <path id="DejaVuSans-20" transform="scale(0.015625)"/>
       <path id="DejaVuSans-28" d="M 1984 4856 
Q 1566 4138 1362 3434 
Q 1159 2731 1159 2009 
Q 1159 1288 1364 580 
Q 1569 -128 1984 -844 
L 1484 -844 
Q 1016 -109 783 600 
Q 550 1309 550 2009 
Q 550 2706 781 3412 
Q 1013 4119 1484 4856 
L 1984 4856 
z
" transform="scale(0.015625)"/>
       <path id="DejaVuSans-25" d="M 4653 2053 
Q 4381 2053 4226 1822 
Q 4072 1591 4072 1178 
Q 4072 772 4226 539 
Q 4381 306 4653 306 
Q 4919 306 5073 539 
Q 5228 772 5228 1178 
Q 5228 1588 5073 1820 
Q 4919 2053 4653 2053 
z
M 4653 2450 
Q 5147 2450 5437 2106 
Q 5728 1763 5728 1178 
Q 5728 594 5436 251 
Q 5144 -91 4653 -91 
Q 4153 -91 3862 251 
Q 3572 594 3572 1178 
Q 3572 1766 3864 2108 
Q 4156 2450 4653 2450 
z
M 1428 4353 
Q 1159 4353 1004 4120 
Q 850 3888 850 3481 
Q 850 3069 1003 2837 
Q 1156 2606 1428 2606 
Q 1700 2606 1854 2837 
Q 2009 3069 2009 3481 
Q 2009 3884 1853 4118 
Q 1697 4353 1428 4353 
z
M 4250 4750 
L 4750 4750 
L 1831 -91 
L 1331 -91 
L 4250 4750 
z
M 1428 4750 
Q 1922 4750 2215 4408 
Q 2509 4066 2509 3481 
Q 2509 2891 2217 2550 
Q 1925 2209 1428 2209 
Q 931 2209 642 2551 
Q 353 2894 353 3481 
Q 353 4063 643 4406 
Q 934 4750 1428 4750 
z
" transform="scale(0.015625)"/>
       <path id="DejaVuSans-29" d="M 513 4856 
L 1013 4856 
Q 1481 4119 1714 3412 
Q 1947 2706 1947 2009 
Q 1947 1309 1714 600 
Q 1481 -109 1013 -844 
L 513 -844 
Q 928 -128 1133 580 
Q 1338 1288 1338 2009 
Q 1338 2731 1133 3434 
Q 928 4138 513 4856 
z
" transform="scale(0.015625)"/>
      </defs>
      <use xlink:href="#DejaVuSans-52"/>
      <use xlink:href="#DejaVuSans-65" x="64.982422"/>
      <use xlink:href="#DejaVuSans-74" x="126.505859"/>
      <use xlink:href="#DejaVuSans-75" x="165.714844"/>
      <use xlink:href="#DejaVuSans-72" x="229.09375"/>
      <use xlink:href="#DejaVuSans-6e" x="268.457031"/>
      <use xlink:href="#DejaVuSans-73" x="331.835938"/>
      <use xlink:href="#DejaVuSans-20" x="383.935547"/>
      <use xlink:href="#DejaVuSans-28" x="415.722656"/>
      <use xlink:href="#DejaVuSans-25" x="454.736328"/>
      <use xlink:href="#DejaVuSans-29" x="549.755859"/>
     </g>
    </g>
   </g>
   <g id="line2d_25">
    <path d="M 85.522273 373.532727 
L 85.902649 373.532727 
L 86.283025 361.607688 
L 90.086787 361.607688 
L 90.467163 357.814393 
L 93.129797 357.814393 
L 93.890549 356.954886 
L 94.270926 353.788744 
L 95.412054 356.672769 
L 95.79243 357.169763 
L 96.172807 351.467492 
L 96.553183 348.355435 
L 96.933559 348.153714 
L 98.074688 345.53865 
L 98.455064 343.968735 
L 98.83544 344.518351 
L 99.215816 347.979766 
L 99.596192 347.577786 
L 100.737321 347.376065 
L 101.117697 342.626852 
L 101.498074 341.499846 
L 101.87845 342.344735 
L 102.258826 338.145139 
L 103.780331 337.621834 
L 104.160707 336.898269 
L 104.541083 338.077898 
L 104.921459 335.918899 
L 106.062588 335.328354 
L 106.82334 335.797575 
L 107.203717 336.589841 
L 107.584093 333.919231 
L 109.105598 335.945211 
L 109.86635 341.365365 
L 110.246726 342.116703 
L 112.148607 332.792225 
L 112.528984 332.98079 
L 112.90936 331.276394 
L 114.050488 329.760564 
L 114.430865 329.586616 
L 114.811241 330.960657 
L 115.191617 326.676279 
L 115.571993 333.963083 
L 116.713122 334.300747 
L 117.093498 331.539508 
L 117.473874 333.397388 
L 117.854251 331.903483 
L 118.234627 329.383433 
L 119.375755 324.952881 
L 119.756132 324.857867 
L 120.516884 323.228021 
L 120.89726 321.450537 
L 122.038389 321.019322 
L 122.418765 323.039455 
L 122.799141 321.760428 
L 123.179518 321.786739 
L 123.559894 319.146826 
L 124.701022 319.469872 
L 125.081399 319.174599 
L 125.461775 320.210977 
L 125.842151 319.363164 
L 127.363656 318.95826 
L 127.744032 315.537775 
L 128.124408 316.372432 
L 128.504784 316.615082 
L 128.885161 314.6885 
L 130.406666 314.055564 
L 130.787042 316.938127 
L 131.167418 317.666077 
L 131.547794 313.962013 
L 132.688923 315.455917 
L 133.069299 322.178487 
L 133.449675 322.703254 
L 133.830051 323.780561 
L 134.210428 322.057162 
L 135.351556 331.754385 
L 135.731932 328.360211 
L 136.112309 326.056499 
L 136.492685 322.649169 
L 136.873061 324.885641 
L 138.01419 327.471469 
L 138.394566 324.103606 
L 138.774942 325.221842 
L 139.155318 330.057298 
L 139.535695 329.114472 
L 141.057199 332.724984 
L 141.437576 335.202644 
L 141.817952 334.354831 
L 142.198328 339.162514 
L 143.339457 340.402074 
L 143.719833 332.239685 
L 144.860961 322.501533 
L 146.00209 320.709432 
L 146.382466 320.776673 
L 146.762843 321.665414 
L 147.143219 319.874775 
L 147.523595 320.373231 
L 148.664724 320.009256 
L 149.0451 316.33735 
L 149.425476 315.26589 
L 149.805852 311.498971 
L 150.186228 312.108519 
L 151.327357 312.514884 
L 151.707733 316.391434 
L 152.088109 316.838729 
L 152.848862 313.219446 
L 154.370367 308.503853 
L 154.750743 305.454651 
L 155.511495 305.969185 
L 156.652624 308.069714 
L 157.033 307.419237 
L 157.413376 305.56282 
L 157.793753 304.845103 
L 158.174129 302.729956 
L 159.315257 302.770885 
L 159.695634 304.153697 
L 160.07601 306.809689 
L 160.456386 305.223695 
L 160.836762 307.596109 
L 161.977891 306.673747 
L 162.358267 303.773643 
L 162.738643 301.809056 
L 163.11902 303.78826 
L 163.499396 300.996325 
L 164.640524 301.741816 
L 165.020901 302.744574 
L 165.781653 310.82072 
L 166.162029 313.66674 
L 167.303158 325.660366 
L 167.683534 320.497479 
L 168.06391 320.117425 
L 168.444286 312.501728 
L 168.824663 315.103636 
L 169.965791 319.914242 
L 170.346168 313.856767 
L 170.726544 325.620899 
L 171.10692 324.618141 
L 171.487296 318.872017 
L 172.628425 314.141807 
L 173.008801 317.231938 
L 173.389177 313.992709 
L 173.769553 314.141807 
L 174.14993 324.44127 
L 175.291058 320.117425 
L 175.671434 321.623023 
L 176.051811 318.980187 
L 176.432187 313.856767 
L 176.812563 313.869923 
L 178.334068 316.391434 
L 179.09482 306.606507 
L 179.475197 306.336084 
L 180.996701 306.146057 
L 181.377078 303.205024 
L 181.757454 301.90407 
L 182.13783 302.18911 
L 183.278959 303.395051 
L 183.659335 302.405449 
L 184.039711 302.107252 
L 184.420087 302.161337 
L 184.800464 304.425582 
L 185.941592 304.207781 
L 186.321968 307.460166 
L 186.702345 305.171072 
L 187.082721 305.988188 
L 187.463097 308.154496 
L 188.604226 306.083202 
L 188.984602 311.000515 
L 189.364978 318.190844 
L 189.745354 314.909224 
L 190.12573 309.48907 
L 191.266859 311.300173 
L 191.647235 317.511132 
L 192.788364 306.941247 
L 193.929493 307.214593 
L 194.309869 303.224026 
L 194.690245 303.97244 
L 195.070621 302.829355 
L 195.450997 304.612685 
L 196.592126 301.684808 
L 196.972502 303.114395 
L 197.352878 301.930381 
L 197.733255 301.195123 
L 198.113631 299.560891 
L 199.25476 297.245485 
L 199.635136 297.381428 
L 200.015512 296.073165 
L 200.395888 297.29957 
L 200.776264 293.240301 
L 201.917393 291.661615 
L 202.297769 292.164456 
L 202.678145 291.974429 
L 203.058522 290.476139 
L 203.438898 289.536237 
L 204.580026 290.230566 
L 204.960403 289.509925 
L 205.340779 289.277508 
L 205.721155 288.678192 
L 206.101531 285.532514 
L 207.24266 285.341026 
L 207.623036 285.437501 
L 208.003412 287.016187 
L 208.383789 287.63012 
L 208.764165 286.716529 
L 210.28567 282.645566 
L 210.666046 280.574272 
L 211.426798 282.195348 
L 212.567927 285.804399 
L 212.948303 288.746894 
L 213.328679 286.118675 
L 213.709055 285.219701 
L 214.089432 281.406005 
L 215.610937 283.135251 
L 215.991313 282.04625 
L 216.371689 278.232555 
L 216.752065 278.081995 
L 217.893194 274.958244 
L 218.653946 274.891003 
L 219.414699 270.764494 
L 220.936203 270.394673 
L 221.696956 268.105578 
L 222.077332 268.187436 
L 223.218461 270.586161 
L 223.598837 269.586327 
L 224.359589 265.363343 
L 224.739966 268.804293 
L 225.881094 267.050198 
L 226.26147 268.269294 
L 226.641847 266.007973 
L 227.022223 262.992391 
L 227.402599 264.23926 
L 228.543728 261.100892 
L 228.924104 261.799606 
L 229.30448 260.785154 
L 229.684856 257.029929 
L 230.065233 255.522869 
L 231.586737 256.509547 
L 231.967114 256.413072 
L 232.34749 255.851762 
L 232.727866 260.004582 
L 233.868995 267.351318 
L 234.249371 262.609413 
L 234.629747 262.923689 
L 235.010123 261.567189 
L 235.390499 269.586327 
L 236.531628 266.405568 
L 237.292381 254.439715 
L 237.672757 252.68562 
L 238.053133 255.179358 
L 239.574638 250.94468 
L 239.955014 247.983183 
L 240.33539 248.559111 
L 240.715766 247.888169 
L 242.237271 248.997635 
L 242.617647 246.777242 
L 242.998024 248.683359 
L 244.519528 268.77652 
L 244.899905 282.085717 
L 245.280281 283.744799 
L 245.660657 303.209409 
L 246.041033 307.046492 
L 247.182162 287.185749 
L 247.562538 299.38402 
L 247.942914 281.223287 
L 248.323291 296.28658 
L 248.703667 303.222565 
L 249.844795 335.981755 
L 250.225172 315.764345 
L 250.605548 335.063778 
L 250.985924 371.39986 
L 251.3663 340.437156 
L 252.507429 340.437156 
L 252.887805 316.76745 
L 253.268181 316.76745 
L 253.648558 315.307364 
L 255.550439 315.307364 
L 255.930815 310.232444 
L 274.188873 310.232444 
L 274.569249 317.133462 
L 274.949625 312.402734 
L 275.330001 310.667096 
L 276.47113 298.237253 
L 276.851506 302.506628 
L 277.231883 295.507702 
L 277.612259 298.559162 
L 277.992635 297.719529 
L 279.51414 292.456242 
L 279.894516 286.325136 
L 280.274892 287.16477 
L 280.655268 285.443965 
L 281.796397 283.343398 
L 282.176773 279.774213 
L 282.557149 273.951665 
L 282.937526 275.420282 
L 283.317902 264.027373 
L 284.459031 258.540084 
L 285.219783 264.545097 
L 285.600159 290.468417 
L 285.980535 285.191779 
L 287.121664 281.268049 
L 287.50204 272.975554 
L 287.882416 274.957445 
L 288.262793 274.620702 
L 288.643169 277.290915 
L 289.784297 274.169732 
L 290.164674 272.38514 
L 290.54505 283.503611 
L 290.925426 279.005785 
L 291.305802 289.349894 
L 292.446931 282.997754 
L 292.827307 277.332451 
L 293.58806 272.048396 
L 295.109564 265.286823 
L 295.489941 269.897391 
L 295.870317 266.593744 
L 296.250693 268.857491 
L 296.631069 264.387851 
L 297.772198 268.364985 
L 298.53295 258.399157 
L 298.913327 259.974582 
L 300.434831 254.886343 
L 300.815208 254.057093 
L 301.195584 251.357211 
L 301.57596 256.937957 
L 301.956336 259.847005 
L 303.097465 256.516656 
L 303.477841 259.327797 
L 303.858217 253.874629 
L 304.238593 255.448571 
L 304.61897 251.849717 
L 305.760098 248.630627 
L 306.140475 246.958777 
L 306.901227 240.759432 
L 307.281603 240.422688 
L 308.422732 239.003025 
L 308.803108 242.966808 
L 309.183484 236.417368 
L 309.56386 237.231783 
L 309.944237 237.274804 
L 311.085365 235.742398 
L 311.465741 234.730684 
L 311.846118 236.669555 
L 312.60687 233.535022 
L 314.128375 227.013768 
L 314.508751 222.079807 
L 314.889127 221.011722 
L 315.269504 217.863837 
L 316.410632 219.592059 
L 316.791008 214.96814 
L 317.171385 207.687358 
L 317.551761 225.144619 
L 317.932137 229.136587 
L 319.453642 242.278486 
L 319.834018 233.072185 
L 320.214394 241.449237 
L 320.59477 241.223752 
L 322.116275 232.523308 
L 322.496652 234.435477 
L 322.877028 238.538704 
L 323.257404 244.091264 
L 324.398533 249.305597 
L 324.778909 244.611956 
L 325.159285 255.503459 
L 325.539661 254.303346 
L 325.920037 246.847518 
L 327.061166 239.109833 
L 327.441542 241.722192 
L 328.202295 235.043692 
L 328.582671 239.547452 
L 329.7238 231.287592 
L 330.104176 231.287592 
L 330.484552 222.923812 
L 336.190195 222.923812 
L 336.570571 221.366377 
L 337.7117 230.38522 
L 338.092076 232.028932 
L 338.472452 248.381256 
L 338.852829 243.750602 
L 339.233205 248.748674 
L 340.374333 243.454585 
L 341.135086 224.524385 
L 341.515462 214.981934 
L 346.079977 214.981934 
L 346.460353 220.976399 
L 346.840729 218.983059 
L 347.221105 222.296625 
L 348.362234 219.354282 
L 348.74261 211.461811 
L 349.122986 212.176814 
L 349.883739 210.816143 
L 351.024867 213.098372 
L 351.405243 207.599354 
L 351.78562 206.526128 
L 352.165996 206.622906 
L 352.546372 202.278003 
L 353.687501 203.227006 
L 354.067877 201.811446 
L 354.448253 206.279128 
L 354.828629 206.553573 
L 355.209006 207.186242 
L 356.350134 209.478583 
L 356.73051 202.629004 
L 357.110887 201.814335 
L 357.491263 198.970214 
L 357.871639 200.999666 
L 359.012768 202.685338 
L 359.393144 203.666119 
L 359.77352 203.224117 
L 360.153896 201.249555 
L 361.675401 196.802096 
L 362.055777 197.797322 
L 362.436154 197.119875 
L 362.81653 194.233865 
L 364.338035 201.373778 
L 365.098787 194.882423 
L 365.479163 187.21962 
L 365.859539 184.222387 
L 367.000668 187.674621 
L 367.381044 187.592288 
L 367.761421 186.266283 
L 368.141797 188.089178 
L 368.522173 191.872191 
L 370.043678 187.798844 
L 370.424054 180.576598 
L 370.80443 180.107152 
L 371.184806 181.917046 
L 372.325935 179.803817 
L 372.706311 180.591042 
L 373.086687 193.570863 
L 373.467064 189.179737 
L 373.84744 199.578327 
L 374.988569 191.181744 
L 375.368945 183.780386 
L 375.749321 183.365829 
L 376.129697 177.374254 
L 376.510073 175.274024 
L 377.651202 171.228122 
L 378.031578 171.684568 
L 378.411954 171.905569 
L 378.792331 170.994121 
L 379.172707 168.287223 
L 380.694212 168.71478 
L 381.074588 168.646891 
L 381.454964 170.952232 
L 381.83534 171.974902 
L 382.976469 176.088694 
L 383.356845 175.52247 
L 383.737221 169.626228 
L 384.117598 182.647938 
L 384.497974 185.424169 
L 385.639102 172.63646 
L 386.019479 176.793585 
L 386.780231 190.491297 
L 387.160607 180.866932 
L 388.301736 183.462607 
L 388.682112 176.00636 
L 389.062488 172.720238 
L 389.442864 167.16922 
L 389.823241 166.312661 
L 390.964369 162.999095 
L 391.344746 163.771875 
L 391.725122 161.976425 
L 392.105498 161.976425 
L 392.485874 162.999564 
L 393.627003 158.654886 
L 394.007379 162.971714 
L 394.387755 165.787546 
L 394.768131 162.665358 
L 395.148508 153.764924 
L 396.289636 154.046361 
L 396.670012 155.424228 
L 397.050389 153.24456 
L 397.430765 147.255236 
L 398.95227 139.141945 
L 399.332646 139.493741 
L 399.713022 138.776957 
L 400.093398 138.776957 
L 400.473775 134.620173 
L 401.614903 134.382351 
L 401.995279 132.688413 
L 402.375656 134.620173 
L 402.756032 128.406152 
L 403.136408 126.348916 
L 404.277537 129.217374 
L 404.657913 133.458783 
L 405.038289 128.041394 
L 405.418665 133.234092 
L 405.799042 127.160138 
L 406.94017 125.844091 
L 407.700923 126.251161 
L 408.081299 122.542299 
L 408.461675 126.362047 
L 409.602804 125.102902 
L 409.98318 128.671696 
L 410.363556 128.588531 
L 411.124308 119.574627 
L 412.265437 125.340724 
L 412.645813 130.575734 
L 413.02619 143.016907 
L 413.406566 136.257208 
L 413.786942 127.355649 
L 414.928071 128.75632 
L 415.308447 133.77977 
L 415.688823 135.346771 
L 416.069199 129.245096 
L 416.449575 129.582133 
L 417.590704 123.716821 
L 417.97108 124.990556 
L 418.351456 123.91379 
L 418.731833 123.605934 
L 419.112209 122.485397 
L 420.633714 122.94791 
L 421.01409 121.96744 
L 421.394466 124.221646 
L 421.774842 118.86116 
L 422.915971 119.364526 
L 423.296347 119.336804 
L 423.676723 120.288094 
L 424.0571 117.418176 
L 424.437476 116.436247 
L 425.578604 115.003477 
L 425.958981 116.169244 
L 426.339357 119.468117 
L 426.719733 119.650496 
L 427.100109 127.622652 
L 428.621614 116.548593 
L 429.00199 116.898761 
L 429.382367 113.446689 
L 429.762743 111.24209 
L 431.664624 109.165887 
L 432.045 105.754668 
L 432.425376 101.136829 
L 433.946881 102.695076 
L 434.327257 100.195753 
L 434.707633 105.108317 
L 435.08801 98.652096 
L 436.229138 96.378923 
L 436.609515 98.539751 
L 436.989891 97.725611 
L 437.370267 99.830995 
L 437.750643 104.463424 
L 438.891772 113.544444 
L 439.272148 104.855904 
L 439.652524 99.930209 
L 440.0329 98.596653 
L 440.413277 92.547503 
L 441.554405 90.890042 
L 441.934781 93.726402 
L 442.315158 94.063438 
L 442.695534 91.311702 
L 443.07591 94.455918 
L 444.217039 95.70485 
L 444.597415 90.777696 
L 444.977791 93.739533 
L 445.358167 89.893523 
L 445.738544 88.813838 
L 446.879672 89.24863 
L 447.260048 88.519114 
L 448.401177 83.99903 
L 449.542306 82.38534 
L 449.922682 86.666142 
L 450.303058 93.417087 
L 450.683434 92.505191 
L 451.06381 87.564906 
L 452.204939 82.118337 
L 452.965692 79.703637 
L 453.346068 83.437302 
L 453.726444 77.907568 
L 454.867573 75.085799 
L 455.247949 75.774462 
L 455.628325 75.492869 
L 456.008701 73.584454 
L 456.389077 73.864588 
L 457.910582 75.92912 
L 458.290958 76.770982 
L 458.671335 79.605882 
L 459.051711 84.433822 
L 460.19284 82.974789 
L 460.573216 86.329105 
L 460.953592 81.121817 
L 461.333968 82.300716 
L 461.714344 88.377587 
L 462.855473 98.904509 
L 463.235849 99.256136 
L 463.996602 85.781968 
L 464.376978 84.579725 
L 465.518106 86.552337 
L 465.898483 99.048953 
L 466.278859 97.992614 
L 466.659235 105.60147 
L 467.039611 98.373421 
L 468.18074 106.347035 
L 468.561116 99.992948 
L 468.941492 97.387115 
L 469.321869 92.286336 
L 469.702245 93.202609 
L 471.22375 99.372859 
L 471.604126 97.190146 
L 471.984502 86.651552 
L 472.364878 81.846957 
L 474.266759 81.846957 
L 474.647136 80.209069 
L 475.027512 80.209069 
L 476.16864 76.900635 
L 476.549017 76.177905 
L 476.929393 79.014117 
L 477.309769 72.924181 
L 477.690145 71.714832 
L 478.831274 70.393186 
L 479.21165 67.863631 
L 479.972402 60.925712 
L 480.352779 58.632268 
L 481.493907 57.951289 
L 481.874284 60.231776 
L 482.25466 65.388785 
L 482.635036 65.12532 
L 483.015412 60.35559 
L 484.156541 60.190024 
L 484.536917 57.589924 
L 484.917293 59.133284 
L 485.297669 56.978051 
L 485.678046 58.047749 
L 486.819174 60.008622 
L 487.19955 59.10449 
L 487.579927 57.408522 
L 488.340679 72.228805 
L 489.481808 64.054182 
L 489.862184 76.385222 
L 490.24256 83.809761 
L 490.622936 74.119133 
L 491.003313 79.847704 
L 492.144441 72.228805 
L 492.524817 58.924527 
L 492.905194 57.199765 
L 493.28557 61.621087 
L 493.665946 55.378543 
L 494.807075 61.197815 
L 495.187451 65.80054 
L 495.567827 55.63337 
L 496.328579 68.115579 
L 497.469708 75.352957 
L 497.850084 64.000913 
L 498.230461 57.460351 
L 498.610837 53.443585 
L 500.132342 44.002025 
L 500.512718 44.517438 
L 500.893094 43.820623 
L 501.653846 47.362288 
L 502.794975 43.387273 
L 503.175351 43.610426 
L 503.555727 56.651239 
L 503.936104 57.139298 
L 504.31648 59.760994 
L 505.457609 60.989059 
L 505.837985 54.559353 
L 506.218361 52.815875 
L 506.598737 61.867276 
L 506.979113 61.644123 
L 508.500618 73.150214 
L 509.261371 86.789942 
L 509.641747 98.979892 
L 510.782875 96.831858 
L 511.163252 103.916627 
L 511.543628 105.324655 
L 511.924004 108.490557 
L 512.30438 93.722103 
L 513.445509 82.535626 
L 514.586638 82.535626 
L 514.967014 79.376346 
L 517.249271 79.376346 
L 517.629647 92.045024 
L 519.911905 92.045024 
L 520.292281 96.327286 
L 521.813786 103.012574 
L 522.194162 114.123109 
L 522.574538 104.709429 
L 522.954914 91.324262 
L 524.476419 91.324262 
L 524.856795 79.989235 
L 525.617548 79.989235 
L 526.758676 98.575247 
L 528.280181 98.575247 
L 529.42131 103.216751 
L 532.844696 103.216751 
L 533.225072 94.400347 
L 535.507329 94.400347 
L 535.887705 103.926139 
L 536.268082 102.450545 
L 537.40921 97.069943 
L 538.169963 110.902425 
L 538.550339 107.923631 
L 538.930715 109.533119 
L 540.071844 119.957518 
L 540.45222 122.225432 
L 540.832596 115.316783 
L 541.212972 122.694751 
L 542.734477 122.480797 
L 543.114853 112.955005 
L 543.49523 113.491961 
L 543.875606 122.171599 
L 544.255982 138.68748 
L 545.397111 135.145503 
L 545.777487 151.955399 
L 546.157863 150.265852 
L 546.538239 136.137975 
L 546.918615 157.76529 
L 548.059744 154.195707 
L 548.44012 151.607551 
L 548.820496 134.716215 
L 549.200873 155.229588 
L 549.581249 158.234609 
L 554.145763 158.234609 
L 554.52614 161.69964 
L 559.090654 161.69964 
L 559.47103 166.159973 
L 560.231783 166.159973 
L 561.372911 164.515723 
L 561.753288 164.515723 
L 562.133664 170.449977 
L 562.894416 198.802826 
L 564.035545 218.557557 
L 564.415921 219.874629 
L 564.796297 212.854297 
L 565.176673 229.277849 
L 565.55705 228.395749 
L 567.078555 216.081462 
L 567.458931 216.937896 
L 574.686079 216.937896 
L 575.066455 221.390769 
L 580.772098 221.390769 
L 581.532851 207.755714 
L 582.673979 209.376673 
L 583.054355 212.581099 
L 583.434732 204.782497 
L 583.815108 205.26991 
L 584.195484 206.15975 
L 585.336613 206.598422 
L 585.716989 208.718042 
L 586.097365 198.166184 
L 586.477741 197.983717 
L 586.858117 189.515235 
L 587.999246 187.211898 
L 588.379622 186.114595 
L 588.759999 190.075135 
L 589.140375 188.54041 
L 589.520751 195.472917 
L 590.66188 206.318472 
L 591.042256 207.438271 
L 591.422632 205.867303 
L 591.803008 198.726083 
L 592.183384 216.285435 
L 593.324513 219.269899 
L 593.704889 224.923885 
L 594.085265 228.591978 
L 594.465642 226.934775 
L 594.846018 232.125094 
L 596.367523 234.03902 
L 596.747899 225.373223 
L 597.128275 222.30169 
L 597.508651 214.47722 
L 598.64978 209.101725 
L 599.030156 231.077498 
L 599.410532 229.237328 
L 599.790909 234.819092 
L 600.171285 238.439425 
L 601.312413 234.746585 
L 601.69279 240.364602 
L 602.073166 248.421594 
L 602.453542 252.345705 
L 602.833918 259.987658 
L 604.355423 265.604425 
L 604.735799 256.917375 
L 605.496552 273.297633 
L 606.63768 261.671563 
L 607.018057 247.864042 
L 607.778809 247.864042 
L 608.159185 260.822767 
L 610.441442 260.822767 
L 610.821819 271.175099 
L 613.484452 271.175099 
L 614.625581 265.7492 
L 619.950848 265.7492 
L 620.331224 263.324196 
L 620.7116 272.494753 
L 621.091976 248.390517 
L 621.472353 243.915791 
L 622.613481 247.851494 
L 622.993857 243.905035 
L 625.656491 243.905035 
L 626.036867 241.105157 
L 626.797619 241.14087 
L 627.938748 248.607211 
L 628.319124 249.400033 
L 628.699501 235.038755 
L 629.079877 235.237556 
L 629.460253 235.750629 
L 630.601382 244.337159 
L 630.981758 251.033295 
L 631.362134 251.920161 
L 631.74251 248.303653 
L 632.122886 251.733265 
L 633.264015 245.270452 
L 633.644391 241.539662 
L 634.024767 244.363348 
L 634.405144 255.962842 
L 634.78552 261.53998 
L 635.926649 265.289816 
L 636.307025 264.774362 
L 636.687401 258.094892 
L 637.067777 264.281527 
L 637.448153 261.950676 
L 638.969658 263.683934 
L 639.350034 269.132506 
L 639.730411 261.45784 
L 640.110787 262.395895 
L 641.632292 264.363666 
L 642.012668 260.872152 
L 642.393044 266.004071 
L 642.77342 255.810468 
L 643.914549 256.127121 
L 644.294925 252.846311 
L 644.675301 247.1168 
L 645.436054 243.461007 
L 646.957559 244.328826 
L 647.337935 251.709456 
L 647.718311 254.990265 
L 648.098687 246.589442 
L 649.239816 241.059921 
L 649.620192 241.375383 
L 650.000568 241.293244 
L 650.380945 236.114899 
L 650.761321 234.931617 
L 651.902449 241.0004 
L 653.043578 222.03218 
L 653.423954 227.081959 
L 654.565083 230.068734 
L 654.945459 223.835673 
L 655.706211 233.267404 
L 656.086588 232.224592 
L 657.227716 226.57722 
L 657.608093 226.835542 
L 657.988469 225.289181 
L 658.368845 231.850799 
L 658.749221 233.185265 
L 660.270726 242.688421 
L 660.651102 243.484815 
L 661.031478 241.012304 
L 661.411855 246.109701 
L 662.552983 244.4812 
L 663.313736 247.937002 
L 663.694112 244.281209 
L 664.074488 236.770822 
L 665.215617 236.232751 
L 665.595993 243.743137 
L 665.976369 242.922935 
L 666.737122 258.094892 
L 667.87825 259.04485 
L 668.258626 251.416612 
L 668.639003 254.252202 
L 669.019379 246.366832 
L 669.399755 251.897543 
L 670.540884 247.327505 
L 670.92126 241.28253 
L 671.301636 249.178614 
L 671.682012 248.004856 
L 672.062388 244.933561 
L 673.203517 244.121692 
L 673.583893 244.993083 
L 673.96427 238.227902 
L 674.344646 235.592302 
L 674.725022 228.897356 
L 675.866151 227.179574 
L 676.246527 229.662799 
L 676.626903 230.803226 
L 677.007279 228.979496 
L 678.528784 228.427139 
L 678.90916 228.439043 
L 679.289536 230.250869 
L 679.669913 223.96781 
L 680.050289 225.167757 
L 681.191418 223.367836 
L 681.571794 223.085705 
L 681.95217 223.120228 
L 682.332546 225.861775 
L 682.712922 225.591548 
L 683.854051 224.97967 
L 684.234427 232.720999 
L 684.614803 234.674485 
L 684.99518 225.191566 
L 685.375556 221.156028 
L 686.516684 221.508393 
L 686.897061 227.003391 
L 687.657813 233.862616 
L 688.038189 225.109426 
L 689.179318 224.849914 
L 689.559694 226.839113 
L 689.94007 224.791583 
L 690.700823 226.155809 
L 691.841951 224.543975 
L 692.222328 227.803357 
L 692.98308 217.166916 
L 693.363456 217.884742 
L 694.504585 217.743081 
L 694.884961 223.15594 
L 695.265337 226.827209 
L 695.645714 222.544062 
L 696.02609 216.108629 
L 697.547595 216.014585 
L 697.927971 219.072785 
L 698.308347 213.990864 
L 698.688723 206.884031 
L 699.829852 207.754231 
L 700.210228 206.68404 
L 700.590604 208.349444 
L 700.97098 205.434095 
L 701.351357 204.418663 
L 702.492485 199.804578 
L 702.872861 196.452344 
L 703.253238 195.851179 
L 703.633614 189.465744 
L 704.01399 191.329948 
L 705.535495 193.796507 
L 705.915871 196.535673 
L 706.296247 194.670278 
L 706.676624 198.612964 
L 707.817752 200.784297 
L 708.198128 195.119068 
L 708.578505 194.953599 
L 708.958881 192.888213 
L 709.339257 186.514682 
L 710.480386 185.759953 
L 711.241138 186.668247 
L 711.621514 190.976392 
L 712.001891 192.309667 
L 713.143019 190.928775 
L 713.903772 183.481481 
L 714.284148 178.973344 
L 714.664524 179.504274 
L 715.805653 177.521027 
L 716.186029 173.639053 
L 716.566405 172.64743 
L 716.946781 176.010378 
L 717.327157 176.022283 
L 718.468286 173.649767 
L 718.848662 172.19864 
L 719.229039 172.151023 
L 719.609415 175.644918 
L 719.989791 170.57014 
L 721.13092 169.436856 
L 721.511296 170.947504 
L 721.891672 178.51265 
L 722.272048 180.047107 
L 722.652424 182.52557 
L 723.793553 177.84006 
L 724.173929 180.08282 
L 724.554305 183.682663 
L 724.934682 183.445768 
L 725.315058 183.764802 
L 726.456187 180.932783 
L 726.836563 186.951568 
L 727.597315 194.894078 
L 727.977691 194.800035 
L 729.11882 191.30614 
L 729.499196 192.79417 
L 729.879572 187.057515 
L 730.259949 194.115541 
L 730.640325 190.40975 
L 731.781453 187.258697 
L 732.16183 179.669743 
L 732.542206 177.33294 
L 732.922582 178.276946 
L 733.302958 177.143662 
L 734.824463 179.444752 
L 735.204839 183.151733 
L 735.585216 184.614765 
L 735.965592 183.965984 
L 737.10672 180.389949 
L 737.487097 183.269585 
L 737.867473 182.773179 
L 738.247849 178.041242 
L 738.628225 184.933799 
L 739.769354 184.024314 
L 740.14973 185.205215 
L 740.530106 190.197855 
L 740.910482 198.753434 
L 741.290859 199.981951 
L 742.431987 197.857044 
L 742.812364 205.388858 
L 743.19274 205.259102 
L 745.094621 205.259102 
L 745.474997 212.019695 
L 748.898383 212.019695 
L 749.278759 214.65073 
L 751.18064 214.65073 
L 751.561016 219.165741 
L 753.843274 219.165741 
L 754.22365 225.117618 
L 754.604026 227.351934 
L 755.745155 221.589006 
L 759.929293 221.589006 
L 761.070422 222.154804 
L 761.450798 222.154804 
L 761.831174 221.165081 
L 762.591926 220.033345 
L 763.733055 216.073361 
L 764.113431 217.214929 
L 764.493808 215.332708 
L 765.25456 214.963474 
L 766.395689 215.887652 
L 766.776065 215.463797 
L 767.156441 215.69211 
L 767.536817 213.897282 
L 767.917193 210.948869 
L 769.058322 213.428639 
L 769.438698 213.537879 
L 769.819074 215.604718 
L 770.199451 211.785655 
L 770.579827 209.6205 
L 771.720955 207.662902 
L 772.101332 205.160193 
L 772.481708 198.2081 
L 772.862084 196.597889 
L 773.24246 197.467447 
L 774.383589 194.606427 
L 774.763965 191.614318 
L 775.144341 199.080935 
L 775.524718 193.870143 
L 775.905094 192.876051 
L 777.426599 190.636612 
L 777.806975 189.642519 
L 778.187351 189.402189 
L 778.567727 190.89879 
L 778.567727 190.89879 
" clip-path="url(#p9f84e90b70)" style="fill: none; stroke: #d62728; stroke-width: 1.5; stroke-linecap: square"/>
   </g>
   <g id="patch_3">
    <path d="M 50.87 390.04 
L 50.87 26.88 
" style="fill: none; stroke: #000000; stroke-width: 0.8; stroke-linejoin: miter; stroke-linecap: square"/>
   </g>
   <g id="patch_4">
    <path d="M 813.22 390.04 
L 813.22 26.88 
" style="fill: none; stroke: #000000; stroke-width: 0.8; stroke-linejoin: miter; stroke-linecap: square"/>
   </g>
   <g id="patch_5">
    <path d="M 50.87 390.04 
L 813.22 390.04 
" style="fill: none; stroke: #000000; stroke-width: 0.8; stroke-linejoin: miter; stroke-linecap: square"/>
   </g>
   <g id="patch_6">
    <path d="M 50.87 26.88 
L 813.22 26.88 
" style="fill: none; stroke: #000000; stroke-width: 0.8; stroke-linejoin: miter; stroke-linecap: square"/>
   </g>
  </g>
  <g id="axes_2">
   <g id="matplotlib.axis_3">
    <g id="ytick_7">
     <g id="line2d_26">
      <defs>
       <path id="m8636450701" d="M 0 0 
L 3.5 0 
" style="stroke: #000000; stroke-width: 0.8"/>
      </defs>
      <g>
       <use xlink:href="#m8636450701" x="813.22" y="386.642877" style="stroke: #000000; stroke-width: 0.8"/>
      </g>
     </g>
     <g id="text_15">
      <!-- 200 -->
      <g style="fill: #1f77b4" transform="translate(820.22 390.442096) scale(0.1 -0.1)">
       <use xlink:href="#DejaVuSans-32"/>
       <use xlink:href="#DejaVuSans-30" x="63.623047"/>
       <use xlink:href="#DejaVuSans-30" x="127.246094"/>
      </g>
     </g>
    </g>
    <g id="ytick_8">
     <g id="line2d_27">
      <g>
       <use xlink:href="#m8636450701" x="813.22" y="325.127536" style="stroke: #000000; stroke-width: 0.8"/>
      </g>
     </g>
     <g id="text_16">
      <!-- 250 -->
      <g style="fill: #1f77b4" transform="translate(820.22 328.926754) scale(0.1 -0.1)">
       <defs>
        <path id="DejaVuSans-35" d="M 691 4666 
L 3169 4666 
L 3169 4134 
L 1269 4134 
L 1269 2991 
Q 1406 3038 1543 3061 
Q 1681 3084 1819 3084 
Q 2600 3084 3056 2656 
Q 3513 2228 3513 1497 
Q 3513 744 3044 326 
Q 2575 -91 1722 -91 
Q 1428 -91 1123 -41 
Q 819 9 494 109 
L 494 744 
Q 775 591 1075 516 
Q 1375 441 1709 441 
Q 2250 441 2565 725 
Q 2881 1009 2881 1497 
Q 2881 1984 2565 2268 
Q 2250 2553 1709 2553 
Q 1456 2553 1204 2497 
Q 953 2441 691 2322 
L 691 4666 
z
" transform="scale(0.015625)"/>
       </defs>
       <use xlink:href="#DejaVuSans-32"/>
       <use xlink:href="#DejaVuSans-35" x="63.623047"/>
       <use xlink:href="#DejaVuSans-30" x="127.246094"/>
      </g>
     </g>
    </g>
    <g id="ytick_9">
     <g id="line2d_28">
      <g>
       <use xlink:href="#m8636450701" x="813.22" y="263.612194" style="stroke: #000000; stroke-width: 0.8"/>
      </g>
     </g>
     <g id="text_17">
      <!-- 300 -->
      <g style="fill: #1f77b4" transform="translate(820.22 267.411413) scale(0.1 -0.1)">
       <use xlink:href="#DejaVuSans-33"/>
       <use xlink:href="#DejaVuSans-30" x="63.623047"/>
       <use xlink:href="#DejaVuSans-30" x="127.246094"/>
      </g>
     </g>
    </g>
    <g id="ytick_10">
     <g id="line2d_29">
      <g>
       <use xlink:href="#m8636450701" x="813.22" y="202.096853" style="stroke: #000000; stroke-width: 0.8"/>
      </g>
     </g>
     <g id="text_18">
      <!-- 350 -->
      <g style="fill: #1f77b4" transform="translate(820.22 205.896072) scale(0.1 -0.1)">
       <use xlink:href="#DejaVuSans-33"/>
       <use xlink:href="#DejaVuSans-35" x="63.623047"/>
       <use xlink:href="#DejaVuSans-30" x="127.246094"/>
      </g>
     </g>
    </g>
    <g id="ytick_11">
     <g id="line2d_30">
      <g>
       <use xlink:href="#m8636450701" x="813.22" y="140.581512" style="stroke: #000000; stroke-width: 0.8"/>
      </g>
     </g>
     <g id="text_19">
      <!-- 400 -->
      <g style="fill: #1f77b4" transform="translate(820.22 144.380731) scale(0.1 -0.1)">
       <use xlink:href="#DejaVuSans-34"/>
       <use xlink:href="#DejaVuSans-30" x="63.623047"/>
       <use xlink:href="#DejaVuSans-30" x="127.246094"/>
      </g>
     </g>
    </g>
    <g id="ytick_12">
     <g id="line2d_31">
      <g>
       <use xlink:href="#m8636450701" x="813.22" y="79.066171" style="stroke: #000000; stroke-width: 0.8"/>
      </g>
     </g>
     <g id="text_20">
      <!-- 450 -->
      <g style="fill: #1f77b4" transform="translate(820.22 82.865389) scale(0.1 -0.1)">
       <use xlink:href="#DejaVuSans-34"/>
       <use xlink:href="#DejaVuSans-35" x="63.623047"/>
       <use xlink:href="#DejaVuSans-30" x="127.246094"/>
      </g>
     </g>
    </g>
    <g id="text_21">
     <!-- Close Price -->
     <g style="fill: #1f77b4" transform="translate(850.905938 235.867812) rotate(-90) scale(0.1 -0.1)">
      <defs>
       <path id="DejaVuSans-43" d="M 4122 4306 
L 4122 3641 
Q 3803 3938 3442 4084 
Q 3081 4231 2675 4231 
Q 1875 4231 1450 3742 
Q 1025 3253 1025 2328 
Q 1025 1406 1450 917 
Q 1875 428 2675 428 
Q 3081 428 3442 575 
Q 3803 722 4122 1019 
L 4122 359 
Q 3791 134 3420 21 
Q 3050 -91 2638 -91 
Q 1578 -91 968 557 
Q 359 1206 359 2328 
Q 359 3453 968 4101 
Q 1578 4750 2638 4750 
Q 3056 4750 3426 4639 
Q 3797 4528 4122 4306 
z
" transform="scale(0.015625)"/>
       <path id="DejaVuSans-6c" d="M 603 4863 
L 1178 4863 
L 1178 0 
L 603 0 
L 603 4863 
z
" transform="scale(0.015625)"/>
       <path id="DejaVuSans-6f" d="M 1959 3097 
Q 1497 3097 1228 2736 
Q 959 2375 959 1747 
Q 959 1119 1226 758 
Q 1494 397 1959 397 
Q 2419 397 2687 759 
Q 2956 1122 2956 1747 
Q 2956 2369 2687 2733 
Q 2419 3097 1959 3097 
z
M 1959 3584 
Q 2709 3584 3137 3096 
Q 3566 2609 3566 1747 
Q 3566 888 3137 398 
Q 2709 -91 1959 -91 
Q 1206 -91 779 398 
Q 353 888 353 1747 
Q 353 2609 779 3096 
Q 1206 3584 1959 3584 
z
" transform="scale(0.015625)"/>
       <path id="DejaVuSans-50" d="M 1259 4147 
L 1259 2394 
L 2053 2394 
Q 2494 2394 2734 2622 
Q 2975 2850 2975 3272 
Q 2975 3691 2734 3919 
Q 2494 4147 2053 4147 
L 1259 4147 
z
M 628 4666 
L 2053 4666 
Q 2838 4666 3239 4311 
Q 3641 3956 3641 3272 
Q 3641 2581 3239 2228 
Q 2838 1875 2053 1875 
L 1259 1875 
L 1259 0 
L 628 0 
L 628 4666 
z
" transform="scale(0.015625)"/>
       <path id="DejaVuSans-69" d="M 603 3500 
L 1178 3500 
L 1178 0 
L 603 0 
L 603 3500 
z
M 603 4863 
L 1178 4863 
L 1178 4134 
L 603 4134 
L 603 4863 
z
" transform="scale(0.015625)"/>
       <path id="DejaVuSans-63" d="M 3122 3366 
L 3122 2828 
Q 2878 2963 2633 3030 
Q 2388 3097 2138 3097 
Q 1578 3097 1268 2742 
Q 959 2388 959 1747 
Q 959 1106 1268 751 
Q 1578 397 2138 397 
Q 2388 397 2633 464 
Q 2878 531 3122 666 
L 3122 134 
Q 2881 22 2623 -34 
Q 2366 -91 2075 -91 
Q 1284 -91 818 406 
Q 353 903 353 1747 
Q 353 2603 823 3093 
Q 1294 3584 2113 3584 
Q 2378 3584 2631 3529 
Q 2884 3475 3122 3366 
z
" transform="scale(0.015625)"/>
      </defs>
      <use xlink:href="#DejaVuSans-43"/>
      <use xlink:href="#DejaVuSans-6c" x="69.824219"/>
      <use xlink:href="#DejaVuSans-6f" x="97.607422"/>
      <use xlink:href="#DejaVuSans-73" x="158.789062"/>
      <use xlink:href="#DejaVuSans-65" x="210.888672"/>
      <use xlink:href="#DejaVuSans-20" x="272.412109"/>
      <use xlink:href="#DejaVuSans-50" x="304.199219"/>
      <use xlink:href="#DejaVuSans-72" x="362.751953"/>
      <use xlink:href="#DejaVuSans-69" x="403.865234"/>
      <use xlink:href="#DejaVuSans-63" x="431.648438"/>
      <use xlink:href="#DejaVuSans-65" x="486.628906"/>
     </g>
    </g>
   </g>
   <g id="line2d_32">
    <path d="M 85.522273 348.460304 
L 85.902649 355.564096 
L 86.283025 345.818836 
L 87.424154 343.887254 
L 87.80453 341.041554 
L 88.565282 338.535419 
L 88.945659 338.692899 
L 90.086787 340.116364 
L 90.467163 336.954475 
L 90.84754 336.174461 
L 91.227916 333.995587 
L 91.608292 329.99832 
L 93.129797 334.030036 
L 93.890549 333.306615 
L 94.270926 330.641771 
L 95.412054 333.069166 
L 95.79243 333.48747 
L 96.172807 328.688044 
L 96.553183 326.06872 
L 96.933559 325.898938 
L 98.074688 323.697919 
L 98.455064 322.37657 
L 98.83544 322.839165 
L 99.215816 325.752531 
L 99.596192 325.414197 
L 100.737321 325.244415 
L 101.117697 321.247148 
L 101.498074 320.298581 
L 101.87845 321.009699 
L 102.258826 317.475027 
L 103.780331 317.034577 
L 104.160707 316.425575 
L 104.541083 317.418433 
L 104.921459 315.60127 
L 106.062588 315.104226 
L 106.82334 315.499154 
L 107.203717 316.165981 
L 107.584093 313.91821 
L 109.105598 315.623415 
L 109.86635 320.185393 
L 110.246726 320.817771 
L 112.148607 312.969644 
L 112.528984 313.128353 
L 112.90936 311.693815 
L 114.050488 310.417987 
L 114.430865 310.271581 
L 114.811241 311.428069 
L 115.191617 307.82204 
L 115.571993 313.955119 
L 116.713122 314.23932 
L 117.093498 311.915271 
L 117.473874 313.478991 
L 117.854251 312.221617 
L 118.234627 310.100568 
L 119.375755 306.371508 
L 119.756132 306.291538 
L 120.516884 304.919746 
L 120.89726 303.423693 
L 122.038389 303.060752 
L 122.418765 304.761036 
L 122.799141 303.684518 
L 123.179518 303.706663 
L 123.559894 301.484729 
L 124.701022 301.756627 
L 125.081399 301.508105 
L 125.461775 302.380393 
L 125.842151 301.666815 
L 127.363656 301.32602 
L 127.744032 298.447102 
L 128.124408 299.149607 
L 128.504784 299.353838 
L 128.885161 297.732294 
L 130.406666 297.199571 
L 130.787042 299.625736 
L 131.167418 300.238429 
L 131.547794 297.120831 
L 132.688923 298.378205 
L 133.069299 304.036386 
L 133.449675 304.478066 
L 133.830051 305.384802 
L 134.210428 303.93427 
L 135.351556 312.096126 
L 135.731932 309.239353 
L 136.112309 307.30039 
L 136.492685 304.432544 
L 136.873061 306.314914 
L 138.01419 308.491327 
L 138.394566 305.6567 
L 138.774942 306.597884 
L 139.155318 310.667739 
L 139.535695 309.874192 
L 141.057199 312.913049 
L 141.437576 314.998419 
L 141.817952 314.284842 
L 142.198328 318.331321 
L 143.339457 319.374621 
L 143.719833 312.504588 
L 144.860961 304.308283 
L 146.00209 302.799927 
L 146.382466 302.856521 
L 146.762843 303.604548 
L 147.143219 302.097422 
L 147.523595 302.516957 
L 148.664724 302.21061 
L 149.0451 299.12008 
L 149.425476 298.218265 
L 149.805852 295.047764 
L 150.186228 295.560802 
L 151.327357 295.902827 
L 151.707733 299.165601 
L 152.088109 299.542075 
L 152.848862 296.495835 
L 154.370367 292.526865 
L 154.750743 289.960445 
L 155.511495 290.393513 
L 156.652624 292.161464 
L 157.033 291.613978 
L 157.413376 290.051488 
L 157.793753 289.447407 
L 158.174129 287.667153 
L 159.315257 287.701602 
L 159.695634 288.865472 
L 160.07601 291.10094 
L 160.456386 289.766057 
L 160.836762 291.762845 
L 161.977891 290.986521 
L 162.358267 288.545592 
L 162.738643 286.89206 
L 163.11902 288.557896 
L 163.499396 286.208009 
L 164.640524 286.835466 
L 165.020901 287.679456 
L 165.781653 294.476902 
L 166.162029 296.872309 
L 167.303158 306.966977 
L 167.683534 302.621533 
L 168.06391 302.301653 
L 168.444286 295.891754 
L 168.824663 298.081701 
L 169.965791 302.13064 
L 170.346168 297.032249 
L 170.726544 306.933758 
L 171.10692 306.089768 
L 171.487296 301.253432 
L 172.628425 297.272159 
L 173.008801 299.873027 
L 173.389177 297.146667 
L 173.769553 297.272159 
L 174.14993 305.940901 
L 175.291058 302.301653 
L 175.671434 303.568869 
L 176.051811 301.344474 
L 176.432187 297.032249 
L 176.812563 297.043322 
L 178.334068 299.165601 
L 179.09482 290.929927 
L 179.475197 290.70232 
L 180.996701 290.564526 
L 181.377078 288.089149 
L 181.757454 286.994176 
L 182.13783 287.234085 
L 183.278959 288.249088 
L 183.659335 287.416171 
L 184.039711 287.165188 
L 184.420087 287.21071 
L 184.800464 289.116455 
L 185.941592 288.933139 
L 186.321968 291.670572 
L 186.702345 289.743911 
L 187.082721 290.431653 
L 187.463097 292.254968 
L 188.604226 290.511623 
L 188.984602 294.650375 
L 189.364978 300.702254 
L 189.745354 297.940215 
L 190.12573 293.378238 
L 191.266859 294.902588 
L 191.647235 300.130162 
L 192.788364 291.233813 
L 193.929493 291.46388 
L 194.309869 288.105143 
L 194.690245 288.73506 
L 195.070621 287.77296 
L 195.450997 289.273934 
L 196.592126 286.80963 
L 196.972502 288.01287 
L 197.352878 287.016321 
L 197.733255 286.397477 
L 198.113631 285.021994 
L 199.25476 283.073188 
L 199.635136 283.187606 
L 200.015512 282.086482 
L 200.395888 283.118709 
L 200.776264 279.702147 
L 201.917393 278.373416 
L 202.297769 278.796641 
L 202.678145 278.636701 
L 203.058522 277.375637 
L 203.438898 276.584549 
L 204.580026 277.168945 
L 204.960403 276.562404 
L 205.340779 276.366785 
L 205.721155 275.862359 
L 206.101531 273.214739 
L 207.24266 273.053569 
L 207.623036 273.134769 
L 208.003412 274.463501 
L 208.383789 274.980229 
L 208.764165 274.211288 
L 210.28567 270.784883 
L 210.666046 269.041538 
L 211.426798 270.405949 
L 212.567927 273.443576 
L 212.948303 275.920184 
L 213.328679 273.708092 
L 213.709055 272.951453 
L 214.089432 269.741583 
L 215.610937 271.197036 
L 215.991313 270.280457 
L 216.371689 267.070587 
L 216.752065 266.943865 
L 217.893194 264.3147 
L 218.653946 264.258105 
L 219.414699 260.784949 
L 220.936203 260.473682 
L 221.696956 258.547021 
L 222.077332 258.615918 
L 223.218461 260.634852 
L 223.598837 259.793322 
L 224.359589 256.238966 
L 224.739966 259.135108 
L 225.881094 257.65874 
L 226.26147 258.684816 
L 226.641847 256.781531 
L 227.022223 254.243408 
L 227.402599 255.29286 
L 228.543728 252.651391 
L 228.924104 253.239477 
L 229.30448 252.385645 
L 229.684856 249.224986 
L 230.065233 247.95654 
L 231.586737 248.786997 
L 231.967114 248.705797 
L 232.34749 248.233359 
L 232.727866 251.728661 
L 233.868995 257.912183 
L 234.249371 253.921067 
L 234.629747 254.185583 
L 235.010123 253.043859 
L 235.390499 259.793322 
L 236.531628 257.116174 
L 237.292381 247.044883 
L 237.672757 245.568514 
L 238.053133 247.667418 
L 239.574638 244.103219 
L 239.955014 241.610617 
L 240.33539 242.095358 
L 240.715766 241.530647 
L 242.237271 242.46445 
L 242.617647 240.595614 
L 242.998024 242.199934 
L 244.519528 259.111732 
L 244.899905 270.313676 
L 245.280281 271.710074 
L 245.660657 288.09284 
L 246.041033 291.322395 
L 247.182162 274.606216 
L 247.562538 284.873127 
L 247.942914 269.587795 
L 248.323291 282.266106 
L 248.703667 288.103912 
L 249.844795 315.676319 
L 250.225172 298.659945 
L 250.605548 314.903686 
L 250.985924 345.486653 
L 251.3663 319.426294 
L 252.507429 355.685896 
L 252.887805 338.069133 
L 253.268181 354.474044 
L 253.648558 353.447968 
L 254.028934 366.022934 
L 255.170062 373.532727 
L 255.550439 349.041009 
L 255.930815 345.417756 
L 256.311191 328.119642 
L 256.691567 337.558556 
L 257.832696 328.131945 
L 258.213072 332.728371 
L 258.593448 346.19531 
L 258.973824 339.474143 
L 259.354201 343.617817 
L 260.495329 324.138369 
L 260.875706 324.010417 
L 261.256082 313.458075 
L 261.636458 308.674642 
L 263.157963 311.786088 
L 263.538339 302.045749 
L 263.918715 309.313172 
L 264.299091 307.595663 
L 264.679468 298.854333 
L 265.820596 304.797946 
L 266.200972 314.781885 
L 266.581349 307.58336 
L 266.961725 307.676864 
L 267.342101 303.125959 
L 268.48323 298.145677 
L 268.863606 299.945615 
L 269.243982 291.249807 
L 269.624358 294.698357 
L 270.004735 303.555336 
L 271.145863 302.278277 
L 271.526239 299.364911 
L 271.906616 301.558548 
L 272.286992 297.635099 
L 272.667368 292.027361 
L 273.808497 292.039664 
L 274.569249 304.704442 
L 274.949625 300.780994 
L 275.330001 299.341535 
L 276.47113 289.032794 
L 276.851506 292.573617 
L 277.231883 286.769029 
L 277.612259 289.299771 
L 277.992635 288.603417 
L 279.51414 284.238288 
L 279.894516 279.15343 
L 280.274892 279.849784 
L 280.655268 278.422628 
L 281.796397 276.680513 
L 282.176773 273.720395 
L 282.557149 268.891441 
L 282.937526 270.109445 
L 283.317902 260.660688 
L 284.459031 256.109783 
L 285.219783 261.090065 
L 285.600159 282.589677 
L 285.980535 278.213476 
L 287.121664 274.959314 
L 287.50204 268.081899 
L 287.882416 269.725589 
L 288.262793 269.446309 
L 288.643169 271.660862 
L 289.784297 269.072296 
L 290.164674 267.592237 
L 290.54505 276.813387 
L 290.925426 273.083096 
L 291.305802 281.662026 
L 292.446931 276.393852 
L 292.827307 271.69531 
L 293.58806 267.312957 
L 295.109564 261.705219 
L 295.489941 265.529012 
L 295.870317 262.789119 
L 296.250693 264.666567 
L 296.631069 260.959653 
L 297.772198 264.258105 
L 298.53295 255.992904 
L 298.913327 257.29949 
L 300.434831 253.079538 
L 300.815208 252.391796 
L 301.195584 250.152638 
L 301.57596 254.781052 
L 301.956336 257.193684 
L 303.097465 254.431645 
L 303.477841 256.763076 
L 303.858217 252.240468 
L 304.238593 253.545824 
L 304.61897 250.5611 
L 305.760098 247.891334 
L 306.140475 246.504778 
L 306.901227 241.363326 
L 307.281603 241.084046 
L 308.422732 239.906642 
L 308.803108 243.194022 
L 309.183484 237.762218 
L 309.56386 238.437656 
L 309.944237 238.473335 
L 311.085365 237.202428 
L 311.465741 236.363359 
L 311.846118 237.97137 
L 312.60687 235.371731 
L 314.128375 229.963303 
L 314.508751 225.871302 
L 314.889127 224.985481 
L 315.269504 222.37477 
L 316.410632 223.808078 
L 316.791008 219.973211 
L 317.171385 213.934865 
L 317.551761 228.413116 
L 317.932137 231.723872 
L 319.453642 242.62316 
L 319.834018 234.987876 
L 320.214394 241.935418 
L 320.59477 241.748412 
L 322.116275 234.532662 
L 322.496652 236.118528 
L 322.877028 239.521556 
L 323.257404 244.126595 
L 324.398533 248.451123 
L 324.778909 244.558433 
L 325.159285 253.591345 
L 325.539661 252.596027 
L 325.920037 246.412505 
L 327.061166 239.995225 
L 327.441542 242.161795 
L 328.202295 236.622954 
L 328.582671 240.358165 
L 329.7238 233.507817 
L 330.104176 239.17584 
L 330.484552 232.337795 
L 331.245304 225.18233 
L 332.386433 218.531292 
L 333.147185 223.800696 
L 333.907938 224.666832 
L 335.049066 230.791299 
L 335.429443 229.210355 
L 335.809819 229.995291 
L 336.190195 227.699538 
L 336.570571 226.411407 
L 337.7117 233.870757 
L 338.092076 235.230246 
L 338.472452 248.755009 
L 338.852829 244.925064 
L 339.233205 249.058895 
L 340.374333 244.680233 
L 341.135086 229.023348 
L 341.515462 221.13093 
L 341.895838 221.165379 
L 343.036967 216.025157 
L 343.417343 216.564031 
L 343.797719 213.565773 
L 344.178095 217.559349 
L 344.558472 211.914702 
L 345.6996 206.692049 
L 346.079977 208.858619 
L 346.460353 213.964393 
L 346.840729 212.266569 
L 347.221105 215.088893 
L 348.362234 212.582758 
L 348.74261 205.860362 
L 349.122986 206.469364 
L 349.883739 205.310415 
L 351.024867 207.254299 
L 351.405243 202.570521 
L 351.78562 201.656403 
L 352.165996 201.738834 
L 352.546372 198.038071 
L 353.687501 198.846382 
L 354.067877 197.640682 
L 354.448253 201.446021 
L 354.828629 201.679779 
L 355.209006 202.218653 
L 356.350134 204.17115 
L 356.73051 198.337035 
L 357.110887 197.643142 
L 357.491263 195.220668 
L 357.871639 196.949249 
L 359.012768 198.385017 
L 359.393144 199.220396 
L 359.77352 198.843922 
L 360.153896 197.162092 
L 361.675401 193.373978 
L 362.055777 194.221659 
L 362.436154 193.644645 
L 362.81653 191.186492 
L 364.338035 197.267899 
L 365.098787 191.7389 
L 365.479163 185.212122 
L 365.859539 182.659236 
L 367.000668 185.599669 
L 367.381044 185.529541 
L 367.761421 184.40012 
L 368.141797 185.952767 
L 368.522173 189.174941 
L 370.043678 185.705475 
L 370.424054 179.553941 
L 370.80443 179.154091 
L 371.184806 180.695666 
L 372.325935 178.895727 
L 372.706311 179.566244 
L 373.086687 190.621781 
L 373.467064 186.881649 
L 373.84744 195.738627 
L 374.988569 188.586854 
L 375.368945 182.282762 
L 375.749321 181.929664 
L 376.129697 176.826351 
L 376.510073 175.037485 
L 377.651202 171.591395 
L 378.031578 171.980172 
L 378.411954 172.168409 
L 378.792331 171.392086 
L 379.172707 169.086491 
L 380.694212 169.450662 
L 381.074588 169.392837 
L 381.454964 171.356407 
L 381.83534 172.227464 
L 382.976469 175.731378 
L 383.356845 175.249098 
L 383.737221 170.226985 
L 384.117598 181.318201 
L 384.497974 183.682851 
L 385.639102 172.790945 
L 386.019479 176.331768 
L 386.780231 187.998767 
L 387.160607 179.801233 
L 388.301736 182.012094 
L 388.682112 175.66125 
L 389.062488 172.862302 
L 389.442864 168.134233 
L 389.823241 167.404661 
L 390.964369 164.582337 
L 391.344746 165.240552 
L 391.725122 163.71128 
L 392.105498 170.556707 
L 392.485874 171.415462 
L 393.627003 167.768832 
L 394.007379 171.392086 
L 394.387755 173.755505 
L 394.768131 171.134952 
L 395.148508 163.664529 
L 396.289636 163.900747 
L 396.670012 165.057236 
L 397.050389 163.22777 
L 397.430765 158.200736 
L 398.95227 151.390988 
L 399.332646 151.686261 
L 399.713022 151.084641 
L 400.093398 148.843022 
L 400.473775 145.337878 
L 401.614903 145.137338 
L 401.995279 143.708952 
L 402.375656 145.337878 
L 402.756032 140.098001 
L 403.136408 138.363269 
L 404.277537 140.782052 
L 404.657913 144.358554 
L 405.038289 139.790425 
L 405.418665 144.169087 
L 405.799042 139.047319 
L 406.94017 137.937583 
L 407.700923 138.280838 
L 408.081299 135.153398 
L 408.461675 138.374341 
L 409.602804 137.312587 
L 409.98318 140.321917 
L 410.363556 140.25179 
L 411.124308 132.650954 
L 412.265437 137.513127 
L 412.645813 141.927468 
L 413.02619 152.418294 
L 413.406566 146.718282 
L 413.786942 139.21218 
L 414.928071 140.393275 
L 415.308447 144.629221 
L 415.688823 145.950571 
L 416.069199 140.805428 
L 416.449575 141.089629 
L 417.590704 136.143795 
L 417.97108 137.217853 
L 418.351456 136.309887 
L 418.731833 136.050292 
L 419.112209 135.105416 
L 420.633714 135.495423 
L 421.01409 134.668657 
L 421.394466 136.569481 
L 421.774842 132.049334 
L 422.915971 132.47379 
L 423.296347 132.450414 
L 423.676723 133.252574 
L 424.0571 130.832561 
L 424.437476 130.004564 
L 425.578604 128.796403 
L 425.958981 129.779418 
L 426.339357 132.561142 
L 426.719733 132.71493 
L 427.100109 139.437327 
L 428.621614 130.099298 
L 429.00199 130.394571 
L 429.382367 127.483665 
L 429.762743 125.624672 
L 431.664624 123.873945 
L 432.045 120.997488 
L 432.425376 117.103567 
L 433.946881 118.417534 
L 434.327257 116.310019 
L 434.707633 120.452462 
L 435.08801 115.008354 
L 436.229138 113.091536 
L 436.609515 114.913621 
L 436.989891 114.227109 
L 437.370267 116.002442 
L 437.750643 119.908666 
L 438.891772 127.566096 
L 439.272148 120.239619 
L 439.652524 116.086103 
L 440.0329 114.961603 
L 440.413277 109.86075 
L 441.554405 108.463122 
L 441.934781 110.854838 
L 442.315158 111.139039 
L 442.695534 108.818681 
L 443.07591 111.469992 
L 444.217039 112.523134 
L 444.597415 108.368388 
L 444.977791 110.865911 
L 445.358167 107.622822 
L 445.738544 106.712395 
L 446.879672 107.079027 
L 447.260048 106.463873 
L 448.401177 102.652383 
L 449.542306 101.291663 
L 449.922682 104.901384 
L 450.303058 110.594013 
L 450.683434 109.825072 
L 451.06381 105.659253 
L 452.204939 101.066517 
L 452.965692 99.030359 
L 453.346068 102.178715 
L 453.726444 97.515852 
L 454.867573 95.136438 
L 455.247949 95.717143 
L 455.628325 95.479694 
L 456.008701 93.870453 
L 456.389077 94.106672 
L 457.910582 95.847556 
L 458.290958 96.557443 
L 458.671335 98.947929 
L 459.051711 103.019014 
L 460.19284 101.788707 
L 460.573216 104.617183 
L 460.953592 100.226218 
L 461.333968 101.220306 
L 461.714344 106.344534 
L 462.855473 115.221197 
L 463.235849 115.517701 
L 463.996602 104.155818 
L 464.376978 103.142045 
L 465.518106 104.80542 
L 465.898483 115.342998 
L 466.278859 114.452256 
L 466.659235 120.868306 
L 467.039611 114.773366 
L 468.18074 121.496992 
L 468.561116 116.139006 
L 468.941492 113.941678 
L 469.321869 109.640526 
L 469.702245 110.413158 
L 471.22375 115.616126 
L 471.604126 113.775587 
L 471.984502 104.889081 
L 472.364878 100.83768 
L 473.506007 99.292415 
L 473.886383 95.099529 
L 474.266759 93.031383 
L 474.647136 91.630064 
L 475.027512 92.283357 
L 476.16864 89.456112 
L 476.549017 88.838498 
L 476.929393 91.262202 
L 477.309769 86.058004 
L 477.690145 85.024547 
L 478.831274 83.895125 
L 479.21165 81.733476 
L 479.972402 75.804627 
L 480.352779 73.844748 
L 481.493907 73.262813 
L 481.874284 75.211619 
L 482.25466 79.618578 
L 482.635036 79.393432 
L 483.015412 75.317426 
L 484.156541 75.17594 
L 484.536917 72.954006 
L 484.917293 74.272895 
L 485.297669 72.431126 
L 485.678046 73.345244 
L 486.819174 75.020922 
L 487.19955 74.248289 
L 487.579927 72.798988 
L 488.340679 85.463766 
L 489.481808 78.478084 
L 489.862184 89.015662 
L 490.24256 95.360354 
L 490.622936 87.079159 
L 491.003313 91.97455 
L 492.144441 85.463766 
L 492.524817 74.094501 
L 492.905194 72.620593 
L 493.28557 76.398865 
L 493.665946 71.064255 
L 494.807075 76.037155 
L 495.187451 79.970446 
L 495.567827 71.282019 
L 496.328579 81.94878 
L 497.469708 88.133532 
L 497.850084 78.432563 
L 498.230461 72.843279 
L 498.610837 69.410723 
L 500.132342 61.342371 
L 500.512718 61.78282 
L 500.893094 61.187352 
L 501.653846 64.213907 
L 502.794975 60.81703 
L 503.175351 61.007727 
L 503.555727 72.151846 
L 503.936104 72.56892 
L 504.31648 74.809309 
L 505.457609 75.858761 
L 505.837985 70.36421 
L 506.218361 68.874309 
L 506.598737 76.609248 
L 506.979113 76.41855 
L 508.500618 86.251162 
L 509.261371 97.907089 
L 509.641747 108.324097 
L 510.782875 106.488479 
L 511.163252 112.542819 
L 511.543628 113.746059 
L 511.924004 116.451504 
L 512.30438 103.831017 
L 513.825885 90.553545 
L 514.206261 85.345657 
L 514.586638 98.049805 
L 514.967014 95.368966 
L 516.108142 97.275942 
L 516.488519 93.020311 
L 516.868895 85.058995 
L 517.629647 105.499313 
L 518.770776 107.215591 
L 519.151152 98.764613 
L 519.531528 98.156842 
L 519.911905 109.372319 
L 520.292281 112.983269 
L 521.813786 118.620535 
L 522.194162 127.989322 
L 522.574538 120.051382 
L 522.954914 108.764547 
L 524.096043 109.825072 
L 524.476419 117.930333 
L 524.856795 108.538171 
L 525.237171 111.052918 
L 525.617548 115.510319 
L 527.139052 134.448432 
L 527.519429 121.040549 
L 527.899805 123.387974 
L 528.280181 129.741278 
L 529.42131 133.542927 
L 530.182062 111.255918 
L 530.942815 99.122632 
L 532.083943 99.229669 
L 532.464319 92.722576 
L 532.844696 99.491725 
L 533.225072 91.777701 
L 533.605448 89.051341 
L 534.746577 85.23739 
L 535.126953 78.254168 
L 535.507329 81.697797 
L 535.887705 90.188144 
L 536.268082 88.872946 
L 537.40921 84.07721 
L 538.169963 96.406115 
L 538.550339 93.751113 
L 538.930715 95.185651 
L 540.071844 104.476928 
L 540.45222 106.498322 
L 540.832596 100.340636 
L 541.212972 106.916626 
L 542.734477 106.725929 
L 543.114853 98.235581 
L 543.49523 98.714171 
L 543.875606 106.45034 
L 544.255982 121.170961 
L 545.397111 118.013994 
L 545.777487 132.99667 
L 546.157863 131.490775 
L 546.538239 118.898584 
L 546.918615 138.175032 
L 548.059744 134.993458 
L 548.44012 132.686633 
L 548.820496 117.631368 
L 549.200873 135.914958 
L 549.581249 138.593336 
L 550.722378 154.485209 
L 551.102754 153.540334 
L 551.48313 161.098108 
L 551.863506 161.792002 
L 552.243882 150.312009 
L 553.385011 152.344475 
L 553.765387 142.396214 
L 554.145763 162.090966 
L 554.52614 165.03263 
L 554.906516 164.79272 
L 556.047644 156.05139 
L 556.428021 159.471643 
L 556.808397 155.286139 
L 557.188773 145.94688 
L 557.569149 133.761921 
L 559.090654 136.608851 
L 559.47103 140.625803 
L 559.851407 131.359132 
L 560.231783 139.586194 
L 561.372911 138.102444 
L 561.753288 133.510939 
L 562.133664 138.915676 
L 562.894416 164.738586 
L 564.035545 182.730593 
L 564.415921 183.930143 
L 564.796297 177.536238 
L 565.176673 192.494308 
L 565.55705 191.690918 
L 567.078555 180.475441 
L 567.458931 181.255455 
L 567.839307 176.732848 
L 568.219683 162.494507 
L 569.360812 164.198482 
L 569.741188 173.757966 
L 570.121564 174.082767 
L 570.50194 177.909021 
L 570.882317 173.182182 
L 572.403821 172.199167 
L 572.784198 170.555477 
L 573.164574 163.706359 
L 573.54495 164.077912 
L 574.686079 169.416213 
L 575.066455 173.578341 
L 575.446831 175.929457 
L 575.827207 177.033042 
L 576.207584 168.336004 
L 577.348712 172.0909 
L 577.729088 159.711553 
L 578.109465 156.784653 
L 578.489841 151.927401 
L 578.870217 156.210099 
L 580.011346 155.717977 
L 580.391722 161.379849 
L 580.772098 149.192429 
L 581.532851 135.769782 
L 582.673979 137.36549 
L 583.054355 140.519997 
L 583.434732 132.842882 
L 583.815108 133.322702 
L 584.195484 134.19868 
L 585.336613 134.630518 
L 585.716989 136.717118 
L 586.097365 126.329638 
L 586.477741 126.150013 
L 586.858117 117.813454 
L 587.999246 115.545998 
L 588.379622 114.465789 
L 588.759999 118.364631 
L 589.140375 116.853814 
L 589.520751 123.678326 
L 590.66188 134.354929 
L 591.042256 135.457284 
L 591.422632 133.910788 
L 591.803008 126.880815 
L 592.183384 144.166626 
L 593.324513 147.104599 
L 593.704889 152.670507 
L 594.085265 156.281457 
L 594.465642 154.65007 
L 594.846018 159.759535 
L 596.367523 161.643134 
L 596.747899 153.114647 
L 597.128275 150.091784 
L 597.508651 142.391293 
L 598.64978 137.100974 
L 599.030156 158.728538 
L 599.410532 156.917526 
L 599.790909 162.410846 
L 600.171285 165.973814 
L 601.312413 162.339488 
L 601.69279 167.868487 
L 602.073166 175.797814 
L 602.453542 179.659748 
L 602.833918 187.180613 
L 604.355423 192.708382 
L 604.735799 184.15898 
L 605.496552 200.27969 
L 606.63768 188.837836 
L 607.018057 175.249098 
L 607.398433 176.321925 
L 607.778809 180.83223 
L 608.159185 193.431802 
L 609.300314 196.698267 
L 609.68069 199.689143 
L 610.061066 201.088002 
L 610.441442 189.596936 
L 610.821819 199.749428 
L 611.962947 188.608999 
L 612.343324 183.52045 
L 613.104076 190.272374 
L 613.484452 179.58962 
L 614.625581 174.020021 
L 615.005957 166.652944 
L 615.386333 170.172852 
L 615.766709 172.633465 
L 616.147086 161.842444 
L 617.288214 165.145818 
L 617.66859 167.002351 
L 618.048967 178.938788 
L 618.429343 183.495844 
L 618.809719 177.14254 
L 619.950848 172.69375 
L 620.331224 170.197458 
L 620.7116 179.637602 
L 621.091976 154.824774 
L 621.472353 150.218505 
L 622.613481 154.269906 
L 622.993857 150.207432 
L 623.374234 153.751946 
L 623.75461 155.367339 
L 624.134986 153.101114 
L 625.276115 154.933041 
L 625.656491 148.349669 
L 626.036867 145.455988 
L 626.797619 145.492897 
L 627.938748 153.209381 
L 628.319124 154.028765 
L 628.699501 139.186344 
L 629.079877 139.391805 
L 629.460253 139.922067 
L 630.601382 148.796271 
L 630.981758 155.716746 
L 631.362134 156.633325 
L 631.74251 152.895653 
L 632.122886 156.440167 
L 633.264015 149.760831 
L 633.644391 145.90505 
L 634.024767 148.823337 
L 634.405144 160.811447 
L 634.78552 166.575434 
L 635.926649 170.450901 
L 636.307025 169.918178 
L 636.687401 163.014927 
L 637.067777 169.408831 
L 637.448153 166.99989 
L 638.969658 168.791217 
L 639.350034 174.422331 
L 639.730411 166.490543 
L 640.110787 167.460025 
L 641.632292 169.493722 
L 642.012668 165.885232 
L 642.393044 171.189085 
L 642.77342 160.653968 
L 643.914549 160.981229 
L 644.294925 157.590504 
L 644.675301 151.669037 
L 645.436054 147.890765 
L 646.957559 148.787658 
L 647.337935 156.415561 
L 647.718311 159.806286 
L 648.098687 151.124011 
L 649.239816 145.409236 
L 649.620192 145.735267 
L 650.000568 145.650376 
L 650.380945 140.298541 
L 650.761321 139.075616 
L 651.902449 145.347721 
L 653.043578 125.744012 
L 653.423954 130.962973 
L 654.565083 134.049813 
L 654.945459 127.607926 
L 655.706211 137.355647 
L 656.086588 136.277899 
L 657.227716 130.441323 
L 657.608093 130.7083 
L 657.988469 129.110131 
L 658.368845 135.891582 
L 658.749221 137.270756 
L 660.270726 147.092296 
L 660.651102 147.915371 
L 661.031478 145.360024 
L 661.411855 150.628197 
L 662.552983 148.945138 
L 663.313736 152.516718 
L 663.694112 148.738446 
L 664.074488 140.97644 
L 665.215617 140.420342 
L 665.595993 148.182347 
L 665.976369 147.334666 
L 666.737122 163.014927 
L 667.87825 163.996711 
L 668.258626 156.112905 
L 668.639003 159.043496 
L 669.019379 150.893944 
L 669.399755 156.609949 
L 670.540884 151.886801 
L 670.92126 145.639303 
L 671.301636 153.799928 
L 671.682012 152.586846 
L 672.062388 149.412654 
L 673.203517 148.573585 
L 673.583893 149.47417 
L 673.96427 142.482336 
L 674.344646 139.758437 
L 674.725022 132.839191 
L 675.866151 131.063858 
L 676.246527 133.630278 
L 676.626903 134.808912 
L 677.007279 132.924082 
L 678.528784 132.35322 
L 678.90916 132.365523 
L 679.289536 134.23805 
L 679.669913 127.74449 
L 680.050289 128.98464 
L 681.191418 127.124416 
L 681.571794 126.832833 
L 681.95217 126.868512 
L 682.332546 129.701909 
L 682.712922 129.422629 
L 683.854051 128.790251 
L 684.234427 136.790937 
L 684.614803 138.80987 
L 684.99518 129.009246 
L 685.375556 124.838506 
L 686.516684 125.202677 
L 686.897061 130.881773 
L 687.657813 137.970801 
L 688.038189 128.924355 
L 689.179318 128.656148 
L 689.559694 130.711991 
L 689.94007 128.595863 
L 690.700823 130.005794 
L 691.841951 128.339959 
L 692.222328 131.708539 
L 692.98308 120.715748 
L 693.363456 121.457623 
L 694.504585 121.311216 
L 694.884961 126.905421 
L 695.265337 130.699687 
L 695.645714 126.273044 
L 696.02609 119.622005 
L 697.547595 119.524811 
L 697.927971 122.685469 
L 698.308347 117.433289 
L 698.688723 110.088357 
L 699.829852 110.987712 
L 700.210228 109.881666 
L 700.590604 111.602865 
L 700.97098 108.589844 
L 701.351357 107.540392 
L 702.492485 102.771723 
L 702.872861 99.307179 
L 703.253238 98.685874 
L 703.633614 92.086508 
L 704.01399 94.013168 
L 705.535495 96.562364 
L 705.915871 99.3933 
L 706.296247 97.465409 
L 706.676624 101.540185 
L 707.817752 103.784265 
L 708.198128 97.929235 
L 708.578505 97.758222 
L 708.958881 95.62364 
L 709.339257 89.036577 
L 710.480386 88.256563 
L 711.241138 89.195287 
L 711.621514 93.647767 
L 712.001891 95.025711 
L 713.143019 93.598555 
L 713.903772 85.901755 
L 714.284148 81.242583 
L 714.664524 81.7913 
L 715.805653 79.741609 
L 716.186029 75.729579 
L 716.566405 74.704733 
L 716.946781 78.18035 
L 717.327157 78.192653 
L 718.468286 75.740651 
L 718.848662 74.240907 
L 719.229039 74.191695 
L 719.609415 77.802646 
L 719.989791 72.557848 
L 721.13092 71.386595 
L 721.511296 72.947855 
L 721.891672 80.766455 
L 722.272048 82.35232 
L 722.652424 84.913819 
L 723.793553 80.071331 
L 724.173929 82.389229 
L 724.554305 86.109677 
L 724.934682 85.864846 
L 725.315058 86.194568 
L 726.456187 83.267668 
L 726.836563 89.4881 
L 727.597315 97.696707 
L 727.977691 97.599513 
L 729.11882 93.988562 
L 729.499196 95.526446 
L 729.879572 89.597597 
L 730.259949 96.892086 
L 730.640325 93.062141 
L 731.781453 89.805519 
L 732.16183 81.962313 
L 732.542206 79.547221 
L 732.922582 80.522854 
L 733.302958 79.351602 
L 734.824463 81.729785 
L 735.204839 85.56096 
L 735.585216 87.073007 
L 735.965592 86.40249 
L 737.10672 82.706649 
L 737.487097 85.682761 
L 737.867473 85.169723 
L 738.247849 80.279253 
L 738.628225 87.40273 
L 739.769354 86.462775 
L 740.14973 87.68324 
L 740.530106 92.843146 
L 740.910482 101.685362 
L 741.290859 102.955038 
L 742.431987 100.758941 
L 742.812364 108.543092 
L 743.19274 108.408988 
L 743.573116 105.345524 
L 743.953492 106.497092 
L 745.094621 106.681638 
L 745.474997 113.690696 
L 745.855373 110.014539 
L 746.235749 110.25937 
L 746.616126 104.120139 
L 747.757254 100.639601 
L 748.518007 95.591652 
L 749.278759 101.620155 
L 750.419888 96.093617 
L 750.800264 95.934908 
L 751.18064 102.968572 
L 751.561016 107.771689 
L 751.941393 114.22957 
L 753.082521 115.136306 
L 753.462897 111.239924 
L 754.22365 124.853269 
L 754.604026 127.18101 
L 755.745155 121.177113 
L 756.125531 118.125952 
L 756.505907 112.500989 
L 756.886283 102.477679 
L 757.26666 97.723774 
L 758.407788 96.436873 
L 758.788164 95.015868 
L 759.168541 94.574188 
L 759.548917 98.63051 
L 759.929293 90.273036 
L 761.070422 90.898031 
L 761.450798 80.274332 
L 761.831174 79.159674 
L 762.591926 77.885076 
L 763.733055 73.425214 
L 764.113431 74.710884 
L 764.493808 72.591066 
L 765.25456 72.175222 
L 766.395689 73.216062 
L 766.776065 72.738703 
L 767.156441 72.995837 
L 767.536817 70.974443 
L 767.917193 67.653845 
L 769.058322 70.446641 
L 769.438698 70.569672 
L 769.819074 72.897412 
L 770.199451 68.59626 
L 770.579827 66.157791 
L 771.720955 63.953082 
L 772.101332 61.134449 
L 772.481708 53.304776 
L 772.862084 51.491304 
L 773.24246 52.470628 
L 774.383589 49.248454 
L 774.763965 45.878644 
L 775.144341 54.287791 
L 775.524718 48.419228 
L 775.905094 47.299648 
L 777.426599 44.777519 
L 777.806975 43.65794 
L 778.187351 43.387273 
L 778.567727 45.072793 
L 778.567727 45.072793 
" clip-path="url(#p9f84e90b70)" style="fill: none; stroke: #1f77b4; stroke-width: 1.5; stroke-linecap: square"/>
   </g>
   <g id="patch_7">
    <path d="M 50.87 390.04 
L 50.87 26.88 
" style="fill: none; stroke: #000000; stroke-width: 0.8; stroke-linejoin: miter; stroke-linecap: square"/>
   </g>
   <g id="patch_8">
    <path d="M 813.22 390.04 
L 813.22 26.88 
" style="fill: none; stroke: #000000; stroke-width: 0.8; stroke-linejoin: miter; stroke-linecap: square"/>
   </g>
   <g id="patch_9">
    <path d="M 50.87 390.04 
L 813.22 390.04 
" style="fill: none; stroke: #000000; stroke-width: 0.8; stroke-linejoin: miter; stroke-linecap: square"/>
   </g>
   <g id="patch_10">
    <path d="M 50.87 26.88 
L 813.22 26.88 
" style="fill: none; stroke: #000000; stroke-width: 0.8; stroke-linejoin: miter; stroke-linecap: square"/>
   </g>
   <g id="text_22">
    <!-- Stock Trading Performance for IVV -->
    <g transform="translate(329.55375 20.88) scale(0.12 -0.12)">
     <defs>
      <path id="DejaVuSans-53" d="M 3425 4513 
L 3425 3897 
Q 3066 4069 2747 4153 
Q 2428 4238 2131 4238 
Q 1616 4238 1336 4038 
Q 1056 3838 1056 3469 
Q 1056 3159 1242 3001 
Q 1428 2844 1947 2747 
L 2328 2669 
Q 3034 2534 3370 2195 
Q 3706 1856 3706 1288 
Q 3706 609 3251 259 
Q 2797 -91 1919 -91 
Q 1588 -91 1214 -16 
Q 841 59 441 206 
L 441 856 
Q 825 641 1194 531 
Q 1563 422 1919 422 
Q 2459 422 2753 634 
Q 3047 847 3047 1241 
Q 3047 1584 2836 1778 
Q 2625 1972 2144 2069 
L 1759 2144 
Q 1053 2284 737 2584 
Q 422 2884 422 3419 
Q 422 4038 858 4394 
Q 1294 4750 2059 4750 
Q 2388 4750 2728 4690 
Q 3069 4631 3425 4513 
z
" transform="scale(0.015625)"/>
      <path id="DejaVuSans-6b" d="M 581 4863 
L 1159 4863 
L 1159 1991 
L 2875 3500 
L 3609 3500 
L 1753 1863 
L 3688 0 
L 2938 0 
L 1159 1709 
L 1159 0 
L 581 0 
L 581 4863 
z
" transform="scale(0.015625)"/>
      <path id="DejaVuSans-54" d="M -19 4666 
L 3928 4666 
L 3928 4134 
L 2272 4134 
L 2272 0 
L 1638 0 
L 1638 4134 
L -19 4134 
L -19 4666 
z
" transform="scale(0.015625)"/>
      <path id="DejaVuSans-64" d="M 2906 2969 
L 2906 4863 
L 3481 4863 
L 3481 0 
L 2906 0 
L 2906 525 
Q 2725 213 2448 61 
Q 2172 -91 1784 -91 
Q 1150 -91 751 415 
Q 353 922 353 1747 
Q 353 2572 751 3078 
Q 1150 3584 1784 3584 
Q 2172 3584 2448 3432 
Q 2725 3281 2906 2969 
z
M 947 1747 
Q 947 1113 1208 752 
Q 1469 391 1925 391 
Q 2381 391 2643 752 
Q 2906 1113 2906 1747 
Q 2906 2381 2643 2742 
Q 2381 3103 1925 3103 
Q 1469 3103 1208 2742 
Q 947 2381 947 1747 
z
" transform="scale(0.015625)"/>
      <path id="DejaVuSans-67" d="M 2906 1791 
Q 2906 2416 2648 2759 
Q 2391 3103 1925 3103 
Q 1463 3103 1205 2759 
Q 947 2416 947 1791 
Q 947 1169 1205 825 
Q 1463 481 1925 481 
Q 2391 481 2648 825 
Q 2906 1169 2906 1791 
z
M 3481 434 
Q 3481 -459 3084 -895 
Q 2688 -1331 1869 -1331 
Q 1566 -1331 1297 -1286 
Q 1028 -1241 775 -1147 
L 775 -588 
Q 1028 -725 1275 -790 
Q 1522 -856 1778 -856 
Q 2344 -856 2625 -561 
Q 2906 -266 2906 331 
L 2906 616 
Q 2728 306 2450 153 
Q 2172 0 1784 0 
Q 1141 0 747 490 
Q 353 981 353 1791 
Q 353 2603 747 3093 
Q 1141 3584 1784 3584 
Q 2172 3584 2450 3431 
Q 2728 3278 2906 2969 
L 2906 3500 
L 3481 3500 
L 3481 434 
z
" transform="scale(0.015625)"/>
      <path id="DejaVuSans-66" d="M 2375 4863 
L 2375 4384 
L 1825 4384 
Q 1516 4384 1395 4259 
Q 1275 4134 1275 3809 
L 1275 3500 
L 2222 3500 
L 2222 3053 
L 1275 3053 
L 1275 0 
L 697 0 
L 697 3053 
L 147 3053 
L 147 3500 
L 697 3500 
L 697 3744 
Q 697 4328 969 4595 
Q 1241 4863 1831 4863 
L 2375 4863 
z
" transform="scale(0.015625)"/>
      <path id="DejaVuSans-6d" d="M 3328 2828 
Q 3544 3216 3844 3400 
Q 4144 3584 4550 3584 
Q 5097 3584 5394 3201 
Q 5691 2819 5691 2113 
L 5691 0 
L 5113 0 
L 5113 2094 
Q 5113 2597 4934 2840 
Q 4756 3084 4391 3084 
Q 3944 3084 3684 2787 
Q 3425 2491 3425 1978 
L 3425 0 
L 2847 0 
L 2847 2094 
Q 2847 2600 2669 2842 
Q 2491 3084 2119 3084 
Q 1678 3084 1418 2786 
Q 1159 2488 1159 1978 
L 1159 0 
L 581 0 
L 581 3500 
L 1159 3500 
L 1159 2956 
Q 1356 3278 1631 3431 
Q 1906 3584 2284 3584 
Q 2666 3584 2933 3390 
Q 3200 3197 3328 2828 
z
" transform="scale(0.015625)"/>
      <path id="DejaVuSans-49" d="M 628 4666 
L 1259 4666 
L 1259 0 
L 628 0 
L 628 4666 
z
" transform="scale(0.015625)"/>
      <path id="DejaVuSans-56" d="M 1831 0 
L 50 4666 
L 709 4666 
L 2188 738 
L 3669 4666 
L 4325 4666 
L 2547 0 
L 1831 0 
z
" transform="scale(0.015625)"/>
     </defs>
     <use xlink:href="#DejaVuSans-53"/>
     <use xlink:href="#DejaVuSans-74" x="63.476562"/>
     <use xlink:href="#DejaVuSans-6f" x="102.685547"/>
     <use xlink:href="#DejaVuSans-63" x="163.867188"/>
     <use xlink:href="#DejaVuSans-6b" x="218.847656"/>
     <use xlink:href="#DejaVuSans-20" x="276.757812"/>
     <use xlink:href="#DejaVuSans-54" x="308.544922"/>
     <use xlink:href="#DejaVuSans-72" x="354.878906"/>
     <use xlink:href="#DejaVuSans-61" x="395.992188"/>
     <use xlink:href="#DejaVuSans-64" x="457.271484"/>
     <use xlink:href="#DejaVuSans-69" x="520.748047"/>
     <use xlink:href="#DejaVuSans-6e" x="548.53125"/>
     <use xlink:href="#DejaVuSans-67" x="611.910156"/>
     <use xlink:href="#DejaVuSans-20" x="675.386719"/>
     <use xlink:href="#DejaVuSans-50" x="707.173828"/>
     <use xlink:href="#DejaVuSans-65" x="763.851562"/>
     <use xlink:href="#DejaVuSans-72" x="825.375"/>
     <use xlink:href="#DejaVuSans-66" x="866.488281"/>
     <use xlink:href="#DejaVuSans-6f" x="901.693359"/>
     <use xlink:href="#DejaVuSans-72" x="962.875"/>
     <use xlink:href="#DejaVuSans-6d" x="1002.238281"/>
     <use xlink:href="#DejaVuSans-61" x="1099.650391"/>
     <use xlink:href="#DejaVuSans-6e" x="1160.929688"/>
     <use xlink:href="#DejaVuSans-63" x="1224.308594"/>
     <use xlink:href="#DejaVuSans-65" x="1279.289062"/>
     <use xlink:href="#DejaVuSans-20" x="1340.8125"/>
     <use xlink:href="#DejaVuSans-66" x="1372.599609"/>
     <use xlink:href="#DejaVuSans-6f" x="1407.804688"/>
     <use xlink:href="#DejaVuSans-72" x="1468.986328"/>
     <use xlink:href="#DejaVuSans-20" x="1510.099609"/>
     <use xlink:href="#DejaVuSans-49" x="1541.886719"/>
     <use xlink:href="#DejaVuSans-56" x="1571.378906"/>
     <use xlink:href="#DejaVuSans-56" x="1639.787109"/>
    </g>
   </g>
  </g>
 </g>
 <defs>
  <clipPath id="p9f84e90b70">
   <rect x="50.87" y="26.88" width="762.35" height="363.16"/>
  </clipPath>
 </defs>
</svg>
