<?xml version="1.0" encoding="utf-8" standalone="no"?>
<!DOCTYPE svg PUBLIC "-//W3C//DTD SVG 1.1//EN"
  "http://www.w3.org/Graphics/SVG/1.1/DTD/svg11.dtd">
<svg xmlns:xlink="http://www.w3.org/1999/xlink" width="864pt" height="432pt" viewBox="0 0 864 432" xmlns="http://www.w3.org/2000/svg" version="1.1">
 <metadata>
  <rdf:RDF xmlns:dc="http://purl.org/dc/elements/1.1/" xmlns:cc="http://creativecommons.org/ns#" xmlns:rdf="http://www.w3.org/1999/02/22-rdf-syntax-ns#">
   <cc:Work>
    <dc:type rdf:resource="http://purl.org/dc/dcmitype/StillImage"/>
    <dc:date>2024-04-18T22:06:56.519496</dc:date>
    <dc:format>image/svg+xml</dc:format>
    <dc:creator>
     <cc:Agent>
      <dc:title>Matplotlib v3.8.2, https://matplotlib.org/</dc:title>
     </cc:Agent>
    </dc:creator>
   </cc:Work>
  </rdf:RDF>
 </metadata>
 <defs>
  <style type="text/css">*{stroke-linejoin: round; stroke-linecap: butt}</style>
 </defs>
 <g id="figure_1">
  <g id="patch_1">
   <path d="M 0 432 
L 864 432 
L 864 0 
L 0 0 
z
" style="fill: #ffffff"/>
  </g>
  <g id="axes_1">
   <g id="patch_2">
    <path d="M 44.57 390.04 
L 813.04 390.04 
L 813.04 26.88 
L 44.57 26.88 
z
" style="fill: #ffffff"/>
   </g>
   <g id="matplotlib.axis_1">
    <g id="xtick_1">
     <g id="line2d_1">
      <path d="M 79.117025 390.04 
L 79.117025 26.88 
" clip-path="url(#pd9e1f0e553)" style="fill: none; stroke-dasharray: 1.85,0.8; stroke-dashoffset: 0; stroke: #b0b0b0; stroke-opacity: 0.5; stroke-width: 0.5"/>
     </g>
     <g id="line2d_2">
      <defs>
       <path id="m7031fa95db" d="M 0 0 
L 0 3.5 
" style="stroke: #000000; stroke-width: 0.8"/>
      </defs>
      <g>
       <use xlink:href="#m7031fa95db" x="79.117025" y="390.04" style="stroke: #000000; stroke-width: 0.8"/>
      </g>
     </g>
     <g id="text_1">
      <!-- 2019 -->
      <g transform="translate(66.392025 404.638438) scale(0.1 -0.1)">
       <defs>
        <path id="DejaVuSans-32" d="M 1228 531 
L 3431 531 
L 3431 0 
L 469 0 
L 469 531 
Q 828 903 1448 1529 
Q 2069 2156 2228 2338 
Q 2531 2678 2651 2914 
Q 2772 3150 2772 3378 
Q 2772 3750 2511 3984 
Q 2250 4219 1831 4219 
Q 1534 4219 1204 4116 
Q 875 4013 500 3803 
L 500 4441 
Q 881 4594 1212 4672 
Q 1544 4750 1819 4750 
Q 2544 4750 2975 4387 
Q 3406 4025 3406 3419 
Q 3406 3131 3298 2873 
Q 3191 2616 2906 2266 
Q 2828 2175 2409 1742 
Q 1991 1309 1228 531 
z
" transform="scale(0.015625)"/>
        <path id="DejaVuSans-30" d="M 2034 4250 
Q 1547 4250 1301 3770 
Q 1056 3291 1056 2328 
Q 1056 1369 1301 889 
Q 1547 409 2034 409 
Q 2525 409 2770 889 
Q 3016 1369 3016 2328 
Q 3016 3291 2770 3770 
Q 2525 4250 2034 4250 
z
M 2034 4750 
Q 2819 4750 3233 4129 
Q 3647 3509 3647 2328 
Q 3647 1150 3233 529 
Q 2819 -91 2034 -91 
Q 1250 -91 836 529 
Q 422 1150 422 2328 
Q 422 3509 836 4129 
Q 1250 4750 2034 4750 
z
" transform="scale(0.015625)"/>
        <path id="DejaVuSans-31" d="M 794 531 
L 1825 531 
L 1825 4091 
L 703 3866 
L 703 4441 
L 1819 4666 
L 2450 4666 
L 2450 531 
L 3481 531 
L 3481 0 
L 794 0 
L 794 531 
z
" transform="scale(0.015625)"/>
        <path id="DejaVuSans-39" d="M 703 97 
L 703 672 
Q 941 559 1184 500 
Q 1428 441 1663 441 
Q 2288 441 2617 861 
Q 2947 1281 2994 2138 
Q 2813 1869 2534 1725 
Q 2256 1581 1919 1581 
Q 1219 1581 811 2004 
Q 403 2428 403 3163 
Q 403 3881 828 4315 
Q 1253 4750 1959 4750 
Q 2769 4750 3195 4129 
Q 3622 3509 3622 2328 
Q 3622 1225 3098 567 
Q 2575 -91 1691 -91 
Q 1453 -91 1209 -44 
Q 966 3 703 97 
z
M 1959 2075 
Q 2384 2075 2632 2365 
Q 2881 2656 2881 3163 
Q 2881 3666 2632 3958 
Q 2384 4250 1959 4250 
Q 1534 4250 1286 3958 
Q 1038 3666 1038 3163 
Q 1038 2656 1286 2365 
Q 1534 2075 1959 2075 
z
" transform="scale(0.015625)"/>
       </defs>
       <use xlink:href="#DejaVuSans-32"/>
       <use xlink:href="#DejaVuSans-30" x="63.623047"/>
       <use xlink:href="#DejaVuSans-31" x="127.246094"/>
       <use xlink:href="#DejaVuSans-39" x="190.869141"/>
      </g>
     </g>
    </g>
    <g id="xtick_2">
     <g id="line2d_3">
      <path d="M 219.068901 390.04 
L 219.068901 26.88 
" clip-path="url(#pd9e1f0e553)" style="fill: none; stroke-dasharray: 1.85,0.8; stroke-dashoffset: 0; stroke: #b0b0b0; stroke-opacity: 0.5; stroke-width: 0.5"/>
     </g>
     <g id="line2d_4">
      <g>
       <use xlink:href="#m7031fa95db" x="219.068901" y="390.04" style="stroke: #000000; stroke-width: 0.8"/>
      </g>
     </g>
     <g id="text_2">
      <!-- 2020 -->
      <g transform="translate(206.343901 404.638438) scale(0.1 -0.1)">
       <use xlink:href="#DejaVuSans-32"/>
       <use xlink:href="#DejaVuSans-30" x="63.623047"/>
       <use xlink:href="#DejaVuSans-32" x="127.246094"/>
       <use xlink:href="#DejaVuSans-30" x="190.869141"/>
      </g>
     </g>
    </g>
    <g id="xtick_3">
     <g id="line2d_5">
      <path d="M 359.404207 390.04 
L 359.404207 26.88 
" clip-path="url(#pd9e1f0e553)" style="fill: none; stroke-dasharray: 1.85,0.8; stroke-dashoffset: 0; stroke: #b0b0b0; stroke-opacity: 0.5; stroke-width: 0.5"/>
     </g>
     <g id="line2d_6">
      <g>
       <use xlink:href="#m7031fa95db" x="359.404207" y="390.04" style="stroke: #000000; stroke-width: 0.8"/>
      </g>
     </g>
     <g id="text_3">
      <!-- 2021 -->
      <g transform="translate(346.679207 404.638438) scale(0.1 -0.1)">
       <use xlink:href="#DejaVuSans-32"/>
       <use xlink:href="#DejaVuSans-30" x="63.623047"/>
       <use xlink:href="#DejaVuSans-32" x="127.246094"/>
       <use xlink:href="#DejaVuSans-31" x="190.869141"/>
      </g>
     </g>
    </g>
    <g id="xtick_4">
     <g id="line2d_7">
      <path d="M 499.356083 390.04 
L 499.356083 26.88 
" clip-path="url(#pd9e1f0e553)" style="fill: none; stroke-dasharray: 1.85,0.8; stroke-dashoffset: 0; stroke: #b0b0b0; stroke-opacity: 0.5; stroke-width: 0.5"/>
     </g>
     <g id="line2d_8">
      <g>
       <use xlink:href="#m7031fa95db" x="499.356083" y="390.04" style="stroke: #000000; stroke-width: 0.8"/>
      </g>
     </g>
     <g id="text_4">
      <!-- 2022 -->
      <g transform="translate(486.631083 404.638438) scale(0.1 -0.1)">
       <use xlink:href="#DejaVuSans-32"/>
       <use xlink:href="#DejaVuSans-30" x="63.623047"/>
       <use xlink:href="#DejaVuSans-32" x="127.246094"/>
       <use xlink:href="#DejaVuSans-32" x="190.869141"/>
      </g>
     </g>
    </g>
    <g id="xtick_5">
     <g id="line2d_9">
      <path d="M 639.307959 390.04 
L 639.307959 26.88 
" clip-path="url(#pd9e1f0e553)" style="fill: none; stroke-dasharray: 1.85,0.8; stroke-dashoffset: 0; stroke: #b0b0b0; stroke-opacity: 0.5; stroke-width: 0.5"/>
     </g>
     <g id="line2d_10">
      <g>
       <use xlink:href="#m7031fa95db" x="639.307959" y="390.04" style="stroke: #000000; stroke-width: 0.8"/>
      </g>
     </g>
     <g id="text_5">
      <!-- 2023 -->
      <g transform="translate(626.582959 404.638438) scale(0.1 -0.1)">
       <defs>
        <path id="DejaVuSans-33" d="M 2597 2516 
Q 3050 2419 3304 2112 
Q 3559 1806 3559 1356 
Q 3559 666 3084 287 
Q 2609 -91 1734 -91 
Q 1441 -91 1130 -33 
Q 819 25 488 141 
L 488 750 
Q 750 597 1062 519 
Q 1375 441 1716 441 
Q 2309 441 2620 675 
Q 2931 909 2931 1356 
Q 2931 1769 2642 2001 
Q 2353 2234 1838 2234 
L 1294 2234 
L 1294 2753 
L 1863 2753 
Q 2328 2753 2575 2939 
Q 2822 3125 2822 3475 
Q 2822 3834 2567 4026 
Q 2313 4219 1838 4219 
Q 1578 4219 1281 4162 
Q 984 4106 628 3988 
L 628 4550 
Q 988 4650 1302 4700 
Q 1616 4750 1894 4750 
Q 2613 4750 3031 4423 
Q 3450 4097 3450 3541 
Q 3450 3153 3228 2886 
Q 3006 2619 2597 2516 
z
" transform="scale(0.015625)"/>
       </defs>
       <use xlink:href="#DejaVuSans-32"/>
       <use xlink:href="#DejaVuSans-30" x="63.623047"/>
       <use xlink:href="#DejaVuSans-32" x="127.246094"/>
       <use xlink:href="#DejaVuSans-33" x="190.869141"/>
      </g>
     </g>
    </g>
    <g id="xtick_6">
     <g id="line2d_11">
      <path d="M 779.259835 390.04 
L 779.259835 26.88 
" clip-path="url(#pd9e1f0e553)" style="fill: none; stroke-dasharray: 1.85,0.8; stroke-dashoffset: 0; stroke: #b0b0b0; stroke-opacity: 0.5; stroke-width: 0.5"/>
     </g>
     <g id="line2d_12">
      <g>
       <use xlink:href="#m7031fa95db" x="779.259835" y="390.04" style="stroke: #000000; stroke-width: 0.8"/>
      </g>
     </g>
     <g id="text_6">
      <!-- 2024 -->
      <g transform="translate(766.534835 404.638438) scale(0.1 -0.1)">
       <defs>
        <path id="DejaVuSans-34" d="M 2419 4116 
L 825 1625 
L 2419 1625 
L 2419 4116 
z
M 2253 4666 
L 3047 4666 
L 3047 1625 
L 3713 1625 
L 3713 1100 
L 3047 1100 
L 3047 0 
L 2419 0 
L 2419 1100 
L 313 1100 
L 313 1709 
L 2253 4666 
z
" transform="scale(0.015625)"/>
       </defs>
       <use xlink:href="#DejaVuSans-32"/>
       <use xlink:href="#DejaVuSans-30" x="63.623047"/>
       <use xlink:href="#DejaVuSans-32" x="127.246094"/>
       <use xlink:href="#DejaVuSans-34" x="190.869141"/>
      </g>
     </g>
    </g>
    <g id="text_7">
     <!-- Date -->
     <g transform="translate(416.854219 418.316562) scale(0.1 -0.1)">
      <defs>
       <path id="DejaVuSans-44" d="M 1259 4147 
L 1259 519 
L 2022 519 
Q 2988 519 3436 956 
Q 3884 1394 3884 2338 
Q 3884 3275 3436 3711 
Q 2988 4147 2022 4147 
L 1259 4147 
z
M 628 4666 
L 1925 4666 
Q 3281 4666 3915 4102 
Q 4550 3538 4550 2338 
Q 4550 1131 3912 565 
Q 3275 0 1925 0 
L 628 0 
L 628 4666 
z
" transform="scale(0.015625)"/>
       <path id="DejaVuSans-61" d="M 2194 1759 
Q 1497 1759 1228 1600 
Q 959 1441 959 1056 
Q 959 750 1161 570 
Q 1363 391 1709 391 
Q 2188 391 2477 730 
Q 2766 1069 2766 1631 
L 2766 1759 
L 2194 1759 
z
M 3341 1997 
L 3341 0 
L 2766 0 
L 2766 531 
Q 2569 213 2275 61 
Q 1981 -91 1556 -91 
Q 1019 -91 701 211 
Q 384 513 384 1019 
Q 384 1609 779 1909 
Q 1175 2209 1959 2209 
L 2766 2209 
L 2766 2266 
Q 2766 2663 2505 2880 
Q 2244 3097 1772 3097 
Q 1472 3097 1187 3025 
Q 903 2953 641 2809 
L 641 3341 
Q 956 3463 1253 3523 
Q 1550 3584 1831 3584 
Q 2591 3584 2966 3190 
Q 3341 2797 3341 1997 
z
" transform="scale(0.015625)"/>
       <path id="DejaVuSans-74" d="M 1172 4494 
L 1172 3500 
L 2356 3500 
L 2356 3053 
L 1172 3053 
L 1172 1153 
Q 1172 725 1289 603 
Q 1406 481 1766 481 
L 2356 481 
L 2356 0 
L 1766 0 
Q 1100 0 847 248 
Q 594 497 594 1153 
L 594 3053 
L 172 3053 
L 172 3500 
L 594 3500 
L 594 4494 
L 1172 4494 
z
" transform="scale(0.015625)"/>
       <path id="DejaVuSans-65" d="M 3597 1894 
L 3597 1613 
L 953 1613 
Q 991 1019 1311 708 
Q 1631 397 2203 397 
Q 2534 397 2845 478 
Q 3156 559 3463 722 
L 3463 178 
Q 3153 47 2828 -22 
Q 2503 -91 2169 -91 
Q 1331 -91 842 396 
Q 353 884 353 1716 
Q 353 2575 817 3079 
Q 1281 3584 2069 3584 
Q 2775 3584 3186 3129 
Q 3597 2675 3597 1894 
z
M 3022 2063 
Q 3016 2534 2758 2815 
Q 2500 3097 2075 3097 
Q 1594 3097 1305 2825 
Q 1016 2553 972 2059 
L 3022 2063 
z
" transform="scale(0.015625)"/>
      </defs>
      <use xlink:href="#DejaVuSans-44"/>
      <use xlink:href="#DejaVuSans-61" x="77.001953"/>
      <use xlink:href="#DejaVuSans-74" x="138.28125"/>
      <use xlink:href="#DejaVuSans-65" x="177.490234"/>
     </g>
    </g>
   </g>
   <g id="matplotlib.axis_2">
    <g id="ytick_1">
     <g id="line2d_13">
      <path d="M 44.57 347.896939 
L 813.04 347.896939 
" clip-path="url(#pd9e1f0e553)" style="fill: none; stroke-dasharray: 1.85,0.8; stroke-dashoffset: 0; stroke: #b0b0b0; stroke-opacity: 0.5; stroke-width: 0.5"/>
     </g>
     <g id="line2d_14">
      <defs>
       <path id="m2e2ef03143" d="M 0 0 
L -3.5 0 
" style="stroke: #000000; stroke-width: 0.8"/>
      </defs>
      <g>
       <use xlink:href="#m2e2ef03143" x="44.57" y="347.896939" style="stroke: #000000; stroke-width: 0.8"/>
      </g>
     </g>
     <g id="text_8">
      <!-- 0 -->
      <g style="fill: #d62728" transform="translate(31.2075 351.696157) scale(0.1 -0.1)">
       <use xlink:href="#DejaVuSans-30"/>
      </g>
     </g>
    </g>
    <g id="ytick_2">
     <g id="line2d_15">
      <path d="M 44.57 291.388498 
L 813.04 291.388498 
" clip-path="url(#pd9e1f0e553)" style="fill: none; stroke-dasharray: 1.85,0.8; stroke-dashoffset: 0; stroke: #b0b0b0; stroke-opacity: 0.5; stroke-width: 0.5"/>
     </g>
     <g id="line2d_16">
      <g>
       <use xlink:href="#m2e2ef03143" x="44.57" y="291.388498" style="stroke: #000000; stroke-width: 0.8"/>
      </g>
     </g>
     <g id="text_9">
      <!-- 10 -->
      <g style="fill: #d62728" transform="translate(24.845 295.187717) scale(0.1 -0.1)">
       <use xlink:href="#DejaVuSans-31"/>
       <use xlink:href="#DejaVuSans-30" x="63.623047"/>
      </g>
     </g>
    </g>
    <g id="ytick_3">
     <g id="line2d_17">
      <path d="M 44.57 234.880058 
L 813.04 234.880058 
" clip-path="url(#pd9e1f0e553)" style="fill: none; stroke-dasharray: 1.85,0.8; stroke-dashoffset: 0; stroke: #b0b0b0; stroke-opacity: 0.5; stroke-width: 0.5"/>
     </g>
     <g id="line2d_18">
      <g>
       <use xlink:href="#m2e2ef03143" x="44.57" y="234.880058" style="stroke: #000000; stroke-width: 0.8"/>
      </g>
     </g>
     <g id="text_10">
      <!-- 20 -->
      <g style="fill: #d62728" transform="translate(24.845 238.679277) scale(0.1 -0.1)">
       <use xlink:href="#DejaVuSans-32"/>
       <use xlink:href="#DejaVuSans-30" x="63.623047"/>
      </g>
     </g>
    </g>
    <g id="ytick_4">
     <g id="line2d_19">
      <path d="M 44.57 178.371618 
L 813.04 178.371618 
" clip-path="url(#pd9e1f0e553)" style="fill: none; stroke-dasharray: 1.85,0.8; stroke-dashoffset: 0; stroke: #b0b0b0; stroke-opacity: 0.5; stroke-width: 0.5"/>
     </g>
     <g id="line2d_20">
      <g>
       <use xlink:href="#m2e2ef03143" x="44.57" y="178.371618" style="stroke: #000000; stroke-width: 0.8"/>
      </g>
     </g>
     <g id="text_11">
      <!-- 30 -->
      <g style="fill: #d62728" transform="translate(24.845 182.170837) scale(0.1 -0.1)">
       <use xlink:href="#DejaVuSans-33"/>
       <use xlink:href="#DejaVuSans-30" x="63.623047"/>
      </g>
     </g>
    </g>
    <g id="ytick_5">
     <g id="line2d_21">
      <path d="M 44.57 121.863178 
L 813.04 121.863178 
" clip-path="url(#pd9e1f0e553)" style="fill: none; stroke-dasharray: 1.85,0.8; stroke-dashoffset: 0; stroke: #b0b0b0; stroke-opacity: 0.5; stroke-width: 0.5"/>
     </g>
     <g id="line2d_22">
      <g>
       <use xlink:href="#m2e2ef03143" x="44.57" y="121.863178" style="stroke: #000000; stroke-width: 0.8"/>
      </g>
     </g>
     <g id="text_12">
      <!-- 40 -->
      <g style="fill: #d62728" transform="translate(24.845 125.662397) scale(0.1 -0.1)">
       <use xlink:href="#DejaVuSans-34"/>
       <use xlink:href="#DejaVuSans-30" x="63.623047"/>
      </g>
     </g>
    </g>
    <g id="ytick_6">
     <g id="line2d_23">
      <path d="M 44.57 65.354738 
L 813.04 65.354738 
" clip-path="url(#pd9e1f0e553)" style="fill: none; stroke-dasharray: 1.85,0.8; stroke-dashoffset: 0; stroke: #b0b0b0; stroke-opacity: 0.5; stroke-width: 0.5"/>
     </g>
     <g id="line2d_24">
      <g>
       <use xlink:href="#m2e2ef03143" x="44.57" y="65.354738" style="stroke: #000000; stroke-width: 0.8"/>
      </g>
     </g>
     <g id="text_13">
      <!-- 50 -->
      <g style="fill: #d62728" transform="translate(24.845 69.153956) scale(0.1 -0.1)">
       <defs>
        <path id="DejaVuSans-35" d="M 691 4666 
L 3169 4666 
L 3169 4134 
L 1269 4134 
L 1269 2991 
Q 1406 3038 1543 3061 
Q 1681 3084 1819 3084 
Q 2600 3084 3056 2656 
Q 3513 2228 3513 1497 
Q 3513 744 3044 326 
Q 2575 -91 1722 -91 
Q 1428 -91 1123 -41 
Q 819 9 494 109 
L 494 744 
Q 775 591 1075 516 
Q 1375 441 1709 441 
Q 2250 441 2565 725 
Q 2881 1009 2881 1497 
Q 2881 1984 2565 2268 
Q 2250 2553 1709 2553 
Q 1456 2553 1204 2497 
Q 953 2441 691 2322 
L 691 4666 
z
" transform="scale(0.015625)"/>
       </defs>
       <use xlink:href="#DejaVuSans-35"/>
       <use xlink:href="#DejaVuSans-30" x="63.623047"/>
      </g>
     </g>
    </g>
    <g id="text_14">
     <!-- Returns (%) -->
     <g style="fill: #d62728" transform="translate(18.765312 237.8975) rotate(-90) scale(0.1 -0.1)">
      <defs>
       <path id="DejaVuSans-52" d="M 2841 2188 
Q 3044 2119 3236 1894 
Q 3428 1669 3622 1275 
L 4263 0 
L 3584 0 
L 2988 1197 
Q 2756 1666 2539 1819 
Q 2322 1972 1947 1972 
L 1259 1972 
L 1259 0 
L 628 0 
L 628 4666 
L 2053 4666 
Q 2853 4666 3247 4331 
Q 3641 3997 3641 3322 
Q 3641 2881 3436 2590 
Q 3231 2300 2841 2188 
z
M 1259 4147 
L 1259 2491 
L 2053 2491 
Q 2509 2491 2742 2702 
Q 2975 2913 2975 3322 
Q 2975 3731 2742 3939 
Q 2509 4147 2053 4147 
L 1259 4147 
z
" transform="scale(0.015625)"/>
       <path id="DejaVuSans-75" d="M 544 1381 
L 544 3500 
L 1119 3500 
L 1119 1403 
Q 1119 906 1312 657 
Q 1506 409 1894 409 
Q 2359 409 2629 706 
Q 2900 1003 2900 1516 
L 2900 3500 
L 3475 3500 
L 3475 0 
L 2900 0 
L 2900 538 
Q 2691 219 2414 64 
Q 2138 -91 1772 -91 
Q 1169 -91 856 284 
Q 544 659 544 1381 
z
M 1991 3584 
L 1991 3584 
z
" transform="scale(0.015625)"/>
       <path id="DejaVuSans-72" d="M 2631 2963 
Q 2534 3019 2420 3045 
Q 2306 3072 2169 3072 
Q 1681 3072 1420 2755 
Q 1159 2438 1159 1844 
L 1159 0 
L 581 0 
L 581 3500 
L 1159 3500 
L 1159 2956 
Q 1341 3275 1631 3429 
Q 1922 3584 2338 3584 
Q 2397 3584 2469 3576 
Q 2541 3569 2628 3553 
L 2631 2963 
z
" transform="scale(0.015625)"/>
       <path id="DejaVuSans-6e" d="M 3513 2113 
L 3513 0 
L 2938 0 
L 2938 2094 
Q 2938 2591 2744 2837 
Q 2550 3084 2163 3084 
Q 1697 3084 1428 2787 
Q 1159 2491 1159 1978 
L 1159 0 
L 581 0 
L 581 3500 
L 1159 3500 
L 1159 2956 
Q 1366 3272 1645 3428 
Q 1925 3584 2291 3584 
Q 2894 3584 3203 3211 
Q 3513 2838 3513 2113 
z
" transform="scale(0.015625)"/>
       <path id="DejaVuSans-73" d="M 2834 3397 
L 2834 2853 
Q 2591 2978 2328 3040 
Q 2066 3103 1784 3103 
Q 1356 3103 1142 2972 
Q 928 2841 928 2578 
Q 928 2378 1081 2264 
Q 1234 2150 1697 2047 
L 1894 2003 
Q 2506 1872 2764 1633 
Q 3022 1394 3022 966 
Q 3022 478 2636 193 
Q 2250 -91 1575 -91 
Q 1294 -91 989 -36 
Q 684 19 347 128 
L 347 722 
Q 666 556 975 473 
Q 1284 391 1588 391 
Q 1994 391 2212 530 
Q 2431 669 2431 922 
Q 2431 1156 2273 1281 
Q 2116 1406 1581 1522 
L 1381 1569 
Q 847 1681 609 1914 
Q 372 2147 372 2553 
Q 372 3047 722 3315 
Q 1072 3584 1716 3584 
Q 2034 3584 2315 3537 
Q 2597 3491 2834 3397 
z
" transform="scale(0.015625)"/>
       <path id="DejaVuSans-20" transform="scale(0.015625)"/>
       <path id="DejaVuSans-28" d="M 1984 4856 
Q 1566 4138 1362 3434 
Q 1159 2731 1159 2009 
Q 1159 1288 1364 580 
Q 1569 -128 1984 -844 
L 1484 -844 
Q 1016 -109 783 600 
Q 550 1309 550 2009 
Q 550 2706 781 3412 
Q 1013 4119 1484 4856 
L 1984 4856 
z
" transform="scale(0.015625)"/>
       <path id="DejaVuSans-25" d="M 4653 2053 
Q 4381 2053 4226 1822 
Q 4072 1591 4072 1178 
Q 4072 772 4226 539 
Q 4381 306 4653 306 
Q 4919 306 5073 539 
Q 5228 772 5228 1178 
Q 5228 1588 5073 1820 
Q 4919 2053 4653 2053 
z
M 4653 2450 
Q 5147 2450 5437 2106 
Q 5728 1763 5728 1178 
Q 5728 594 5436 251 
Q 5144 -91 4653 -91 
Q 4153 -91 3862 251 
Q 3572 594 3572 1178 
Q 3572 1766 3864 2108 
Q 4156 2450 4653 2450 
z
M 1428 4353 
Q 1159 4353 1004 4120 
Q 850 3888 850 3481 
Q 850 3069 1003 2837 
Q 1156 2606 1428 2606 
Q 1700 2606 1854 2837 
Q 2009 3069 2009 3481 
Q 2009 3884 1853 4118 
Q 1697 4353 1428 4353 
z
M 4250 4750 
L 4750 4750 
L 1831 -91 
L 1331 -91 
L 4250 4750 
z
M 1428 4750 
Q 1922 4750 2215 4408 
Q 2509 4066 2509 3481 
Q 2509 2891 2217 2550 
Q 1925 2209 1428 2209 
Q 931 2209 642 2551 
Q 353 2894 353 3481 
Q 353 4063 643 4406 
Q 934 4750 1428 4750 
z
" transform="scale(0.015625)"/>
       <path id="DejaVuSans-29" d="M 513 4856 
L 1013 4856 
Q 1481 4119 1714 3412 
Q 1947 2706 1947 2009 
Q 1947 1309 1714 600 
Q 1481 -109 1013 -844 
L 513 -844 
Q 928 -128 1133 580 
Q 1338 1288 1338 2009 
Q 1338 2731 1133 3434 
Q 928 4138 513 4856 
z
" transform="scale(0.015625)"/>
      </defs>
      <use xlink:href="#DejaVuSans-52"/>
      <use xlink:href="#DejaVuSans-65" x="64.982422"/>
      <use xlink:href="#DejaVuSans-74" x="126.505859"/>
      <use xlink:href="#DejaVuSans-75" x="165.714844"/>
      <use xlink:href="#DejaVuSans-72" x="229.09375"/>
      <use xlink:href="#DejaVuSans-6e" x="268.457031"/>
      <use xlink:href="#DejaVuSans-73" x="331.835938"/>
      <use xlink:href="#DejaVuSans-20" x="383.935547"/>
      <use xlink:href="#DejaVuSans-28" x="415.722656"/>
      <use xlink:href="#DejaVuSans-25" x="454.736328"/>
      <use xlink:href="#DejaVuSans-29" x="549.755859"/>
     </g>
    </g>
   </g>
   <g id="line2d_25">
    <path d="M 79.500455 347.896939 
L 79.883884 347.896939 
L 80.267314 331.652999 
L 84.101612 331.652999 
L 84.485042 327.294029 
L 84.868472 327.294029 
L 85.251902 322.748284 
L 85.635331 314.91605 
L 87.16905 314.91605 
L 87.55248 313.79619 
L 87.93591 313.179125 
L 88.31934 310.008095 
L 89.469629 312.156396 
L 89.853059 310.927979 
L 90.236489 305.562938 
L 90.619919 301.831978 
L 91.003348 299.735099 
L 92.537068 296.718334 
L 92.920497 296.872601 
L 93.303927 301.677712 
L 93.687357 301.574868 
L 94.837646 300.552139 
L 95.221076 293.393038 
L 95.604506 291.34758 
L 95.987936 293.084505 
L 96.371366 284.548434 
L 97.905085 282.811509 
L 98.288515 280.868896 
L 98.671944 282.811509 
L 99.055374 280.406097 
L 100.205664 279.383368 
L 100.589093 280.611785 
L 100.972523 280.817474 
L 101.355953 282.297288 
L 101.739383 278.772016 
L 102.889672 281.274559 
L 103.273102 282.554398 
L 104.039962 290.78765 
L 104.423391 292.524575 
L 105.957111 282.90864 
L 106.34054 278.87486 
L 106.72397 279.126257 
L 107.1074 276.212338 
L 108.257689 273.761217 
L 108.641119 275.292453 
L 109.024549 280.09185 
L 109.407979 274.543976 
L 109.791409 285.90255 
L 110.941698 286.982414 
L 111.325128 280.760338 
L 111.708558 283.537132 
L 112.091987 281.53167 
L 112.475417 278.194946 
L 113.625707 270.99585 
L 114.009136 272.332825 
L 114.392566 271.612915 
L 114.775996 269.401764 
L 115.159426 266.470703 
L 116.309715 266.059327 
L 116.693145 270.224518 
L 117.076575 268.116211 
L 117.460004 267.344879 
L 117.843434 262.362648 
L 118.993724 263.848176 
L 119.377153 262.568336 
L 119.760583 264.825196 
L 120.144013 264.20813 
L 121.677732 264.92804 
L 122.061162 260.71714 
L 122.828022 263.082557 
L 123.211451 260.408607 
L 124.361741 259.483009 
L 124.745171 256.294838 
L 125.1286 261.231361 
L 125.51203 262.516914 
L 125.89546 257.271858 
L 127.045749 259.842964 
L 127.429179 269.401764 
L 127.812609 271.25296 
L 128.196039 272.332825 
L 128.579469 268.784699 
L 129.729758 281.685936 
L 130.113188 276.755127 
L 130.496618 275.983795 
L 130.880047 270.893005 
L 131.263477 274.081177 
L 132.413767 276.292327 
L 132.797196 270.944427 
L 133.180626 273.618377 
L 133.564056 280.657494 
L 133.947486 278.863433 
L 135.481205 286.776725 
L 135.864635 290.479118 
L 136.248065 290.53054 
L 136.631494 298.340988 
L 137.781784 292.895957 
L 138.165214 281.017449 
L 139.315503 270.687317 
L 140.465792 268.630432 
L 140.849222 268.733277 
L 141.232652 269.864563 
L 141.616082 266.779236 
L 143.533231 266.779236 
L 143.916661 265.087202 
L 144.30009 259.488725 
L 144.68352 258.563216 
L 145.83381 261.436268 
L 146.600669 266.677033 
L 146.984099 263.855083 
L 147.367529 259.386522 
L 148.517818 254.196859 
L 148.901248 254.196859 
L 149.284678 249.058298 
L 150.051537 249.41601 
L 151.201827 252.29474 
L 151.585256 252.448045 
L 152.352116 249.983807 
L 152.735546 246.747365 
L 153.885835 247.672874 
L 154.269265 249.313806 
L 154.652695 254.810079 
L 155.036125 251.267027 
L 155.419554 254.145757 
L 156.569844 254.299062 
L 156.953274 249.058298 
L 157.336703 245.515246 
L 157.720133 248.234992 
L 158.103563 244.896347 
L 159.637282 245.924059 
L 160.404142 261.078556 
L 160.787572 264.882795 
L 161.937861 282.50153 
L 162.321291 275.722036 
L 162.704721 276.749748 
L 163.08815 266.114914 
L 163.47158 270.685678 
L 164.62187 279.111783 
L 165.005299 272.173306 
L 165.388729 289.899922 
L 165.772159 288.718905 
L 166.155589 279.009579 
L 167.305878 272.383391 
L 167.689308 278.135172 
L 168.072738 274.22873 
L 168.456168 273.666611 
L 168.839597 289.076617 
L 169.989887 283.682547 
L 170.373317 287.276701 
L 170.756746 281.627123 
L 171.140176 274.330934 
L 171.523606 272.945509 
L 173.057325 275.000934 
L 176.891623 275.000934 
L 178.041912 275.639728 
L 178.425342 276.029501 
L 178.808772 275.980779 
L 179.192202 276.863181 
L 179.575632 278.579263 
L 180.725921 277.989191 
L 181.109351 282.412027 
L 181.492781 279.402116 
L 181.87621 281.378047 
L 182.25964 282.163006 
L 183.40993 280.733839 
L 184.176789 300.498559 
L 184.560219 297.147597 
L 184.943649 289.509137 
L 186.093938 292.416191 
L 186.477368 302.47449 
L 187.244228 293.498893 
L 187.627657 286.50464 
L 188.777947 287.733506 
L 189.161377 282.904656 
L 189.544806 283.299843 
L 189.928236 281.323912 
L 190.311666 282.065563 
L 192.228815 274.275524 
L 192.612245 275.607247 
L 192.995675 272.748914 
L 194.145964 270.924562 
L 194.529394 269.446674 
L 194.912824 269.051488 
L 195.296253 271.812377 
L 195.679683 264.617824 
L 196.829973 260.671377 
L 197.213402 260.281604 
L 197.596832 260.281604 
L 197.980262 257.861766 
L 198.363692 256.779064 
L 199.513981 258.847024 
L 200.280841 258.847024 
L 200.664271 258.70086 
L 201.0477 254.364639 
L 202.19799 254.808547 
L 202.58142 256.091548 
L 202.964849 257.964622 
L 203.348279 258.062066 
L 203.731709 256.091548 
L 204.881998 252.291265 
L 205.265428 251.901493 
L 205.648858 249.432933 
L 207.566007 255.793806 
L 207.949437 261.218141 
L 208.332866 256.286435 
L 208.716296 254.954712 
L 209.099726 249.140603 
L 210.633445 251.354728 
L 211.016875 250.618491 
L 211.400305 243.126195 
L 211.783735 245.194156 
L 212.934024 240.755079 
L 213.317454 240.159593 
L 213.700884 240.506057 
L 214.084313 239.066064 
L 214.467743 235.238713 
L 215.618033 235.487735 
L 216.001462 235.189992 
L 216.768322 233.495564 
L 217.151752 233.59842 
L 218.302041 236.332242 
L 218.685471 234.442928 
L 219.452331 231.709106 
L 219.83576 236.283521 
L 220.98605 235.682621 
L 221.36948 237.723514 
L 221.752909 236.283521 
L 222.136339 233.300677 
L 222.519769 235.882921 
L 224.053488 230.962042 
L 224.436918 230.810463 
L 224.820348 225.840863 
L 225.203778 224.547034 
L 226.737497 227.432434 
L 227.504356 226.934391 
L 227.887786 233.051656 
L 229.038076 242.595672 
L 229.421505 237.225471 
L 229.804935 240.110871 
L 230.188365 237.025171 
L 230.571795 248.956544 
L 231.722084 245.973701 
L 232.105514 238.616743 
L 232.488944 228.130777 
L 232.872374 228.02792 
L 233.255803 232.25587 
L 234.406093 229.917235 
L 235.172952 224.449591 
L 235.556382 224.298013 
L 235.939812 224.498312 
L 237.473531 227.881755 
L 237.856961 225.889584 
L 238.240391 225.743419 
L 238.62382 229.072727 
L 239.77411 248.907823 
L 240.15754 269.64156 
L 240.540969 276.549197 
L 240.924399 303.497643 
L 241.307829 310.654301 
L 242.458118 288.134106 
L 242.841548 304.190572 
L 243.224978 279.883919 
L 243.608408 301.65705 
L 243.991838 313.436845 
L 245.908987 313.436845 
L 246.292416 373.532727 
L 247.826136 373.532727 
L 248.209565 338.410384 
L 248.592995 338.410384 
L 248.976425 339.398305 
L 250.893574 339.398305 
L 251.277004 325.954653 
L 268.147915 325.954653 
L 269.298204 331.529536 
L 270.065064 358.30748 
L 270.448494 350.326839 
L 270.831923 350.594595 
L 271.982213 325.04671 
L 272.365643 334.63389 
L 272.749072 324.132984 
L 273.132502 327.400421 
L 273.515932 327.672225 
L 275.049651 311.38709 
L 283.868537 311.38709 
L 284.251966 316.508648 
L 285.402256 316.929367 
L 285.785686 316.508648 
L 286.169115 334.072283 
L 286.552545 327.907341 
L 286.935975 341.28622 
L 288.086264 330.728966 
L 288.469694 324.244277 
L 288.853124 324.979133 
L 289.236554 322.000439 
L 290.770273 315.93647 
L 291.153703 324.244277 
L 291.537133 322.466036 
L 291.920562 331.301144 
L 292.303992 320.586822 
L 293.454282 321.265583 
L 294.221141 302.030289 
L 294.604571 302.551981 
L 294.988001 300.094979 
L 296.13829 304.066571 
L 296.52172 296.64508 
L 296.90515 293.144694 
L 297.288579 293.823454 
L 297.672009 299.466705 
L 298.822299 298.630876 
L 299.205728 300.616671 
L 299.589158 292.409837 
L 299.972588 298.686971 
L 300.356018 300.672767 
L 301.506307 298.686971 
L 301.889737 295.859737 
L 302.273167 291.259871 
L 302.656597 290.266973 
L 303.040026 283.630824 
L 304.190316 277.880992 
L 304.573746 278.509266 
L 304.957175 274.431092 
L 305.340605 278.45317 
L 305.724035 277.981964 
L 306.874324 279.238513 
L 307.257754 281.48796 
L 308.024614 287.237792 
L 308.408044 286.817073 
L 309.558333 277.460272 
L 309.941763 277.931478 
L 310.325193 279.188027 
L 311.092052 270.302432 
L 312.242342 275.682031 
L 312.625771 273.645749 
L 313.009201 263.402632 
L 313.392631 276.831998 
L 313.776061 277.723923 
L 315.30978 289.48163 
L 315.69321 281.90307 
L 316.07664 291.209384 
L 316.460069 287.708998 
L 317.610359 278.87389 
L 317.993789 279.345095 
L 318.377218 275.317408 
L 318.760648 278.088547 
L 319.144078 284.10203 
L 320.294367 298.473807 
L 320.677797 296.802148 
L 321.061227 309.32276 
L 321.444657 308.268156 
L 321.828087 301.32348 
L 322.978376 291.383282 
L 323.361806 296.173874 
L 323.745236 291.646932 
L 324.512095 288.337273 
L 325.662384 278.234396 
L 326.045814 284.023496 
L 326.812674 265.668908 
L 327.196104 264.563818 
L 328.346393 259.459089 
L 328.729823 259.459089 
L 329.113253 262.167485 
L 329.880112 258.450523 
L 331.030402 267.79959 
L 331.413831 264.666236 
L 331.797261 267.317971 
L 332.180691 258.450523 
L 332.564121 257.543946 
L 333.71441 271.0406 
L 334.09784 279.114794 
L 334.48127 297.546622 
L 334.8647 292.821093 
L 335.248129 292.821093 
L 336.398419 281.239582 
L 336.781849 269.391764 
L 337.165278 269.550415 
L 337.548708 258.393862 
L 337.932138 259.351433 
L 342.533296 259.351433 
L 342.916725 257.495887 
L 343.300155 260.303269 
L 344.450445 251.383816 
L 344.833874 237.245307 
L 345.217304 241.555307 
L 345.984164 242.057962 
L 347.134453 249.175343 
L 347.517883 243.009798 
L 347.901313 239.550034 
L 348.284743 238.143669 
L 348.668172 229.523671 
L 349.818462 233.331015 
L 350.201892 230.978162 
L 350.585321 232.277578 
L 350.968751 233.031561 
L 351.352181 234.384452 
L 352.50247 241.202379 
L 352.8859 231.031636 
L 353.26933 232.844402 
L 353.65276 229.470197 
L 354.03619 232.491474 
L 355.186479 235.919154 
L 355.569909 239.74254 
L 355.953338 234.657169 
L 356.336768 232.742802 
L 357.870487 231.079762 
L 358.253917 232.994129 
L 358.637347 229.721524 
L 359.020777 224.432952 
L 360.554496 233.699985 
L 360.937926 227.860631 
L 361.321356 210.684803 
L 361.704785 204.545995 
L 362.088215 204.091466 
L 363.238505 203.535337 
L 363.621934 200.113005 
L 364.005364 200.765387 
L 364.388794 198.097038 
L 364.772224 204.893575 
L 366.305943 201.776045 
L 366.689373 198.449966 
L 367.456232 206.610089 
L 368.606522 207.310597 
L 368.989952 210.535076 
L 369.373381 228.817815 
L 369.756811 218.994653 
L 370.140241 230.930035 
L 371.29053 223.732443 
L 371.67396 213.909281 
L 372.05739 211.037731 
L 372.44082 202.027372 
L 372.82425 198.246765 
L 373.974539 190.391444 
L 374.357969 190.241717 
L 374.741399 189.182933 
L 375.124828 188.680278 
L 375.508258 184.450489 
L 377.041977 183.241978 
L 377.425407 182.589596 
L 377.808837 186.616184 
L 378.192267 182.78745 
L 379.342556 179.921247 
L 379.725986 177.504225 
L 380.109416 166.92708 
L 380.492846 181.381085 
L 380.876275 190.038516 
L 382.026565 173.573891 
L 382.409995 176.24224 
L 382.793424 178.00688 
L 383.176854 186.466457 
L 383.560284 170.402886 
L 384.710573 164.258731 
L 385.094003 164.713259 
L 385.477433 154.890097 
L 385.860863 152.526549 
L 386.244292 146.029466 
L 387.394582 142.505533 
L 387.778012 147.788758 
L 388.161441 143.863771 
L 388.544871 149.804726 
L 388.928301 152.777876 
L 390.07859 152.879477 
L 390.46202 163.654475 
L 390.84545 163.601001 
L 391.22888 154.430221 
L 391.61231 141.837109 
L 392.762599 145.17923 
L 393.146029 143.762171 
L 393.529459 146.644416 
L 393.912888 140.018995 
L 395.446608 133.190373 
L 395.830037 132.634244 
L 396.213467 134.206378 
L 396.596897 133.848103 
L 396.980327 130.056801 
L 398.130616 129.452545 
L 398.514046 131.725187 
L 398.897476 128.896416 
L 399.664335 120.80581 
L 400.814625 123.484854 
L 401.198055 130.71453 
L 401.581484 121.966194 
L 401.964914 127.629084 
L 402.348344 119.944879 
L 403.498633 119.538477 
L 404.265493 116.811306 
L 404.648923 110.132412 
L 405.032353 116.303304 
L 406.182642 111.196543 
L 406.566072 110.490687 
L 406.949502 107.704695 
L 407.716361 94.913729 
L 408.866651 95.822786 
L 409.25008 106.292983 
L 409.63351 121.864594 
L 410.40037 100.170217 
L 411.550659 100.983021 
L 411.934089 108.415898 
L 412.317519 113.116257 
L 412.700949 108.8223 
L 413.084378 105.886581 
L 414.234668 101.234349 
L 414.618097 105.736854 
L 415.001527 103.410738 
L 415.384957 99.057959 
L 415.768387 98.202376 
L 417.685536 94.662402 
L 418.068966 95.421732 
L 418.452395 91.780157 
L 419.602685 94.459201 
L 419.986115 94.256 
L 420.369544 97.747848 
L 420.752974 98.27724 
L 421.136404 96.095503 
L 422.286693 100.30925 
L 422.670123 99.544572 
L 423.053553 104.82245 
L 423.436983 114.923677 
L 423.820413 129.896379 
L 424.970702 114.570749 
L 425.354132 113.60287 
L 425.737562 114.87555 
L 426.504421 104.522996 
L 427.654711 108.020191 
L 428.03814 110.60833 
L 428.42157 107.972065 
L 428.805 102.389386 
L 429.18843 100.662178 
L 430.722149 108.121792 
L 431.105579 106.244857 
L 431.489009 114.469148 
L 431.872438 102.640713 
L 433.022728 99.442972 
L 433.406158 105.587127 
L 433.789587 107.05766 
L 434.173017 107.870464 
L 434.556447 113.806071 
L 435.706736 128.270771 
L 436.090166 115.533279 
L 436.473596 108.223392 
L 436.857026 110.70993 
L 437.240456 106.244857 
L 438.390745 103.351917 
L 439.157605 103.351917 
L 439.541034 98.070693 
L 439.924464 98.070693 
L 441.074754 100.104851 
L 441.458183 100.104851 
L 441.841613 108.036262 
L 442.608473 97.879797 
L 443.758762 99.396879 
L 444.525622 89.495922 
L 444.909051 88.585673 
L 446.442771 88.383395 
L 446.8262 92.423624 
L 447.20963 101.467563 
L 447.59306 103.996033 
L 447.97649 99.146694 
L 449.126779 94.142984 
L 449.893639 88.537765 
L 450.277069 93.536151 
L 450.660498 86.467081 
L 451.810788 88.638904 
L 452.194218 89.043459 
L 452.577647 89.245737 
L 452.961077 84.087658 
L 453.344507 87.020683 
L 454.878226 93.892799 
L 455.261656 94.345262 
L 455.645086 97.831889 
L 456.028516 104.043941 
L 457.178805 99.146694 
L 457.562235 106.721458 
L 457.945665 99.247832 
L 458.329094 102.175535 
L 458.712524 106.923735 
L 459.862814 119.049746 
L 460.246243 121.322708 
L 460.629673 113.444527 
L 461.013103 102.228766 
L 462.546822 98.353552 
L 462.930252 108.456787 
L 463.313682 105.869763 
L 463.697112 118.256605 
L 464.080541 107.897862 
L 465.230831 111.655967 
L 465.614261 105.970901 
L 465.99769 103.937479 
L 466.38112 97.43798 
L 466.76455 97.693489 
L 467.914839 104.294126 
L 468.298269 105.459884 
L 468.681699 104.650774 
L 469.065129 91.854053 
L 469.448559 86.775821 
L 470.598848 89.059428 
L 471.365708 74.94258 
L 471.749137 75.911384 
L 472.132567 74.080239 
L 473.282857 72.504603 
L 473.666286 72.712203 
L 474.049716 84.236704 
L 474.433146 76.672586 
L 474.816576 77.481697 
L 475.966865 73.217897 
L 476.350295 70.833151 
L 476.733725 66.61726 
L 477.117154 70.173087 
L 477.500584 66.111566 
L 478.650874 64.280421 
L 479.034303 65.094854 
L 479.417733 67.681879 
L 479.801163 67.681879 
L 480.184593 65.142762 
L 481.334882 64.482698 
L 481.718312 65.856057 
L 482.485172 73.420175 
L 482.868601 80.835246 
L 484.018891 77.231511 
L 484.402321 71.642261 
L 484.78575 71.998909 
L 485.55261 90.837342 
L 486.702899 87.590254 
L 487.086329 107.291029 
L 487.469759 115.158563 
L 487.853189 97.895766 
L 488.236619 99.875958 
L 489.386908 88.601642 
L 489.770338 78.29613 
L 490.153768 77.683974 
L 490.537197 80.734108 
L 490.920627 76.821633 
L 492.454346 81.995681 
L 492.837776 74.64981 
L 493.221206 71.030105 
L 493.604636 81.431433 
L 494.754925 90.411495 
L 495.138355 78.120468 
L 495.905215 68.278065 
L 497.438934 59.148957 
L 497.822364 57.717045 
L 498.205793 55.779438 
L 498.589223 56.343686 
L 498.972653 56.545964 
L 500.122942 53.538415 
L 500.506372 45.990266 
L 500.889802 53.586323 
L 501.656662 49.764341 
L 502.806951 51.089791 
L 503.190381 44.100567 
L 503.57381 43.387273 
L 503.95724 46.95907 
L 504.34067 48.385659 
L 505.874389 60.985425 
L 506.641249 76.486278 
L 507.024679 88.165148 
L 508.174968 86.786467 
L 508.558398 90.102755 
L 508.941828 95.713297 
L 509.325257 98.10869 
L 509.708687 86.126403 
L 510.858977 76.842925 
L 511.625836 63.992974 
L 512.009266 73.068851 
L 513.542985 71.998909 
L 513.926415 66.287228 
L 514.309845 56.748241 
L 515.076704 77.407173 
L 516.226994 83.725687 
L 516.610424 74.192024 
L 516.993853 72.712203 
L 517.377283 85.716525 
L 517.760713 89.336229 
L 519.294432 96.272222 
L 519.677862 106.370134 
L 520.061292 105.353422 
L 520.444722 82.453467 
L 521.595011 86.892929 
L 521.978441 99.641741 
L 522.361871 83.624548 
L 524.27902 83.624548 
L 524.662449 90.323168 
L 525.812739 90.323168 
L 526.963028 91.206031 
L 530.413896 91.206031 
L 531.180756 75.030737 
L 532.331045 75.577024 
L 532.714475 67.517992 
L 533.097905 69.72395 
L 533.481335 82.085642 
L 533.864764 78.781907 
L 535.015054 80.08259 
L 535.398484 85.842014 
L 535.781913 85.290524 
L 536.548773 77.132641 
L 538.082492 87.642159 
L 538.465922 81.284421 
L 538.849352 85.842014 
L 540.383071 86.742087 
L 540.766501 75.878782 
L 541.149931 69.921654 
L 541.53336 80.784959 
L 541.91679 102.45954 
L 543.06708 102.209809 
L 543.450509 118.681659 
L 543.833939 118.176994 
L 544.217369 105.664423 
L 544.600799 129.893547 
L 545.751088 129.544964 
L 546.134518 122.786615 
L 546.517948 102.012105 
L 546.901378 121.985394 
L 547.284807 124.238177 
L 548.435097 146.261342 
L 548.818527 148.665004 
L 549.201956 153.368274 
L 549.585386 152.270497 
L 549.968816 139.003531 
L 551.885965 139.003531 
L 552.269395 143.682243 
L 558.020842 143.682243 
L 559.171131 142.130275 
L 559.554561 133.644839 
L 559.937991 143.682243 
L 560.70485 177.785231 
L 561.85514 204.219078 
L 562.23857 209.232742 
L 562.621999 203.876436 
L 563.005429 224.177993 
L 563.388859 226.611761 
L 564.922578 210.69401 
L 565.306008 211.863025 
L 570.674025 211.863025 
L 571.057455 202.673954 
L 581.793489 202.673954 
L 582.176919 201.245395 
L 583.327208 199.764281 
L 583.710638 200.45706 
L 584.094068 187.394586 
L 584.477498 184.164801 
L 584.860928 173.271443 
L 586.011217 172.210774 
L 586.394647 169.119544 
L 586.778077 175.579115 
L 587.161506 173.68711 
L 587.544936 182.134241 
L 588.695226 195.889494 
L 589.078655 197.227275 
L 589.462085 194.04049 
L 589.845515 184.255579 
L 590.228945 205.072404 
L 591.379234 207.795743 
L 591.762664 216.104318 
L 592.146094 220.767439 
L 592.529524 219.061769 
L 592.912953 224.82856 
L 594.446672 227.647455 
L 594.830102 215.827206 
L 595.213532 209.22908 
L 595.596962 199.396391 
L 596.747251 193.075376 
L 597.130681 219.568214 
L 597.514111 218.459767 
L 597.897541 223.122889 
L 598.28097 229.678015 
L 599.43126 225.292005 
L 600.964979 265.215207 
L 602.498698 277.656568 
L 602.882128 263.11298 
L 603.265558 274.312116 
L 603.648988 281.048798 
L 604.799277 263.671981 
L 605.182707 243.132268 
L 605.949566 243.132268 
L 606.332996 258.083444 
L 611.701013 258.083444 
L 612.851303 251.368227 
L 613.234733 241.039294 
L 613.618162 238.89174 
L 614.001592 239.714107 
L 614.385022 225.268638 
L 618.98618 225.268638 
L 619.369609 195.063458 
L 619.753039 189.999002 
L 620.903329 195.574681 
L 621.286758 190.323892 
L 621.670188 196.085905 
L 622.053618 198.594244 
L 622.437048 193.902455 
L 623.587337 193.950233 
L 623.970767 184.514101 
L 624.354197 182.239873 
L 625.121056 180.147202 
L 626.271346 191.90534 
L 626.654775 189.578557 
L 627.038205 174.198855 
L 627.421635 174.294411 
L 627.805065 174.848634 
L 628.955354 189.162889 
L 629.338784 197.571797 
L 629.722214 197.944465 
L 630.105644 194.136567 
L 630.489073 199.525913 
L 631.639363 189.674113 
L 632.022793 184.972769 
L 632.406222 188.388887 
L 632.789652 202.927698 
L 633.173082 210.925716 
L 634.323371 215.555393 
L 634.706801 213.357611 
L 635.090231 203.443699 
L 635.473661 210.037048 
L 635.857091 205.082481 
L 637.39081 204.193812 
L 637.77424 212.282608 
L 638.157669 202.230141 
L 638.541099 203.864145 
L 640.074818 204.098256 
L 640.458248 195.775349 
L 640.841678 200.964027 
L 641.225108 186.191105 
L 642.375397 189.134222 
L 643.525687 174.031633 
L 643.909116 171.929406 
L 645.442836 175.52708 
L 645.826265 188.622999 
L 646.209695 193.43901 
L 646.593125 183.338765 
L 647.743414 176.181638 
L 648.126844 176.979528 
L 648.510274 175.48408 
L 648.893704 169.779401 
L 649.277134 170.38618 
L 650.427423 177.586307 
L 650.810853 167.390506 
L 651.577712 157.524373 
L 651.961142 163.88361 
L 653.111431 168.374731 
L 653.494861 161.456493 
L 654.261721 176.181638 
L 654.645151 171.274849 
L 655.79544 164.585945 
L 656.17887 166.879283 
L 656.5623 165.054168 
L 656.945729 172.488407 
L 657.329159 173.190742 
L 658.862878 186.61155 
L 659.246308 188.245554 
L 659.629738 186.750106 
L 660.013168 191.241227 
L 661.163457 191.427561 
L 661.546887 193.673122 
L 661.930317 195.073014 
L 662.313747 190.070669 
L 662.697176 180.06598 
L 663.847466 181.609205 
L 664.230896 194.141345 
L 664.614325 194.418457 
L 665.381185 220.605516 
L 666.531474 227.757866 
L 666.914904 217.705398 
L 667.298334 227.523754 
L 667.681764 219.34418 
L 668.065194 231.919319 
L 669.215483 222.894077 
L 669.598913 213.778056 
L 669.982343 213.778056 
L 670.365772 216.595796 
L 674.96693 216.595796 
L 675.35036 214.670879 
L 675.73379 213.93447 
L 677.267509 211.459577 
L 677.650939 208.341491 
L 678.034368 210.359624 
L 678.417798 204.673429 
L 678.801228 205.358569 
L 679.951517 201.965494 
L 680.334947 201.690506 
L 680.718377 201.737115 
L 681.101807 206.598346 
L 681.485237 206.188194 
L 682.635526 204.766645 
L 683.402385 222.78536 
L 683.785815 210.634613 
L 684.169245 203.895072 
L 685.319534 204.305224 
L 685.702964 215.127639 
L 686.469824 227.278387 
L 688.386973 227.278387 
L 688.770403 227.913703 
L 690.687552 227.913703 
L 691.070981 236.482566 
L 691.454411 228.09347 
L 691.837841 224.558065 
L 692.221271 225.28174 
L 693.37156 224.604159 
L 694.52185 239.294296 
L 694.905279 234.034978 
L 696.438999 235.302561 
L 696.822428 238.976248 
L 697.205858 233.624742 
L 697.589288 220.884378 
L 698.739577 223.285872 
L 699.123007 219.068277 
L 699.506437 213.301926 
L 699.889867 212.527548 
L 700.273297 213.394114 
L 701.423586 211.024886 
L 701.807016 205.240097 
L 702.190446 207.337371 
L 702.573875 198.501164 
L 702.957305 199.731872 
L 704.874454 207.060807 
L 705.257884 209.568317 
L 705.641314 214.076304 
L 706.791603 210.978792 
L 707.175033 205.152519 
L 707.558463 205.788615 
L 708.325322 194.269741 
L 709.475612 191.53637 
L 710.242471 195.177791 
L 710.625901 202.829384 
L 711.009331 201.962818 
L 712.15962 197.228971 
L 712.54305 189.577378 
L 713.30991 183.433057 
L 713.693339 188.57714 
L 714.843629 188.12081 
L 715.610488 179.197024 
L 715.993918 175.145367 
L 716.377348 173.140281 
L 717.527637 170.042769 
L 717.911067 170.406911 
L 718.294497 168.175964 
L 718.677927 174.458567 
L 719.061357 171.273477 
L 720.211646 168.950342 
L 720.595076 171.457852 
L 720.978506 177.648268 
L 721.745365 182.746257 
L 722.895655 176.145605 
L 723.279084 179.422884 
L 723.662514 181.653831 
L 724.045944 182.566491 
L 724.429374 180.51531 
L 725.579663 181.017734 
L 725.963093 190.761992 
L 726.346523 195.726309 
L 726.729953 199.049682 
L 727.113382 197.77288 
L 728.263672 198.819212 
L 728.647102 202.188679 
L 729.030531 197.228971 
L 729.413961 203.603762 
L 729.797391 199.321636 
L 730.94768 195.044119 
L 731.33111 188.259091 
L 731.71454 186.346193 
L 732.09797 189.03347 
L 732.4814 185.069391 
L 734.398549 195.813887 
L 734.781978 196.316311 
L 735.165408 195.541933 
L 736.315698 193.813411 
L 736.699127 192.854657 
L 737.082557 194.767555 
L 737.465987 186.572053 
L 737.849417 191.946606 
L 738.999706 192.582703 
L 739.383136 194.403413 
L 739.766566 197.136783 
L 740.149996 207.701513 
L 740.533425 210.752932 
L 741.683715 208.701751 
L 742.067144 208.701751 
L 742.450574 208.56169 
L 743.217434 208.56169 
L 744.367723 216.448019 
L 750.5026 216.448019 
L 750.88603 223.257175 
L 753.186609 223.257175 
L 753.570038 224.060801 
L 761.622064 224.060801 
L 762.005494 220.525379 
L 763.155783 218.061843 
L 763.539213 219.003121 
L 763.922643 216.048679 
L 764.689503 213.675217 
L 766.223222 215.86853 
L 766.606652 213.805825 
L 767.373511 200.015426 
L 768.523801 199.794744 
L 768.90723 205.433404 
L 769.29066 206.865588 
L 769.67409 204.807387 
L 770.05752 201.943019 
L 771.207809 196.344892 
L 771.591239 196.434967 
L 772.358098 173.731701 
L 772.741528 178.38855 
L 773.891818 177.627421 
L 774.275247 171.002445 
L 774.658677 183.419208 
L 775.042107 175.943028 
L 775.425537 173.060646 
L 777.726116 166.66536 
L 778.109545 168.692035 
L 778.109545 168.692035 
" clip-path="url(#pd9e1f0e553)" style="fill: none; stroke: #d62728; stroke-width: 1.5; stroke-linecap: square"/>
   </g>
   <g id="patch_3">
    <path d="M 44.57 390.04 
L 44.57 26.88 
" style="fill: none; stroke: #000000; stroke-width: 0.8; stroke-linejoin: miter; stroke-linecap: square"/>
   </g>
   <g id="patch_4">
    <path d="M 813.04 390.04 
L 813.04 26.88 
" style="fill: none; stroke: #000000; stroke-width: 0.8; stroke-linejoin: miter; stroke-linecap: square"/>
   </g>
   <g id="patch_5">
    <path d="M 44.57 390.04 
L 813.04 390.04 
" style="fill: none; stroke: #000000; stroke-width: 0.8; stroke-linejoin: miter; stroke-linecap: square"/>
   </g>
   <g id="patch_6">
    <path d="M 44.57 26.88 
L 813.04 26.88 
" style="fill: none; stroke: #000000; stroke-width: 0.8; stroke-linejoin: miter; stroke-linecap: square"/>
   </g>
  </g>
  <g id="axes_2">
   <g id="matplotlib.axis_3">
    <g id="ytick_7">
     <g id="line2d_26">
      <defs>
       <path id="m1f3ddca8d8" d="M 0 0 
L 3.5 0 
" style="stroke: #000000; stroke-width: 0.8"/>
      </defs>
      <g>
       <use xlink:href="#m1f3ddca8d8" x="813.04" y="366.799193" style="stroke: #000000; stroke-width: 0.8"/>
      </g>
     </g>
     <g id="text_15">
      <!-- 80 -->
      <g style="fill: #1f77b4" transform="translate(820.04 370.598412) scale(0.1 -0.1)">
       <defs>
        <path id="DejaVuSans-38" d="M 2034 2216 
Q 1584 2216 1326 1975 
Q 1069 1734 1069 1313 
Q 1069 891 1326 650 
Q 1584 409 2034 409 
Q 2484 409 2743 651 
Q 3003 894 3003 1313 
Q 3003 1734 2745 1975 
Q 2488 2216 2034 2216 
z
M 1403 2484 
Q 997 2584 770 2862 
Q 544 3141 544 3541 
Q 544 4100 942 4425 
Q 1341 4750 2034 4750 
Q 2731 4750 3128 4425 
Q 3525 4100 3525 3541 
Q 3525 3141 3298 2862 
Q 3072 2584 2669 2484 
Q 3125 2378 3379 2068 
Q 3634 1759 3634 1313 
Q 3634 634 3220 271 
Q 2806 -91 2034 -91 
Q 1263 -91 848 271 
Q 434 634 434 1313 
Q 434 1759 690 2068 
Q 947 2378 1403 2484 
z
M 1172 3481 
Q 1172 3119 1398 2916 
Q 1625 2713 2034 2713 
Q 2441 2713 2670 2916 
Q 2900 3119 2900 3481 
Q 2900 3844 2670 4047 
Q 2441 4250 2034 4250 
Q 1625 4250 1398 4047 
Q 1172 3844 1172 3481 
z
" transform="scale(0.015625)"/>
       </defs>
       <use xlink:href="#DejaVuSans-38"/>
       <use xlink:href="#DejaVuSans-30" x="63.623047"/>
      </g>
     </g>
    </g>
    <g id="ytick_8">
     <g id="line2d_27">
      <g>
       <use xlink:href="#m1f3ddca8d8" x="813.04" y="291.323832" style="stroke: #000000; stroke-width: 0.8"/>
      </g>
     </g>
     <g id="text_16">
      <!-- 100 -->
      <g style="fill: #1f77b4" transform="translate(820.04 295.123051) scale(0.1 -0.1)">
       <use xlink:href="#DejaVuSans-31"/>
       <use xlink:href="#DejaVuSans-30" x="63.623047"/>
       <use xlink:href="#DejaVuSans-30" x="127.246094"/>
      </g>
     </g>
    </g>
    <g id="ytick_9">
     <g id="line2d_28">
      <g>
       <use xlink:href="#m1f3ddca8d8" x="813.04" y="215.848472" style="stroke: #000000; stroke-width: 0.8"/>
      </g>
     </g>
     <g id="text_17">
      <!-- 120 -->
      <g style="fill: #1f77b4" transform="translate(820.04 219.64769) scale(0.1 -0.1)">
       <use xlink:href="#DejaVuSans-31"/>
       <use xlink:href="#DejaVuSans-32" x="63.623047"/>
       <use xlink:href="#DejaVuSans-30" x="127.246094"/>
      </g>
     </g>
    </g>
    <g id="ytick_10">
     <g id="line2d_29">
      <g>
       <use xlink:href="#m1f3ddca8d8" x="813.04" y="140.373111" style="stroke: #000000; stroke-width: 0.8"/>
      </g>
     </g>
     <g id="text_18">
      <!-- 140 -->
      <g style="fill: #1f77b4" transform="translate(820.04 144.17233) scale(0.1 -0.1)">
       <use xlink:href="#DejaVuSans-31"/>
       <use xlink:href="#DejaVuSans-34" x="63.623047"/>
       <use xlink:href="#DejaVuSans-30" x="127.246094"/>
      </g>
     </g>
    </g>
    <g id="ytick_11">
     <g id="line2d_30">
      <g>
       <use xlink:href="#m1f3ddca8d8" x="813.04" y="64.897751" style="stroke: #000000; stroke-width: 0.8"/>
      </g>
     </g>
     <g id="text_19">
      <!-- 160 -->
      <g style="fill: #1f77b4" transform="translate(820.04 68.696969) scale(0.1 -0.1)">
       <defs>
        <path id="DejaVuSans-36" d="M 2113 2584 
Q 1688 2584 1439 2293 
Q 1191 2003 1191 1497 
Q 1191 994 1439 701 
Q 1688 409 2113 409 
Q 2538 409 2786 701 
Q 3034 994 3034 1497 
Q 3034 2003 2786 2293 
Q 2538 2584 2113 2584 
z
M 3366 4563 
L 3366 3988 
Q 3128 4100 2886 4159 
Q 2644 4219 2406 4219 
Q 1781 4219 1451 3797 
Q 1122 3375 1075 2522 
Q 1259 2794 1537 2939 
Q 1816 3084 2150 3084 
Q 2853 3084 3261 2657 
Q 3669 2231 3669 1497 
Q 3669 778 3244 343 
Q 2819 -91 2113 -91 
Q 1303 -91 875 529 
Q 447 1150 447 2328 
Q 447 3434 972 4092 
Q 1497 4750 2381 4750 
Q 2619 4750 2861 4703 
Q 3103 4656 3366 4563 
z
" transform="scale(0.015625)"/>
       </defs>
       <use xlink:href="#DejaVuSans-31"/>
       <use xlink:href="#DejaVuSans-36" x="63.623047"/>
       <use xlink:href="#DejaVuSans-30" x="127.246094"/>
      </g>
     </g>
    </g>
    <g id="text_20">
     <!-- Close Price -->
     <g style="fill: #1f77b4" transform="translate(850.725937 235.867812) rotate(-90) scale(0.1 -0.1)">
      <defs>
       <path id="DejaVuSans-43" d="M 4122 4306 
L 4122 3641 
Q 3803 3938 3442 4084 
Q 3081 4231 2675 4231 
Q 1875 4231 1450 3742 
Q 1025 3253 1025 2328 
Q 1025 1406 1450 917 
Q 1875 428 2675 428 
Q 3081 428 3442 575 
Q 3803 722 4122 1019 
L 4122 359 
Q 3791 134 3420 21 
Q 3050 -91 2638 -91 
Q 1578 -91 968 557 
Q 359 1206 359 2328 
Q 359 3453 968 4101 
Q 1578 4750 2638 4750 
Q 3056 4750 3426 4639 
Q 3797 4528 4122 4306 
z
" transform="scale(0.015625)"/>
       <path id="DejaVuSans-6c" d="M 603 4863 
L 1178 4863 
L 1178 0 
L 603 0 
L 603 4863 
z
" transform="scale(0.015625)"/>
       <path id="DejaVuSans-6f" d="M 1959 3097 
Q 1497 3097 1228 2736 
Q 959 2375 959 1747 
Q 959 1119 1226 758 
Q 1494 397 1959 397 
Q 2419 397 2687 759 
Q 2956 1122 2956 1747 
Q 2956 2369 2687 2733 
Q 2419 3097 1959 3097 
z
M 1959 3584 
Q 2709 3584 3137 3096 
Q 3566 2609 3566 1747 
Q 3566 888 3137 398 
Q 2709 -91 1959 -91 
Q 1206 -91 779 398 
Q 353 888 353 1747 
Q 353 2609 779 3096 
Q 1206 3584 1959 3584 
z
" transform="scale(0.015625)"/>
       <path id="DejaVuSans-50" d="M 1259 4147 
L 1259 2394 
L 2053 2394 
Q 2494 2394 2734 2622 
Q 2975 2850 2975 3272 
Q 2975 3691 2734 3919 
Q 2494 4147 2053 4147 
L 1259 4147 
z
M 628 4666 
L 2053 4666 
Q 2838 4666 3239 4311 
Q 3641 3956 3641 3272 
Q 3641 2581 3239 2228 
Q 2838 1875 2053 1875 
L 1259 1875 
L 1259 0 
L 628 0 
L 628 4666 
z
" transform="scale(0.015625)"/>
       <path id="DejaVuSans-69" d="M 603 3500 
L 1178 3500 
L 1178 0 
L 603 0 
L 603 3500 
z
M 603 4863 
L 1178 4863 
L 1178 4134 
L 603 4134 
L 603 4863 
z
" transform="scale(0.015625)"/>
       <path id="DejaVuSans-63" d="M 3122 3366 
L 3122 2828 
Q 2878 2963 2633 3030 
Q 2388 3097 2138 3097 
Q 1578 3097 1268 2742 
Q 959 2388 959 1747 
Q 959 1106 1268 751 
Q 1578 397 2138 397 
Q 2388 397 2633 464 
Q 2878 531 3122 666 
L 3122 134 
Q 2881 22 2623 -34 
Q 2366 -91 2075 -91 
Q 1284 -91 818 406 
Q 353 903 353 1747 
Q 353 2603 823 3093 
Q 1294 3584 2113 3584 
Q 2378 3584 2631 3529 
Q 2884 3475 3122 3366 
z
" transform="scale(0.015625)"/>
      </defs>
      <use xlink:href="#DejaVuSans-43"/>
      <use xlink:href="#DejaVuSans-6c" x="69.824219"/>
      <use xlink:href="#DejaVuSans-6f" x="97.607422"/>
      <use xlink:href="#DejaVuSans-73" x="158.789062"/>
      <use xlink:href="#DejaVuSans-65" x="210.888672"/>
      <use xlink:href="#DejaVuSans-20" x="272.412109"/>
      <use xlink:href="#DejaVuSans-50" x="304.199219"/>
      <use xlink:href="#DejaVuSans-72" x="362.751953"/>
      <use xlink:href="#DejaVuSans-69" x="403.865234"/>
      <use xlink:href="#DejaVuSans-63" x="431.648438"/>
      <use xlink:href="#DejaVuSans-65" x="486.628906"/>
     </g>
    </g>
   </g>
   <g id="line2d_31">
    <path d="M 79.500455 293.746591 
L 79.883884 299.858964 
L 80.267314 289.255807 
L 81.417604 287.127402 
L 81.801033 284.021591 
L 82.567893 280.779924 
L 82.951323 280.036492 
L 84.101612 281.689403 
L 84.485042 278.787375 
L 84.868472 277.30051 
L 85.251902 274.262627 
L 85.635331 269.028411 
L 87.16905 273.685241 
L 87.55248 272.945582 
L 87.93591 272.538015 
L 88.31934 270.443574 
L 89.469629 271.862511 
L 89.853059 271.05115 
L 90.236489 267.507582 
L 90.619919 265.043312 
L 91.003348 263.658339 
L 92.537068 261.665789 
L 92.920497 261.767681 
L 93.303927 264.94142 
L 93.687357 264.873492 
L 94.837646 264.197988 
L 95.221076 259.469456 
L 95.604506 258.118447 
L 95.987936 259.265673 
L 96.371366 253.627663 
L 97.905085 252.480438 
L 98.288515 251.197357 
L 98.671944 252.480438 
L 99.055374 250.891682 
L 100.205664 250.216177 
L 100.589093 251.027537 
L 100.972523 251.163393 
L 101.355953 252.140799 
L 101.739383 249.812384 
L 102.889672 251.465294 
L 103.273102 252.310618 
L 104.039962 257.748618 
L 104.423391 258.895844 
L 105.957111 252.544592 
L 106.34054 249.880312 
L 106.72397 250.046358 
L 107.1074 248.121736 
L 108.257689 246.502789 
L 108.641119 247.514159 
L 109.024549 250.684124 
L 109.407979 247.019796 
L 109.791409 254.522047 
L 110.941698 255.235289 
L 111.325128 251.125655 
L 111.708558 252.959707 
L 112.091987 251.635114 
L 112.475417 249.431233 
L 113.625707 244.676286 
L 114.009136 245.559347 
L 114.392566 245.083853 
L 114.775996 243.623404 
L 115.159426 241.687461 
L 116.309715 241.41575 
L 116.693145 244.166827 
L 117.076575 242.774307 
L 117.460004 242.264848 
L 117.843434 238.974122 
L 118.993724 239.955302 
L 119.377153 239.109978 
L 119.760583 240.600616 
L 120.144013 240.193049 
L 121.677732 240.668544 
L 122.061162 237.887277 
L 122.828022 239.449617 
L 123.211451 237.683494 
L 124.361741 237.072143 
L 124.745171 234.966381 
L 125.1286 238.226916 
L 125.51203 239.076014 
L 125.89546 235.611695 
L 127.045749 237.309891 
L 127.429179 243.623404 
L 127.812609 244.846105 
L 128.196039 245.559347 
L 128.579469 243.215837 
L 129.729758 251.737006 
L 130.113188 248.480244 
L 130.496618 247.970785 
L 130.880047 244.608358 
L 131.263477 246.71412 
L 132.413767 248.174569 
L 132.797196 244.642322 
L 133.180626 246.408445 
L 133.564056 251.057727 
L 133.947486 249.872764 
L 135.481205 255.099433 
L 135.864635 257.544835 
L 136.248065 257.578799 
L 136.631494 262.73754 
L 137.781784 259.141139 
L 138.165214 251.295475 
L 139.315503 244.472502 
L 140.465792 243.113946 
L 140.849222 243.181874 
L 141.232652 243.92908 
L 141.616082 241.891245 
L 141.999512 242.298812 
L 143.149801 243.004506 
L 143.533231 239.245834 
L 143.916661 238.121251 
L 144.30009 234.400315 
L 144.68352 233.785191 
L 145.83381 235.694718 
L 146.600669 239.177906 
L 146.984099 237.302343 
L 147.367529 234.332388 
L 148.517818 230.883164 
L 148.901248 230.883164 
L 149.284678 227.467904 
L 150.051537 227.705651 
L 151.201827 229.618951 
L 151.585256 229.720843 
L 152.352116 228.083028 
L 152.735546 225.93198 
L 153.885835 226.547104 
L 154.269265 227.637723 
L 154.652695 231.290731 
L 155.036125 228.935899 
L 155.419554 230.8492 
L 156.569844 230.951091 
L 156.953274 227.467904 
L 157.336703 225.113072 
L 157.720133 226.920707 
L 158.103563 224.701732 
L 159.637282 225.384784 
L 160.404142 235.45697 
L 160.787572 237.985395 
L 161.937861 249.695397 
L 162.321291 245.189518 
L 162.704721 245.87257 
L 163.08815 238.804303 
L 163.47158 241.842186 
L 164.62187 247.442458 
L 165.005299 242.830913 
L 165.388729 254.612617 
L 165.772159 253.827673 
L 166.155589 247.37453 
L 167.305878 242.970543 
L 167.689308 246.79337 
L 168.072738 244.197017 
L 168.456168 243.823414 
L 168.839597 254.065421 
L 169.989887 250.480341 
L 170.373317 252.869136 
L 170.756746 249.114237 
L 171.140176 244.264945 
L 171.523606 243.344146 
L 173.057325 244.71025 
L 173.824185 235.423007 
L 174.207615 234.468243 
L 175.357904 230.747308 
L 175.741334 228.490595 
L 176.124763 225.079108 
L 176.508193 224.226237 
L 176.891623 223.984716 
L 178.041912 224.43002 
L 178.425342 224.701732 
L 178.808772 224.667768 
L 179.192202 225.282892 
L 179.575632 226.479176 
L 180.725921 226.067836 
L 181.109351 229.151004 
L 181.492781 227.052789 
L 181.87621 228.430214 
L 182.25964 228.977411 
L 183.40993 227.981136 
L 184.176789 241.759163 
L 184.560219 239.423201 
L 184.943649 234.098414 
L 186.093938 236.124927 
L 186.477368 243.136588 
L 187.244228 236.879681 
L 187.627657 232.003973 
L 188.777947 232.860618 
L 189.161377 229.494417 
L 189.544806 229.769902 
L 189.928236 228.392477 
L 190.311666 228.909483 
L 192.228815 223.479031 
L 192.612245 224.407378 
L 192.995675 222.414828 
L 194.145964 221.143068 
L 194.529394 220.11283 
L 194.912824 219.837345 
L 195.296253 221.761966 
L 195.679683 216.746629 
L 196.829973 213.995552 
L 197.213402 213.72384 
L 197.596832 213.72384 
L 197.980262 212.036966 
L 198.363692 211.282212 
L 199.513981 212.723792 
L 200.280841 212.723792 
L 200.664271 212.6219 
L 201.0477 209.599112 
L 202.19799 209.908561 
L 202.58142 210.802944 
L 202.964849 212.108668 
L 203.348279 212.176595 
L 203.731709 210.802944 
L 204.881998 208.153759 
L 205.265428 207.882047 
L 205.648858 206.161209 
L 207.566007 210.595387 
L 207.949437 214.376702 
L 208.332866 210.9388 
L 208.716296 210.010453 
L 209.099726 205.957426 
L 210.633445 207.500897 
L 211.016875 206.987664 
L 211.400305 201.764769 
L 211.783735 203.206349 
L 212.934024 200.111859 
L 213.317454 199.696745 
L 213.700884 199.938266 
L 214.084313 198.934443 
L 214.467743 196.266389 
L 215.618033 196.439983 
L 216.001462 196.232426 
L 216.768322 195.051236 
L 217.151752 195.122938 
L 218.302041 197.028691 
L 218.685471 195.711646 
L 219.452331 193.805893 
L 219.83576 196.994727 
L 220.98605 196.575838 
L 221.36948 197.998549 
L 221.752909 196.994727 
L 222.136339 194.91538 
L 222.519769 196.715468 
L 224.053488 193.285113 
L 224.436918 193.179447 
L 224.820348 189.715128 
L 225.203778 188.813198 
L 226.737497 190.824616 
L 227.504356 190.477429 
L 227.887786 194.741787 
L 229.038076 201.39494 
L 229.421505 197.651362 
L 229.804935 199.662781 
L 230.188365 197.511733 
L 230.571795 205.829118 
L 231.722084 203.749771 
L 232.105514 198.621221 
L 232.488944 191.311432 
L 232.872374 191.23973 
L 233.255803 194.187043 
L 234.406093 192.556775 
L 235.172952 188.74527 
L 235.556382 188.639604 
L 235.939812 188.779234 
L 237.473531 191.137839 
L 237.856961 189.749092 
L 238.240391 189.6472 
L 238.62382 191.968068 
L 239.77411 205.795154 
L 240.15754 220.248685 
L 240.540969 225.064013 
L 240.924399 243.849831 
L 241.307829 248.838752 
L 242.458118 233.139877 
L 242.841548 244.332873 
L 243.224978 227.388654 
L 243.608408 242.566749 
L 243.991838 250.778469 
L 245.142127 287.931215 
L 245.525557 270.847367 
L 245.908987 292.194441 
L 246.292416 329.93514 
L 246.675846 300.408047 
L 247.826136 343.485986 
L 248.209565 322.310996 
L 248.592995 346.08498 
L 248.976425 346.639724 
L 249.359855 359.739605 
L 250.510144 373.532727 
L 250.893574 343.173896 
L 251.277004 335.544091 
L 251.660434 315.272164 
L 252.043863 325.373032 
L 253.194153 315.621615 
L 253.577583 322.052871 
L 253.961012 338.340076 
L 254.344442 330.336292 
L 254.727872 335.788632 
L 255.878161 314.573262 
L 256.261591 312.266358 
L 256.645021 297.761503 
L 257.028451 288.11613 
L 258.56217 296.118782 
L 258.9456 288.814277 
L 259.32903 301.012227 
L 259.712459 302.445127 
L 260.095889 288.010464 
L 261.246179 295.908961 
L 261.629608 305.310926 
L 262.013038 299.509135 
L 262.396468 299.509135 
L 262.779898 295.140244 
L 264.313617 283.327218 
L 264.697047 274.413578 
L 265.463906 294.685882 
L 266.614196 295.140244 
L 266.997625 293.497523 
L 267.381055 299.404224 
L 267.764485 294.580972 
L 268.147915 285.666954 
L 269.298204 289.304866 
L 270.065064 306.778922 
L 270.448494 301.571122 
L 270.831923 301.745848 
L 271.982213 285.074472 
L 272.365643 291.330625 
L 272.749072 284.478217 
L 273.132502 286.610396 
L 273.515932 286.787763 
L 275.049651 276.160832 
L 275.433081 267.145301 
L 275.816511 269.345407 
L 276.199941 269.835997 
L 277.35023 267.703818 
L 277.73366 263.613054 
L 278.11709 254.352227 
L 278.500519 251.974753 
L 278.883949 239.604341 
L 280.034239 231.317147 
L 280.801098 249.389722 
L 281.184528 276.617458 
L 281.567958 269.696368 
L 282.718247 266.156573 
L 283.101677 259.405302 
L 283.485107 263.624375 
L 283.868537 264.013073 
L 284.251966 267.458523 
L 285.402256 267.741556 
L 285.785686 267.458523 
L 286.169115 279.274191 
L 286.552545 275.12682 
L 286.935975 284.127257 
L 288.086264 277.025025 
L 288.469694 272.662549 
L 288.853124 273.156913 
L 289.236554 271.153042 
L 290.770273 267.073599 
L 291.153703 272.662549 
L 291.537133 271.466265 
L 291.920562 277.40995 
L 292.303992 270.202053 
L 293.454282 270.658679 
L 294.221141 257.718428 
L 294.604571 258.069388 
L 294.988001 256.416478 
L 296.13829 259.088306 
L 296.52172 254.095611 
L 296.90515 251.740779 
L 297.288579 252.197405 
L 297.672009 255.993816 
L 298.822299 255.431525 
L 299.205728 256.767438 
L 299.589158 251.246416 
L 299.972588 255.469262 
L 300.356018 256.805176 
L 301.506307 255.469262 
L 301.889737 253.567283 
L 302.273167 250.472793 
L 302.656597 249.804836 
L 303.040026 245.340469 
L 304.190316 241.472357 
L 304.573746 241.895019 
L 304.957175 239.151489 
L 305.340605 241.857281 
L 305.724035 241.540284 
L 306.874324 242.385609 
L 307.257754 243.89889 
L 308.024614 247.767002 
L 308.408044 247.483969 
L 309.558333 241.189324 
L 309.941763 241.506321 
L 310.325193 242.351645 
L 311.092052 236.373996 
L 312.242342 239.99304 
L 312.625771 238.623162 
L 313.009201 231.732261 
L 313.392631 240.766662 
L 313.776061 241.366691 
L 315.30978 249.276509 
L 315.69321 244.178148 
L 316.07664 250.43883 
L 316.460069 248.083998 
L 317.610359 242.140314 
L 317.993789 242.45731 
L 318.377218 239.747745 
L 318.760648 241.611986 
L 319.144078 245.657465 
L 320.294367 255.325859 
L 320.677797 254.201276 
L 321.061227 262.624326 
L 321.444657 261.914858 
L 321.828087 257.242933 
L 322.978376 250.555816 
L 323.361806 253.778614 
L 323.745236 250.733183 
L 324.512095 248.50666 
L 325.662384 241.710104 
L 326.045814 245.604633 
L 326.812674 233.256864 
L 327.196104 232.513431 
L 328.346393 229.079302 
L 328.729823 233.468195 
L 329.113253 235.272056 
L 329.880112 232.796464 
L 331.030402 239.023181 
L 331.413831 236.936287 
L 331.797261 238.702411 
L 332.180691 232.796464 
L 332.564121 232.192661 
L 333.71441 241.181777 
L 334.09784 246.559396 
L 334.48127 258.835463 
L 334.8647 255.688141 
L 335.248129 255.688141 
L 336.398419 247.974559 
L 336.781849 240.08361 
L 337.165278 240.189276 
L 337.548708 232.758726 
L 337.932138 233.396493 
L 339.465857 210.150082 
L 339.849287 211.531281 
L 340.232717 217.474966 
L 340.616147 208.663217 
L 341.766436 200.03261 
L 342.149866 202.013838 
L 342.533296 207.425421 
L 342.916725 206.115924 
L 343.300155 208.097152 
L 344.450445 201.802507 
L 344.833874 191.824664 
L 345.217304 194.866321 
L 345.984164 195.221056 
L 347.134453 200.243941 
L 347.517883 195.892786 
L 347.901313 193.451158 
L 348.284743 192.458657 
L 348.668172 186.375343 
L 349.818462 189.062266 
L 350.201892 187.401808 
L 350.585321 188.318834 
L 350.968751 188.850935 
L 351.352181 189.805699 
L 352.50247 194.617253 
L 352.8859 187.439546 
L 353.26933 188.718853 
L 353.65276 186.337606 
L 354.03619 188.469785 
L 355.186479 190.88877 
L 355.569909 193.587014 
L 355.953338 189.998161 
L 356.336768 188.647152 
L 357.870487 187.47351 
L 358.253917 188.824519 
L 358.637347 186.514973 
L 359.020777 182.782716 
L 360.554496 189.322656 
L 360.937926 185.201702 
L 361.321356 173.080359 
L 361.704785 168.748073 
L 362.088215 168.427303 
L 363.238505 168.034831 
L 363.621934 165.619619 
L 364.005364 166.080019 
L 364.388794 164.196909 
L 364.772224 168.993368 
L 366.305943 166.793261 
L 366.689373 164.445977 
L 367.456232 170.204747 
L 368.606522 170.699111 
L 368.989952 172.974693 
L 369.373381 185.877206 
L 369.756811 178.944794 
L 370.140241 187.367844 
L 371.29053 182.288353 
L 371.67396 175.355941 
L 372.05739 173.329427 
L 372.44082 166.970628 
L 372.82425 164.302574 
L 373.974539 158.758909 
L 374.357969 158.653243 
L 374.741399 157.906037 
L 375.124828 157.551303 
L 375.508258 154.566253 
L 377.041977 153.713381 
L 377.425407 153.252981 
L 377.808837 156.094629 
L 378.192267 153.392611 
L 379.342556 151.369871 
L 379.725986 149.664128 
L 380.109416 142.199615 
L 380.492846 152.40011 
L 380.876275 158.50984 
L 382.026565 146.890409 
L 382.409995 148.773519 
L 382.793424 150.018862 
L 383.176854 155.988963 
L 383.560284 144.652564 
L 384.710573 140.316505 
L 385.094003 140.637275 
L 385.477433 133.704863 
L 385.860863 132.036858 
L 386.244292 127.451729 
L 387.394582 124.964816 
L 387.778012 128.693299 
L 388.161441 125.923353 
L 388.544871 130.11601 
L 388.928301 132.214225 
L 390.07859 132.285926 
L 390.46202 139.890069 
L 390.84545 139.852331 
L 391.22888 133.380319 
L 391.61231 124.493095 
L 392.762599 126.8517 
L 393.146029 125.851652 
L 393.529459 127.885713 
L 393.912888 123.210014 
L 395.446608 118.390912 
L 395.830037 117.99844 
L 396.213467 119.107928 
L 396.596897 118.855086 
L 396.980327 116.179484 
L 398.130616 115.753048 
L 398.514046 117.3569 
L 398.897476 115.360577 
L 399.664335 109.650866 
L 400.814625 111.541523 
L 401.198055 116.643658 
L 401.581484 110.469773 
L 401.964914 114.466194 
L 402.348344 109.043289 
L 403.498633 108.756483 
L 404.265493 106.831861 
L 404.648923 102.118425 
L 405.032353 106.473353 
L 406.182642 102.869404 
L 406.566072 102.371267 
L 406.949502 100.405134 
L 407.716361 91.378281 
L 408.866651 92.019821 
L 409.25008 99.408859 
L 409.63351 110.398072 
L 410.40037 95.087895 
L 411.550659 95.661507 
L 411.934089 100.907045 
L 412.317519 104.224187 
L 412.700949 101.193851 
L 413.084378 99.122053 
L 414.234668 95.838875 
L 414.618097 99.016387 
L 415.001527 97.374798 
L 415.384957 94.302951 
L 415.768387 93.699148 
L 417.685536 91.200914 
L 418.068966 91.736789 
L 418.452395 89.166853 
L 419.602685 91.05751 
L 419.986115 90.914107 
L 420.369544 93.378378 
L 420.752974 93.751981 
L 421.136404 92.212284 
L 422.286693 95.186013 
L 422.670123 94.646364 
L 423.053553 98.371073 
L 423.436983 105.499721 
L 423.820413 116.066271 
L 424.970702 105.250652 
L 425.354132 104.5676 
L 425.737562 105.465757 
L 426.504421 98.159742 
L 427.654711 100.627786 
L 428.03814 102.45429 
L 428.42157 100.593822 
L 428.805 96.654008 
L 429.18843 95.435081 
L 430.722149 100.699488 
L 431.105579 99.374895 
L 431.489009 105.17895 
L 431.872438 96.831376 
L 433.022728 94.574662 
L 433.406158 98.910722 
L 433.789587 99.948508 
L 434.173017 100.522121 
L 434.556447 104.711003 
L 435.706736 114.919046 
L 436.090166 105.92993 
L 436.473596 100.771189 
L 436.857026 102.525992 
L 437.240456 99.374895 
L 438.390745 97.333287 
L 438.774175 97.261585 
L 439.157605 97.729532 
L 439.541034 94.004823 
L 439.924464 95.759625 
L 441.074754 97.189884 
L 441.458183 92.427388 
L 441.841613 98.050303 
L 442.608473 90.849953 
L 443.758762 91.925477 
L 444.525622 84.906269 
L 444.909051 84.260954 
L 446.442771 84.117551 
L 446.8262 86.981841 
L 447.20963 93.393473 
L 447.59306 95.186013 
L 447.97649 91.74811 
L 449.126779 88.200768 
L 449.893639 84.22699 
L 450.277069 87.770559 
L 450.660498 82.758995 
L 451.810788 84.298692 
L 452.194218 84.585498 
L 452.577647 84.728902 
L 452.961077 81.07212 
L 453.344507 83.151466 
L 454.878226 88.023401 
L 455.261656 88.344171 
L 455.645086 90.815989 
L 456.028516 95.219977 
L 457.178805 91.74811 
L 457.562235 97.118182 
L 457.945665 91.819812 
L 458.329094 93.895384 
L 458.712524 97.261585 
L 459.862814 105.858229 
L 460.246243 107.469628 
L 460.629673 101.884451 
L 461.013103 93.933122 
L 462.546822 91.185819 
L 462.930252 98.34843 
L 463.313682 96.514379 
L 463.697112 105.295937 
L 464.080541 97.952185 
L 465.230831 100.616465 
L 465.614261 96.586081 
L 465.99769 95.144501 
L 466.38112 90.536731 
L 466.76455 90.717871 
L 467.914839 95.397344 
L 468.298269 96.223799 
L 468.681699 95.650186 
L 469.065129 86.578048 
L 469.448559 82.977873 
L 470.598848 84.59682 
L 471.365708 74.588787 
L 471.749137 75.275613 
L 472.132567 73.977436 
L 473.282857 72.860401 
L 473.666286 73.007578 
L 474.049716 81.177786 
L 474.433146 75.815261 
L 474.816576 76.388874 
L 475.966865 73.366086 
L 476.350295 71.675438 
L 476.733725 68.686614 
L 477.117154 71.207491 
L 477.500584 68.328106 
L 478.650874 67.029929 
L 479.034303 67.607316 
L 479.417733 69.441367 
L 479.801163 69.441367 
L 480.184593 67.64128 
L 481.334882 67.173333 
L 481.718312 68.146965 
L 482.485172 73.509489 
L 482.868601 78.766348 
L 484.018891 76.211507 
L 484.402321 72.249051 
L 484.78575 72.501893 
L 485.55261 85.857258 
L 486.702899 83.55526 
L 487.086329 97.521975 
L 487.469759 103.099604 
L 487.853189 90.861275 
L 488.236619 92.265116 
L 489.386908 84.272276 
L 489.770338 76.966261 
L 490.153768 76.532277 
L 490.537197 78.694646 
L 490.920627 75.920927 
L 492.454346 79.589029 
L 492.837776 74.38123 
L 493.221206 71.815067 
L 493.604636 79.18901 
L 494.754925 85.555357 
L 495.138355 76.841726 
L 495.905215 69.864029 
L 497.438934 63.392017 
L 497.822364 62.376873 
L 498.205793 61.003222 
L 498.589223 61.403241 
L 498.972653 61.546644 
L 500.122942 59.414466 
L 500.506372 54.063262 
L 500.889802 59.448429 
L 501.656662 56.738864 
L 502.806951 57.678532 
L 503.190381 52.723575 
L 503.57381 52.21789 
L 503.95724 54.750088 
L 504.34067 55.761458 
L 505.874389 64.693967 
L 506.641249 75.68318 
L 507.024679 83.962827 
L 508.174968 82.985421 
L 508.558398 85.336478 
L 508.941828 89.31403 
L 509.325257 91.012225 
L 509.708687 82.517473 
L 510.858977 75.936022 
L 511.625836 66.826146 
L 512.009266 73.26042 
L 513.542985 72.501893 
L 513.926415 68.45264 
L 514.309845 61.690048 
L 515.076704 76.336041 
L 516.226994 80.815504 
L 516.610424 74.056686 
L 516.993853 73.007578 
L 517.377283 82.226893 
L 517.760713 84.793056 
L 519.294432 89.710275 
L 519.677862 96.869113 
L 520.061292 96.148324 
L 520.444722 79.913573 
L 521.595011 83.060896 
L 521.978441 92.09907 
L 522.361871 80.743802 
L 522.7453 80.309819 
L 523.12873 82.479736 
L 524.662449 100.522121 
L 525.045879 90.363137 
L 525.429309 90.978261 
L 525.812739 95.567163 
L 526.963028 96.182287 
L 528.113318 72.792473 
L 528.496747 70.694258 
L 529.647037 69.501748 
L 530.030467 65.705337 
L 530.413896 72.645296 
L 531.180756 60.912651 
L 532.331045 61.308897 
L 532.714475 55.46333 
L 533.097905 57.063408 
L 533.481335 66.029881 
L 533.864764 63.633538 
L 535.015054 64.57698 
L 535.398484 68.754541 
L 535.781913 68.354522 
L 536.548773 62.437254 
L 538.082492 70.060265 
L 538.465922 65.448721 
L 538.849352 68.754541 
L 540.383071 69.407403 
L 540.766501 61.527776 
L 541.149931 57.206811 
L 541.53336 65.086439 
L 541.91679 80.807957 
L 543.06708 80.626816 
L 543.450509 92.574565 
L 543.833939 92.20851 
L 544.217369 83.132598 
L 544.600799 100.707035 
L 545.751088 100.454193 
L 546.134518 95.552068 
L 546.517948 80.483412 
L 546.901378 94.970908 
L 547.284807 96.604949 
L 548.435097 112.57931 
L 548.818527 114.32279 
L 549.201956 117.734277 
L 549.585386 116.938012 
L 549.968816 107.314903 
L 551.119105 106.88092 
L 551.502535 97.18611 
L 551.885965 115.628514 
L 552.269395 118.972073 
L 552.652825 117.519172 
L 553.803114 107.748886 
L 554.186544 107.1715 
L 554.569974 103.284519 
L 555.336833 84.513797 
L 556.870552 89.449885 
L 557.253982 93.808587 
L 557.637412 87.053543 
L 558.020842 92.574565 
L 559.171131 91.412245 
L 559.554561 85.057219 
L 559.937991 92.574565 
L 560.70485 118.115427 
L 561.85514 137.912614 
L 562.23857 141.667514 
L 562.621999 137.655998 
L 563.005429 152.86051 
L 563.388859 154.683239 
L 564.922578 142.761906 
L 565.306008 143.63742 
L 565.689438 141.410897 
L 566.072867 127.229077 
L 567.223157 127.157375 
L 567.606587 134.048276 
L 567.990016 136.527641 
L 568.373446 140.173101 
L 568.756876 133.572781 
L 570.290595 136.708782 
L 570.674025 137.184277 
L 571.057455 130.217901 
L 572.591174 135.942707 
L 573.358034 141.958094 
L 573.741463 147.316844 
L 574.124893 136.271025 
L 575.275183 138.85983 
L 575.658612 125.044065 
L 576.042042 123.183598 
L 576.425472 120.157036 
L 576.808902 123.511916 
L 577.959191 121.104252 
L 578.342621 124.896888 
L 578.726051 115.707763 
L 579.49291 105.31858 
L 580.6432 106.74129 
L 581.02663 110.824507 
L 581.410059 105.028 
L 581.793489 107.688506 
L 582.176919 106.56015 
L 583.327208 105.390281 
L 583.710638 105.937478 
L 584.094068 95.619996 
L 584.477498 93.068929 
L 584.860928 84.464738 
L 586.011217 83.626961 
L 586.394647 81.185333 
L 586.778077 86.287468 
L 587.161506 84.793056 
L 587.544936 91.465077 
L 588.695226 102.329756 
L 589.078655 103.386411 
L 589.462085 100.869307 
L 589.845515 93.14063 
L 590.228945 109.582938 
L 591.379234 111.733986 
L 591.762664 118.296568 
L 592.146094 121.979766 
L 592.529524 120.632531 
L 592.912953 125.187469 
L 594.446672 127.413992 
L 594.830102 118.07769 
L 595.213532 112.866116 
L 595.596962 105.099701 
L 596.747251 100.107006 
L 597.130681 121.03255 
L 597.514111 120.157036 
L 597.897541 123.840233 
L 598.28097 129.017843 
L 599.43126 125.553524 
L 600.964979 157.08713 
L 602.498698 166.914022 
L 602.882128 155.426672 
L 603.265558 164.272384 
L 603.648988 169.593397 
L 604.799277 155.868203 
L 605.182707 139.644774 
L 605.566137 141.516563 
L 605.949566 147.460247 
L 606.332996 159.094774 
L 607.483286 162.253418 
L 608.250145 166.695143 
L 608.633575 152.747296 
L 609.017005 162.253418 
L 610.167294 151.38874 
L 610.550724 144.490292 
L 611.317584 154.215292 
L 611.701013 142.799644 
L 612.851303 137.406929 
L 613.234733 129.112187 
L 613.618162 127.387575 
L 614.001592 128.047985 
L 614.385022 116.447422 
L 615.535311 119.126797 
L 615.918741 117.953155 
L 616.302171 128.52348 
L 616.685601 130.72736 
L 617.069031 122.723198 
L 618.21932 118.100332 
L 618.60275 115.420957 
L 618.98618 125.515786 
L 619.369609 101.658025 
L 619.753039 97.657831 
L 620.903329 102.061818 
L 621.286758 97.914447 
L 621.670188 102.465611 
L 622.053618 104.446839 
L 622.437048 100.740999 
L 623.587337 100.778737 
L 623.970767 93.325545 
L 624.354197 91.529231 
L 625.121056 89.876321 
L 626.271346 99.163564 
L 626.654775 97.325739 
L 627.038205 85.17798 
L 627.421635 85.253455 
L 627.805065 85.691212 
L 628.955354 96.997421 
L 629.338784 103.639253 
L 629.722214 103.933607 
L 630.105644 100.925914 
L 630.489073 105.182724 
L 631.639363 97.401215 
L 632.022793 93.687827 
L 632.406222 96.386071 
L 632.789652 107.869647 
L 633.173082 114.186935 
L 634.323371 117.843716 
L 634.706801 116.107783 
L 635.090231 108.277214 
L 635.473661 113.485014 
L 635.857091 109.571616 
L 637.39081 108.869696 
L 637.77424 115.258685 
L 638.157669 107.318677 
L 638.541099 108.609306 
L 640.074818 108.79422 
L 640.458248 102.220316 
L 640.841678 106.318628 
L 641.225108 94.650138 
L 642.375397 96.974779 
L 643.525687 85.045898 
L 643.909116 83.38544 
L 645.442836 86.227087 
L 645.826265 96.570986 
L 646.209695 100.374944 
L 646.593125 92.397198 
L 647.743414 86.744094 
L 648.126844 87.374313 
L 648.510274 86.193124 
L 648.893704 81.687244 
L 649.277134 82.166513 
L 650.427423 87.853581 
L 650.810853 79.80036 
L 651.577712 72.007529 
L 651.961142 77.030415 
L 653.111431 80.577757 
L 653.494861 75.113341 
L 654.261721 86.744094 
L 654.645151 82.868434 
L 655.79544 77.585159 
L 656.17887 79.396567 
L 656.5623 77.954988 
L 656.945729 83.826971 
L 657.329159 84.381715 
L 658.862878 94.982229 
L 659.246308 96.272858 
L 659.629738 95.091669 
L 660.013168 98.63901 
L 661.163457 98.786187 
L 661.546887 100.559858 
L 661.930317 101.665572 
L 662.313747 97.714437 
L 662.697176 89.812167 
L 663.847466 91.031094 
L 664.230896 100.929688 
L 664.614325 101.148566 
L 665.381185 121.832589 
L 666.531474 127.48192 
L 666.914904 119.541912 
L 667.298334 127.297005 
L 667.681764 120.836314 
L 668.065194 130.768871 
L 669.215483 123.640224 
L 669.598913 116.439874 
L 669.982343 127.444182 
L 670.365772 129.62542 
L 670.749202 125.244075 
L 671.899492 120.86273 
L 672.282921 120.270249 
L 672.666351 112.805736 
L 673.049781 110.318823 
L 673.433211 103.412827 
L 674.5835 100.333432 
L 674.96693 104.899692 
L 675.35036 103.341125 
L 675.73379 102.74487 
L 677.267509 100.740999 
L 677.650939 98.216348 
L 678.034368 99.85039 
L 678.417798 95.246393 
L 678.801228 95.801137 
L 679.951517 93.053834 
L 680.334947 92.831181 
L 680.718377 92.868919 
L 681.101807 96.804959 
L 681.485237 96.472868 
L 682.635526 95.321868 
L 683.402385 109.911256 
L 683.785815 100.073042 
L 684.169245 94.616174 
L 685.319534 94.948265 
L 685.702964 103.710955 
L 686.469824 113.549168 
L 686.853254 104.639302 
L 688.003543 104.378912 
L 688.386973 106.643172 
L 688.770403 107.163952 
L 689.153832 110.020695 
L 689.537262 110.469773 
L 690.687552 107.869647 
L 691.070981 114.885082 
L 691.454411 108.016824 
L 691.837841 105.122344 
L 692.221271 105.714826 
L 693.37156 105.160082 
L 694.52185 117.18708 
L 694.905279 112.881211 
L 696.438999 113.918997 
L 696.822428 116.92669 
L 697.205858 112.545346 
L 697.589288 102.114651 
L 698.739577 104.080784 
L 699.123007 100.627786 
L 699.506437 95.906802 
L 699.889867 95.272809 
L 700.273297 95.982278 
L 701.423586 94.042561 
L 701.807016 89.306482 
L 702.190446 91.023547 
L 702.573875 83.789233 
L 702.957305 84.796829 
L 704.874454 90.79712 
L 705.257884 92.85005 
L 705.641314 96.540795 
L 706.791603 94.004823 
L 707.175033 89.234781 
L 707.558463 89.755561 
L 708.325322 80.324914 
L 709.475612 78.08707 
L 710.242471 81.068347 
L 710.625901 87.332801 
L 711.009331 86.623333 
L 712.15962 82.747673 
L 712.54305 76.483218 
L 713.30991 71.452786 
L 713.693339 75.664311 
L 714.843629 75.290708 
L 715.610488 67.984693 
L 715.993918 64.667551 
L 716.377348 63.025962 
L 717.527637 60.489989 
L 717.911067 60.788117 
L 718.294497 58.961613 
L 718.677927 64.105259 
L 719.061357 61.497586 
L 720.211646 59.595606 
L 720.595076 61.648536 
L 720.978506 66.716707 
L 721.745365 70.890494 
L 722.895655 65.486458 
L 723.279084 68.169607 
L 723.662514 69.996111 
L 724.045944 70.743317 
L 724.429374 69.06399 
L 725.579663 69.475331 
L 725.963093 77.453077 
L 726.346523 81.517425 
L 726.729953 84.238312 
L 727.113382 83.192978 
L 728.263672 84.049623 
L 728.647102 86.808248 
L 729.030531 82.747673 
L 729.413961 87.966794 
L 729.797391 84.460964 
L 730.94768 80.958907 
L 731.33111 75.403921 
L 731.71454 73.837807 
L 732.09797 76.037914 
L 732.4814 72.792473 
L 734.398549 81.589127 
L 734.781978 82.000467 
L 735.165408 81.366474 
L 736.315698 79.951311 
L 736.699127 79.166367 
L 737.082557 80.732481 
L 737.465987 74.022722 
L 737.849417 78.422935 
L 738.999706 78.943715 
L 739.383136 80.434353 
L 739.766566 82.672198 
L 740.149996 91.321674 
L 740.533425 93.819909 
L 741.683715 92.140582 
L 742.067144 99.435276 
L 742.450574 99.322062 
L 742.834004 96.431356 
L 743.217434 99.095636 
L 744.367723 105.473304 
L 744.751153 111.552845 
L 745.134583 110.503737 
L 745.518013 111.703795 
L 745.901442 107.537555 
L 747.051732 103.186401 
L 747.435162 98.872984 
L 747.818591 99.3598 
L 748.202021 105.212914 
L 748.585451 105.28839 
L 750.11917 96.733258 
L 750.88603 109.903708 
L 751.26946 115.719085 
L 752.419749 120.070239 
L 752.803179 116.617241 
L 753.186609 121.38351 
L 753.570038 122.021277 
L 753.953468 129.599003 
L 755.103758 124.345918 
L 755.487187 119.356997 
L 755.870617 116.692717 
L 756.254047 105.661993 
L 756.637477 99.057899 
L 757.787766 101.797654 
L 758.171196 104.386459 
L 758.554626 106.111071 
L 758.938056 110.613176 
L 759.321485 104.835538 
L 760.471775 105.061964 
L 760.855205 92.642493 
L 761.238634 89.566872 
L 761.622064 91.480173 
L 762.005494 88.517765 
L 763.155783 86.453513 
L 763.539213 87.242231 
L 763.922643 84.766639 
L 764.689503 82.777863 
L 766.223222 84.615688 
L 766.606652 82.887303 
L 767.373511 71.332025 
L 768.523801 71.14711 
L 768.90723 75.871868 
L 769.29066 77.071926 
L 769.67409 75.347314 
L 770.05752 72.947198 
L 771.207809 68.256404 
L 771.591239 68.331879 
L 772.358098 49.308315 
L 772.741528 53.210391 
L 773.891818 52.572624 
L 774.275247 47.021411 
L 774.658677 57.42569 
L 775.042107 51.161235 
L 775.425537 48.746023 
L 777.726116 43.387273 
L 778.109545 45.085468 
L 778.109545 45.085468 
" clip-path="url(#pd9e1f0e553)" style="fill: none; stroke: #1f77b4; stroke-width: 1.5; stroke-linecap: square"/>
   </g>
   <g id="patch_7">
    <path d="M 44.57 390.04 
L 44.57 26.88 
" style="fill: none; stroke: #000000; stroke-width: 0.8; stroke-linejoin: miter; stroke-linecap: square"/>
   </g>
   <g id="patch_8">
    <path d="M 813.04 390.04 
L 813.04 26.88 
" style="fill: none; stroke: #000000; stroke-width: 0.8; stroke-linejoin: miter; stroke-linecap: square"/>
   </g>
   <g id="patch_9">
    <path d="M 44.57 390.04 
L 813.04 390.04 
" style="fill: none; stroke: #000000; stroke-width: 0.8; stroke-linejoin: miter; stroke-linecap: square"/>
   </g>
   <g id="patch_10">
    <path d="M 44.57 26.88 
L 813.04 26.88 
" style="fill: none; stroke: #000000; stroke-width: 0.8; stroke-linejoin: miter; stroke-linecap: square"/>
   </g>
   <g id="text_21">
    <!-- Stock Trading Performance for IWD -->
    <g transform="translate(323.97 20.88) scale(0.12 -0.12)">
     <defs>
      <path id="DejaVuSans-53" d="M 3425 4513 
L 3425 3897 
Q 3066 4069 2747 4153 
Q 2428 4238 2131 4238 
Q 1616 4238 1336 4038 
Q 1056 3838 1056 3469 
Q 1056 3159 1242 3001 
Q 1428 2844 1947 2747 
L 2328 2669 
Q 3034 2534 3370 2195 
Q 3706 1856 3706 1288 
Q 3706 609 3251 259 
Q 2797 -91 1919 -91 
Q 1588 -91 1214 -16 
Q 841 59 441 206 
L 441 856 
Q 825 641 1194 531 
Q 1563 422 1919 422 
Q 2459 422 2753 634 
Q 3047 847 3047 1241 
Q 3047 1584 2836 1778 
Q 2625 1972 2144 2069 
L 1759 2144 
Q 1053 2284 737 2584 
Q 422 2884 422 3419 
Q 422 4038 858 4394 
Q 1294 4750 2059 4750 
Q 2388 4750 2728 4690 
Q 3069 4631 3425 4513 
z
" transform="scale(0.015625)"/>
      <path id="DejaVuSans-6b" d="M 581 4863 
L 1159 4863 
L 1159 1991 
L 2875 3500 
L 3609 3500 
L 1753 1863 
L 3688 0 
L 2938 0 
L 1159 1709 
L 1159 0 
L 581 0 
L 581 4863 
z
" transform="scale(0.015625)"/>
      <path id="DejaVuSans-54" d="M -19 4666 
L 3928 4666 
L 3928 4134 
L 2272 4134 
L 2272 0 
L 1638 0 
L 1638 4134 
L -19 4134 
L -19 4666 
z
" transform="scale(0.015625)"/>
      <path id="DejaVuSans-64" d="M 2906 2969 
L 2906 4863 
L 3481 4863 
L 3481 0 
L 2906 0 
L 2906 525 
Q 2725 213 2448 61 
Q 2172 -91 1784 -91 
Q 1150 -91 751 415 
Q 353 922 353 1747 
Q 353 2572 751 3078 
Q 1150 3584 1784 3584 
Q 2172 3584 2448 3432 
Q 2725 3281 2906 2969 
z
M 947 1747 
Q 947 1113 1208 752 
Q 1469 391 1925 391 
Q 2381 391 2643 752 
Q 2906 1113 2906 1747 
Q 2906 2381 2643 2742 
Q 2381 3103 1925 3103 
Q 1469 3103 1208 2742 
Q 947 2381 947 1747 
z
" transform="scale(0.015625)"/>
      <path id="DejaVuSans-67" d="M 2906 1791 
Q 2906 2416 2648 2759 
Q 2391 3103 1925 3103 
Q 1463 3103 1205 2759 
Q 947 2416 947 1791 
Q 947 1169 1205 825 
Q 1463 481 1925 481 
Q 2391 481 2648 825 
Q 2906 1169 2906 1791 
z
M 3481 434 
Q 3481 -459 3084 -895 
Q 2688 -1331 1869 -1331 
Q 1566 -1331 1297 -1286 
Q 1028 -1241 775 -1147 
L 775 -588 
Q 1028 -725 1275 -790 
Q 1522 -856 1778 -856 
Q 2344 -856 2625 -561 
Q 2906 -266 2906 331 
L 2906 616 
Q 2728 306 2450 153 
Q 2172 0 1784 0 
Q 1141 0 747 490 
Q 353 981 353 1791 
Q 353 2603 747 3093 
Q 1141 3584 1784 3584 
Q 2172 3584 2450 3431 
Q 2728 3278 2906 2969 
L 2906 3500 
L 3481 3500 
L 3481 434 
z
" transform="scale(0.015625)"/>
      <path id="DejaVuSans-66" d="M 2375 4863 
L 2375 4384 
L 1825 4384 
Q 1516 4384 1395 4259 
Q 1275 4134 1275 3809 
L 1275 3500 
L 2222 3500 
L 2222 3053 
L 1275 3053 
L 1275 0 
L 697 0 
L 697 3053 
L 147 3053 
L 147 3500 
L 697 3500 
L 697 3744 
Q 697 4328 969 4595 
Q 1241 4863 1831 4863 
L 2375 4863 
z
" transform="scale(0.015625)"/>
      <path id="DejaVuSans-6d" d="M 3328 2828 
Q 3544 3216 3844 3400 
Q 4144 3584 4550 3584 
Q 5097 3584 5394 3201 
Q 5691 2819 5691 2113 
L 5691 0 
L 5113 0 
L 5113 2094 
Q 5113 2597 4934 2840 
Q 4756 3084 4391 3084 
Q 3944 3084 3684 2787 
Q 3425 2491 3425 1978 
L 3425 0 
L 2847 0 
L 2847 2094 
Q 2847 2600 2669 2842 
Q 2491 3084 2119 3084 
Q 1678 3084 1418 2786 
Q 1159 2488 1159 1978 
L 1159 0 
L 581 0 
L 581 3500 
L 1159 3500 
L 1159 2956 
Q 1356 3278 1631 3431 
Q 1906 3584 2284 3584 
Q 2666 3584 2933 3390 
Q 3200 3197 3328 2828 
z
" transform="scale(0.015625)"/>
      <path id="DejaVuSans-49" d="M 628 4666 
L 1259 4666 
L 1259 0 
L 628 0 
L 628 4666 
z
" transform="scale(0.015625)"/>
      <path id="DejaVuSans-57" d="M 213 4666 
L 850 4666 
L 1831 722 
L 2809 4666 
L 3519 4666 
L 4500 722 
L 5478 4666 
L 6119 4666 
L 4947 0 
L 4153 0 
L 3169 4050 
L 2175 0 
L 1381 0 
L 213 4666 
z
" transform="scale(0.015625)"/>
     </defs>
     <use xlink:href="#DejaVuSans-53"/>
     <use xlink:href="#DejaVuSans-74" x="63.476562"/>
     <use xlink:href="#DejaVuSans-6f" x="102.685547"/>
     <use xlink:href="#DejaVuSans-63" x="163.867188"/>
     <use xlink:href="#DejaVuSans-6b" x="218.847656"/>
     <use xlink:href="#DejaVuSans-20" x="276.757812"/>
     <use xlink:href="#DejaVuSans-54" x="308.544922"/>
     <use xlink:href="#DejaVuSans-72" x="354.878906"/>
     <use xlink:href="#DejaVuSans-61" x="395.992188"/>
     <use xlink:href="#DejaVuSans-64" x="457.271484"/>
     <use xlink:href="#DejaVuSans-69" x="520.748047"/>
     <use xlink:href="#DejaVuSans-6e" x="548.53125"/>
     <use xlink:href="#DejaVuSans-67" x="611.910156"/>
     <use xlink:href="#DejaVuSans-20" x="675.386719"/>
     <use xlink:href="#DejaVuSans-50" x="707.173828"/>
     <use xlink:href="#DejaVuSans-65" x="763.851562"/>
     <use xlink:href="#DejaVuSans-72" x="825.375"/>
     <use xlink:href="#DejaVuSans-66" x="866.488281"/>
     <use xlink:href="#DejaVuSans-6f" x="901.693359"/>
     <use xlink:href="#DejaVuSans-72" x="962.875"/>
     <use xlink:href="#DejaVuSans-6d" x="1002.238281"/>
     <use xlink:href="#DejaVuSans-61" x="1099.650391"/>
     <use xlink:href="#DejaVuSans-6e" x="1160.929688"/>
     <use xlink:href="#DejaVuSans-63" x="1224.308594"/>
     <use xlink:href="#DejaVuSans-65" x="1279.289062"/>
     <use xlink:href="#DejaVuSans-20" x="1340.8125"/>
     <use xlink:href="#DejaVuSans-66" x="1372.599609"/>
     <use xlink:href="#DejaVuSans-6f" x="1407.804688"/>
     <use xlink:href="#DejaVuSans-72" x="1468.986328"/>
     <use xlink:href="#DejaVuSans-20" x="1510.099609"/>
     <use xlink:href="#DejaVuSans-49" x="1541.886719"/>
     <use xlink:href="#DejaVuSans-57" x="1571.378906"/>
     <use xlink:href="#DejaVuSans-44" x="1670.255859"/>
    </g>
   </g>
  </g>
 </g>
 <defs>
  <clipPath id="pd9e1f0e553">
   <rect x="44.57" y="26.88" width="768.47" height="363.16"/>
  </clipPath>
 </defs>
</svg>
