<?xml version="1.0" encoding="utf-8" standalone="no"?>
<!DOCTYPE svg PUBLIC "-//W3C//DTD SVG 1.1//EN"
  "http://www.w3.org/Graphics/SVG/1.1/DTD/svg11.dtd">
<svg xmlns:xlink="http://www.w3.org/1999/xlink" width="864pt" height="432pt" viewBox="0 0 864 432" xmlns="http://www.w3.org/2000/svg" version="1.1">
 <metadata>
  <rdf:RDF xmlns:dc="http://purl.org/dc/elements/1.1/" xmlns:cc="http://creativecommons.org/ns#" xmlns:rdf="http://www.w3.org/1999/02/22-rdf-syntax-ns#">
   <cc:Work>
    <dc:type rdf:resource="http://purl.org/dc/dcmitype/StillImage"/>
    <dc:date>2024-04-16T14:18:46.165413</dc:date>
    <dc:format>image/svg+xml</dc:format>
    <dc:creator>
     <cc:Agent>
      <dc:title>Matplotlib v3.8.2, https://matplotlib.org/</dc:title>
     </cc:Agent>
    </dc:creator>
   </cc:Work>
  </rdf:RDF>
 </metadata>
 <defs>
  <style type="text/css">*{stroke-linejoin: round; stroke-linecap: butt}</style>
 </defs>
 <g id="figure_1">
  <g id="patch_1">
   <path d="M 0 432 
L 864 432 
L 864 0 
L 0 0 
z
" style="fill: #ffffff"/>
  </g>
  <g id="axes_1">
   <g id="patch_2">
    <path d="M 59.24 390.04 
L 813.04 390.04 
L 813.04 26.88 
L 59.24 26.88 
z
" style="fill: #ffffff"/>
   </g>
   <g id="matplotlib.axis_1">
    <g id="xtick_1">
     <g id="line2d_1">
      <path d="M 93.127526 390.04 
L 93.127526 26.88 
" clip-path="url(#p02b4be1ee7)" style="fill: none; stroke-dasharray: 1.85,0.8; stroke-dashoffset: 0; stroke: #b0b0b0; stroke-opacity: 0.5; stroke-width: 0.5"/>
     </g>
     <g id="line2d_2">
      <defs>
       <path id="m91d324277c" d="M 0 0 
L 0 3.5 
" style="stroke: #000000; stroke-width: 0.8"/>
      </defs>
      <g>
       <use xlink:href="#m91d324277c" x="93.127526" y="390.04" style="stroke: #000000; stroke-width: 0.8"/>
      </g>
     </g>
     <g id="text_1">
      <!-- 2019 -->
      <g transform="translate(80.402526 404.638438) scale(0.1 -0.1)">
       <defs>
        <path id="DejaVuSans-32" d="M 1228 531 
L 3431 531 
L 3431 0 
L 469 0 
L 469 531 
Q 828 903 1448 1529 
Q 2069 2156 2228 2338 
Q 2531 2678 2651 2914 
Q 2772 3150 2772 3378 
Q 2772 3750 2511 3984 
Q 2250 4219 1831 4219 
Q 1534 4219 1204 4116 
Q 875 4013 500 3803 
L 500 4441 
Q 881 4594 1212 4672 
Q 1544 4750 1819 4750 
Q 2544 4750 2975 4387 
Q 3406 4025 3406 3419 
Q 3406 3131 3298 2873 
Q 3191 2616 2906 2266 
Q 2828 2175 2409 1742 
Q 1991 1309 1228 531 
z
" transform="scale(0.015625)"/>
        <path id="DejaVuSans-30" d="M 2034 4250 
Q 1547 4250 1301 3770 
Q 1056 3291 1056 2328 
Q 1056 1369 1301 889 
Q 1547 409 2034 409 
Q 2525 409 2770 889 
Q 3016 1369 3016 2328 
Q 3016 3291 2770 3770 
Q 2525 4250 2034 4250 
z
M 2034 4750 
Q 2819 4750 3233 4129 
Q 3647 3509 3647 2328 
Q 3647 1150 3233 529 
Q 2819 -91 2034 -91 
Q 1250 -91 836 529 
Q 422 1150 422 2328 
Q 422 3509 836 4129 
Q 1250 4750 2034 4750 
z
" transform="scale(0.015625)"/>
        <path id="DejaVuSans-31" d="M 794 531 
L 1825 531 
L 1825 4091 
L 703 3866 
L 703 4441 
L 1819 4666 
L 2450 4666 
L 2450 531 
L 3481 531 
L 3481 0 
L 794 0 
L 794 531 
z
" transform="scale(0.015625)"/>
        <path id="DejaVuSans-39" d="M 703 97 
L 703 672 
Q 941 559 1184 500 
Q 1428 441 1663 441 
Q 2288 441 2617 861 
Q 2947 1281 2994 2138 
Q 2813 1869 2534 1725 
Q 2256 1581 1919 1581 
Q 1219 1581 811 2004 
Q 403 2428 403 3163 
Q 403 3881 828 4315 
Q 1253 4750 1959 4750 
Q 2769 4750 3195 4129 
Q 3622 3509 3622 2328 
Q 3622 1225 3098 567 
Q 2575 -91 1691 -91 
Q 1453 -91 1209 -44 
Q 966 3 703 97 
z
M 1959 2075 
Q 2384 2075 2632 2365 
Q 2881 2656 2881 3163 
Q 2881 3666 2632 3958 
Q 2384 4250 1959 4250 
Q 1534 4250 1286 3958 
Q 1038 3666 1038 3163 
Q 1038 2656 1286 2365 
Q 1534 2075 1959 2075 
z
" transform="scale(0.015625)"/>
       </defs>
       <use xlink:href="#DejaVuSans-32"/>
       <use xlink:href="#DejaVuSans-30" x="63.623047"/>
       <use xlink:href="#DejaVuSans-31" x="127.246094"/>
       <use xlink:href="#DejaVuSans-39" x="190.869141"/>
      </g>
     </g>
    </g>
    <g id="xtick_2">
     <g id="line2d_3">
      <path d="M 230.407738 390.04 
L 230.407738 26.88 
" clip-path="url(#p02b4be1ee7)" style="fill: none; stroke-dasharray: 1.85,0.8; stroke-dashoffset: 0; stroke: #b0b0b0; stroke-opacity: 0.5; stroke-width: 0.5"/>
     </g>
     <g id="line2d_4">
      <g>
       <use xlink:href="#m91d324277c" x="230.407738" y="390.04" style="stroke: #000000; stroke-width: 0.8"/>
      </g>
     </g>
     <g id="text_2">
      <!-- 2020 -->
      <g transform="translate(217.682738 404.638438) scale(0.1 -0.1)">
       <use xlink:href="#DejaVuSans-32"/>
       <use xlink:href="#DejaVuSans-30" x="63.623047"/>
       <use xlink:href="#DejaVuSans-32" x="127.246094"/>
       <use xlink:href="#DejaVuSans-30" x="190.869141"/>
      </g>
     </g>
    </g>
    <g id="xtick_3">
     <g id="line2d_5">
      <path d="M 368.064059 390.04 
L 368.064059 26.88 
" clip-path="url(#p02b4be1ee7)" style="fill: none; stroke-dasharray: 1.85,0.8; stroke-dashoffset: 0; stroke: #b0b0b0; stroke-opacity: 0.5; stroke-width: 0.5"/>
     </g>
     <g id="line2d_6">
      <g>
       <use xlink:href="#m91d324277c" x="368.064059" y="390.04" style="stroke: #000000; stroke-width: 0.8"/>
      </g>
     </g>
     <g id="text_3">
      <!-- 2021 -->
      <g transform="translate(355.339059 404.638438) scale(0.1 -0.1)">
       <use xlink:href="#DejaVuSans-32"/>
       <use xlink:href="#DejaVuSans-30" x="63.623047"/>
       <use xlink:href="#DejaVuSans-32" x="127.246094"/>
       <use xlink:href="#DejaVuSans-31" x="190.869141"/>
      </g>
     </g>
    </g>
    <g id="xtick_4">
     <g id="line2d_7">
      <path d="M 505.344271 390.04 
L 505.344271 26.88 
" clip-path="url(#p02b4be1ee7)" style="fill: none; stroke-dasharray: 1.85,0.8; stroke-dashoffset: 0; stroke: #b0b0b0; stroke-opacity: 0.5; stroke-width: 0.5"/>
     </g>
     <g id="line2d_8">
      <g>
       <use xlink:href="#m91d324277c" x="505.344271" y="390.04" style="stroke: #000000; stroke-width: 0.8"/>
      </g>
     </g>
     <g id="text_4">
      <!-- 2022 -->
      <g transform="translate(492.619271 404.638438) scale(0.1 -0.1)">
       <use xlink:href="#DejaVuSans-32"/>
       <use xlink:href="#DejaVuSans-30" x="63.623047"/>
       <use xlink:href="#DejaVuSans-32" x="127.246094"/>
       <use xlink:href="#DejaVuSans-32" x="190.869141"/>
      </g>
     </g>
    </g>
    <g id="xtick_5">
     <g id="line2d_9">
      <path d="M 642.624483 390.04 
L 642.624483 26.88 
" clip-path="url(#p02b4be1ee7)" style="fill: none; stroke-dasharray: 1.85,0.8; stroke-dashoffset: 0; stroke: #b0b0b0; stroke-opacity: 0.5; stroke-width: 0.5"/>
     </g>
     <g id="line2d_10">
      <g>
       <use xlink:href="#m91d324277c" x="642.624483" y="390.04" style="stroke: #000000; stroke-width: 0.8"/>
      </g>
     </g>
     <g id="text_5">
      <!-- 2023 -->
      <g transform="translate(629.899483 404.638438) scale(0.1 -0.1)">
       <defs>
        <path id="DejaVuSans-33" d="M 2597 2516 
Q 3050 2419 3304 2112 
Q 3559 1806 3559 1356 
Q 3559 666 3084 287 
Q 2609 -91 1734 -91 
Q 1441 -91 1130 -33 
Q 819 25 488 141 
L 488 750 
Q 750 597 1062 519 
Q 1375 441 1716 441 
Q 2309 441 2620 675 
Q 2931 909 2931 1356 
Q 2931 1769 2642 2001 
Q 2353 2234 1838 2234 
L 1294 2234 
L 1294 2753 
L 1863 2753 
Q 2328 2753 2575 2939 
Q 2822 3125 2822 3475 
Q 2822 3834 2567 4026 
Q 2313 4219 1838 4219 
Q 1578 4219 1281 4162 
Q 984 4106 628 3988 
L 628 4550 
Q 988 4650 1302 4700 
Q 1616 4750 1894 4750 
Q 2613 4750 3031 4423 
Q 3450 4097 3450 3541 
Q 3450 3153 3228 2886 
Q 3006 2619 2597 2516 
z
" transform="scale(0.015625)"/>
       </defs>
       <use xlink:href="#DejaVuSans-32"/>
       <use xlink:href="#DejaVuSans-30" x="63.623047"/>
       <use xlink:href="#DejaVuSans-32" x="127.246094"/>
       <use xlink:href="#DejaVuSans-33" x="190.869141"/>
      </g>
     </g>
    </g>
    <g id="xtick_6">
     <g id="line2d_11">
      <path d="M 779.904694 390.04 
L 779.904694 26.88 
" clip-path="url(#p02b4be1ee7)" style="fill: none; stroke-dasharray: 1.85,0.8; stroke-dashoffset: 0; stroke: #b0b0b0; stroke-opacity: 0.5; stroke-width: 0.5"/>
     </g>
     <g id="line2d_12">
      <g>
       <use xlink:href="#m91d324277c" x="779.904694" y="390.04" style="stroke: #000000; stroke-width: 0.8"/>
      </g>
     </g>
     <g id="text_6">
      <!-- 2024 -->
      <g transform="translate(767.179694 404.638438) scale(0.1 -0.1)">
       <defs>
        <path id="DejaVuSans-34" d="M 2419 4116 
L 825 1625 
L 2419 1625 
L 2419 4116 
z
M 2253 4666 
L 3047 4666 
L 3047 1625 
L 3713 1625 
L 3713 1100 
L 3047 1100 
L 3047 0 
L 2419 0 
L 2419 1100 
L 313 1100 
L 313 1709 
L 2253 4666 
z
" transform="scale(0.015625)"/>
       </defs>
       <use xlink:href="#DejaVuSans-32"/>
       <use xlink:href="#DejaVuSans-30" x="63.623047"/>
       <use xlink:href="#DejaVuSans-32" x="127.246094"/>
       <use xlink:href="#DejaVuSans-34" x="190.869141"/>
      </g>
     </g>
    </g>
    <g id="text_7">
     <!-- Date -->
     <g transform="translate(424.189219 418.316562) scale(0.1 -0.1)">
      <defs>
       <path id="DejaVuSans-44" d="M 1259 4147 
L 1259 519 
L 2022 519 
Q 2988 519 3436 956 
Q 3884 1394 3884 2338 
Q 3884 3275 3436 3711 
Q 2988 4147 2022 4147 
L 1259 4147 
z
M 628 4666 
L 1925 4666 
Q 3281 4666 3915 4102 
Q 4550 3538 4550 2338 
Q 4550 1131 3912 565 
Q 3275 0 1925 0 
L 628 0 
L 628 4666 
z
" transform="scale(0.015625)"/>
       <path id="DejaVuSans-61" d="M 2194 1759 
Q 1497 1759 1228 1600 
Q 959 1441 959 1056 
Q 959 750 1161 570 
Q 1363 391 1709 391 
Q 2188 391 2477 730 
Q 2766 1069 2766 1631 
L 2766 1759 
L 2194 1759 
z
M 3341 1997 
L 3341 0 
L 2766 0 
L 2766 531 
Q 2569 213 2275 61 
Q 1981 -91 1556 -91 
Q 1019 -91 701 211 
Q 384 513 384 1019 
Q 384 1609 779 1909 
Q 1175 2209 1959 2209 
L 2766 2209 
L 2766 2266 
Q 2766 2663 2505 2880 
Q 2244 3097 1772 3097 
Q 1472 3097 1187 3025 
Q 903 2953 641 2809 
L 641 3341 
Q 956 3463 1253 3523 
Q 1550 3584 1831 3584 
Q 2591 3584 2966 3190 
Q 3341 2797 3341 1997 
z
" transform="scale(0.015625)"/>
       <path id="DejaVuSans-74" d="M 1172 4494 
L 1172 3500 
L 2356 3500 
L 2356 3053 
L 1172 3053 
L 1172 1153 
Q 1172 725 1289 603 
Q 1406 481 1766 481 
L 2356 481 
L 2356 0 
L 1766 0 
Q 1100 0 847 248 
Q 594 497 594 1153 
L 594 3053 
L 172 3053 
L 172 3500 
L 594 3500 
L 594 4494 
L 1172 4494 
z
" transform="scale(0.015625)"/>
       <path id="DejaVuSans-65" d="M 3597 1894 
L 3597 1613 
L 953 1613 
Q 991 1019 1311 708 
Q 1631 397 2203 397 
Q 2534 397 2845 478 
Q 3156 559 3463 722 
L 3463 178 
Q 3153 47 2828 -22 
Q 2503 -91 2169 -91 
Q 1331 -91 842 396 
Q 353 884 353 1716 
Q 353 2575 817 3079 
Q 1281 3584 2069 3584 
Q 2775 3584 3186 3129 
Q 3597 2675 3597 1894 
z
M 3022 2063 
Q 3016 2534 2758 2815 
Q 2500 3097 2075 3097 
Q 1594 3097 1305 2825 
Q 1016 2553 972 2059 
L 3022 2063 
z
" transform="scale(0.015625)"/>
      </defs>
      <use xlink:href="#DejaVuSans-44"/>
      <use xlink:href="#DejaVuSans-61" x="77.001953"/>
      <use xlink:href="#DejaVuSans-74" x="138.28125"/>
      <use xlink:href="#DejaVuSans-65" x="177.490234"/>
     </g>
    </g>
   </g>
   <g id="matplotlib.axis_2">
    <g id="ytick_1">
     <g id="line2d_13">
      <path d="M 59.24 373.563544 
L 813.04 373.563544 
" clip-path="url(#p02b4be1ee7)" style="fill: none; stroke-dasharray: 1.85,0.8; stroke-dashoffset: 0; stroke: #b0b0b0; stroke-opacity: 0.5; stroke-width: 0.5"/>
     </g>
     <g id="line2d_14">
      <defs>
       <path id="md39a1db3d3" d="M 0 0 
L -3.5 0 
" style="stroke: #000000; stroke-width: 0.8"/>
      </defs>
      <g>
       <use xlink:href="#md39a1db3d3" x="59.24" y="373.563544" style="stroke: #000000; stroke-width: 0.8"/>
      </g>
     </g>
     <g id="text_8">
      <!-- −100 -->
      <g style="fill: #d62728" transform="translate(24.772813 377.362763) scale(0.1 -0.1)">
       <defs>
        <path id="DejaVuSans-2212" d="M 678 2272 
L 4684 2272 
L 4684 1741 
L 678 1741 
L 678 2272 
z
" transform="scale(0.015625)"/>
       </defs>
       <use xlink:href="#DejaVuSans-2212"/>
       <use xlink:href="#DejaVuSans-31" x="83.789062"/>
       <use xlink:href="#DejaVuSans-30" x="147.412109"/>
       <use xlink:href="#DejaVuSans-30" x="211.035156"/>
      </g>
     </g>
    </g>
    <g id="ytick_2">
     <g id="line2d_15">
      <path d="M 59.24 331.051083 
L 813.04 331.051083 
" clip-path="url(#p02b4be1ee7)" style="fill: none; stroke-dasharray: 1.85,0.8; stroke-dashoffset: 0; stroke: #b0b0b0; stroke-opacity: 0.5; stroke-width: 0.5"/>
     </g>
     <g id="line2d_16">
      <g>
       <use xlink:href="#md39a1db3d3" x="59.24" y="331.051083" style="stroke: #000000; stroke-width: 0.8"/>
      </g>
     </g>
     <g id="text_9">
      <!-- −80 -->
      <g style="fill: #d62728" transform="translate(31.135313 334.850301) scale(0.1 -0.1)">
       <defs>
        <path id="DejaVuSans-38" d="M 2034 2216 
Q 1584 2216 1326 1975 
Q 1069 1734 1069 1313 
Q 1069 891 1326 650 
Q 1584 409 2034 409 
Q 2484 409 2743 651 
Q 3003 894 3003 1313 
Q 3003 1734 2745 1975 
Q 2488 2216 2034 2216 
z
M 1403 2484 
Q 997 2584 770 2862 
Q 544 3141 544 3541 
Q 544 4100 942 4425 
Q 1341 4750 2034 4750 
Q 2731 4750 3128 4425 
Q 3525 4100 3525 3541 
Q 3525 3141 3298 2862 
Q 3072 2584 2669 2484 
Q 3125 2378 3379 2068 
Q 3634 1759 3634 1313 
Q 3634 634 3220 271 
Q 2806 -91 2034 -91 
Q 1263 -91 848 271 
Q 434 634 434 1313 
Q 434 1759 690 2068 
Q 947 2378 1403 2484 
z
M 1172 3481 
Q 1172 3119 1398 2916 
Q 1625 2713 2034 2713 
Q 2441 2713 2670 2916 
Q 2900 3119 2900 3481 
Q 2900 3844 2670 4047 
Q 2441 4250 2034 4250 
Q 1625 4250 1398 4047 
Q 1172 3844 1172 3481 
z
" transform="scale(0.015625)"/>
       </defs>
       <use xlink:href="#DejaVuSans-2212"/>
       <use xlink:href="#DejaVuSans-38" x="83.789062"/>
       <use xlink:href="#DejaVuSans-30" x="147.412109"/>
      </g>
     </g>
    </g>
    <g id="ytick_3">
     <g id="line2d_17">
      <path d="M 59.24 288.538621 
L 813.04 288.538621 
" clip-path="url(#p02b4be1ee7)" style="fill: none; stroke-dasharray: 1.85,0.8; stroke-dashoffset: 0; stroke: #b0b0b0; stroke-opacity: 0.5; stroke-width: 0.5"/>
     </g>
     <g id="line2d_18">
      <g>
       <use xlink:href="#md39a1db3d3" x="59.24" y="288.538621" style="stroke: #000000; stroke-width: 0.8"/>
      </g>
     </g>
     <g id="text_10">
      <!-- −60 -->
      <g style="fill: #d62728" transform="translate(31.135313 292.33784) scale(0.1 -0.1)">
       <defs>
        <path id="DejaVuSans-36" d="M 2113 2584 
Q 1688 2584 1439 2293 
Q 1191 2003 1191 1497 
Q 1191 994 1439 701 
Q 1688 409 2113 409 
Q 2538 409 2786 701 
Q 3034 994 3034 1497 
Q 3034 2003 2786 2293 
Q 2538 2584 2113 2584 
z
M 3366 4563 
L 3366 3988 
Q 3128 4100 2886 4159 
Q 2644 4219 2406 4219 
Q 1781 4219 1451 3797 
Q 1122 3375 1075 2522 
Q 1259 2794 1537 2939 
Q 1816 3084 2150 3084 
Q 2853 3084 3261 2657 
Q 3669 2231 3669 1497 
Q 3669 778 3244 343 
Q 2819 -91 2113 -91 
Q 1303 -91 875 529 
Q 447 1150 447 2328 
Q 447 3434 972 4092 
Q 1497 4750 2381 4750 
Q 2619 4750 2861 4703 
Q 3103 4656 3366 4563 
z
" transform="scale(0.015625)"/>
       </defs>
       <use xlink:href="#DejaVuSans-2212"/>
       <use xlink:href="#DejaVuSans-36" x="83.789062"/>
       <use xlink:href="#DejaVuSans-30" x="147.412109"/>
      </g>
     </g>
    </g>
    <g id="ytick_4">
     <g id="line2d_19">
      <path d="M 59.24 246.02616 
L 813.04 246.02616 
" clip-path="url(#p02b4be1ee7)" style="fill: none; stroke-dasharray: 1.85,0.8; stroke-dashoffset: 0; stroke: #b0b0b0; stroke-opacity: 0.5; stroke-width: 0.5"/>
     </g>
     <g id="line2d_20">
      <g>
       <use xlink:href="#md39a1db3d3" x="59.24" y="246.02616" style="stroke: #000000; stroke-width: 0.8"/>
      </g>
     </g>
     <g id="text_11">
      <!-- −40 -->
      <g style="fill: #d62728" transform="translate(31.135313 249.825379) scale(0.1 -0.1)">
       <use xlink:href="#DejaVuSans-2212"/>
       <use xlink:href="#DejaVuSans-34" x="83.789062"/>
       <use xlink:href="#DejaVuSans-30" x="147.412109"/>
      </g>
     </g>
    </g>
    <g id="ytick_5">
     <g id="line2d_21">
      <path d="M 59.24 203.513699 
L 813.04 203.513699 
" clip-path="url(#p02b4be1ee7)" style="fill: none; stroke-dasharray: 1.85,0.8; stroke-dashoffset: 0; stroke: #b0b0b0; stroke-opacity: 0.5; stroke-width: 0.5"/>
     </g>
     <g id="line2d_22">
      <g>
       <use xlink:href="#md39a1db3d3" x="59.24" y="203.513699" style="stroke: #000000; stroke-width: 0.8"/>
      </g>
     </g>
     <g id="text_12">
      <!-- −20 -->
      <g style="fill: #d62728" transform="translate(31.135313 207.312917) scale(0.1 -0.1)">
       <use xlink:href="#DejaVuSans-2212"/>
       <use xlink:href="#DejaVuSans-32" x="83.789062"/>
       <use xlink:href="#DejaVuSans-30" x="147.412109"/>
      </g>
     </g>
    </g>
    <g id="ytick_6">
     <g id="line2d_23">
      <path d="M 59.24 161.001237 
L 813.04 161.001237 
" clip-path="url(#p02b4be1ee7)" style="fill: none; stroke-dasharray: 1.85,0.8; stroke-dashoffset: 0; stroke: #b0b0b0; stroke-opacity: 0.5; stroke-width: 0.5"/>
     </g>
     <g id="line2d_24">
      <g>
       <use xlink:href="#md39a1db3d3" x="59.24" y="161.001237" style="stroke: #000000; stroke-width: 0.8"/>
      </g>
     </g>
     <g id="text_13">
      <!-- 0 -->
      <g style="fill: #d62728" transform="translate(45.8775 164.800456) scale(0.1 -0.1)">
       <use xlink:href="#DejaVuSans-30"/>
      </g>
     </g>
    </g>
    <g id="ytick_7">
     <g id="line2d_25">
      <path d="M 59.24 118.488776 
L 813.04 118.488776 
" clip-path="url(#p02b4be1ee7)" style="fill: none; stroke-dasharray: 1.85,0.8; stroke-dashoffset: 0; stroke: #b0b0b0; stroke-opacity: 0.5; stroke-width: 0.5"/>
     </g>
     <g id="line2d_26">
      <g>
       <use xlink:href="#md39a1db3d3" x="59.24" y="118.488776" style="stroke: #000000; stroke-width: 0.8"/>
      </g>
     </g>
     <g id="text_14">
      <!-- 20 -->
      <g style="fill: #d62728" transform="translate(39.515 122.287995) scale(0.1 -0.1)">
       <use xlink:href="#DejaVuSans-32"/>
       <use xlink:href="#DejaVuSans-30" x="63.623047"/>
      </g>
     </g>
    </g>
    <g id="ytick_8">
     <g id="line2d_27">
      <path d="M 59.24 75.976314 
L 813.04 75.976314 
" clip-path="url(#p02b4be1ee7)" style="fill: none; stroke-dasharray: 1.85,0.8; stroke-dashoffset: 0; stroke: #b0b0b0; stroke-opacity: 0.5; stroke-width: 0.5"/>
     </g>
     <g id="line2d_28">
      <g>
       <use xlink:href="#md39a1db3d3" x="59.24" y="75.976314" style="stroke: #000000; stroke-width: 0.8"/>
      </g>
     </g>
     <g id="text_15">
      <!-- 40 -->
      <g style="fill: #d62728" transform="translate(39.515 79.775533) scale(0.1 -0.1)">
       <use xlink:href="#DejaVuSans-34"/>
       <use xlink:href="#DejaVuSans-30" x="63.623047"/>
      </g>
     </g>
    </g>
    <g id="ytick_9">
     <g id="line2d_29">
      <path d="M 59.24 33.463853 
L 813.04 33.463853 
" clip-path="url(#p02b4be1ee7)" style="fill: none; stroke-dasharray: 1.85,0.8; stroke-dashoffset: 0; stroke: #b0b0b0; stroke-opacity: 0.5; stroke-width: 0.5"/>
     </g>
     <g id="line2d_30">
      <g>
       <use xlink:href="#md39a1db3d3" x="59.24" y="33.463853" style="stroke: #000000; stroke-width: 0.8"/>
      </g>
     </g>
     <g id="text_16">
      <!-- 60 -->
      <g style="fill: #d62728" transform="translate(39.515 37.263072) scale(0.1 -0.1)">
       <use xlink:href="#DejaVuSans-36"/>
       <use xlink:href="#DejaVuSans-30" x="63.623047"/>
      </g>
     </g>
    </g>
    <g id="text_17">
     <!-- Returns (%) -->
     <g style="fill: #d62728" transform="translate(18.693125 237.8975) rotate(-90) scale(0.1 -0.1)">
      <defs>
       <path id="DejaVuSans-52" d="M 2841 2188 
Q 3044 2119 3236 1894 
Q 3428 1669 3622 1275 
L 4263 0 
L 3584 0 
L 2988 1197 
Q 2756 1666 2539 1819 
Q 2322 1972 1947 1972 
L 1259 1972 
L 1259 0 
L 628 0 
L 628 4666 
L 2053 4666 
Q 2853 4666 3247 4331 
Q 3641 3997 3641 3322 
Q 3641 2881 3436 2590 
Q 3231 2300 2841 2188 
z
M 1259 4147 
L 1259 2491 
L 2053 2491 
Q 2509 2491 2742 2702 
Q 2975 2913 2975 3322 
Q 2975 3731 2742 3939 
Q 2509 4147 2053 4147 
L 1259 4147 
z
" transform="scale(0.015625)"/>
       <path id="DejaVuSans-75" d="M 544 1381 
L 544 3500 
L 1119 3500 
L 1119 1403 
Q 1119 906 1312 657 
Q 1506 409 1894 409 
Q 2359 409 2629 706 
Q 2900 1003 2900 1516 
L 2900 3500 
L 3475 3500 
L 3475 0 
L 2900 0 
L 2900 538 
Q 2691 219 2414 64 
Q 2138 -91 1772 -91 
Q 1169 -91 856 284 
Q 544 659 544 1381 
z
M 1991 3584 
L 1991 3584 
z
" transform="scale(0.015625)"/>
       <path id="DejaVuSans-72" d="M 2631 2963 
Q 2534 3019 2420 3045 
Q 2306 3072 2169 3072 
Q 1681 3072 1420 2755 
Q 1159 2438 1159 1844 
L 1159 0 
L 581 0 
L 581 3500 
L 1159 3500 
L 1159 2956 
Q 1341 3275 1631 3429 
Q 1922 3584 2338 3584 
Q 2397 3584 2469 3576 
Q 2541 3569 2628 3553 
L 2631 2963 
z
" transform="scale(0.015625)"/>
       <path id="DejaVuSans-6e" d="M 3513 2113 
L 3513 0 
L 2938 0 
L 2938 2094 
Q 2938 2591 2744 2837 
Q 2550 3084 2163 3084 
Q 1697 3084 1428 2787 
Q 1159 2491 1159 1978 
L 1159 0 
L 581 0 
L 581 3500 
L 1159 3500 
L 1159 2956 
Q 1366 3272 1645 3428 
Q 1925 3584 2291 3584 
Q 2894 3584 3203 3211 
Q 3513 2838 3513 2113 
z
" transform="scale(0.015625)"/>
       <path id="DejaVuSans-73" d="M 2834 3397 
L 2834 2853 
Q 2591 2978 2328 3040 
Q 2066 3103 1784 3103 
Q 1356 3103 1142 2972 
Q 928 2841 928 2578 
Q 928 2378 1081 2264 
Q 1234 2150 1697 2047 
L 1894 2003 
Q 2506 1872 2764 1633 
Q 3022 1394 3022 966 
Q 3022 478 2636 193 
Q 2250 -91 1575 -91 
Q 1294 -91 989 -36 
Q 684 19 347 128 
L 347 722 
Q 666 556 975 473 
Q 1284 391 1588 391 
Q 1994 391 2212 530 
Q 2431 669 2431 922 
Q 2431 1156 2273 1281 
Q 2116 1406 1581 1522 
L 1381 1569 
Q 847 1681 609 1914 
Q 372 2147 372 2553 
Q 372 3047 722 3315 
Q 1072 3584 1716 3584 
Q 2034 3584 2315 3537 
Q 2597 3491 2834 3397 
z
" transform="scale(0.015625)"/>
       <path id="DejaVuSans-20" transform="scale(0.015625)"/>
       <path id="DejaVuSans-28" d="M 1984 4856 
Q 1566 4138 1362 3434 
Q 1159 2731 1159 2009 
Q 1159 1288 1364 580 
Q 1569 -128 1984 -844 
L 1484 -844 
Q 1016 -109 783 600 
Q 550 1309 550 2009 
Q 550 2706 781 3412 
Q 1013 4119 1484 4856 
L 1984 4856 
z
" transform="scale(0.015625)"/>
       <path id="DejaVuSans-25" d="M 4653 2053 
Q 4381 2053 4226 1822 
Q 4072 1591 4072 1178 
Q 4072 772 4226 539 
Q 4381 306 4653 306 
Q 4919 306 5073 539 
Q 5228 772 5228 1178 
Q 5228 1588 5073 1820 
Q 4919 2053 4653 2053 
z
M 4653 2450 
Q 5147 2450 5437 2106 
Q 5728 1763 5728 1178 
Q 5728 594 5436 251 
Q 5144 -91 4653 -91 
Q 4153 -91 3862 251 
Q 3572 594 3572 1178 
Q 3572 1766 3864 2108 
Q 4156 2450 4653 2450 
z
M 1428 4353 
Q 1159 4353 1004 4120 
Q 850 3888 850 3481 
Q 850 3069 1003 2837 
Q 1156 2606 1428 2606 
Q 1700 2606 1854 2837 
Q 2009 3069 2009 3481 
Q 2009 3884 1853 4118 
Q 1697 4353 1428 4353 
z
M 4250 4750 
L 4750 4750 
L 1831 -91 
L 1331 -91 
L 4250 4750 
z
M 1428 4750 
Q 1922 4750 2215 4408 
Q 2509 4066 2509 3481 
Q 2509 2891 2217 2550 
Q 1925 2209 1428 2209 
Q 931 2209 642 2551 
Q 353 2894 353 3481 
Q 353 4063 643 4406 
Q 934 4750 1428 4750 
z
" transform="scale(0.015625)"/>
       <path id="DejaVuSans-29" d="M 513 4856 
L 1013 4856 
Q 1481 4119 1714 3412 
Q 1947 2706 1947 2009 
Q 1947 1309 1714 600 
Q 1481 -109 1013 -844 
L 513 -844 
Q 928 -128 1133 580 
Q 1338 1288 1338 2009 
Q 1338 2731 1133 3434 
Q 928 4138 513 4856 
z
" transform="scale(0.015625)"/>
      </defs>
      <use xlink:href="#DejaVuSans-52"/>
      <use xlink:href="#DejaVuSans-65" x="64.982422"/>
      <use xlink:href="#DejaVuSans-74" x="126.505859"/>
      <use xlink:href="#DejaVuSans-75" x="165.714844"/>
      <use xlink:href="#DejaVuSans-72" x="229.09375"/>
      <use xlink:href="#DejaVuSans-6e" x="268.457031"/>
      <use xlink:href="#DejaVuSans-73" x="331.835938"/>
      <use xlink:href="#DejaVuSans-20" x="383.935547"/>
      <use xlink:href="#DejaVuSans-28" x="415.722656"/>
      <use xlink:href="#DejaVuSans-25" x="454.736328"/>
      <use xlink:href="#DejaVuSans-29" x="549.755859"/>
     </g>
    </g>
   </g>
   <g id="line2d_31">
    <path d="M 93.503636 161.001237 
L 93.879747 161.001237 
L 94.255857 154.890912 
L 123.21634 154.890912 
L 124.34467 155.267466 
L 124.72078 153.097801 
L 125.096891 154.066081 
L 125.473001 153.366767 
L 125.849111 152.203237 
L 126.977441 149.69288 
L 127.353552 150.159089 
L 127.729662 149.908054 
L 128.481882 148.114942 
L 129.610213 147.971493 
L 129.986323 149.423914 
L 130.362433 148.688738 
L 130.738543 148.419771 
L 131.114653 146.682445 
L 132.242984 147.200455 
L 132.619094 146.754169 
L 132.995204 147.541146 
L 133.371314 147.325973 
L 134.875755 147.577008 
L 135.251865 146.108649 
L 136.004085 146.933481 
L 136.380196 146.001062 
L 137.508526 145.678302 
L 137.884636 144.566573 
L 138.260746 146.28796 
L 138.636857 146.736238 
L 139.012967 144.907264 
L 140.141297 145.80382 
L 140.517407 149.137016 
L 140.893518 149.782536 
L 141.269628 150.159089 
L 141.645738 148.921842 
L 142.774068 153.420561 
L 143.150179 151.701166 
L 143.526289 151.432199 
L 143.902399 149.657018 
L 144.278509 150.768748 
L 145.40684 151.539786 
L 145.78295 149.674949 
L 146.15906 150.607367 
L 146.53517 153.061938 
L 146.91128 152.436342 
L 148.415721 155.195741 
L 148.791831 156.486782 
L 149.167941 156.504713 
L 149.544051 159.228251 
L 150.672382 157.329545 
L 151.048492 153.187456 
L 152.176823 149.585294 
L 153.305153 148.868049 
L 153.681263 148.903911 
L 154.057374 149.298396 
L 154.433484 148.222529 
L 177.000094 148.222529 
L 177.376204 145.755932 
L 177.752314 152.057663 
L 178.128424 151.637817 
L 178.504534 148.186196 
L 179.632865 145.830616 
L 180.008975 147.875348 
L 180.385085 146.486626 
L 180.761195 146.286795 
L 181.137306 151.764982 
L 182.265636 149.847414 
L 182.641746 151.12512 
L 183.393967 146.522959 
L 183.770077 146.030447 
L 185.274518 146.761141 
L 193.925051 146.761141 
L 194.301162 147.043004 
L 195.429492 146.529819 
L 196.181712 153.626933 
L 196.557823 152.42367 
L 196.933933 149.680852 
L 198.062263 150.724717 
L 198.438373 154.33645 
L 199.190594 151.113493 
L 199.566704 148.601997 
L 200.695034 149.043259 
L 201.071145 147.309316 
L 201.447255 147.451219 
L 201.823365 146.741702 
L 202.199475 147.008014 
L 204.080026 144.210767 
L 204.456136 144.688962 
L 204.832246 143.662592 
L 205.960577 143.007504 
L 206.336687 142.476824 
L 206.712797 142.334921 
L 207.088907 143.326301 
L 207.465017 140.742881 
L 208.593348 139.325791 
L 208.969458 139.185831 
L 209.345568 139.185831 
L 209.721678 138.316916 
L 210.097789 137.92814 
L 211.226119 138.670703 
L 212.35445 138.618218 
L 212.73056 137.061168 
L 213.85889 137.220566 
L 214.235 137.681267 
L 214.611111 138.35385 
L 214.987221 138.38884 
L 215.363331 137.681267 
L 216.491662 136.316661 
L 216.867772 136.176702 
L 217.243882 135.290291 
L 219.124433 137.574353 
L 219.500543 139.522123 
L 219.876653 137.751246 
L 220.252763 137.273051 
L 220.628873 135.185322 
L 222.133314 135.98037 
L 222.509424 135.716002 
L 222.885534 133.025668 
L 223.261645 133.768231 
L 224.389975 132.174248 
L 224.766085 131.960421 
L 225.142195 132.084829 
L 225.518306 131.567757 
L 225.894416 130.193432 
L 227.022746 130.28285 
L 227.398856 130.175937 
L 228.151077 129.567502 
L 228.527187 129.604436 
L 229.655517 130.586096 
L 230.031628 129.907681 
L 230.783848 128.926021 
L 231.159958 130.568601 
L 232.288289 130.35283 
L 232.664399 131.085674 
L 233.040509 130.568601 
L 233.416619 129.497522 
L 233.792729 130.424754 
L 235.29717 128.657765 
L 235.67328 128.603336 
L 236.04939 126.818852 
L 236.4255 126.354264 
L 237.929941 127.390354 
L 238.682161 127.211516 
L 239.058272 129.408103 
L 240.186602 132.835168 
L 240.562712 130.906837 
L 240.938822 131.942926 
L 241.314933 130.834913 
L 241.691043 135.11923 
L 242.819373 134.048151 
L 243.195483 131.406414 
L 243.571594 127.641114 
L 243.947704 127.604181 
L 244.323814 129.122353 
L 245.452144 128.282596 
L 246.204365 126.319274 
L 246.580475 126.264846 
L 246.956585 126.336769 
L 248.461026 127.551696 
L 248.837136 126.836347 
L 249.213246 126.783862 
L 249.589356 127.97935 
L 250.717687 135.101735 
L 251.093797 142.546804 
L 251.469907 145.027198 
L 251.846017 154.703844 
L 252.222128 157.273656 
L 253.350458 149.187106 
L 253.726568 154.952661 
L 254.102678 146.224629 
L 254.478789 154.042924 
L 254.854899 158.272812 
L 256.73545 158.272812 
L 257.11156 179.851738 
L 258.616 179.851738 
L 258.992111 167.240039 
L 259.368221 167.240039 
L 259.744331 167.594814 
L 264.633763 167.594814 
L 265.009873 162.605101 
L 277.797619 162.605101 
L 278.173729 159.850036 
L 278.549839 154.758306 
L 279.67817 156.836299 
L 280.43039 166.817563 
L 280.8065 163.842843 
L 281.182611 163.942647 
L 282.310941 154.419878 
L 282.687051 157.993422 
L 283.063161 154.079294 
L 283.439272 155.297205 
L 283.815382 155.398518 
L 296.227017 155.398518 
L 296.603127 153.075073 
L 296.979238 158.117308 
L 298.107568 154.138487 
L 298.483678 151.694536 
L 298.859788 151.971489 
L 299.235899 150.848878 
L 300.740339 148.563488 
L 301.116449 151.694536 
L 301.49256 151.024352 
L 301.86867 154.35413 
L 302.24478 150.316114 
L 303.37311 150.571925 
L 304.125331 143.322523 
L 304.501441 143.519139 
L 304.877551 142.593143 
L 306.005882 144.089958 
L 306.381992 141.292944 
L 306.758102 139.973718 
L 307.134212 140.229529 
L 307.510322 142.356359 
L 308.638653 142.041351 
L 309.014763 142.789759 
L 309.390873 139.696765 
L 309.766983 142.062493 
L 310.143094 142.8109 
L 311.271424 142.062493 
L 311.647534 140.996964 
L 312.023644 139.263365 
L 312.399755 138.889162 
L 312.775865 136.388128 
L 313.904195 134.22113 
L 314.280305 134.457914 
L 314.656416 132.920931 
L 315.032526 134.436773 
L 315.408636 134.259185 
L 316.536966 134.732753 
L 317.289187 136.684109 
L 317.665297 137.747523 
L 318.041407 137.588963 
L 319.169738 134.062569 
L 319.545848 134.240157 
L 319.921958 134.713726 
L 320.674178 131.364921 
L 321.802509 133.392385 
L 322.178619 132.624951 
L 322.554729 128.764523 
L 322.930839 133.825785 
L 323.306949 134.161934 
L 324.81139 138.593181 
L 325.1875 135.736972 
L 325.56361 139.244338 
L 325.939721 137.925112 
L 327.068051 134.595334 
L 327.444161 134.772922 
L 327.820271 133.254966 
L 328.196382 134.299353 
L 328.572492 136.565717 
L 329.700822 141.982155 
L 330.076932 141.35214 
L 330.453043 146.070911 
L 330.829153 145.673452 
L 331.205263 143.056141 
L 332.333593 139.309876 
L 332.709704 141.115356 
L 333.085814 139.409241 
L 333.838034 138.161896 
L 334.966365 134.354321 
L 335.342475 136.536119 
L 335.718585 132.768713 
L 343.240788 132.768713 
L 343.616899 139.770489 
L 343.993009 137.975383 
L 344.369119 137.975383 
L 345.497449 133.575865 
L 345.87356 129.075184 
L 346.24967 129.135451 
L 346.62578 124.897364 
L 347.00189 125.261121 
L 366.935729 125.261121 
L 367.311839 124.066131 
L 367.687949 122.135012 
L 369.19239 125.518864 
L 369.5685 123.386627 
L 369.94461 117.114885 
L 370.32072 114.873303 
L 377.842924 114.873303 
L 378.219034 111.159086 
L 378.595144 115.671951 
L 379.723475 112.950483 
L 380.099585 109.236266 
L 380.475695 108.15051 
L 380.851805 104.743621 
L 381.227915 103.314143 
L 382.356246 100.343982 
L 382.732356 100.287369 
L 383.108466 99.887035 
L 383.484576 99.696977 
L 383.860687 98.09766 
L 385.365127 97.640712 
L 385.741237 97.394041 
L 386.117348 98.916526 
L 386.493458 97.468851 
L 387.621788 96.385116 
L 387.997898 95.471221 
L 388.374009 91.471917 
L 388.750119 96.937093 
L 389.126229 100.210537 
L 390.254559 93.98513 
L 390.63067 94.994054 
L 391.00678 95.661279 
L 391.38289 98.859913 
L 391.759 92.786147 
L 392.887331 90.462993 
L 393.263441 90.634854 
L 393.639551 86.920637 
L 394.015661 86.02696 
L 394.391771 83.570361 
L 395.520102 82.237933 
L 395.896212 84.235563 
L 396.272322 82.751494 
L 396.648432 84.997817 
L 397.024542 86.121989 
L 398.152873 86.160405 
L 398.528983 90.234519 
L 398.905093 90.2143 
L 399.281203 86.746754 
L 399.657314 81.985197 
L 400.785644 83.24888 
L 401.161754 82.713078 
L 401.537864 83.802878 
L 401.913975 81.297753 
L 403.418415 78.715796 
L 403.794525 78.50552 
L 404.170636 79.099956 
L 404.546746 78.964489 
L 404.922856 77.530967 
L 406.051187 77.302493 
L 406.427297 78.161798 
L 406.803407 77.092217 
L 407.555627 74.033093 
L 408.683958 75.046061 
L 409.060068 77.77966 
L 409.436178 74.471844 
L 409.812288 76.613028 
L 410.188398 73.707568 
L 411.316729 73.553904 
L 412.068949 72.522739 
L 412.445059 69.997395 
L 412.82117 72.330659 
L 413.9495 70.399752 
L 414.32561 70.132862 
L 414.70172 69.079456 
L 415.453941 64.243089 
L 416.582271 64.58681 
L 416.958381 68.545676 
L 417.334492 74.433428 
L 418.086712 66.230609 
L 419.215042 66.537937 
L 419.591153 69.348368 
L 419.967263 71.125611 
L 420.343373 69.502032 
L 420.719483 68.392012 
L 421.847814 66.632966 
L 422.223924 68.335399 
L 422.600034 67.455876 
L 422.976144 65.810056 
L 423.352254 65.486553 
L 425.232805 64.14806 
L 425.608915 64.435169 
L 425.985025 63.05826 
L 427.113356 64.071228 
L 427.489466 63.994396 
L 427.865576 65.314692 
L 428.241686 65.514859 
L 428.617797 64.689927 
L 429.746127 66.283178 
L 430.122237 65.994048 
L 430.498347 67.989656 
L 430.874458 71.809011 
L 431.250568 77.470311 
L 432.378898 71.675566 
L 432.755008 71.309604 
L 433.131119 71.790814 
L 433.883339 67.87643 
L 435.011669 69.198748 
L 435.38778 70.177344 
L 435.76389 69.180551 
L 436.14 67.069695 
L 436.51611 66.416623 
L 438.020551 69.237164 
L 438.396661 68.527479 
L 438.772771 71.63715 
L 439.148881 67.164724 
L 440.277212 65.955632 
L 440.653322 68.278787 
L 441.029432 68.834807 
L 441.405542 69.142135 
L 441.781653 71.386436 
L 442.909983 76.855655 
L 443.286093 72.039507 
L 443.662203 69.27558 
L 444.038314 70.21576 
L 444.414424 68.527479 
L 445.542754 67.433635 
L 464.348263 67.433635 
L 464.724373 64.596092 
L 465.100483 65.707665 
L 465.476593 67.510435 
L 466.604924 72.11437 
L 466.981034 72.977355 
L 467.357144 69.986212 
L 467.733254 65.727876 
L 469.237695 64.256557 
L 469.613805 68.092495 
L 469.989915 67.110269 
L 470.366025 71.813234 
L 470.742136 67.880286 
L 471.870466 69.307142 
L 472.246576 67.148668 
L 472.622686 66.37663 
L 472.998797 63.908937 
L 473.374907 64.005947 
L 474.503237 66.51204 
L 474.879347 66.954648 
L 475.255458 66.64745 
L 475.631568 61.788864 
L 476.007678 59.860789 
L 477.136008 60.727817 
L 477.888229 55.368012 
L 478.264339 55.735842 
L 478.640449 55.040603 
L 479.76878 54.442375 
L 480.14489 54.521195 
L 480.521 58.896752 
L 480.89711 56.024851 
L 481.27322 56.332049 
L 482.401551 54.713194 
L 482.777661 53.807767 
L 483.153771 52.207102 
L 483.529881 53.557158 
L 483.905991 52.015103 
L 485.034322 51.319864 
L 485.410432 51.629084 
L 485.786542 52.61131 
L 486.162652 52.61131 
L 486.538763 51.647273 
L 487.667093 51.396664 
L 488.043203 51.918093 
L 488.795424 54.789994 
L 489.171534 57.605306 
L 490.299864 56.23706 
L 490.675974 54.114966 
L 491.052085 54.250376 
L 491.804305 61.402845 
L 492.932635 60.170009 
L 493.308746 67.649887 
L 493.684856 70.636988 
L 494.060966 64.082747 
L 494.437076 64.834575 
L 495.565407 60.554007 
L 495.941517 56.641269 
L 496.317627 56.408849 
L 496.693737 57.566906 
L 497.069847 56.08144 
L 498.574288 58.045893 
L 498.950398 55.256855 
L 499.326508 53.882546 
L 499.702619 57.831663 
L 500.830949 61.241161 
L 501.207059 56.574574 
L 501.95928 52.837667 
L 503.46372 49.371579 
L 504.215941 48.092259 
L 504.592051 48.30649 
L 504.968161 48.38329 
L 506.096491 47.241401 
L 506.472602 44.375562 
L 506.848712 47.25959 
L 507.600932 45.808482 
L 508.729263 46.311721 
L 509.105373 43.658092 
L 509.481483 43.387273 
L 509.857593 44.743392 
L 510.233703 45.285032 
L 511.738144 50.068839 
L 512.490364 55.954114 
L 512.866474 60.388282 
L 513.994805 59.864832 
L 514.370915 61.123941 
L 514.747025 63.25412 
L 515.123135 64.163589 
L 515.499246 59.614222 
L 516.627576 56.089524 
L 517.379796 51.210728 
L 517.755907 54.656605 
L 519.260347 54.250376 
L 519.636457 52.081797 
L 520.012568 48.460089 
L 520.764788 56.303755 
L 521.893118 58.702732 
L 522.269229 55.083045 
L 522.645339 54.521195 
L 523.021449 59.458602 
L 523.397559 60.832911 
L 524.902 63.466329 
L 525.27811 67.300247 
L 525.65422 66.914227 
L 526.03033 58.219703 
L 527.158661 59.905252 
L 527.534771 64.745649 
L 527.910881 58.664332 
L 529.791432 58.664332 
L 530.167542 61.207802 
L 531.295873 61.207802 
L 532.800313 61.543018 
L 542.955288 61.543018 
L 543.331398 62.523355 
L 543.707508 60.127411 
L 544.083618 61.844962 
L 545.588059 62.184159 
L 545.964169 58.09027 
L 546.340279 55.845297 
L 546.71639 59.939186 
L 547.0925 68.107357 
L 548.22083 68.013245 
L 548.59694 74.220741 
L 548.973051 74.030555 
L 549.349161 69.315133 
L 549.725271 78.445995 
L 550.853601 78.31463 
L 551.229712 75.767713 
L 551.605822 67.938739 
L 551.981932 75.465769 
L 552.358042 76.314741 
L 553.486373 84.614277 
L 553.862483 85.520109 
L 554.238593 87.292559 
L 554.614703 86.878857 
L 554.990813 81.879136 
L 556.871364 81.879136 
L 557.247474 83.642472 
L 567.026339 83.642472 
L 567.402449 81.435808 
L 567.778559 89.799542 
L 568.154669 90.802194 
L 569.65911 84.244478 
L 572.291881 84.244478 
L 572.667991 85.586129 
L 594.482381 85.586129 
L 595.610712 86.69402 
L 595.986822 90.074062 
L 596.362932 91.971084 
L 596.739042 91.277194 
L 597.115152 93.623203 
L 598.619593 94.769968 
L 598.995703 89.961329 
L 599.371813 87.277121 
L 599.747923 83.277049 
L 600.876254 80.705574 
L 601.252364 91.483223 
L 601.628474 91.032291 
L 602.004584 92.929313 
L 602.380695 95.596028 
L 603.509025 93.811739 
L 605.013466 110.053043 
L 606.517906 115.114359 
L 606.894017 109.197829 
L 607.270127 113.75379 
L 607.646237 116.494365 
L 608.774567 109.425238 
L 609.902898 109.425238 
L 610.279008 115.320583 
L 633.973949 115.320583 
L 635.102279 111.754984 
L 635.478389 110.053457 
L 635.8545 111.289831 
L 636.23061 116.551769 
L 636.60672 119.446441 
L 637.73505 121.12203 
L 638.111161 120.326601 
L 638.487271 116.738522 
L 638.863381 119.124811 
L 639.239491 117.331636 
L 640.743932 117.010006 
L 641.120042 119.937532 
L 641.496152 116.299307 
L 641.872262 116.890691 
L 643.376703 116.975422 
L 643.752813 113.963165 
L 644.128923 115.84107 
L 644.505033 110.494401 
L 645.633364 111.559585 
L 646.761694 106.093602 
L 647.137805 105.332756 
L 648.642245 106.63484 
L 649.018355 111.374561 
L 649.394466 113.117589 
L 649.770576 109.462072 
L 650.898906 106.871739 
L 651.275016 107.160515 
L 651.651127 106.619277 
L 652.027237 104.554619 
L 652.403347 104.774226 
L 653.531677 107.380122 
L 653.907788 103.690022 
L 654.660008 100.119235 
L 655.036118 102.420793 
L 656.164449 104.046236 
L 656.540559 101.542362 
L 657.292779 106.871739 
L 657.668889 105.095857 
L 658.79722 102.674985 
L 659.17333 103.504998 
L 659.54944 102.844446 
L 659.92555 105.535072 
L 660.301661 105.789264 
L 661.806101 110.646571 
L 662.182211 111.237955 
L 662.558322 110.696717 
L 662.934432 112.32216 
L 664.062762 112.389598 
L 664.438872 113.20232 
L 664.814983 113.708974 
L 665.191093 111.898507 
L 665.567203 108.277574 
L 666.695533 108.836104 
L 667.071644 113.371781 
L 667.447754 113.472074 
L 668.199974 122.949788 
L 669.328305 125.538392 
L 669.704415 121.900167 
L 670.080525 373.532532 
L 778.776364 373.531185 
L 778.776364 373.531185 
" clip-path="url(#p02b4be1ee7)" style="fill: none; stroke: #d62728; stroke-width: 1.5; stroke-linecap: square"/>
   </g>
   <g id="patch_3">
    <path d="M 59.24 390.04 
L 59.24 26.88 
" style="fill: none; stroke: #000000; stroke-width: 0.8; stroke-linejoin: miter; stroke-linecap: square"/>
   </g>
   <g id="patch_4">
    <path d="M 813.04 390.04 
L 813.04 26.88 
" style="fill: none; stroke: #000000; stroke-width: 0.8; stroke-linejoin: miter; stroke-linecap: square"/>
   </g>
   <g id="patch_5">
    <path d="M 59.24 390.04 
L 813.04 390.04 
" style="fill: none; stroke: #000000; stroke-width: 0.8; stroke-linejoin: miter; stroke-linecap: square"/>
   </g>
   <g id="patch_6">
    <path d="M 59.24 26.88 
L 813.04 26.88 
" style="fill: none; stroke: #000000; stroke-width: 0.8; stroke-linejoin: miter; stroke-linecap: square"/>
   </g>
  </g>
  <g id="axes_2">
   <g id="matplotlib.axis_3">
    <g id="ytick_10">
     <g id="line2d_32">
      <defs>
       <path id="mab1f6867d3" d="M 0 0 
L 3.5 0 
" style="stroke: #000000; stroke-width: 0.8"/>
      </defs>
      <g>
       <use xlink:href="#mab1f6867d3" x="813.04" y="366.799193" style="stroke: #000000; stroke-width: 0.8"/>
      </g>
     </g>
     <g id="text_18">
      <!-- 80 -->
      <g style="fill: #1f77b4" transform="translate(820.04 370.598412) scale(0.1 -0.1)">
       <use xlink:href="#DejaVuSans-38"/>
       <use xlink:href="#DejaVuSans-30" x="63.623047"/>
      </g>
     </g>
    </g>
    <g id="ytick_11">
     <g id="line2d_33">
      <g>
       <use xlink:href="#mab1f6867d3" x="813.04" y="291.323832" style="stroke: #000000; stroke-width: 0.8"/>
      </g>
     </g>
     <g id="text_19">
      <!-- 100 -->
      <g style="fill: #1f77b4" transform="translate(820.04 295.123051) scale(0.1 -0.1)">
       <use xlink:href="#DejaVuSans-31"/>
       <use xlink:href="#DejaVuSans-30" x="63.623047"/>
       <use xlink:href="#DejaVuSans-30" x="127.246094"/>
      </g>
     </g>
    </g>
    <g id="ytick_12">
     <g id="line2d_34">
      <g>
       <use xlink:href="#mab1f6867d3" x="813.04" y="215.848472" style="stroke: #000000; stroke-width: 0.8"/>
      </g>
     </g>
     <g id="text_20">
      <!-- 120 -->
      <g style="fill: #1f77b4" transform="translate(820.04 219.64769) scale(0.1 -0.1)">
       <use xlink:href="#DejaVuSans-31"/>
       <use xlink:href="#DejaVuSans-32" x="63.623047"/>
       <use xlink:href="#DejaVuSans-30" x="127.246094"/>
      </g>
     </g>
    </g>
    <g id="ytick_13">
     <g id="line2d_35">
      <g>
       <use xlink:href="#mab1f6867d3" x="813.04" y="140.373111" style="stroke: #000000; stroke-width: 0.8"/>
      </g>
     </g>
     <g id="text_21">
      <!-- 140 -->
      <g style="fill: #1f77b4" transform="translate(820.04 144.17233) scale(0.1 -0.1)">
       <use xlink:href="#DejaVuSans-31"/>
       <use xlink:href="#DejaVuSans-34" x="63.623047"/>
       <use xlink:href="#DejaVuSans-30" x="127.246094"/>
      </g>
     </g>
    </g>
    <g id="ytick_14">
     <g id="line2d_36">
      <g>
       <use xlink:href="#mab1f6867d3" x="813.04" y="64.897751" style="stroke: #000000; stroke-width: 0.8"/>
      </g>
     </g>
     <g id="text_22">
      <!-- 160 -->
      <g style="fill: #1f77b4" transform="translate(820.04 68.696969) scale(0.1 -0.1)">
       <use xlink:href="#DejaVuSans-31"/>
       <use xlink:href="#DejaVuSans-36" x="63.623047"/>
       <use xlink:href="#DejaVuSans-30" x="127.246094"/>
      </g>
     </g>
    </g>
    <g id="text_23">
     <!-- Close Price -->
     <g style="fill: #1f77b4" transform="translate(850.725937 235.867812) rotate(-90) scale(0.1 -0.1)">
      <defs>
       <path id="DejaVuSans-43" d="M 4122 4306 
L 4122 3641 
Q 3803 3938 3442 4084 
Q 3081 4231 2675 4231 
Q 1875 4231 1450 3742 
Q 1025 3253 1025 2328 
Q 1025 1406 1450 917 
Q 1875 428 2675 428 
Q 3081 428 3442 575 
Q 3803 722 4122 1019 
L 4122 359 
Q 3791 134 3420 21 
Q 3050 -91 2638 -91 
Q 1578 -91 968 557 
Q 359 1206 359 2328 
Q 359 3453 968 4101 
Q 1578 4750 2638 4750 
Q 3056 4750 3426 4639 
Q 3797 4528 4122 4306 
z
" transform="scale(0.015625)"/>
       <path id="DejaVuSans-6c" d="M 603 4863 
L 1178 4863 
L 1178 0 
L 603 0 
L 603 4863 
z
" transform="scale(0.015625)"/>
       <path id="DejaVuSans-6f" d="M 1959 3097 
Q 1497 3097 1228 2736 
Q 959 2375 959 1747 
Q 959 1119 1226 758 
Q 1494 397 1959 397 
Q 2419 397 2687 759 
Q 2956 1122 2956 1747 
Q 2956 2369 2687 2733 
Q 2419 3097 1959 3097 
z
M 1959 3584 
Q 2709 3584 3137 3096 
Q 3566 2609 3566 1747 
Q 3566 888 3137 398 
Q 2709 -91 1959 -91 
Q 1206 -91 779 398 
Q 353 888 353 1747 
Q 353 2609 779 3096 
Q 1206 3584 1959 3584 
z
" transform="scale(0.015625)"/>
       <path id="DejaVuSans-50" d="M 1259 4147 
L 1259 2394 
L 2053 2394 
Q 2494 2394 2734 2622 
Q 2975 2850 2975 3272 
Q 2975 3691 2734 3919 
Q 2494 4147 2053 4147 
L 1259 4147 
z
M 628 4666 
L 2053 4666 
Q 2838 4666 3239 4311 
Q 3641 3956 3641 3272 
Q 3641 2581 3239 2228 
Q 2838 1875 2053 1875 
L 1259 1875 
L 1259 0 
L 628 0 
L 628 4666 
z
" transform="scale(0.015625)"/>
       <path id="DejaVuSans-69" d="M 603 3500 
L 1178 3500 
L 1178 0 
L 603 0 
L 603 3500 
z
M 603 4863 
L 1178 4863 
L 1178 4134 
L 603 4134 
L 603 4863 
z
" transform="scale(0.015625)"/>
       <path id="DejaVuSans-63" d="M 3122 3366 
L 3122 2828 
Q 2878 2963 2633 3030 
Q 2388 3097 2138 3097 
Q 1578 3097 1268 2742 
Q 959 2388 959 1747 
Q 959 1106 1268 751 
Q 1578 397 2138 397 
Q 2388 397 2633 464 
Q 2878 531 3122 666 
L 3122 134 
Q 2881 22 2623 -34 
Q 2366 -91 2075 -91 
Q 1284 -91 818 406 
Q 353 903 353 1747 
Q 353 2603 823 3093 
Q 1294 3584 2113 3584 
Q 2378 3584 2631 3529 
Q 2884 3475 3122 3366 
z
" transform="scale(0.015625)"/>
      </defs>
      <use xlink:href="#DejaVuSans-43"/>
      <use xlink:href="#DejaVuSans-6c" x="69.824219"/>
      <use xlink:href="#DejaVuSans-6f" x="97.607422"/>
      <use xlink:href="#DejaVuSans-73" x="158.789062"/>
      <use xlink:href="#DejaVuSans-65" x="210.888672"/>
      <use xlink:href="#DejaVuSans-20" x="272.412109"/>
      <use xlink:href="#DejaVuSans-50" x="304.199219"/>
      <use xlink:href="#DejaVuSans-72" x="362.751953"/>
      <use xlink:href="#DejaVuSans-69" x="403.865234"/>
      <use xlink:href="#DejaVuSans-63" x="431.648438"/>
      <use xlink:href="#DejaVuSans-65" x="486.628906"/>
     </g>
    </g>
   </g>
   <g id="line2d_37">
    <path d="M 93.503636 293.746591 
L 93.879747 299.858964 
L 94.255857 289.255807 
L 95.384187 287.127402 
L 95.760297 284.021591 
L 96.512518 280.779924 
L 96.888628 280.036492 
L 98.016958 281.689403 
L 98.393069 278.787375 
L 98.769179 277.30051 
L 99.145289 274.262627 
L 99.521399 269.028411 
L 101.02584 273.685241 
L 101.40195 272.945582 
L 101.77806 272.538015 
L 102.15417 270.443574 
L 103.282501 271.862511 
L 103.658611 271.05115 
L 104.034721 267.507582 
L 104.410831 265.043312 
L 104.786941 263.658339 
L 106.291382 261.665789 
L 106.667492 261.767681 
L 107.043602 264.94142 
L 107.419713 264.873492 
L 108.548043 264.197988 
L 108.924153 259.469456 
L 109.300263 258.118447 
L 109.676374 259.265673 
L 110.052484 253.627663 
L 111.556924 252.480438 
L 111.933035 251.197357 
L 112.309145 252.480438 
L 112.685255 250.891682 
L 113.813585 250.216177 
L 114.189696 251.027537 
L 114.565806 251.163393 
L 114.941916 252.140799 
L 115.318026 249.812384 
L 116.446357 251.465294 
L 116.822467 252.310618 
L 117.574687 257.748618 
L 117.950797 258.895844 
L 119.455238 252.544592 
L 119.831348 249.880312 
L 120.207458 250.046358 
L 120.583569 248.121736 
L 121.711899 246.502789 
L 122.088009 247.514159 
L 122.464119 250.684124 
L 122.84023 247.019796 
L 123.21634 254.522047 
L 124.34467 255.235289 
L 124.72078 251.125655 
L 125.096891 252.959707 
L 125.473001 251.635114 
L 125.849111 249.431233 
L 126.977441 244.676286 
L 127.353552 245.559347 
L 127.729662 245.083853 
L 128.105772 243.623404 
L 128.481882 241.687461 
L 129.610213 241.41575 
L 129.986323 244.166827 
L 130.362433 242.774307 
L 130.738543 242.264848 
L 131.114653 238.974122 
L 132.242984 239.955302 
L 132.619094 239.109978 
L 132.995204 240.600616 
L 133.371314 240.193049 
L 134.875755 240.668544 
L 135.251865 237.887277 
L 136.004085 239.449617 
L 136.380196 237.683494 
L 137.508526 237.072143 
L 137.884636 234.966381 
L 138.260746 238.226916 
L 138.636857 239.076014 
L 139.012967 235.611695 
L 140.141297 237.309891 
L 140.517407 243.623404 
L 140.893518 244.846105 
L 141.269628 245.559347 
L 141.645738 243.215837 
L 142.774068 251.737006 
L 143.150179 248.480244 
L 143.526289 247.970785 
L 143.902399 244.608358 
L 144.278509 246.71412 
L 145.40684 248.174569 
L 145.78295 244.642322 
L 146.15906 246.408445 
L 146.53517 251.057727 
L 146.91128 249.872764 
L 148.415721 255.099433 
L 148.791831 257.544835 
L 149.167941 257.578799 
L 149.544051 262.73754 
L 150.672382 259.141139 
L 151.048492 251.295475 
L 152.176823 244.472502 
L 153.305153 243.113946 
L 153.681263 243.181874 
L 154.057374 243.92908 
L 154.433484 241.891245 
L 154.809594 242.298812 
L 155.937924 243.004506 
L 156.314035 239.245834 
L 156.690145 238.121251 
L 157.066255 234.400315 
L 157.442365 233.785191 
L 158.570696 235.694718 
L 159.322916 239.177906 
L 159.699026 237.302343 
L 160.075136 234.332388 
L 161.203467 230.883164 
L 161.579577 230.883164 
L 161.955687 227.467904 
L 162.707907 227.705651 
L 163.836238 229.618951 
L 164.212348 229.720843 
L 164.964568 228.083028 
L 165.340679 225.93198 
L 166.469009 226.547104 
L 166.845119 227.637723 
L 167.221229 231.290731 
L 167.59734 228.935899 
L 167.97345 230.8492 
L 169.10178 230.951091 
L 169.47789 227.467904 
L 169.854001 225.113072 
L 170.230111 226.920707 
L 170.606221 224.701732 
L 172.110662 225.384784 
L 172.862882 235.45697 
L 173.238992 237.985395 
L 174.367323 249.695397 
L 174.743433 245.189518 
L 175.119543 245.87257 
L 175.495653 238.804303 
L 175.871763 241.842186 
L 177.000094 247.442458 
L 177.376204 242.830913 
L 177.752314 254.612617 
L 178.128424 253.827673 
L 178.504534 247.37453 
L 179.632865 242.970543 
L 180.008975 246.79337 
L 180.385085 244.197017 
L 180.761195 243.823414 
L 181.137306 254.065421 
L 182.265636 250.480341 
L 182.641746 252.869136 
L 183.393967 244.264945 
L 183.770077 243.344146 
L 185.274518 244.71025 
L 186.026738 235.423007 
L 186.402848 234.468243 
L 187.531179 230.747308 
L 187.907289 228.490595 
L 188.283399 225.079108 
L 188.659509 224.226237 
L 189.035619 223.984716 
L 190.16395 224.43002 
L 190.54006 224.701732 
L 190.91617 224.667768 
L 191.29228 225.282892 
L 191.66839 226.479176 
L 192.796721 226.067836 
L 193.172831 229.151004 
L 193.548941 227.052789 
L 193.925051 228.430214 
L 194.301162 228.977411 
L 195.429492 227.981136 
L 196.181712 241.759163 
L 196.557823 239.423201 
L 196.933933 234.098414 
L 198.062263 236.124927 
L 198.438373 243.136588 
L 199.190594 236.879681 
L 199.566704 232.003973 
L 200.695034 232.860618 
L 201.071145 229.494417 
L 201.447255 229.769902 
L 201.823365 228.392477 
L 202.199475 228.909483 
L 204.080026 223.479031 
L 204.456136 224.407378 
L 204.832246 222.414828 
L 205.960577 221.143068 
L 206.336687 220.11283 
L 206.712797 219.837345 
L 207.088907 221.761966 
L 207.465017 216.746629 
L 208.593348 213.995552 
L 208.969458 213.72384 
L 209.345568 213.72384 
L 209.721678 212.036966 
L 210.097789 211.282212 
L 211.226119 212.723792 
L 211.978339 212.723792 
L 212.35445 212.6219 
L 212.73056 209.599112 
L 213.85889 209.908561 
L 214.235 210.802944 
L 214.611111 212.108668 
L 214.987221 212.176595 
L 215.363331 210.802944 
L 216.491662 208.153759 
L 216.867772 207.882047 
L 217.243882 206.161209 
L 219.124433 210.595387 
L 219.500543 214.376702 
L 219.876653 210.9388 
L 220.252763 210.010453 
L 220.628873 205.957426 
L 222.133314 207.500897 
L 222.509424 206.987664 
L 222.885534 201.764769 
L 223.261645 203.206349 
L 224.389975 200.111859 
L 224.766085 199.696745 
L 225.142195 199.938266 
L 225.518306 198.934443 
L 225.894416 196.266389 
L 227.022746 196.439983 
L 227.398856 196.232426 
L 228.151077 195.051236 
L 228.527187 195.122938 
L 229.655517 197.028691 
L 230.031628 195.711646 
L 230.783848 193.805893 
L 231.159958 196.994727 
L 232.288289 196.575838 
L 232.664399 197.998549 
L 233.040509 196.994727 
L 233.416619 194.91538 
L 233.792729 196.715468 
L 235.29717 193.285113 
L 235.67328 193.179447 
L 236.04939 189.715128 
L 236.4255 188.813198 
L 237.929941 190.824616 
L 238.682161 190.477429 
L 239.058272 194.741787 
L 240.186602 201.39494 
L 240.562712 197.651362 
L 240.938822 199.662781 
L 241.314933 197.511733 
L 241.691043 205.829118 
L 242.819373 203.749771 
L 243.195483 198.621221 
L 243.571594 191.311432 
L 243.947704 191.23973 
L 244.323814 194.187043 
L 245.452144 192.556775 
L 246.204365 188.74527 
L 246.580475 188.639604 
L 246.956585 188.779234 
L 248.461026 191.137839 
L 248.837136 189.749092 
L 249.213246 189.6472 
L 249.589356 191.968068 
L 250.717687 205.795154 
L 251.093797 220.248685 
L 251.469907 225.064013 
L 251.846017 243.849831 
L 252.222128 248.838752 
L 253.350458 233.139877 
L 253.726568 244.332873 
L 254.102678 227.388654 
L 254.478789 242.566749 
L 254.854899 250.778469 
L 255.983229 287.931215 
L 256.359339 270.847367 
L 256.73545 292.194441 
L 257.11156 329.93514 
L 257.48767 300.408047 
L 258.616 343.485986 
L 258.992111 322.310996 
L 259.368221 346.08498 
L 259.744331 346.639724 
L 260.120441 359.739605 
L 261.248772 373.532727 
L 261.624882 343.173896 
L 262.000992 335.544091 
L 262.377102 315.272164 
L 262.753212 325.373032 
L 263.881543 315.621615 
L 264.257653 322.052871 
L 264.633763 338.340076 
L 265.009873 330.336292 
L 265.385983 335.788632 
L 266.514314 314.573262 
L 266.890424 312.266358 
L 267.266534 297.761503 
L 267.642644 288.11613 
L 269.147085 296.118782 
L 269.523195 288.814277 
L 269.899305 301.012227 
L 270.275416 302.445127 
L 270.651526 288.010464 
L 271.779856 295.908961 
L 272.155966 305.310926 
L 272.532077 299.509135 
L 272.908187 299.509135 
L 273.284297 295.140244 
L 274.788738 283.327218 
L 275.164848 274.413578 
L 275.917068 294.685882 
L 277.045399 295.140244 
L 277.421509 293.497523 
L 277.797619 299.404224 
L 278.173729 294.580972 
L 278.549839 285.666954 
L 279.67817 289.304866 
L 280.43039 306.778922 
L 280.8065 301.571122 
L 281.182611 301.745848 
L 282.310941 285.074472 
L 282.687051 291.330625 
L 283.063161 284.478217 
L 283.439272 286.610396 
L 283.815382 286.787763 
L 285.319822 276.160832 
L 285.695933 267.145301 
L 286.072043 269.345407 
L 286.448153 269.835997 
L 287.576483 267.703818 
L 287.952594 263.613054 
L 288.328704 254.352227 
L 288.704814 251.974753 
L 289.080924 239.604341 
L 290.209255 231.317147 
L 290.961475 249.389722 
L 291.337585 276.617458 
L 291.713695 269.696368 
L 292.842026 266.156573 
L 293.218136 259.405302 
L 293.594246 263.624375 
L 293.970356 264.013073 
L 294.346466 267.458523 
L 295.474797 267.741556 
L 295.850907 267.458523 
L 296.227017 279.274191 
L 296.603127 275.12682 
L 296.979238 284.127257 
L 298.107568 277.025025 
L 298.483678 272.662549 
L 298.859788 273.156913 
L 299.235899 271.153042 
L 300.740339 267.073599 
L 301.116449 272.662549 
L 301.49256 271.466265 
L 301.86867 277.40995 
L 302.24478 270.202053 
L 303.37311 270.658679 
L 304.125331 257.718428 
L 304.501441 258.069388 
L 304.877551 256.416478 
L 306.005882 259.088306 
L 306.381992 254.095611 
L 306.758102 251.740779 
L 307.134212 252.197405 
L 307.510322 255.993816 
L 308.638653 255.431525 
L 309.014763 256.767438 
L 309.390873 251.246416 
L 309.766983 255.469262 
L 310.143094 256.805176 
L 311.271424 255.469262 
L 311.647534 253.567283 
L 312.023644 250.472793 
L 312.399755 249.804836 
L 312.775865 245.340469 
L 313.904195 241.472357 
L 314.280305 241.895019 
L 314.656416 239.151489 
L 315.032526 241.857281 
L 315.408636 241.540284 
L 316.536966 242.385609 
L 317.289187 245.868796 
L 317.665297 247.767002 
L 318.041407 247.483969 
L 319.169738 241.189324 
L 319.545848 241.506321 
L 319.921958 242.351645 
L 320.674178 236.373996 
L 321.802509 239.99304 
L 322.178619 238.623162 
L 322.554729 231.732261 
L 322.930839 240.766662 
L 323.306949 241.366691 
L 324.81139 249.276509 
L 325.1875 244.178148 
L 325.56361 250.43883 
L 325.939721 248.083998 
L 327.068051 242.140314 
L 327.444161 242.45731 
L 327.820271 239.747745 
L 328.196382 241.611986 
L 328.572492 245.657465 
L 329.700822 255.325859 
L 330.076932 254.201276 
L 330.453043 262.624326 
L 330.829153 261.914858 
L 331.205263 257.242933 
L 332.333593 250.555816 
L 332.709704 253.778614 
L 333.085814 250.733183 
L 333.838034 248.50666 
L 334.966365 241.710104 
L 335.342475 245.604633 
L 336.094695 233.256864 
L 336.470805 232.513431 
L 337.599136 229.079302 
L 337.975246 233.468195 
L 338.351356 235.272056 
L 339.103576 232.796464 
L 340.231907 239.023181 
L 340.608017 236.936287 
L 340.984127 238.702411 
L 341.360238 232.796464 
L 341.736348 232.192661 
L 342.864678 241.181777 
L 343.240788 246.559396 
L 343.616899 258.835463 
L 343.993009 255.688141 
L 344.369119 255.688141 
L 345.497449 247.974559 
L 345.87356 240.08361 
L 346.24967 240.189276 
L 346.62578 232.758726 
L 347.00189 233.396493 
L 348.506331 210.150082 
L 348.882441 211.531281 
L 349.258551 217.474966 
L 349.634661 208.663217 
L 350.762992 200.03261 
L 351.139102 202.013838 
L 351.515212 207.425421 
L 351.891322 206.115924 
L 352.267432 208.097152 
L 353.395763 201.802507 
L 353.771873 191.824664 
L 354.147983 194.866321 
L 354.900204 195.221056 
L 356.028534 200.243941 
L 356.404644 195.892786 
L 356.780754 193.451158 
L 357.156865 192.458657 
L 357.532975 186.375343 
L 358.661305 189.062266 
L 359.037415 187.401808 
L 359.413526 188.318834 
L 359.789636 188.850935 
L 360.165746 189.805699 
L 361.294076 194.617253 
L 361.670187 187.439546 
L 362.046297 188.718853 
L 362.422407 186.337606 
L 362.798517 188.469785 
L 363.926848 190.88877 
L 364.302958 193.587014 
L 364.679068 189.998161 
L 365.055178 188.647152 
L 366.559619 187.47351 
L 366.935729 188.824519 
L 367.311839 186.514973 
L 367.687949 182.782716 
L 369.19239 189.322656 
L 369.5685 185.201702 
L 369.94461 173.080359 
L 370.32072 168.748073 
L 370.696831 168.427303 
L 371.825161 168.034831 
L 372.201271 165.619619 
L 372.577381 166.080019 
L 372.953492 164.196909 
L 373.329602 168.993368 
L 374.834043 166.793261 
L 375.210153 164.445977 
L 375.962373 170.204747 
L 377.090704 170.699111 
L 377.466814 172.974693 
L 377.842924 185.877206 
L 378.219034 178.944794 
L 378.595144 187.367844 
L 379.723475 182.288353 
L 380.099585 175.355941 
L 380.475695 173.329427 
L 380.851805 166.970628 
L 381.227915 164.302574 
L 382.356246 158.758909 
L 382.732356 158.653243 
L 383.108466 157.906037 
L 383.484576 157.551303 
L 383.860687 154.566253 
L 385.365127 153.713381 
L 385.741237 153.252981 
L 386.117348 156.094629 
L 386.493458 153.392611 
L 387.621788 151.369871 
L 387.997898 149.664128 
L 388.374009 142.199615 
L 388.750119 152.40011 
L 389.126229 158.50984 
L 390.254559 146.890409 
L 390.63067 148.773519 
L 391.00678 150.018862 
L 391.38289 155.988963 
L 391.759 144.652564 
L 392.887331 140.316505 
L 393.263441 140.637275 
L 393.639551 133.704863 
L 394.015661 132.036858 
L 394.391771 127.451729 
L 395.520102 124.964816 
L 395.896212 128.693299 
L 396.272322 125.923353 
L 396.648432 130.11601 
L 397.024542 132.214225 
L 398.152873 132.285926 
L 398.528983 139.890069 
L 398.905093 139.852331 
L 399.281203 133.380319 
L 399.657314 124.493095 
L 400.785644 126.8517 
L 401.161754 125.851652 
L 401.537864 127.885713 
L 401.913975 123.210014 
L 403.418415 118.390912 
L 403.794525 117.99844 
L 404.170636 119.107928 
L 404.546746 118.855086 
L 404.922856 116.179484 
L 406.051187 115.753048 
L 406.427297 117.3569 
L 406.803407 115.360577 
L 407.555627 109.650866 
L 408.683958 111.541523 
L 409.060068 116.643658 
L 409.436178 110.469773 
L 409.812288 114.466194 
L 410.188398 109.043289 
L 411.316729 108.756483 
L 412.068949 106.831861 
L 412.445059 102.118425 
L 412.82117 106.473353 
L 413.9495 102.869404 
L 414.32561 102.371267 
L 414.70172 100.405134 
L 415.453941 91.378281 
L 416.582271 92.019821 
L 416.958381 99.408859 
L 417.334492 110.398072 
L 418.086712 95.087895 
L 419.215042 95.661507 
L 419.591153 100.907045 
L 419.967263 104.224187 
L 420.343373 101.193851 
L 420.719483 99.122053 
L 421.847814 95.838875 
L 422.223924 99.016387 
L 422.600034 97.374798 
L 422.976144 94.302951 
L 423.352254 93.699148 
L 425.232805 91.200914 
L 425.608915 91.736789 
L 425.985025 89.166853 
L 427.113356 91.05751 
L 427.489466 90.914107 
L 427.865576 93.378378 
L 428.241686 93.751981 
L 428.617797 92.212284 
L 429.746127 95.186013 
L 430.122237 94.646364 
L 430.498347 98.371073 
L 430.874458 105.499721 
L 431.250568 116.066271 
L 432.378898 105.250652 
L 432.755008 104.5676 
L 433.131119 105.465757 
L 433.883339 98.159742 
L 435.011669 100.627786 
L 435.38778 102.45429 
L 435.76389 100.593822 
L 436.14 96.654008 
L 436.51611 95.435081 
L 438.020551 100.699488 
L 438.396661 99.374895 
L 438.772771 105.17895 
L 439.148881 96.831376 
L 440.277212 94.574662 
L 440.653322 98.910722 
L 441.029432 99.948508 
L 441.405542 100.522121 
L 441.781653 104.711003 
L 442.909983 114.919046 
L 443.286093 105.92993 
L 443.662203 100.771189 
L 444.038314 102.525992 
L 444.414424 99.374895 
L 445.542754 97.333287 
L 445.918864 97.261585 
L 446.294975 97.729532 
L 446.671085 94.004823 
L 447.047195 95.759625 
L 448.175525 97.189884 
L 448.551636 92.427388 
L 448.927746 98.050303 
L 449.679966 90.849953 
L 450.808297 91.925477 
L 451.560517 84.906269 
L 451.936627 84.260954 
L 453.441068 84.117551 
L 453.817178 86.981841 
L 454.193288 93.393473 
L 454.569398 95.186013 
L 454.945508 91.74811 
L 456.073839 88.200768 
L 456.826059 84.22699 
L 457.202169 87.770559 
L 457.57828 82.758995 
L 458.70661 84.298692 
L 459.08272 84.585498 
L 459.45883 84.728902 
L 459.834941 81.07212 
L 460.211051 83.151466 
L 461.715491 88.023401 
L 462.091602 88.344171 
L 462.467712 90.815989 
L 462.843822 95.219977 
L 463.972152 91.74811 
L 464.348263 97.118182 
L 464.724373 91.819812 
L 465.100483 93.895384 
L 465.476593 97.261585 
L 466.604924 105.858229 
L 466.981034 107.469628 
L 467.357144 101.884451 
L 467.733254 93.933122 
L 469.237695 91.185819 
L 469.613805 98.34843 
L 469.989915 96.514379 
L 470.366025 105.295937 
L 470.742136 97.952185 
L 471.870466 100.616465 
L 472.246576 96.586081 
L 472.622686 95.144501 
L 472.998797 90.536731 
L 473.374907 90.717871 
L 474.503237 95.397344 
L 474.879347 96.223799 
L 475.255458 95.650186 
L 475.631568 86.578048 
L 476.007678 82.977873 
L 477.136008 84.59682 
L 477.888229 74.588787 
L 478.264339 75.275613 
L 478.640449 73.977436 
L 479.76878 72.860401 
L 480.14489 73.007578 
L 480.521 81.177786 
L 480.89711 75.815261 
L 481.27322 76.388874 
L 482.401551 73.366086 
L 482.777661 71.675438 
L 483.153771 68.686614 
L 483.529881 71.207491 
L 483.905991 68.328106 
L 485.034322 67.029929 
L 485.410432 67.607316 
L 485.786542 69.441367 
L 486.162652 69.441367 
L 486.538763 67.64128 
L 487.667093 67.173333 
L 488.043203 68.146965 
L 488.795424 73.509489 
L 489.171534 78.766348 
L 490.299864 76.211507 
L 490.675974 72.249051 
L 491.052085 72.501893 
L 491.804305 85.857258 
L 492.932635 83.55526 
L 493.308746 97.521975 
L 493.684856 103.099604 
L 494.060966 90.861275 
L 494.437076 92.265116 
L 495.565407 84.272276 
L 495.941517 76.966261 
L 496.317627 76.532277 
L 496.693737 78.694646 
L 497.069847 75.920927 
L 498.574288 79.589029 
L 498.950398 74.38123 
L 499.326508 71.815067 
L 499.702619 79.18901 
L 500.830949 85.555357 
L 501.207059 76.841726 
L 501.95928 69.864029 
L 503.46372 63.392017 
L 503.83983 62.376873 
L 504.215941 61.003222 
L 504.592051 61.403241 
L 504.968161 61.546644 
L 506.096491 59.414466 
L 506.472602 54.063262 
L 506.848712 59.448429 
L 507.600932 56.738864 
L 508.729263 57.678532 
L 509.105373 52.723575 
L 509.481483 52.21789 
L 509.857593 54.750088 
L 510.233703 55.761458 
L 511.738144 64.693967 
L 512.490364 75.68318 
L 512.866474 83.962827 
L 513.994805 82.985421 
L 514.370915 85.336478 
L 514.747025 89.31403 
L 515.123135 91.012225 
L 515.499246 82.517473 
L 516.627576 75.936022 
L 517.379796 66.826146 
L 517.755907 73.26042 
L 519.260347 72.501893 
L 519.636457 68.45264 
L 520.012568 61.690048 
L 520.764788 76.336041 
L 521.893118 80.815504 
L 522.269229 74.056686 
L 522.645339 73.007578 
L 523.021449 82.226893 
L 523.397559 84.793056 
L 524.902 89.710275 
L 525.27811 96.869113 
L 525.65422 96.148324 
L 526.03033 79.913573 
L 527.158661 83.060896 
L 527.534771 92.09907 
L 527.910881 80.743802 
L 528.286991 80.309819 
L 528.663101 82.479736 
L 530.167542 100.522121 
L 530.543652 90.363137 
L 530.919762 90.978261 
L 531.295873 95.567163 
L 532.424203 96.182287 
L 533.552534 72.792473 
L 533.928644 70.694258 
L 535.056974 69.501748 
L 535.433085 65.705337 
L 535.809195 72.645296 
L 536.561415 60.912651 
L 537.689746 61.308897 
L 538.065856 55.46333 
L 538.441966 57.063408 
L 538.818076 66.029881 
L 539.194186 63.633538 
L 540.322517 64.57698 
L 540.698627 68.754541 
L 541.074737 68.354522 
L 541.826957 62.437254 
L 543.331398 70.060265 
L 543.707508 65.448721 
L 544.083618 68.754541 
L 545.588059 69.407403 
L 545.964169 61.527776 
L 546.340279 57.206811 
L 546.71639 65.086439 
L 547.0925 80.807957 
L 548.22083 80.626816 
L 548.59694 92.574565 
L 548.973051 92.20851 
L 549.349161 83.132598 
L 549.725271 100.707035 
L 550.853601 100.454193 
L 551.229712 95.552068 
L 551.605822 80.483412 
L 551.981932 94.970908 
L 552.358042 96.604949 
L 553.486373 112.57931 
L 553.862483 114.32279 
L 554.238593 117.734277 
L 554.614703 116.938012 
L 554.990813 107.314903 
L 556.119144 106.88092 
L 556.495254 97.18611 
L 556.871364 115.628514 
L 557.247474 118.972073 
L 557.623584 117.519172 
L 558.751915 107.748886 
L 559.128025 107.1715 
L 559.504135 103.284519 
L 560.256356 84.513797 
L 561.760796 89.449885 
L 562.136906 93.808587 
L 562.513017 87.053543 
L 562.889127 92.574565 
L 564.017457 91.412245 
L 564.393568 85.057219 
L 564.769678 92.574565 
L 565.521898 118.115427 
L 566.650229 137.912614 
L 567.026339 141.667514 
L 567.402449 137.655998 
L 567.778559 152.86051 
L 568.154669 154.683239 
L 569.65911 142.761906 
L 570.03522 143.63742 
L 570.41133 141.410897 
L 570.78744 127.229077 
L 571.915771 127.157375 
L 572.291881 134.048276 
L 572.667991 136.527641 
L 573.044101 140.173101 
L 573.420212 133.572781 
L 574.924652 136.708782 
L 575.300762 137.184277 
L 575.676873 130.217901 
L 577.181313 135.942707 
L 577.933534 141.958094 
L 578.309644 147.316844 
L 578.685754 136.271025 
L 579.814084 138.85983 
L 580.190195 125.044065 
L 580.566305 123.183598 
L 580.942415 120.157036 
L 581.318525 123.511916 
L 582.446856 121.104252 
L 582.822966 124.896888 
L 583.199076 115.707763 
L 583.951296 105.31858 
L 585.079627 106.74129 
L 585.455737 110.824507 
L 585.831847 105.028 
L 586.207957 107.688506 
L 586.584067 106.56015 
L 587.712398 105.390281 
L 588.088508 105.937478 
L 588.464618 95.619996 
L 588.840728 93.068929 
L 589.216839 84.464738 
L 590.345169 83.626961 
L 590.721279 81.185333 
L 591.097389 86.287468 
L 591.4735 84.793056 
L 591.84961 91.465077 
L 592.97794 102.329756 
L 593.35405 103.386411 
L 593.730161 100.869307 
L 594.106271 93.14063 
L 594.482381 109.582938 
L 595.610712 111.733986 
L 595.986822 118.296568 
L 596.362932 121.979766 
L 596.739042 120.632531 
L 597.115152 125.187469 
L 598.619593 127.413992 
L 598.995703 118.07769 
L 599.371813 112.866116 
L 599.747923 105.099701 
L 600.876254 100.107006 
L 601.252364 121.03255 
L 601.628474 120.157036 
L 602.004584 123.840233 
L 602.380695 129.017843 
L 603.509025 125.553524 
L 605.013466 157.08713 
L 606.517906 166.914022 
L 606.894017 155.426672 
L 607.270127 164.272384 
L 607.646237 169.593397 
L 608.774567 155.868203 
L 609.150678 139.644774 
L 609.526788 141.516563 
L 609.902898 147.460247 
L 610.279008 159.094774 
L 611.407339 162.253418 
L 612.159559 166.695143 
L 612.535669 152.747296 
L 612.911779 162.253418 
L 614.04011 151.38874 
L 614.41622 144.490292 
L 615.16844 154.215292 
L 615.54455 142.799644 
L 616.672881 137.406929 
L 617.048991 129.112187 
L 617.425101 127.387575 
L 617.801211 128.047985 
L 618.177322 116.447422 
L 619.305652 119.126797 
L 619.681762 117.953155 
L 620.057872 128.52348 
L 620.433983 130.72736 
L 620.810093 122.723198 
L 621.938423 118.100332 
L 622.314533 115.420957 
L 622.690644 125.515786 
L 623.066754 101.658025 
L 623.442864 97.657831 
L 624.571194 102.061818 
L 624.947305 97.914447 
L 625.323415 102.465611 
L 625.699525 104.446839 
L 626.075635 100.740999 
L 627.203966 100.778737 
L 627.580076 93.325545 
L 627.956186 91.529231 
L 628.708406 89.876321 
L 629.836737 99.163564 
L 630.212847 97.325739 
L 630.588957 85.17798 
L 630.965067 85.253455 
L 631.341178 85.691212 
L 632.469508 96.997421 
L 632.845618 103.639253 
L 633.221728 103.933607 
L 633.597839 100.925914 
L 633.973949 105.182724 
L 635.102279 97.401215 
L 635.478389 93.687827 
L 635.8545 96.386071 
L 636.23061 107.869647 
L 636.60672 114.186935 
L 637.73505 117.843716 
L 638.111161 116.107783 
L 638.487271 108.277214 
L 638.863381 113.485014 
L 639.239491 109.571616 
L 640.743932 108.869696 
L 641.120042 115.258685 
L 641.496152 107.318677 
L 641.872262 108.609306 
L 643.376703 108.79422 
L 643.752813 102.220316 
L 644.128923 106.318628 
L 644.505033 94.650138 
L 645.633364 96.974779 
L 646.761694 85.045898 
L 647.137805 83.38544 
L 648.642245 86.227087 
L 649.018355 96.570986 
L 649.394466 100.374944 
L 649.770576 92.397198 
L 650.898906 86.744094 
L 651.275016 87.374313 
L 651.651127 86.193124 
L 652.027237 81.687244 
L 652.403347 82.166513 
L 653.531677 87.853581 
L 653.907788 79.80036 
L 654.660008 72.007529 
L 655.036118 77.030415 
L 656.164449 80.577757 
L 656.540559 75.113341 
L 657.292779 86.744094 
L 657.668889 82.868434 
L 658.79722 77.585159 
L 659.17333 79.396567 
L 659.54944 77.954988 
L 659.92555 83.826971 
L 660.301661 84.381715 
L 661.806101 94.982229 
L 662.182211 96.272858 
L 662.558322 95.091669 
L 662.934432 98.63901 
L 664.062762 98.786187 
L 664.438872 100.559858 
L 664.814983 101.665572 
L 665.191093 97.714437 
L 665.567203 89.812167 
L 666.695533 91.031094 
L 667.071644 100.929688 
L 667.447754 101.148566 
L 668.199974 121.832589 
L 669.328305 127.48192 
L 669.704415 119.541912 
L 670.080525 127.297005 
L 670.456635 120.836314 
L 670.832745 130.768871 
L 671.961076 123.640224 
L 672.337186 116.439874 
L 672.713296 127.444182 
L 673.089406 129.62542 
L 673.465516 125.244075 
L 674.593847 120.86273 
L 674.969957 120.270249 
L 675.346067 112.805736 
L 675.722177 110.318823 
L 676.098288 103.412827 
L 677.226618 100.333432 
L 677.602728 104.899692 
L 677.978838 103.341125 
L 678.354949 102.74487 
L 679.859389 100.740999 
L 680.235499 98.216348 
L 680.61161 99.85039 
L 680.98772 95.246393 
L 681.36383 95.801137 
L 682.49216 93.053834 
L 682.868271 92.831181 
L 683.244381 92.868919 
L 683.620491 96.804959 
L 683.996601 96.472868 
L 685.124932 95.321868 
L 685.877152 109.911256 
L 686.253262 100.073042 
L 686.629372 94.616174 
L 687.757703 94.948265 
L 688.133813 103.710955 
L 688.886033 113.549168 
L 689.262143 104.639302 
L 690.390474 104.378912 
L 690.766584 106.643172 
L 691.142694 107.163952 
L 691.518805 110.020695 
L 691.894915 110.469773 
L 693.023245 107.869647 
L 693.399355 114.885082 
L 693.775466 108.016824 
L 694.151576 105.122344 
L 694.527686 105.714826 
L 695.656016 105.160082 
L 696.784347 117.18708 
L 697.160457 112.881211 
L 698.664898 113.918997 
L 699.041008 116.92669 
L 699.417118 112.545346 
L 699.793228 102.114651 
L 700.921559 104.080784 
L 701.297669 100.627786 
L 701.673779 95.906802 
L 702.049889 95.272809 
L 702.425999 95.982278 
L 703.55433 94.042561 
L 703.93044 89.306482 
L 704.30655 91.023547 
L 704.68266 83.789233 
L 705.058771 84.796829 
L 706.939321 90.79712 
L 707.315432 92.85005 
L 707.691542 96.540795 
L 708.819872 94.004823 
L 709.195982 89.234781 
L 709.572093 89.755561 
L 710.324313 80.324914 
L 711.452643 78.08707 
L 712.204864 81.068347 
L 712.580974 87.332801 
L 712.957084 86.623333 
L 714.085415 82.747673 
L 714.461525 76.483218 
L 715.213745 71.452786 
L 715.589855 75.664311 
L 716.718186 75.290708 
L 717.470406 67.984693 
L 717.846516 64.667551 
L 718.222626 63.025962 
L 719.350957 60.489989 
L 719.727067 60.788117 
L 720.103177 58.961613 
L 720.479287 64.105259 
L 720.855398 61.497586 
L 721.983728 59.595606 
L 722.359838 61.648536 
L 722.735949 66.716707 
L 723.488169 70.890494 
L 724.616499 65.486458 
L 724.99261 68.169607 
L 725.36872 69.996111 
L 725.74483 70.743317 
L 726.12094 69.06399 
L 727.249271 69.475331 
L 727.625381 77.453077 
L 728.001491 81.517425 
L 728.377601 84.238312 
L 728.753711 83.192978 
L 729.882042 84.049623 
L 730.258152 86.808248 
L 730.634262 82.747673 
L 731.010372 87.966794 
L 731.386482 84.460964 
L 732.514813 80.958907 
L 732.890923 75.403921 
L 733.267033 73.837807 
L 733.643143 76.037914 
L 734.019254 72.792473 
L 735.899804 81.589127 
L 736.275915 82.000467 
L 736.652025 81.366474 
L 737.780355 79.951311 
L 738.156465 79.166367 
L 738.532576 80.732481 
L 738.908686 74.022722 
L 739.284796 78.422935 
L 740.413126 78.943715 
L 740.789237 80.434353 
L 741.165347 82.672198 
L 741.541457 91.321674 
L 741.917567 93.819909 
L 743.045898 92.140582 
L 743.422008 99.435276 
L 743.798118 99.322062 
L 744.174228 96.431356 
L 744.550338 99.095636 
L 745.678669 105.473304 
L 746.054779 111.552845 
L 746.430889 110.503737 
L 746.806999 111.703795 
L 747.183109 107.537555 
L 748.31144 103.186401 
L 748.68755 98.872984 
L 749.06366 99.3598 
L 749.43977 105.212914 
L 749.815881 105.28839 
L 751.320321 96.733258 
L 752.072542 109.903708 
L 752.448652 115.719085 
L 753.576982 120.070239 
L 753.953093 116.617241 
L 754.329203 121.38351 
L 754.705313 122.021277 
L 755.081423 129.599003 
L 756.209754 124.345918 
L 756.585864 119.356997 
L 756.961974 116.692717 
L 757.338084 105.661993 
L 757.714194 99.057899 
L 758.842525 101.797654 
L 759.218635 104.386459 
L 759.594745 106.111071 
L 759.970855 110.613176 
L 760.346965 104.835538 
L 761.475296 105.061964 
L 761.851406 92.642493 
L 762.227516 89.566872 
L 762.603626 91.480173 
L 762.979737 88.517765 
L 764.108067 86.453513 
L 764.484177 87.242231 
L 764.860287 84.766639 
L 765.612508 82.777863 
L 767.116948 84.615688 
L 767.493059 82.887303 
L 768.245279 71.332025 
L 769.373609 71.14711 
L 769.74972 75.871868 
L 770.12583 77.071926 
L 770.50194 75.347314 
L 770.87805 72.947198 
L 772.006381 68.256404 
L 772.382491 68.331879 
L 773.134711 49.308315 
L 773.510821 53.210391 
L 774.639152 52.572624 
L 775.015262 47.021411 
L 775.391372 57.42569 
L 775.767482 51.161235 
L 776.143592 48.746023 
L 778.400253 43.387273 
L 778.776364 45.085468 
L 778.776364 45.085468 
" clip-path="url(#p02b4be1ee7)" style="fill: none; stroke: #1f77b4; stroke-width: 1.5; stroke-linecap: square"/>
   </g>
   <g id="patch_7">
    <path d="M 59.24 390.04 
L 59.24 26.88 
" style="fill: none; stroke: #000000; stroke-width: 0.8; stroke-linejoin: miter; stroke-linecap: square"/>
   </g>
   <g id="patch_8">
    <path d="M 813.04 390.04 
L 813.04 26.88 
" style="fill: none; stroke: #000000; stroke-width: 0.8; stroke-linejoin: miter; stroke-linecap: square"/>
   </g>
   <g id="patch_9">
    <path d="M 59.24 390.04 
L 813.04 390.04 
" style="fill: none; stroke: #000000; stroke-width: 0.8; stroke-linejoin: miter; stroke-linecap: square"/>
   </g>
   <g id="patch_10">
    <path d="M 59.24 26.88 
L 813.04 26.88 
" style="fill: none; stroke: #000000; stroke-width: 0.8; stroke-linejoin: miter; stroke-linecap: square"/>
   </g>
   <g id="text_24">
    <!-- Stock Trading Performance for IWD -->
    <g transform="translate(331.305 20.88) scale(0.12 -0.12)">
     <defs>
      <path id="DejaVuSans-53" d="M 3425 4513 
L 3425 3897 
Q 3066 4069 2747 4153 
Q 2428 4238 2131 4238 
Q 1616 4238 1336 4038 
Q 1056 3838 1056 3469 
Q 1056 3159 1242 3001 
Q 1428 2844 1947 2747 
L 2328 2669 
Q 3034 2534 3370 2195 
Q 3706 1856 3706 1288 
Q 3706 609 3251 259 
Q 2797 -91 1919 -91 
Q 1588 -91 1214 -16 
Q 841 59 441 206 
L 441 856 
Q 825 641 1194 531 
Q 1563 422 1919 422 
Q 2459 422 2753 634 
Q 3047 847 3047 1241 
Q 3047 1584 2836 1778 
Q 2625 1972 2144 2069 
L 1759 2144 
Q 1053 2284 737 2584 
Q 422 2884 422 3419 
Q 422 4038 858 4394 
Q 1294 4750 2059 4750 
Q 2388 4750 2728 4690 
Q 3069 4631 3425 4513 
z
" transform="scale(0.015625)"/>
      <path id="DejaVuSans-6b" d="M 581 4863 
L 1159 4863 
L 1159 1991 
L 2875 3500 
L 3609 3500 
L 1753 1863 
L 3688 0 
L 2938 0 
L 1159 1709 
L 1159 0 
L 581 0 
L 581 4863 
z
" transform="scale(0.015625)"/>
      <path id="DejaVuSans-54" d="M -19 4666 
L 3928 4666 
L 3928 4134 
L 2272 4134 
L 2272 0 
L 1638 0 
L 1638 4134 
L -19 4134 
L -19 4666 
z
" transform="scale(0.015625)"/>
      <path id="DejaVuSans-64" d="M 2906 2969 
L 2906 4863 
L 3481 4863 
L 3481 0 
L 2906 0 
L 2906 525 
Q 2725 213 2448 61 
Q 2172 -91 1784 -91 
Q 1150 -91 751 415 
Q 353 922 353 1747 
Q 353 2572 751 3078 
Q 1150 3584 1784 3584 
Q 2172 3584 2448 3432 
Q 2725 3281 2906 2969 
z
M 947 1747 
Q 947 1113 1208 752 
Q 1469 391 1925 391 
Q 2381 391 2643 752 
Q 2906 1113 2906 1747 
Q 2906 2381 2643 2742 
Q 2381 3103 1925 3103 
Q 1469 3103 1208 2742 
Q 947 2381 947 1747 
z
" transform="scale(0.015625)"/>
      <path id="DejaVuSans-67" d="M 2906 1791 
Q 2906 2416 2648 2759 
Q 2391 3103 1925 3103 
Q 1463 3103 1205 2759 
Q 947 2416 947 1791 
Q 947 1169 1205 825 
Q 1463 481 1925 481 
Q 2391 481 2648 825 
Q 2906 1169 2906 1791 
z
M 3481 434 
Q 3481 -459 3084 -895 
Q 2688 -1331 1869 -1331 
Q 1566 -1331 1297 -1286 
Q 1028 -1241 775 -1147 
L 775 -588 
Q 1028 -725 1275 -790 
Q 1522 -856 1778 -856 
Q 2344 -856 2625 -561 
Q 2906 -266 2906 331 
L 2906 616 
Q 2728 306 2450 153 
Q 2172 0 1784 0 
Q 1141 0 747 490 
Q 353 981 353 1791 
Q 353 2603 747 3093 
Q 1141 3584 1784 3584 
Q 2172 3584 2450 3431 
Q 2728 3278 2906 2969 
L 2906 3500 
L 3481 3500 
L 3481 434 
z
" transform="scale(0.015625)"/>
      <path id="DejaVuSans-66" d="M 2375 4863 
L 2375 4384 
L 1825 4384 
Q 1516 4384 1395 4259 
Q 1275 4134 1275 3809 
L 1275 3500 
L 2222 3500 
L 2222 3053 
L 1275 3053 
L 1275 0 
L 697 0 
L 697 3053 
L 147 3053 
L 147 3500 
L 697 3500 
L 697 3744 
Q 697 4328 969 4595 
Q 1241 4863 1831 4863 
L 2375 4863 
z
" transform="scale(0.015625)"/>
      <path id="DejaVuSans-6d" d="M 3328 2828 
Q 3544 3216 3844 3400 
Q 4144 3584 4550 3584 
Q 5097 3584 5394 3201 
Q 5691 2819 5691 2113 
L 5691 0 
L 5113 0 
L 5113 2094 
Q 5113 2597 4934 2840 
Q 4756 3084 4391 3084 
Q 3944 3084 3684 2787 
Q 3425 2491 3425 1978 
L 3425 0 
L 2847 0 
L 2847 2094 
Q 2847 2600 2669 2842 
Q 2491 3084 2119 3084 
Q 1678 3084 1418 2786 
Q 1159 2488 1159 1978 
L 1159 0 
L 581 0 
L 581 3500 
L 1159 3500 
L 1159 2956 
Q 1356 3278 1631 3431 
Q 1906 3584 2284 3584 
Q 2666 3584 2933 3390 
Q 3200 3197 3328 2828 
z
" transform="scale(0.015625)"/>
      <path id="DejaVuSans-49" d="M 628 4666 
L 1259 4666 
L 1259 0 
L 628 0 
L 628 4666 
z
" transform="scale(0.015625)"/>
      <path id="DejaVuSans-57" d="M 213 4666 
L 850 4666 
L 1831 722 
L 2809 4666 
L 3519 4666 
L 4500 722 
L 5478 4666 
L 6119 4666 
L 4947 0 
L 4153 0 
L 3169 4050 
L 2175 0 
L 1381 0 
L 213 4666 
z
" transform="scale(0.015625)"/>
     </defs>
     <use xlink:href="#DejaVuSans-53"/>
     <use xlink:href="#DejaVuSans-74" x="63.476562"/>
     <use xlink:href="#DejaVuSans-6f" x="102.685547"/>
     <use xlink:href="#DejaVuSans-63" x="163.867188"/>
     <use xlink:href="#DejaVuSans-6b" x="218.847656"/>
     <use xlink:href="#DejaVuSans-20" x="276.757812"/>
     <use xlink:href="#DejaVuSans-54" x="308.544922"/>
     <use xlink:href="#DejaVuSans-72" x="354.878906"/>
     <use xlink:href="#DejaVuSans-61" x="395.992188"/>
     <use xlink:href="#DejaVuSans-64" x="457.271484"/>
     <use xlink:href="#DejaVuSans-69" x="520.748047"/>
     <use xlink:href="#DejaVuSans-6e" x="548.53125"/>
     <use xlink:href="#DejaVuSans-67" x="611.910156"/>
     <use xlink:href="#DejaVuSans-20" x="675.386719"/>
     <use xlink:href="#DejaVuSans-50" x="707.173828"/>
     <use xlink:href="#DejaVuSans-65" x="763.851562"/>
     <use xlink:href="#DejaVuSans-72" x="825.375"/>
     <use xlink:href="#DejaVuSans-66" x="866.488281"/>
     <use xlink:href="#DejaVuSans-6f" x="901.693359"/>
     <use xlink:href="#DejaVuSans-72" x="962.875"/>
     <use xlink:href="#DejaVuSans-6d" x="1002.238281"/>
     <use xlink:href="#DejaVuSans-61" x="1099.650391"/>
     <use xlink:href="#DejaVuSans-6e" x="1160.929688"/>
     <use xlink:href="#DejaVuSans-63" x="1224.308594"/>
     <use xlink:href="#DejaVuSans-65" x="1279.289062"/>
     <use xlink:href="#DejaVuSans-20" x="1340.8125"/>
     <use xlink:href="#DejaVuSans-66" x="1372.599609"/>
     <use xlink:href="#DejaVuSans-6f" x="1407.804688"/>
     <use xlink:href="#DejaVuSans-72" x="1468.986328"/>
     <use xlink:href="#DejaVuSans-20" x="1510.099609"/>
     <use xlink:href="#DejaVuSans-49" x="1541.886719"/>
     <use xlink:href="#DejaVuSans-57" x="1571.378906"/>
     <use xlink:href="#DejaVuSans-44" x="1670.255859"/>
    </g>
   </g>
  </g>
 </g>
 <defs>
  <clipPath id="p02b4be1ee7">
   <rect x="59.24" y="26.88" width="753.8" height="363.16"/>
  </clipPath>
 </defs>
</svg>
