<?xml version="1.0" encoding="utf-8" standalone="no"?>
<!DOCTYPE svg PUBLIC "-//W3C//DTD SVG 1.1//EN"
  "http://www.w3.org/Graphics/SVG/1.1/DTD/svg11.dtd">
<svg xmlns:xlink="http://www.w3.org/1999/xlink" width="864pt" height="432pt" viewBox="0 0 864 432" xmlns="http://www.w3.org/2000/svg" version="1.1">
 <metadata>
  <rdf:RDF xmlns:dc="http://purl.org/dc/elements/1.1/" xmlns:cc="http://creativecommons.org/ns#" xmlns:rdf="http://www.w3.org/1999/02/22-rdf-syntax-ns#">
   <cc:Work>
    <dc:type rdf:resource="http://purl.org/dc/dcmitype/StillImage"/>
    <dc:date>2024-04-18T22:06:56.787132</dc:date>
    <dc:format>image/svg+xml</dc:format>
    <dc:creator>
     <cc:Agent>
      <dc:title>Matplotlib v3.8.2, https://matplotlib.org/</dc:title>
     </cc:Agent>
    </dc:creator>
   </cc:Work>
  </rdf:RDF>
 </metadata>
 <defs>
  <style type="text/css">*{stroke-linejoin: round; stroke-linecap: butt}</style>
 </defs>
 <g id="figure_1">
  <g id="patch_1">
   <path d="M 0 432 
L 864 432 
L 864 0 
L 0 0 
z
" style="fill: #ffffff"/>
  </g>
  <g id="axes_1">
   <g id="patch_2">
    <path d="M 52.94 390.04 
L 813.04 390.04 
L 813.04 26.88 
L 52.94 26.88 
z
" style="fill: #ffffff"/>
   </g>
   <g id="matplotlib.axis_1">
    <g id="xtick_1">
     <g id="line2d_1">
      <path d="M 87.110746 390.04 
L 87.110746 26.88 
" clip-path="url(#p226662c442)" style="fill: none; stroke-dasharray: 1.85,0.8; stroke-dashoffset: 0; stroke: #b0b0b0; stroke-opacity: 0.5; stroke-width: 0.5"/>
     </g>
     <g id="line2d_2">
      <defs>
       <path id="m1fa1468f2e" d="M 0 0 
L 0 3.5 
" style="stroke: #000000; stroke-width: 0.8"/>
      </defs>
      <g>
       <use xlink:href="#m1fa1468f2e" x="87.110746" y="390.04" style="stroke: #000000; stroke-width: 0.8"/>
      </g>
     </g>
     <g id="text_1">
      <!-- 2019 -->
      <g transform="translate(74.385746 404.638438) scale(0.1 -0.1)">
       <defs>
        <path id="DejaVuSans-32" d="M 1228 531 
L 3431 531 
L 3431 0 
L 469 0 
L 469 531 
Q 828 903 1448 1529 
Q 2069 2156 2228 2338 
Q 2531 2678 2651 2914 
Q 2772 3150 2772 3378 
Q 2772 3750 2511 3984 
Q 2250 4219 1831 4219 
Q 1534 4219 1204 4116 
Q 875 4013 500 3803 
L 500 4441 
Q 881 4594 1212 4672 
Q 1544 4750 1819 4750 
Q 2544 4750 2975 4387 
Q 3406 4025 3406 3419 
Q 3406 3131 3298 2873 
Q 3191 2616 2906 2266 
Q 2828 2175 2409 1742 
Q 1991 1309 1228 531 
z
" transform="scale(0.015625)"/>
        <path id="DejaVuSans-30" d="M 2034 4250 
Q 1547 4250 1301 3770 
Q 1056 3291 1056 2328 
Q 1056 1369 1301 889 
Q 1547 409 2034 409 
Q 2525 409 2770 889 
Q 3016 1369 3016 2328 
Q 3016 3291 2770 3770 
Q 2525 4250 2034 4250 
z
M 2034 4750 
Q 2819 4750 3233 4129 
Q 3647 3509 3647 2328 
Q 3647 1150 3233 529 
Q 2819 -91 2034 -91 
Q 1250 -91 836 529 
Q 422 1150 422 2328 
Q 422 3509 836 4129 
Q 1250 4750 2034 4750 
z
" transform="scale(0.015625)"/>
        <path id="DejaVuSans-31" d="M 794 531 
L 1825 531 
L 1825 4091 
L 703 3866 
L 703 4441 
L 1819 4666 
L 2450 4666 
L 2450 531 
L 3481 531 
L 3481 0 
L 794 0 
L 794 531 
z
" transform="scale(0.015625)"/>
        <path id="DejaVuSans-39" d="M 703 97 
L 703 672 
Q 941 559 1184 500 
Q 1428 441 1663 441 
Q 2288 441 2617 861 
Q 2947 1281 2994 2138 
Q 2813 1869 2534 1725 
Q 2256 1581 1919 1581 
Q 1219 1581 811 2004 
Q 403 2428 403 3163 
Q 403 3881 828 4315 
Q 1253 4750 1959 4750 
Q 2769 4750 3195 4129 
Q 3622 3509 3622 2328 
Q 3622 1225 3098 567 
Q 2575 -91 1691 -91 
Q 1453 -91 1209 -44 
Q 966 3 703 97 
z
M 1959 2075 
Q 2384 2075 2632 2365 
Q 2881 2656 2881 3163 
Q 2881 3666 2632 3958 
Q 2384 4250 1959 4250 
Q 1534 4250 1286 3958 
Q 1038 3666 1038 3163 
Q 1038 2656 1286 2365 
Q 1534 2075 1959 2075 
z
" transform="scale(0.015625)"/>
       </defs>
       <use xlink:href="#DejaVuSans-32"/>
       <use xlink:href="#DejaVuSans-30" x="63.623047"/>
       <use xlink:href="#DejaVuSans-31" x="127.246094"/>
       <use xlink:href="#DejaVuSans-39" x="190.869141"/>
      </g>
     </g>
    </g>
    <g id="xtick_2">
     <g id="line2d_3">
      <path d="M 225.538299 390.04 
L 225.538299 26.88 
" clip-path="url(#p226662c442)" style="fill: none; stroke-dasharray: 1.85,0.8; stroke-dashoffset: 0; stroke: #b0b0b0; stroke-opacity: 0.5; stroke-width: 0.5"/>
     </g>
     <g id="line2d_4">
      <g>
       <use xlink:href="#m1fa1468f2e" x="225.538299" y="390.04" style="stroke: #000000; stroke-width: 0.8"/>
      </g>
     </g>
     <g id="text_2">
      <!-- 2020 -->
      <g transform="translate(212.813299 404.638438) scale(0.1 -0.1)">
       <use xlink:href="#DejaVuSans-32"/>
       <use xlink:href="#DejaVuSans-30" x="63.623047"/>
       <use xlink:href="#DejaVuSans-32" x="127.246094"/>
       <use xlink:href="#DejaVuSans-30" x="190.869141"/>
      </g>
     </g>
    </g>
    <g id="xtick_3">
     <g id="line2d_5">
      <path d="M 364.345104 390.04 
L 364.345104 26.88 
" clip-path="url(#p226662c442)" style="fill: none; stroke-dasharray: 1.85,0.8; stroke-dashoffset: 0; stroke: #b0b0b0; stroke-opacity: 0.5; stroke-width: 0.5"/>
     </g>
     <g id="line2d_6">
      <g>
       <use xlink:href="#m1fa1468f2e" x="364.345104" y="390.04" style="stroke: #000000; stroke-width: 0.8"/>
      </g>
     </g>
     <g id="text_3">
      <!-- 2021 -->
      <g transform="translate(351.620104 404.638438) scale(0.1 -0.1)">
       <use xlink:href="#DejaVuSans-32"/>
       <use xlink:href="#DejaVuSans-30" x="63.623047"/>
       <use xlink:href="#DejaVuSans-32" x="127.246094"/>
       <use xlink:href="#DejaVuSans-31" x="190.869141"/>
      </g>
     </g>
    </g>
    <g id="xtick_4">
     <g id="line2d_7">
      <path d="M 502.772656 390.04 
L 502.772656 26.88 
" clip-path="url(#p226662c442)" style="fill: none; stroke-dasharray: 1.85,0.8; stroke-dashoffset: 0; stroke: #b0b0b0; stroke-opacity: 0.5; stroke-width: 0.5"/>
     </g>
     <g id="line2d_8">
      <g>
       <use xlink:href="#m1fa1468f2e" x="502.772656" y="390.04" style="stroke: #000000; stroke-width: 0.8"/>
      </g>
     </g>
     <g id="text_4">
      <!-- 2022 -->
      <g transform="translate(490.047656 404.638438) scale(0.1 -0.1)">
       <use xlink:href="#DejaVuSans-32"/>
       <use xlink:href="#DejaVuSans-30" x="63.623047"/>
       <use xlink:href="#DejaVuSans-32" x="127.246094"/>
       <use xlink:href="#DejaVuSans-32" x="190.869141"/>
      </g>
     </g>
    </g>
    <g id="xtick_5">
     <g id="line2d_9">
      <path d="M 641.200209 390.04 
L 641.200209 26.88 
" clip-path="url(#p226662c442)" style="fill: none; stroke-dasharray: 1.85,0.8; stroke-dashoffset: 0; stroke: #b0b0b0; stroke-opacity: 0.5; stroke-width: 0.5"/>
     </g>
     <g id="line2d_10">
      <g>
       <use xlink:href="#m1fa1468f2e" x="641.200209" y="390.04" style="stroke: #000000; stroke-width: 0.8"/>
      </g>
     </g>
     <g id="text_5">
      <!-- 2023 -->
      <g transform="translate(628.475209 404.638438) scale(0.1 -0.1)">
       <defs>
        <path id="DejaVuSans-33" d="M 2597 2516 
Q 3050 2419 3304 2112 
Q 3559 1806 3559 1356 
Q 3559 666 3084 287 
Q 2609 -91 1734 -91 
Q 1441 -91 1130 -33 
Q 819 25 488 141 
L 488 750 
Q 750 597 1062 519 
Q 1375 441 1716 441 
Q 2309 441 2620 675 
Q 2931 909 2931 1356 
Q 2931 1769 2642 2001 
Q 2353 2234 1838 2234 
L 1294 2234 
L 1294 2753 
L 1863 2753 
Q 2328 2753 2575 2939 
Q 2822 3125 2822 3475 
Q 2822 3834 2567 4026 
Q 2313 4219 1838 4219 
Q 1578 4219 1281 4162 
Q 984 4106 628 3988 
L 628 4550 
Q 988 4650 1302 4700 
Q 1616 4750 1894 4750 
Q 2613 4750 3031 4423 
Q 3450 4097 3450 3541 
Q 3450 3153 3228 2886 
Q 3006 2619 2597 2516 
z
" transform="scale(0.015625)"/>
       </defs>
       <use xlink:href="#DejaVuSans-32"/>
       <use xlink:href="#DejaVuSans-30" x="63.623047"/>
       <use xlink:href="#DejaVuSans-32" x="127.246094"/>
       <use xlink:href="#DejaVuSans-33" x="190.869141"/>
      </g>
     </g>
    </g>
    <g id="xtick_6">
     <g id="line2d_11">
      <path d="M 779.627761 390.04 
L 779.627761 26.88 
" clip-path="url(#p226662c442)" style="fill: none; stroke-dasharray: 1.85,0.8; stroke-dashoffset: 0; stroke: #b0b0b0; stroke-opacity: 0.5; stroke-width: 0.5"/>
     </g>
     <g id="line2d_12">
      <g>
       <use xlink:href="#m1fa1468f2e" x="779.627761" y="390.04" style="stroke: #000000; stroke-width: 0.8"/>
      </g>
     </g>
     <g id="text_6">
      <!-- 2024 -->
      <g transform="translate(766.902761 404.638438) scale(0.1 -0.1)">
       <defs>
        <path id="DejaVuSans-34" d="M 2419 4116 
L 825 1625 
L 2419 1625 
L 2419 4116 
z
M 2253 4666 
L 3047 4666 
L 3047 1625 
L 3713 1625 
L 3713 1100 
L 3047 1100 
L 3047 0 
L 2419 0 
L 2419 1100 
L 313 1100 
L 313 1709 
L 2253 4666 
z
" transform="scale(0.015625)"/>
       </defs>
       <use xlink:href="#DejaVuSans-32"/>
       <use xlink:href="#DejaVuSans-30" x="63.623047"/>
       <use xlink:href="#DejaVuSans-32" x="127.246094"/>
       <use xlink:href="#DejaVuSans-34" x="190.869141"/>
      </g>
     </g>
    </g>
    <g id="text_7">
     <!-- Date -->
     <g transform="translate(421.039219 418.316562) scale(0.1 -0.1)">
      <defs>
       <path id="DejaVuSans-44" d="M 1259 4147 
L 1259 519 
L 2022 519 
Q 2988 519 3436 956 
Q 3884 1394 3884 2338 
Q 3884 3275 3436 3711 
Q 2988 4147 2022 4147 
L 1259 4147 
z
M 628 4666 
L 1925 4666 
Q 3281 4666 3915 4102 
Q 4550 3538 4550 2338 
Q 4550 1131 3912 565 
Q 3275 0 1925 0 
L 628 0 
L 628 4666 
z
" transform="scale(0.015625)"/>
       <path id="DejaVuSans-61" d="M 2194 1759 
Q 1497 1759 1228 1600 
Q 959 1441 959 1056 
Q 959 750 1161 570 
Q 1363 391 1709 391 
Q 2188 391 2477 730 
Q 2766 1069 2766 1631 
L 2766 1759 
L 2194 1759 
z
M 3341 1997 
L 3341 0 
L 2766 0 
L 2766 531 
Q 2569 213 2275 61 
Q 1981 -91 1556 -91 
Q 1019 -91 701 211 
Q 384 513 384 1019 
Q 384 1609 779 1909 
Q 1175 2209 1959 2209 
L 2766 2209 
L 2766 2266 
Q 2766 2663 2505 2880 
Q 2244 3097 1772 3097 
Q 1472 3097 1187 3025 
Q 903 2953 641 2809 
L 641 3341 
Q 956 3463 1253 3523 
Q 1550 3584 1831 3584 
Q 2591 3584 2966 3190 
Q 3341 2797 3341 1997 
z
" transform="scale(0.015625)"/>
       <path id="DejaVuSans-74" d="M 1172 4494 
L 1172 3500 
L 2356 3500 
L 2356 3053 
L 1172 3053 
L 1172 1153 
Q 1172 725 1289 603 
Q 1406 481 1766 481 
L 2356 481 
L 2356 0 
L 1766 0 
Q 1100 0 847 248 
Q 594 497 594 1153 
L 594 3053 
L 172 3053 
L 172 3500 
L 594 3500 
L 594 4494 
L 1172 4494 
z
" transform="scale(0.015625)"/>
       <path id="DejaVuSans-65" d="M 3597 1894 
L 3597 1613 
L 953 1613 
Q 991 1019 1311 708 
Q 1631 397 2203 397 
Q 2534 397 2845 478 
Q 3156 559 3463 722 
L 3463 178 
Q 3153 47 2828 -22 
Q 2503 -91 2169 -91 
Q 1331 -91 842 396 
Q 353 884 353 1716 
Q 353 2575 817 3079 
Q 1281 3584 2069 3584 
Q 2775 3584 3186 3129 
Q 3597 2675 3597 1894 
z
M 3022 2063 
Q 3016 2534 2758 2815 
Q 2500 3097 2075 3097 
Q 1594 3097 1305 2825 
Q 1016 2553 972 2059 
L 3022 2063 
z
" transform="scale(0.015625)"/>
      </defs>
      <use xlink:href="#DejaVuSans-44"/>
      <use xlink:href="#DejaVuSans-61" x="77.001953"/>
      <use xlink:href="#DejaVuSans-74" x="138.28125"/>
      <use xlink:href="#DejaVuSans-65" x="177.490234"/>
     </g>
    </g>
   </g>
   <g id="matplotlib.axis_2">
    <g id="ytick_1">
     <g id="line2d_13">
      <path d="M 52.94 382.429291 
L 813.04 382.429291 
" clip-path="url(#p226662c442)" style="fill: none; stroke-dasharray: 1.85,0.8; stroke-dashoffset: 0; stroke: #b0b0b0; stroke-opacity: 0.5; stroke-width: 0.5"/>
     </g>
     <g id="line2d_14">
      <defs>
       <path id="m814b5cd5dd" d="M 0 0 
L -3.5 0 
" style="stroke: #000000; stroke-width: 0.8"/>
      </defs>
      <g>
       <use xlink:href="#m814b5cd5dd" x="52.94" y="382.429291" style="stroke: #000000; stroke-width: 0.8"/>
      </g>
     </g>
     <g id="text_8">
      <!-- −20 -->
      <g style="fill: #d62728" transform="translate(24.835313 386.22851) scale(0.1 -0.1)">
       <defs>
        <path id="DejaVuSans-2212" d="M 678 2272 
L 4684 2272 
L 4684 1741 
L 678 1741 
L 678 2272 
z
" transform="scale(0.015625)"/>
       </defs>
       <use xlink:href="#DejaVuSans-2212"/>
       <use xlink:href="#DejaVuSans-32" x="83.789062"/>
       <use xlink:href="#DejaVuSans-30" x="147.412109"/>
      </g>
     </g>
    </g>
    <g id="ytick_2">
     <g id="line2d_15">
      <path d="M 52.94 340.41482 
L 813.04 340.41482 
" clip-path="url(#p226662c442)" style="fill: none; stroke-dasharray: 1.85,0.8; stroke-dashoffset: 0; stroke: #b0b0b0; stroke-opacity: 0.5; stroke-width: 0.5"/>
     </g>
     <g id="line2d_16">
      <g>
       <use xlink:href="#m814b5cd5dd" x="52.94" y="340.41482" style="stroke: #000000; stroke-width: 0.8"/>
      </g>
     </g>
     <g id="text_9">
      <!-- −10 -->
      <g style="fill: #d62728" transform="translate(24.835313 344.214039) scale(0.1 -0.1)">
       <use xlink:href="#DejaVuSans-2212"/>
       <use xlink:href="#DejaVuSans-31" x="83.789062"/>
       <use xlink:href="#DejaVuSans-30" x="147.412109"/>
      </g>
     </g>
    </g>
    <g id="ytick_3">
     <g id="line2d_17">
      <path d="M 52.94 298.400349 
L 813.04 298.400349 
" clip-path="url(#p226662c442)" style="fill: none; stroke-dasharray: 1.85,0.8; stroke-dashoffset: 0; stroke: #b0b0b0; stroke-opacity: 0.5; stroke-width: 0.5"/>
     </g>
     <g id="line2d_18">
      <g>
       <use xlink:href="#m814b5cd5dd" x="52.94" y="298.400349" style="stroke: #000000; stroke-width: 0.8"/>
      </g>
     </g>
     <g id="text_10">
      <!-- 0 -->
      <g style="fill: #d62728" transform="translate(39.5775 302.199568) scale(0.1 -0.1)">
       <use xlink:href="#DejaVuSans-30"/>
      </g>
     </g>
    </g>
    <g id="ytick_4">
     <g id="line2d_19">
      <path d="M 52.94 256.385878 
L 813.04 256.385878 
" clip-path="url(#p226662c442)" style="fill: none; stroke-dasharray: 1.85,0.8; stroke-dashoffset: 0; stroke: #b0b0b0; stroke-opacity: 0.5; stroke-width: 0.5"/>
     </g>
     <g id="line2d_20">
      <g>
       <use xlink:href="#m814b5cd5dd" x="52.94" y="256.385878" style="stroke: #000000; stroke-width: 0.8"/>
      </g>
     </g>
     <g id="text_11">
      <!-- 10 -->
      <g style="fill: #d62728" transform="translate(33.215 260.185097) scale(0.1 -0.1)">
       <use xlink:href="#DejaVuSans-31"/>
       <use xlink:href="#DejaVuSans-30" x="63.623047"/>
      </g>
     </g>
    </g>
    <g id="ytick_5">
     <g id="line2d_21">
      <path d="M 52.94 214.371407 
L 813.04 214.371407 
" clip-path="url(#p226662c442)" style="fill: none; stroke-dasharray: 1.85,0.8; stroke-dashoffset: 0; stroke: #b0b0b0; stroke-opacity: 0.5; stroke-width: 0.5"/>
     </g>
     <g id="line2d_22">
      <g>
       <use xlink:href="#m814b5cd5dd" x="52.94" y="214.371407" style="stroke: #000000; stroke-width: 0.8"/>
      </g>
     </g>
     <g id="text_12">
      <!-- 20 -->
      <g style="fill: #d62728" transform="translate(33.215 218.170626) scale(0.1 -0.1)">
       <use xlink:href="#DejaVuSans-32"/>
       <use xlink:href="#DejaVuSans-30" x="63.623047"/>
      </g>
     </g>
    </g>
    <g id="ytick_6">
     <g id="line2d_23">
      <path d="M 52.94 172.356936 
L 813.04 172.356936 
" clip-path="url(#p226662c442)" style="fill: none; stroke-dasharray: 1.85,0.8; stroke-dashoffset: 0; stroke: #b0b0b0; stroke-opacity: 0.5; stroke-width: 0.5"/>
     </g>
     <g id="line2d_24">
      <g>
       <use xlink:href="#m814b5cd5dd" x="52.94" y="172.356936" style="stroke: #000000; stroke-width: 0.8"/>
      </g>
     </g>
     <g id="text_13">
      <!-- 30 -->
      <g style="fill: #d62728" transform="translate(33.215 176.156155) scale(0.1 -0.1)">
       <use xlink:href="#DejaVuSans-33"/>
       <use xlink:href="#DejaVuSans-30" x="63.623047"/>
      </g>
     </g>
    </g>
    <g id="ytick_7">
     <g id="line2d_25">
      <path d="M 52.94 130.342465 
L 813.04 130.342465 
" clip-path="url(#p226662c442)" style="fill: none; stroke-dasharray: 1.85,0.8; stroke-dashoffset: 0; stroke: #b0b0b0; stroke-opacity: 0.5; stroke-width: 0.5"/>
     </g>
     <g id="line2d_26">
      <g>
       <use xlink:href="#m814b5cd5dd" x="52.94" y="130.342465" style="stroke: #000000; stroke-width: 0.8"/>
      </g>
     </g>
     <g id="text_14">
      <!-- 40 -->
      <g style="fill: #d62728" transform="translate(33.215 134.141684) scale(0.1 -0.1)">
       <use xlink:href="#DejaVuSans-34"/>
       <use xlink:href="#DejaVuSans-30" x="63.623047"/>
      </g>
     </g>
    </g>
    <g id="ytick_8">
     <g id="line2d_27">
      <path d="M 52.94 88.327994 
L 813.04 88.327994 
" clip-path="url(#p226662c442)" style="fill: none; stroke-dasharray: 1.85,0.8; stroke-dashoffset: 0; stroke: #b0b0b0; stroke-opacity: 0.5; stroke-width: 0.5"/>
     </g>
     <g id="line2d_28">
      <g>
       <use xlink:href="#m814b5cd5dd" x="52.94" y="88.327994" style="stroke: #000000; stroke-width: 0.8"/>
      </g>
     </g>
     <g id="text_15">
      <!-- 50 -->
      <g style="fill: #d62728" transform="translate(33.215 92.127213) scale(0.1 -0.1)">
       <defs>
        <path id="DejaVuSans-35" d="M 691 4666 
L 3169 4666 
L 3169 4134 
L 1269 4134 
L 1269 2991 
Q 1406 3038 1543 3061 
Q 1681 3084 1819 3084 
Q 2600 3084 3056 2656 
Q 3513 2228 3513 1497 
Q 3513 744 3044 326 
Q 2575 -91 1722 -91 
Q 1428 -91 1123 -41 
Q 819 9 494 109 
L 494 744 
Q 775 591 1075 516 
Q 1375 441 1709 441 
Q 2250 441 2565 725 
Q 2881 1009 2881 1497 
Q 2881 1984 2565 2268 
Q 2250 2553 1709 2553 
Q 1456 2553 1204 2497 
Q 953 2441 691 2322 
L 691 4666 
z
" transform="scale(0.015625)"/>
       </defs>
       <use xlink:href="#DejaVuSans-35"/>
       <use xlink:href="#DejaVuSans-30" x="63.623047"/>
      </g>
     </g>
    </g>
    <g id="ytick_9">
     <g id="line2d_29">
      <path d="M 52.94 46.313523 
L 813.04 46.313523 
" clip-path="url(#p226662c442)" style="fill: none; stroke-dasharray: 1.85,0.8; stroke-dashoffset: 0; stroke: #b0b0b0; stroke-opacity: 0.5; stroke-width: 0.5"/>
     </g>
     <g id="line2d_30">
      <g>
       <use xlink:href="#m814b5cd5dd" x="52.94" y="46.313523" style="stroke: #000000; stroke-width: 0.8"/>
      </g>
     </g>
     <g id="text_16">
      <!-- 60 -->
      <g style="fill: #d62728" transform="translate(33.215 50.112742) scale(0.1 -0.1)">
       <defs>
        <path id="DejaVuSans-36" d="M 2113 2584 
Q 1688 2584 1439 2293 
Q 1191 2003 1191 1497 
Q 1191 994 1439 701 
Q 1688 409 2113 409 
Q 2538 409 2786 701 
Q 3034 994 3034 1497 
Q 3034 2003 2786 2293 
Q 2538 2584 2113 2584 
z
M 3366 4563 
L 3366 3988 
Q 3128 4100 2886 4159 
Q 2644 4219 2406 4219 
Q 1781 4219 1451 3797 
Q 1122 3375 1075 2522 
Q 1259 2794 1537 2939 
Q 1816 3084 2150 3084 
Q 2853 3084 3261 2657 
Q 3669 2231 3669 1497 
Q 3669 778 3244 343 
Q 2819 -91 2113 -91 
Q 1303 -91 875 529 
Q 447 1150 447 2328 
Q 447 3434 972 4092 
Q 1497 4750 2381 4750 
Q 2619 4750 2861 4703 
Q 3103 4656 3366 4563 
z
" transform="scale(0.015625)"/>
       </defs>
       <use xlink:href="#DejaVuSans-36"/>
       <use xlink:href="#DejaVuSans-30" x="63.623047"/>
      </g>
     </g>
    </g>
    <g id="text_17">
     <!-- Returns (%) -->
     <g style="fill: #d62728" transform="translate(18.755625 237.8975) rotate(-90) scale(0.1 -0.1)">
      <defs>
       <path id="DejaVuSans-52" d="M 2841 2188 
Q 3044 2119 3236 1894 
Q 3428 1669 3622 1275 
L 4263 0 
L 3584 0 
L 2988 1197 
Q 2756 1666 2539 1819 
Q 2322 1972 1947 1972 
L 1259 1972 
L 1259 0 
L 628 0 
L 628 4666 
L 2053 4666 
Q 2853 4666 3247 4331 
Q 3641 3997 3641 3322 
Q 3641 2881 3436 2590 
Q 3231 2300 2841 2188 
z
M 1259 4147 
L 1259 2491 
L 2053 2491 
Q 2509 2491 2742 2702 
Q 2975 2913 2975 3322 
Q 2975 3731 2742 3939 
Q 2509 4147 2053 4147 
L 1259 4147 
z
" transform="scale(0.015625)"/>
       <path id="DejaVuSans-75" d="M 544 1381 
L 544 3500 
L 1119 3500 
L 1119 1403 
Q 1119 906 1312 657 
Q 1506 409 1894 409 
Q 2359 409 2629 706 
Q 2900 1003 2900 1516 
L 2900 3500 
L 3475 3500 
L 3475 0 
L 2900 0 
L 2900 538 
Q 2691 219 2414 64 
Q 2138 -91 1772 -91 
Q 1169 -91 856 284 
Q 544 659 544 1381 
z
M 1991 3584 
L 1991 3584 
z
" transform="scale(0.015625)"/>
       <path id="DejaVuSans-72" d="M 2631 2963 
Q 2534 3019 2420 3045 
Q 2306 3072 2169 3072 
Q 1681 3072 1420 2755 
Q 1159 2438 1159 1844 
L 1159 0 
L 581 0 
L 581 3500 
L 1159 3500 
L 1159 2956 
Q 1341 3275 1631 3429 
Q 1922 3584 2338 3584 
Q 2397 3584 2469 3576 
Q 2541 3569 2628 3553 
L 2631 2963 
z
" transform="scale(0.015625)"/>
       <path id="DejaVuSans-6e" d="M 3513 2113 
L 3513 0 
L 2938 0 
L 2938 2094 
Q 2938 2591 2744 2837 
Q 2550 3084 2163 3084 
Q 1697 3084 1428 2787 
Q 1159 2491 1159 1978 
L 1159 0 
L 581 0 
L 581 3500 
L 1159 3500 
L 1159 2956 
Q 1366 3272 1645 3428 
Q 1925 3584 2291 3584 
Q 2894 3584 3203 3211 
Q 3513 2838 3513 2113 
z
" transform="scale(0.015625)"/>
       <path id="DejaVuSans-73" d="M 2834 3397 
L 2834 2853 
Q 2591 2978 2328 3040 
Q 2066 3103 1784 3103 
Q 1356 3103 1142 2972 
Q 928 2841 928 2578 
Q 928 2378 1081 2264 
Q 1234 2150 1697 2047 
L 1894 2003 
Q 2506 1872 2764 1633 
Q 3022 1394 3022 966 
Q 3022 478 2636 193 
Q 2250 -91 1575 -91 
Q 1294 -91 989 -36 
Q 684 19 347 128 
L 347 722 
Q 666 556 975 473 
Q 1284 391 1588 391 
Q 1994 391 2212 530 
Q 2431 669 2431 922 
Q 2431 1156 2273 1281 
Q 2116 1406 1581 1522 
L 1381 1569 
Q 847 1681 609 1914 
Q 372 2147 372 2553 
Q 372 3047 722 3315 
Q 1072 3584 1716 3584 
Q 2034 3584 2315 3537 
Q 2597 3491 2834 3397 
z
" transform="scale(0.015625)"/>
       <path id="DejaVuSans-20" transform="scale(0.015625)"/>
       <path id="DejaVuSans-28" d="M 1984 4856 
Q 1566 4138 1362 3434 
Q 1159 2731 1159 2009 
Q 1159 1288 1364 580 
Q 1569 -128 1984 -844 
L 1484 -844 
Q 1016 -109 783 600 
Q 550 1309 550 2009 
Q 550 2706 781 3412 
Q 1013 4119 1484 4856 
L 1984 4856 
z
" transform="scale(0.015625)"/>
       <path id="DejaVuSans-25" d="M 4653 2053 
Q 4381 2053 4226 1822 
Q 4072 1591 4072 1178 
Q 4072 772 4226 539 
Q 4381 306 4653 306 
Q 4919 306 5073 539 
Q 5228 772 5228 1178 
Q 5228 1588 5073 1820 
Q 4919 2053 4653 2053 
z
M 4653 2450 
Q 5147 2450 5437 2106 
Q 5728 1763 5728 1178 
Q 5728 594 5436 251 
Q 5144 -91 4653 -91 
Q 4153 -91 3862 251 
Q 3572 594 3572 1178 
Q 3572 1766 3864 2108 
Q 4156 2450 4653 2450 
z
M 1428 4353 
Q 1159 4353 1004 4120 
Q 850 3888 850 3481 
Q 850 3069 1003 2837 
Q 1156 2606 1428 2606 
Q 1700 2606 1854 2837 
Q 2009 3069 2009 3481 
Q 2009 3884 1853 4118 
Q 1697 4353 1428 4353 
z
M 4250 4750 
L 4750 4750 
L 1831 -91 
L 1331 -91 
L 4250 4750 
z
M 1428 4750 
Q 1922 4750 2215 4408 
Q 2509 4066 2509 3481 
Q 2509 2891 2217 2550 
Q 1925 2209 1428 2209 
Q 931 2209 642 2551 
Q 353 2894 353 3481 
Q 353 4063 643 4406 
Q 934 4750 1428 4750 
z
" transform="scale(0.015625)"/>
       <path id="DejaVuSans-29" d="M 513 4856 
L 1013 4856 
Q 1481 4119 1714 3412 
Q 1947 2706 1947 2009 
Q 1947 1309 1714 600 
Q 1481 -109 1013 -844 
L 513 -844 
Q 928 -128 1133 580 
Q 1338 1288 1338 2009 
Q 1338 2731 1133 3434 
Q 928 4138 513 4856 
z
" transform="scale(0.015625)"/>
      </defs>
      <use xlink:href="#DejaVuSans-52"/>
      <use xlink:href="#DejaVuSans-65" x="64.982422"/>
      <use xlink:href="#DejaVuSans-74" x="126.505859"/>
      <use xlink:href="#DejaVuSans-75" x="165.714844"/>
      <use xlink:href="#DejaVuSans-72" x="229.09375"/>
      <use xlink:href="#DejaVuSans-6e" x="268.457031"/>
      <use xlink:href="#DejaVuSans-73" x="331.835938"/>
      <use xlink:href="#DejaVuSans-20" x="383.935547"/>
      <use xlink:href="#DejaVuSans-28" x="415.722656"/>
      <use xlink:href="#DejaVuSans-25" x="454.736328"/>
      <use xlink:href="#DejaVuSans-29" x="549.755859"/>
     </g>
    </g>
   </g>
   <g id="line2d_31">
    <path d="M 87.49 298.400349 
L 87.869254 298.400349 
L 88.248507 282.706822 
L 95.075071 282.706822 
L 95.454325 283.907641 
L 95.833578 281.294093 
L 96.212832 275.672077 
L 97.350593 278.048029 
L 97.729846 279.101154 
L 98.488353 270.502777 
L 98.867607 270.143173 
L 100.005368 264.79407 
L 100.384621 264.312459 
L 100.763875 264.883971 
L 101.143128 268.611647 
L 101.522382 268.130035 
L 102.660143 264.373463 
L 103.039396 258.693653 
L 103.797903 256.349809 
L 104.177157 248.984358 
L 105.694171 247.693638 
L 106.073425 245.468591 
L 106.452678 247.27303 
L 106.831932 243.185751 
L 107.969693 243.063742 
L 108.348946 246.341914 
L 108.7282 245.6805 
L 109.107453 247.301927 
L 109.486707 242.916048 
L 110.624468 247.212026 
L 111.003721 249.404965 
L 111.382975 258.603752 
L 111.762228 262.630028 
L 112.141482 262.748825 
L 113.279243 254.786176 
L 113.658496 254.54537 
L 114.03775 252.712034 
L 114.417003 254.606374 
L 114.796257 253.373447 
L 115.934018 250.397086 
L 116.313271 252.773038 
L 116.692525 256.65483 
L 117.071778 250.596152 
L 117.451032 267.622738 
L 118.588793 265.632075 
L 118.968046 260.87375 
L 119.3473 262.649292 
L 119.726553 258.581277 
L 120.105807 257.165338 
L 121.243568 252.134099 
L 121.622821 253.338129 
L 122.381328 248.637597 
L 122.760582 244.238875 
L 123.898342 245.022297 
L 124.277596 250.808061 
L 124.65685 244.450785 
L 125.036103 245.051194 
L 125.415357 243.333445 
L 126.553117 244.871392 
L 126.932371 243.757264 
L 127.311625 248.094981 
L 127.690878 249.482023 
L 129.207892 250.718161 
L 129.587146 243.667363 
L 129.9664 242.19042 
L 130.345653 246.136426 
L 130.724907 241.557903 
L 131.862667 239.26543 
L 132.241921 241.496898 
L 132.621175 246.017629 
L 133.000428 243.815057 
L 133.379682 234.7447 
L 134.517442 234.202084 
L 134.896696 243.78616 
L 135.655203 247.825279 
L 136.034457 246.528137 
L 137.172217 261.56406 
L 137.551471 255.810404 
L 137.930724 254.304564 
L 138.309978 251.411682 
L 138.689232 257.919864 
L 139.826992 261.114556 
L 140.206246 254.965977 
L 140.585499 258.854191 
L 140.964753 268.316259 
L 141.344007 264.097339 
L 142.861021 267.712638 
L 143.240274 271.478843 
L 143.619528 272.714981 
L 143.998782 278.95346 
L 145.136542 277.415512 
L 145.515796 265.994889 
L 145.895049 265.904989 
L 146.274303 267.080122 
L 146.653557 267.080122 
L 147.791317 264.417742 
L 149.308332 264.417742 
L 150.446092 261.283055 
L 151.583853 261.283055 
L 151.963106 265.228442 
L 153.100867 270.73385 
L 153.480121 273.472486 
L 153.859374 274.501038 
L 154.238628 266.169457 
L 154.617881 260.664048 
L 155.755642 258.897691 
L 156.134896 261.6926 
L 156.514149 258.42562 
L 157.272656 257.187606 
L 158.410417 261.576927 
L 159.168924 260.163841 
L 159.548178 262.399143 
L 159.927431 258.866428 
L 161.065192 261.283055 
L 161.444446 261.429991 
L 161.823699 264.696971 
L 162.202953 262.990013 
L 162.582206 265.60985 
L 163.719967 266.022521 
L 164.099221 263.01815 
L 164.478474 255.480648 
L 164.857728 261.07672 
L 165.236981 255.658847 
L 166.374742 258.750755 
L 166.753996 253.77369 
L 167.133249 257.540878 
L 167.891756 269.261365 
L 169.029517 282.748209 
L 169.408771 278.743423 
L 169.788024 278.859096 
L 170.167278 269.380164 
L 170.546531 275.032508 
L 171.684292 280.775516 
L 172.063546 276.064186 
L 172.442799 288.42869 
L 172.822053 290.138774 
L 173.201306 280.891189 
L 174.339067 276.476858 
L 174.718321 279.362429 
L 175.097574 275.739051 
L 175.476828 276.770729 
L 175.856081 290.313847 
L 176.993842 285.602518 
L 177.373095 292.020805 
L 177.752349 287.046867 
L 178.131603 279.478102 
L 180.786378 279.478102 
L 181.165631 281.490259 
L 185.716674 281.490259 
L 186.095928 283.612871 
L 186.475181 284.534843 
L 187.612942 284.869836 
L 187.992195 291.415543 
L 188.371449 286.734533 
L 189.129956 294.972992 
L 190.267717 294.46902 
L 190.64697 302.790487 
L 191.026224 305.929936 
L 191.405477 304.554389 
L 191.784731 300.632301 
L 192.922492 301.361578 
L 193.301745 308.141484 
L 193.680999 306.264929 
L 194.060252 306.264929 
L 194.439506 299.287517 
L 198.611295 299.287517 
L 198.990549 298.772657 
L 201.26607 298.772657 
L 201.645324 300.165684 
L 202.024577 302.51854 
L 202.403831 295.428827 
L 203.920845 292.617291 
L 204.300099 295.08057 
L 205.058606 292.804161 
L 206.196367 293.608266 
L 206.57562 293.475192 
L 206.954874 295.292922 
L 207.334127 295.428827 
L 207.713381 293.234527 
L 208.851142 294.304779 
L 209.230395 292.724883 
L 209.988902 296.41697 
L 210.368156 295.106052 
L 211.505917 286.113668 
L 211.88517 285.819207 
L 212.264424 282.769838 
L 214.539945 291.198782 
L 214.919199 288.257004 
L 215.298452 287.826638 
L 215.677706 282.79532 
L 216.815467 283.624907 
L 217.19472 283.35876 
L 217.573974 283.491833 
L 217.953227 279.745951 
L 218.332481 281.430607 
L 219.470241 278.350092 
L 219.849495 276.150129 
L 220.228749 275.289397 
L 220.608002 273.381064 
L 220.987256 272.738346 
L 222.125016 271.852132 
L 222.50427 270.830013 
L 223.262777 270.830013 
L 223.642031 273.032807 
L 224.779791 274.162518 
L 225.159045 273.542451 
L 225.917552 273.24799 
L 226.296806 274.994937 
L 227.434566 274.403183 
L 227.81382 275.881151 
L 228.193074 274.510775 
L 228.572327 273.972817 
L 228.951581 275.637654 
L 230.089341 272.763829 
L 230.468595 271.127305 
L 230.847849 268.978307 
L 231.227102 263.17686 
L 231.606356 264.411331 
L 233.12337 268.171371 
L 233.881877 268.763124 
L 234.261131 274.295592 
L 235.398891 279.343898 
L 235.778145 275.69145 
L 236.157398 278.217019 
L 236.536652 278.217019 
L 236.915906 287.348139 
L 238.053666 282.540498 
L 238.812173 269.139694 
L 239.191427 270.158982 
L 239.570681 275.665968 
L 240.708441 273.168712 
L 241.466948 266.990695 
L 241.846202 265.807189 
L 242.225456 267.554135 
L 243.74247 268.519627 
L 244.121723 266.212073 
L 244.500977 265.110676 
L 246.017991 283.211529 
L 246.397245 298.682054 
L 246.776498 303.543491 
L 247.155752 318.156115 
L 247.535005 325.489325 
L 248.672766 312.864312 
L 249.05202 321.137532 
L 249.431273 309.8291 
L 249.810527 322.830683 
L 250.18978 330.673536 
L 252.086048 330.673536 
L 252.465302 373.532727 
L 253.982316 373.532727 
L 254.36157 357.718923 
L 254.740823 357.718923 
L 255.120077 343.644126 
L 255.49933 343.644126 
L 256.637091 349.189931 
L 257.016345 349.189931 
L 257.395598 344.598409 
L 267.635445 344.598409 
L 268.773205 329.767181 
L 270.29022 308.485852 
L 270.669473 288.31845 
L 275.599769 288.31845 
L 275.979023 302.720365 
L 276.358277 301.364849 
L 276.73753 294.722464 
L 277.875291 268.974771 
L 278.254544 277.851445 
L 278.633798 264.502635 
L 279.013052 263.687902 
L 279.392305 261.485633 
L 280.909319 248.307595 
L 281.288573 233.702886 
L 297.596476 233.702886 
L 297.97573 225.891369 
L 299.113491 232.134016 
L 299.492744 224.081695 
L 299.871998 205.952117 
L 300.251251 208.98405 
L 300.630505 207.484502 
L 301.768266 209.680921 
L 302.147519 202.464115 
L 302.526773 202.186827 
L 302.906026 201.665086 
L 303.28528 209.264988 
L 304.423041 203.963664 
L 304.802294 209.089858 
L 305.181548 197.863311 
L 305.560801 199.921085 
L 305.940055 204.802827 
L 307.457069 192.842924 
L 307.836323 182.386218 
L 308.215576 182.594185 
L 308.59483 174.089446 
L 309.732591 168.441511 
L 310.111844 171.61209 
L 310.491098 169.382834 
L 310.870351 170.532123 
L 311.249605 170.878734 
L 312.387366 168.054766 
L 312.766619 173.319605 
L 313.145873 173.286768 
L 313.525126 175.516024 
L 313.90438 179.525766 
L 315.042141 173.877831 
L 315.421394 173.286768 
L 315.800648 176.701798 
L 316.179901 175.377379 
L 316.559155 170.776575 
L 317.696915 176.668961 
L 318.076169 170.4628 
L 318.455423 166.102799 
L 318.834676 182.419055 
L 319.21393 185.837734 
L 320.730944 196.086473 
L 321.110198 188.172797 
L 321.489451 195.075829 
L 321.868705 198.560181 
L 323.006465 184.859926 
L 323.385719 183.849281 
L 323.764973 178.796058 
L 324.144226 182.732829 
L 324.52348 184.12657 
L 325.66124 202.85086 
L 326.040494 198.873955 
L 326.419748 214.358345 
L 326.799001 214.358345 
L 327.178255 206.16738 
L 328.316015 193.536146 
L 328.695269 195.914992 
L 329.074523 194.338824 
L 329.453776 185.976378 
L 329.83303 183.630369 
L 330.97079 168.864741 
L 331.350044 170.437261 
L 331.729297 158.47006 
L 335.14258 158.47006 
L 336.28034 165.163033 
L 336.659594 163.95463 
L 337.038847 168.716314 
L 337.418101 159.228909 
L 337.797355 155.988518 
L 339.314369 172.855815 
L 339.693622 189.654781 
L 340.072876 183.343031 
L 340.45213 190.413629 
L 341.58989 180.994556 
L 341.969144 165.749252 
L 342.348397 165.127069 
L 342.727651 149.640803 
L 343.106905 154.089598 
L 344.244665 133.633055 
L 344.623919 122.768213 
L 345.003172 123.009175 
L 345.382426 132.151322 
L 385.20405 132.151322 
L 385.583304 132.954168 
L 386.721065 112.141497 
L 387.100318 123.807855 
L 387.479572 130.24735 
L 387.858825 146.68897 
L 388.238079 134.565436 
L 389.37584 131.802864 
L 390.5136 95.646912 
L 390.892854 91.972776 
L 392.030615 89.745436 
L 392.409868 100.26049 
L 392.789122 95.404386 
L 393.168375 114.368838 
L 393.547629 109.808226 
L 394.68539 114.393927 
L 395.064643 136.307723 
L 395.443897 149.772122 
L 396.202404 125.6728 
L 397.340165 142.359733 
L 398.098672 124.786324 
L 398.477925 117.262429 
L 399.99494 113.956264 
L 400.374193 115.732004 
L 403.408222 115.732004 
L 403.787475 113.114149 
L 404.166729 112.142603 
L 405.30449 120.024165 
L 405.683743 132.276284 
L 406.062997 117.943881 
L 406.44225 120.427343 
L 406.821504 109.14677 
L 407.959265 102.805122 
L 408.717772 100.834032 
L 409.097025 103.127104 
L 409.476279 111.495839 
L 410.61404 108.525204 
L 410.993293 115.813199 
L 411.372547 118.215466 
L 411.7518 117.703094 
L 412.131054 110.146314 
L 413.268814 125.609855 
L 413.648068 127.499749 
L 414.027322 146.689883 
L 414.406575 136.162468 
L 414.785829 121.939259 
L 415.923589 121.130104 
L 416.682097 130.223998 
L 417.06135 126.312615 
L 418.957618 126.312615 
L 419.336872 115.264546 
L 421.991647 115.264546 
L 422.3709 120.309998 
L 423.887914 120.309998 
L 424.267168 113.97675 
L 425.025675 122.453393 
L 425.404929 116.160536 
L 426.542689 117.929645 
L 427.301196 120.91855 
L 427.68045 127.626084 
L 428.059704 141.03846 
L 429.197464 128.692396 
L 429.955971 124.063632 
L 430.335225 115.66777 
L 430.714479 114.655312 
L 431.852239 119.437561 
L 432.231493 122.297216 
L 432.610746 122.219128 
L 432.99 116.968348 
L 433.369254 122.687659 
L 434.886268 131.34202 
L 435.644775 142.158626 
L 436.024029 129.990281 
L 437.161789 129.497516 
L 437.920296 149.515103 
L 438.29955 152.738274 
L 438.678804 159.704308 
L 439.816564 168.075935 
L 440.195818 150.996092 
L 440.575071 141.221564 
L 440.954325 150.398311 
L 441.333578 147.745994 
L 442.471339 146.081901 
L 442.850593 152.762508 
L 443.229846 144.444735 
L 443.6091 140.026002 
L 443.988353 143.846954 
L 445.126114 146.706609 
L 445.505368 144.342412 
L 445.884621 144.342412 
L 446.263875 134.024431 
L 448.539396 134.024431 
L 448.91865 135.410196 
L 449.297903 140.715077 
L 450.435664 146.09845 
L 451.194171 158.01278 
L 451.573425 164.727786 
L 451.952678 155.373873 
L 453.090439 144.66126 
L 453.469693 139.01535 
L 453.848946 136.977301 
L 454.2282 136.977301 
L 454.607453 120.577606 
L 463.709539 120.577606 
L 464.088793 119.66797 
L 464.8473 99.598957 
L 465.226553 102.584501 
L 466.743568 102.584501 
L 467.122821 103.892267 
L 467.502075 109.655058 
L 467.881328 99.831008 
L 469.019089 105.452963 
L 469.398342 103.337544 
L 469.777596 106.53654 
L 470.15685 97.103383 
L 470.536103 101.776848 
L 471.673864 105.312126 
L 472.432371 99.023355 
L 472.811625 89.83738 
L 473.190878 91.814836 
L 474.328639 92.176987 
L 474.707892 89.83738 
L 475.087146 85.664027 
L 475.4664 84.048721 
L 475.845653 85.551933 
L 476.983414 79.539086 
L 477.362667 84.356261 
L 477.741921 96.016931 
L 478.121175 83.603218 
L 478.500428 83.769923 
L 479.638189 67.320819 
L 480.017442 65.958444 
L 480.396696 54.297774 
L 480.77595 54.54783 
L 481.155203 45.473949 
L 482.292964 43.387273 
L 482.672217 47.310569 
L 483.051471 57.887662 
L 483.430724 52.570374 
L 483.809978 51.903557 
L 484.947739 54.54783 
L 485.326992 53.323417 
L 485.706246 62.035147 
L 486.085499 64.817382 
L 486.464753 70.772745 
L 487.981767 74.641432 
L 488.361021 73.945873 
L 489.119528 98.244444 
L 490.257289 98.632462 
L 491.015796 124.934358 
L 491.395049 108.37316 
L 491.774303 120.898967 
L 492.912064 108.902015 
L 493.291317 94.763776 
L 493.670571 90.507071 
L 494.049824 104.728662 
L 494.429078 106.424446 
L 495.566839 115.368987 
L 495.946092 120.562684 
L 496.325346 111.072043 
L 496.704599 123.353542 
L 497.083853 117.883921 
L 498.221614 126.313978 
L 498.600867 109.396379 
L 498.980121 103.53299 
L 501.255642 103.53299 
L 501.634896 102.870739 
L 503.531164 102.870739 
L 503.910417 103.798986 
L 504.289671 124.617028 
L 504.668924 121.230334 
L 505.048178 128.141553 
L 506.185939 130.192134 
L 506.565192 123.936314 
L 507.323699 133.770103 
L 507.702953 132.951559 
L 509.219967 150.655755 
L 509.978474 169.997041 
L 510.357728 169.997041 
L 511.495488 157.357993 
L 512.253996 157.357993 
L 512.633249 170.099921 
L 514.908771 170.099921 
L 515.288024 180.479249 
L 517.942799 180.479249 
L 518.322053 185.927888 
L 519.839067 185.927888 
L 520.218321 184.815508 
L 520.597574 184.815508 
L 520.976828 189.403488 
L 522.493842 196.858956 
L 522.873095 206.619337 
L 523.631603 181.36633 
L 524.769363 179.192501 
L 525.148617 189.3516 
L 525.52787 176.75104 
L 525.907124 183.171481 
L 526.286378 191.552738 
L 527.424138 204.655791 
L 527.803392 201.818344 
L 528.941153 201.818344 
L 530.078913 212.37496 
L 533.492195 212.37496 
L 533.871449 206.552984 
L 536.14697 206.552984 
L 536.526224 211.956291 
L 536.905477 206.281678 
L 538.043238 205.442403 
L 538.422492 217.582728 
L 538.801745 224.68994 
L 539.180999 226.292422 
L 539.560252 230.21749 
L 540.698013 233.498522 
L 541.077267 231.969571 
L 541.45652 222.714728 
L 541.835774 227.527246 
L 543.352788 230.833634 
L 543.732042 221.112246 
L 544.111295 219.210566 
L 544.869802 243.022135 
L 546.007563 240.136653 
L 546.386817 255.213172 
L 546.76607 257.137672 
L 547.145324 248.526865 
L 547.524577 262.097253 
L 548.662338 257.310091 
L 549.800099 257.310091 
L 550.179352 264.987647 
L 552.07562 264.987647 
L 552.454874 259.671601 
L 554.730395 259.671601 
L 555.109649 258.914559 
L 557.005917 258.914559 
L 557.38517 250.640838 
L 559.660692 250.640838 
L 560.039945 253.292308 
L 562.69472 253.292308 
L 563.453227 275.296611 
L 564.590988 296.118161 
L 564.970241 298.153006 
L 565.349495 291.997601 
L 565.728749 311.753401 
L 566.108002 308.576499 
L 567.625016 301.230709 
L 568.00427 302.024299 
L 570.279791 302.024299 
L 570.659045 306.251722 
L 573.31382 306.251722 
L 573.693074 296.493759 
L 575.210088 296.493759 
L 575.589341 297.941665 
L 583.553666 297.941665 
L 583.93292 291.755276 
L 584.312173 292.656497 
L 584.691427 289.395044 
L 585.829188 284.852059 
L 586.208441 290.766468 
L 586.587695 278.555034 
L 586.966948 276.911631 
L 587.346202 267.894808 
L 588.483963 266.297502 
L 588.863216 266.477286 
L 589.24247 274.078892 
L 589.621723 271.133212 
L 590.000977 280.735483 
L 591.138738 289.754611 
L 591.517991 289.056222 
L 591.897245 285.774025 
L 592.276498 279.048286 
L 592.655752 293.488571 
L 593.793513 297.40001 
L 594.172766 303.293675 
L 594.55202 305.812946 
L 594.931273 310.309833 
L 595.310527 313.481394 
L 596.827541 317.48503 
L 597.206795 308.758626 
L 597.586048 305.340439 
L 597.965302 297.040444 
L 599.103063 291.935059 
L 599.482316 308.622636 
L 599.86157 307.027636 
L 600.240823 310.017109 
L 600.620077 315.954567 
L 601.757838 312.513331 
L 602.516345 324.16467 
L 603.274852 342.22367 
L 604.412613 347.375153 
L 604.791866 346.109755 
L 605.17112 334.331645 
L 605.550373 342.945108 
L 605.929627 345.681041 
L 607.067387 335.80218 
L 607.446641 320.631237 
L 608.205148 320.631237 
L 608.584402 332.332745 
L 611.239177 332.332745 
L 612.376937 320.016319 
L 613.893952 320.016319 
L 615.031712 318.308179 
L 615.410966 307.393492 
L 615.79022 305.363016 
L 616.169473 305.271257 
L 616.548727 295.878838 
L 617.686487 295.485918 
L 618.065741 294.90948 
L 618.444995 308.962816 
L 618.824248 311.708546 
L 619.203502 306.217086 
L 620.341262 304.346602 
L 620.720516 304.186611 
L 621.099769 315.562449 
L 621.479023 290.756769 
L 621.858277 287.248729 
L 622.996037 292.07199 
L 623.375291 285.747636 
L 623.754544 285.747636 
L 624.133798 289.763757 
L 624.513052 286.992945 
L 625.650812 289.246475 
L 626.030066 284.66757 
L 626.409319 283.539608 
L 627.167827 282.62239 
L 628.305587 291.409002 
L 628.684841 290.163693 
L 629.064094 278.419472 
L 629.443348 279.382192 
L 629.822602 276.822124 
L 630.960362 288.987834 
L 631.339616 295.566418 
L 631.718869 296.809332 
L 632.098123 293.75593 
L 632.477377 298.971859 
L 633.615137 294.03852 
L 633.994391 290.522917 
L 634.373644 293.332046 
L 634.752898 303.972253 
L 635.132151 307.063972 
L 636.269912 312.63194 
L 636.649166 310.486177 
L 637.028419 303.454971 
L 637.407673 308.881644 
L 637.786926 307.016076 
L 639.303941 309.777309 
L 639.683194 316.125989 
L 640.062448 305.93122 
L 640.441701 307.08792 
L 641.958716 309.353425 
L 642.337969 304.257237 
L 642.717223 308.692453 
L 643.096476 299.489141 
L 644.234237 298.782668 
L 645.371998 280.02161 
L 651.060801 280.02161 
L 652.198562 286.129411 
L 652.577816 275.627374 
L 653.336323 259.808592 
L 653.715576 262.883619 
L 654.853337 269.474973 
L 655.232591 266.144086 
L 655.991098 279.214122 
L 656.370351 278.333866 
L 657.508112 273.038248 
L 657.887366 273.244815 
L 658.266619 268.735558 
L 658.645873 273.038248 
L 659.025126 271.812932 
L 660.542141 284.995641 
L 660.921394 283.814925 
L 661.300648 280.716425 
L 661.679901 284.810201 
L 662.817662 283.284424 
L 663.196915 283.260951 
L 663.576169 282.704629 
L 663.955423 281.664754 
L 664.334676 275.582774 
L 665.472437 282.056761 
L 665.85169 287.122339 
L 666.230944 286.915773 
L 666.989451 311.015999 
L 668.127212 317.654301 
L 668.506465 310.229638 
L 668.885719 316.959486 
L 669.264973 311.478427 
L 669.644226 322.464018 
L 670.781987 317.330367 
L 671.16124 309.929177 
L 671.540494 321.515689 
L 671.919748 323.278548 
L 672.299001 319.703536 
L 673.436762 315.269395 
L 673.816015 315.84919 
L 679.504819 315.84919 
L 679.884072 310.514468 
L 680.263326 314.316384 
L 681.401087 309.118271 
L 681.78034 310.85715 
L 682.159594 310.33155 
L 682.538847 312.43858 
L 682.918101 311.910665 
L 684.055862 312.1862 
L 684.435115 322.216588 
L 684.814369 326.039342 
L 685.193622 320.794922 
L 685.572876 317.314849 
L 687.08989 317.085623 
L 687.469144 315.612755 
L 689.744665 315.612755 
L 690.123919 313.570196 
L 692.020187 313.570196 
L 692.39944 319.476434 
L 692.778694 310.581949 
L 693.537201 310.581949 
L 694.674962 305.602205 
L 703.397794 305.602205 
L 703.777047 302.204441 
L 704.156301 305.537251 
L 705.673315 307.335803 
L 706.052569 308.289954 
L 706.431822 311.333831 
L 706.811076 317.46414 
L 707.948836 317.065457 
L 708.32809 311.266637 
L 708.707344 309.268743 
L 709.086597 304.558462 
L 709.465851 302.582966 
L 710.603611 301.738564 
L 711.362119 305.891138 
L 711.741372 312.554517 
L 712.120626 308.267556 
L 713.258386 301.25029 
L 714.396147 288.922478 
L 719.326443 288.922478 
L 719.705697 294.47667 
L 720.084951 288.988625 
L 721.222711 284.003303 
L 721.601965 285.99214 
L 721.981218 291.874865 
L 722.739726 293.92985 
L 723.877486 293.645415 
L 725.015247 301.472879 
L 725.394501 300.884166 
L 726.532261 301.605174 
L 727.670022 316.933774 
L 728.049276 314.746494 
L 729.187036 315.337413 
L 729.56629 316.539094 
L 729.945543 312.25273 
L 730.324797 317.87307 
L 730.70405 316.168667 
L 731.841811 312.581263 
L 732.221065 306.91903 
L 732.600318 305.366767 
L 732.979572 306.087776 
L 733.358825 301.188445 
L 734.87584 309.979458 
L 735.255093 311.509672 
L 735.634347 315.445454 
L 736.0136 316.342856 
L 737.151361 315.381511 
L 737.530615 315.773987 
L 737.909868 318.41989 
L 738.289122 312.777501 
L 738.668375 317.019766 
L 739.806136 319.687719 
L 740.18539 321.239982 
L 742.840165 321.239982 
L 743.219418 317.526141 
L 743.977925 317.526141 
L 745.115686 323.583452 
L 751.183743 323.583452 
L 751.562997 329.875673 
L 753.838518 329.875673 
L 754.217772 328.879729 
L 764.078364 328.879729 
L 764.457618 326.436442 
L 765.216125 323.794333 
L 766.353886 325.115387 
L 766.733139 326.633054 
L 767.491647 323.067532 
L 767.8709 311.511621 
L 769.008661 307.155235 
L 769.387914 312.658155 
L 769.767168 313.382746 
L 770.525675 307.351846 
L 771.663436 306.494708 
L 772.042689 306.912231 
L 772.801196 281.138418 
L 773.18045 284.814395 
L 774.318211 284.659757 
L 774.697464 276.251843 
L 775.076718 284.90276 
L 775.455971 277.524296 
L 775.835225 273.415331 
L 777.731493 266.036868 
L 778.110746 267.759982 
L 778.49 275.116355 
L 778.49 275.116355 
" clip-path="url(#p226662c442)" style="fill: none; stroke: #d62728; stroke-width: 1.5; stroke-linecap: square"/>
   </g>
   <g id="patch_3">
    <path d="M 52.94 390.04 
L 52.94 26.88 
" style="fill: none; stroke: #000000; stroke-width: 0.8; stroke-linejoin: miter; stroke-linecap: square"/>
   </g>
   <g id="patch_4">
    <path d="M 813.04 390.04 
L 813.04 26.88 
" style="fill: none; stroke: #000000; stroke-width: 0.8; stroke-linejoin: miter; stroke-linecap: square"/>
   </g>
   <g id="patch_5">
    <path d="M 52.94 390.04 
L 813.04 390.04 
" style="fill: none; stroke: #000000; stroke-width: 0.8; stroke-linejoin: miter; stroke-linecap: square"/>
   </g>
   <g id="patch_6">
    <path d="M 52.94 26.88 
L 813.04 26.88 
" style="fill: none; stroke: #000000; stroke-width: 0.8; stroke-linejoin: miter; stroke-linecap: square"/>
   </g>
  </g>
  <g id="axes_2">
   <g id="matplotlib.axis_3">
    <g id="ytick_10">
     <g id="line2d_32">
      <defs>
       <path id="m7f4eb6b337" d="M 0 0 
L 3.5 0 
" style="stroke: #000000; stroke-width: 0.8"/>
      </defs>
      <g>
       <use xlink:href="#m7f4eb6b337" x="813.04" y="361.203499" style="stroke: #000000; stroke-width: 0.8"/>
      </g>
     </g>
     <g id="text_18">
      <!-- 100 -->
      <g style="fill: #1f77b4" transform="translate(820.04 365.002718) scale(0.1 -0.1)">
       <use xlink:href="#DejaVuSans-31"/>
       <use xlink:href="#DejaVuSans-30" x="63.623047"/>
       <use xlink:href="#DejaVuSans-30" x="127.246094"/>
      </g>
     </g>
    </g>
    <g id="ytick_11">
     <g id="line2d_33">
      <g>
       <use xlink:href="#m7f4eb6b337" x="813.04" y="314.077025" style="stroke: #000000; stroke-width: 0.8"/>
      </g>
     </g>
     <g id="text_19">
      <!-- 120 -->
      <g style="fill: #1f77b4" transform="translate(820.04 317.876244) scale(0.1 -0.1)">
       <use xlink:href="#DejaVuSans-31"/>
       <use xlink:href="#DejaVuSans-32" x="63.623047"/>
       <use xlink:href="#DejaVuSans-30" x="127.246094"/>
      </g>
     </g>
    </g>
    <g id="ytick_12">
     <g id="line2d_34">
      <g>
       <use xlink:href="#m7f4eb6b337" x="813.04" y="266.950552" style="stroke: #000000; stroke-width: 0.8"/>
      </g>
     </g>
     <g id="text_20">
      <!-- 140 -->
      <g style="fill: #1f77b4" transform="translate(820.04 270.74977) scale(0.1 -0.1)">
       <use xlink:href="#DejaVuSans-31"/>
       <use xlink:href="#DejaVuSans-34" x="63.623047"/>
       <use xlink:href="#DejaVuSans-30" x="127.246094"/>
      </g>
     </g>
    </g>
    <g id="ytick_13">
     <g id="line2d_35">
      <g>
       <use xlink:href="#m7f4eb6b337" x="813.04" y="219.824078" style="stroke: #000000; stroke-width: 0.8"/>
      </g>
     </g>
     <g id="text_21">
      <!-- 160 -->
      <g style="fill: #1f77b4" transform="translate(820.04 223.623297) scale(0.1 -0.1)">
       <use xlink:href="#DejaVuSans-31"/>
       <use xlink:href="#DejaVuSans-36" x="63.623047"/>
       <use xlink:href="#DejaVuSans-30" x="127.246094"/>
      </g>
     </g>
    </g>
    <g id="ytick_14">
     <g id="line2d_36">
      <g>
       <use xlink:href="#m7f4eb6b337" x="813.04" y="172.697604" style="stroke: #000000; stroke-width: 0.8"/>
      </g>
     </g>
     <g id="text_22">
      <!-- 180 -->
      <g style="fill: #1f77b4" transform="translate(820.04 176.496823) scale(0.1 -0.1)">
       <defs>
        <path id="DejaVuSans-38" d="M 2034 2216 
Q 1584 2216 1326 1975 
Q 1069 1734 1069 1313 
Q 1069 891 1326 650 
Q 1584 409 2034 409 
Q 2484 409 2743 651 
Q 3003 894 3003 1313 
Q 3003 1734 2745 1975 
Q 2488 2216 2034 2216 
z
M 1403 2484 
Q 997 2584 770 2862 
Q 544 3141 544 3541 
Q 544 4100 942 4425 
Q 1341 4750 2034 4750 
Q 2731 4750 3128 4425 
Q 3525 4100 3525 3541 
Q 3525 3141 3298 2862 
Q 3072 2584 2669 2484 
Q 3125 2378 3379 2068 
Q 3634 1759 3634 1313 
Q 3634 634 3220 271 
Q 2806 -91 2034 -91 
Q 1263 -91 848 271 
Q 434 634 434 1313 
Q 434 1759 690 2068 
Q 947 2378 1403 2484 
z
M 1172 3481 
Q 1172 3119 1398 2916 
Q 1625 2713 2034 2713 
Q 2441 2713 2670 2916 
Q 2900 3119 2900 3481 
Q 2900 3844 2670 4047 
Q 2441 4250 2034 4250 
Q 1625 4250 1398 4047 
Q 1172 3844 1172 3481 
z
" transform="scale(0.015625)"/>
       </defs>
       <use xlink:href="#DejaVuSans-31"/>
       <use xlink:href="#DejaVuSans-38" x="63.623047"/>
       <use xlink:href="#DejaVuSans-30" x="127.246094"/>
      </g>
     </g>
    </g>
    <g id="ytick_15">
     <g id="line2d_37">
      <g>
       <use xlink:href="#m7f4eb6b337" x="813.04" y="125.57113" style="stroke: #000000; stroke-width: 0.8"/>
      </g>
     </g>
     <g id="text_23">
      <!-- 200 -->
      <g style="fill: #1f77b4" transform="translate(820.04 129.370349) scale(0.1 -0.1)">
       <use xlink:href="#DejaVuSans-32"/>
       <use xlink:href="#DejaVuSans-30" x="63.623047"/>
       <use xlink:href="#DejaVuSans-30" x="127.246094"/>
      </g>
     </g>
    </g>
    <g id="ytick_16">
     <g id="line2d_38">
      <g>
       <use xlink:href="#m7f4eb6b337" x="813.04" y="78.444657" style="stroke: #000000; stroke-width: 0.8"/>
      </g>
     </g>
     <g id="text_24">
      <!-- 220 -->
      <g style="fill: #1f77b4" transform="translate(820.04 82.243875) scale(0.1 -0.1)">
       <use xlink:href="#DejaVuSans-32"/>
       <use xlink:href="#DejaVuSans-32" x="63.623047"/>
       <use xlink:href="#DejaVuSans-30" x="127.246094"/>
      </g>
     </g>
    </g>
    <g id="ytick_17">
     <g id="line2d_39">
      <g>
       <use xlink:href="#m7f4eb6b337" x="813.04" y="31.318183" style="stroke: #000000; stroke-width: 0.8"/>
      </g>
     </g>
     <g id="text_25">
      <!-- 240 -->
      <g style="fill: #1f77b4" transform="translate(820.04 35.117402) scale(0.1 -0.1)">
       <use xlink:href="#DejaVuSans-32"/>
       <use xlink:href="#DejaVuSans-34" x="63.623047"/>
       <use xlink:href="#DejaVuSans-30" x="127.246094"/>
      </g>
     </g>
    </g>
    <g id="text_26">
     <!-- Close Price -->
     <g style="fill: #1f77b4" transform="translate(850.725937 235.867812) rotate(-90) scale(0.1 -0.1)">
      <defs>
       <path id="DejaVuSans-43" d="M 4122 4306 
L 4122 3641 
Q 3803 3938 3442 4084 
Q 3081 4231 2675 4231 
Q 1875 4231 1450 3742 
Q 1025 3253 1025 2328 
Q 1025 1406 1450 917 
Q 1875 428 2675 428 
Q 3081 428 3442 575 
Q 3803 722 4122 1019 
L 4122 359 
Q 3791 134 3420 21 
Q 3050 -91 2638 -91 
Q 1578 -91 968 557 
Q 359 1206 359 2328 
Q 359 3453 968 4101 
Q 1578 4750 2638 4750 
Q 3056 4750 3426 4639 
Q 3797 4528 4122 4306 
z
" transform="scale(0.015625)"/>
       <path id="DejaVuSans-6c" d="M 603 4863 
L 1178 4863 
L 1178 0 
L 603 0 
L 603 4863 
z
" transform="scale(0.015625)"/>
       <path id="DejaVuSans-6f" d="M 1959 3097 
Q 1497 3097 1228 2736 
Q 959 2375 959 1747 
Q 959 1119 1226 758 
Q 1494 397 1959 397 
Q 2419 397 2687 759 
Q 2956 1122 2956 1747 
Q 2956 2369 2687 2733 
Q 2419 3097 1959 3097 
z
M 1959 3584 
Q 2709 3584 3137 3096 
Q 3566 2609 3566 1747 
Q 3566 888 3137 398 
Q 2709 -91 1959 -91 
Q 1206 -91 779 398 
Q 353 888 353 1747 
Q 353 2609 779 3096 
Q 1206 3584 1959 3584 
z
" transform="scale(0.015625)"/>
       <path id="DejaVuSans-50" d="M 1259 4147 
L 1259 2394 
L 2053 2394 
Q 2494 2394 2734 2622 
Q 2975 2850 2975 3272 
Q 2975 3691 2734 3919 
Q 2494 4147 2053 4147 
L 1259 4147 
z
M 628 4666 
L 2053 4666 
Q 2838 4666 3239 4311 
Q 3641 3956 3641 3272 
Q 3641 2581 3239 2228 
Q 2838 1875 2053 1875 
L 1259 1875 
L 1259 0 
L 628 0 
L 628 4666 
z
" transform="scale(0.015625)"/>
       <path id="DejaVuSans-69" d="M 603 3500 
L 1178 3500 
L 1178 0 
L 603 0 
L 603 3500 
z
M 603 4863 
L 1178 4863 
L 1178 4134 
L 603 4134 
L 603 4863 
z
" transform="scale(0.015625)"/>
       <path id="DejaVuSans-63" d="M 3122 3366 
L 3122 2828 
Q 2878 2963 2633 3030 
Q 2388 3097 2138 3097 
Q 1578 3097 1268 2742 
Q 959 2388 959 1747 
Q 959 1106 1268 751 
Q 1578 397 2138 397 
Q 2388 397 2633 464 
Q 2878 531 3122 666 
L 3122 134 
Q 2881 22 2623 -34 
Q 2366 -91 2075 -91 
Q 1284 -91 818 406 
Q 353 903 353 1747 
Q 353 2603 823 3093 
Q 1294 3584 2113 3584 
Q 2378 3584 2631 3529 
Q 2884 3475 3122 3366 
z
" transform="scale(0.015625)"/>
      </defs>
      <use xlink:href="#DejaVuSans-43"/>
      <use xlink:href="#DejaVuSans-6c" x="69.824219"/>
      <use xlink:href="#DejaVuSans-6f" x="97.607422"/>
      <use xlink:href="#DejaVuSans-73" x="158.789062"/>
      <use xlink:href="#DejaVuSans-65" x="210.888672"/>
      <use xlink:href="#DejaVuSans-20" x="272.412109"/>
      <use xlink:href="#DejaVuSans-50" x="304.199219"/>
      <use xlink:href="#DejaVuSans-72" x="362.751953"/>
      <use xlink:href="#DejaVuSans-69" x="403.865234"/>
      <use xlink:href="#DejaVuSans-63" x="431.648438"/>
      <use xlink:href="#DejaVuSans-65" x="486.628906"/>
     </g>
    </g>
   </g>
   <g id="line2d_40">
    <path d="M 87.49 299.82598 
L 87.869254 305.141846 
L 88.248507 294.246205 
L 89.386268 288.953902 
L 89.765521 284.234186 
L 90.144775 281.651655 
L 90.524029 280.021079 
L 90.903282 279.931539 
L 92.041043 283.086656 
L 93.558057 271.882337 
L 95.075071 277.021479 
L 95.454325 277.902744 
L 95.833578 275.984697 
L 96.212832 271.858774 
L 97.729846 274.375328 
L 98.488353 268.065093 
L 98.867607 267.801185 
L 100.005368 263.875549 
L 100.384621 263.522101 
L 100.763875 263.941526 
L 101.143128 266.677218 
L 101.522382 266.32377 
L 102.660143 263.566871 
L 103.039396 259.398534 
L 103.797903 257.678418 
L 104.177157 252.273011 
L 105.694171 251.325769 
L 106.073425 249.692837 
L 106.452678 251.017091 
L 106.831932 248.017491 
L 107.969693 247.927951 
L 108.348946 250.333757 
L 108.7282 249.848354 
L 109.107453 251.038298 
L 109.486707 247.81956 
L 110.624468 250.972321 
L 111.003721 252.58169 
L 111.382975 259.332557 
L 111.762228 262.287387 
L 112.141482 262.374571 
L 113.279243 256.530888 
L 113.658496 256.354164 
L 114.03775 255.008703 
L 114.417003 256.398934 
L 114.796257 255.494106 
L 115.934018 253.309794 
L 116.313271 255.053473 
L 116.692525 257.902269 
L 117.071778 253.455886 
L 117.451032 265.95147 
L 118.588793 264.49055 
L 118.968046 260.998478 
L 119.3473 262.301525 
L 119.726553 259.316063 
L 120.105807 258.276924 
L 121.243568 254.584565 
L 121.622821 255.468186 
L 122.381328 252.018528 
L 122.760582 248.790365 
L 123.898342 249.365308 
L 124.277596 253.611403 
L 124.65685 248.945882 
L 125.036103 249.386515 
L 125.415357 248.125882 
L 126.553117 249.254561 
L 126.932371 248.436916 
L 127.311625 251.62031 
L 127.690878 252.638242 
L 129.207892 253.545426 
L 129.587146 248.370939 
L 129.9664 247.28703 
L 130.345653 250.182952 
L 130.724907 246.822835 
L 131.862667 245.14042 
L 132.241921 246.778065 
L 132.621175 250.095768 
L 133.000428 248.47933 
L 133.379682 241.822716 
L 134.517442 241.424497 
L 134.896696 248.458123 
L 135.655203 251.422379 
L 136.034457 250.470424 
L 137.172217 261.505088 
L 137.551471 257.282556 
L 137.930724 256.17744 
L 138.309978 254.054392 
L 138.689232 258.83066 
L 139.826992 261.175202 
L 140.206246 256.662842 
L 140.585499 259.51635 
L 140.964753 266.460436 
L 141.344007 263.364227 
L 142.861021 266.017447 
L 143.240274 268.781415 
L 143.619528 269.6886 
L 143.998782 274.266937 
L 145.136542 273.138258 
L 145.515796 264.756814 
L 145.895049 264.690837 
L 146.274303 265.553252 
L 146.653557 263.20871 
L 147.791317 261.241179 
L 148.170571 262.235548 
L 148.549824 261.860892 
L 148.929078 258.321694 
L 149.308332 261.28595 
L 150.446092 258.969683 
L 150.825346 255.041692 
L 151.204599 253.821116 
L 151.583853 252.202322 
L 151.963106 255.176002 
L 153.100867 259.325488 
L 153.480121 261.389628 
L 153.859374 262.164858 
L 154.238628 255.885256 
L 154.617881 251.73577 
L 155.755642 250.404447 
L 156.134896 252.511 
L 156.514149 250.048642 
L 157.272656 249.115538 
L 158.410417 252.423816 
L 159.168924 251.358758 
L 159.548178 253.043529 
L 159.927431 250.380883 
L 161.065192 252.202322 
L 161.444446 252.313069 
L 161.823699 254.775427 
L 162.202953 253.488874 
L 162.582206 255.463474 
L 163.719967 255.774508 
L 164.099221 253.510081 
L 164.478474 247.828985 
L 164.857728 252.046804 
L 165.236981 247.963295 
L 166.374742 250.2937 
L 166.753996 246.542432 
L 167.133249 249.381802 
L 167.891756 258.21566 
L 169.029517 268.38084 
L 169.408771 265.362389 
L 169.788024 265.449573 
L 170.167278 258.3052 
L 170.546531 262.565433 
L 171.684292 266.894 
L 172.063546 263.34302 
L 172.442799 272.66228 
L 172.822053 273.951189 
L 173.201306 266.981184 
L 174.339067 263.654055 
L 174.718321 265.828942 
L 175.097574 263.097962 
L 175.476828 263.875549 
L 175.856081 274.083143 
L 176.993842 270.532164 
L 177.373095 275.369696 
L 177.752349 271.620785 
L 178.131603 265.916126 
L 178.510856 266.516988 
L 180.02787 271.354521 
L 180.407124 268.734289 
L 180.786378 262.63141 
L 181.165631 264.163021 
L 182.303392 259.7025 
L 182.682645 255.397497 
L 183.061899 248.406284 
L 183.441153 248.316744 
L 183.820406 247.718238 
L 184.958167 246.408122 
L 185.33742 247.320019 
L 186.095928 251.15847 
L 186.475181 251.891287 
L 187.612942 252.157552 
L 187.992195 257.360314 
L 188.371449 253.639679 
L 189.129956 260.187903 
L 190.267717 259.787328 
L 190.64697 266.401528 
L 191.026224 268.896875 
L 191.405477 267.803541 
L 191.784731 264.686125 
L 192.922492 265.26578 
L 193.301745 270.654692 
L 194.060252 267.848311 
L 194.439506 262.280318 
L 195.577267 263.505606 
L 195.95652 259.67658 
L 196.335774 259.318419 
L 196.715027 255.333876 
L 197.094281 256.959739 
L 198.232042 253.77399 
L 198.990549 252.97284 
L 199.369802 253.462955 
L 199.749056 251.636804 
L 201.26607 247.515594 
L 201.645324 248.674905 
L 202.024577 250.63301 
L 202.403831 244.732776 
L 203.920845 242.392946 
L 204.300099 244.442948 
L 205.058606 242.548464 
L 206.196367 243.217659 
L 206.57562 243.106912 
L 206.954874 244.619672 
L 207.334127 244.732776 
L 207.713381 242.906625 
L 208.851142 243.797315 
L 209.230395 242.482486 
L 209.988902 245.555133 
L 210.368156 244.464155 
L 211.505917 236.980471 
L 211.88517 236.735413 
L 212.264424 234.197652 
L 214.539945 241.212428 
L 214.919199 238.764208 
L 215.298452 238.406046 
L 215.677706 234.218859 
L 216.815467 234.909262 
L 217.19472 234.687768 
L 217.573974 234.798515 
L 217.953227 231.681099 
L 218.332481 233.083111 
L 219.470241 230.519431 
L 219.849495 228.688568 
L 220.228749 227.972245 
L 220.608002 226.384083 
L 220.987256 225.849198 
L 222.125016 225.111668 
L 222.50427 224.261035 
L 223.262777 224.261035 
L 223.642031 226.094255 
L 224.779791 227.034428 
L 225.159045 226.518393 
L 225.917552 226.273336 
L 226.296806 227.727188 
L 227.434566 227.234716 
L 227.81382 228.464717 
L 228.193074 227.324256 
L 228.572327 226.876555 
L 228.951581 228.262073 
L 230.089341 225.870404 
L 230.468595 224.508449 
L 230.847849 222.72 
L 231.227102 217.891892 
L 231.606356 218.91925 
L 233.12337 222.048447 
L 233.881877 222.540919 
L 234.261131 227.145176 
L 235.398891 231.346501 
L 235.778145 228.306843 
L 236.157398 230.408684 
L 236.536652 230.408684 
L 236.915906 238.007828 
L 238.053666 234.00679 
L 238.812173 222.85431 
L 239.191427 223.702587 
L 239.570681 228.285636 
L 240.708441 226.207359 
L 241.466948 221.06586 
L 241.846202 220.080917 
L 242.225456 221.534769 
L 243.74247 222.338275 
L 244.121723 220.417871 
L 244.500977 219.501262 
L 246.017991 234.565239 
L 246.397245 247.440192 
L 246.776498 251.485999 
L 247.155752 263.646986 
L 247.535005 269.749864 
L 248.672766 259.243017 
L 249.05202 266.128195 
L 249.431273 256.717038 
L 249.810527 267.537276 
L 250.18978 274.064293 
L 251.327541 305.445812 
L 251.706795 296.348046 
L 252.086048 315.460187 
L 252.465302 346.551879 
L 252.844555 329.788992 
L 253.982316 365.217497 
L 254.36157 354.60108 
L 254.740823 373.376267 
L 255.120077 364.658812 
L 255.49933 370.179679 
L 256.637091 373.532727 
L 257.016345 353.102458 
L 257.395598 350.072226 
L 257.774852 334.72549 
L 258.154105 344.261532 
L 259.291866 338.695895 
L 259.67112 339.998942 
L 260.050373 357.499358 
L 260.429627 355.234931 
L 260.80888 362.077931 
L 261.946641 344.103658 
L 262.325895 343.453313 
L 263.084402 319.218524 
L 264.601416 326.737553 
L 264.98067 321.261456 
L 265.359923 332.503477 
L 265.739177 334.499283 
L 266.11843 322.943871 
L 267.256191 326.174391 
L 267.635445 332.637787 
L 268.773205 322.159216 
L 270.29022 307.123514 
L 270.669473 292.874825 
L 271.42798 316.032774 
L 272.565741 314.821624 
L 272.944995 312.644381 
L 273.324248 314.732083 
L 273.703502 310.872425 
L 274.082755 299.833049 
L 275.220516 301.31282 
L 275.979023 321.4641 
L 276.358277 320.566341 
L 276.73753 316.167085 
L 277.875291 299.11437 
L 278.254544 304.993398 
L 278.633798 296.152471 
L 279.013052 295.612873 
L 279.392305 294.154309 
L 280.909319 285.426486 
L 281.288573 275.753777 
L 281.667827 283.362346 
L 282.04708 285.157865 
L 283.184841 282.172403 
L 283.564094 279.568665 
L 283.943348 271.917682 
L 284.322602 272.388947 
L 284.701855 259.846236 
L 285.839616 253.316863 
L 286.218869 259.667155 
L 286.598123 268.821473 
L 286.977377 293.840918 
L 287.35663 286.569303 
L 288.494391 279.396653 
L 288.873644 271.764521 
L 289.252898 277.641192 
L 289.632151 277.754296 
L 290.011405 279.396653 
L 291.528419 274.872512 
L 291.907673 285.318095 
L 292.286926 280.612516 
L 292.66618 289.123558 
L 293.803941 279.059699 
L 294.183194 274.467224 
L 294.562448 277.528089 
L 294.941701 276.222685 
L 296.458716 273.904063 
L 296.837969 279.62286 
L 297.217223 277.257111 
L 297.596476 283.720507 
L 297.97573 278.675618 
L 299.113491 282.707288 
L 299.492744 277.506882 
L 299.871998 265.798309 
L 300.251251 267.756414 
L 300.630505 266.787965 
L 301.768266 268.206472 
L 302.147519 263.545664 
L 302.526773 263.366583 
L 302.906026 263.029629 
L 303.28528 267.937851 
L 304.423041 264.514113 
L 304.802294 267.824748 
L 305.181548 260.57434 
L 305.560801 261.903306 
L 305.940055 265.056067 
L 307.457069 257.332038 
L 307.836323 250.578815 
L 308.215576 250.713125 
L 308.59483 245.220535 
L 309.732591 241.572946 
L 310.111844 243.620591 
L 310.491098 242.180877 
L 310.870351 242.923119 
L 311.249605 243.14697 
L 312.387366 241.323175 
L 312.766619 244.72335 
L 313.145873 244.702143 
L 313.525126 246.141857 
L 313.90438 248.731457 
L 315.042141 245.083868 
L 315.421394 244.702143 
L 315.800648 246.907662 
L 316.179901 246.052317 
L 316.559155 243.080993 
L 317.696915 246.886455 
L 318.076169 242.878349 
L 318.455423 240.062542 
L 318.834676 250.600022 
L 319.21393 252.807897 
L 320.730944 259.42681 
L 321.110198 254.315944 
L 321.489451 258.774108 
L 321.868705 261.024398 
L 323.006465 252.176402 
L 323.385719 251.5237 
L 323.764973 248.260192 
L 324.144226 250.802665 
L 324.52348 251.702781 
L 325.66124 263.795434 
L 326.040494 261.227041 
L 326.419748 271.227279 
L 326.799001 271.227279 
L 327.178255 265.937332 
L 328.316015 257.77974 
L 328.695269 259.316063 
L 329.074523 258.298131 
L 329.453776 252.897437 
L 329.83303 251.382321 
L 330.97079 241.846279 
L 331.350044 242.861855 
L 331.729297 235.133113 
L 332.108551 231.018972 
L 332.487805 229.119775 
L 333.625565 226.657417 
L 334.004819 229.119775 
L 334.384072 232.760295 
L 334.763326 229.009028 
L 335.14258 229.9115 
L 336.28034 234.296618 
L 336.659594 233.504893 
L 337.038847 236.624666 
L 337.418101 230.408684 
L 337.797355 228.285636 
L 339.314369 239.336794 
L 339.693622 250.343182 
L 340.072876 246.207834 
L 340.45213 250.840367 
L 341.58989 244.669155 
L 341.969144 234.680699 
L 342.348397 234.273055 
L 342.727651 224.126725 
L 343.106905 227.041497 
L 344.244665 213.638728 
L 344.623919 206.520274 
L 345.003172 206.678148 
L 345.382426 212.667923 
L 345.761679 204.712974 
L 346.89944 195.37722 
L 347.278694 193.501586 
L 347.657947 199.15205 
L 348.037201 196.100611 
L 348.416454 195.67176 
L 349.554215 188.169225 
L 349.933469 180.482898 
L 350.312722 181.908473 
L 351.071229 180.145943 
L 352.20899 187.716811 
L 352.588244 183.918418 
L 352.967497 183.489567 
L 353.346751 181.161519 
L 353.726004 171.48881 
L 354.863765 171.081166 
L 355.243019 165.612139 
L 355.622272 168.753118 
L 356.001526 164.61777 
L 356.380779 166.743174 
L 357.51854 166.238921 
L 357.897794 155.470522 
L 358.277047 157.056327 
L 358.656301 151.820576 
L 359.035554 153.974256 
L 360.173315 154.200463 
L 360.931822 145.359537 
L 361.311076 145.654077 
L 362.82809 147.33178 
L 363.207344 156.038396 
L 363.586597 151.547243 
L 363.965851 152.341324 
L 365.482865 158.144949 
L 365.862119 151.368162 
L 366.241372 133.139642 
L 366.620626 124.887796 
L 366.999879 125.908085 
L 368.13764 126.315729 
L 368.516894 117.882446 
L 368.896147 121.303828 
L 369.275401 111.805487 
L 369.654654 119.037045 
L 371.171668 112.915316 
L 371.550922 110.785199 
L 371.930176 115.003019 
L 372.309429 109.402037 
L 373.44719 109.878015 
L 373.826443 113.256983 
L 374.205697 122.121472 
L 374.584951 123.638945 
L 374.964204 130.804525 
L 376.101965 119.355148 
L 376.481218 112.554798 
L 376.860472 111.103303 
L 377.239726 101.194962 
L 377.618979 94.326278 
L 378.75674 81.493739 
L 379.135993 79.069082 
L 379.515247 82.469257 
L 379.894501 83.058338 
L 380.273754 81.606843 
L 381.790768 84.849144 
L 382.170022 88.861964 
L 382.549276 96.729728 
L 382.928529 86.30064 
L 384.06629 89.611275 
L 384.445543 94.076508 
L 384.824797 82.195924 
L 385.20405 101.218525 
L 385.583304 101.897146 
L 386.721065 84.304834 
L 387.100318 94.166048 
L 387.479572 99.609156 
L 387.858825 113.506753 
L 388.238079 103.259101 
L 389.37584 100.923985 
L 390.5136 70.362466 
L 390.892854 67.256832 
L 392.030615 65.374129 
L 392.409868 74.262182 
L 392.789122 70.157466 
L 393.168375 86.187536 
L 393.547629 82.332591 
L 394.68539 86.208743 
L 395.064643 104.731804 
L 395.443897 116.112847 
L 396.202404 95.742429 
L 397.340165 109.847382 
L 398.098672 94.993118 
L 398.477925 88.6334 
L 399.99494 85.8388 
L 400.374193 87.339778 
L 400.753447 95.560992 
L 401.1327 91.314897 
L 401.511954 91.246563 
L 402.649715 93.221162 
L 403.028968 94.538347 
L 403.408222 89.587711 
L 403.787475 87.384549 
L 404.166729 86.566904 
L 405.30449 93.199956 
L 405.683743 103.511228 
L 406.062997 91.449207 
L 406.44225 93.539266 
L 406.821504 84.045638 
L 407.959265 78.708565 
L 408.717772 77.049713 
L 409.097025 78.979542 
L 409.476279 86.022594 
L 410.61404 83.522534 
L 410.993293 89.656045 
L 411.372547 91.67777 
L 411.7518 91.246563 
L 412.131054 84.886846 
L 413.268814 97.900821 
L 413.648068 99.49134 
L 414.027322 115.641582 
L 414.406575 106.781805 
L 414.785829 94.811681 
L 415.923589 94.130703 
L 416.682097 101.784043 
L 417.06135 98.492259 
L 417.440604 97.19628 
L 418.578364 93.949266 
L 418.957618 98.810362 
L 419.336872 89.519378 
L 419.716125 84.295408 
L 420.095379 84.637075 
L 421.612393 78.821668 
L 421.991647 78.209024 
L 422.3709 82.547016 
L 423.887914 73.392699 
L 424.267168 67.850625 
L 425.025675 75.268332 
L 425.404929 69.761604 
L 426.542689 71.309708 
L 427.301196 73.925228 
L 427.68045 79.79483 
L 428.059704 91.531678 
L 429.197464 80.727934 
L 429.955971 76.677414 
L 430.335225 69.330397 
L 430.714479 68.444419 
L 431.852239 72.62925 
L 432.231493 75.131665 
L 432.610746 75.063332 
L 432.99 70.468501 
L 433.369254 75.473332 
L 434.886268 83.046557 
L 435.644775 92.511909 
L 436.024029 81.863682 
L 437.161789 81.432475 
L 437.920296 98.949385 
L 438.29955 101.769905 
L 438.678804 107.865714 
L 439.816564 115.191524 
L 440.195818 100.245363 
L 440.575071 91.691908 
L 440.954325 99.722259 
L 441.333578 97.401281 
L 442.471339 95.945073 
L 442.850593 101.791112 
L 443.229846 94.512428 
L 443.6091 90.645701 
L 443.988353 93.989324 
L 445.126114 96.49174 
L 445.505368 94.422887 
L 445.884621 100.676571 
L 446.263875 91.760242 
L 446.643128 88.666389 
L 447.780889 91.463345 
L 448.160143 90.464264 
L 448.539396 87.983055 
L 448.91865 89.189493 
L 449.297903 93.807887 
L 450.435664 98.494615 
L 451.194171 108.867152 
L 451.573425 114.713191 
L 451.952678 106.569736 
L 453.090439 97.243407 
L 453.469693 92.328116 
L 453.848946 90.553804 
L 454.2282 95.923866 
L 454.607453 81.797705 
L 455.745214 83.911328 
L 456.124468 82.912246 
L 456.882975 75.859769 
L 457.262228 78.270289 
L 458.779243 81.842475 
L 459.158496 87.459951 
L 459.53775 87.712078 
L 459.917003 92.693346 
L 461.054764 89.8257 
L 461.434018 96.28674 
L 461.813271 91.760242 
L 462.192525 91.397368 
L 462.571778 90.737597 
L 463.709539 102.771342 
L 464.088793 102.019675 
L 464.8473 85.435869 
L 465.226553 87.90294 
L 466.364314 80.167129 
L 466.743568 91.918115 
L 467.122821 92.990243 
L 467.502075 97.714672 
L 467.881328 89.660757 
L 469.019089 94.269726 
L 469.398342 92.535472 
L 469.777596 95.15806 
L 470.15685 87.424606 
L 470.536103 91.255988 
L 471.673864 94.154267 
L 472.432371 88.99863 
L 472.811625 81.46782 
L 473.190878 83.088971 
L 474.328639 83.385867 
L 474.707892 81.46782 
L 475.087146 78.046438 
L 475.4664 76.722184 
L 475.845653 77.954541 
L 476.983414 73.025112 
L 477.362667 76.974311 
L 477.741921 86.533916 
L 478.121175 76.356954 
L 478.500428 76.493621 
L 479.638189 63.00838 
L 480.017442 61.891483 
L 480.396696 52.331877 
L 480.77595 52.536878 
L 481.155203 45.097964 
L 482.292964 43.387273 
L 482.672217 46.603655 
L 483.051471 55.274926 
L 483.430724 50.915727 
L 483.809978 50.36906 
L 484.947739 52.536878 
L 485.326992 51.533084 
L 485.706246 58.675101 
L 486.085499 60.956022 
L 486.464753 65.838325 
L 487.981767 69.009937 
L 488.361021 68.439706 
L 489.119528 88.360067 
L 490.257289 88.67817 
L 491.015796 110.240888 
L 491.395049 96.663751 
L 491.774303 106.93261 
L 492.912064 97.097315 
L 493.291317 85.506559 
L 493.670571 82.016843 
L 494.049824 93.675933 
L 494.429078 95.066164 
L 495.566839 102.399043 
L 495.946092 106.65692 
L 496.325346 98.876339 
L 496.704599 108.94491 
L 497.083853 104.460826 
L 498.221614 111.371924 
L 498.600867 97.502603 
L 499.359374 88.668745 
L 500.876389 83.908971 
L 501.255642 87.042882 
L 501.634896 86.493858 
L 502.014149 86.630525 
L 502.393403 87.730928 
L 503.531164 81.161498 
L 503.910417 81.939085 
L 504.289671 99.378236 
L 504.668924 96.541222 
L 505.048178 102.33071 
L 506.185939 104.04847 
L 506.565192 98.808006 
L 507.323699 107.045713 
L 507.702953 106.360023 
L 509.219967 121.190725 
L 510.357728 145.9981 
L 511.495488 135.609069 
L 512.253996 148.333217 
L 512.633249 158.517248 
L 513.012503 149.980287 
L 514.529517 131.419526 
L 514.908771 136.042633 
L 515.288024 144.763387 
L 515.667278 142.817063 
L 516.805038 140.573843 
L 517.563546 123.982968 
L 517.942799 131.235732 
L 518.322053 135.950736 
L 519.459813 137.553036 
L 519.839067 125.241245 
L 520.218321 124.256302 
L 520.597574 136.363093 
L 520.976828 140.321717 
L 522.493842 146.75448 
L 522.873095 155.175981 
L 523.631603 133.387056 
L 524.769363 131.511422 
L 525.148617 140.276946 
L 525.52787 129.404869 
L 525.907124 134.944586 
L 526.286378 142.176143 
L 527.424138 153.481784 
L 527.803392 151.033564 
L 528.182645 138.469646 
L 528.561899 139.292003 
L 528.941153 146.59425 
L 530.078913 155.793338 
L 530.458167 148.766781 
L 530.83742 134.668896 
L 531.216674 127.413775 
L 531.595928 122.470208 
L 532.733688 126.659752 
L 533.112942 121.944748 
L 533.492195 130.184812 
L 533.871449 124.817107 
L 534.250703 124.176187 
L 535.388463 124.015957 
L 535.767717 111.357786 
L 536.14697 121.103541 
L 536.526224 126.124866 
L 536.905477 120.851414 
L 538.043238 120.071471 
L 538.422492 131.353549 
L 538.801745 137.958324 
L 539.180999 139.447521 
L 539.560252 143.09511 
L 540.698013 146.144192 
L 541.077267 144.723329 
L 541.45652 136.122748 
L 541.835774 140.59505 
L 543.352788 143.667696 
L 543.732042 134.633551 
L 544.111295 132.866308 
L 544.869802 154.994544 
L 546.007563 152.313048 
L 546.386817 166.323749 
L 546.76607 168.112198 
L 547.145324 160.110123 
L 547.524577 172.721167 
L 548.662338 168.272428 
L 549.041592 164.603632 
L 549.420845 153.069428 
L 549.800099 171.069384 
L 550.179352 178.157206 
L 551.317113 195.768369 
L 551.696367 195.652909 
L 552.07562 205.627228 
L 552.454874 201.041822 
L 552.834127 188.499111 
L 553.971888 190.44779 
L 554.351142 178.018183 
L 554.730395 192.695723 
L 555.109649 192.028884 
L 555.488902 193.060953 
L 556.626663 188.176294 
L 557.005917 194.232046 
L 557.764424 177.83439 
L 558.143677 166.552312 
L 559.660692 171.896454 
L 560.039945 174.304617 
L 560.419199 163.983919 
L 560.798452 167.883635 
L 561.936213 166.024495 
L 562.315467 159.078053 
L 562.69472 165.843059 
L 563.453227 186.227615 
L 564.590988 205.51648 
L 564.970241 207.401539 
L 565.349495 201.699236 
L 565.728749 220.000802 
L 566.108002 217.057754 
L 567.625016 210.252691 
L 568.00427 210.987864 
L 568.383524 206.367113 
L 568.762777 194.27446 
L 569.900538 192.778195 
L 570.279791 200.365557 
L 571.038299 207.448666 
L 571.417552 202.733662 
L 572.934566 199.470154 
L 573.31382 202.413202 
L 573.693074 193.077448 
L 574.072327 193.124574 
L 575.210088 201.239753 
L 575.589341 202.596995 
L 575.968595 202.941019 
L 576.347849 206.989183 
L 576.727102 198.871648 
L 577.864863 199.99797 
L 578.244116 185.996695 
L 578.62337 179.559219 
L 579.002623 177.419677 
L 579.381877 184.111636 
L 580.519638 181.972094 
L 580.898891 184.526349 
L 581.278145 175.143468 
L 581.657398 169.351624 
L 582.036652 166.31668 
L 583.174413 166.47691 
L 583.553666 166.891623 
L 583.93292 160.56725 
L 584.312173 161.488572 
L 584.691427 158.154374 
L 585.829188 153.51006 
L 586.208441 159.556387 
L 586.587695 147.072584 
L 586.966948 145.392525 
L 587.346202 136.174587 
L 588.483963 134.541655 
L 588.863216 134.725448 
L 589.24247 142.496603 
L 589.621723 139.485222 
L 590.000977 149.301666 
L 591.138738 158.521961 
L 591.517991 157.807995 
L 591.897245 154.45259 
L 592.276498 147.576837 
L 592.655752 162.339205 
L 593.793513 166.337886 
L 594.172766 172.363006 
L 594.55202 174.938468 
L 594.931273 179.535655 
L 595.310527 182.777957 
L 596.827541 186.870891 
L 597.206795 177.94985 
L 597.586048 174.455422 
L 597.965302 165.9703 
L 599.103063 160.751043 
L 599.482316 177.810827 
L 599.86157 176.180251 
L 600.240823 179.236402 
L 600.620077 185.306292 
L 601.757838 181.788301 
L 602.516345 193.699517 
L 603.274852 212.161313 
L 604.412613 217.427697 
L 604.791866 216.134075 
L 605.17112 204.093261 
L 605.550373 212.898843 
L 605.929627 215.695799 
L 607.067387 205.596595 
L 607.446641 190.087273 
L 608.205148 195.358369 
L 608.584402 207.165907 
L 609.722162 209.338437 
L 610.101416 209.222978 
L 610.48067 210.288036 
L 610.859923 200.719005 
L 611.239177 211.327175 
L 612.756191 194.316874 
L 613.514698 206.197458 
L 613.893952 197.714693 
L 615.031712 196.004002 
L 615.410966 185.073016 
L 615.79022 183.039509 
L 616.169473 182.947612 
L 616.548727 173.541168 
L 617.686487 173.147662 
L 618.065741 172.570363 
L 618.444995 186.644684 
L 618.824248 189.394514 
L 619.203502 183.894854 
L 620.341262 182.021577 
L 620.720516 181.861347 
L 621.099769 193.254172 
L 621.479023 168.411451 
L 621.858277 164.898173 
L 622.996037 169.728636 
L 623.375291 163.394838 
L 623.754544 171.022258 
L 624.133798 174.973813 
L 624.513052 172.247546 
L 625.650812 174.464847 
L 626.030066 169.959556 
L 626.409319 168.849728 
L 627.167827 167.947256 
L 628.305587 176.592607 
L 628.684841 175.367319 
L 629.064094 163.811907 
L 629.443348 164.75915 
L 629.822602 162.24024 
L 630.960362 174.210364 
L 631.339616 180.683185 
L 631.718869 181.906117 
L 632.098123 178.901804 
L 632.477377 184.033877 
L 633.615137 179.179851 
L 633.994391 175.720767 
L 634.373644 178.484735 
L 634.752898 188.953881 
L 635.132151 191.995895 
L 636.269912 197.474348 
L 636.649166 195.363082 
L 637.028419 188.444915 
L 637.407673 193.784345 
L 637.786926 191.948769 
L 639.303941 194.66561 
L 639.683194 200.912224 
L 640.062448 190.881354 
L 640.441701 192.019458 
L 641.958716 194.248541 
L 642.337969 189.234284 
L 642.717223 193.598195 
L 643.096476 184.542843 
L 644.234237 183.847728 
L 645.371998 165.388288 
L 645.751251 162.555987 
L 647.268266 163.090872 
L 647.647519 170.100935 
L 648.026773 174.189157 
L 648.406026 167.223864 
L 649.543787 161.905642 
L 649.923041 162.834033 
L 650.302294 161.627595 
L 651.060801 156.681672 
L 652.198562 162.812826 
L 652.577816 152.270634 
L 653.336323 136.391369 
L 653.715576 139.478153 
L 654.853337 146.09471 
L 655.232591 142.751086 
L 655.991098 155.871097 
L 656.370351 154.987475 
L 657.508112 149.671609 
L 657.887366 149.878966 
L 658.266619 145.352468 
L 658.645873 149.671609 
L 659.025126 148.441608 
L 660.542141 161.674722 
L 660.921394 160.489491 
L 661.300648 157.379144 
L 661.679901 161.488572 
L 662.817662 159.956962 
L 663.196915 159.933399 
L 663.576169 159.37495 
L 663.955423 158.331099 
L 664.334676 152.225864 
L 665.472437 158.724605 
L 665.85169 163.809551 
L 666.230944 163.602195 
L 666.989451 187.79457 
L 668.127212 194.458253 
L 668.506465 187.005202 
L 668.885719 193.760782 
L 669.264973 188.258766 
L 669.644226 199.286361 
L 670.781987 194.133081 
L 671.16124 186.703592 
L 671.540494 198.334406 
L 671.919748 200.104005 
L 672.299001 196.515324 
L 673.436762 192.064229 
L 673.816015 192.64624 
L 674.195269 188.056122 
L 674.574523 188.614571 
L 674.953776 181.112036 
L 676.091537 180.925886 
L 676.47079 188.218708 
L 676.850044 192.226815 
L 677.229297 191.62124 
L 678.746312 187.285604 
L 679.125565 184.048015 
L 679.504819 187.075891 
L 679.884072 181.646921 
L 680.263326 185.516005 
L 681.401087 180.226058 
L 681.78034 181.995657 
L 682.159594 181.460772 
L 682.538847 183.605026 
L 682.918101 183.067785 
L 684.055862 183.348187 
L 684.435115 193.555781 
L 684.814369 197.446072 
L 685.193622 192.108999 
L 685.572876 188.567444 
L 686.710637 188.334168 
L 687.08989 196.725037 
L 687.469144 195.257047 
L 687.848397 199.752913 
L 688.227651 190.315836 
L 689.365412 191.248941 
L 689.744665 192.460091 
L 690.123919 190.410089 
L 690.503172 193.532218 
L 690.882426 194.347506 
L 692.020187 189.429859 
L 692.39944 195.372507 
L 692.778694 186.42319 
L 693.157947 183.930199 
L 693.537201 186.446753 
L 694.674962 181.437209 
L 695.054215 183.395314 
L 695.812722 190.968538 
L 696.191976 186.354856 
L 697.70899 187.869972 
L 698.088244 191.899286 
L 698.467497 187.51888 
L 698.846751 172.676397 
L 699.984512 178.362206 
L 700.743019 159.301904 
L 701.122272 160.939549 
L 701.501526 164.466965 
L 702.639286 162.66909 
L 703.01854 157.690179 
L 703.397794 162.409895 
L 703.777047 158.835352 
L 704.156301 162.341562 
L 705.673315 164.233689 
L 706.052569 165.237483 
L 706.431822 168.439727 
L 706.811076 174.888985 
L 707.948836 174.46956 
L 708.32809 168.369037 
L 708.707344 166.267197 
L 709.086597 161.311848 
L 709.465851 159.233571 
L 710.603611 158.345237 
L 711.362119 162.713861 
L 711.741372 169.723924 
L 712.120626 165.21392 
L 713.258386 157.831558 
L 714.396147 144.862352 
L 714.775401 149.278103 
L 715.913161 144.487697 
L 716.292415 138.90321 
L 716.671668 136.963955 
L 717.050922 140.983844 
L 717.430176 142.430626 
L 718.567936 141.309016 
L 718.94719 141.356143 
L 719.326443 137.758036 
L 719.705697 143.693616 
L 720.084951 137.828726 
L 721.222711 132.501078 
L 721.601965 134.626482 
L 721.981218 140.913154 
L 722.739726 143.109248 
L 723.877486 142.805282 
L 725.015247 151.170231 
L 725.394501 150.541092 
L 726.532261 151.31161 
L 727.670022 167.692773 
L 728.049276 165.355299 
L 729.187036 165.986794 
L 729.56629 167.270991 
L 729.945543 162.690297 
L 730.324797 168.696566 
L 730.70405 166.875128 
L 731.841811 163.04139 
L 732.221065 156.99035 
L 732.600318 155.331499 
L 732.979572 156.102016 
L 733.358825 150.866265 
L 734.87584 160.260928 
L 735.255093 161.896216 
L 735.634347 166.102254 
L 736.0136 167.061278 
L 737.151361 166.033921 
L 737.530615 166.453346 
L 737.909868 169.280935 
L 738.289122 163.251102 
L 738.668375 167.784669 
L 739.806136 170.635821 
L 740.18539 172.294673 
L 740.564643 176.547837 
L 740.943897 183.067785 
L 741.32315 184.003245 
L 742.460911 182.155887 
L 742.840165 187.488248 
L 743.598672 179.929162 
L 745.115686 188.169225 
L 745.49494 195.047334 
L 746.253447 194.554863 
L 746.6327 190.681067 
L 747.770461 188.334168 
L 748.149715 183.708705 
L 748.528968 184.413245 
L 748.908222 193.732506 
L 749.287475 197.090267 
L 750.425236 190.63394 
L 750.80449 186.10273 
L 751.562997 200.964063 
L 751.94225 206.081998 
L 753.080011 209.392633 
L 753.459265 206.011308 
L 753.838518 212.467635 
L 754.217772 211.482692 
L 754.597025 216.013902 
L 755.734786 213.90028 
L 756.11404 210.589645 
L 756.493293 208.38177 
L 757.2518 187.181926 
L 758.768814 193.732506 
L 759.148068 198.03044 
L 759.527322 204.204008 
L 759.906575 199.814177 
L 761.044336 199.672798 
L 761.423589 177.862666 
L 761.802843 177.134562 
L 762.182097 183.918418 
L 762.56135 178.260884 
L 763.699111 175.819733 
L 764.078364 181.24399 
L 764.457618 178.637896 
L 765.216125 175.819733 
L 766.353886 177.228815 
L 766.733139 178.847609 
L 767.491647 175.044503 
L 767.8709 162.718573 
L 769.008661 158.071903 
L 769.387914 163.941505 
L 769.767168 164.714379 
L 770.525675 158.281616 
L 771.663436 157.367362 
L 772.042689 157.812707 
L 772.801196 130.321479 
L 773.18045 134.242402 
L 774.318211 134.077459 
L 774.697464 125.109291 
L 775.076718 134.336654 
L 775.455971 126.466533 
L 775.835225 122.083771 
L 777.731493 114.21365 
L 778.110746 116.051583 
L 778.49 123.898141 
L 778.49 123.898141 
" clip-path="url(#p226662c442)" style="fill: none; stroke: #1f77b4; stroke-width: 1.5; stroke-linecap: square"/>
   </g>
   <g id="patch_7">
    <path d="M 52.94 390.04 
L 52.94 26.88 
" style="fill: none; stroke: #000000; stroke-width: 0.8; stroke-linejoin: miter; stroke-linecap: square"/>
   </g>
   <g id="patch_8">
    <path d="M 813.04 390.04 
L 813.04 26.88 
" style="fill: none; stroke: #000000; stroke-width: 0.8; stroke-linejoin: miter; stroke-linecap: square"/>
   </g>
   <g id="patch_9">
    <path d="M 52.94 390.04 
L 813.04 390.04 
" style="fill: none; stroke: #000000; stroke-width: 0.8; stroke-linejoin: miter; stroke-linecap: square"/>
   </g>
   <g id="patch_10">
    <path d="M 52.94 26.88 
L 813.04 26.88 
" style="fill: none; stroke: #000000; stroke-width: 0.8; stroke-linejoin: miter; stroke-linecap: square"/>
   </g>
   <g id="text_27">
    <!-- Stock Trading Performance for IWM -->
    <g transform="translate(327.598125 20.88) scale(0.12 -0.12)">
     <defs>
      <path id="DejaVuSans-53" d="M 3425 4513 
L 3425 3897 
Q 3066 4069 2747 4153 
Q 2428 4238 2131 4238 
Q 1616 4238 1336 4038 
Q 1056 3838 1056 3469 
Q 1056 3159 1242 3001 
Q 1428 2844 1947 2747 
L 2328 2669 
Q 3034 2534 3370 2195 
Q 3706 1856 3706 1288 
Q 3706 609 3251 259 
Q 2797 -91 1919 -91 
Q 1588 -91 1214 -16 
Q 841 59 441 206 
L 441 856 
Q 825 641 1194 531 
Q 1563 422 1919 422 
Q 2459 422 2753 634 
Q 3047 847 3047 1241 
Q 3047 1584 2836 1778 
Q 2625 1972 2144 2069 
L 1759 2144 
Q 1053 2284 737 2584 
Q 422 2884 422 3419 
Q 422 4038 858 4394 
Q 1294 4750 2059 4750 
Q 2388 4750 2728 4690 
Q 3069 4631 3425 4513 
z
" transform="scale(0.015625)"/>
      <path id="DejaVuSans-6b" d="M 581 4863 
L 1159 4863 
L 1159 1991 
L 2875 3500 
L 3609 3500 
L 1753 1863 
L 3688 0 
L 2938 0 
L 1159 1709 
L 1159 0 
L 581 0 
L 581 4863 
z
" transform="scale(0.015625)"/>
      <path id="DejaVuSans-54" d="M -19 4666 
L 3928 4666 
L 3928 4134 
L 2272 4134 
L 2272 0 
L 1638 0 
L 1638 4134 
L -19 4134 
L -19 4666 
z
" transform="scale(0.015625)"/>
      <path id="DejaVuSans-64" d="M 2906 2969 
L 2906 4863 
L 3481 4863 
L 3481 0 
L 2906 0 
L 2906 525 
Q 2725 213 2448 61 
Q 2172 -91 1784 -91 
Q 1150 -91 751 415 
Q 353 922 353 1747 
Q 353 2572 751 3078 
Q 1150 3584 1784 3584 
Q 2172 3584 2448 3432 
Q 2725 3281 2906 2969 
z
M 947 1747 
Q 947 1113 1208 752 
Q 1469 391 1925 391 
Q 2381 391 2643 752 
Q 2906 1113 2906 1747 
Q 2906 2381 2643 2742 
Q 2381 3103 1925 3103 
Q 1469 3103 1208 2742 
Q 947 2381 947 1747 
z
" transform="scale(0.015625)"/>
      <path id="DejaVuSans-67" d="M 2906 1791 
Q 2906 2416 2648 2759 
Q 2391 3103 1925 3103 
Q 1463 3103 1205 2759 
Q 947 2416 947 1791 
Q 947 1169 1205 825 
Q 1463 481 1925 481 
Q 2391 481 2648 825 
Q 2906 1169 2906 1791 
z
M 3481 434 
Q 3481 -459 3084 -895 
Q 2688 -1331 1869 -1331 
Q 1566 -1331 1297 -1286 
Q 1028 -1241 775 -1147 
L 775 -588 
Q 1028 -725 1275 -790 
Q 1522 -856 1778 -856 
Q 2344 -856 2625 -561 
Q 2906 -266 2906 331 
L 2906 616 
Q 2728 306 2450 153 
Q 2172 0 1784 0 
Q 1141 0 747 490 
Q 353 981 353 1791 
Q 353 2603 747 3093 
Q 1141 3584 1784 3584 
Q 2172 3584 2450 3431 
Q 2728 3278 2906 2969 
L 2906 3500 
L 3481 3500 
L 3481 434 
z
" transform="scale(0.015625)"/>
      <path id="DejaVuSans-66" d="M 2375 4863 
L 2375 4384 
L 1825 4384 
Q 1516 4384 1395 4259 
Q 1275 4134 1275 3809 
L 1275 3500 
L 2222 3500 
L 2222 3053 
L 1275 3053 
L 1275 0 
L 697 0 
L 697 3053 
L 147 3053 
L 147 3500 
L 697 3500 
L 697 3744 
Q 697 4328 969 4595 
Q 1241 4863 1831 4863 
L 2375 4863 
z
" transform="scale(0.015625)"/>
      <path id="DejaVuSans-6d" d="M 3328 2828 
Q 3544 3216 3844 3400 
Q 4144 3584 4550 3584 
Q 5097 3584 5394 3201 
Q 5691 2819 5691 2113 
L 5691 0 
L 5113 0 
L 5113 2094 
Q 5113 2597 4934 2840 
Q 4756 3084 4391 3084 
Q 3944 3084 3684 2787 
Q 3425 2491 3425 1978 
L 3425 0 
L 2847 0 
L 2847 2094 
Q 2847 2600 2669 2842 
Q 2491 3084 2119 3084 
Q 1678 3084 1418 2786 
Q 1159 2488 1159 1978 
L 1159 0 
L 581 0 
L 581 3500 
L 1159 3500 
L 1159 2956 
Q 1356 3278 1631 3431 
Q 1906 3584 2284 3584 
Q 2666 3584 2933 3390 
Q 3200 3197 3328 2828 
z
" transform="scale(0.015625)"/>
      <path id="DejaVuSans-49" d="M 628 4666 
L 1259 4666 
L 1259 0 
L 628 0 
L 628 4666 
z
" transform="scale(0.015625)"/>
      <path id="DejaVuSans-57" d="M 213 4666 
L 850 4666 
L 1831 722 
L 2809 4666 
L 3519 4666 
L 4500 722 
L 5478 4666 
L 6119 4666 
L 4947 0 
L 4153 0 
L 3169 4050 
L 2175 0 
L 1381 0 
L 213 4666 
z
" transform="scale(0.015625)"/>
      <path id="DejaVuSans-4d" d="M 628 4666 
L 1569 4666 
L 2759 1491 
L 3956 4666 
L 4897 4666 
L 4897 0 
L 4281 0 
L 4281 4097 
L 3078 897 
L 2444 897 
L 1241 4097 
L 1241 0 
L 628 0 
L 628 4666 
z
" transform="scale(0.015625)"/>
     </defs>
     <use xlink:href="#DejaVuSans-53"/>
     <use xlink:href="#DejaVuSans-74" x="63.476562"/>
     <use xlink:href="#DejaVuSans-6f" x="102.685547"/>
     <use xlink:href="#DejaVuSans-63" x="163.867188"/>
     <use xlink:href="#DejaVuSans-6b" x="218.847656"/>
     <use xlink:href="#DejaVuSans-20" x="276.757812"/>
     <use xlink:href="#DejaVuSans-54" x="308.544922"/>
     <use xlink:href="#DejaVuSans-72" x="354.878906"/>
     <use xlink:href="#DejaVuSans-61" x="395.992188"/>
     <use xlink:href="#DejaVuSans-64" x="457.271484"/>
     <use xlink:href="#DejaVuSans-69" x="520.748047"/>
     <use xlink:href="#DejaVuSans-6e" x="548.53125"/>
     <use xlink:href="#DejaVuSans-67" x="611.910156"/>
     <use xlink:href="#DejaVuSans-20" x="675.386719"/>
     <use xlink:href="#DejaVuSans-50" x="707.173828"/>
     <use xlink:href="#DejaVuSans-65" x="763.851562"/>
     <use xlink:href="#DejaVuSans-72" x="825.375"/>
     <use xlink:href="#DejaVuSans-66" x="866.488281"/>
     <use xlink:href="#DejaVuSans-6f" x="901.693359"/>
     <use xlink:href="#DejaVuSans-72" x="962.875"/>
     <use xlink:href="#DejaVuSans-6d" x="1002.238281"/>
     <use xlink:href="#DejaVuSans-61" x="1099.650391"/>
     <use xlink:href="#DejaVuSans-6e" x="1160.929688"/>
     <use xlink:href="#DejaVuSans-63" x="1224.308594"/>
     <use xlink:href="#DejaVuSans-65" x="1279.289062"/>
     <use xlink:href="#DejaVuSans-20" x="1340.8125"/>
     <use xlink:href="#DejaVuSans-66" x="1372.599609"/>
     <use xlink:href="#DejaVuSans-6f" x="1407.804688"/>
     <use xlink:href="#DejaVuSans-72" x="1468.986328"/>
     <use xlink:href="#DejaVuSans-20" x="1510.099609"/>
     <use xlink:href="#DejaVuSans-49" x="1541.886719"/>
     <use xlink:href="#DejaVuSans-57" x="1571.378906"/>
     <use xlink:href="#DejaVuSans-4d" x="1670.255859"/>
    </g>
   </g>
  </g>
 </g>
 <defs>
  <clipPath id="p226662c442">
   <rect x="52.94" y="26.88" width="760.1" height="363.16"/>
  </clipPath>
 </defs>
</svg>
