<?xml version="1.0" encoding="utf-8" standalone="no"?>
<!DOCTYPE svg PUBLIC "-//W3C//DTD SVG 1.1//EN"
  "http://www.w3.org/Graphics/SVG/1.1/DTD/svg11.dtd">
<svg xmlns:xlink="http://www.w3.org/1999/xlink" width="864pt" height="432pt" viewBox="0 0 864 432" xmlns="http://www.w3.org/2000/svg" version="1.1">
 <metadata>
  <rdf:RDF xmlns:dc="http://purl.org/dc/elements/1.1/" xmlns:cc="http://creativecommons.org/ns#" xmlns:rdf="http://www.w3.org/1999/02/22-rdf-syntax-ns#">
   <cc:Work>
    <dc:type rdf:resource="http://purl.org/dc/dcmitype/StillImage"/>
    <dc:date>2024-04-16T14:18:46.703948</dc:date>
    <dc:format>image/svg+xml</dc:format>
    <dc:creator>
     <cc:Agent>
      <dc:title>Matplotlib v3.8.2, https://matplotlib.org/</dc:title>
     </cc:Agent>
    </dc:creator>
   </cc:Work>
  </rdf:RDF>
 </metadata>
 <defs>
  <style type="text/css">*{stroke-linejoin: round; stroke-linecap: butt}</style>
 </defs>
 <g id="figure_1">
  <g id="patch_1">
   <path d="M 0 432 
L 864 432 
L 864 0 
L 0 0 
z
" style="fill: #ffffff"/>
  </g>
  <g id="axes_1">
   <g id="patch_2">
    <path d="M 59.24 390.04 
L 806.83 390.04 
L 806.83 26.88 
L 59.24 26.88 
z
" style="fill: #ffffff"/>
   </g>
   <g id="matplotlib.axis_1">
    <g id="xtick_1">
     <g id="line2d_1">
      <path d="M 92.848352 390.04 
L 92.848352 26.88 
" clip-path="url(#p92289a7b3f)" style="fill: none; stroke-dasharray: 1.85,0.8; stroke-dashoffset: 0; stroke: #b0b0b0; stroke-opacity: 0.5; stroke-width: 0.5"/>
     </g>
     <g id="line2d_2">
      <defs>
       <path id="m4cf6714f4d" d="M 0 0 
L 0 3.5 
" style="stroke: #000000; stroke-width: 0.8"/>
      </defs>
      <g>
       <use xlink:href="#m4cf6714f4d" x="92.848352" y="390.04" style="stroke: #000000; stroke-width: 0.8"/>
      </g>
     </g>
     <g id="text_1">
      <!-- 2019 -->
      <g transform="translate(80.123352 404.638438) scale(0.1 -0.1)">
       <defs>
        <path id="DejaVuSans-32" d="M 1228 531 
L 3431 531 
L 3431 0 
L 469 0 
L 469 531 
Q 828 903 1448 1529 
Q 2069 2156 2228 2338 
Q 2531 2678 2651 2914 
Q 2772 3150 2772 3378 
Q 2772 3750 2511 3984 
Q 2250 4219 1831 4219 
Q 1534 4219 1204 4116 
Q 875 4013 500 3803 
L 500 4441 
Q 881 4594 1212 4672 
Q 1544 4750 1819 4750 
Q 2544 4750 2975 4387 
Q 3406 4025 3406 3419 
Q 3406 3131 3298 2873 
Q 3191 2616 2906 2266 
Q 2828 2175 2409 1742 
Q 1991 1309 1228 531 
z
" transform="scale(0.015625)"/>
        <path id="DejaVuSans-30" d="M 2034 4250 
Q 1547 4250 1301 3770 
Q 1056 3291 1056 2328 
Q 1056 1369 1301 889 
Q 1547 409 2034 409 
Q 2525 409 2770 889 
Q 3016 1369 3016 2328 
Q 3016 3291 2770 3770 
Q 2525 4250 2034 4250 
z
M 2034 4750 
Q 2819 4750 3233 4129 
Q 3647 3509 3647 2328 
Q 3647 1150 3233 529 
Q 2819 -91 2034 -91 
Q 1250 -91 836 529 
Q 422 1150 422 2328 
Q 422 3509 836 4129 
Q 1250 4750 2034 4750 
z
" transform="scale(0.015625)"/>
        <path id="DejaVuSans-31" d="M 794 531 
L 1825 531 
L 1825 4091 
L 703 3866 
L 703 4441 
L 1819 4666 
L 2450 4666 
L 2450 531 
L 3481 531 
L 3481 0 
L 794 0 
L 794 531 
z
" transform="scale(0.015625)"/>
        <path id="DejaVuSans-39" d="M 703 97 
L 703 672 
Q 941 559 1184 500 
Q 1428 441 1663 441 
Q 2288 441 2617 861 
Q 2947 1281 2994 2138 
Q 2813 1869 2534 1725 
Q 2256 1581 1919 1581 
Q 1219 1581 811 2004 
Q 403 2428 403 3163 
Q 403 3881 828 4315 
Q 1253 4750 1959 4750 
Q 2769 4750 3195 4129 
Q 3622 3509 3622 2328 
Q 3622 1225 3098 567 
Q 2575 -91 1691 -91 
Q 1453 -91 1209 -44 
Q 966 3 703 97 
z
M 1959 2075 
Q 2384 2075 2632 2365 
Q 2881 2656 2881 3163 
Q 2881 3666 2632 3958 
Q 2384 4250 1959 4250 
Q 1534 4250 1286 3958 
Q 1038 3666 1038 3163 
Q 1038 2656 1286 2365 
Q 1534 2075 1959 2075 
z
" transform="scale(0.015625)"/>
       </defs>
       <use xlink:href="#DejaVuSans-32"/>
       <use xlink:href="#DejaVuSans-30" x="63.623047"/>
       <use xlink:href="#DejaVuSans-31" x="127.246094"/>
       <use xlink:href="#DejaVuSans-39" x="190.869141"/>
      </g>
     </g>
    </g>
    <g id="xtick_2">
     <g id="line2d_3">
      <path d="M 228.997614 390.04 
L 228.997614 26.88 
" clip-path="url(#p92289a7b3f)" style="fill: none; stroke-dasharray: 1.85,0.8; stroke-dashoffset: 0; stroke: #b0b0b0; stroke-opacity: 0.5; stroke-width: 0.5"/>
     </g>
     <g id="line2d_4">
      <g>
       <use xlink:href="#m4cf6714f4d" x="228.997614" y="390.04" style="stroke: #000000; stroke-width: 0.8"/>
      </g>
     </g>
     <g id="text_2">
      <!-- 2020 -->
      <g transform="translate(216.272614 404.638438) scale(0.1 -0.1)">
       <use xlink:href="#DejaVuSans-32"/>
       <use xlink:href="#DejaVuSans-30" x="63.623047"/>
       <use xlink:href="#DejaVuSans-32" x="127.246094"/>
       <use xlink:href="#DejaVuSans-30" x="190.869141"/>
      </g>
     </g>
    </g>
    <g id="xtick_3">
     <g id="line2d_5">
      <path d="M 365.519887 390.04 
L 365.519887 26.88 
" clip-path="url(#p92289a7b3f)" style="fill: none; stroke-dasharray: 1.85,0.8; stroke-dashoffset: 0; stroke: #b0b0b0; stroke-opacity: 0.5; stroke-width: 0.5"/>
     </g>
     <g id="line2d_6">
      <g>
       <use xlink:href="#m4cf6714f4d" x="365.519887" y="390.04" style="stroke: #000000; stroke-width: 0.8"/>
      </g>
     </g>
     <g id="text_3">
      <!-- 2021 -->
      <g transform="translate(352.794887 404.638438) scale(0.1 -0.1)">
       <use xlink:href="#DejaVuSans-32"/>
       <use xlink:href="#DejaVuSans-30" x="63.623047"/>
       <use xlink:href="#DejaVuSans-32" x="127.246094"/>
       <use xlink:href="#DejaVuSans-31" x="190.869141"/>
      </g>
     </g>
    </g>
    <g id="xtick_4">
     <g id="line2d_7">
      <path d="M 501.669148 390.04 
L 501.669148 26.88 
" clip-path="url(#p92289a7b3f)" style="fill: none; stroke-dasharray: 1.85,0.8; stroke-dashoffset: 0; stroke: #b0b0b0; stroke-opacity: 0.5; stroke-width: 0.5"/>
     </g>
     <g id="line2d_8">
      <g>
       <use xlink:href="#m4cf6714f4d" x="501.669148" y="390.04" style="stroke: #000000; stroke-width: 0.8"/>
      </g>
     </g>
     <g id="text_4">
      <!-- 2022 -->
      <g transform="translate(488.944148 404.638438) scale(0.1 -0.1)">
       <use xlink:href="#DejaVuSans-32"/>
       <use xlink:href="#DejaVuSans-30" x="63.623047"/>
       <use xlink:href="#DejaVuSans-32" x="127.246094"/>
       <use xlink:href="#DejaVuSans-32" x="190.869141"/>
      </g>
     </g>
    </g>
    <g id="xtick_5">
     <g id="line2d_9">
      <path d="M 637.81841 390.04 
L 637.81841 26.88 
" clip-path="url(#p92289a7b3f)" style="fill: none; stroke-dasharray: 1.85,0.8; stroke-dashoffset: 0; stroke: #b0b0b0; stroke-opacity: 0.5; stroke-width: 0.5"/>
     </g>
     <g id="line2d_10">
      <g>
       <use xlink:href="#m4cf6714f4d" x="637.81841" y="390.04" style="stroke: #000000; stroke-width: 0.8"/>
      </g>
     </g>
     <g id="text_5">
      <!-- 2023 -->
      <g transform="translate(625.09341 404.638438) scale(0.1 -0.1)">
       <defs>
        <path id="DejaVuSans-33" d="M 2597 2516 
Q 3050 2419 3304 2112 
Q 3559 1806 3559 1356 
Q 3559 666 3084 287 
Q 2609 -91 1734 -91 
Q 1441 -91 1130 -33 
Q 819 25 488 141 
L 488 750 
Q 750 597 1062 519 
Q 1375 441 1716 441 
Q 2309 441 2620 675 
Q 2931 909 2931 1356 
Q 2931 1769 2642 2001 
Q 2353 2234 1838 2234 
L 1294 2234 
L 1294 2753 
L 1863 2753 
Q 2328 2753 2575 2939 
Q 2822 3125 2822 3475 
Q 2822 3834 2567 4026 
Q 2313 4219 1838 4219 
Q 1578 4219 1281 4162 
Q 984 4106 628 3988 
L 628 4550 
Q 988 4650 1302 4700 
Q 1616 4750 1894 4750 
Q 2613 4750 3031 4423 
Q 3450 4097 3450 3541 
Q 3450 3153 3228 2886 
Q 3006 2619 2597 2516 
z
" transform="scale(0.015625)"/>
       </defs>
       <use xlink:href="#DejaVuSans-32"/>
       <use xlink:href="#DejaVuSans-30" x="63.623047"/>
       <use xlink:href="#DejaVuSans-32" x="127.246094"/>
       <use xlink:href="#DejaVuSans-33" x="190.869141"/>
      </g>
     </g>
    </g>
    <g id="xtick_6">
     <g id="line2d_11">
      <path d="M 773.967671 390.04 
L 773.967671 26.88 
" clip-path="url(#p92289a7b3f)" style="fill: none; stroke-dasharray: 1.85,0.8; stroke-dashoffset: 0; stroke: #b0b0b0; stroke-opacity: 0.5; stroke-width: 0.5"/>
     </g>
     <g id="line2d_12">
      <g>
       <use xlink:href="#m4cf6714f4d" x="773.967671" y="390.04" style="stroke: #000000; stroke-width: 0.8"/>
      </g>
     </g>
     <g id="text_6">
      <!-- 2024 -->
      <g transform="translate(761.242671 404.638438) scale(0.1 -0.1)">
       <defs>
        <path id="DejaVuSans-34" d="M 2419 4116 
L 825 1625 
L 2419 1625 
L 2419 4116 
z
M 2253 4666 
L 3047 4666 
L 3047 1625 
L 3713 1625 
L 3713 1100 
L 3047 1100 
L 3047 0 
L 2419 0 
L 2419 1100 
L 313 1100 
L 313 1709 
L 2253 4666 
z
" transform="scale(0.015625)"/>
       </defs>
       <use xlink:href="#DejaVuSans-32"/>
       <use xlink:href="#DejaVuSans-30" x="63.623047"/>
       <use xlink:href="#DejaVuSans-32" x="127.246094"/>
       <use xlink:href="#DejaVuSans-34" x="190.869141"/>
      </g>
     </g>
    </g>
    <g id="text_7">
     <!-- Date -->
     <g transform="translate(421.084219 418.316562) scale(0.1 -0.1)">
      <defs>
       <path id="DejaVuSans-44" d="M 1259 4147 
L 1259 519 
L 2022 519 
Q 2988 519 3436 956 
Q 3884 1394 3884 2338 
Q 3884 3275 3436 3711 
Q 2988 4147 2022 4147 
L 1259 4147 
z
M 628 4666 
L 1925 4666 
Q 3281 4666 3915 4102 
Q 4550 3538 4550 2338 
Q 4550 1131 3912 565 
Q 3275 0 1925 0 
L 628 0 
L 628 4666 
z
" transform="scale(0.015625)"/>
       <path id="DejaVuSans-61" d="M 2194 1759 
Q 1497 1759 1228 1600 
Q 959 1441 959 1056 
Q 959 750 1161 570 
Q 1363 391 1709 391 
Q 2188 391 2477 730 
Q 2766 1069 2766 1631 
L 2766 1759 
L 2194 1759 
z
M 3341 1997 
L 3341 0 
L 2766 0 
L 2766 531 
Q 2569 213 2275 61 
Q 1981 -91 1556 -91 
Q 1019 -91 701 211 
Q 384 513 384 1019 
Q 384 1609 779 1909 
Q 1175 2209 1959 2209 
L 2766 2209 
L 2766 2266 
Q 2766 2663 2505 2880 
Q 2244 3097 1772 3097 
Q 1472 3097 1187 3025 
Q 903 2953 641 2809 
L 641 3341 
Q 956 3463 1253 3523 
Q 1550 3584 1831 3584 
Q 2591 3584 2966 3190 
Q 3341 2797 3341 1997 
z
" transform="scale(0.015625)"/>
       <path id="DejaVuSans-74" d="M 1172 4494 
L 1172 3500 
L 2356 3500 
L 2356 3053 
L 1172 3053 
L 1172 1153 
Q 1172 725 1289 603 
Q 1406 481 1766 481 
L 2356 481 
L 2356 0 
L 1766 0 
Q 1100 0 847 248 
Q 594 497 594 1153 
L 594 3053 
L 172 3053 
L 172 3500 
L 594 3500 
L 594 4494 
L 1172 4494 
z
" transform="scale(0.015625)"/>
       <path id="DejaVuSans-65" d="M 3597 1894 
L 3597 1613 
L 953 1613 
Q 991 1019 1311 708 
Q 1631 397 2203 397 
Q 2534 397 2845 478 
Q 3156 559 3463 722 
L 3463 178 
Q 3153 47 2828 -22 
Q 2503 -91 2169 -91 
Q 1331 -91 842 396 
Q 353 884 353 1716 
Q 353 2575 817 3079 
Q 1281 3584 2069 3584 
Q 2775 3584 3186 3129 
Q 3597 2675 3597 1894 
z
M 3022 2063 
Q 3016 2534 2758 2815 
Q 2500 3097 2075 3097 
Q 1594 3097 1305 2825 
Q 1016 2553 972 2059 
L 3022 2063 
z
" transform="scale(0.015625)"/>
      </defs>
      <use xlink:href="#DejaVuSans-44"/>
      <use xlink:href="#DejaVuSans-61" x="77.001953"/>
      <use xlink:href="#DejaVuSans-74" x="138.28125"/>
      <use xlink:href="#DejaVuSans-65" x="177.490234"/>
     </g>
    </g>
   </g>
   <g id="matplotlib.axis_2">
    <g id="ytick_1">
     <g id="line2d_13">
      <path d="M 59.24 373.555336 
L 806.83 373.555336 
" clip-path="url(#p92289a7b3f)" style="fill: none; stroke-dasharray: 1.85,0.8; stroke-dashoffset: 0; stroke: #b0b0b0; stroke-opacity: 0.5; stroke-width: 0.5"/>
     </g>
     <g id="line2d_14">
      <defs>
       <path id="m74d04726a1" d="M 0 0 
L -3.5 0 
" style="stroke: #000000; stroke-width: 0.8"/>
      </defs>
      <g>
       <use xlink:href="#m74d04726a1" x="59.24" y="373.555336" style="stroke: #000000; stroke-width: 0.8"/>
      </g>
     </g>
     <g id="text_8">
      <!-- −100 -->
      <g style="fill: #d62728" transform="translate(24.772813 377.354554) scale(0.1 -0.1)">
       <defs>
        <path id="DejaVuSans-2212" d="M 678 2272 
L 4684 2272 
L 4684 1741 
L 678 1741 
L 678 2272 
z
" transform="scale(0.015625)"/>
       </defs>
       <use xlink:href="#DejaVuSans-2212"/>
       <use xlink:href="#DejaVuSans-31" x="83.789062"/>
       <use xlink:href="#DejaVuSans-30" x="147.412109"/>
       <use xlink:href="#DejaVuSans-30" x="211.035156"/>
      </g>
     </g>
    </g>
    <g id="ytick_2">
     <g id="line2d_15">
      <path d="M 59.24 321.792057 
L 806.83 321.792057 
" clip-path="url(#p92289a7b3f)" style="fill: none; stroke-dasharray: 1.85,0.8; stroke-dashoffset: 0; stroke: #b0b0b0; stroke-opacity: 0.5; stroke-width: 0.5"/>
     </g>
     <g id="line2d_16">
      <g>
       <use xlink:href="#m74d04726a1" x="59.24" y="321.792057" style="stroke: #000000; stroke-width: 0.8"/>
      </g>
     </g>
     <g id="text_9">
      <!-- −80 -->
      <g style="fill: #d62728" transform="translate(31.135313 325.591275) scale(0.1 -0.1)">
       <defs>
        <path id="DejaVuSans-38" d="M 2034 2216 
Q 1584 2216 1326 1975 
Q 1069 1734 1069 1313 
Q 1069 891 1326 650 
Q 1584 409 2034 409 
Q 2484 409 2743 651 
Q 3003 894 3003 1313 
Q 3003 1734 2745 1975 
Q 2488 2216 2034 2216 
z
M 1403 2484 
Q 997 2584 770 2862 
Q 544 3141 544 3541 
Q 544 4100 942 4425 
Q 1341 4750 2034 4750 
Q 2731 4750 3128 4425 
Q 3525 4100 3525 3541 
Q 3525 3141 3298 2862 
Q 3072 2584 2669 2484 
Q 3125 2378 3379 2068 
Q 3634 1759 3634 1313 
Q 3634 634 3220 271 
Q 2806 -91 2034 -91 
Q 1263 -91 848 271 
Q 434 634 434 1313 
Q 434 1759 690 2068 
Q 947 2378 1403 2484 
z
M 1172 3481 
Q 1172 3119 1398 2916 
Q 1625 2713 2034 2713 
Q 2441 2713 2670 2916 
Q 2900 3119 2900 3481 
Q 2900 3844 2670 4047 
Q 2441 4250 2034 4250 
Q 1625 4250 1398 4047 
Q 1172 3844 1172 3481 
z
" transform="scale(0.015625)"/>
       </defs>
       <use xlink:href="#DejaVuSans-2212"/>
       <use xlink:href="#DejaVuSans-38" x="83.789062"/>
       <use xlink:href="#DejaVuSans-30" x="147.412109"/>
      </g>
     </g>
    </g>
    <g id="ytick_3">
     <g id="line2d_17">
      <path d="M 59.24 270.028778 
L 806.83 270.028778 
" clip-path="url(#p92289a7b3f)" style="fill: none; stroke-dasharray: 1.85,0.8; stroke-dashoffset: 0; stroke: #b0b0b0; stroke-opacity: 0.5; stroke-width: 0.5"/>
     </g>
     <g id="line2d_18">
      <g>
       <use xlink:href="#m74d04726a1" x="59.24" y="270.028778" style="stroke: #000000; stroke-width: 0.8"/>
      </g>
     </g>
     <g id="text_10">
      <!-- −60 -->
      <g style="fill: #d62728" transform="translate(31.135313 273.827996) scale(0.1 -0.1)">
       <defs>
        <path id="DejaVuSans-36" d="M 2113 2584 
Q 1688 2584 1439 2293 
Q 1191 2003 1191 1497 
Q 1191 994 1439 701 
Q 1688 409 2113 409 
Q 2538 409 2786 701 
Q 3034 994 3034 1497 
Q 3034 2003 2786 2293 
Q 2538 2584 2113 2584 
z
M 3366 4563 
L 3366 3988 
Q 3128 4100 2886 4159 
Q 2644 4219 2406 4219 
Q 1781 4219 1451 3797 
Q 1122 3375 1075 2522 
Q 1259 2794 1537 2939 
Q 1816 3084 2150 3084 
Q 2853 3084 3261 2657 
Q 3669 2231 3669 1497 
Q 3669 778 3244 343 
Q 2819 -91 2113 -91 
Q 1303 -91 875 529 
Q 447 1150 447 2328 
Q 447 3434 972 4092 
Q 1497 4750 2381 4750 
Q 2619 4750 2861 4703 
Q 3103 4656 3366 4563 
z
" transform="scale(0.015625)"/>
       </defs>
       <use xlink:href="#DejaVuSans-2212"/>
       <use xlink:href="#DejaVuSans-36" x="83.789062"/>
       <use xlink:href="#DejaVuSans-30" x="147.412109"/>
      </g>
     </g>
    </g>
    <g id="ytick_4">
     <g id="line2d_19">
      <path d="M 59.24 218.265499 
L 806.83 218.265499 
" clip-path="url(#p92289a7b3f)" style="fill: none; stroke-dasharray: 1.85,0.8; stroke-dashoffset: 0; stroke: #b0b0b0; stroke-opacity: 0.5; stroke-width: 0.5"/>
     </g>
     <g id="line2d_20">
      <g>
       <use xlink:href="#m74d04726a1" x="59.24" y="218.265499" style="stroke: #000000; stroke-width: 0.8"/>
      </g>
     </g>
     <g id="text_11">
      <!-- −40 -->
      <g style="fill: #d62728" transform="translate(31.135313 222.064718) scale(0.1 -0.1)">
       <use xlink:href="#DejaVuSans-2212"/>
       <use xlink:href="#DejaVuSans-34" x="83.789062"/>
       <use xlink:href="#DejaVuSans-30" x="147.412109"/>
      </g>
     </g>
    </g>
    <g id="ytick_5">
     <g id="line2d_21">
      <path d="M 59.24 166.50222 
L 806.83 166.50222 
" clip-path="url(#p92289a7b3f)" style="fill: none; stroke-dasharray: 1.85,0.8; stroke-dashoffset: 0; stroke: #b0b0b0; stroke-opacity: 0.5; stroke-width: 0.5"/>
     </g>
     <g id="line2d_22">
      <g>
       <use xlink:href="#m74d04726a1" x="59.24" y="166.50222" style="stroke: #000000; stroke-width: 0.8"/>
      </g>
     </g>
     <g id="text_12">
      <!-- −20 -->
      <g style="fill: #d62728" transform="translate(31.135313 170.301439) scale(0.1 -0.1)">
       <use xlink:href="#DejaVuSans-2212"/>
       <use xlink:href="#DejaVuSans-32" x="83.789062"/>
       <use xlink:href="#DejaVuSans-30" x="147.412109"/>
      </g>
     </g>
    </g>
    <g id="ytick_6">
     <g id="line2d_23">
      <path d="M 59.24 114.738941 
L 806.83 114.738941 
" clip-path="url(#p92289a7b3f)" style="fill: none; stroke-dasharray: 1.85,0.8; stroke-dashoffset: 0; stroke: #b0b0b0; stroke-opacity: 0.5; stroke-width: 0.5"/>
     </g>
     <g id="line2d_24">
      <g>
       <use xlink:href="#m74d04726a1" x="59.24" y="114.738941" style="stroke: #000000; stroke-width: 0.8"/>
      </g>
     </g>
     <g id="text_13">
      <!-- 0 -->
      <g style="fill: #d62728" transform="translate(45.8775 118.53816) scale(0.1 -0.1)">
       <use xlink:href="#DejaVuSans-30"/>
      </g>
     </g>
    </g>
    <g id="ytick_7">
     <g id="line2d_25">
      <path d="M 59.24 62.975662 
L 806.83 62.975662 
" clip-path="url(#p92289a7b3f)" style="fill: none; stroke-dasharray: 1.85,0.8; stroke-dashoffset: 0; stroke: #b0b0b0; stroke-opacity: 0.5; stroke-width: 0.5"/>
     </g>
     <g id="line2d_26">
      <g>
       <use xlink:href="#m74d04726a1" x="59.24" y="62.975662" style="stroke: #000000; stroke-width: 0.8"/>
      </g>
     </g>
     <g id="text_14">
      <!-- 20 -->
      <g style="fill: #d62728" transform="translate(39.515 66.774881) scale(0.1 -0.1)">
       <use xlink:href="#DejaVuSans-32"/>
       <use xlink:href="#DejaVuSans-30" x="63.623047"/>
      </g>
     </g>
    </g>
    <g id="text_15">
     <!-- Returns (%) -->
     <g style="fill: #d62728" transform="translate(18.693125 237.8975) rotate(-90) scale(0.1 -0.1)">
      <defs>
       <path id="DejaVuSans-52" d="M 2841 2188 
Q 3044 2119 3236 1894 
Q 3428 1669 3622 1275 
L 4263 0 
L 3584 0 
L 2988 1197 
Q 2756 1666 2539 1819 
Q 2322 1972 1947 1972 
L 1259 1972 
L 1259 0 
L 628 0 
L 628 4666 
L 2053 4666 
Q 2853 4666 3247 4331 
Q 3641 3997 3641 3322 
Q 3641 2881 3436 2590 
Q 3231 2300 2841 2188 
z
M 1259 4147 
L 1259 2491 
L 2053 2491 
Q 2509 2491 2742 2702 
Q 2975 2913 2975 3322 
Q 2975 3731 2742 3939 
Q 2509 4147 2053 4147 
L 1259 4147 
z
" transform="scale(0.015625)"/>
       <path id="DejaVuSans-75" d="M 544 1381 
L 544 3500 
L 1119 3500 
L 1119 1403 
Q 1119 906 1312 657 
Q 1506 409 1894 409 
Q 2359 409 2629 706 
Q 2900 1003 2900 1516 
L 2900 3500 
L 3475 3500 
L 3475 0 
L 2900 0 
L 2900 538 
Q 2691 219 2414 64 
Q 2138 -91 1772 -91 
Q 1169 -91 856 284 
Q 544 659 544 1381 
z
M 1991 3584 
L 1991 3584 
z
" transform="scale(0.015625)"/>
       <path id="DejaVuSans-72" d="M 2631 2963 
Q 2534 3019 2420 3045 
Q 2306 3072 2169 3072 
Q 1681 3072 1420 2755 
Q 1159 2438 1159 1844 
L 1159 0 
L 581 0 
L 581 3500 
L 1159 3500 
L 1159 2956 
Q 1341 3275 1631 3429 
Q 1922 3584 2338 3584 
Q 2397 3584 2469 3576 
Q 2541 3569 2628 3553 
L 2631 2963 
z
" transform="scale(0.015625)"/>
       <path id="DejaVuSans-6e" d="M 3513 2113 
L 3513 0 
L 2938 0 
L 2938 2094 
Q 2938 2591 2744 2837 
Q 2550 3084 2163 3084 
Q 1697 3084 1428 2787 
Q 1159 2491 1159 1978 
L 1159 0 
L 581 0 
L 581 3500 
L 1159 3500 
L 1159 2956 
Q 1366 3272 1645 3428 
Q 1925 3584 2291 3584 
Q 2894 3584 3203 3211 
Q 3513 2838 3513 2113 
z
" transform="scale(0.015625)"/>
       <path id="DejaVuSans-73" d="M 2834 3397 
L 2834 2853 
Q 2591 2978 2328 3040 
Q 2066 3103 1784 3103 
Q 1356 3103 1142 2972 
Q 928 2841 928 2578 
Q 928 2378 1081 2264 
Q 1234 2150 1697 2047 
L 1894 2003 
Q 2506 1872 2764 1633 
Q 3022 1394 3022 966 
Q 3022 478 2636 193 
Q 2250 -91 1575 -91 
Q 1294 -91 989 -36 
Q 684 19 347 128 
L 347 722 
Q 666 556 975 473 
Q 1284 391 1588 391 
Q 1994 391 2212 530 
Q 2431 669 2431 922 
Q 2431 1156 2273 1281 
Q 2116 1406 1581 1522 
L 1381 1569 
Q 847 1681 609 1914 
Q 372 2147 372 2553 
Q 372 3047 722 3315 
Q 1072 3584 1716 3584 
Q 2034 3584 2315 3537 
Q 2597 3491 2834 3397 
z
" transform="scale(0.015625)"/>
       <path id="DejaVuSans-20" transform="scale(0.015625)"/>
       <path id="DejaVuSans-28" d="M 1984 4856 
Q 1566 4138 1362 3434 
Q 1159 2731 1159 2009 
Q 1159 1288 1364 580 
Q 1569 -128 1984 -844 
L 1484 -844 
Q 1016 -109 783 600 
Q 550 1309 550 2009 
Q 550 2706 781 3412 
Q 1013 4119 1484 4856 
L 1984 4856 
z
" transform="scale(0.015625)"/>
       <path id="DejaVuSans-25" d="M 4653 2053 
Q 4381 2053 4226 1822 
Q 4072 1591 4072 1178 
Q 4072 772 4226 539 
Q 4381 306 4653 306 
Q 4919 306 5073 539 
Q 5228 772 5228 1178 
Q 5228 1588 5073 1820 
Q 4919 2053 4653 2053 
z
M 4653 2450 
Q 5147 2450 5437 2106 
Q 5728 1763 5728 1178 
Q 5728 594 5436 251 
Q 5144 -91 4653 -91 
Q 4153 -91 3862 251 
Q 3572 594 3572 1178 
Q 3572 1766 3864 2108 
Q 4156 2450 4653 2450 
z
M 1428 4353 
Q 1159 4353 1004 4120 
Q 850 3888 850 3481 
Q 850 3069 1003 2837 
Q 1156 2606 1428 2606 
Q 1700 2606 1854 2837 
Q 2009 3069 2009 3481 
Q 2009 3884 1853 4118 
Q 1697 4353 1428 4353 
z
M 4250 4750 
L 4750 4750 
L 1831 -91 
L 1331 -91 
L 4250 4750 
z
M 1428 4750 
Q 1922 4750 2215 4408 
Q 2509 4066 2509 3481 
Q 2509 2891 2217 2550 
Q 1925 2209 1428 2209 
Q 931 2209 642 2551 
Q 353 2894 353 3481 
Q 353 4063 643 4406 
Q 934 4750 1428 4750 
z
" transform="scale(0.015625)"/>
       <path id="DejaVuSans-29" d="M 513 4856 
L 1013 4856 
Q 1481 4119 1714 3412 
Q 1947 2706 1947 2009 
Q 1947 1309 1714 600 
Q 1481 -109 1013 -844 
L 513 -844 
Q 928 -128 1133 580 
Q 1338 1288 1338 2009 
Q 1338 2731 1133 3434 
Q 928 4138 513 4856 
z
" transform="scale(0.015625)"/>
      </defs>
      <use xlink:href="#DejaVuSans-52"/>
      <use xlink:href="#DejaVuSans-65" x="64.982422"/>
      <use xlink:href="#DejaVuSans-74" x="126.505859"/>
      <use xlink:href="#DejaVuSans-75" x="165.714844"/>
      <use xlink:href="#DejaVuSans-72" x="229.09375"/>
      <use xlink:href="#DejaVuSans-6e" x="268.457031"/>
      <use xlink:href="#DejaVuSans-73" x="331.835938"/>
      <use xlink:href="#DejaVuSans-20" x="383.935547"/>
      <use xlink:href="#DejaVuSans-28" x="415.722656"/>
      <use xlink:href="#DejaVuSans-25" x="454.736328"/>
      <use xlink:href="#DejaVuSans-29" x="549.755859"/>
     </g>
    </g>
   </g>
   <g id="line2d_27">
    <path d="M 93.221364 114.738941 
L 93.594375 114.738941 
L 93.967387 71.68829 
L 132.38759 71.68829 
L 132.760601 75.179295 
L 134.252648 75.366252 
L 134.62566 50.244437 
L 134.998671 62.274902 
L 135.371683 58.099121 
L 135.744695 47.687901 
L 136.86373 53.735756 
L 137.609753 87.522505 
L 137.982765 77.049488 
L 138.355776 59.218978 
L 139.474811 43.387273 
L 139.847823 77.672781 
L 140.220835 81.22621 
L 140.966858 81.22621 
L 142.085893 118.704114 
L 143.57794 118.704114 
L 144.696975 135.061975 
L 145.81601 135.061975 
L 146.189022 125.919652 
L 147.681068 125.919652 
L 148.05408 132.469608 
L 148.427092 136.621818 
L 151.038173 136.621818 
L 151.411185 121.697806 
L 154.022267 121.697806 
L 155.141302 86.143611 
L 165.95864 86.143611 
L 166.331652 85.706601 
L 166.704664 72.781201 
L 167.077675 86.518461 
L 168.19671 82.834325 
L 169.315745 82.834325 
L 169.688757 67.537284 
L 170.807792 69.532594 
L 171.180804 55.898478 
L 171.553815 68.135844 
L 171.926827 65.342677 
L 172.299839 85.760578 
L 173.418874 114.159719 
L 173.791886 96.202265 
L 174.164897 94.074202 
L 174.537909 79.841527 
L 174.910921 88.22136 
L 176.029956 104.11696 
L 176.402967 92.743996 
L 176.775979 116.952885 
L 177.148991 125.465805 
L 177.522002 105.912639 
L 178.641037 96.734615 
L 179.014049 106.577742 
L 179.387061 98.46375 
L 180.133084 135.97437 
L 181.625131 135.97437 
L 181.998142 125.517937 
L 182.744166 125.517937 
L 184.236212 142.123561 
L 185.355247 142.123561 
L 186.474283 142.777339 
L 194.307528 142.777339 
L 194.680539 157.261791 
L 195.053551 153.080755 
L 196.918609 153.080755 
L 197.291621 166.282121 
L 250.259279 166.282121 
L 250.632291 156.570732 
L 251.751326 130.785419 
L 252.124337 151.882384 
L 252.497349 120.643642 
L 253.243372 120.643642 
L 254.362407 182.846067 
L 255.108431 182.846067 
L 255.481442 243.977206 
L 256.973489 243.977206 
L 257.346501 242.535072 
L 259.584571 242.535072 
L 259.957583 211.932688 
L 262.941676 211.932688 
L 263.314688 195.098973 
L 312.179217 195.098973 
L 312.552229 193.725784 
L 312.92524 185.946625 
L 313.298252 191.680322 
L 314.417287 172.336045 
L 317.774392 172.336045 
L 318.147404 176.924187 
L 319.639451 155.579948 
L 320.012462 168.332169 
L 320.385474 162.382044 
L 320.758486 186.332613 
L 321.131497 192.281174 
L 322.623544 200.523611 
L 323.369567 200.523611 
L 323.742579 201.249529 
L 331.575824 201.249529 
L 332.694859 174.828604 
L 341.274128 174.828604 
L 341.64714 168.814143 
L 342.020151 182.121786 
L 343.139186 181.73191 
L 343.512198 166.537483 
L 343.88521 127.644685 
L 344.258221 127.964812 
L 344.631233 146.539356 
L 345.750268 144.759877 
L 346.12328 133.728894 
L 387.900587 133.728894 
L 388.273599 167.197853 
L 388.646611 186.797338 
L 389.019622 173.707854 
L 390.138657 190.677114 
L 390.511669 164.18772 
L 390.884681 164.053239 
L 391.257692 138.990463 
L 391.630704 142.112664 
L 392.749739 134.196216 
L 393.122751 145.167624 
L 393.495762 137.117815 
L 393.868774 137.117815 
L 394.241786 115.204095 
L 395.733832 115.204095 
L 396.106844 155.202595 
L 397.971903 155.202595 
L 398.344914 150.580613 
L 404.686113 150.580613 
L 405.805148 164.740184 
L 413.638393 164.740184 
L 414.011405 154.385864 
L 414.757428 154.385864 
L 415.13044 130.190921 
L 416.995498 130.190921 
L 417.36851 115.551406 
L 419.233568 115.551406 
L 419.60658 99.826343 
L 437.138128 99.826343 
L 437.51114 115.006194 
L 437.884152 136.322105 
L 438.257163 136.606182 
L 439.74921 134.991002 
L 440.122222 120.133781 
L 440.495234 112.220211 
L 440.868245 126.188677 
L 441.241257 133.497569 
L 442.360292 147.222541 
L 442.733304 154.531433 
L 443.106315 131.478594 
L 443.852339 152.350128 
L 444.971374 150.412318 
L 445.344385 145.810273 
L 445.717397 145.688525 
L 446.090409 120.2535 
L 446.46342 132.286184 
L 447.582455 132.286184 
L 447.955467 137.69582 
L 449.074502 137.69582 
L 450.193537 155.009611 
L 450.93956 155.009611 
L 451.312572 170.477886 
L 464.740992 170.477886 
L 465.860027 163.622756 
L 466.233039 163.622756 
L 466.606051 175.250013 
L 466.979062 174.349068 
L 467.352074 173.089916 
L 468.471109 186.587809 
L 468.844121 184.932459 
L 469.217133 190.908004 
L 469.590144 183.70768 
L 469.963156 185.976325 
L 471.082191 182.880909 
L 471.828214 178.128333 
L 472.574238 178.128333 
L 473.693273 189.534856 
L 484.1376 189.534856 
L 484.510611 186.255518 
L 484.883623 193.668506 
L 485.256635 196.269589 
L 485.629646 197.659412 
L 486.748681 209.169692 
L 487.121693 209.027128 
L 488.240728 209.027128 
L 489.359763 216.21045 
L 490.105786 216.21045 
L 490.478798 206.570471 
L 490.85181 206.570471 
L 492.716868 206.427237 
L 493.08988 206.427237 
L 493.462891 215.031024 
L 494.954938 215.031024 
L 495.32795 194.648451 
L 495.700961 194.648451 
L 496.073973 168.850067 
L 501.296137 168.850067 
L 502.415172 150.032244 
L 502.788183 173.284648 
L 503.161195 206.258556 
L 503.534207 206.315417 
L 503.907218 217.856185 
L 505.026253 216.605531 
L 505.772277 216.605531 
L 506.145288 228.359311 
L 508.010347 228.359311 
L 508.383358 233.044793 
L 509.129382 233.044793 
L 510.248417 222.907513 
L 510.99444 222.907513 
L 511.367452 244.273447 
L 513.605522 244.273447 
L 513.978534 253.622058 
L 519.200697 253.622058 
L 519.573709 258.762495 
L 521.065755 261.541327 
L 521.438767 274.948779 
L 521.811779 261.680286 
L 522.18479 258.901454 
L 523.303825 258.901454 
L 523.676837 261.872876 
L 524.049849 261.181686 
L 527.406954 261.181686 
L 528.525989 275.984679 
L 538.970316 275.984679 
L 539.343328 276.746121 
L 539.716339 266.018451 
L 540.089351 275.638917 
L 541.581398 289.134771 
L 542.700433 289.134771 
L 543.073444 293.403078 
L 544.565491 293.403078 
L 544.938503 295.675119 
L 545.684526 295.675119 
L 546.803561 286.112182 
L 547.922596 286.112182 
L 548.295608 299.462514 
L 550.160666 299.462514 
L 550.533678 291.411329 
L 552.771748 291.411329 
L 553.14476 286.359209 
L 555.009818 286.359209 
L 555.38283 285.886244 
L 557.6209 285.886244 
L 557.993911 290.856955 
L 559.85897 290.856955 
L 560.231981 278.863693 
L 601.636277 278.863693 
L 602.009289 271.169664 
L 602.382301 255.46911 
L 605.739406 255.46911 
L 606.858441 261.845639 
L 610.215546 261.845639 
L 610.588558 263.284879 
L 610.961569 254.471338 
L 612.080604 255.910579 
L 618.048791 255.910579 
L 618.421803 228.813142 
L 618.794814 220.933307 
L 620.286861 225.737708 
L 620.659873 225.737708 
L 621.032884 231.188195 
L 621.405896 228.882828 
L 622.524931 234.962339 
L 622.897943 228.673153 
L 623.270954 229.511852 
L 629.239141 229.511852 
L 630.358176 219.369541 
L 634.461305 219.369541 
L 635.953351 232.704321 
L 640.802503 232.704321 
L 641.175515 221.674816 
L 654.976947 221.674816 
L 655.349959 212.327823 
L 656.842005 233.145299 
L 657.215017 229.321093 
L 657.588029 230.383373 
L 657.96104 240.580189 
L 659.080075 237.605806 
L 659.453087 233.995123 
L 659.826099 233.145299 
L 660.19911 236.33107 
L 660.572122 230.808284 
L 661.691157 238.455629 
L 662.064169 238.455629 
L 662.43718 242.278768 
L 663.183204 268.406895 
L 664.302239 259.910473 
L 665.048262 259.910473 
L 665.421274 259.065388 
L 667.286332 259.065388 
L 667.659344 271.322543 
L 670.643437 271.322543 
L 671.016449 265.606851 
L 674.746566 265.606851 
L 675.119577 261.791768 
L 707.571593 261.791768 
L 708.690628 252.013959 
L 716.896885 252.013959 
L 717.269897 257.642516 
L 717.642908 257.642516 
L 718.01592 257.857289 
L 722.119048 257.857289 
L 722.49206 265.568803 
L 729.952294 265.568803 
L 730.325305 265.352473 
L 732.936387 265.352473 
L 733.309399 265.810923 
L 733.68241 270.165564 
L 734.801445 373.532727 
L 772.848636 373.531737 
L 772.848636 373.531737 
" clip-path="url(#p92289a7b3f)" style="fill: none; stroke: #d62728; stroke-width: 1.5; stroke-linecap: square"/>
   </g>
   <g id="patch_3">
    <path d="M 59.24 390.04 
L 59.24 26.88 
" style="fill: none; stroke: #000000; stroke-width: 0.8; stroke-linejoin: miter; stroke-linecap: square"/>
   </g>
   <g id="patch_4">
    <path d="M 806.83 390.04 
L 806.83 26.88 
" style="fill: none; stroke: #000000; stroke-width: 0.8; stroke-linejoin: miter; stroke-linecap: square"/>
   </g>
   <g id="patch_5">
    <path d="M 59.24 390.04 
L 806.83 390.04 
" style="fill: none; stroke: #000000; stroke-width: 0.8; stroke-linejoin: miter; stroke-linecap: square"/>
   </g>
   <g id="patch_6">
    <path d="M 59.24 26.88 
L 806.83 26.88 
" style="fill: none; stroke: #000000; stroke-width: 0.8; stroke-linejoin: miter; stroke-linecap: square"/>
   </g>
  </g>
  <g id="axes_2">
   <g id="matplotlib.axis_3">
    <g id="ytick_8">
     <g id="line2d_28">
      <defs>
       <path id="mcbad82bda9" d="M 0 0 
L 3.5 0 
" style="stroke: #000000; stroke-width: 0.8"/>
      </defs>
      <g>
       <use xlink:href="#mcbad82bda9" x="806.83" y="378.071095" style="stroke: #000000; stroke-width: 0.8"/>
      </g>
     </g>
     <g id="text_16">
      <!-- 0 -->
      <g style="fill: #1f77b4" transform="translate(813.83 381.870314) scale(0.1 -0.1)">
       <use xlink:href="#DejaVuSans-30"/>
      </g>
     </g>
    </g>
    <g id="ytick_9">
     <g id="line2d_29">
      <g>
       <use xlink:href="#mcbad82bda9" x="806.83" y="332.164632" style="stroke: #000000; stroke-width: 0.8"/>
      </g>
     </g>
     <g id="text_17">
      <!-- 500 -->
      <g style="fill: #1f77b4" transform="translate(813.83 335.963851) scale(0.1 -0.1)">
       <defs>
        <path id="DejaVuSans-35" d="M 691 4666 
L 3169 4666 
L 3169 4134 
L 1269 4134 
L 1269 2991 
Q 1406 3038 1543 3061 
Q 1681 3084 1819 3084 
Q 2600 3084 3056 2656 
Q 3513 2228 3513 1497 
Q 3513 744 3044 326 
Q 2575 -91 1722 -91 
Q 1428 -91 1123 -41 
Q 819 9 494 109 
L 494 744 
Q 775 591 1075 516 
Q 1375 441 1709 441 
Q 2250 441 2565 725 
Q 2881 1009 2881 1497 
Q 2881 1984 2565 2268 
Q 2250 2553 1709 2553 
Q 1456 2553 1204 2497 
Q 953 2441 691 2322 
L 691 4666 
z
" transform="scale(0.015625)"/>
       </defs>
       <use xlink:href="#DejaVuSans-35"/>
       <use xlink:href="#DejaVuSans-30" x="63.623047"/>
       <use xlink:href="#DejaVuSans-30" x="127.246094"/>
      </g>
     </g>
    </g>
    <g id="ytick_10">
     <g id="line2d_30">
      <g>
       <use xlink:href="#mcbad82bda9" x="806.83" y="286.258169" style="stroke: #000000; stroke-width: 0.8"/>
      </g>
     </g>
     <g id="text_18">
      <!-- 1000 -->
      <g style="fill: #1f77b4" transform="translate(813.83 290.057388) scale(0.1 -0.1)">
       <use xlink:href="#DejaVuSans-31"/>
       <use xlink:href="#DejaVuSans-30" x="63.623047"/>
       <use xlink:href="#DejaVuSans-30" x="127.246094"/>
       <use xlink:href="#DejaVuSans-30" x="190.869141"/>
      </g>
     </g>
    </g>
    <g id="ytick_11">
     <g id="line2d_31">
      <g>
       <use xlink:href="#mcbad82bda9" x="806.83" y="240.351706" style="stroke: #000000; stroke-width: 0.8"/>
      </g>
     </g>
     <g id="text_19">
      <!-- 1500 -->
      <g style="fill: #1f77b4" transform="translate(813.83 244.150925) scale(0.1 -0.1)">
       <use xlink:href="#DejaVuSans-31"/>
       <use xlink:href="#DejaVuSans-35" x="63.623047"/>
       <use xlink:href="#DejaVuSans-30" x="127.246094"/>
       <use xlink:href="#DejaVuSans-30" x="190.869141"/>
      </g>
     </g>
    </g>
    <g id="ytick_12">
     <g id="line2d_32">
      <g>
       <use xlink:href="#mcbad82bda9" x="806.83" y="194.445243" style="stroke: #000000; stroke-width: 0.8"/>
      </g>
     </g>
     <g id="text_20">
      <!-- 2000 -->
      <g style="fill: #1f77b4" transform="translate(813.83 198.244462) scale(0.1 -0.1)">
       <use xlink:href="#DejaVuSans-32"/>
       <use xlink:href="#DejaVuSans-30" x="63.623047"/>
       <use xlink:href="#DejaVuSans-30" x="127.246094"/>
       <use xlink:href="#DejaVuSans-30" x="190.869141"/>
      </g>
     </g>
    </g>
    <g id="ytick_13">
     <g id="line2d_33">
      <g>
       <use xlink:href="#mcbad82bda9" x="806.83" y="148.538781" style="stroke: #000000; stroke-width: 0.8"/>
      </g>
     </g>
     <g id="text_21">
      <!-- 2500 -->
      <g style="fill: #1f77b4" transform="translate(813.83 152.337999) scale(0.1 -0.1)">
       <use xlink:href="#DejaVuSans-32"/>
       <use xlink:href="#DejaVuSans-35" x="63.623047"/>
       <use xlink:href="#DejaVuSans-30" x="127.246094"/>
       <use xlink:href="#DejaVuSans-30" x="190.869141"/>
      </g>
     </g>
    </g>
    <g id="ytick_14">
     <g id="line2d_34">
      <g>
       <use xlink:href="#mcbad82bda9" x="806.83" y="102.632318" style="stroke: #000000; stroke-width: 0.8"/>
      </g>
     </g>
     <g id="text_22">
      <!-- 3000 -->
      <g style="fill: #1f77b4" transform="translate(813.83 106.431536) scale(0.1 -0.1)">
       <use xlink:href="#DejaVuSans-33"/>
       <use xlink:href="#DejaVuSans-30" x="63.623047"/>
       <use xlink:href="#DejaVuSans-30" x="127.246094"/>
       <use xlink:href="#DejaVuSans-30" x="190.869141"/>
      </g>
     </g>
    </g>
    <g id="ytick_15">
     <g id="line2d_35">
      <g>
       <use xlink:href="#mcbad82bda9" x="806.83" y="56.725855" style="stroke: #000000; stroke-width: 0.8"/>
      </g>
     </g>
     <g id="text_23">
      <!-- 3500 -->
      <g style="fill: #1f77b4" transform="translate(813.83 60.525073) scale(0.1 -0.1)">
       <use xlink:href="#DejaVuSans-33"/>
       <use xlink:href="#DejaVuSans-35" x="63.623047"/>
       <use xlink:href="#DejaVuSans-30" x="127.246094"/>
       <use xlink:href="#DejaVuSans-30" x="190.869141"/>
      </g>
     </g>
    </g>
    <g id="text_24">
     <!-- Close Price -->
     <g style="fill: #1f77b4" transform="translate(850.878438 235.867812) rotate(-90) scale(0.1 -0.1)">
      <defs>
       <path id="DejaVuSans-43" d="M 4122 4306 
L 4122 3641 
Q 3803 3938 3442 4084 
Q 3081 4231 2675 4231 
Q 1875 4231 1450 3742 
Q 1025 3253 1025 2328 
Q 1025 1406 1450 917 
Q 1875 428 2675 428 
Q 3081 428 3442 575 
Q 3803 722 4122 1019 
L 4122 359 
Q 3791 134 3420 21 
Q 3050 -91 2638 -91 
Q 1578 -91 968 557 
Q 359 1206 359 2328 
Q 359 3453 968 4101 
Q 1578 4750 2638 4750 
Q 3056 4750 3426 4639 
Q 3797 4528 4122 4306 
z
" transform="scale(0.015625)"/>
       <path id="DejaVuSans-6c" d="M 603 4863 
L 1178 4863 
L 1178 0 
L 603 0 
L 603 4863 
z
" transform="scale(0.015625)"/>
       <path id="DejaVuSans-6f" d="M 1959 3097 
Q 1497 3097 1228 2736 
Q 959 2375 959 1747 
Q 959 1119 1226 758 
Q 1494 397 1959 397 
Q 2419 397 2687 759 
Q 2956 1122 2956 1747 
Q 2956 2369 2687 2733 
Q 2419 3097 1959 3097 
z
M 1959 3584 
Q 2709 3584 3137 3096 
Q 3566 2609 3566 1747 
Q 3566 888 3137 398 
Q 2709 -91 1959 -91 
Q 1206 -91 779 398 
Q 353 888 353 1747 
Q 353 2609 779 3096 
Q 1206 3584 1959 3584 
z
" transform="scale(0.015625)"/>
       <path id="DejaVuSans-50" d="M 1259 4147 
L 1259 2394 
L 2053 2394 
Q 2494 2394 2734 2622 
Q 2975 2850 2975 3272 
Q 2975 3691 2734 3919 
Q 2494 4147 2053 4147 
L 1259 4147 
z
M 628 4666 
L 2053 4666 
Q 2838 4666 3239 4311 
Q 3641 3956 3641 3272 
Q 3641 2581 3239 2228 
Q 2838 1875 2053 1875 
L 1259 1875 
L 1259 0 
L 628 0 
L 628 4666 
z
" transform="scale(0.015625)"/>
       <path id="DejaVuSans-69" d="M 603 3500 
L 1178 3500 
L 1178 0 
L 603 0 
L 603 3500 
z
M 603 4863 
L 1178 4863 
L 1178 4134 
L 603 4134 
L 603 4863 
z
" transform="scale(0.015625)"/>
       <path id="DejaVuSans-63" d="M 3122 3366 
L 3122 2828 
Q 2878 2963 2633 3030 
Q 2388 3097 2138 3097 
Q 1578 3097 1268 2742 
Q 959 2388 959 1747 
Q 959 1106 1268 751 
Q 1578 397 2138 397 
Q 2388 397 2633 464 
Q 2878 531 3122 666 
L 3122 134 
Q 2881 22 2623 -34 
Q 2366 -91 2075 -91 
Q 1284 -91 818 406 
Q 353 903 353 1747 
Q 353 2603 823 3093 
Q 1294 3584 2113 3584 
Q 2378 3584 2631 3529 
Q 2884 3475 3122 3366 
z
" transform="scale(0.015625)"/>
      </defs>
      <use xlink:href="#DejaVuSans-43"/>
      <use xlink:href="#DejaVuSans-6c" x="69.824219"/>
      <use xlink:href="#DejaVuSans-6f" x="97.607422"/>
      <use xlink:href="#DejaVuSans-73" x="158.789062"/>
      <use xlink:href="#DejaVuSans-65" x="210.888672"/>
      <use xlink:href="#DejaVuSans-20" x="272.412109"/>
      <use xlink:href="#DejaVuSans-50" x="304.199219"/>
      <use xlink:href="#DejaVuSans-72" x="362.751953"/>
      <use xlink:href="#DejaVuSans-69" x="403.865234"/>
      <use xlink:href="#DejaVuSans-63" x="431.648438"/>
      <use xlink:href="#DejaVuSans-65" x="486.628906"/>
     </g>
    </g>
   </g>
   <g id="line2d_36">
    <path d="M 93.221364 315.815321 
L 93.594375 320.277705 
L 93.967387 310.660668 
L 95.459434 295.85262 
L 95.832445 295.051185 
L 96.205457 291.062281 
L 96.578469 291.189809 
L 97.697504 296.981919 
L 98.070515 291.17163 
L 98.443527 292.15513 
L 99.18955 287.419511 
L 100.681597 295.634014 
L 101.054609 298.839754 
L 101.42762 296.599426 
L 101.800632 291.226259 
L 102.919667 298.584697 
L 103.292679 298.329733 
L 103.665691 291.790908 
L 104.038702 287.747375 
L 104.411714 286.526998 
L 105.530749 285.270262 
L 105.903761 287.055197 
L 106.276772 285.653122 
L 106.649784 293.175172 
L 107.022796 291.062281 
L 108.141831 289.805545 
L 108.514842 285.561309 
L 108.887854 285.598034 
L 109.260866 284.523823 
L 109.633877 278.531194 
L 111.125924 281.754745 
L 111.498936 282.956577 
L 111.871947 287.073468 
L 112.244959 281.809833 
L 113.363994 269.023047 
L 113.737006 271.664505 
L 114.110017 266.455039 
L 114.483029 270.80789 
L 114.856041 261.209767 
L 115.975076 264.724366 
L 116.348088 267.219841 
L 116.721099 280.753066 
L 117.094111 280.843961 
L 117.467123 281.171733 
L 118.959169 269.241562 
L 119.332181 263.103868 
L 119.705193 267.419993 
L 120.078204 264.670196 
L 121.197239 263.796137 
L 121.570251 264.927272 
L 121.943263 268.193058 
L 122.316274 262.500657 
L 122.689286 277.845351 
L 123.808321 277.479936 
L 124.181333 271.550657 
L 124.554344 278.666159 
L 124.927356 274.9257 
L 125.300368 268.813713 
L 126.419403 269.525264 
L 127.165426 261.223539 
L 127.538438 264.251529 
L 127.911449 257.263647 
L 129.030484 259.836246 
L 129.403496 266.222753 
L 129.776508 261.131726 
L 130.14952 268.776988 
L 130.522531 272.116224 
L 131.641566 275.163495 
L 132.014578 275.400373 
L 132.38759 289.760006 
L 132.760601 290.781792 
L 134.252648 290.836513 
L 134.62566 283.483583 
L 134.998671 287.004792 
L 135.371683 285.782578 
L 135.744695 282.735307 
L 136.86373 284.505461 
L 137.609753 294.394539 
L 137.982765 291.329181 
L 138.355776 286.110351 
L 139.474811 281.476552 
L 139.847823 291.511613 
L 140.220835 292.55167 
L 140.593846 292.843543 
L 140.966858 294.102574 
L 142.085893 304.867731 
L 142.458905 300.762408 
L 142.831916 299.101971 
L 143.204928 295.963622 
L 143.57794 299.065522 
L 144.696975 304.13791 
L 145.069987 297.11312 
L 145.81601 301.437509 
L 146.189022 298.499862 
L 147.681068 300.871849 
L 148.05408 302.915421 
L 148.427092 304.210902 
L 148.800103 308.57174 
L 149.919138 305.780076 
L 150.29215 299.61291 
L 150.665162 299.813613 
L 151.038173 303.627063 
L 151.411185 298.93781 
L 152.53022 301.528679 
L 152.903232 304.174452 
L 153.276243 302.422753 
L 153.649255 298.97426 
L 154.022267 303.51753 
L 155.514313 288.500976 
L 155.887325 288.172561 
L 156.260337 288.500976 
L 156.633348 287.625172 
L 157.752383 295.270343 
L 158.125395 295.987952 
L 158.498407 297.905374 
L 159.24443 286.419209 
L 160.363465 285.049911 
L 160.736477 286.985328 
L 161.109489 282.967594 
L 161.855512 288.628779 
L 162.974547 293.139273 
L 163.347559 289.194898 
L 163.72057 288.847937 
L 164.093582 292.664508 
L 164.466594 293.06619 
L 165.585629 291.751429 
L 165.95864 294.05226 
L 166.331652 293.924457 
L 166.704664 290.144427 
L 167.077675 294.161885 
L 168.19671 293.08446 
L 168.569722 294.782724 
L 168.942734 292.609696 
L 169.315745 298.288876 
L 169.688757 294.088802 
L 170.807792 294.63665 
L 171.180804 290.893161 
L 171.553815 294.253147 
L 171.926827 293.486234 
L 172.299839 299.092331 
L 173.418874 306.889819 
L 173.791886 301.959281 
L 174.164897 301.374984 
L 174.537909 297.46715 
L 174.910921 299.767982 
L 176.029956 304.132402 
L 176.402967 301.009752 
L 176.775979 307.656733 
L 177.148991 309.994106 
L 177.522002 304.625437 
L 178.641037 302.105448 
L 179.014049 304.808053 
L 179.387061 302.580212 
L 180.133084 312.879419 
L 181.252119 310.961998 
L 181.625131 314.212451 
L 182.371154 308.807149 
L 182.744166 310.74284 
L 184.236212 315.253334 
L 184.609224 313.902031 
L 184.982236 311.144614 
L 185.355247 313.427175 
L 186.474283 313.609791 
L 187.220306 303.621095 
L 187.593318 305.593237 
L 187.966329 306.232347 
L 189.085364 302.470588 
L 189.458376 303.274134 
L 189.831388 305.37408 
L 190.577411 305.794124 
L 191.696446 308.259393 
L 192.069458 313.244192 
L 192.442469 314.394975 
L 192.815481 319.765297 
L 193.188493 321.19005 
L 194.307528 321.628456 
L 194.680539 325.172068 
L 195.053551 324.14918 
L 195.426563 320.861268 
L 195.799574 320.623748 
L 196.918609 321.043883 
L 197.291621 324.459692 
L 197.664633 325.245151 
L 198.410656 320.331507 
L 199.529691 320.587206 
L 199.902703 316.477292 
L 200.275714 316.787895 
L 200.648726 314.595954 
L 201.021738 316.95224 
L 202.513785 312.075138 
L 203.259808 313.481712 
L 203.63282 310.595573 
L 204.751855 307.855691 
L 205.124866 308.494985 
L 205.497878 309.481331 
L 205.87089 310.120716 
L 206.243901 305.006093 
L 207.362936 306.376126 
L 207.735948 306.376126 
L 208.10896 310.047633 
L 208.481971 309.46306 
L 208.854983 304.348529 
L 209.974018 305.663749 
L 210.720041 303.709236 
L 211.093053 305.353238 
L 211.466065 302.448828 
L 212.5851 301.791264 
L 212.958111 295.964356 
L 214.077146 293.407091 
L 215.196182 282.61136 
L 215.569193 281.606927 
L 215.942205 277.75262 
L 216.688228 277.333035 
L 217.807263 281.204786 
L 218.553287 273.113313 
L 218.926298 278.611071 
L 219.29931 274.976197 
L 220.418345 274.610782 
L 220.791357 270.957545 
L 221.164368 275.341612 
L 221.910392 272.035429 
L 223.029427 267.925882 
L 223.402438 268.126953 
L 223.77545 270.245077 
L 224.148462 268.43728 
L 224.521473 267.724812 
L 225.640508 264.317634 
L 226.01352 260.664398 
L 226.759543 264.500342 
L 227.132555 269.725416 
L 228.25159 274.493261 
L 228.624602 273.031599 
L 229.370625 274.949571 
L 229.743637 279.115124 
L 230.862672 276.593941 
L 231.235684 276.173438 
L 231.608695 271.990441 
L 231.981707 271.204522 
L 232.354719 274.493261 
L 233.473754 280.7953 
L 233.846765 272.428388 
L 234.592789 267.642181 
L 234.9658 270.528779 
L 236.457847 275.680402 
L 236.830859 276.356145 
L 237.20387 280.356435 
L 237.576882 288.193769 
L 238.695917 290.27627 
L 239.068929 285.362075 
L 239.44194 285.910198 
L 240.187964 293.272218 
L 241.306999 287.481301 
L 242.053022 272.684546 
L 242.426034 272.136423 
L 242.799046 275.132279 
L 243.918081 270.072469 
L 244.291092 270.437884 
L 244.664104 266.455039 
L 245.037116 269.999018 
L 246.902174 268.007596 
L 247.275186 265.304623 
L 248.021209 269.249825 
L 249.140244 280.46661 
L 249.513256 289.125395 
L 249.886267 287.919708 
L 250.259279 298.971689 
L 250.632291 295.263365 
L 251.751326 285.417163 
L 252.124337 293.473105 
L 252.497349 281.544494 
L 252.870361 286.458322 
L 254.362407 314.755065 
L 254.735419 309.092044 
L 255.481442 340.823142 
L 255.854454 333.735276 
L 256.973489 348.532123 
L 257.346501 348.203341 
L 257.719513 351.235738 
L 258.092524 346.449622 
L 258.465536 347.783205 
L 259.584571 348.440769 
L 259.957583 341.51734 
L 260.330594 339.635726 
L 260.703606 335.415912 
L 261.076618 339.032882 
L 262.195653 335.89086 
L 262.568664 336.895569 
L 262.941676 343.36232 
L 263.314688 339.74535 
L 263.687699 341.389444 
L 264.806734 333.278599 
L 265.179746 335.963943 
L 265.552758 331.01339 
L 265.925769 328.437578 
L 267.417816 328.419308 
L 267.790828 322.79292 
L 268.163839 326.428161 
L 268.536851 322.847732 
L 268.909863 313.458024 
L 270.028898 306.552866 
L 270.401909 312.654294 
L 270.774921 309.183398 
L 271.147933 309.128586 
L 271.520945 302.168615 
L 272.63998 299.172667 
L 273.012991 306.205721 
L 273.386003 305.255825 
L 274.132026 316.161731 
L 275.251061 306.973002 
L 275.624073 302.369502 
L 275.997085 301.182085 
L 276.370096 300.743678 
L 276.743108 297.674739 
L 277.862143 285.508058 
L 278.608166 296.706572 
L 278.981178 298.880427 
L 279.35419 290.842572 
L 280.473225 283.206308 
L 280.846236 291.244438 
L 281.219248 283.918776 
L 281.59226 285.965286 
L 281.965271 282.713272 
L 283.457318 289.52726 
L 283.83033 289.709968 
L 284.203341 292.157884 
L 284.576353 289.47254 
L 285.695388 288.120686 
L 286.0684 284.503624 
L 286.814423 293.674083 
L 287.187435 291.53677 
L 288.30647 286.695842 
L 288.679482 287.207331 
L 289.052493 286.805374 
L 289.425505 301.894553 
L 289.798517 299.136126 
L 290.917552 292.431854 
L 291.290563 288.559093 
L 291.663575 288.285123 
L 292.036587 285.380438 
L 292.409598 277.524924 
L 293.528633 268.647532 
L 293.901645 263.313201 
L 294.274657 270.200089 
L 294.647668 262.78344 
L 295.02068 273.981863 
L 296.139715 274.547431 
L 296.512727 269.524346 
L 296.885738 268.446462 
L 297.25875 266.966437 
L 298.750797 267.021525 
L 299.49682 255.531137 
L 299.869832 257.869613 
L 300.242844 261.705557 
L 301.361879 270.492054 
L 302.107902 254.763581 
L 302.480914 258.325923 
L 302.853925 250.434602 
L 303.97296 245.373873 
L 304.345972 253.923493 
L 304.718984 255.073909 
L 305.465007 270.985089 
L 306.584042 262.473113 
L 306.957054 271.479043 
L 307.330065 276.666473 
L 307.703077 272.374219 
L 308.076089 279.991937 
L 309.195124 267.733993 
L 309.568135 269.08548 
L 309.941147 266.364145 
L 310.314159 268.117771 
L 310.68717 267.733993 
L 311.806205 267.971789 
L 312.179217 280.92292 
L 312.552229 280.174645 
L 312.92524 275.935642 
L 313.298252 279.060036 
L 314.417287 268.518994 
L 314.790299 271.25961 
L 315.163311 272.081335 
L 315.536322 272.099698 
L 315.909334 276.11835 
L 317.028369 283.261395 
L 317.401381 279.955212 
L 317.774392 283.626811 
L 318.147404 285.782578 
L 319.639451 275.753853 
L 320.012462 281.745564 
L 320.385474 278.94986 
L 320.758486 290.203187 
L 321.131497 292.998156 
L 322.623544 296.870917 
L 322.996556 291.098363 
L 323.369567 295.372989 
L 323.742579 295.720042 
L 324.861614 278.49355 
L 325.234626 275.479332 
L 325.607637 269.103842 
L 325.980649 269.15893 
L 326.353661 266.199799 
L 327.472696 277.96379 
L 327.845708 276.136712 
L 328.218719 285.983649 
L 328.591731 288.705259 
L 328.964743 281.727201 
L 330.083778 281.672114 
L 330.456789 279.333639 
L 330.829801 280.247177 
L 331.202813 276.337783 
L 331.575824 283.626811 
L 332.694859 269.140567 
L 333.067871 271.935353 
L 333.440883 261.742282 
L 333.813894 260.389878 
L 334.186906 256.882624 
L 335.305941 255.969085 
L 335.678953 250.763292 
L 336.051964 258.545356 
L 336.797988 255.713845 
L 337.917023 263.203026 
L 338.290034 267.715631 
L 338.663046 275.771297 
L 339.036058 267.18587 
L 339.409069 265.816021 
L 340.528104 270.364434 
L 340.901116 265.998729 
L 341.274128 276.100905 
L 341.64714 273.013237 
L 342.020151 279.845037 
L 343.139186 279.644884 
L 343.512198 271.844458 
L 343.88521 251.877901 
L 344.258221 252.042246 
L 344.631233 261.577937 
L 345.750268 260.664398 
L 346.496291 250.708204 
L 346.869303 250.196806 
L 347.242315 246.104704 
L 348.36135 244.095838 
L 348.734361 241.135789 
L 349.107373 248.936215 
L 349.480385 246.689553 
L 349.853396 243.291556 
L 350.972431 241.976795 
L 351.345443 243.145574 
L 351.718455 240.295701 
L 352.464478 225.7002 
L 353.583513 219.817746 
L 353.956525 221.023249 
L 354.329536 221.004887 
L 354.702548 217.588528 
L 355.07556 209.185809 
L 356.194595 204.271981 
L 356.567607 193.859477 
L 356.940618 205.239689 
L 357.31363 186.460273 
L 357.686642 187.447262 
L 358.805677 171.407544 
L 359.178688 170.731801 
L 359.5517 178.185174 
L 359.924712 169.051624 
L 361.78977 148.738015 
L 362.162782 148.098078 
L 362.535793 154.547018 
L 364.02784 170.019333 
L 364.400852 188.817111 
L 364.773863 180.669632 
L 365.146875 194.607752 
L 366.638922 194.73629 
L 367.011933 195.083343 
L 367.384945 184.670839 
L 367.757957 160.959233 
L 368.130968 159.752811 
L 369.250003 166.000681 
L 369.623015 161.488994 
L 369.996027 163.881639 
L 370.369039 143.841631 
L 370.74205 150.857057 
L 372.234097 139.89643 
L 372.607109 139.603547 
L 372.98012 155.423832 
L 373.353132 147.477423 
L 374.472167 127.474141 
L 375.21819 149.633191 
L 375.591202 153.066994 
L 375.964214 147.58668 
L 377.083249 116.714584 
L 377.45626 100.657422 
L 377.829272 109.553176 
L 378.202284 102.830633 
L 378.575295 81.219707 
L 379.69433 43.387273 
L 380.067342 55.626854 
L 380.440354 76.37933 
L 380.813365 88.929238 
L 381.186377 97.42377 
L 382.678424 118.997972 
L 383.051435 115.50908 
L 383.424447 136.936381 
L 383.797459 124.149595 
L 384.916494 147.25799 
L 385.289506 162.164737 
L 385.662517 151.916578 
L 386.035529 180.176597 
L 386.408541 176.32229 
L 387.527576 160.885783 
L 387.900587 181.820966 
L 388.273599 209.240896 
L 388.646611 225.298059 
L 389.019622 214.574309 
L 390.138657 228.476623 
L 390.511669 206.774801 
L 390.884681 206.664626 
L 391.257692 186.131583 
L 391.630704 188.689491 
L 392.749739 182.203826 
L 393.122751 191.192312 
L 393.495762 184.597389 
L 393.868774 212.41946 
L 394.241786 197.056403 
L 395.360821 188.780386 
L 396.106844 245.685119 
L 396.479856 234.158006 
L 396.852867 240.843824 
L 397.971903 252.937422 
L 398.344914 250.288619 
L 398.717926 233.901848 
L 399.090938 229.846471 
L 400.582984 224.676486 
L 401.329008 246.79881 
L 401.702019 244.186732 
L 402.075031 252.699627 
L 403.194066 260.773656 
L 403.567078 255.67712 
L 403.940089 246.324137 
L 404.313101 241.976795 
L 404.686113 248.735145 
L 405.805148 256.956074 
L 406.178159 257.65018 
L 406.551171 245.484049 
L 406.924183 240.807099 
L 407.297194 241.373584 
L 408.416229 226.15651 
L 408.789241 225.95544 
L 409.162253 224.000742 
L 409.908276 234.212176 
L 411.027311 239.382162 
L 411.400323 256.024173 
L 412.146346 266.327419 
L 412.519358 261.668832 
L 413.638393 274.292191 
L 414.011405 269.140567 
L 414.384416 271.78937 
L 414.757428 276.356145 
L 415.13044 265.121916 
L 416.249475 266.253969 
L 416.622486 264.35436 
L 416.995498 270.583867 
L 417.36851 264.116564 
L 417.741521 266.089624 
L 418.860556 268.574082 
L 419.233568 272.319131 
L 419.60658 265.870191 
L 419.979591 261.833177 
L 420.352603 262.984511 
L 421.84465 266.747004 
L 422.217661 265.103553 
L 422.590673 266.747004 
L 422.963685 266.089624 
L 424.08272 251.293053 
L 424.828743 245.118634 
L 425.201755 241.245964 
L 425.574766 241.811532 
L 426.693802 238.870764 
L 427.066813 248.936215 
L 427.439825 248.735145 
L 427.812837 246.415032 
L 428.185848 249.338356 
L 429.304883 245.118634 
L 429.677895 248.936215 
L 430.050907 247.091693 
L 430.423918 238.158296 
L 430.79693 234.047831 
L 431.915965 235.6922 
L 432.288977 242.634176 
L 432.661988 243.529352 
L 433.035 234.760299 
L 433.408012 240.661116 
L 434.900058 249.319993 
L 435.27307 256.334501 
L 435.646082 254.270546 
L 436.019093 249.356718 
L 437.138128 254.325634 
L 437.51114 261.194159 
L 437.884152 270.839107 
L 438.257163 270.967645 
L 439.74921 270.236814 
L 440.122222 263.514271 
L 440.495234 259.933567 
L 440.868245 266.253969 
L 441.241257 269.561071 
L 442.360292 275.771297 
L 442.733304 279.078399 
L 443.106315 268.647532 
L 443.852339 278.09141 
L 444.971374 277.214596 
L 445.344385 275.132279 
L 445.717397 275.077191 
L 446.090409 263.568441 
L 446.46342 269.012948 
L 447.582455 268.921135 
L 448.328479 273.43374 
L 448.70149 270.894194 
L 449.074502 275.808022 
L 450.193537 283.316483 
L 450.566549 278.694621 
L 451.312572 290.550332 
L 451.685584 283.078688 
L 452.804619 270.126638 
L 453.17763 269.999018 
L 453.550642 266.546852 
L 453.923654 268.062684 
L 454.296666 259.367082 
L 455.415701 260.189725 
L 455.788712 256.956074 
L 456.161724 250.781655 
L 456.534736 246.780447 
L 456.907747 253.850043 
L 458.399794 255.5495 
L 458.772806 258.746426 
L 459.145817 257.32149 
L 459.518829 260.35407 
L 460.637864 261.979159 
L 461.010876 267.021525 
L 461.383887 263.898049 
L 461.756899 262.564008 
L 462.129911 257.192951 
L 463.248946 268.866047 
L 463.621957 264.7565 
L 463.994969 264.171652 
L 464.367981 257.631817 
L 464.740992 265.030103 
L 465.860027 261.212521 
L 466.233039 271.606663 
L 466.606051 277.507479 
L 466.979062 277.050251 
L 467.352074 276.411233 
L 468.471109 283.261395 
L 468.844121 282.421307 
L 469.217133 285.453888 
L 469.590144 281.799734 
L 469.963156 282.951068 
L 471.082191 281.380149 
L 471.828214 278.968223 
L 472.201226 274.310553 
L 472.574238 279.261106 
L 473.693273 285.033385 
L 474.066284 282.512202 
L 474.439296 283.645174 
L 474.812308 281.928272 
L 475.185319 281.507769 
L 476.304354 280.959645 
L 476.677366 281.982441 
L 477.050378 286.238889 
L 477.423389 277.598374 
L 477.796401 280.521698 
L 479.288448 265.249536 
L 479.661459 257.631817 
L 480.034471 260.262258 
L 480.407483 265.358793 
L 481.526518 267.569648 
L 481.899529 271.862821 
L 482.272541 278.219948 
L 483.018565 277.580012 
L 484.1376 283.827881 
L 484.510611 282.146787 
L 484.883623 285.946924 
L 485.256635 287.280323 
L 485.629646 287.992791 
L 486.748681 293.893332 
L 487.121693 293.820249 
L 487.494705 292.230967 
L 488.240728 299.428458 
L 489.359763 302.862721 
L 489.732775 300.451438 
L 490.105786 308.361305 
L 490.478798 304.086679 
L 490.85181 314.188763 
L 491.970845 314.133951 
L 492.343856 304.433823 
L 492.716868 301.492688 
L 493.08988 311.046741 
L 493.462891 314.499366 
L 494.581926 312.709106 
L 494.954938 316.435701 
L 495.32795 308.507471 
L 495.700961 314.280117 
L 496.073973 305.073117 
L 497.193008 304.890501 
L 497.56602 303.611731 
L 497.939032 303.776167 
L 498.312043 300.396625 
L 499.80409 306.4067 
L 500.177102 310.005491 
L 500.550113 310.79095 
L 500.923125 309.895866 
L 501.296137 312.307149 
L 502.415172 306.260533 
L 502.788183 313.732086 
L 503.161195 324.327389 
L 503.534207 324.34566 
L 503.907218 328.053984 
L 505.026253 327.652119 
L 505.399265 326.501244 
L 505.772277 331.488338 
L 506.145288 334.977505 
L 506.5183 331.853662 
L 508.010347 340.147215 
L 508.383358 341.371173 
L 509.129382 345.408371 
L 510.248417 343.051809 
L 510.621429 344.001706 
L 510.99444 345.755424 
L 511.367452 350.340654 
L 511.740464 347.289894 
L 513.23251 340.640434 
L 513.605522 344.476746 
L 513.978534 346.906299 
L 514.351545 345.718883 
L 515.47058 342.923914 
L 515.843592 343.344141 
L 516.216604 338.594475 
L 516.589615 341.992288 
L 516.962627 343.179704 
L 518.081662 344.933423 
L 518.454674 340.932767 
L 518.827685 342.083642 
L 519.200697 346.540976 
L 519.573709 347.892737 
L 521.065755 348.623476 
L 521.438767 352.149185 
L 521.811779 348.660018 
L 522.18479 347.929279 
L 523.303825 347.764934 
L 523.676837 348.550393 
L 524.049849 348.367686 
L 524.795872 353.519217 
L 525.914907 353.701925 
L 526.287919 353.263518 
L 526.660931 349.536831 
L 527.033942 350.121404 
L 527.406954 353.117352 
L 528.525989 356.40554 
L 528.899001 355.473914 
L 529.645024 349.208049 
L 530.018036 346.778404 
L 531.137071 349.902247 
L 531.510082 346.997653 
L 531.883094 349.098425 
L 532.256106 347.399518 
L 532.629117 349.628185 
L 533.748152 349.518561 
L 534.121164 345.88332 
L 534.494176 348.806184 
L 534.867187 349.445569 
L 535.240199 346.339997 
L 536.359234 343.58157 
L 536.732246 346.6506 
L 537.105257 346.431351 
L 537.478269 347.527414 
L 537.851281 349.463748 
L 538.970316 352.331801 
L 539.343328 352.532779 
L 539.716339 349.701268 
L 540.089351 352.240539 
L 541.581398 355.802696 
L 541.954409 355.035416 
L 542.327421 354.925883 
L 542.700433 357.848656 
L 543.073444 358.871727 
L 544.192479 357.647769 
L 544.565491 361.319552 
L 544.938503 361.7945 
L 545.311514 361.648425 
L 545.684526 363.201166 
L 546.803561 361.374364 
L 547.176573 361.410905 
L 547.549584 360.278301 
L 547.922596 363.475135 
L 548.295608 365.703802 
L 549.414643 368.736291 
L 549.787654 367.329626 
L 550.160666 369.667926 
L 550.533678 368.754562 
L 550.906689 367.238364 
L 552.025724 367.311355 
L 552.398736 365.88651 
L 552.771748 367.67677 
L 553.517771 366.544166 
L 554.636806 366.69024 
L 555.009818 367.969011 
L 555.38283 367.914199 
L 555.755841 367.530604 
L 556.128853 366.343188 
L 557.6209 367.43925 
L 557.993911 368.042094 
L 558.366923 367.530604 
L 558.739935 366.398 
L 559.85897 367.366167 
L 560.231981 365.813427 
L 560.604993 365.484645 
L 561.351016 368.517042 
L 562.470051 370.106361 
L 562.843063 370.08809 
L 563.216075 369.266043 
L 563.589086 369.923681 
L 563.962098 368.553584 
L 565.454145 367.567146 
L 565.827156 366.781594 
L 566.200168 364.662552 
L 566.57318 364.242416 
L 567.692215 364.352041 
L 568.065227 365.795156 
L 568.438238 365.484645 
L 568.81125 365.758615 
L 569.184262 364.60774 
L 570.676308 362.30599 
L 571.04932 362.287719 
L 571.422332 360.899416 
L 571.795343 360.24176 
L 572.914378 362.56178 
L 573.660402 361.191656 
L 574.033413 362.287719 
L 574.406425 361.739687 
L 575.52546 363.255978 
L 575.898472 361.356093 
L 576.271483 360.607083 
L 576.644495 360.808062 
L 577.017507 362.945375 
L 578.136542 362.83575 
L 578.509553 362.580051 
L 578.882565 361.447447 
L 579.255577 361.995478 
L 579.628588 362.78103 
L 580.747623 363.694385 
L 581.120635 362.908833 
L 581.493647 361.191656 
L 582.23967 356.003675 
L 583.358705 354.834529 
L 583.731717 357.15455 
L 584.104729 355.163311 
L 584.47774 357.264083 
L 584.850752 355.291207 
L 585.969787 354.469205 
L 586.71581 358.250613 
L 587.088822 358.762102 
L 587.461834 359.803353 
L 588.580869 360.625354 
L 589.326892 358.396687 
L 589.699904 358.561124 
L 590.072915 361.392635 
L 591.19195 362.03202 
L 591.564962 362.54351 
L 591.937974 362.214728 
L 592.310985 361.191656 
L 592.683997 362.232998 
L 594.176044 363.603031 
L 594.922067 360.314843 
L 595.295079 359.931248 
L 596.414114 359.511021 
L 596.787126 362.360802 
L 597.533149 361.209927 
L 597.906161 362.908833 
L 599.398207 363.639572 
L 599.771219 365.119229 
L 600.517242 366.343188 
L 601.636277 367.055656 
L 602.009289 366.16048 
L 602.382301 364.33377 
L 602.755312 365.484645 
L 603.128324 365.265396 
L 604.247359 364.973155 
L 604.620371 363.529948 
L 604.993382 363.657843 
L 605.366394 363.657843 
L 605.739406 365.557728 
L 606.858441 366.233563 
L 607.604464 365.740344 
L 607.977476 365.155771 
L 608.350487 366.215292 
L 609.469523 364.936614 
L 609.842534 364.735635 
L 610.215546 366.726782 
L 610.588558 366.872948 
L 610.961569 365.977864 
L 612.080604 366.12403 
L 612.826628 364.552927 
L 613.199639 365.064417 
L 613.572651 363.694385 
L 614.691686 364.479844 
L 615.064698 364.169333 
L 615.437709 364.991426 
L 616.183733 365.575999 
L 617.302768 366.014405 
L 617.675779 365.685532 
L 618.048791 366.891219 
L 618.421803 364.315499 
L 618.794814 363.566489 
L 620.286861 364.023167 
L 620.659873 365.192313 
L 621.032884 365.667261 
L 621.405896 365.466374 
L 622.524931 365.996135 
L 622.897943 365.448103 
L 623.270954 365.521186 
L 624.016978 365.502916 
L 625.136013 366.16048 
L 625.509025 366.014405 
L 625.882036 364.352041 
L 626.255048 364.589469 
L 626.62806 363.402052 
L 627.747095 364.790447 
L 628.120106 365.88651 
L 628.86613 365.502916 
L 629.239141 366.398 
L 630.358176 365.575999 
L 630.731188 364.936614 
L 631.1042 364.826989 
L 631.477211 365.977864 
L 631.850223 365.904781 
L 632.969258 366.617249 
L 633.715281 365.228854 
L 634.088293 365.119229 
L 634.461305 366.032676 
L 635.953351 367.073927 
L 636.326363 366.92776 
L 636.699375 365.502916 
L 637.072386 365.155771 
L 638.564433 365.849969 
L 638.937445 365.119229 
L 639.310457 365.411562 
L 639.683468 365.192313 
L 640.802503 365.941322 
L 641.175515 364.991426 
L 641.548527 364.662552 
L 641.921538 363.000187 
L 642.29455 363.036729 
L 643.786597 363.475135 
L 644.53262 364.461665 
L 644.905632 363.749197 
L 646.024667 363.603031 
L 646.397678 362.707947 
L 647.143702 362.927104 
L 647.516713 362.525239 
L 648.635748 363.694385 
L 649.00876 362.817479 
L 649.381772 362.397343 
L 649.754783 361.264739 
L 650.127795 362.086832 
L 651.24683 362.433885 
L 651.619842 362.214728 
L 651.992854 363.840551 
L 652.365865 364.388582 
L 652.738877 364.662552 
L 654.230924 364.498115 
L 654.603935 364.425124 
L 654.976947 365.009697 
L 655.349959 364.205874 
L 656.842005 365.996135 
L 657.215017 365.667261 
L 657.588029 365.758615 
L 657.96104 366.63552 
L 659.080075 366.379729 
L 659.453087 366.069218 
L 659.826099 365.996135 
L 660.19911 366.270104 
L 660.572122 365.795156 
L 661.691157 366.452812 
L 662.064169 366.452812 
L 662.43718 366.781594 
L 663.183204 369.02856 
L 664.302239 368.297885 
L 664.67525 367.841115 
L 665.048262 368.243072 
L 665.421274 368.169989 
L 665.794286 368.809375 
L 666.913321 368.718021 
L 667.286332 369.02856 
L 667.659344 369.996745 
L 668.405367 369.72273 
L 669.524402 369.466985 
L 669.897414 369.613123 
L 670.270426 369.010289 
L 670.643437 369.576591 
L 671.016449 369.101633 
L 672.135484 368.791104 
L 672.508496 369.320846 
L 672.881507 369.412182 
L 673.254519 368.992018 
L 674.746566 369.284304 
L 675.119577 368.973756 
L 675.492589 369.339108 
L 675.865601 368.133448 
L 676.238612 368.608396 
L 677.357647 367.311355 
L 677.730659 367.494063 
L 678.103671 367.165281 
L 678.476682 367.731583 
L 678.849694 367.110468 
L 679.968729 367.42098 
L 680.341741 367.914199 
L 681.087764 368.425688 
L 681.460776 367.895928 
L 682.579811 367.128739 
L 682.952823 368.078635 
L 683.325834 366.745053 
L 683.698846 366.434541 
L 684.071858 365.904781 
L 685.190893 366.069218 
L 685.936916 365.100959 
L 686.309928 365.630719 
L 686.682939 365.88651 
L 687.801974 365.064417 
L 688.174986 366.16048 
L 688.547998 365.904781 
L 688.921009 366.343188 
L 689.294021 366.014405 
L 690.413056 365.210583 
L 690.786068 365.210583 
L 691.532091 366.872948 
L 691.905103 366.617249 
L 693.397149 367.019114 
L 694.143173 366.343188 
L 694.516185 365.795156 
L 695.63522 365.667261 
L 696.008231 365.1375 
L 696.754255 365.009697 
L 697.127266 365.247125 
L 698.246301 364.881801 
L 698.619313 364.151062 
L 698.992325 364.790447 
L 699.365336 364.680823 
L 699.738348 365.37502 
L 701.230395 365.338479 
L 701.976418 365.742731 
L 702.34943 366.419484 
L 703.468465 367.242587 
L 703.841476 367.334033 
L 704.214488 366.96825 
L 704.5875 367.462112 
L 704.960511 367.242587 
L 706.079546 367.370666 
L 706.82557 367.315762 
L 707.198581 367.827894 
L 707.571593 367.827894 
L 708.690628 366.931617 
L 709.06364 367.077966 
L 709.436652 366.748725 
L 709.809663 366.748725 
L 710.182675 366.876804 
L 711.30171 366.36458 
L 712.047733 366.36458 
L 712.420745 366.931617 
L 712.793757 366.712184 
L 714.285803 367.407208 
L 714.658815 367.462112 
L 715.031827 367.955973 
L 715.404838 367.242587 
L 716.523873 367.023062 
L 717.642908 368.21204 
L 718.01592 368.23031 
L 719.134955 369.126616 
L 719.507967 368.943697 
L 719.880978 368.961995 
L 720.25399 368.705901 
L 720.627002 368.742535 
L 722.119048 368.742535 
L 722.49206 369.364402 
L 722.865072 369.766809 
L 723.238084 369.583899 
L 725.103142 369.126616 
L 725.476154 369.510734 
L 725.849165 369.218071 
L 727.341212 369.016863 
L 727.714224 368.907119 
L 728.087235 369.05345 
L 728.460247 368.449835 
L 729.952294 368.943697 
L 730.325305 368.925408 
L 730.698317 369.254658 
L 731.071329 369.309525 
L 732.563375 369.144905 
L 732.936387 369.437568 
L 733.309399 369.474155 
L 733.68241 369.821686 
L 734.801445 370.187514 
L 735.174457 370.165552 
L 735.547469 370.677951 
L 736.293492 371.117148 
L 737.412527 371.409948 
L 738.158551 370.860953 
L 738.531562 370.897549 
L 740.769632 372.032137 
L 741.142644 371.428246 
L 741.515656 371.409948 
L 742.634691 371.556344 
L 743.007702 371.464843 
L 743.380714 371.666143 
L 743.753726 372.361534 
L 744.126737 372.178542 
L 745.618784 372.013838 
L 746.364807 372.80073 
L 747.856854 373.20333 
L 748.229866 372.855634 
L 748.602877 373.20333 
L 748.975889 373.075233 
L 749.348901 373.532727 
L 750.467936 373.331427 
L 751.586971 372.654335 
L 751.959983 371.885741 
L 753.079018 372.251735 
L 753.452029 371.885741 
L 754.198053 373.093531 
L 755.690099 372.965434 
L 756.063111 372.160243 
L 756.436123 372.087041 
L 756.809134 372.343236 
L 757.182146 371.739345 
L 758.301181 371.501449 
L 758.674193 371.904039 
L 759.793228 371.519747 
L 761.285274 371.666143 
L 761.658286 371.446545 
L 762.031298 371.007348 
L 762.404309 370.385151 
L 763.523344 369.999022 
L 763.896356 370.093268 
L 764.64238 369.580879 
L 765.015391 369.961507 
L 766.134426 370.110658 
L 766.507438 369.743746 
L 766.88045 368.535956 
L 767.253461 368.02263 
L 767.626473 367.939355 
L 768.745508 368.428902 
L 769.11852 367.669425 
L 769.491531 369.072134 
L 769.864543 368.441297 
L 770.237555 367.43264 
L 771.729601 366.760477 
L 772.102613 366.212171 
L 772.475625 366.253395 
L 772.848636 366.887087 
L 772.848636 366.887087 
" clip-path="url(#p92289a7b3f)" style="fill: none; stroke: #1f77b4; stroke-width: 1.5; stroke-linecap: square"/>
   </g>
   <g id="patch_7">
    <path d="M 59.24 390.04 
L 59.24 26.88 
" style="fill: none; stroke: #000000; stroke-width: 0.8; stroke-linejoin: miter; stroke-linecap: square"/>
   </g>
   <g id="patch_8">
    <path d="M 806.83 390.04 
L 806.83 26.88 
" style="fill: none; stroke: #000000; stroke-width: 0.8; stroke-linejoin: miter; stroke-linecap: square"/>
   </g>
   <g id="patch_9">
    <path d="M 59.24 390.04 
L 806.83 390.04 
" style="fill: none; stroke: #000000; stroke-width: 0.8; stroke-linejoin: miter; stroke-linecap: square"/>
   </g>
   <g id="patch_10">
    <path d="M 59.24 26.88 
L 806.83 26.88 
" style="fill: none; stroke: #000000; stroke-width: 0.8; stroke-linejoin: miter; stroke-linecap: square"/>
   </g>
   <g id="text_25">
    <!-- Stock Trading Performance for LABU -->
    <g transform="translate(324.432187 20.88) scale(0.12 -0.12)">
     <defs>
      <path id="DejaVuSans-53" d="M 3425 4513 
L 3425 3897 
Q 3066 4069 2747 4153 
Q 2428 4238 2131 4238 
Q 1616 4238 1336 4038 
Q 1056 3838 1056 3469 
Q 1056 3159 1242 3001 
Q 1428 2844 1947 2747 
L 2328 2669 
Q 3034 2534 3370 2195 
Q 3706 1856 3706 1288 
Q 3706 609 3251 259 
Q 2797 -91 1919 -91 
Q 1588 -91 1214 -16 
Q 841 59 441 206 
L 441 856 
Q 825 641 1194 531 
Q 1563 422 1919 422 
Q 2459 422 2753 634 
Q 3047 847 3047 1241 
Q 3047 1584 2836 1778 
Q 2625 1972 2144 2069 
L 1759 2144 
Q 1053 2284 737 2584 
Q 422 2884 422 3419 
Q 422 4038 858 4394 
Q 1294 4750 2059 4750 
Q 2388 4750 2728 4690 
Q 3069 4631 3425 4513 
z
" transform="scale(0.015625)"/>
      <path id="DejaVuSans-6b" d="M 581 4863 
L 1159 4863 
L 1159 1991 
L 2875 3500 
L 3609 3500 
L 1753 1863 
L 3688 0 
L 2938 0 
L 1159 1709 
L 1159 0 
L 581 0 
L 581 4863 
z
" transform="scale(0.015625)"/>
      <path id="DejaVuSans-54" d="M -19 4666 
L 3928 4666 
L 3928 4134 
L 2272 4134 
L 2272 0 
L 1638 0 
L 1638 4134 
L -19 4134 
L -19 4666 
z
" transform="scale(0.015625)"/>
      <path id="DejaVuSans-64" d="M 2906 2969 
L 2906 4863 
L 3481 4863 
L 3481 0 
L 2906 0 
L 2906 525 
Q 2725 213 2448 61 
Q 2172 -91 1784 -91 
Q 1150 -91 751 415 
Q 353 922 353 1747 
Q 353 2572 751 3078 
Q 1150 3584 1784 3584 
Q 2172 3584 2448 3432 
Q 2725 3281 2906 2969 
z
M 947 1747 
Q 947 1113 1208 752 
Q 1469 391 1925 391 
Q 2381 391 2643 752 
Q 2906 1113 2906 1747 
Q 2906 2381 2643 2742 
Q 2381 3103 1925 3103 
Q 1469 3103 1208 2742 
Q 947 2381 947 1747 
z
" transform="scale(0.015625)"/>
      <path id="DejaVuSans-67" d="M 2906 1791 
Q 2906 2416 2648 2759 
Q 2391 3103 1925 3103 
Q 1463 3103 1205 2759 
Q 947 2416 947 1791 
Q 947 1169 1205 825 
Q 1463 481 1925 481 
Q 2391 481 2648 825 
Q 2906 1169 2906 1791 
z
M 3481 434 
Q 3481 -459 3084 -895 
Q 2688 -1331 1869 -1331 
Q 1566 -1331 1297 -1286 
Q 1028 -1241 775 -1147 
L 775 -588 
Q 1028 -725 1275 -790 
Q 1522 -856 1778 -856 
Q 2344 -856 2625 -561 
Q 2906 -266 2906 331 
L 2906 616 
Q 2728 306 2450 153 
Q 2172 0 1784 0 
Q 1141 0 747 490 
Q 353 981 353 1791 
Q 353 2603 747 3093 
Q 1141 3584 1784 3584 
Q 2172 3584 2450 3431 
Q 2728 3278 2906 2969 
L 2906 3500 
L 3481 3500 
L 3481 434 
z
" transform="scale(0.015625)"/>
      <path id="DejaVuSans-66" d="M 2375 4863 
L 2375 4384 
L 1825 4384 
Q 1516 4384 1395 4259 
Q 1275 4134 1275 3809 
L 1275 3500 
L 2222 3500 
L 2222 3053 
L 1275 3053 
L 1275 0 
L 697 0 
L 697 3053 
L 147 3053 
L 147 3500 
L 697 3500 
L 697 3744 
Q 697 4328 969 4595 
Q 1241 4863 1831 4863 
L 2375 4863 
z
" transform="scale(0.015625)"/>
      <path id="DejaVuSans-6d" d="M 3328 2828 
Q 3544 3216 3844 3400 
Q 4144 3584 4550 3584 
Q 5097 3584 5394 3201 
Q 5691 2819 5691 2113 
L 5691 0 
L 5113 0 
L 5113 2094 
Q 5113 2597 4934 2840 
Q 4756 3084 4391 3084 
Q 3944 3084 3684 2787 
Q 3425 2491 3425 1978 
L 3425 0 
L 2847 0 
L 2847 2094 
Q 2847 2600 2669 2842 
Q 2491 3084 2119 3084 
Q 1678 3084 1418 2786 
Q 1159 2488 1159 1978 
L 1159 0 
L 581 0 
L 581 3500 
L 1159 3500 
L 1159 2956 
Q 1356 3278 1631 3431 
Q 1906 3584 2284 3584 
Q 2666 3584 2933 3390 
Q 3200 3197 3328 2828 
z
" transform="scale(0.015625)"/>
      <path id="DejaVuSans-4c" d="M 628 4666 
L 1259 4666 
L 1259 531 
L 3531 531 
L 3531 0 
L 628 0 
L 628 4666 
z
" transform="scale(0.015625)"/>
      <path id="DejaVuSans-41" d="M 2188 4044 
L 1331 1722 
L 3047 1722 
L 2188 4044 
z
M 1831 4666 
L 2547 4666 
L 4325 0 
L 3669 0 
L 3244 1197 
L 1141 1197 
L 716 0 
L 50 0 
L 1831 4666 
z
" transform="scale(0.015625)"/>
      <path id="DejaVuSans-42" d="M 1259 2228 
L 1259 519 
L 2272 519 
Q 2781 519 3026 730 
Q 3272 941 3272 1375 
Q 3272 1813 3026 2020 
Q 2781 2228 2272 2228 
L 1259 2228 
z
M 1259 4147 
L 1259 2741 
L 2194 2741 
Q 2656 2741 2882 2914 
Q 3109 3088 3109 3444 
Q 3109 3797 2882 3972 
Q 2656 4147 2194 4147 
L 1259 4147 
z
M 628 4666 
L 2241 4666 
Q 2963 4666 3353 4366 
Q 3744 4066 3744 3513 
Q 3744 3084 3544 2831 
Q 3344 2578 2956 2516 
Q 3422 2416 3680 2098 
Q 3938 1781 3938 1306 
Q 3938 681 3513 340 
Q 3088 0 2303 0 
L 628 0 
L 628 4666 
z
" transform="scale(0.015625)"/>
      <path id="DejaVuSans-55" d="M 556 4666 
L 1191 4666 
L 1191 1831 
Q 1191 1081 1462 751 
Q 1734 422 2344 422 
Q 2950 422 3222 751 
Q 3494 1081 3494 1831 
L 3494 4666 
L 4128 4666 
L 4128 1753 
Q 4128 841 3676 375 
Q 3225 -91 2344 -91 
Q 1459 -91 1007 375 
Q 556 841 556 1753 
L 556 4666 
z
" transform="scale(0.015625)"/>
     </defs>
     <use xlink:href="#DejaVuSans-53"/>
     <use xlink:href="#DejaVuSans-74" x="63.476562"/>
     <use xlink:href="#DejaVuSans-6f" x="102.685547"/>
     <use xlink:href="#DejaVuSans-63" x="163.867188"/>
     <use xlink:href="#DejaVuSans-6b" x="218.847656"/>
     <use xlink:href="#DejaVuSans-20" x="276.757812"/>
     <use xlink:href="#DejaVuSans-54" x="308.544922"/>
     <use xlink:href="#DejaVuSans-72" x="354.878906"/>
     <use xlink:href="#DejaVuSans-61" x="395.992188"/>
     <use xlink:href="#DejaVuSans-64" x="457.271484"/>
     <use xlink:href="#DejaVuSans-69" x="520.748047"/>
     <use xlink:href="#DejaVuSans-6e" x="548.53125"/>
     <use xlink:href="#DejaVuSans-67" x="611.910156"/>
     <use xlink:href="#DejaVuSans-20" x="675.386719"/>
     <use xlink:href="#DejaVuSans-50" x="707.173828"/>
     <use xlink:href="#DejaVuSans-65" x="763.851562"/>
     <use xlink:href="#DejaVuSans-72" x="825.375"/>
     <use xlink:href="#DejaVuSans-66" x="866.488281"/>
     <use xlink:href="#DejaVuSans-6f" x="901.693359"/>
     <use xlink:href="#DejaVuSans-72" x="962.875"/>
     <use xlink:href="#DejaVuSans-6d" x="1002.238281"/>
     <use xlink:href="#DejaVuSans-61" x="1099.650391"/>
     <use xlink:href="#DejaVuSans-6e" x="1160.929688"/>
     <use xlink:href="#DejaVuSans-63" x="1224.308594"/>
     <use xlink:href="#DejaVuSans-65" x="1279.289062"/>
     <use xlink:href="#DejaVuSans-20" x="1340.8125"/>
     <use xlink:href="#DejaVuSans-66" x="1372.599609"/>
     <use xlink:href="#DejaVuSans-6f" x="1407.804688"/>
     <use xlink:href="#DejaVuSans-72" x="1468.986328"/>
     <use xlink:href="#DejaVuSans-20" x="1510.099609"/>
     <use xlink:href="#DejaVuSans-4c" x="1541.886719"/>
     <use xlink:href="#DejaVuSans-41" x="1599.849609"/>
     <use xlink:href="#DejaVuSans-42" x="1668.257812"/>
     <use xlink:href="#DejaVuSans-55" x="1736.861328"/>
    </g>
   </g>
  </g>
 </g>
 <defs>
  <clipPath id="p92289a7b3f">
   <rect x="59.24" y="26.88" width="747.59" height="363.16"/>
  </clipPath>
 </defs>
</svg>
