<?xml version="1.0" encoding="utf-8" standalone="no"?>
<!DOCTYPE svg PUBLIC "-//W3C//DTD SVG 1.1//EN"
  "http://www.w3.org/Graphics/SVG/1.1/DTD/svg11.dtd">
<svg xmlns:xlink="http://www.w3.org/1999/xlink" width="864pt" height="432pt" viewBox="0 0 864 432" xmlns="http://www.w3.org/2000/svg" version="1.1">
 <metadata>
  <rdf:RDF xmlns:dc="http://purl.org/dc/elements/1.1/" xmlns:cc="http://creativecommons.org/ns#" xmlns:rdf="http://www.w3.org/1999/02/22-rdf-syntax-ns#">
   <cc:Work>
    <dc:type rdf:resource="http://purl.org/dc/dcmitype/StillImage"/>
    <dc:date>2024-04-18T22:06:57.061518</dc:date>
    <dc:format>image/svg+xml</dc:format>
    <dc:creator>
     <cc:Agent>
      <dc:title>Matplotlib v3.8.2, https://matplotlib.org/</dc:title>
     </cc:Agent>
    </dc:creator>
   </cc:Work>
  </rdf:RDF>
 </metadata>
 <defs>
  <style type="text/css">*{stroke-linejoin: round; stroke-linecap: butt}</style>
 </defs>
 <g id="figure_1">
  <g id="patch_1">
   <path d="M 0 432 
L 864 432 
L 864 0 
L 0 0 
z
" style="fill: #ffffff"/>
  </g>
  <g id="axes_1">
   <g id="patch_2">
    <path d="M 52.94 390.04 
L 806.83 390.04 
L 806.83 26.88 
L 52.94 26.88 
z
" style="fill: #ffffff"/>
   </g>
   <g id="matplotlib.axis_1">
    <g id="xtick_1">
     <g id="line2d_1">
      <path d="M 86.831572 390.04 
L 86.831572 26.88 
" clip-path="url(#p07445fdb8d)" style="fill: none; stroke-dasharray: 1.85,0.8; stroke-dashoffset: 0; stroke: #b0b0b0; stroke-opacity: 0.5; stroke-width: 0.5"/>
     </g>
     <g id="line2d_2">
      <defs>
       <path id="m46ce7a779b" d="M 0 0 
L 0 3.5 
" style="stroke: #000000; stroke-width: 0.8"/>
      </defs>
      <g>
       <use xlink:href="#m46ce7a779b" x="86.831572" y="390.04" style="stroke: #000000; stroke-width: 0.8"/>
      </g>
     </g>
     <g id="text_1">
      <!-- 2019 -->
      <g transform="translate(74.106572 404.638438) scale(0.1 -0.1)">
       <defs>
        <path id="DejaVuSans-32" d="M 1228 531 
L 3431 531 
L 3431 0 
L 469 0 
L 469 531 
Q 828 903 1448 1529 
Q 2069 2156 2228 2338 
Q 2531 2678 2651 2914 
Q 2772 3150 2772 3378 
Q 2772 3750 2511 3984 
Q 2250 4219 1831 4219 
Q 1534 4219 1204 4116 
Q 875 4013 500 3803 
L 500 4441 
Q 881 4594 1212 4672 
Q 1544 4750 1819 4750 
Q 2544 4750 2975 4387 
Q 3406 4025 3406 3419 
Q 3406 3131 3298 2873 
Q 3191 2616 2906 2266 
Q 2828 2175 2409 1742 
Q 1991 1309 1228 531 
z
" transform="scale(0.015625)"/>
        <path id="DejaVuSans-30" d="M 2034 4250 
Q 1547 4250 1301 3770 
Q 1056 3291 1056 2328 
Q 1056 1369 1301 889 
Q 1547 409 2034 409 
Q 2525 409 2770 889 
Q 3016 1369 3016 2328 
Q 3016 3291 2770 3770 
Q 2525 4250 2034 4250 
z
M 2034 4750 
Q 2819 4750 3233 4129 
Q 3647 3509 3647 2328 
Q 3647 1150 3233 529 
Q 2819 -91 2034 -91 
Q 1250 -91 836 529 
Q 422 1150 422 2328 
Q 422 3509 836 4129 
Q 1250 4750 2034 4750 
z
" transform="scale(0.015625)"/>
        <path id="DejaVuSans-31" d="M 794 531 
L 1825 531 
L 1825 4091 
L 703 3866 
L 703 4441 
L 1819 4666 
L 2450 4666 
L 2450 531 
L 3481 531 
L 3481 0 
L 794 0 
L 794 531 
z
" transform="scale(0.015625)"/>
        <path id="DejaVuSans-39" d="M 703 97 
L 703 672 
Q 941 559 1184 500 
Q 1428 441 1663 441 
Q 2288 441 2617 861 
Q 2947 1281 2994 2138 
Q 2813 1869 2534 1725 
Q 2256 1581 1919 1581 
Q 1219 1581 811 2004 
Q 403 2428 403 3163 
Q 403 3881 828 4315 
Q 1253 4750 1959 4750 
Q 2769 4750 3195 4129 
Q 3622 3509 3622 2328 
Q 3622 1225 3098 567 
Q 2575 -91 1691 -91 
Q 1453 -91 1209 -44 
Q 966 3 703 97 
z
M 1959 2075 
Q 2384 2075 2632 2365 
Q 2881 2656 2881 3163 
Q 2881 3666 2632 3958 
Q 2384 4250 1959 4250 
Q 1534 4250 1286 3958 
Q 1038 3666 1038 3163 
Q 1038 2656 1286 2365 
Q 1534 2075 1959 2075 
z
" transform="scale(0.015625)"/>
       </defs>
       <use xlink:href="#DejaVuSans-32"/>
       <use xlink:href="#DejaVuSans-30" x="63.623047"/>
       <use xlink:href="#DejaVuSans-31" x="127.246094"/>
       <use xlink:href="#DejaVuSans-39" x="190.869141"/>
      </g>
     </g>
    </g>
    <g id="xtick_2">
     <g id="line2d_3">
      <path d="M 224.128174 390.04 
L 224.128174 26.88 
" clip-path="url(#p07445fdb8d)" style="fill: none; stroke-dasharray: 1.85,0.8; stroke-dashoffset: 0; stroke: #b0b0b0; stroke-opacity: 0.5; stroke-width: 0.5"/>
     </g>
     <g id="line2d_4">
      <g>
       <use xlink:href="#m46ce7a779b" x="224.128174" y="390.04" style="stroke: #000000; stroke-width: 0.8"/>
      </g>
     </g>
     <g id="text_2">
      <!-- 2020 -->
      <g transform="translate(211.403174 404.638438) scale(0.1 -0.1)">
       <use xlink:href="#DejaVuSans-32"/>
       <use xlink:href="#DejaVuSans-30" x="63.623047"/>
       <use xlink:href="#DejaVuSans-32" x="127.246094"/>
       <use xlink:href="#DejaVuSans-30" x="190.869141"/>
      </g>
     </g>
    </g>
    <g id="xtick_3">
     <g id="line2d_5">
      <path d="M 361.800932 390.04 
L 361.800932 26.88 
" clip-path="url(#p07445fdb8d)" style="fill: none; stroke-dasharray: 1.85,0.8; stroke-dashoffset: 0; stroke: #b0b0b0; stroke-opacity: 0.5; stroke-width: 0.5"/>
     </g>
     <g id="line2d_6">
      <g>
       <use xlink:href="#m46ce7a779b" x="361.800932" y="390.04" style="stroke: #000000; stroke-width: 0.8"/>
      </g>
     </g>
     <g id="text_3">
      <!-- 2021 -->
      <g transform="translate(349.075932 404.638438) scale(0.1 -0.1)">
       <use xlink:href="#DejaVuSans-32"/>
       <use xlink:href="#DejaVuSans-30" x="63.623047"/>
       <use xlink:href="#DejaVuSans-32" x="127.246094"/>
       <use xlink:href="#DejaVuSans-31" x="190.869141"/>
      </g>
     </g>
    </g>
    <g id="xtick_4">
     <g id="line2d_7">
      <path d="M 499.097534 390.04 
L 499.097534 26.88 
" clip-path="url(#p07445fdb8d)" style="fill: none; stroke-dasharray: 1.85,0.8; stroke-dashoffset: 0; stroke: #b0b0b0; stroke-opacity: 0.5; stroke-width: 0.5"/>
     </g>
     <g id="line2d_8">
      <g>
       <use xlink:href="#m46ce7a779b" x="499.097534" y="390.04" style="stroke: #000000; stroke-width: 0.8"/>
      </g>
     </g>
     <g id="text_4">
      <!-- 2022 -->
      <g transform="translate(486.372534 404.638438) scale(0.1 -0.1)">
       <use xlink:href="#DejaVuSans-32"/>
       <use xlink:href="#DejaVuSans-30" x="63.623047"/>
       <use xlink:href="#DejaVuSans-32" x="127.246094"/>
       <use xlink:href="#DejaVuSans-32" x="190.869141"/>
      </g>
     </g>
    </g>
    <g id="xtick_5">
     <g id="line2d_9">
      <path d="M 636.394136 390.04 
L 636.394136 26.88 
" clip-path="url(#p07445fdb8d)" style="fill: none; stroke-dasharray: 1.85,0.8; stroke-dashoffset: 0; stroke: #b0b0b0; stroke-opacity: 0.5; stroke-width: 0.5"/>
     </g>
     <g id="line2d_10">
      <g>
       <use xlink:href="#m46ce7a779b" x="636.394136" y="390.04" style="stroke: #000000; stroke-width: 0.8"/>
      </g>
     </g>
     <g id="text_5">
      <!-- 2023 -->
      <g transform="translate(623.669136 404.638438) scale(0.1 -0.1)">
       <defs>
        <path id="DejaVuSans-33" d="M 2597 2516 
Q 3050 2419 3304 2112 
Q 3559 1806 3559 1356 
Q 3559 666 3084 287 
Q 2609 -91 1734 -91 
Q 1441 -91 1130 -33 
Q 819 25 488 141 
L 488 750 
Q 750 597 1062 519 
Q 1375 441 1716 441 
Q 2309 441 2620 675 
Q 2931 909 2931 1356 
Q 2931 1769 2642 2001 
Q 2353 2234 1838 2234 
L 1294 2234 
L 1294 2753 
L 1863 2753 
Q 2328 2753 2575 2939 
Q 2822 3125 2822 3475 
Q 2822 3834 2567 4026 
Q 2313 4219 1838 4219 
Q 1578 4219 1281 4162 
Q 984 4106 628 3988 
L 628 4550 
Q 988 4650 1302 4700 
Q 1616 4750 1894 4750 
Q 2613 4750 3031 4423 
Q 3450 4097 3450 3541 
Q 3450 3153 3228 2886 
Q 3006 2619 2597 2516 
z
" transform="scale(0.015625)"/>
       </defs>
       <use xlink:href="#DejaVuSans-32"/>
       <use xlink:href="#DejaVuSans-30" x="63.623047"/>
       <use xlink:href="#DejaVuSans-32" x="127.246094"/>
       <use xlink:href="#DejaVuSans-33" x="190.869141"/>
      </g>
     </g>
    </g>
    <g id="xtick_6">
     <g id="line2d_11">
      <path d="M 773.690738 390.04 
L 773.690738 26.88 
" clip-path="url(#p07445fdb8d)" style="fill: none; stroke-dasharray: 1.85,0.8; stroke-dashoffset: 0; stroke: #b0b0b0; stroke-opacity: 0.5; stroke-width: 0.5"/>
     </g>
     <g id="line2d_12">
      <g>
       <use xlink:href="#m46ce7a779b" x="773.690738" y="390.04" style="stroke: #000000; stroke-width: 0.8"/>
      </g>
     </g>
     <g id="text_6">
      <!-- 2024 -->
      <g transform="translate(760.965738 404.638438) scale(0.1 -0.1)">
       <defs>
        <path id="DejaVuSans-34" d="M 2419 4116 
L 825 1625 
L 2419 1625 
L 2419 4116 
z
M 2253 4666 
L 3047 4666 
L 3047 1625 
L 3713 1625 
L 3713 1100 
L 3047 1100 
L 3047 0 
L 2419 0 
L 2419 1100 
L 313 1100 
L 313 1709 
L 2253 4666 
z
" transform="scale(0.015625)"/>
       </defs>
       <use xlink:href="#DejaVuSans-32"/>
       <use xlink:href="#DejaVuSans-30" x="63.623047"/>
       <use xlink:href="#DejaVuSans-32" x="127.246094"/>
       <use xlink:href="#DejaVuSans-34" x="190.869141"/>
      </g>
     </g>
    </g>
    <g id="text_7">
     <!-- Date -->
     <g transform="translate(417.934219 418.316562) scale(0.1 -0.1)">
      <defs>
       <path id="DejaVuSans-44" d="M 1259 4147 
L 1259 519 
L 2022 519 
Q 2988 519 3436 956 
Q 3884 1394 3884 2338 
Q 3884 3275 3436 3711 
Q 2988 4147 2022 4147 
L 1259 4147 
z
M 628 4666 
L 1925 4666 
Q 3281 4666 3915 4102 
Q 4550 3538 4550 2338 
Q 4550 1131 3912 565 
Q 3275 0 1925 0 
L 628 0 
L 628 4666 
z
" transform="scale(0.015625)"/>
       <path id="DejaVuSans-61" d="M 2194 1759 
Q 1497 1759 1228 1600 
Q 959 1441 959 1056 
Q 959 750 1161 570 
Q 1363 391 1709 391 
Q 2188 391 2477 730 
Q 2766 1069 2766 1631 
L 2766 1759 
L 2194 1759 
z
M 3341 1997 
L 3341 0 
L 2766 0 
L 2766 531 
Q 2569 213 2275 61 
Q 1981 -91 1556 -91 
Q 1019 -91 701 211 
Q 384 513 384 1019 
Q 384 1609 779 1909 
Q 1175 2209 1959 2209 
L 2766 2209 
L 2766 2266 
Q 2766 2663 2505 2880 
Q 2244 3097 1772 3097 
Q 1472 3097 1187 3025 
Q 903 2953 641 2809 
L 641 3341 
Q 956 3463 1253 3523 
Q 1550 3584 1831 3584 
Q 2591 3584 2966 3190 
Q 3341 2797 3341 1997 
z
" transform="scale(0.015625)"/>
       <path id="DejaVuSans-74" d="M 1172 4494 
L 1172 3500 
L 2356 3500 
L 2356 3053 
L 1172 3053 
L 1172 1153 
Q 1172 725 1289 603 
Q 1406 481 1766 481 
L 2356 481 
L 2356 0 
L 1766 0 
Q 1100 0 847 248 
Q 594 497 594 1153 
L 594 3053 
L 172 3053 
L 172 3500 
L 594 3500 
L 594 4494 
L 1172 4494 
z
" transform="scale(0.015625)"/>
       <path id="DejaVuSans-65" d="M 3597 1894 
L 3597 1613 
L 953 1613 
Q 991 1019 1311 708 
Q 1631 397 2203 397 
Q 2534 397 2845 478 
Q 3156 559 3463 722 
L 3463 178 
Q 3153 47 2828 -22 
Q 2503 -91 2169 -91 
Q 1331 -91 842 396 
Q 353 884 353 1716 
Q 353 2575 817 3079 
Q 1281 3584 2069 3584 
Q 2775 3584 3186 3129 
Q 3597 2675 3597 1894 
z
M 3022 2063 
Q 3016 2534 2758 2815 
Q 2500 3097 2075 3097 
Q 1594 3097 1305 2825 
Q 1016 2553 972 2059 
L 3022 2063 
z
" transform="scale(0.015625)"/>
      </defs>
      <use xlink:href="#DejaVuSans-44"/>
      <use xlink:href="#DejaVuSans-61" x="77.001953"/>
      <use xlink:href="#DejaVuSans-74" x="138.28125"/>
      <use xlink:href="#DejaVuSans-65" x="177.490234"/>
     </g>
    </g>
   </g>
   <g id="matplotlib.axis_2">
    <g id="ytick_1">
     <g id="line2d_13">
      <path d="M 52.94 355.443431 
L 806.83 355.443431 
" clip-path="url(#p07445fdb8d)" style="fill: none; stroke-dasharray: 1.85,0.8; stroke-dashoffset: 0; stroke: #b0b0b0; stroke-opacity: 0.5; stroke-width: 0.5"/>
     </g>
     <g id="line2d_14">
      <defs>
       <path id="ma9393b7478" d="M 0 0 
L -3.5 0 
" style="stroke: #000000; stroke-width: 0.8"/>
      </defs>
      <g>
       <use xlink:href="#ma9393b7478" x="52.94" y="355.443431" style="stroke: #000000; stroke-width: 0.8"/>
      </g>
     </g>
     <g id="text_8">
      <!-- −80 -->
      <g style="fill: #d62728" transform="translate(24.835313 359.24265) scale(0.1 -0.1)">
       <defs>
        <path id="DejaVuSans-2212" d="M 678 2272 
L 4684 2272 
L 4684 1741 
L 678 1741 
L 678 2272 
z
" transform="scale(0.015625)"/>
        <path id="DejaVuSans-38" d="M 2034 2216 
Q 1584 2216 1326 1975 
Q 1069 1734 1069 1313 
Q 1069 891 1326 650 
Q 1584 409 2034 409 
Q 2484 409 2743 651 
Q 3003 894 3003 1313 
Q 3003 1734 2745 1975 
Q 2488 2216 2034 2216 
z
M 1403 2484 
Q 997 2584 770 2862 
Q 544 3141 544 3541 
Q 544 4100 942 4425 
Q 1341 4750 2034 4750 
Q 2731 4750 3128 4425 
Q 3525 4100 3525 3541 
Q 3525 3141 3298 2862 
Q 3072 2584 2669 2484 
Q 3125 2378 3379 2068 
Q 3634 1759 3634 1313 
Q 3634 634 3220 271 
Q 2806 -91 2034 -91 
Q 1263 -91 848 271 
Q 434 634 434 1313 
Q 434 1759 690 2068 
Q 947 2378 1403 2484 
z
M 1172 3481 
Q 1172 3119 1398 2916 
Q 1625 2713 2034 2713 
Q 2441 2713 2670 2916 
Q 2900 3119 2900 3481 
Q 2900 3844 2670 4047 
Q 2441 4250 2034 4250 
Q 1625 4250 1398 4047 
Q 1172 3844 1172 3481 
z
" transform="scale(0.015625)"/>
       </defs>
       <use xlink:href="#DejaVuSans-2212"/>
       <use xlink:href="#DejaVuSans-38" x="83.789062"/>
       <use xlink:href="#DejaVuSans-30" x="147.412109"/>
      </g>
     </g>
    </g>
    <g id="ytick_2">
     <g id="line2d_15">
      <path d="M 52.94 294.300346 
L 806.83 294.300346 
" clip-path="url(#p07445fdb8d)" style="fill: none; stroke-dasharray: 1.85,0.8; stroke-dashoffset: 0; stroke: #b0b0b0; stroke-opacity: 0.5; stroke-width: 0.5"/>
     </g>
     <g id="line2d_16">
      <g>
       <use xlink:href="#ma9393b7478" x="52.94" y="294.300346" style="stroke: #000000; stroke-width: 0.8"/>
      </g>
     </g>
     <g id="text_9">
      <!-- −60 -->
      <g style="fill: #d62728" transform="translate(24.835313 298.099565) scale(0.1 -0.1)">
       <defs>
        <path id="DejaVuSans-36" d="M 2113 2584 
Q 1688 2584 1439 2293 
Q 1191 2003 1191 1497 
Q 1191 994 1439 701 
Q 1688 409 2113 409 
Q 2538 409 2786 701 
Q 3034 994 3034 1497 
Q 3034 2003 2786 2293 
Q 2538 2584 2113 2584 
z
M 3366 4563 
L 3366 3988 
Q 3128 4100 2886 4159 
Q 2644 4219 2406 4219 
Q 1781 4219 1451 3797 
Q 1122 3375 1075 2522 
Q 1259 2794 1537 2939 
Q 1816 3084 2150 3084 
Q 2853 3084 3261 2657 
Q 3669 2231 3669 1497 
Q 3669 778 3244 343 
Q 2819 -91 2113 -91 
Q 1303 -91 875 529 
Q 447 1150 447 2328 
Q 447 3434 972 4092 
Q 1497 4750 2381 4750 
Q 2619 4750 2861 4703 
Q 3103 4656 3366 4563 
z
" transform="scale(0.015625)"/>
       </defs>
       <use xlink:href="#DejaVuSans-2212"/>
       <use xlink:href="#DejaVuSans-36" x="83.789062"/>
       <use xlink:href="#DejaVuSans-30" x="147.412109"/>
      </g>
     </g>
    </g>
    <g id="ytick_3">
     <g id="line2d_17">
      <path d="M 52.94 233.157262 
L 806.83 233.157262 
" clip-path="url(#p07445fdb8d)" style="fill: none; stroke-dasharray: 1.85,0.8; stroke-dashoffset: 0; stroke: #b0b0b0; stroke-opacity: 0.5; stroke-width: 0.5"/>
     </g>
     <g id="line2d_18">
      <g>
       <use xlink:href="#ma9393b7478" x="52.94" y="233.157262" style="stroke: #000000; stroke-width: 0.8"/>
      </g>
     </g>
     <g id="text_10">
      <!-- −40 -->
      <g style="fill: #d62728" transform="translate(24.835313 236.956481) scale(0.1 -0.1)">
       <use xlink:href="#DejaVuSans-2212"/>
       <use xlink:href="#DejaVuSans-34" x="83.789062"/>
       <use xlink:href="#DejaVuSans-30" x="147.412109"/>
      </g>
     </g>
    </g>
    <g id="ytick_4">
     <g id="line2d_19">
      <path d="M 52.94 172.014178 
L 806.83 172.014178 
" clip-path="url(#p07445fdb8d)" style="fill: none; stroke-dasharray: 1.85,0.8; stroke-dashoffset: 0; stroke: #b0b0b0; stroke-opacity: 0.5; stroke-width: 0.5"/>
     </g>
     <g id="line2d_20">
      <g>
       <use xlink:href="#ma9393b7478" x="52.94" y="172.014178" style="stroke: #000000; stroke-width: 0.8"/>
      </g>
     </g>
     <g id="text_11">
      <!-- −20 -->
      <g style="fill: #d62728" transform="translate(24.835313 175.813396) scale(0.1 -0.1)">
       <use xlink:href="#DejaVuSans-2212"/>
       <use xlink:href="#DejaVuSans-32" x="83.789062"/>
       <use xlink:href="#DejaVuSans-30" x="147.412109"/>
      </g>
     </g>
    </g>
    <g id="ytick_5">
     <g id="line2d_21">
      <path d="M 52.94 110.871093 
L 806.83 110.871093 
" clip-path="url(#p07445fdb8d)" style="fill: none; stroke-dasharray: 1.85,0.8; stroke-dashoffset: 0; stroke: #b0b0b0; stroke-opacity: 0.5; stroke-width: 0.5"/>
     </g>
     <g id="line2d_22">
      <g>
       <use xlink:href="#ma9393b7478" x="52.94" y="110.871093" style="stroke: #000000; stroke-width: 0.8"/>
      </g>
     </g>
     <g id="text_12">
      <!-- 0 -->
      <g style="fill: #d62728" transform="translate(39.5775 114.670312) scale(0.1 -0.1)">
       <use xlink:href="#DejaVuSans-30"/>
      </g>
     </g>
    </g>
    <g id="ytick_6">
     <g id="line2d_23">
      <path d="M 52.94 49.728009 
L 806.83 49.728009 
" clip-path="url(#p07445fdb8d)" style="fill: none; stroke-dasharray: 1.85,0.8; stroke-dashoffset: 0; stroke: #b0b0b0; stroke-opacity: 0.5; stroke-width: 0.5"/>
     </g>
     <g id="line2d_24">
      <g>
       <use xlink:href="#ma9393b7478" x="52.94" y="49.728009" style="stroke: #000000; stroke-width: 0.8"/>
      </g>
     </g>
     <g id="text_13">
      <!-- 20 -->
      <g style="fill: #d62728" transform="translate(33.215 53.527227) scale(0.1 -0.1)">
       <use xlink:href="#DejaVuSans-32"/>
       <use xlink:href="#DejaVuSans-30" x="63.623047"/>
      </g>
     </g>
    </g>
    <g id="text_14">
     <!-- Returns (%) -->
     <g style="fill: #d62728" transform="translate(18.755625 237.8975) rotate(-90) scale(0.1 -0.1)">
      <defs>
       <path id="DejaVuSans-52" d="M 2841 2188 
Q 3044 2119 3236 1894 
Q 3428 1669 3622 1275 
L 4263 0 
L 3584 0 
L 2988 1197 
Q 2756 1666 2539 1819 
Q 2322 1972 1947 1972 
L 1259 1972 
L 1259 0 
L 628 0 
L 628 4666 
L 2053 4666 
Q 2853 4666 3247 4331 
Q 3641 3997 3641 3322 
Q 3641 2881 3436 2590 
Q 3231 2300 2841 2188 
z
M 1259 4147 
L 1259 2491 
L 2053 2491 
Q 2509 2491 2742 2702 
Q 2975 2913 2975 3322 
Q 2975 3731 2742 3939 
Q 2509 4147 2053 4147 
L 1259 4147 
z
" transform="scale(0.015625)"/>
       <path id="DejaVuSans-75" d="M 544 1381 
L 544 3500 
L 1119 3500 
L 1119 1403 
Q 1119 906 1312 657 
Q 1506 409 1894 409 
Q 2359 409 2629 706 
Q 2900 1003 2900 1516 
L 2900 3500 
L 3475 3500 
L 3475 0 
L 2900 0 
L 2900 538 
Q 2691 219 2414 64 
Q 2138 -91 1772 -91 
Q 1169 -91 856 284 
Q 544 659 544 1381 
z
M 1991 3584 
L 1991 3584 
z
" transform="scale(0.015625)"/>
       <path id="DejaVuSans-72" d="M 2631 2963 
Q 2534 3019 2420 3045 
Q 2306 3072 2169 3072 
Q 1681 3072 1420 2755 
Q 1159 2438 1159 1844 
L 1159 0 
L 581 0 
L 581 3500 
L 1159 3500 
L 1159 2956 
Q 1341 3275 1631 3429 
Q 1922 3584 2338 3584 
Q 2397 3584 2469 3576 
Q 2541 3569 2628 3553 
L 2631 2963 
z
" transform="scale(0.015625)"/>
       <path id="DejaVuSans-6e" d="M 3513 2113 
L 3513 0 
L 2938 0 
L 2938 2094 
Q 2938 2591 2744 2837 
Q 2550 3084 2163 3084 
Q 1697 3084 1428 2787 
Q 1159 2491 1159 1978 
L 1159 0 
L 581 0 
L 581 3500 
L 1159 3500 
L 1159 2956 
Q 1366 3272 1645 3428 
Q 1925 3584 2291 3584 
Q 2894 3584 3203 3211 
Q 3513 2838 3513 2113 
z
" transform="scale(0.015625)"/>
       <path id="DejaVuSans-73" d="M 2834 3397 
L 2834 2853 
Q 2591 2978 2328 3040 
Q 2066 3103 1784 3103 
Q 1356 3103 1142 2972 
Q 928 2841 928 2578 
Q 928 2378 1081 2264 
Q 1234 2150 1697 2047 
L 1894 2003 
Q 2506 1872 2764 1633 
Q 3022 1394 3022 966 
Q 3022 478 2636 193 
Q 2250 -91 1575 -91 
Q 1294 -91 989 -36 
Q 684 19 347 128 
L 347 722 
Q 666 556 975 473 
Q 1284 391 1588 391 
Q 1994 391 2212 530 
Q 2431 669 2431 922 
Q 2431 1156 2273 1281 
Q 2116 1406 1581 1522 
L 1381 1569 
Q 847 1681 609 1914 
Q 372 2147 372 2553 
Q 372 3047 722 3315 
Q 1072 3584 1716 3584 
Q 2034 3584 2315 3537 
Q 2597 3491 2834 3397 
z
" transform="scale(0.015625)"/>
       <path id="DejaVuSans-20" transform="scale(0.015625)"/>
       <path id="DejaVuSans-28" d="M 1984 4856 
Q 1566 4138 1362 3434 
Q 1159 2731 1159 2009 
Q 1159 1288 1364 580 
Q 1569 -128 1984 -844 
L 1484 -844 
Q 1016 -109 783 600 
Q 550 1309 550 2009 
Q 550 2706 781 3412 
Q 1013 4119 1484 4856 
L 1984 4856 
z
" transform="scale(0.015625)"/>
       <path id="DejaVuSans-25" d="M 4653 2053 
Q 4381 2053 4226 1822 
Q 4072 1591 4072 1178 
Q 4072 772 4226 539 
Q 4381 306 4653 306 
Q 4919 306 5073 539 
Q 5228 772 5228 1178 
Q 5228 1588 5073 1820 
Q 4919 2053 4653 2053 
z
M 4653 2450 
Q 5147 2450 5437 2106 
Q 5728 1763 5728 1178 
Q 5728 594 5436 251 
Q 5144 -91 4653 -91 
Q 4153 -91 3862 251 
Q 3572 594 3572 1178 
Q 3572 1766 3864 2108 
Q 4156 2450 4653 2450 
z
M 1428 4353 
Q 1159 4353 1004 4120 
Q 850 3888 850 3481 
Q 850 3069 1003 2837 
Q 1156 2606 1428 2606 
Q 1700 2606 1854 2837 
Q 2009 3069 2009 3481 
Q 2009 3884 1853 4118 
Q 1697 4353 1428 4353 
z
M 4250 4750 
L 4750 4750 
L 1831 -91 
L 1331 -91 
L 4250 4750 
z
M 1428 4750 
Q 1922 4750 2215 4408 
Q 2509 4066 2509 3481 
Q 2509 2891 2217 2550 
Q 1925 2209 1428 2209 
Q 931 2209 642 2551 
Q 353 2894 353 3481 
Q 353 4063 643 4406 
Q 934 4750 1428 4750 
z
" transform="scale(0.015625)"/>
       <path id="DejaVuSans-29" d="M 513 4856 
L 1013 4856 
Q 1481 4119 1714 3412 
Q 1947 2706 1947 2009 
Q 1947 1309 1714 600 
Q 1481 -109 1013 -844 
L 513 -844 
Q 928 -128 1133 580 
Q 1338 1288 1338 2009 
Q 1338 2731 1133 3434 
Q 928 4138 513 4856 
z
" transform="scale(0.015625)"/>
      </defs>
      <use xlink:href="#DejaVuSans-52"/>
      <use xlink:href="#DejaVuSans-65" x="64.982422"/>
      <use xlink:href="#DejaVuSans-74" x="126.505859"/>
      <use xlink:href="#DejaVuSans-75" x="165.714844"/>
      <use xlink:href="#DejaVuSans-72" x="229.09375"/>
      <use xlink:href="#DejaVuSans-6e" x="268.457031"/>
      <use xlink:href="#DejaVuSans-73" x="331.835938"/>
      <use xlink:href="#DejaVuSans-20" x="383.935547"/>
      <use xlink:href="#DejaVuSans-28" x="415.722656"/>
      <use xlink:href="#DejaVuSans-25" x="454.736328"/>
      <use xlink:href="#DejaVuSans-29" x="549.755859"/>
     </g>
    </g>
   </g>
   <g id="line2d_25">
    <path d="M 87.207727 110.871093 
L 87.583882 110.871093 
L 87.960037 60.019415 
L 129.713251 60.019415 
L 130.089406 48.249249 
L 131.217871 55.086513 
L 131.970181 93.283344 
L 132.346336 81.443315 
L 132.722491 61.285443 
L 133.850956 43.387273 
L 134.227112 82.147965 
L 134.603267 86.165212 
L 135.355577 86.165212 
L 136.484042 128.498676 
L 137.988662 128.498676 
L 139.117128 146.993072 
L 139.493283 146.993072 
L 139.869438 153.372436 
L 140.245593 153.372436 
L 140.621748 143.287534 
L 142.502523 143.287534 
L 142.878678 147.998034 
L 145.887919 147.998034 
L 147.016384 156.78893 
L 147.392539 165.766117 
L 148.521004 165.766117 
L 149.64947 130.359784 
L 153.41102 130.359784 
L 153.787175 113.453669 
L 154.915641 108.926145 
L 155.291796 115.325515 
L 155.667951 102.041055 
L 160.557967 102.041055 
L 160.934122 101.56273 
L 161.310277 87.415381 
L 161.686432 102.451342 
L 162.814897 98.418913 
L 163.943362 98.418913 
L 164.319518 81.678559 
L 165.447983 83.862131 
L 165.824138 68.941604 
L 166.200293 82.333594 
L 166.576448 79.276886 
L 166.952603 101.621265 
L 168.081068 132.699933 
L 168.457223 113.04815 
L 168.833378 110.7193 
L 169.209533 95.143737 
L 169.585689 104.314228 
L 170.714154 121.709616 
L 171.090309 109.263585 
L 171.466464 135.756642 
L 171.842619 145.072777 
L 172.218774 123.674722 
L 173.347239 113.630729 
L 173.723394 124.402579 
L 174.099549 115.523012 
L 174.85186 156.57285 
L 176.35648 156.57285 
L 176.732635 145.129964 
L 177.484945 145.129964 
L 178.989565 163.302811 
L 179.741876 163.302811 
L 180.118031 171.936855 
L 181.246496 172.627621 
L 181.622651 172.627621 
L 181.998806 157.914409 
L 184.631892 157.914409 
L 185.008047 158.823723 
L 185.384202 159.408165 
L 186.512667 168.175126 
L 186.888822 185.902011 
L 187.264977 189.994413 
L 187.641132 209.09229 
L 188.017287 214.15898 
L 189.145752 215.718037 
L 189.521907 228.319788 
L 189.898063 224.682206 
L 191.778838 224.682206 
L 192.154993 236.169781 
L 192.907303 236.169781 
L 193.283458 228.868167 
L 195.916544 228.868167 
L 197.045009 218.269587 
L 247.449789 218.269587 
L 247.825944 190.307084 
L 248.578254 190.307084 
L 249.706719 245.962848 
L 250.45903 245.962848 
L 250.835185 300.616573 
L 252.339805 300.616573 
L 252.71596 299.325843 
L 309.139221 299.325843 
L 310.267686 286.865632 
L 313.653082 286.865632 
L 314.029237 289.823049 
L 315.533857 276.065011 
L 315.910012 284.284819 
L 316.286168 280.449496 
L 316.662323 295.887519 
L 317.038478 299.721833 
L 318.543098 305.034731 
L 319.295408 305.034731 
L 319.671563 305.502751 
L 327.57082 305.502751 
L 328.699285 288.47552 
L 337.350852 288.47552 
L 337.727007 284.599504 
L 338.103162 293.175608 
L 339.231627 292.924352 
L 339.607782 283.132312 
L 339.983937 258.067869 
L 340.360092 258.274175 
L 340.736247 270.24453 
L 384.370236 270.24453 
L 384.746391 290.604856 
L 385.122546 302.527901 
L 385.498701 294.565115 
L 386.627166 304.888104 
L 387.003322 288.773688 
L 387.379477 288.691878 
L 387.755632 273.445324 
L 388.131787 275.344667 
L 389.260252 270.528818 
L 389.636407 277.203105 
L 390.012562 272.306128 
L 390.388717 272.306128 
L 390.764872 258.954578 
L 392.269493 258.954578 
L 392.645648 283.386823 
L 410.324936 283.386823 
L 410.701091 276.782652 
L 411.453401 276.782652 
L 411.829556 261.370828 
L 413.710332 261.370828 
L 414.086487 252.046348 
L 415.967262 252.046348 
L 416.343417 242.018247 
L 417.095727 242.018247 
L 418.600348 247.718586 
L 434.022706 247.718586 
L 434.398861 257.072649 
L 434.775016 270.20785 
L 435.151171 270.382903 
L 436.655791 269.387603 
L 437.031946 260.23235 
L 437.408101 255.355883 
L 437.784257 263.963472 
L 438.160412 268.467327 
L 439.288877 276.92487 
L 439.665032 281.428725 
L 440.041187 267.223202 
L 440.793497 280.084571 
L 441.921962 278.890462 
L 442.298117 276.054609 
L 442.674273 275.979586 
L 443.050428 260.306122 
L 443.426583 267.720852 
L 444.555048 267.720852 
L 444.931203 271.054355 
L 446.059668 271.054355 
L 447.188133 281.729956 
L 447.940444 281.729956 
L 448.316599 291.254077 
L 461.858181 291.254077 
L 462.986647 287.03381 
L 463.362802 287.03381 
L 463.738957 294.20545 
L 464.115112 293.649751 
L 464.491267 292.873112 
L 465.619732 301.198553 
L 465.995887 300.17754 
L 466.372042 303.86323 
L 466.748197 299.422102 
L 467.124352 300.821392 
L 468.252818 298.912153 
L 469.005128 295.980785 
L 469.757438 295.980785 
L 470.885903 303.015426 
L 473.895144 303.015426 
L 474.271299 308.032656 
L 481.418245 308.032656 
L 481.7944 306.101467 
L 482.170555 310.466946 
L 482.54671 311.998713 
L 482.922865 312.817174 
L 484.051331 319.595532 
L 484.803641 319.511333 
L 485.555951 319.511333 
L 486.684416 323.742388 
L 487.436726 323.742388 
L 487.812881 318.063222 
L 490.445967 317.978719 
L 490.822122 323.048644 
L 492.326742 323.048644 
L 492.702897 311.037036 
L 493.079052 311.037036 
L 493.455208 295.831094 
L 498.721379 295.831094 
L 499.849844 284.737367 
L 500.225999 298.445425 
L 500.602154 317.884631 
L 500.978309 317.918153 
L 501.354464 324.721816 
L 503.235239 324.721816 
L 503.611395 331.599733 
L 505.49217 331.599733 
L 505.868325 334.342539 
L 506.620635 334.342539 
L 507.7491 328.41036 
L 508.501411 328.41036 
L 508.877566 340.914634 
L 511.134496 340.914634 
L 511.510651 346.383367 
L 514.143737 346.383367 
L 514.519892 348.692396 
L 521.290683 348.692396 
L 521.666838 348.272618 
L 525.052234 348.272618 
L 526.180699 357.272608 
L 537.465351 357.272608 
L 537.841506 362.574 
L 539.346127 370.010939 
L 542.355367 370.010939 
L 542.731522 371.331463 
L 543.483832 371.331463 
L 544.612298 365.777849 
L 545.740763 365.777849 
L 546.116918 373.532727 
L 547.997693 373.532727 
L 548.373848 368.855227 
L 548.750003 361.090504 
L 550.630779 361.090504 
L 551.006934 357.677714 
L 555.520795 357.677714 
L 555.89695 361.017906 
L 557.777725 361.017906 
L 558.15388 352.962643 
L 561.163121 352.962643 
L 561.539276 357.714462 
L 599.907094 357.714462 
L 600.283249 352.930398 
L 600.659404 343.167962 
L 604.044799 343.167962 
L 605.173265 347.133117 
L 616.457917 347.133117 
L 616.834072 331.137869 
L 617.210227 326.486509 
L 618.714847 329.322482 
L 622.476398 329.322482 
L 623.604863 333.88766 
L 627.742569 333.88766 
L 628.871034 328.065911 
L 633.00874 328.065911 
L 634.51336 335.721309 
L 639.403376 335.721309 
L 639.779531 329.38912 
L 652.944959 329.38912 
L 653.321114 328.920288 
L 653.697269 332.675068 
L 654.073424 327.512025 
L 655.578045 339.011074 
L 655.9542 336.898679 
L 656.330355 337.485455 
L 656.70651 343.117919 
L 657.834975 341.474945 
L 658.21113 339.480495 
L 658.587285 339.011074 
L 658.96344 340.770813 
L 659.339595 337.720166 
L 660.844216 337.720166 
L 661.220371 339.951301 
L 661.972681 355.199342 
L 663.101146 350.240939 
L 663.477301 347.141275 
L 663.853456 347.141275 
L 664.229611 346.624887 
L 669.495782 346.624887 
L 669.871937 342.713847 
L 673.633488 342.713847 
L 674.009643 340.1039 
L 674.385798 340.1039 
L 674.761953 329.545598 
L 706.735135 329.545598 
L 707.8636 321.93241 
L 716.139012 321.93241 
L 716.515167 326.314851 
L 721.405183 326.314851 
L 721.781338 332.332223 
L 729.304439 332.332223 
L 729.680594 332.163412 
L 732.31368 332.163412 
L 732.689835 332.521098 
L 733.06599 335.91862 
L 734.194455 339.495029 
L 734.57061 339.280328 
L 748.112193 339.280328 
L 748.488348 337.246186 
L 748.864503 337.246186 
L 749.992968 333.727211 
L 772.562273 333.727211 
L 772.562273 333.727211 
" clip-path="url(#p07445fdb8d)" style="fill: none; stroke: #d62728; stroke-width: 1.5; stroke-linecap: square"/>
   </g>
   <g id="patch_3">
    <path d="M 52.94 390.04 
L 52.94 26.88 
" style="fill: none; stroke: #000000; stroke-width: 0.8; stroke-linejoin: miter; stroke-linecap: square"/>
   </g>
   <g id="patch_4">
    <path d="M 806.83 390.04 
L 806.83 26.88 
" style="fill: none; stroke: #000000; stroke-width: 0.8; stroke-linejoin: miter; stroke-linecap: square"/>
   </g>
   <g id="patch_5">
    <path d="M 52.94 390.04 
L 806.83 390.04 
" style="fill: none; stroke: #000000; stroke-width: 0.8; stroke-linejoin: miter; stroke-linecap: square"/>
   </g>
   <g id="patch_6">
    <path d="M 52.94 26.88 
L 806.83 26.88 
" style="fill: none; stroke: #000000; stroke-width: 0.8; stroke-linejoin: miter; stroke-linecap: square"/>
   </g>
  </g>
  <g id="axes_2">
   <g id="matplotlib.axis_3">
    <g id="ytick_7">
     <g id="line2d_26">
      <defs>
       <path id="m3be1c601e4" d="M 0 0 
L 3.5 0 
" style="stroke: #000000; stroke-width: 0.8"/>
      </defs>
      <g>
       <use xlink:href="#m3be1c601e4" x="806.83" y="378.071095" style="stroke: #000000; stroke-width: 0.8"/>
      </g>
     </g>
     <g id="text_15">
      <!-- 0 -->
      <g style="fill: #1f77b4" transform="translate(813.83 381.870314) scale(0.1 -0.1)">
       <use xlink:href="#DejaVuSans-30"/>
      </g>
     </g>
    </g>
    <g id="ytick_8">
     <g id="line2d_27">
      <g>
       <use xlink:href="#m3be1c601e4" x="806.83" y="332.164632" style="stroke: #000000; stroke-width: 0.8"/>
      </g>
     </g>
     <g id="text_16">
      <!-- 500 -->
      <g style="fill: #1f77b4" transform="translate(813.83 335.963851) scale(0.1 -0.1)">
       <defs>
        <path id="DejaVuSans-35" d="M 691 4666 
L 3169 4666 
L 3169 4134 
L 1269 4134 
L 1269 2991 
Q 1406 3038 1543 3061 
Q 1681 3084 1819 3084 
Q 2600 3084 3056 2656 
Q 3513 2228 3513 1497 
Q 3513 744 3044 326 
Q 2575 -91 1722 -91 
Q 1428 -91 1123 -41 
Q 819 9 494 109 
L 494 744 
Q 775 591 1075 516 
Q 1375 441 1709 441 
Q 2250 441 2565 725 
Q 2881 1009 2881 1497 
Q 2881 1984 2565 2268 
Q 2250 2553 1709 2553 
Q 1456 2553 1204 2497 
Q 953 2441 691 2322 
L 691 4666 
z
" transform="scale(0.015625)"/>
       </defs>
       <use xlink:href="#DejaVuSans-35"/>
       <use xlink:href="#DejaVuSans-30" x="63.623047"/>
       <use xlink:href="#DejaVuSans-30" x="127.246094"/>
      </g>
     </g>
    </g>
    <g id="ytick_9">
     <g id="line2d_28">
      <g>
       <use xlink:href="#m3be1c601e4" x="806.83" y="286.258169" style="stroke: #000000; stroke-width: 0.8"/>
      </g>
     </g>
     <g id="text_17">
      <!-- 1000 -->
      <g style="fill: #1f77b4" transform="translate(813.83 290.057388) scale(0.1 -0.1)">
       <use xlink:href="#DejaVuSans-31"/>
       <use xlink:href="#DejaVuSans-30" x="63.623047"/>
       <use xlink:href="#DejaVuSans-30" x="127.246094"/>
       <use xlink:href="#DejaVuSans-30" x="190.869141"/>
      </g>
     </g>
    </g>
    <g id="ytick_10">
     <g id="line2d_29">
      <g>
       <use xlink:href="#m3be1c601e4" x="806.83" y="240.351706" style="stroke: #000000; stroke-width: 0.8"/>
      </g>
     </g>
     <g id="text_18">
      <!-- 1500 -->
      <g style="fill: #1f77b4" transform="translate(813.83 244.150925) scale(0.1 -0.1)">
       <use xlink:href="#DejaVuSans-31"/>
       <use xlink:href="#DejaVuSans-35" x="63.623047"/>
       <use xlink:href="#DejaVuSans-30" x="127.246094"/>
       <use xlink:href="#DejaVuSans-30" x="190.869141"/>
      </g>
     </g>
    </g>
    <g id="ytick_11">
     <g id="line2d_30">
      <g>
       <use xlink:href="#m3be1c601e4" x="806.83" y="194.445243" style="stroke: #000000; stroke-width: 0.8"/>
      </g>
     </g>
     <g id="text_19">
      <!-- 2000 -->
      <g style="fill: #1f77b4" transform="translate(813.83 198.244462) scale(0.1 -0.1)">
       <use xlink:href="#DejaVuSans-32"/>
       <use xlink:href="#DejaVuSans-30" x="63.623047"/>
       <use xlink:href="#DejaVuSans-30" x="127.246094"/>
       <use xlink:href="#DejaVuSans-30" x="190.869141"/>
      </g>
     </g>
    </g>
    <g id="ytick_12">
     <g id="line2d_31">
      <g>
       <use xlink:href="#m3be1c601e4" x="806.83" y="148.538781" style="stroke: #000000; stroke-width: 0.8"/>
      </g>
     </g>
     <g id="text_20">
      <!-- 2500 -->
      <g style="fill: #1f77b4" transform="translate(813.83 152.337999) scale(0.1 -0.1)">
       <use xlink:href="#DejaVuSans-32"/>
       <use xlink:href="#DejaVuSans-35" x="63.623047"/>
       <use xlink:href="#DejaVuSans-30" x="127.246094"/>
       <use xlink:href="#DejaVuSans-30" x="190.869141"/>
      </g>
     </g>
    </g>
    <g id="ytick_13">
     <g id="line2d_32">
      <g>
       <use xlink:href="#m3be1c601e4" x="806.83" y="102.632318" style="stroke: #000000; stroke-width: 0.8"/>
      </g>
     </g>
     <g id="text_21">
      <!-- 3000 -->
      <g style="fill: #1f77b4" transform="translate(813.83 106.431536) scale(0.1 -0.1)">
       <use xlink:href="#DejaVuSans-33"/>
       <use xlink:href="#DejaVuSans-30" x="63.623047"/>
       <use xlink:href="#DejaVuSans-30" x="127.246094"/>
       <use xlink:href="#DejaVuSans-30" x="190.869141"/>
      </g>
     </g>
    </g>
    <g id="ytick_14">
     <g id="line2d_33">
      <g>
       <use xlink:href="#m3be1c601e4" x="806.83" y="56.725855" style="stroke: #000000; stroke-width: 0.8"/>
      </g>
     </g>
     <g id="text_22">
      <!-- 3500 -->
      <g style="fill: #1f77b4" transform="translate(813.83 60.525073) scale(0.1 -0.1)">
       <use xlink:href="#DejaVuSans-33"/>
       <use xlink:href="#DejaVuSans-35" x="63.623047"/>
       <use xlink:href="#DejaVuSans-30" x="127.246094"/>
       <use xlink:href="#DejaVuSans-30" x="190.869141"/>
      </g>
     </g>
    </g>
    <g id="text_23">
     <!-- Close Price -->
     <g style="fill: #1f77b4" transform="translate(850.878438 235.867812) rotate(-90) scale(0.1 -0.1)">
      <defs>
       <path id="DejaVuSans-43" d="M 4122 4306 
L 4122 3641 
Q 3803 3938 3442 4084 
Q 3081 4231 2675 4231 
Q 1875 4231 1450 3742 
Q 1025 3253 1025 2328 
Q 1025 1406 1450 917 
Q 1875 428 2675 428 
Q 3081 428 3442 575 
Q 3803 722 4122 1019 
L 4122 359 
Q 3791 134 3420 21 
Q 3050 -91 2638 -91 
Q 1578 -91 968 557 
Q 359 1206 359 2328 
Q 359 3453 968 4101 
Q 1578 4750 2638 4750 
Q 3056 4750 3426 4639 
Q 3797 4528 4122 4306 
z
" transform="scale(0.015625)"/>
       <path id="DejaVuSans-6c" d="M 603 4863 
L 1178 4863 
L 1178 0 
L 603 0 
L 603 4863 
z
" transform="scale(0.015625)"/>
       <path id="DejaVuSans-6f" d="M 1959 3097 
Q 1497 3097 1228 2736 
Q 959 2375 959 1747 
Q 959 1119 1226 758 
Q 1494 397 1959 397 
Q 2419 397 2687 759 
Q 2956 1122 2956 1747 
Q 2956 2369 2687 2733 
Q 2419 3097 1959 3097 
z
M 1959 3584 
Q 2709 3584 3137 3096 
Q 3566 2609 3566 1747 
Q 3566 888 3137 398 
Q 2709 -91 1959 -91 
Q 1206 -91 779 398 
Q 353 888 353 1747 
Q 353 2609 779 3096 
Q 1206 3584 1959 3584 
z
" transform="scale(0.015625)"/>
       <path id="DejaVuSans-50" d="M 1259 4147 
L 1259 2394 
L 2053 2394 
Q 2494 2394 2734 2622 
Q 2975 2850 2975 3272 
Q 2975 3691 2734 3919 
Q 2494 4147 2053 4147 
L 1259 4147 
z
M 628 4666 
L 2053 4666 
Q 2838 4666 3239 4311 
Q 3641 3956 3641 3272 
Q 3641 2581 3239 2228 
Q 2838 1875 2053 1875 
L 1259 1875 
L 1259 0 
L 628 0 
L 628 4666 
z
" transform="scale(0.015625)"/>
       <path id="DejaVuSans-69" d="M 603 3500 
L 1178 3500 
L 1178 0 
L 603 0 
L 603 3500 
z
M 603 4863 
L 1178 4863 
L 1178 4134 
L 603 4134 
L 603 4863 
z
" transform="scale(0.015625)"/>
       <path id="DejaVuSans-63" d="M 3122 3366 
L 3122 2828 
Q 2878 2963 2633 3030 
Q 2388 3097 2138 3097 
Q 1578 3097 1268 2742 
Q 959 2388 959 1747 
Q 959 1106 1268 751 
Q 1578 397 2138 397 
Q 2388 397 2633 464 
Q 2878 531 3122 666 
L 3122 134 
Q 2881 22 2623 -34 
Q 2366 -91 2075 -91 
Q 1284 -91 818 406 
Q 353 903 353 1747 
Q 353 2603 823 3093 
Q 1294 3584 2113 3584 
Q 2378 3584 2631 3529 
Q 2884 3475 3122 3366 
z
" transform="scale(0.015625)"/>
      </defs>
      <use xlink:href="#DejaVuSans-43"/>
      <use xlink:href="#DejaVuSans-6c" x="69.824219"/>
      <use xlink:href="#DejaVuSans-6f" x="97.607422"/>
      <use xlink:href="#DejaVuSans-73" x="158.789062"/>
      <use xlink:href="#DejaVuSans-65" x="210.888672"/>
      <use xlink:href="#DejaVuSans-20" x="272.412109"/>
      <use xlink:href="#DejaVuSans-50" x="304.199219"/>
      <use xlink:href="#DejaVuSans-72" x="362.751953"/>
      <use xlink:href="#DejaVuSans-69" x="403.865234"/>
      <use xlink:href="#DejaVuSans-63" x="431.648438"/>
      <use xlink:href="#DejaVuSans-65" x="486.628906"/>
     </g>
    </g>
   </g>
   <g id="line2d_34">
    <path d="M 87.207727 315.815321 
L 87.583882 320.277705 
L 87.960037 310.660668 
L 89.088503 298.657597 
L 89.464658 295.85262 
L 89.840813 295.051185 
L 90.216968 291.062281 
L 90.593123 291.189809 
L 91.721588 296.981919 
L 92.097743 291.17163 
L 92.473898 292.15513 
L 92.850053 290.09696 
L 93.226208 287.419511 
L 94.730829 295.634014 
L 95.106984 298.839754 
L 95.483139 296.599426 
L 95.859294 291.226259 
L 96.987759 298.584697 
L 97.363914 298.329733 
L 97.740069 291.790908 
L 98.116224 287.747375 
L 98.49238 286.526998 
L 99.620845 285.270262 
L 99.997 287.055197 
L 100.373155 285.653122 
L 100.74931 293.175172 
L 101.125465 291.062281 
L 102.25393 289.805545 
L 102.630085 285.561309 
L 103.00624 285.598034 
L 103.382395 284.523823 
L 103.758551 278.531194 
L 105.263171 281.754745 
L 105.639326 282.956577 
L 106.015481 287.073468 
L 106.391636 281.809833 
L 107.520101 269.023047 
L 107.896256 271.664505 
L 108.272411 266.455039 
L 108.648567 270.80789 
L 109.024722 261.209767 
L 110.153187 264.724366 
L 110.529342 267.219841 
L 110.905497 280.753066 
L 111.281652 280.843961 
L 111.657807 281.171733 
L 113.162427 269.241562 
L 113.538582 263.103868 
L 113.914738 267.419993 
L 114.290893 264.670196 
L 115.419358 263.796137 
L 115.795513 264.927272 
L 116.171668 268.193058 
L 116.547823 262.500657 
L 116.923978 277.845351 
L 118.052443 277.479936 
L 118.428598 271.550657 
L 118.804754 278.666159 
L 119.180909 274.9257 
L 119.557064 268.813713 
L 120.685529 269.525264 
L 121.437839 261.223539 
L 121.813994 264.251529 
L 122.190149 257.263647 
L 123.318614 259.836246 
L 123.694769 266.222753 
L 124.070925 261.131726 
L 124.44708 268.776988 
L 124.823235 272.116224 
L 125.9517 275.163495 
L 126.327855 275.400373 
L 126.70401 289.760006 
L 127.080165 290.781792 
L 128.584785 290.836513 
L 128.960941 283.483583 
L 129.337096 287.004792 
L 129.713251 285.782578 
L 130.089406 282.735307 
L 131.217871 284.505461 
L 131.970181 294.394539 
L 132.346336 291.329181 
L 132.722491 286.110351 
L 133.850956 281.476552 
L 134.227112 291.511613 
L 134.603267 292.55167 
L 134.979422 292.843543 
L 135.355577 294.102574 
L 136.484042 304.867731 
L 136.860197 300.762408 
L 137.236352 299.101971 
L 137.612507 295.963622 
L 137.988662 299.065522 
L 139.117128 304.13791 
L 139.493283 297.11312 
L 140.245593 301.437509 
L 140.621748 298.499862 
L 142.126368 300.871849 
L 142.502523 302.915421 
L 142.878678 304.210902 
L 143.254833 308.57174 
L 144.383299 305.780076 
L 144.759454 299.61291 
L 145.135609 299.813613 
L 145.511764 303.627063 
L 145.887919 298.93781 
L 147.016384 301.528679 
L 147.392539 304.174452 
L 147.768694 302.422753 
L 148.144849 298.97426 
L 148.521004 303.51753 
L 150.025625 288.500976 
L 150.40178 288.172561 
L 150.777935 288.500976 
L 151.15409 287.625172 
L 152.282555 295.270343 
L 152.65871 295.987952 
L 153.034865 297.905374 
L 153.787175 286.419209 
L 154.915641 285.049911 
L 155.291796 286.985328 
L 155.667951 282.967594 
L 156.420261 288.628779 
L 157.548726 293.139273 
L 157.924881 289.194898 
L 158.301036 288.847937 
L 158.677191 292.664508 
L 159.053346 293.06619 
L 160.181812 291.751429 
L 160.557967 294.05226 
L 160.934122 293.924457 
L 161.310277 290.144427 
L 161.686432 294.161885 
L 162.814897 293.08446 
L 163.191052 294.782724 
L 163.567207 292.609696 
L 163.943362 298.288876 
L 164.319518 294.088802 
L 165.447983 294.63665 
L 165.824138 290.893161 
L 166.200293 294.253147 
L 166.576448 293.486234 
L 166.952603 299.092331 
L 168.081068 306.889819 
L 168.457223 301.959281 
L 168.833378 301.374984 
L 169.209533 297.46715 
L 169.585689 299.767982 
L 170.714154 304.132402 
L 171.090309 301.009752 
L 171.466464 307.656733 
L 171.842619 309.994106 
L 172.218774 304.625437 
L 173.347239 302.105448 
L 173.723394 304.808053 
L 174.099549 302.580212 
L 174.85186 312.879419 
L 175.980325 310.961998 
L 176.35648 314.212451 
L 177.10879 308.807149 
L 177.484945 310.74284 
L 178.989565 315.253334 
L 179.36572 313.902031 
L 179.741876 311.144614 
L 180.118031 313.427175 
L 181.246496 313.609791 
L 181.998806 303.621095 
L 182.374961 305.593237 
L 182.751116 306.232347 
L 183.879581 302.470588 
L 184.255736 303.274134 
L 184.631892 305.37408 
L 185.384202 305.794124 
L 186.512667 308.259393 
L 186.888822 313.244192 
L 187.264977 314.394975 
L 187.641132 319.765297 
L 188.017287 321.19005 
L 189.145752 321.628456 
L 189.521907 325.172068 
L 189.898063 324.14918 
L 190.274218 320.861268 
L 190.650373 320.623748 
L 191.778838 321.043883 
L 192.154993 324.459692 
L 192.531148 325.245151 
L 193.283458 320.331507 
L 194.411923 320.587206 
L 194.788079 316.477292 
L 195.164234 316.787895 
L 195.540389 314.595954 
L 195.916544 316.95224 
L 197.421164 312.075138 
L 198.173474 313.481712 
L 198.549629 310.595573 
L 199.678095 307.855691 
L 200.05425 308.494985 
L 200.430405 309.481331 
L 200.80656 310.120716 
L 201.182715 305.006093 
L 202.31118 306.376126 
L 202.687335 306.376126 
L 203.06349 310.047633 
L 203.439645 309.46306 
L 203.8158 304.348529 
L 204.944266 305.663749 
L 205.696576 303.709236 
L 206.072731 305.353238 
L 206.448886 302.448828 
L 207.577351 301.791264 
L 207.953506 295.964356 
L 209.081971 293.407091 
L 210.210437 282.61136 
L 210.586592 281.606927 
L 210.962747 277.75262 
L 211.715057 277.333035 
L 212.843522 281.204786 
L 213.595832 273.113313 
L 213.971987 278.611071 
L 214.348142 274.976197 
L 215.476608 274.610782 
L 215.852763 270.957545 
L 216.228918 275.341612 
L 216.981228 272.035429 
L 218.109693 267.925882 
L 218.485848 268.126953 
L 218.862003 270.245077 
L 219.238158 268.43728 
L 219.614313 267.724812 
L 220.742779 264.317634 
L 221.118934 260.664398 
L 221.871244 264.500342 
L 222.247399 269.725416 
L 223.375864 274.493261 
L 223.752019 273.031599 
L 224.504329 274.949571 
L 224.880484 279.115124 
L 226.00895 276.593941 
L 226.385105 276.173438 
L 226.76126 271.990441 
L 227.137415 271.204522 
L 227.51357 274.493261 
L 228.642035 280.7953 
L 229.01819 272.428388 
L 229.7705 267.642181 
L 230.146656 270.528779 
L 231.651276 275.680402 
L 232.027431 276.356145 
L 232.403586 280.356435 
L 232.779741 288.193769 
L 233.908206 290.27627 
L 234.284361 285.362075 
L 234.660516 285.910198 
L 235.412827 293.272218 
L 236.541292 287.481301 
L 237.293602 272.684546 
L 237.669757 272.136423 
L 238.045912 275.132279 
L 239.174377 270.072469 
L 239.550532 270.437884 
L 239.926687 266.455039 
L 240.302843 269.999018 
L 242.183618 268.007596 
L 242.559773 265.304623 
L 243.312083 269.249825 
L 244.440548 280.46661 
L 244.816703 289.125395 
L 245.192858 287.919708 
L 245.569014 298.971689 
L 245.945169 295.263365 
L 247.073634 285.417163 
L 247.449789 293.473105 
L 247.825944 281.544494 
L 248.202099 286.458322 
L 249.706719 314.755065 
L 250.082874 309.092044 
L 250.835185 340.823142 
L 251.21134 333.735276 
L 252.339805 348.532123 
L 252.71596 348.203341 
L 253.092115 351.235738 
L 253.46827 346.449622 
L 253.844425 347.783205 
L 254.97289 348.440769 
L 255.349046 341.51734 
L 255.725201 339.635726 
L 256.101356 335.415912 
L 256.477511 339.032882 
L 257.605976 335.89086 
L 257.982131 336.895569 
L 258.358286 343.36232 
L 258.734441 339.74535 
L 259.110596 341.389444 
L 260.239061 333.278599 
L 260.615217 335.963943 
L 260.991372 331.01339 
L 261.367527 328.437578 
L 262.872147 328.419308 
L 263.248302 322.79292 
L 263.624457 326.428161 
L 264.000612 322.847732 
L 264.376767 313.458024 
L 265.505233 306.552866 
L 265.881388 312.654294 
L 266.257543 309.183398 
L 266.633698 309.128586 
L 267.009853 302.168615 
L 268.138318 299.172667 
L 268.514473 306.205721 
L 268.890628 305.255825 
L 269.642938 316.161731 
L 270.771404 306.973002 
L 271.147559 302.369502 
L 271.523714 301.182085 
L 271.899869 300.743678 
L 272.276024 297.674739 
L 273.404489 285.508058 
L 274.156799 296.706572 
L 274.532954 298.880427 
L 274.909109 290.842572 
L 276.037575 283.206308 
L 276.41373 291.244438 
L 276.789885 283.918776 
L 277.16604 285.965286 
L 277.542195 282.713272 
L 279.046815 289.52726 
L 279.42297 289.709968 
L 279.799125 292.157884 
L 280.17528 289.47254 
L 281.303746 288.120686 
L 281.679901 284.503624 
L 282.432211 293.674083 
L 282.808366 291.53677 
L 283.936831 286.695842 
L 284.312986 287.207331 
L 284.689141 286.805374 
L 285.065296 301.894553 
L 285.441451 299.136126 
L 286.569917 292.431854 
L 286.946072 288.559093 
L 287.322227 288.285123 
L 287.698382 285.380438 
L 288.074537 277.524924 
L 289.203002 268.647532 
L 289.579157 263.313201 
L 289.955312 270.200089 
L 290.331467 262.78344 
L 290.707622 273.981863 
L 291.836088 274.547431 
L 292.212243 269.524346 
L 292.588398 268.446462 
L 292.964553 266.966437 
L 294.469173 267.021525 
L 295.221483 255.531137 
L 295.597638 257.869613 
L 295.973794 261.705557 
L 297.102259 270.492054 
L 297.854569 254.763581 
L 298.230724 258.325923 
L 298.606879 250.434602 
L 299.735344 245.373873 
L 300.111499 253.923493 
L 300.487654 255.073909 
L 301.239965 270.985089 
L 302.36843 262.473113 
L 302.744585 271.479043 
L 303.12074 276.666473 
L 303.496895 272.374219 
L 303.87305 279.991937 
L 305.001515 267.733993 
L 305.37767 269.08548 
L 305.753825 266.364145 
L 306.129981 268.117771 
L 306.506136 267.733993 
L 307.634601 267.971789 
L 308.010756 280.92292 
L 308.386911 280.174645 
L 308.763066 275.935642 
L 309.139221 279.060036 
L 310.267686 268.518994 
L 310.643841 271.25961 
L 311.019997 272.081335 
L 311.396152 272.099698 
L 311.772307 276.11835 
L 312.900772 283.261395 
L 313.276927 279.955212 
L 313.653082 283.626811 
L 314.029237 285.782578 
L 315.533857 275.753853 
L 315.910012 281.745564 
L 316.286168 278.94986 
L 316.662323 290.203187 
L 317.038478 292.998156 
L 318.543098 296.870917 
L 318.919253 291.098363 
L 319.295408 295.372989 
L 319.671563 295.720042 
L 320.800028 278.49355 
L 321.176184 275.479332 
L 321.552339 269.103842 
L 321.928494 269.15893 
L 322.304649 266.199799 
L 323.433114 277.96379 
L 323.809269 276.136712 
L 324.185424 285.983649 
L 324.561579 288.705259 
L 324.937734 281.727201 
L 326.066199 281.672114 
L 326.442355 279.333639 
L 326.81851 280.247177 
L 327.194665 276.337783 
L 327.57082 283.626811 
L 328.699285 269.140567 
L 329.07544 271.935353 
L 329.451595 261.742282 
L 329.82775 260.389878 
L 330.203905 256.882624 
L 331.332371 255.969085 
L 331.708526 250.763292 
L 332.084681 258.545356 
L 332.836991 255.713845 
L 333.965456 263.203026 
L 334.341611 267.715631 
L 334.717766 275.771297 
L 335.093921 267.18587 
L 335.470076 265.816021 
L 336.598542 270.364434 
L 336.974697 265.998729 
L 337.350852 276.100905 
L 337.727007 273.013237 
L 338.103162 279.845037 
L 339.231627 279.644884 
L 339.607782 271.844458 
L 339.983937 251.877901 
L 340.360092 252.042246 
L 340.736247 261.577937 
L 341.864713 260.664398 
L 342.617023 250.708204 
L 342.993178 250.196806 
L 343.369333 246.104704 
L 344.497798 244.095838 
L 344.873953 241.135789 
L 345.250108 248.936215 
L 345.626263 246.689553 
L 346.002418 243.291556 
L 347.130884 241.976795 
L 347.507039 243.145574 
L 347.883194 240.295701 
L 348.635504 225.7002 
L 349.763969 219.817746 
L 350.140124 221.023249 
L 350.516279 221.004887 
L 350.892434 217.588528 
L 351.268589 209.185809 
L 352.397055 204.271981 
L 352.77321 193.859477 
L 353.149365 205.239689 
L 353.52552 186.460273 
L 353.901675 187.447262 
L 355.03014 171.407544 
L 355.406295 170.731801 
L 355.78245 178.185174 
L 356.158605 169.051624 
L 358.039381 148.738015 
L 358.415536 148.098078 
L 358.791691 154.547018 
L 360.296311 170.019333 
L 360.672466 188.817111 
L 361.048621 180.669632 
L 361.424776 194.607752 
L 362.929397 194.73629 
L 363.305552 195.083343 
L 363.681707 184.670839 
L 364.057862 160.959233 
L 364.434017 159.752811 
L 365.562482 166.000681 
L 365.938637 161.488994 
L 366.314792 163.881639 
L 366.690948 143.841631 
L 367.067103 150.857057 
L 368.571723 139.89643 
L 368.947878 139.603547 
L 369.324033 155.423832 
L 369.700188 147.477423 
L 370.828653 127.474141 
L 371.580963 149.633191 
L 371.957119 153.066994 
L 372.333274 147.58668 
L 373.461739 116.714584 
L 373.837894 100.657422 
L 374.214049 109.553176 
L 374.590204 102.830633 
L 374.966359 81.219707 
L 376.094824 43.387273 
L 376.470979 55.626854 
L 376.847135 76.37933 
L 377.22329 88.929238 
L 377.599445 97.42377 
L 379.104065 118.997972 
L 379.48022 115.50908 
L 379.856375 136.936381 
L 380.23253 124.149595 
L 381.360995 147.25799 
L 381.73715 162.164737 
L 382.113306 151.916578 
L 382.489461 180.176597 
L 382.865616 176.32229 
L 383.994081 160.885783 
L 384.370236 181.820966 
L 384.746391 209.240896 
L 385.122546 225.298059 
L 385.498701 214.574309 
L 386.627166 228.476623 
L 387.003322 206.774801 
L 387.379477 206.664626 
L 387.755632 186.131583 
L 388.131787 188.689491 
L 389.260252 182.203826 
L 389.636407 191.192312 
L 390.012562 184.597389 
L 390.388717 212.41946 
L 390.764872 197.056403 
L 391.893337 188.780386 
L 392.645648 245.685119 
L 393.021803 234.158006 
L 393.397958 240.843824 
L 394.526423 252.937422 
L 394.902578 250.288619 
L 395.278733 233.901848 
L 395.654888 229.846471 
L 397.159509 224.676486 
L 397.911819 246.79881 
L 398.287974 244.186732 
L 398.664129 252.699627 
L 399.792594 260.773656 
L 400.168749 255.67712 
L 400.544904 246.324137 
L 400.921059 241.976795 
L 401.297214 248.735145 
L 402.42568 256.956074 
L 402.801835 257.65018 
L 403.17799 245.484049 
L 403.554145 240.807099 
L 403.9303 241.373584 
L 405.058765 226.15651 
L 405.43492 225.95544 
L 405.811075 224.000742 
L 406.563385 234.212176 
L 407.691851 239.382162 
L 408.068006 256.024173 
L 408.820316 266.327419 
L 409.196471 261.668832 
L 410.324936 274.292191 
L 410.701091 269.140567 
L 411.077246 271.78937 
L 411.453401 276.356145 
L 411.829556 265.121916 
L 412.958022 266.253969 
L 413.334177 264.35436 
L 413.710332 270.583867 
L 414.086487 264.116564 
L 414.462642 266.089624 
L 415.591107 268.574082 
L 415.967262 272.319131 
L 416.343417 265.870191 
L 416.719572 261.833177 
L 417.095727 262.984511 
L 418.600348 266.747004 
L 418.976503 265.103553 
L 419.352658 266.747004 
L 419.728813 266.089624 
L 420.857278 251.293053 
L 421.609588 245.118634 
L 421.985743 241.245964 
L 422.361899 241.811532 
L 423.490364 238.870764 
L 423.866519 248.936215 
L 424.242674 248.735145 
L 424.618829 246.415032 
L 424.994984 249.338356 
L 426.123449 245.118634 
L 426.499604 248.936215 
L 426.875759 247.091693 
L 427.251914 238.158296 
L 427.62807 234.047831 
L 428.756535 235.6922 
L 429.13269 242.634176 
L 429.508845 243.529352 
L 429.885 234.760299 
L 430.261155 240.661116 
L 431.765775 249.319993 
L 432.14193 256.334501 
L 432.518086 254.270546 
L 432.894241 249.356718 
L 434.022706 254.325634 
L 434.398861 261.194159 
L 434.775016 270.839107 
L 435.151171 270.967645 
L 436.655791 270.236814 
L 437.031946 263.514271 
L 437.408101 259.933567 
L 437.784257 266.253969 
L 438.160412 269.561071 
L 439.288877 275.771297 
L 439.665032 279.078399 
L 440.041187 268.647532 
L 440.793497 278.09141 
L 441.921962 277.214596 
L 442.298117 275.132279 
L 442.674273 275.077191 
L 443.050428 263.568441 
L 443.426583 269.012948 
L 444.555048 268.921135 
L 445.307358 273.43374 
L 445.683513 270.894194 
L 446.059668 275.808022 
L 447.188133 283.316483 
L 447.564288 278.694621 
L 448.316599 290.550332 
L 448.692754 283.078688 
L 449.821219 270.126638 
L 450.197374 269.999018 
L 450.573529 266.546852 
L 450.949684 268.062684 
L 451.325839 259.367082 
L 452.454304 260.189725 
L 452.83046 256.956074 
L 453.206615 250.781655 
L 453.58277 246.780447 
L 453.958925 253.850043 
L 455.463545 255.5495 
L 455.8397 258.746426 
L 456.215855 257.32149 
L 456.59201 260.35407 
L 457.720476 261.979159 
L 458.096631 267.021525 
L 458.472786 263.898049 
L 458.848941 262.564008 
L 459.225096 257.192951 
L 460.353561 268.866047 
L 460.729716 264.7565 
L 461.105871 264.171652 
L 461.482026 257.631817 
L 461.858181 265.030103 
L 462.986647 261.212521 
L 463.362802 271.606663 
L 463.738957 277.507479 
L 464.115112 277.050251 
L 464.491267 276.411233 
L 465.619732 283.261395 
L 465.995887 282.421307 
L 466.372042 285.453888 
L 466.748197 281.799734 
L 467.124352 282.951068 
L 468.252818 281.380149 
L 469.005128 278.968223 
L 469.381283 274.310553 
L 469.757438 279.261106 
L 470.885903 285.033385 
L 471.262058 282.512202 
L 471.638213 283.645174 
L 472.014368 281.928272 
L 472.390523 281.507769 
L 473.518989 280.959645 
L 473.895144 281.982441 
L 474.271299 286.238889 
L 474.647454 277.598374 
L 475.023609 280.521698 
L 476.528229 265.249536 
L 476.904384 257.631817 
L 477.280539 260.262258 
L 477.656694 265.358793 
L 478.78516 267.569648 
L 479.161315 271.862821 
L 479.53747 278.219948 
L 480.28978 277.580012 
L 481.418245 283.827881 
L 481.7944 282.146787 
L 482.170555 285.946924 
L 482.54671 287.280323 
L 482.922865 287.992791 
L 484.051331 293.893332 
L 484.427486 293.820249 
L 484.803641 292.230967 
L 485.555951 299.428458 
L 486.684416 302.862721 
L 487.060571 300.451438 
L 487.436726 308.361305 
L 487.812881 304.086679 
L 488.189037 314.188763 
L 489.317502 314.133951 
L 489.693657 304.433823 
L 490.069812 301.492688 
L 490.445967 311.046741 
L 490.822122 314.499366 
L 491.950587 312.709106 
L 492.326742 316.435701 
L 492.702897 308.507471 
L 493.079052 314.280117 
L 493.455208 305.073117 
L 494.583673 304.890501 
L 494.959828 303.611731 
L 495.335983 303.776167 
L 495.712138 300.396625 
L 497.216758 306.4067 
L 497.592913 310.005491 
L 497.969068 310.79095 
L 498.345224 309.895866 
L 498.721379 312.307149 
L 499.849844 306.260533 
L 500.225999 313.732086 
L 500.602154 324.327389 
L 500.978309 324.34566 
L 501.354464 328.053984 
L 502.482929 327.652119 
L 502.859084 326.501244 
L 503.235239 331.488338 
L 503.611395 334.977505 
L 503.98755 331.853662 
L 505.49217 340.147215 
L 505.868325 341.371173 
L 506.620635 345.408371 
L 507.7491 343.051809 
L 508.125255 344.001706 
L 508.501411 345.755424 
L 508.877566 350.340654 
L 509.253721 347.289894 
L 510.758341 340.640434 
L 511.134496 344.476746 
L 511.510651 346.906299 
L 511.886806 345.718883 
L 513.015271 342.923914 
L 513.391427 343.344141 
L 513.767582 338.594475 
L 514.143737 341.992288 
L 514.519892 343.179704 
L 515.648357 344.933423 
L 516.024512 340.932767 
L 516.400667 342.083642 
L 516.776822 346.540976 
L 517.152977 347.892737 
L 518.657598 348.623476 
L 519.033753 352.149185 
L 519.409908 348.660018 
L 519.786063 347.929279 
L 520.914528 347.764934 
L 521.290683 348.550393 
L 521.666838 348.367686 
L 522.419148 353.519217 
L 523.547614 353.701925 
L 523.923769 353.263518 
L 524.299924 349.536831 
L 524.676079 350.121404 
L 525.052234 353.117352 
L 526.180699 356.40554 
L 526.556854 355.473914 
L 527.309164 349.208049 
L 527.685319 346.778404 
L 528.813785 349.902247 
L 529.18994 346.997653 
L 529.566095 349.098425 
L 529.94225 347.399518 
L 530.318405 349.628185 
L 531.44687 349.518561 
L 531.823025 345.88332 
L 532.19918 348.806184 
L 532.575335 349.445569 
L 532.95149 346.339997 
L 534.079956 343.58157 
L 534.456111 346.6506 
L 534.832266 346.431351 
L 535.208421 347.527414 
L 535.584576 349.463748 
L 536.713041 352.331801 
L 537.089196 352.532779 
L 537.465351 349.701268 
L 537.841506 352.240539 
L 539.346127 355.802696 
L 539.722282 355.035416 
L 540.098437 354.925883 
L 540.474592 357.848656 
L 540.850747 358.871727 
L 541.979212 357.647769 
L 542.355367 361.319552 
L 542.731522 361.7945 
L 543.107677 361.648425 
L 543.483832 363.201166 
L 544.612298 361.374364 
L 544.988453 361.410905 
L 545.364608 360.278301 
L 545.740763 363.475135 
L 546.116918 365.703802 
L 547.245383 368.736291 
L 547.621538 367.329626 
L 547.997693 369.667926 
L 548.373848 368.754562 
L 548.750003 367.238364 
L 549.878469 367.311355 
L 550.254624 365.88651 
L 550.630779 367.67677 
L 551.383089 366.544166 
L 552.511554 366.69024 
L 552.887709 367.969011 
L 553.263864 367.914199 
L 553.640019 367.530604 
L 554.016175 366.343188 
L 555.520795 367.43925 
L 555.89695 368.042094 
L 556.273105 367.530604 
L 556.64926 366.398 
L 557.777725 367.366167 
L 558.15388 365.813427 
L 558.530035 365.484645 
L 559.282346 368.517042 
L 560.410811 370.106361 
L 560.786966 370.08809 
L 561.163121 369.266043 
L 561.539276 369.923681 
L 561.915431 368.553584 
L 563.420051 367.567146 
L 563.796206 366.781594 
L 564.172362 364.662552 
L 564.548517 364.242416 
L 565.676982 364.352041 
L 566.053137 365.795156 
L 566.429292 365.484645 
L 566.805447 365.758615 
L 567.181602 364.60774 
L 568.686222 362.30599 
L 569.062378 362.287719 
L 569.438533 360.899416 
L 569.814688 360.24176 
L 570.943153 362.56178 
L 571.695463 361.191656 
L 572.071618 362.287719 
L 572.447773 361.739687 
L 573.576238 363.255978 
L 573.952393 361.356093 
L 574.328549 360.607083 
L 574.704704 360.808062 
L 575.080859 362.945375 
L 576.209324 362.83575 
L 576.585479 362.580051 
L 576.961634 361.447447 
L 577.337789 361.995478 
L 577.713944 362.78103 
L 578.842409 363.694385 
L 579.218565 362.908833 
L 579.59472 361.191656 
L 580.34703 356.003675 
L 581.475495 354.834529 
L 581.85165 357.15455 
L 582.227805 355.163311 
L 582.60396 357.264083 
L 582.980115 355.291207 
L 584.10858 354.469205 
L 584.860891 358.250613 
L 585.237046 358.762102 
L 585.613201 359.803353 
L 586.741666 360.625354 
L 587.493976 358.396687 
L 587.870131 358.561124 
L 588.246286 361.392635 
L 589.374752 362.03202 
L 589.750907 362.54351 
L 590.127062 362.214728 
L 590.503217 361.191656 
L 590.879372 362.232998 
L 592.383992 363.603031 
L 593.136302 360.314843 
L 593.512457 359.931248 
L 594.640923 359.511021 
L 595.017078 362.360802 
L 595.769388 361.209927 
L 596.145543 362.908833 
L 597.650163 363.639572 
L 598.026318 365.119229 
L 598.778628 366.343188 
L 599.907094 367.055656 
L 600.283249 366.16048 
L 600.659404 364.33377 
L 601.035559 365.484645 
L 601.411714 365.265396 
L 602.540179 364.973155 
L 602.916334 363.529948 
L 603.292489 363.657843 
L 603.668644 363.657843 
L 604.044799 365.557728 
L 605.173265 366.233563 
L 605.925575 365.740344 
L 606.30173 365.155771 
L 606.677885 366.215292 
L 607.80635 364.936614 
L 608.182505 364.735635 
L 608.55866 366.726782 
L 608.934815 366.872948 
L 609.31097 365.977864 
L 610.439436 366.12403 
L 611.191746 364.552927 
L 611.567901 365.064417 
L 611.944056 363.694385 
L 613.072521 364.479844 
L 613.448676 364.169333 
L 613.824831 364.991426 
L 614.577142 365.575999 
L 615.705607 366.014405 
L 616.081762 365.685532 
L 616.457917 366.891219 
L 616.834072 364.315499 
L 617.210227 363.566489 
L 618.714847 364.023167 
L 619.091002 365.192313 
L 619.467157 365.667261 
L 619.843313 365.466374 
L 620.971778 365.996135 
L 621.347933 365.448103 
L 621.724088 365.521186 
L 622.476398 365.502916 
L 623.604863 366.16048 
L 623.981018 366.014405 
L 624.357173 364.352041 
L 624.733329 364.589469 
L 625.109484 363.402052 
L 626.237949 364.790447 
L 626.614104 365.88651 
L 627.366414 365.502916 
L 627.742569 366.398 
L 628.871034 365.575999 
L 629.247189 364.936614 
L 629.623344 364.826989 
L 629.9995 365.977864 
L 630.375655 365.904781 
L 631.50412 366.617249 
L 632.25643 365.228854 
L 632.632585 365.119229 
L 633.00874 366.032676 
L 634.51336 367.073927 
L 634.889516 366.92776 
L 635.265671 365.502916 
L 635.641826 365.155771 
L 637.146446 365.849969 
L 637.522601 365.119229 
L 637.898756 365.411562 
L 638.274911 365.192313 
L 639.403376 365.941322 
L 639.779531 364.991426 
L 640.155687 364.662552 
L 640.531842 363.000187 
L 640.907997 363.036729 
L 642.412617 363.475135 
L 643.164927 364.461665 
L 643.541082 363.749197 
L 644.669547 363.603031 
L 645.045703 362.707947 
L 645.798013 362.927104 
L 646.174168 362.525239 
L 647.302633 363.694385 
L 647.678788 362.817479 
L 648.054943 362.397343 
L 648.431098 361.264739 
L 648.807253 362.086832 
L 649.935718 362.433885 
L 650.311874 362.214728 
L 650.688029 363.840551 
L 651.064184 364.388582 
L 651.440339 364.662552 
L 652.944959 364.498115 
L 653.321114 364.425124 
L 653.697269 365.009697 
L 654.073424 364.205874 
L 655.578045 365.996135 
L 655.9542 365.667261 
L 656.330355 365.758615 
L 656.70651 366.63552 
L 657.834975 366.379729 
L 658.21113 366.069218 
L 658.587285 365.996135 
L 658.96344 366.270104 
L 659.339595 365.795156 
L 660.468061 366.452812 
L 660.844216 366.452812 
L 661.220371 366.781594 
L 661.972681 369.02856 
L 663.101146 368.297885 
L 663.477301 367.841115 
L 663.853456 368.243072 
L 664.229611 368.169989 
L 664.605766 368.809375 
L 665.734232 368.718021 
L 666.110387 369.02856 
L 666.486542 369.996745 
L 667.238852 369.72273 
L 668.367317 369.466985 
L 668.743472 369.613123 
L 669.119627 369.010289 
L 669.495782 369.576591 
L 669.871937 369.101633 
L 671.000403 368.791104 
L 671.376558 369.320846 
L 671.752713 369.412182 
L 672.128868 368.992018 
L 673.633488 369.284304 
L 674.009643 368.973756 
L 674.385798 369.339108 
L 674.761953 368.133448 
L 675.138108 368.608396 
L 676.266574 367.311355 
L 676.642729 367.494063 
L 677.018884 367.165281 
L 677.395039 367.731583 
L 677.771194 367.110468 
L 678.899659 367.42098 
L 679.275814 367.914199 
L 680.028124 368.425688 
L 680.40428 367.895928 
L 681.532745 367.128739 
L 681.9089 368.078635 
L 682.285055 366.745053 
L 682.66121 366.434541 
L 683.037365 365.904781 
L 684.16583 366.069218 
L 684.91814 365.100959 
L 685.294295 365.630719 
L 685.670451 365.88651 
L 686.798916 365.064417 
L 687.175071 366.16048 
L 687.551226 365.904781 
L 687.927381 366.343188 
L 688.303536 366.014405 
L 689.432001 365.210583 
L 689.808156 365.210583 
L 690.560467 366.872948 
L 690.936622 366.617249 
L 692.441242 367.019114 
L 693.193552 366.343188 
L 693.569707 365.795156 
L 694.698172 365.667261 
L 695.074327 365.1375 
L 695.826638 365.009697 
L 696.202793 365.247125 
L 697.331258 364.881801 
L 697.707413 364.151062 
L 698.083568 364.790447 
L 698.459723 364.680823 
L 698.835878 365.37502 
L 700.340498 365.338479 
L 701.092809 365.742731 
L 701.468964 366.419484 
L 702.597429 367.242587 
L 702.973584 367.334033 
L 703.349739 366.96825 
L 703.725894 367.462112 
L 704.102049 367.242587 
L 705.230514 367.370666 
L 705.982825 367.315762 
L 706.35898 367.827894 
L 706.735135 367.827894 
L 707.8636 366.931617 
L 708.239755 367.077966 
L 708.61591 366.748725 
L 708.992065 366.748725 
L 709.36822 366.876804 
L 710.496685 366.36458 
L 711.248996 366.36458 
L 711.625151 366.931617 
L 712.001306 366.712184 
L 713.505926 367.407208 
L 713.882081 367.462112 
L 714.258236 367.955973 
L 714.634391 367.242587 
L 715.762857 367.023062 
L 716.891322 368.21204 
L 717.267477 368.23031 
L 718.395942 369.126616 
L 718.772097 368.943697 
L 719.148252 368.961995 
L 719.524407 368.705901 
L 719.900562 368.742535 
L 721.405183 368.742535 
L 721.781338 369.364402 
L 722.157493 369.766809 
L 722.533648 369.583899 
L 724.414423 369.126616 
L 724.790578 369.510734 
L 725.166733 369.218071 
L 726.671354 369.016863 
L 727.047509 368.907119 
L 727.423664 369.05345 
L 727.799819 368.449835 
L 729.304439 368.943697 
L 729.680594 368.925408 
L 730.056749 369.254658 
L 730.432904 369.309525 
L 731.937525 369.144905 
L 732.31368 369.437568 
L 732.689835 369.474155 
L 733.06599 369.821686 
L 734.194455 370.187514 
L 734.57061 370.165552 
L 734.946765 370.677951 
L 735.699075 371.117148 
L 736.827541 371.409948 
L 737.579851 370.860953 
L 737.956006 370.897549 
L 740.212936 372.032137 
L 740.589091 371.428246 
L 740.965246 371.409948 
L 742.093712 371.556344 
L 742.469867 371.464843 
L 742.846022 371.666143 
L 743.222177 372.361534 
L 743.598332 372.178542 
L 745.102952 372.013838 
L 745.855262 372.80073 
L 747.359883 373.20333 
L 747.736038 372.855634 
L 748.112193 373.20333 
L 748.488348 373.075233 
L 748.864503 373.532727 
L 749.992968 373.331427 
L 751.121433 372.654335 
L 751.497589 371.885741 
L 752.626054 372.251735 
L 753.002209 371.885741 
L 753.754519 373.093531 
L 755.259139 372.965434 
L 755.635294 372.160243 
L 756.011449 372.087041 
L 756.387605 372.343236 
L 756.76376 371.739345 
L 757.892225 371.501449 
L 758.26838 371.904039 
L 759.396845 371.519747 
L 760.901465 371.666143 
L 761.27762 371.446545 
L 761.653776 371.007348 
L 762.029931 370.385151 
L 763.158396 369.999022 
L 763.534551 370.093268 
L 764.286861 369.580879 
L 764.663016 369.961507 
L 765.791481 370.110658 
L 766.167636 369.743746 
L 766.543792 368.535956 
L 766.919947 368.02263 
L 767.296102 367.939355 
L 768.424567 368.428902 
L 768.800722 367.669425 
L 769.176877 369.072134 
L 769.553032 368.441297 
L 769.929187 367.43264 
L 771.433808 366.760477 
L 771.809963 366.212171 
L 772.186118 366.253395 
L 772.562273 366.887087 
L 772.562273 366.887087 
" clip-path="url(#p07445fdb8d)" style="fill: none; stroke: #1f77b4; stroke-width: 1.5; stroke-linecap: square"/>
   </g>
   <g id="patch_7">
    <path d="M 52.94 390.04 
L 52.94 26.88 
" style="fill: none; stroke: #000000; stroke-width: 0.8; stroke-linejoin: miter; stroke-linecap: square"/>
   </g>
   <g id="patch_8">
    <path d="M 806.83 390.04 
L 806.83 26.88 
" style="fill: none; stroke: #000000; stroke-width: 0.8; stroke-linejoin: miter; stroke-linecap: square"/>
   </g>
   <g id="patch_9">
    <path d="M 52.94 390.04 
L 806.83 390.04 
" style="fill: none; stroke: #000000; stroke-width: 0.8; stroke-linejoin: miter; stroke-linecap: square"/>
   </g>
   <g id="patch_10">
    <path d="M 52.94 26.88 
L 806.83 26.88 
" style="fill: none; stroke: #000000; stroke-width: 0.8; stroke-linejoin: miter; stroke-linecap: square"/>
   </g>
   <g id="text_24">
    <!-- Stock Trading Performance for LABU -->
    <g transform="translate(321.282187 20.88) scale(0.12 -0.12)">
     <defs>
      <path id="DejaVuSans-53" d="M 3425 4513 
L 3425 3897 
Q 3066 4069 2747 4153 
Q 2428 4238 2131 4238 
Q 1616 4238 1336 4038 
Q 1056 3838 1056 3469 
Q 1056 3159 1242 3001 
Q 1428 2844 1947 2747 
L 2328 2669 
Q 3034 2534 3370 2195 
Q 3706 1856 3706 1288 
Q 3706 609 3251 259 
Q 2797 -91 1919 -91 
Q 1588 -91 1214 -16 
Q 841 59 441 206 
L 441 856 
Q 825 641 1194 531 
Q 1563 422 1919 422 
Q 2459 422 2753 634 
Q 3047 847 3047 1241 
Q 3047 1584 2836 1778 
Q 2625 1972 2144 2069 
L 1759 2144 
Q 1053 2284 737 2584 
Q 422 2884 422 3419 
Q 422 4038 858 4394 
Q 1294 4750 2059 4750 
Q 2388 4750 2728 4690 
Q 3069 4631 3425 4513 
z
" transform="scale(0.015625)"/>
      <path id="DejaVuSans-6b" d="M 581 4863 
L 1159 4863 
L 1159 1991 
L 2875 3500 
L 3609 3500 
L 1753 1863 
L 3688 0 
L 2938 0 
L 1159 1709 
L 1159 0 
L 581 0 
L 581 4863 
z
" transform="scale(0.015625)"/>
      <path id="DejaVuSans-54" d="M -19 4666 
L 3928 4666 
L 3928 4134 
L 2272 4134 
L 2272 0 
L 1638 0 
L 1638 4134 
L -19 4134 
L -19 4666 
z
" transform="scale(0.015625)"/>
      <path id="DejaVuSans-64" d="M 2906 2969 
L 2906 4863 
L 3481 4863 
L 3481 0 
L 2906 0 
L 2906 525 
Q 2725 213 2448 61 
Q 2172 -91 1784 -91 
Q 1150 -91 751 415 
Q 353 922 353 1747 
Q 353 2572 751 3078 
Q 1150 3584 1784 3584 
Q 2172 3584 2448 3432 
Q 2725 3281 2906 2969 
z
M 947 1747 
Q 947 1113 1208 752 
Q 1469 391 1925 391 
Q 2381 391 2643 752 
Q 2906 1113 2906 1747 
Q 2906 2381 2643 2742 
Q 2381 3103 1925 3103 
Q 1469 3103 1208 2742 
Q 947 2381 947 1747 
z
" transform="scale(0.015625)"/>
      <path id="DejaVuSans-67" d="M 2906 1791 
Q 2906 2416 2648 2759 
Q 2391 3103 1925 3103 
Q 1463 3103 1205 2759 
Q 947 2416 947 1791 
Q 947 1169 1205 825 
Q 1463 481 1925 481 
Q 2391 481 2648 825 
Q 2906 1169 2906 1791 
z
M 3481 434 
Q 3481 -459 3084 -895 
Q 2688 -1331 1869 -1331 
Q 1566 -1331 1297 -1286 
Q 1028 -1241 775 -1147 
L 775 -588 
Q 1028 -725 1275 -790 
Q 1522 -856 1778 -856 
Q 2344 -856 2625 -561 
Q 2906 -266 2906 331 
L 2906 616 
Q 2728 306 2450 153 
Q 2172 0 1784 0 
Q 1141 0 747 490 
Q 353 981 353 1791 
Q 353 2603 747 3093 
Q 1141 3584 1784 3584 
Q 2172 3584 2450 3431 
Q 2728 3278 2906 2969 
L 2906 3500 
L 3481 3500 
L 3481 434 
z
" transform="scale(0.015625)"/>
      <path id="DejaVuSans-66" d="M 2375 4863 
L 2375 4384 
L 1825 4384 
Q 1516 4384 1395 4259 
Q 1275 4134 1275 3809 
L 1275 3500 
L 2222 3500 
L 2222 3053 
L 1275 3053 
L 1275 0 
L 697 0 
L 697 3053 
L 147 3053 
L 147 3500 
L 697 3500 
L 697 3744 
Q 697 4328 969 4595 
Q 1241 4863 1831 4863 
L 2375 4863 
z
" transform="scale(0.015625)"/>
      <path id="DejaVuSans-6d" d="M 3328 2828 
Q 3544 3216 3844 3400 
Q 4144 3584 4550 3584 
Q 5097 3584 5394 3201 
Q 5691 2819 5691 2113 
L 5691 0 
L 5113 0 
L 5113 2094 
Q 5113 2597 4934 2840 
Q 4756 3084 4391 3084 
Q 3944 3084 3684 2787 
Q 3425 2491 3425 1978 
L 3425 0 
L 2847 0 
L 2847 2094 
Q 2847 2600 2669 2842 
Q 2491 3084 2119 3084 
Q 1678 3084 1418 2786 
Q 1159 2488 1159 1978 
L 1159 0 
L 581 0 
L 581 3500 
L 1159 3500 
L 1159 2956 
Q 1356 3278 1631 3431 
Q 1906 3584 2284 3584 
Q 2666 3584 2933 3390 
Q 3200 3197 3328 2828 
z
" transform="scale(0.015625)"/>
      <path id="DejaVuSans-4c" d="M 628 4666 
L 1259 4666 
L 1259 531 
L 3531 531 
L 3531 0 
L 628 0 
L 628 4666 
z
" transform="scale(0.015625)"/>
      <path id="DejaVuSans-41" d="M 2188 4044 
L 1331 1722 
L 3047 1722 
L 2188 4044 
z
M 1831 4666 
L 2547 4666 
L 4325 0 
L 3669 0 
L 3244 1197 
L 1141 1197 
L 716 0 
L 50 0 
L 1831 4666 
z
" transform="scale(0.015625)"/>
      <path id="DejaVuSans-42" d="M 1259 2228 
L 1259 519 
L 2272 519 
Q 2781 519 3026 730 
Q 3272 941 3272 1375 
Q 3272 1813 3026 2020 
Q 2781 2228 2272 2228 
L 1259 2228 
z
M 1259 4147 
L 1259 2741 
L 2194 2741 
Q 2656 2741 2882 2914 
Q 3109 3088 3109 3444 
Q 3109 3797 2882 3972 
Q 2656 4147 2194 4147 
L 1259 4147 
z
M 628 4666 
L 2241 4666 
Q 2963 4666 3353 4366 
Q 3744 4066 3744 3513 
Q 3744 3084 3544 2831 
Q 3344 2578 2956 2516 
Q 3422 2416 3680 2098 
Q 3938 1781 3938 1306 
Q 3938 681 3513 340 
Q 3088 0 2303 0 
L 628 0 
L 628 4666 
z
" transform="scale(0.015625)"/>
      <path id="DejaVuSans-55" d="M 556 4666 
L 1191 4666 
L 1191 1831 
Q 1191 1081 1462 751 
Q 1734 422 2344 422 
Q 2950 422 3222 751 
Q 3494 1081 3494 1831 
L 3494 4666 
L 4128 4666 
L 4128 1753 
Q 4128 841 3676 375 
Q 3225 -91 2344 -91 
Q 1459 -91 1007 375 
Q 556 841 556 1753 
L 556 4666 
z
" transform="scale(0.015625)"/>
     </defs>
     <use xlink:href="#DejaVuSans-53"/>
     <use xlink:href="#DejaVuSans-74" x="63.476562"/>
     <use xlink:href="#DejaVuSans-6f" x="102.685547"/>
     <use xlink:href="#DejaVuSans-63" x="163.867188"/>
     <use xlink:href="#DejaVuSans-6b" x="218.847656"/>
     <use xlink:href="#DejaVuSans-20" x="276.757812"/>
     <use xlink:href="#DejaVuSans-54" x="308.544922"/>
     <use xlink:href="#DejaVuSans-72" x="354.878906"/>
     <use xlink:href="#DejaVuSans-61" x="395.992188"/>
     <use xlink:href="#DejaVuSans-64" x="457.271484"/>
     <use xlink:href="#DejaVuSans-69" x="520.748047"/>
     <use xlink:href="#DejaVuSans-6e" x="548.53125"/>
     <use xlink:href="#DejaVuSans-67" x="611.910156"/>
     <use xlink:href="#DejaVuSans-20" x="675.386719"/>
     <use xlink:href="#DejaVuSans-50" x="707.173828"/>
     <use xlink:href="#DejaVuSans-65" x="763.851562"/>
     <use xlink:href="#DejaVuSans-72" x="825.375"/>
     <use xlink:href="#DejaVuSans-66" x="866.488281"/>
     <use xlink:href="#DejaVuSans-6f" x="901.693359"/>
     <use xlink:href="#DejaVuSans-72" x="962.875"/>
     <use xlink:href="#DejaVuSans-6d" x="1002.238281"/>
     <use xlink:href="#DejaVuSans-61" x="1099.650391"/>
     <use xlink:href="#DejaVuSans-6e" x="1160.929688"/>
     <use xlink:href="#DejaVuSans-63" x="1224.308594"/>
     <use xlink:href="#DejaVuSans-65" x="1279.289062"/>
     <use xlink:href="#DejaVuSans-20" x="1340.8125"/>
     <use xlink:href="#DejaVuSans-66" x="1372.599609"/>
     <use xlink:href="#DejaVuSans-6f" x="1407.804688"/>
     <use xlink:href="#DejaVuSans-72" x="1468.986328"/>
     <use xlink:href="#DejaVuSans-20" x="1510.099609"/>
     <use xlink:href="#DejaVuSans-4c" x="1541.886719"/>
     <use xlink:href="#DejaVuSans-41" x="1599.849609"/>
     <use xlink:href="#DejaVuSans-42" x="1668.257812"/>
     <use xlink:href="#DejaVuSans-55" x="1736.861328"/>
    </g>
   </g>
  </g>
 </g>
 <defs>
  <clipPath id="p07445fdb8d">
   <rect x="52.94" y="26.88" width="753.89" height="363.16"/>
  </clipPath>
 </defs>
</svg>
