<?xml version="1.0" encoding="utf-8" standalone="no"?>
<!DOCTYPE svg PUBLIC "-//W3C//DTD SVG 1.1//EN"
  "http://www.w3.org/Graphics/SVG/1.1/DTD/svg11.dtd">
<svg xmlns:xlink="http://www.w3.org/1999/xlink" width="864pt" height="432pt" viewBox="0 0 864 432" xmlns="http://www.w3.org/2000/svg" version="1.1">
 <metadata>
  <rdf:RDF xmlns:dc="http://purl.org/dc/elements/1.1/" xmlns:cc="http://creativecommons.org/ns#" xmlns:rdf="http://www.w3.org/1999/02/22-rdf-syntax-ns#">
   <cc:Work>
    <dc:type rdf:resource="http://purl.org/dc/dcmitype/StillImage"/>
    <dc:date>2024-04-16T14:18:47.005257</dc:date>
    <dc:format>image/svg+xml</dc:format>
    <dc:creator>
     <cc:Agent>
      <dc:title>Matplotlib v3.8.2, https://matplotlib.org/</dc:title>
     </cc:Agent>
    </dc:creator>
   </cc:Work>
  </rdf:RDF>
 </metadata>
 <defs>
  <style type="text/css">*{stroke-linejoin: round; stroke-linecap: butt}</style>
 </defs>
 <g id="figure_1">
  <g id="patch_1">
   <path d="M 0 432 
L 864 432 
L 864 0 
L 0 0 
z
" style="fill: #ffffff"/>
  </g>
  <g id="axes_1">
   <g id="patch_2">
    <path d="M 52.94 390.04 
L 813.13 390.04 
L 813.13 26.88 
L 52.94 26.88 
z
" style="fill: #ffffff"/>
   </g>
   <g id="matplotlib.axis_1">
    <g id="xtick_1">
     <g id="line2d_1">
      <path d="M 87.114792 390.04 
L 87.114792 26.88 
" clip-path="url(#pbf843936ba)" style="fill: none; stroke-dasharray: 1.85,0.8; stroke-dashoffset: 0; stroke: #b0b0b0; stroke-opacity: 0.5; stroke-width: 0.5"/>
     </g>
     <g id="line2d_2">
      <defs>
       <path id="m0403fcd7b7" d="M 0 0 
L 0 3.5 
" style="stroke: #000000; stroke-width: 0.8"/>
      </defs>
      <g>
       <use xlink:href="#m0403fcd7b7" x="87.114792" y="390.04" style="stroke: #000000; stroke-width: 0.8"/>
      </g>
     </g>
     <g id="text_1">
      <!-- 2019 -->
      <g transform="translate(74.389792 404.638438) scale(0.1 -0.1)">
       <defs>
        <path id="DejaVuSans-32" d="M 1228 531 
L 3431 531 
L 3431 0 
L 469 0 
L 469 531 
Q 828 903 1448 1529 
Q 2069 2156 2228 2338 
Q 2531 2678 2651 2914 
Q 2772 3150 2772 3378 
Q 2772 3750 2511 3984 
Q 2250 4219 1831 4219 
Q 1534 4219 1204 4116 
Q 875 4013 500 3803 
L 500 4441 
Q 881 4594 1212 4672 
Q 1544 4750 1819 4750 
Q 2544 4750 2975 4387 
Q 3406 4025 3406 3419 
Q 3406 3131 3298 2873 
Q 3191 2616 2906 2266 
Q 2828 2175 2409 1742 
Q 1991 1309 1228 531 
z
" transform="scale(0.015625)"/>
        <path id="DejaVuSans-30" d="M 2034 4250 
Q 1547 4250 1301 3770 
Q 1056 3291 1056 2328 
Q 1056 1369 1301 889 
Q 1547 409 2034 409 
Q 2525 409 2770 889 
Q 3016 1369 3016 2328 
Q 3016 3291 2770 3770 
Q 2525 4250 2034 4250 
z
M 2034 4750 
Q 2819 4750 3233 4129 
Q 3647 3509 3647 2328 
Q 3647 1150 3233 529 
Q 2819 -91 2034 -91 
Q 1250 -91 836 529 
Q 422 1150 422 2328 
Q 422 3509 836 4129 
Q 1250 4750 2034 4750 
z
" transform="scale(0.015625)"/>
        <path id="DejaVuSans-31" d="M 794 531 
L 1825 531 
L 1825 4091 
L 703 3866 
L 703 4441 
L 1819 4666 
L 2450 4666 
L 2450 531 
L 3481 531 
L 3481 0 
L 794 0 
L 794 531 
z
" transform="scale(0.015625)"/>
        <path id="DejaVuSans-39" d="M 703 97 
L 703 672 
Q 941 559 1184 500 
Q 1428 441 1663 441 
Q 2288 441 2617 861 
Q 2947 1281 2994 2138 
Q 2813 1869 2534 1725 
Q 2256 1581 1919 1581 
Q 1219 1581 811 2004 
Q 403 2428 403 3163 
Q 403 3881 828 4315 
Q 1253 4750 1959 4750 
Q 2769 4750 3195 4129 
Q 3622 3509 3622 2328 
Q 3622 1225 3098 567 
Q 2575 -91 1691 -91 
Q 1453 -91 1209 -44 
Q 966 3 703 97 
z
M 1959 2075 
Q 2384 2075 2632 2365 
Q 2881 2656 2881 3163 
Q 2881 3666 2632 3958 
Q 2384 4250 1959 4250 
Q 1534 4250 1286 3958 
Q 1038 3666 1038 3163 
Q 1038 2656 1286 2365 
Q 1534 2075 1959 2075 
z
" transform="scale(0.015625)"/>
       </defs>
       <use xlink:href="#DejaVuSans-32"/>
       <use xlink:href="#DejaVuSans-30" x="63.623047"/>
       <use xlink:href="#DejaVuSans-31" x="127.246094"/>
       <use xlink:href="#DejaVuSans-39" x="190.869141"/>
      </g>
     </g>
    </g>
    <g id="xtick_2">
     <g id="line2d_3">
      <path d="M 225.558735 390.04 
L 225.558735 26.88 
" clip-path="url(#pbf843936ba)" style="fill: none; stroke-dasharray: 1.85,0.8; stroke-dashoffset: 0; stroke: #b0b0b0; stroke-opacity: 0.5; stroke-width: 0.5"/>
     </g>
     <g id="line2d_4">
      <g>
       <use xlink:href="#m0403fcd7b7" x="225.558735" y="390.04" style="stroke: #000000; stroke-width: 0.8"/>
      </g>
     </g>
     <g id="text_2">
      <!-- 2020 -->
      <g transform="translate(212.833735 404.638438) scale(0.1 -0.1)">
       <use xlink:href="#DejaVuSans-32"/>
       <use xlink:href="#DejaVuSans-30" x="63.623047"/>
       <use xlink:href="#DejaVuSans-32" x="127.246094"/>
       <use xlink:href="#DejaVuSans-30" x="190.869141"/>
      </g>
     </g>
    </g>
    <g id="xtick_3">
     <g id="line2d_5">
      <path d="M 364.381976 390.04 
L 364.381976 26.88 
" clip-path="url(#pbf843936ba)" style="fill: none; stroke-dasharray: 1.85,0.8; stroke-dashoffset: 0; stroke: #b0b0b0; stroke-opacity: 0.5; stroke-width: 0.5"/>
     </g>
     <g id="line2d_6">
      <g>
       <use xlink:href="#m0403fcd7b7" x="364.381976" y="390.04" style="stroke: #000000; stroke-width: 0.8"/>
      </g>
     </g>
     <g id="text_3">
      <!-- 2021 -->
      <g transform="translate(351.656976 404.638438) scale(0.1 -0.1)">
       <use xlink:href="#DejaVuSans-32"/>
       <use xlink:href="#DejaVuSans-30" x="63.623047"/>
       <use xlink:href="#DejaVuSans-32" x="127.246094"/>
       <use xlink:href="#DejaVuSans-31" x="190.869141"/>
      </g>
     </g>
    </g>
    <g id="xtick_4">
     <g id="line2d_7">
      <path d="M 502.825919 390.04 
L 502.825919 26.88 
" clip-path="url(#pbf843936ba)" style="fill: none; stroke-dasharray: 1.85,0.8; stroke-dashoffset: 0; stroke: #b0b0b0; stroke-opacity: 0.5; stroke-width: 0.5"/>
     </g>
     <g id="line2d_8">
      <g>
       <use xlink:href="#m0403fcd7b7" x="502.825919" y="390.04" style="stroke: #000000; stroke-width: 0.8"/>
      </g>
     </g>
     <g id="text_4">
      <!-- 2022 -->
      <g transform="translate(490.100919 404.638438) scale(0.1 -0.1)">
       <use xlink:href="#DejaVuSans-32"/>
       <use xlink:href="#DejaVuSans-30" x="63.623047"/>
       <use xlink:href="#DejaVuSans-32" x="127.246094"/>
       <use xlink:href="#DejaVuSans-32" x="190.869141"/>
      </g>
     </g>
    </g>
    <g id="xtick_5">
     <g id="line2d_9">
      <path d="M 641.269862 390.04 
L 641.269862 26.88 
" clip-path="url(#pbf843936ba)" style="fill: none; stroke-dasharray: 1.85,0.8; stroke-dashoffset: 0; stroke: #b0b0b0; stroke-opacity: 0.5; stroke-width: 0.5"/>
     </g>
     <g id="line2d_10">
      <g>
       <use xlink:href="#m0403fcd7b7" x="641.269862" y="390.04" style="stroke: #000000; stroke-width: 0.8"/>
      </g>
     </g>
     <g id="text_5">
      <!-- 2023 -->
      <g transform="translate(628.544862 404.638438) scale(0.1 -0.1)">
       <defs>
        <path id="DejaVuSans-33" d="M 2597 2516 
Q 3050 2419 3304 2112 
Q 3559 1806 3559 1356 
Q 3559 666 3084 287 
Q 2609 -91 1734 -91 
Q 1441 -91 1130 -33 
Q 819 25 488 141 
L 488 750 
Q 750 597 1062 519 
Q 1375 441 1716 441 
Q 2309 441 2620 675 
Q 2931 909 2931 1356 
Q 2931 1769 2642 2001 
Q 2353 2234 1838 2234 
L 1294 2234 
L 1294 2753 
L 1863 2753 
Q 2328 2753 2575 2939 
Q 2822 3125 2822 3475 
Q 2822 3834 2567 4026 
Q 2313 4219 1838 4219 
Q 1578 4219 1281 4162 
Q 984 4106 628 3988 
L 628 4550 
Q 988 4650 1302 4700 
Q 1616 4750 1894 4750 
Q 2613 4750 3031 4423 
Q 3450 4097 3450 3541 
Q 3450 3153 3228 2886 
Q 3006 2619 2597 2516 
z
" transform="scale(0.015625)"/>
       </defs>
       <use xlink:href="#DejaVuSans-32"/>
       <use xlink:href="#DejaVuSans-30" x="63.623047"/>
       <use xlink:href="#DejaVuSans-32" x="127.246094"/>
       <use xlink:href="#DejaVuSans-33" x="190.869141"/>
      </g>
     </g>
    </g>
    <g id="xtick_6">
     <g id="line2d_11">
      <path d="M 779.713805 390.04 
L 779.713805 26.88 
" clip-path="url(#pbf843936ba)" style="fill: none; stroke-dasharray: 1.85,0.8; stroke-dashoffset: 0; stroke: #b0b0b0; stroke-opacity: 0.5; stroke-width: 0.5"/>
     </g>
     <g id="line2d_12">
      <g>
       <use xlink:href="#m0403fcd7b7" x="779.713805" y="390.04" style="stroke: #000000; stroke-width: 0.8"/>
      </g>
     </g>
     <g id="text_6">
      <!-- 2024 -->
      <g transform="translate(766.988805 404.638438) scale(0.1 -0.1)">
       <defs>
        <path id="DejaVuSans-34" d="M 2419 4116 
L 825 1625 
L 2419 1625 
L 2419 4116 
z
M 2253 4666 
L 3047 4666 
L 3047 1625 
L 3713 1625 
L 3713 1100 
L 3047 1100 
L 3047 0 
L 2419 0 
L 2419 1100 
L 313 1100 
L 313 1709 
L 2253 4666 
z
" transform="scale(0.015625)"/>
       </defs>
       <use xlink:href="#DejaVuSans-32"/>
       <use xlink:href="#DejaVuSans-30" x="63.623047"/>
       <use xlink:href="#DejaVuSans-32" x="127.246094"/>
       <use xlink:href="#DejaVuSans-34" x="190.869141"/>
      </g>
     </g>
    </g>
    <g id="text_7">
     <!-- Date -->
     <g transform="translate(421.084219 418.316562) scale(0.1 -0.1)">
      <defs>
       <path id="DejaVuSans-44" d="M 1259 4147 
L 1259 519 
L 2022 519 
Q 2988 519 3436 956 
Q 3884 1394 3884 2338 
Q 3884 3275 3436 3711 
Q 2988 4147 2022 4147 
L 1259 4147 
z
M 628 4666 
L 1925 4666 
Q 3281 4666 3915 4102 
Q 4550 3538 4550 2338 
Q 4550 1131 3912 565 
Q 3275 0 1925 0 
L 628 0 
L 628 4666 
z
" transform="scale(0.015625)"/>
       <path id="DejaVuSans-61" d="M 2194 1759 
Q 1497 1759 1228 1600 
Q 959 1441 959 1056 
Q 959 750 1161 570 
Q 1363 391 1709 391 
Q 2188 391 2477 730 
Q 2766 1069 2766 1631 
L 2766 1759 
L 2194 1759 
z
M 3341 1997 
L 3341 0 
L 2766 0 
L 2766 531 
Q 2569 213 2275 61 
Q 1981 -91 1556 -91 
Q 1019 -91 701 211 
Q 384 513 384 1019 
Q 384 1609 779 1909 
Q 1175 2209 1959 2209 
L 2766 2209 
L 2766 2266 
Q 2766 2663 2505 2880 
Q 2244 3097 1772 3097 
Q 1472 3097 1187 3025 
Q 903 2953 641 2809 
L 641 3341 
Q 956 3463 1253 3523 
Q 1550 3584 1831 3584 
Q 2591 3584 2966 3190 
Q 3341 2797 3341 1997 
z
" transform="scale(0.015625)"/>
       <path id="DejaVuSans-74" d="M 1172 4494 
L 1172 3500 
L 2356 3500 
L 2356 3053 
L 1172 3053 
L 1172 1153 
Q 1172 725 1289 603 
Q 1406 481 1766 481 
L 2356 481 
L 2356 0 
L 1766 0 
Q 1100 0 847 248 
Q 594 497 594 1153 
L 594 3053 
L 172 3053 
L 172 3500 
L 594 3500 
L 594 4494 
L 1172 4494 
z
" transform="scale(0.015625)"/>
       <path id="DejaVuSans-65" d="M 3597 1894 
L 3597 1613 
L 953 1613 
Q 991 1019 1311 708 
Q 1631 397 2203 397 
Q 2534 397 2845 478 
Q 3156 559 3463 722 
L 3463 178 
Q 3153 47 2828 -22 
Q 2503 -91 2169 -91 
Q 1331 -91 842 396 
Q 353 884 353 1716 
Q 353 2575 817 3079 
Q 1281 3584 2069 3584 
Q 2775 3584 3186 3129 
Q 3597 2675 3597 1894 
z
M 3022 2063 
Q 3016 2534 2758 2815 
Q 2500 3097 2075 3097 
Q 1594 3097 1305 2825 
Q 1016 2553 972 2059 
L 3022 2063 
z
" transform="scale(0.015625)"/>
      </defs>
      <use xlink:href="#DejaVuSans-44"/>
      <use xlink:href="#DejaVuSans-61" x="77.001953"/>
      <use xlink:href="#DejaVuSans-74" x="138.28125"/>
      <use xlink:href="#DejaVuSans-65" x="177.490234"/>
     </g>
    </g>
   </g>
   <g id="matplotlib.axis_2">
    <g id="ytick_1">
     <g id="line2d_13">
      <path d="M 52.94 389.018571 
L 813.13 389.018571 
" clip-path="url(#pbf843936ba)" style="fill: none; stroke-dasharray: 1.85,0.8; stroke-dashoffset: 0; stroke: #b0b0b0; stroke-opacity: 0.5; stroke-width: 0.5"/>
     </g>
     <g id="line2d_14">
      <defs>
       <path id="m3d77afa3c9" d="M 0 0 
L -3.5 0 
" style="stroke: #000000; stroke-width: 0.8"/>
      </defs>
      <g>
       <use xlink:href="#m3d77afa3c9" x="52.94" y="389.018571" style="stroke: #000000; stroke-width: 0.8"/>
      </g>
     </g>
     <g id="text_8">
      <!-- −40 -->
      <g style="fill: #d62728" transform="translate(24.835313 392.81779) scale(0.1 -0.1)">
       <defs>
        <path id="DejaVuSans-2212" d="M 678 2272 
L 4684 2272 
L 4684 1741 
L 678 1741 
L 678 2272 
z
" transform="scale(0.015625)"/>
       </defs>
       <use xlink:href="#DejaVuSans-2212"/>
       <use xlink:href="#DejaVuSans-34" x="83.789062"/>
       <use xlink:href="#DejaVuSans-30" x="147.412109"/>
      </g>
     </g>
    </g>
    <g id="ytick_2">
     <g id="line2d_15">
      <path d="M 52.94 320.082495 
L 813.13 320.082495 
" clip-path="url(#pbf843936ba)" style="fill: none; stroke-dasharray: 1.85,0.8; stroke-dashoffset: 0; stroke: #b0b0b0; stroke-opacity: 0.5; stroke-width: 0.5"/>
     </g>
     <g id="line2d_16">
      <g>
       <use xlink:href="#m3d77afa3c9" x="52.94" y="320.082495" style="stroke: #000000; stroke-width: 0.8"/>
      </g>
     </g>
     <g id="text_9">
      <!-- −30 -->
      <g style="fill: #d62728" transform="translate(24.835313 323.881713) scale(0.1 -0.1)">
       <use xlink:href="#DejaVuSans-2212"/>
       <use xlink:href="#DejaVuSans-33" x="83.789062"/>
       <use xlink:href="#DejaVuSans-30" x="147.412109"/>
      </g>
     </g>
    </g>
    <g id="ytick_3">
     <g id="line2d_17">
      <path d="M 52.94 251.146418 
L 813.13 251.146418 
" clip-path="url(#pbf843936ba)" style="fill: none; stroke-dasharray: 1.85,0.8; stroke-dashoffset: 0; stroke: #b0b0b0; stroke-opacity: 0.5; stroke-width: 0.5"/>
     </g>
     <g id="line2d_18">
      <g>
       <use xlink:href="#m3d77afa3c9" x="52.94" y="251.146418" style="stroke: #000000; stroke-width: 0.8"/>
      </g>
     </g>
     <g id="text_10">
      <!-- −20 -->
      <g style="fill: #d62728" transform="translate(24.835313 254.945637) scale(0.1 -0.1)">
       <use xlink:href="#DejaVuSans-2212"/>
       <use xlink:href="#DejaVuSans-32" x="83.789062"/>
       <use xlink:href="#DejaVuSans-30" x="147.412109"/>
      </g>
     </g>
    </g>
    <g id="ytick_4">
     <g id="line2d_19">
      <path d="M 52.94 182.210342 
L 813.13 182.210342 
" clip-path="url(#pbf843936ba)" style="fill: none; stroke-dasharray: 1.85,0.8; stroke-dashoffset: 0; stroke: #b0b0b0; stroke-opacity: 0.5; stroke-width: 0.5"/>
     </g>
     <g id="line2d_20">
      <g>
       <use xlink:href="#m3d77afa3c9" x="52.94" y="182.210342" style="stroke: #000000; stroke-width: 0.8"/>
      </g>
     </g>
     <g id="text_11">
      <!-- −10 -->
      <g style="fill: #d62728" transform="translate(24.835313 186.009561) scale(0.1 -0.1)">
       <use xlink:href="#DejaVuSans-2212"/>
       <use xlink:href="#DejaVuSans-31" x="83.789062"/>
       <use xlink:href="#DejaVuSans-30" x="147.412109"/>
      </g>
     </g>
    </g>
    <g id="ytick_5">
     <g id="line2d_21">
      <path d="M 52.94 113.274265 
L 813.13 113.274265 
" clip-path="url(#pbf843936ba)" style="fill: none; stroke-dasharray: 1.85,0.8; stroke-dashoffset: 0; stroke: #b0b0b0; stroke-opacity: 0.5; stroke-width: 0.5"/>
     </g>
     <g id="line2d_22">
      <g>
       <use xlink:href="#m3d77afa3c9" x="52.94" y="113.274265" style="stroke: #000000; stroke-width: 0.8"/>
      </g>
     </g>
     <g id="text_12">
      <!-- 0 -->
      <g style="fill: #d62728" transform="translate(39.5775 117.073484) scale(0.1 -0.1)">
       <use xlink:href="#DejaVuSans-30"/>
      </g>
     </g>
    </g>
    <g id="ytick_6">
     <g id="line2d_23">
      <path d="M 52.94 44.338189 
L 813.13 44.338189 
" clip-path="url(#pbf843936ba)" style="fill: none; stroke-dasharray: 1.85,0.8; stroke-dashoffset: 0; stroke: #b0b0b0; stroke-opacity: 0.5; stroke-width: 0.5"/>
     </g>
     <g id="line2d_24">
      <g>
       <use xlink:href="#m3d77afa3c9" x="52.94" y="44.338189" style="stroke: #000000; stroke-width: 0.8"/>
      </g>
     </g>
     <g id="text_13">
      <!-- 10 -->
      <g style="fill: #d62728" transform="translate(33.215 48.137408) scale(0.1 -0.1)">
       <use xlink:href="#DejaVuSans-31"/>
       <use xlink:href="#DejaVuSans-30" x="63.623047"/>
      </g>
     </g>
    </g>
    <g id="text_14">
     <!-- Returns (%) -->
     <g style="fill: #d62728" transform="translate(18.755625 237.8975) rotate(-90) scale(0.1 -0.1)">
      <defs>
       <path id="DejaVuSans-52" d="M 2841 2188 
Q 3044 2119 3236 1894 
Q 3428 1669 3622 1275 
L 4263 0 
L 3584 0 
L 2988 1197 
Q 2756 1666 2539 1819 
Q 2322 1972 1947 1972 
L 1259 1972 
L 1259 0 
L 628 0 
L 628 4666 
L 2053 4666 
Q 2853 4666 3247 4331 
Q 3641 3997 3641 3322 
Q 3641 2881 3436 2590 
Q 3231 2300 2841 2188 
z
M 1259 4147 
L 1259 2491 
L 2053 2491 
Q 2509 2491 2742 2702 
Q 2975 2913 2975 3322 
Q 2975 3731 2742 3939 
Q 2509 4147 2053 4147 
L 1259 4147 
z
" transform="scale(0.015625)"/>
       <path id="DejaVuSans-75" d="M 544 1381 
L 544 3500 
L 1119 3500 
L 1119 1403 
Q 1119 906 1312 657 
Q 1506 409 1894 409 
Q 2359 409 2629 706 
Q 2900 1003 2900 1516 
L 2900 3500 
L 3475 3500 
L 3475 0 
L 2900 0 
L 2900 538 
Q 2691 219 2414 64 
Q 2138 -91 1772 -91 
Q 1169 -91 856 284 
Q 544 659 544 1381 
z
M 1991 3584 
L 1991 3584 
z
" transform="scale(0.015625)"/>
       <path id="DejaVuSans-72" d="M 2631 2963 
Q 2534 3019 2420 3045 
Q 2306 3072 2169 3072 
Q 1681 3072 1420 2755 
Q 1159 2438 1159 1844 
L 1159 0 
L 581 0 
L 581 3500 
L 1159 3500 
L 1159 2956 
Q 1341 3275 1631 3429 
Q 1922 3584 2338 3584 
Q 2397 3584 2469 3576 
Q 2541 3569 2628 3553 
L 2631 2963 
z
" transform="scale(0.015625)"/>
       <path id="DejaVuSans-6e" d="M 3513 2113 
L 3513 0 
L 2938 0 
L 2938 2094 
Q 2938 2591 2744 2837 
Q 2550 3084 2163 3084 
Q 1697 3084 1428 2787 
Q 1159 2491 1159 1978 
L 1159 0 
L 581 0 
L 581 3500 
L 1159 3500 
L 1159 2956 
Q 1366 3272 1645 3428 
Q 1925 3584 2291 3584 
Q 2894 3584 3203 3211 
Q 3513 2838 3513 2113 
z
" transform="scale(0.015625)"/>
       <path id="DejaVuSans-73" d="M 2834 3397 
L 2834 2853 
Q 2591 2978 2328 3040 
Q 2066 3103 1784 3103 
Q 1356 3103 1142 2972 
Q 928 2841 928 2578 
Q 928 2378 1081 2264 
Q 1234 2150 1697 2047 
L 1894 2003 
Q 2506 1872 2764 1633 
Q 3022 1394 3022 966 
Q 3022 478 2636 193 
Q 2250 -91 1575 -91 
Q 1294 -91 989 -36 
Q 684 19 347 128 
L 347 722 
Q 666 556 975 473 
Q 1284 391 1588 391 
Q 1994 391 2212 530 
Q 2431 669 2431 922 
Q 2431 1156 2273 1281 
Q 2116 1406 1581 1522 
L 1381 1569 
Q 847 1681 609 1914 
Q 372 2147 372 2553 
Q 372 3047 722 3315 
Q 1072 3584 1716 3584 
Q 2034 3584 2315 3537 
Q 2597 3491 2834 3397 
z
" transform="scale(0.015625)"/>
       <path id="DejaVuSans-20" transform="scale(0.015625)"/>
       <path id="DejaVuSans-28" d="M 1984 4856 
Q 1566 4138 1362 3434 
Q 1159 2731 1159 2009 
Q 1159 1288 1364 580 
Q 1569 -128 1984 -844 
L 1484 -844 
Q 1016 -109 783 600 
Q 550 1309 550 2009 
Q 550 2706 781 3412 
Q 1013 4119 1484 4856 
L 1984 4856 
z
" transform="scale(0.015625)"/>
       <path id="DejaVuSans-25" d="M 4653 2053 
Q 4381 2053 4226 1822 
Q 4072 1591 4072 1178 
Q 4072 772 4226 539 
Q 4381 306 4653 306 
Q 4919 306 5073 539 
Q 5228 772 5228 1178 
Q 5228 1588 5073 1820 
Q 4919 2053 4653 2053 
z
M 4653 2450 
Q 5147 2450 5437 2106 
Q 5728 1763 5728 1178 
Q 5728 594 5436 251 
Q 5144 -91 4653 -91 
Q 4153 -91 3862 251 
Q 3572 594 3572 1178 
Q 3572 1766 3864 2108 
Q 4156 2450 4653 2450 
z
M 1428 4353 
Q 1159 4353 1004 4120 
Q 850 3888 850 3481 
Q 850 3069 1003 2837 
Q 1156 2606 1428 2606 
Q 1700 2606 1854 2837 
Q 2009 3069 2009 3481 
Q 2009 3884 1853 4118 
Q 1697 4353 1428 4353 
z
M 4250 4750 
L 4750 4750 
L 1831 -91 
L 1331 -91 
L 4250 4750 
z
M 1428 4750 
Q 1922 4750 2215 4408 
Q 2509 4066 2509 3481 
Q 2509 2891 2217 2550 
Q 1925 2209 1428 2209 
Q 931 2209 642 2551 
Q 353 2894 353 3481 
Q 353 4063 643 4406 
Q 934 4750 1428 4750 
z
" transform="scale(0.015625)"/>
       <path id="DejaVuSans-29" d="M 513 4856 
L 1013 4856 
Q 1481 4119 1714 3412 
Q 1947 2706 1947 2009 
Q 1947 1309 1714 600 
Q 1481 -109 1013 -844 
L 513 -844 
Q 928 -128 1133 580 
Q 1338 1288 1338 2009 
Q 1338 2731 1133 3434 
Q 928 4138 513 4856 
z
" transform="scale(0.015625)"/>
      </defs>
      <use xlink:href="#DejaVuSans-52"/>
      <use xlink:href="#DejaVuSans-65" x="64.982422"/>
      <use xlink:href="#DejaVuSans-74" x="126.505859"/>
      <use xlink:href="#DejaVuSans-75" x="165.714844"/>
      <use xlink:href="#DejaVuSans-72" x="229.09375"/>
      <use xlink:href="#DejaVuSans-6e" x="268.457031"/>
      <use xlink:href="#DejaVuSans-73" x="331.835938"/>
      <use xlink:href="#DejaVuSans-20" x="383.935547"/>
      <use xlink:href="#DejaVuSans-28" x="415.722656"/>
      <use xlink:href="#DejaVuSans-25" x="454.736328"/>
      <use xlink:href="#DejaVuSans-29" x="549.755859"/>
     </g>
    </g>
   </g>
   <g id="line2d_25">
    <path d="M 87.494091 113.274265 
L 101.148836 113.274265 
L 101.528134 124.409147 
L 102.66603 134.381147 
L 103.045328 118.758088 
L 103.424627 118.093028 
L 103.803925 125.904558 
L 104.183224 104.797677 
L 106.459015 104.797677 
L 106.838313 107.625209 
L 119.355163 107.625209 
L 119.734461 98.217311 
L 120.11376 93.682413 
L 121.251655 71.338162 
L 121.630953 68.481982 
L 122.38955 47.820381 
L 122.768849 48.323603 
L 123.906744 46.979056 
L 137.182191 46.979056 
L 137.561489 49.88669 
L 137.940788 51.7681 
L 138.320086 45.268683 
L 138.699385 52.110175 
L 139.83728 52.281212 
L 140.216579 43.387273 
L 140.975176 72.121539 
L 141.354474 67.845607 
L 142.871668 81.357553 
L 143.250966 81.015479 
L 143.630265 87.172821 
L 144.009563 106.671073 
L 145.147459 105.986924 
L 145.526757 76.055397 
L 145.906056 76.910583 
L 146.285354 70.411166 
L 146.664653 72.292576 
L 147.802548 62.201376 
L 148.181847 55.701958 
L 148.561145 73.660875 
L 148.940444 68.016644 
L 149.319742 70.240129 
L 150.457637 75.542285 
L 150.836936 61.346189 
L 167.526069 61.346189 
L 167.905367 75.331802 
L 169.043263 103.478347 
L 169.422561 90.873365 
L 169.80186 102.26905 
L 170.181158 90.008727 
L 170.560457 86.038168 
L 171.698352 105.721624 
L 172.07765 100.023781 
L 172.456949 123.508455 
L 172.836247 127.479015 
L 173.215546 112.975416 
L 174.353441 105.55029 
L 174.73274 113.664735 
L 175.112038 112.975416 
L 175.491337 107.277573 
L 175.870635 123.508455 
L 177.008531 109.17619 
L 193.318365 109.17619 
L 193.697663 98.37832 
L 246.040853 98.37832 
L 246.420151 121.768171 
L 246.79945 132.96556 
L 247.178748 158.90841 
L 247.558047 164.295027 
L 248.695942 143.740407 
L 249.07524 173.224876 
L 249.454539 161.317873 
L 249.833837 198.882267 
L 250.213136 209.515191 
L 251.351031 271.037127 
L 251.73033 242.686428 
L 252.109628 279.966977 
L 252.488927 358.784147 
L 254.006121 358.784147 
L 254.385419 328.773609 
L 255.144016 328.773609 
L 255.523315 347.929787 
L 258.178404 347.929787 
L 259.316299 336.834051 
L 323.417741 336.834051 
L 323.79704 329.808627 
L 324.176338 338.128154 
L 324.555637 339.699712 
L 326.072831 362.347541 
L 326.452129 373.532727 
L 326.831428 371.775854 
L 328.348621 355.414257 
L 328.72792 365.952392 
L 329.107218 355.691713 
L 329.486517 365.767077 
L 329.865815 359.204424 
L 331.383009 359.204424 
L 331.762308 350.194859 
L 340.106874 350.194859 
L 340.486173 349.912634 
L 341.624068 338.347681 
L 342.003366 321.42359 
L 342.382665 319.073805 
L 342.761963 311.834212 
L 397.380944 311.834212 
L 397.760242 304.208893 
L 398.13954 313.22057 
L 398.518839 309.691595 
L 400.036033 311.077953 
L 400.415331 304.208893 
L 400.79463 304.523943 
L 401.173928 297.213674 
L 401.553227 293.937017 
L 402.691122 297.339833 
L 403.070421 301.436177 
L 403.449719 293.495808 
L 403.829018 293.306918 
L 404.208316 293.306918 
L 405.346211 283.974217 
L 405.72551 301.731437 
L 406.104808 289.029072 
L 406.484107 295.250872 
L 406.863405 278.011897 
L 408.001301 274.31824 
L 408.380599 271.46682 
L 408.759898 266.476477 
L 409.139196 258.276316 
L 409.518495 265.369742 
L 410.65639 265.955366 
L 411.035689 264.784119 
L 411.794286 237.514282 
L 412.173584 231.8523 
L 413.311479 239.857492 
L 427.724821 239.857492 
L 428.10412 264.310738 
L 429.242015 252.467993 
L 429.621314 254.004913 
L 430.000612 252.916378 
L 430.759209 236.720906 
L 431.897105 241.201945 
L 432.276403 222.382428 
L 432.655702 215.660869 
L 433.035 213.548662 
L 433.414298 213.484506 
L 434.931492 225.134784 
L 435.310791 226.287474 
L 435.690089 241.586175 
L 436.069388 224.367029 
L 437.207283 208.87586 
L 437.586582 205.931037 
L 437.96588 210.73215 
L 438.345179 209.64432 
L 438.724477 218.478086 
L 439.862373 230.640201 
L 440.620969 190.120499 
L 441.000268 190.824803 
L 441.379566 197.353894 
L 442.517462 184.615082 
L 442.89676 184.999312 
L 443.276059 187.624061 
L 443.655357 181.756269 
L 444.034656 183.69011 
L 445.172551 182.078459 
L 445.55185 179.692707 
L 445.931148 181.691409 
L 446.689745 159.509702 
L 447.82764 152.996827 
L 462.240982 152.996827 
L 462.620281 157.561234 
L 463.758176 177.34172 
L 464.137475 179.433654 
L 464.896072 146.149869 
L 465.27537 150.207582 
L 466.413266 136.32305 
L 467.171863 171.508844 
L 467.551161 185.710147 
L 467.93046 174.678629 
L 469.068355 186.724229 
L 469.447653 173.728318 
L 469.826952 174.361859 
L 470.20625 176.263868 
L 470.585549 168.402136 
L 471.723444 185.836994 
L 472.102743 182.730286 
L 472.482041 177.722261 
L 472.86134 162.253182 
L 473.240638 155.08876 
L 474.378534 159.716938 
L 474.757832 157.561234 
L 475.137131 164.471962 
L 475.516429 166.88136 
L 475.895727 157.244464 
L 477.033623 156.547153 
L 482.7231 156.547153 
L 483.102398 169.116984 
L 483.860995 155.639558 
L 484.998891 153.307252 
L 485.378189 150.196806 
L 485.757488 169.700237 
L 489.171174 169.700237 
L 490.309069 174.224543 
L 497.136442 174.224543 
L 498.274337 185.610695 
L 498.653636 170.084252 
L 499.032934 166.655552 
L 499.412233 159.927403 
L 500.929427 153.070002 
L 501.308725 155.851738 
L 501.688024 163.873815 
L 502.067322 163.421432 
L 502.446621 167.561723 
L 503.584516 154.428557 
L 510.03259 154.428557 
L 510.411889 160.726405 
L 511.549784 165.790486 
L 512.687679 145.857759 
L 521.032246 145.857759 
L 522.54944 150.468835 
L 522.928738 158.728399 
L 523.308037 170.703986 
L 523.687335 151.845553 
L 524.825231 178.068497 
L 525.204529 199.473301 
L 525.583827 194.311538 
L 525.963126 198.440948 
L 526.342424 208.21453 
L 527.48032 228.243358 
L 527.859618 229.206689 
L 528.997514 229.206689 
L 530.135409 232.303366 
L 539.238572 232.303366 
L 539.617871 225.923735 
L 540.755766 226.198184 
L 541.135065 226.815138 
L 541.514363 225.443636 
L 547.583139 225.443636 
L 548.721034 215.632302 
L 551.376124 215.632302 
L 551.755422 222.070232 
L 554.78981 222.070232 
L 555.169108 227.322252 
L 565.030869 227.322252 
L 565.410167 219.186538 
L 565.789466 235.073952 
L 566.168764 243.132535 
L 567.685958 229.854458 
L 568.444555 229.854458 
L 568.823853 200.043459 
L 571.099644 200.043459 
L 571.478943 194.576807 
L 596.89194 194.576807 
L 597.650537 170.935927 
L 598.029836 163.650696 
L 599.167731 158.722518 
L 599.54703 180.863387 
L 599.926328 179.935241 
L 600.305627 172.221111 
L 600.684925 178.149296 
L 601.822821 168.935911 
L 602.202119 179.863379 
L 602.581418 185.791565 
L 602.960716 197.147932 
L 603.340014 220.431775 
L 604.47791 232.931116 
L 604.857208 234.931132 
L 605.236507 220.717708 
L 605.615805 232.216285 
L 605.995104 238.287437 
L 607.132999 228.502943 
L 607.512298 202.862046 
L 607.891596 209.004303 
L 608.270895 221.860682 
L 608.650193 238.859302 
L 609.788089 242.572644 
L 610.167387 252.643827 
L 610.546685 255.500884 
L 610.925984 236.07335 
L 611.305282 236.07335 
L 612.443178 222.229986 
L 613.201775 222.229986 
L 613.581073 230.004782 
L 637.856176 230.004782 
L 639.373369 236.98671 
L 639.752668 240.976382 
L 640.131966 235.789808 
L 640.511265 237.252455 
L 642.028459 232.59807 
L 642.407757 226.414077 
L 642.787056 231.267946 
L 643.166354 220.362608 
L 644.30425 219.83042 
L 644.683548 211.318885 
L 645.062847 207.927664 
L 645.821443 193.098915 
L 662.889875 193.098915 
L 663.269173 194.359474 
L 663.648472 196.313274 
L 664.02777 197.006516 
L 664.407069 182.824902 
L 665.544964 182.509435 
L 665.924263 197.133097 
L 666.303561 198.14115 
L 666.682859 221.462799 
L 667.062158 235.014789 
L 668.200053 247.998807 
L 668.579352 235.519144 
L 668.95865 264.387382 
L 669.337949 254.176332 
L 669.717247 272.014353 
L 670.855143 262.811356 
L 671.234441 243.145459 
L 671.61374 250.772429 
L 672.372337 273.463799 
L 673.88953 267.601741 
L 674.268829 259.02968 
L 674.648127 259.848846 
L 676.54462 259.848846 
L 676.923918 266.247699 
L 687.923574 266.247699 
L 688.302872 251.509126 
L 689.440768 254.430719 
L 689.820066 254.820532 
L 690.199365 259.040835 
L 692.475156 259.040835 
L 692.854454 245.428161 
L 693.613051 245.428161 
L 695.130245 245.224789 
L 695.509543 245.224789 
L 695.888842 233.009414 
L 698.164633 233.009414 
L 698.543931 230.849845 
L 708.026393 230.849845 
L 708.405692 225.103902 
L 708.78499 228.114118 
L 709.164288 219.564004 
L 709.543587 218.469572 
L 710.681482 211.560752 
L 711.440079 214.912493 
L 711.819378 214.912493 
L 712.198676 214.700775 
L 724.715526 214.700775 
L 725.474123 213.761193 
L 726.612018 216.245699 
L 726.991317 224.101404 
L 727.749914 226.58591 
L 728.129212 232.629024 
L 729.267108 236.926808 
L 729.646406 245.454428 
L 730.025705 242.700882 
L 730.405003 242.365267 
L 730.784301 243.842931 
L 731.922197 236.053799 
L 732.301495 228.197407 
L 732.680794 230.144518 
L 733.060092 230.883693 
L 733.439391 226.854264 
L 734.956585 232.964639 
L 735.335883 237.530776 
L 735.715182 239.679668 
L 736.09448 232.42793 
L 737.232376 241.895133 
L 737.990972 216.782407 
L 743.68045 216.782407 
L 744.059748 220.489099 
L 745.197643 229.469521 
L 748.61133 229.469521 
L 748.990628 237.387653 
L 751.266419 237.387653 
L 751.645717 252.182561 
L 753.54221 252.182561 
L 753.921508 253.413775 
L 754.300807 253.413775 
L 754.680105 266.139586 
L 755.818001 258.117605 
L 778.575909 258.117605 
L 778.575909 258.117605 
" clip-path="url(#pbf843936ba)" style="fill: none; stroke: #d62728; stroke-width: 1.5; stroke-linecap: square"/>
   </g>
   <g id="patch_3">
    <path d="M 52.94 390.04 
L 52.94 26.88 
" style="fill: none; stroke: #000000; stroke-width: 0.8; stroke-linejoin: miter; stroke-linecap: square"/>
   </g>
   <g id="patch_4">
    <path d="M 813.13 390.04 
L 813.13 26.88 
" style="fill: none; stroke: #000000; stroke-width: 0.8; stroke-linejoin: miter; stroke-linecap: square"/>
   </g>
   <g id="patch_5">
    <path d="M 52.94 390.04 
L 813.13 390.04 
" style="fill: none; stroke: #000000; stroke-width: 0.8; stroke-linejoin: miter; stroke-linecap: square"/>
   </g>
   <g id="patch_6">
    <path d="M 52.94 26.88 
L 813.13 26.88 
" style="fill: none; stroke: #000000; stroke-width: 0.8; stroke-linejoin: miter; stroke-linecap: square"/>
   </g>
  </g>
  <g id="axes_2">
   <g id="matplotlib.axis_3">
    <g id="ytick_7">
     <g id="line2d_26">
      <defs>
       <path id="ma42390c02e" d="M 0 0 
L 3.5 0 
" style="stroke: #000000; stroke-width: 0.8"/>
      </defs>
      <g>
       <use xlink:href="#ma42390c02e" x="813.13" y="349.520664" style="stroke: #000000; stroke-width: 0.8"/>
      </g>
     </g>
     <g id="text_15">
      <!-- 30 -->
      <g style="fill: #1f77b4" transform="translate(820.13 353.319882) scale(0.1 -0.1)">
       <use xlink:href="#DejaVuSans-33"/>
       <use xlink:href="#DejaVuSans-30" x="63.623047"/>
      </g>
     </g>
    </g>
    <g id="ytick_8">
     <g id="line2d_27">
      <g>
       <use xlink:href="#ma42390c02e" x="813.13" y="306.301629" style="stroke: #000000; stroke-width: 0.8"/>
      </g>
     </g>
     <g id="text_16">
      <!-- 40 -->
      <g style="fill: #1f77b4" transform="translate(820.13 310.100847) scale(0.1 -0.1)">
       <use xlink:href="#DejaVuSans-34"/>
       <use xlink:href="#DejaVuSans-30" x="63.623047"/>
      </g>
     </g>
    </g>
    <g id="ytick_9">
     <g id="line2d_28">
      <g>
       <use xlink:href="#ma42390c02e" x="813.13" y="263.082594" style="stroke: #000000; stroke-width: 0.8"/>
      </g>
     </g>
     <g id="text_17">
      <!-- 50 -->
      <g style="fill: #1f77b4" transform="translate(820.13 266.881812) scale(0.1 -0.1)">
       <defs>
        <path id="DejaVuSans-35" d="M 691 4666 
L 3169 4666 
L 3169 4134 
L 1269 4134 
L 1269 2991 
Q 1406 3038 1543 3061 
Q 1681 3084 1819 3084 
Q 2600 3084 3056 2656 
Q 3513 2228 3513 1497 
Q 3513 744 3044 326 
Q 2575 -91 1722 -91 
Q 1428 -91 1123 -41 
Q 819 9 494 109 
L 494 744 
Q 775 591 1075 516 
Q 1375 441 1709 441 
Q 2250 441 2565 725 
Q 2881 1009 2881 1497 
Q 2881 1984 2565 2268 
Q 2250 2553 1709 2553 
Q 1456 2553 1204 2497 
Q 953 2441 691 2322 
L 691 4666 
z
" transform="scale(0.015625)"/>
       </defs>
       <use xlink:href="#DejaVuSans-35"/>
       <use xlink:href="#DejaVuSans-30" x="63.623047"/>
      </g>
     </g>
    </g>
    <g id="ytick_10">
     <g id="line2d_29">
      <g>
       <use xlink:href="#ma42390c02e" x="813.13" y="219.863558" style="stroke: #000000; stroke-width: 0.8"/>
      </g>
     </g>
     <g id="text_18">
      <!-- 60 -->
      <g style="fill: #1f77b4" transform="translate(820.13 223.662777) scale(0.1 -0.1)">
       <defs>
        <path id="DejaVuSans-36" d="M 2113 2584 
Q 1688 2584 1439 2293 
Q 1191 2003 1191 1497 
Q 1191 994 1439 701 
Q 1688 409 2113 409 
Q 2538 409 2786 701 
Q 3034 994 3034 1497 
Q 3034 2003 2786 2293 
Q 2538 2584 2113 2584 
z
M 3366 4563 
L 3366 3988 
Q 3128 4100 2886 4159 
Q 2644 4219 2406 4219 
Q 1781 4219 1451 3797 
Q 1122 3375 1075 2522 
Q 1259 2794 1537 2939 
Q 1816 3084 2150 3084 
Q 2853 3084 3261 2657 
Q 3669 2231 3669 1497 
Q 3669 778 3244 343 
Q 2819 -91 2113 -91 
Q 1303 -91 875 529 
Q 447 1150 447 2328 
Q 447 3434 972 4092 
Q 1497 4750 2381 4750 
Q 2619 4750 2861 4703 
Q 3103 4656 3366 4563 
z
" transform="scale(0.015625)"/>
       </defs>
       <use xlink:href="#DejaVuSans-36"/>
       <use xlink:href="#DejaVuSans-30" x="63.623047"/>
      </g>
     </g>
    </g>
    <g id="ytick_11">
     <g id="line2d_30">
      <g>
       <use xlink:href="#ma42390c02e" x="813.13" y="176.644523" style="stroke: #000000; stroke-width: 0.8"/>
      </g>
     </g>
     <g id="text_19">
      <!-- 70 -->
      <g style="fill: #1f77b4" transform="translate(820.13 180.443742) scale(0.1 -0.1)">
       <defs>
        <path id="DejaVuSans-37" d="M 525 4666 
L 3525 4666 
L 3525 4397 
L 1831 0 
L 1172 0 
L 2766 4134 
L 525 4134 
L 525 4666 
z
" transform="scale(0.015625)"/>
       </defs>
       <use xlink:href="#DejaVuSans-37"/>
       <use xlink:href="#DejaVuSans-30" x="63.623047"/>
      </g>
     </g>
    </g>
    <g id="ytick_12">
     <g id="line2d_31">
      <g>
       <use xlink:href="#ma42390c02e" x="813.13" y="133.425488" style="stroke: #000000; stroke-width: 0.8"/>
      </g>
     </g>
     <g id="text_20">
      <!-- 80 -->
      <g style="fill: #1f77b4" transform="translate(820.13 137.224707) scale(0.1 -0.1)">
       <defs>
        <path id="DejaVuSans-38" d="M 2034 2216 
Q 1584 2216 1326 1975 
Q 1069 1734 1069 1313 
Q 1069 891 1326 650 
Q 1584 409 2034 409 
Q 2484 409 2743 651 
Q 3003 894 3003 1313 
Q 3003 1734 2745 1975 
Q 2488 2216 2034 2216 
z
M 1403 2484 
Q 997 2584 770 2862 
Q 544 3141 544 3541 
Q 544 4100 942 4425 
Q 1341 4750 2034 4750 
Q 2731 4750 3128 4425 
Q 3525 4100 3525 3541 
Q 3525 3141 3298 2862 
Q 3072 2584 2669 2484 
Q 3125 2378 3379 2068 
Q 3634 1759 3634 1313 
Q 3634 634 3220 271 
Q 2806 -91 2034 -91 
Q 1263 -91 848 271 
Q 434 634 434 1313 
Q 434 1759 690 2068 
Q 947 2378 1403 2484 
z
M 1172 3481 
Q 1172 3119 1398 2916 
Q 1625 2713 2034 2713 
Q 2441 2713 2670 2916 
Q 2900 3119 2900 3481 
Q 2900 3844 2670 4047 
Q 2441 4250 2034 4250 
Q 1625 4250 1398 4047 
Q 1172 3844 1172 3481 
z
" transform="scale(0.015625)"/>
       </defs>
       <use xlink:href="#DejaVuSans-38"/>
       <use xlink:href="#DejaVuSans-30" x="63.623047"/>
      </g>
     </g>
    </g>
    <g id="ytick_13">
     <g id="line2d_32">
      <g>
       <use xlink:href="#ma42390c02e" x="813.13" y="90.206453" style="stroke: #000000; stroke-width: 0.8"/>
      </g>
     </g>
     <g id="text_21">
      <!-- 90 -->
      <g style="fill: #1f77b4" transform="translate(820.13 94.005672) scale(0.1 -0.1)">
       <use xlink:href="#DejaVuSans-39"/>
       <use xlink:href="#DejaVuSans-30" x="63.623047"/>
      </g>
     </g>
    </g>
    <g id="ytick_14">
     <g id="line2d_33">
      <g>
       <use xlink:href="#ma42390c02e" x="813.13" y="46.987418" style="stroke: #000000; stroke-width: 0.8"/>
      </g>
     </g>
     <g id="text_22">
      <!-- 100 -->
      <g style="fill: #1f77b4" transform="translate(820.13 50.786637) scale(0.1 -0.1)">
       <use xlink:href="#DejaVuSans-31"/>
       <use xlink:href="#DejaVuSans-30" x="63.623047"/>
       <use xlink:href="#DejaVuSans-30" x="127.246094"/>
      </g>
     </g>
    </g>
    <g id="text_23">
     <!-- Close Price -->
     <g style="fill: #1f77b4" transform="translate(850.815938 235.867812) rotate(-90) scale(0.1 -0.1)">
      <defs>
       <path id="DejaVuSans-43" d="M 4122 4306 
L 4122 3641 
Q 3803 3938 3442 4084 
Q 3081 4231 2675 4231 
Q 1875 4231 1450 3742 
Q 1025 3253 1025 2328 
Q 1025 1406 1450 917 
Q 1875 428 2675 428 
Q 3081 428 3442 575 
Q 3803 722 4122 1019 
L 4122 359 
Q 3791 134 3420 21 
Q 3050 -91 2638 -91 
Q 1578 -91 968 557 
Q 359 1206 359 2328 
Q 359 3453 968 4101 
Q 1578 4750 2638 4750 
Q 3056 4750 3426 4639 
Q 3797 4528 4122 4306 
z
" transform="scale(0.015625)"/>
       <path id="DejaVuSans-6c" d="M 603 4863 
L 1178 4863 
L 1178 0 
L 603 0 
L 603 4863 
z
" transform="scale(0.015625)"/>
       <path id="DejaVuSans-6f" d="M 1959 3097 
Q 1497 3097 1228 2736 
Q 959 2375 959 1747 
Q 959 1119 1226 758 
Q 1494 397 1959 397 
Q 2419 397 2687 759 
Q 2956 1122 2956 1747 
Q 2956 2369 2687 2733 
Q 2419 3097 1959 3097 
z
M 1959 3584 
Q 2709 3584 3137 3096 
Q 3566 2609 3566 1747 
Q 3566 888 3137 398 
Q 2709 -91 1959 -91 
Q 1206 -91 779 398 
Q 353 888 353 1747 
Q 353 2609 779 3096 
Q 1206 3584 1959 3584 
z
" transform="scale(0.015625)"/>
       <path id="DejaVuSans-50" d="M 1259 4147 
L 1259 2394 
L 2053 2394 
Q 2494 2394 2734 2622 
Q 2975 2850 2975 3272 
Q 2975 3691 2734 3919 
Q 2494 4147 2053 4147 
L 1259 4147 
z
M 628 4666 
L 2053 4666 
Q 2838 4666 3239 4311 
Q 3641 3956 3641 3272 
Q 3641 2581 3239 2228 
Q 2838 1875 2053 1875 
L 1259 1875 
L 1259 0 
L 628 0 
L 628 4666 
z
" transform="scale(0.015625)"/>
       <path id="DejaVuSans-69" d="M 603 3500 
L 1178 3500 
L 1178 0 
L 603 0 
L 603 3500 
z
M 603 4863 
L 1178 4863 
L 1178 4134 
L 603 4134 
L 603 4863 
z
" transform="scale(0.015625)"/>
       <path id="DejaVuSans-63" d="M 3122 3366 
L 3122 2828 
Q 2878 2963 2633 3030 
Q 2388 3097 2138 3097 
Q 1578 3097 1268 2742 
Q 959 2388 959 1747 
Q 959 1106 1268 751 
Q 1578 397 2138 397 
Q 2388 397 2633 464 
Q 2878 531 3122 666 
L 3122 134 
Q 2881 22 2623 -34 
Q 2366 -91 2075 -91 
Q 1284 -91 818 406 
Q 353 903 353 1747 
Q 353 2603 823 3093 
Q 1294 3584 2113 3584 
Q 2378 3584 2631 3529 
Q 2884 3475 3122 3366 
z
" transform="scale(0.015625)"/>
      </defs>
      <use xlink:href="#DejaVuSans-43"/>
      <use xlink:href="#DejaVuSans-6c" x="69.824219"/>
      <use xlink:href="#DejaVuSans-6f" x="97.607422"/>
      <use xlink:href="#DejaVuSans-73" x="158.789062"/>
      <use xlink:href="#DejaVuSans-65" x="210.888672"/>
      <use xlink:href="#DejaVuSans-20" x="272.412109"/>
      <use xlink:href="#DejaVuSans-50" x="304.199219"/>
      <use xlink:href="#DejaVuSans-72" x="362.751953"/>
      <use xlink:href="#DejaVuSans-69" x="403.865234"/>
      <use xlink:href="#DejaVuSans-63" x="431.648438"/>
      <use xlink:href="#DejaVuSans-65" x="486.628906"/>
     </g>
    </g>
   </g>
   <g id="line2d_34">
    <path d="M 87.494091 331.011247 
L 87.873389 333.651498 
L 88.252688 327.710178 
L 89.390583 326.206587 
L 89.769882 327.159999 
L 90.14918 326.096811 
L 90.528479 326.389836 
L 90.907777 326.096811 
L 92.045673 323.382656 
L 92.424971 321.915802 
L 92.80427 316.010785 
L 93.183568 323.199407 
L 93.562866 318.944925 
L 95.459359 324.592789 
L 95.838657 324.959718 
L 96.217956 321.548872 
L 97.355851 322.759005 
L 97.73515 323.345919 
L 98.114448 321.130079 
L 98.873045 324.712505 
L 100.010941 322.348856 
L 100.390239 322.385592 
L 100.769537 322.644042 
L 101.528134 328.443172 
L 102.66603 330.659445 
L 103.045328 327.187227 
L 103.424627 327.039418 
L 103.803925 328.775527 
L 104.183224 324.084533 
L 105.700418 323.456992 
L 106.079716 322.496665 
L 106.459015 324.195606 
L 106.838313 324.823578 
L 107.976208 323.345919 
L 108.734805 321.979334 
L 109.114104 324.121701 
L 109.493402 322.201047 
L 110.631298 324.047797 
L 111.010596 324.417319 
L 111.389895 325.451551 
L 111.769193 327.113323 
L 112.148492 326.411878 
L 113.665686 323.937156 
L 114.424283 321.49917 
L 114.803581 319.135521 
L 115.941476 316.549726 
L 116.320775 316.845344 
L 116.700073 320.243225 
L 117.079372 319.874134 
L 117.45867 325.082028 
L 118.596566 326.818137 
L 118.975864 324.490792 
L 119.355163 326.374709 
L 119.734461 324.306246 
L 120.11376 323.309183 
L 121.251655 318.396476 
L 121.630953 317.768503 
L 122.38955 313.22575 
L 122.768849 313.336391 
L 123.906744 313.040773 
L 124.286043 315.700472 
L 124.665341 314.998595 
L 125.04464 313.705914 
L 125.423938 306.725175 
L 126.561834 308.978183 
L 126.941132 305.505966 
L 127.320431 300.926045 
L 127.699729 303.548576 
L 129.216923 304.508903 
L 129.97552 304.176549 
L 130.354818 304.508903 
L 130.734117 302.292631 
L 131.872012 299.058983 
L 132.251311 299.839518 
L 132.630609 302.366968 
L 133.389206 300.545717 
L 134.527102 301.84661 
L 134.9064 305.563447 
L 135.285699 306.232478 
L 136.044295 306.938677 
L 137.182191 314.967045 
L 137.561489 315.598907 
L 137.940788 316.007759 
L 138.320086 314.595361 
L 138.699385 316.082096 
L 139.83728 316.119265 
L 140.216579 314.186509 
L 140.975176 320.430795 
L 141.354474 319.501586 
L 142.871668 322.437887 
L 143.250966 322.363551 
L 143.630265 323.701612 
L 144.009563 327.938806 
L 145.147459 327.790133 
L 145.526757 321.285668 
L 145.906056 321.47151 
L 146.285354 320.059112 
L 146.664653 320.467964 
L 147.802548 318.27503 
L 148.181847 316.862632 
L 148.561145 320.765311 
L 148.940444 319.538755 
L 149.319742 320.021943 
L 150.457637 321.174163 
L 150.836936 318.089188 
L 151.216234 318.832556 
L 151.595533 317.643168 
L 151.974831 317.197147 
L 153.112727 319.092734 
L 153.492025 320.616637 
L 153.871324 319.390081 
L 154.250622 317.531663 
L 154.629921 316.342275 
L 155.767816 315.821918 
L 156.147115 316.267938 
L 156.526413 315.673244 
L 157.28501 314.85554 
L 158.422905 317.531663 
L 158.802204 316.45378 
L 159.181502 318.200693 
L 159.940099 312.402428 
L 161.077995 314.037836 
L 161.457293 314.037836 
L 161.836592 316.490948 
L 162.21589 314.037836 
L 162.595189 314.186509 
L 163.733084 313.777657 
L 164.112382 311.547555 
L 164.491681 310.06082 
L 164.870979 312.402428 
L 165.250278 309.168779 
L 167.14677 312.263262 
L 167.526069 318.368815 
L 167.905367 321.402792 
L 169.043263 327.508777 
L 169.422561 324.774309 
L 169.80186 327.246437 
L 170.181158 324.586738 
L 170.560457 323.725383 
L 171.698352 327.995423 
L 172.07765 326.759359 
L 172.456949 331.854019 
L 172.836247 332.715374 
L 173.215546 329.569028 
L 174.353441 327.958255 
L 174.73274 329.718566 
L 175.112038 329.569028 
L 175.491337 328.332964 
L 175.870635 331.854019 
L 177.008531 328.744841 
L 177.387829 330.130876 
L 177.767128 327.920654 
L 178.146426 324.511969 
L 178.525724 323.762983 
L 180.042918 325.635664 
L 180.422217 323.613013 
L 180.801515 320.091958 
L 181.180814 321.178053 
L 182.318709 317.694598 
L 183.077306 314.585421 
L 183.456605 313.162218 
L 183.835903 310.01544 
L 184.973799 311.551445 
L 185.353097 313.574096 
L 185.732395 313.012248 
L 186.490992 315.596746 
L 187.628888 316.009056 
L 188.008186 319.829619 
L 188.387485 317.956938 
L 188.766783 319.530111 
L 189.146082 318.705924 
L 190.283977 319.342972 
L 191.042574 328.482502 
L 191.421873 328.407733 
L 191.801171 326.42225 
L 192.939066 326.796959 
L 193.318365 330.018506 
L 194.076962 325.410925 
L 194.45626 322.114609 
L 195.594156 320.916145 
L 196.352753 318.893062 
L 196.732051 316.458534 
L 197.11135 315.634347 
L 199.007842 307.206203 
L 199.387141 307.76805 
L 199.766439 305.48306 
L 200.904334 303.722749 
L 201.283633 303.759917 
L 202.04223 305.382792 
L 202.421528 300.5522 
L 203.559424 294.890939 
L 203.938722 295.19304 
L 204.318021 295.910044 
L 204.697319 295.532742 
L 205.076618 293.683399 
L 206.214513 293.909867 
L 206.593811 294.211536 
L 206.97311 296.551846 
L 207.352408 295.721177 
L 207.731707 294.287169 
L 208.869602 294.136335 
L 209.248901 293.003996 
L 210.007498 294.853338 
L 210.386796 293.306097 
L 211.524692 290.626517 
L 211.90399 292.701895 
L 212.283289 291.30592 
L 214.179781 293.947467 
L 214.559079 297.608552 
L 214.938378 294.853338 
L 215.317676 293.985068 
L 215.696975 291.230287 
L 216.83487 291.984891 
L 217.214169 291.720823 
L 217.593467 292.55106 
L 217.972766 287.871303 
L 218.352064 289.569811 
L 219.869258 287.078666 
L 220.248557 287.984537 
L 220.627855 287.229933 
L 221.007153 287.871303 
L 222.145049 287.758069 
L 222.524347 287.871303 
L 223.282944 286.286029 
L 223.662243 286.361662 
L 224.800138 286.852198 
L 225.179437 286.248428 
L 225.938034 282.776211 
L 226.317332 285.94676 
L 227.455228 286.625731 
L 227.834526 287.003465 
L 228.593123 282.70101 
L 228.972421 282.134841 
L 230.110317 279.983397 
L 230.868914 279.379627 
L 231.248212 266.170594 
L 231.627511 262.132207 
L 233.144705 268.13317 
L 233.524003 268.359638 
L 233.903302 269.604778 
L 234.2826 273.303463 
L 235.420495 278.738257 
L 235.799794 275.30364 
L 236.179092 276.586813 
L 236.558391 274.725369 
L 236.937689 280.651563 
L 238.075585 279.360179 
L 238.454883 273.965579 
L 238.834182 270.280724 
L 239.592779 270.129025 
L 240.730674 268.913274 
L 241.489271 265.760445 
L 241.86857 266.709967 
L 242.247868 267.05183 
L 243.765062 268.267581 
L 244.14436 265.266451 
L 244.523659 274.991599 
L 244.902957 280.043904 
L 246.040853 290.452776 
L 246.420151 296.720833 
L 246.79945 299.72153 
L 247.178748 306.673744 
L 247.558047 308.11726 
L 248.695942 302.608994 
L 249.07524 310.510298 
L 249.454539 307.319437 
L 249.833837 317.386014 
L 250.213136 320.235445 
L 251.351031 336.722211 
L 251.73033 329.124737 
L 252.109628 339.115249 
L 252.488927 360.236823 
L 252.868225 336.722211 
L 254.006121 358.945439 
L 254.385419 350.815938 
L 254.764718 362.364064 
L 255.144016 361.718372 
L 255.523315 366.466847 
L 256.66121 373.532727 
L 257.040508 352.981212 
L 257.419807 350.056147 
L 257.799105 343.521862 
L 258.178404 349.980082 
L 259.316299 346.827253 
L 259.695598 350.018115 
L 260.074896 359.059105 
L 260.454195 350.39801 
L 260.833493 350.587742 
L 261.971389 338.583655 
L 262.350687 338.849452 
L 262.729986 329.618298 
L 263.109284 323.122477 
L 264.626478 328.820475 
L 265.005776 327.756854 
L 265.385075 333.303153 
L 265.764373 333.455284 
L 266.143672 330.681918 
L 267.281567 333.455284 
L 267.660866 338.811419 
L 268.040164 335.544492 
L 268.419463 336.836309 
L 268.798761 334.936832 
L 269.936657 329.846494 
L 270.695253 322.86057 
L 271.45385 332.01998 
L 272.971044 333.629457 
L 273.350343 336.235132 
L 274.10894 325.58164 
L 275.246835 326.539806 
L 276.005432 337.423224 
L 276.384731 334.280767 
L 276.764029 336.273597 
L 277.901924 324.815367 
L 278.281223 328.455706 
L 278.660521 321.825906 
L 279.03982 324.738437 
L 279.419118 325.39018 
L 280.936312 311.747227 
L 281.315611 299.599221 
L 281.694909 309.026157 
L 282.074208 309.792862 
L 283.212103 307.87653 
L 283.591402 304.504149 
L 283.9707 299.407328 
L 284.349999 292.586068 
L 284.729297 289.367114 
L 286.246491 286.032766 
L 286.625789 292.586068 
L 287.005088 308.374846 
L 287.384386 301.821543 
L 288.522282 297.529461 
L 288.90158 293.084383 
L 289.280879 296.149909 
L 289.660177 296.839685 
L 290.039476 299.33083 
L 291.177371 297.606391 
L 291.556669 295.652026 
L 291.935968 299.254333 
L 292.315266 292.202715 
L 292.694565 298.87098 
L 293.83246 298.142739 
L 294.211759 294.080582 
L 294.591057 296.724723 
L 294.970356 296.034947 
L 296.48755 292.087752 
L 296.866848 297.184573 
L 297.246147 291.742864 
L 297.625445 297.108075 
L 298.004744 288.33245 
L 299.142639 286.722541 
L 299.521937 285.649845 
L 299.901236 282.392426 
L 300.280534 277.448601 
L 300.659833 278.330269 
L 301.797728 280.437629 
L 302.177027 278.445232 
L 302.556325 283.733513 
L 303.314922 286.875969 
L 304.452818 282.507389 
L 304.832116 286.569546 
L 305.211415 285.304957 
L 305.590713 290.282925 
L 305.970011 290.553044 
L 307.107907 288.314731 
L 307.487205 289.086623 
L 307.866504 287.118428 
L 308.245802 288.353196 
L 308.625101 284.880114 
L 309.762996 283.992827 
L 310.142295 279.361907 
L 310.521593 277.046664 
L 310.900892 277.818556 
L 311.28019 277.355248 
L 312.797384 282.680697 
L 313.176682 280.944156 
L 313.555981 283.143573 
L 313.935279 281.986167 
L 315.073175 277.085129 
L 315.831772 279.632026 
L 316.21107 276.158945 
L 316.590369 275.078469 
L 317.728264 277.509972 
L 318.107563 276.274772 
L 318.486861 273.689409 
L 318.86616 275.618707 
L 319.245458 275.772999 
L 320.762652 285.575076 
L 321.14195 282.140459 
L 321.521249 285.111768 
L 321.900547 284.880114 
L 323.038443 281.792978 
L 323.417741 284.725822 
L 323.79704 281.792978 
L 324.176338 285.26606 
L 324.555637 285.922125 
L 326.072831 295.376721 
L 326.452129 300.046105 
L 326.831428 299.312678 
L 328.348621 292.482342 
L 328.72792 296.881608 
L 329.107218 292.598169 
L 329.486517 296.804246 
L 329.865815 294.064591 
L 331.003711 291.63352 
L 331.383009 294.95231 
L 331.762308 291.209109 
L 332.141606 290.089736 
L 332.520905 290.745801 
L 333.6588 283.375227 
L 334.038098 284.533065 
L 334.417397 283.722708 
L 335.175994 279.091788 
L 336.313889 282.56487 
L 336.693188 280.55821 
L 337.072486 284.764719 
L 337.451785 279.400805 
L 337.831083 279.014859 
L 338.968979 284.995941 
L 339.348277 291.671985 
L 339.727576 295.607943 
L 340.106874 292.109362 
L 340.486173 291.99267 
L 341.624068 287.210916 
L 342.003366 280.213322 
L 342.382665 279.241759 
L 342.761963 276.248408 
L 343.141262 278.191968 
L 344.279157 261.397916 
L 344.658456 262.447274 
L 345.037754 260.15364 
L 345.417053 263.224784 
L 345.796351 259.104281 
L 346.934247 253.272737 
L 347.313545 250.551667 
L 347.692844 250.551667 
L 348.072142 251.251383 
L 348.45144 254.439219 
L 349.589336 244.875711 
L 349.968634 231.930313 
L 350.347933 232.396646 
L 351.10653 230.997214 
L 352.244425 238.811216 
L 352.623724 233.174157 
L 353.003022 230.297498 
L 353.382321 230.141909 
L 353.761619 226.48774 
L 354.899515 229.364399 
L 355.278813 230.724934 
L 355.658111 228.936963 
L 356.03741 228.664683 
L 356.416708 233.018568 
L 357.554604 238.61673 
L 357.933902 230.569778 
L 358.313201 229.48109 
L 358.692499 227.770481 
L 359.071798 229.675576 
L 360.209693 215.485902 
L 360.588992 220.112068 
L 360.96829 214.008676 
L 361.347589 214.475009 
L 362.864782 214.630598 
L 363.244081 215.952668 
L 363.623379 215.447005 
L 364.002678 212.764832 
L 365.519872 213.542342 
L 365.89917 209.032436 
L 366.278469 192.744046 
L 366.657767 187.845601 
L 367.037066 186.640222 
L 368.174961 183.491283 
L 368.933558 185.435275 
L 369.312857 181.897797 
L 369.692155 186.679119 
L 371.209349 187.651115 
L 371.967946 188.7787 
L 373.48514 197.797648 
L 373.864438 202.346019 
L 374.243737 213.192268 
L 374.623035 208.308085 
L 375.002334 217.177928 
L 376.140229 214.755501 
L 376.519527 201.938464 
L 376.898826 203.306346 
L 377.278124 196.702478 
L 377.657423 193.068621 
L 378.795318 189.121859 
L 379.174617 189.082962 
L 379.553915 188.731159 
L 379.933214 191.114689 
L 380.312512 187.636853 
L 381.829706 182.010167 
L 382.588303 186.777658 
L 382.967602 182.205517 
L 384.105497 176.735283 
L 384.484795 176.344151 
L 384.864094 167.044279 
L 385.622691 178.805907 
L 386.760586 169.857838 
L 387.519183 158.52624 
L 387.898482 162.238323 
L 388.27778 163.175743 
L 389.415676 162.27722 
L 389.794974 163.25397 
L 390.174273 154.501251 
L 390.553571 153.875871 
L 390.932869 149.617068 
L 392.070765 151.492342 
L 392.450063 156.650533 
L 392.829362 151.492342 
L 393.20866 151.179868 
L 393.587959 155.087301 
L 394.725854 159.07296 
L 395.105153 170.014291 
L 395.484451 169.193562 
L 395.86375 166.067529 
L 396.243048 166.653579 
L 397.380944 174.859577 
L 397.760242 170.131415 
L 398.13954 175.719204 
L 398.518839 173.531024 
L 400.036033 174.390651 
L 400.415331 170.131415 
L 400.79463 170.326765 
L 401.173928 165.793953 
L 401.553227 163.762226 
L 402.691122 165.872179 
L 403.070421 168.412162 
L 403.449719 163.488649 
L 403.829018 163.371526 
L 404.208316 172.085347 
L 405.346211 166.458229 
L 405.72551 177.164881 
L 406.104808 169.506035 
L 406.484107 173.257448 
L 406.863405 162.86327 
L 408.001301 160.636193 
L 408.380599 158.91694 
L 408.759898 155.90803 
L 409.139196 150.963773 
L 409.518495 155.240729 
L 410.65639 155.593828 
L 411.035689 154.887629 
L 411.794286 138.445379 
L 412.173584 135.031508 
L 413.311479 139.85821 
L 414.070076 150.806456 
L 414.449375 146.175968 
L 414.828673 136.405009 
L 415.966569 133.501122 
L 416.725166 141.506584 
L 417.104464 139.85821 
L 417.483763 132.52005 
L 418.621658 127.222693 
L 419.000956 130.479679 
L 419.380255 128.556864 
L 419.759553 124.82879 
L 420.138852 122.278003 
L 421.656046 117.726174 
L 422.793941 110.466673 
L 423.931837 113.409457 
L 424.311135 115.057831 
L 424.690434 115.528486 
L 425.069732 119.413445 
L 425.449031 117.961718 
L 426.586926 123.180848 
L 426.966224 123.259075 
L 427.345523 121.689359 
L 428.10412 149.197843 
L 429.242015 141.93791 
L 429.621314 142.880085 
L 430.000612 142.212783 
L 430.759209 132.284506 
L 431.897105 135.031508 
L 432.276403 123.494619 
L 432.655702 119.374116 
L 433.035 118.079273 
L 433.414298 118.039944 
L 434.931492 125.18189 
L 435.310791 125.888521 
L 435.690089 135.267052 
L 436.069388 124.711234 
L 437.207283 115.214716 
L 437.586582 113.409457 
L 437.96588 116.352673 
L 438.345179 115.685803 
L 438.724477 121.101148 
L 439.862373 128.556864 
L 440.620969 103.717156 
L 441.000268 104.148914 
L 441.379566 108.151429 
L 442.517462 100.342181 
L 442.89676 100.577725 
L 443.276059 102.18677 
L 443.655357 98.58965 
L 444.034656 99.775148 
L 445.172551 98.787161 
L 445.55185 97.324628 
L 445.931148 98.549888 
L 446.689745 84.951883 
L 447.82764 80.959309 
L 448.206939 75.820565 
L 448.586237 68.547234 
L 448.965536 65.424227 
L 449.344834 68.309961 
L 450.48273 69.179528 
L 450.862028 72.539808 
L 451.620625 84.951883 
L 451.999924 81.275672 
L 453.137819 75.34602 
L 453.896416 67.716996 
L 454.275714 68.705416 
L 454.655013 62.340981 
L 455.792908 67.716996 
L 456.172207 66.372884 
L 456.551505 66.847429 
L 456.930804 64.791932 
L 457.310102 67.084702 
L 458.827296 67.361304 
L 459.206595 69.772494 
L 459.585893 68.705416 
L 459.965192 69.574983 
L 461.103087 66.491737 
L 461.482385 76.33444 
L 461.861684 71.867752 
L 462.620281 76.966734 
L 463.758176 89.30015 
L 464.137475 90.604501 
L 464.896072 69.851584 
L 465.27537 72.381627 
L 466.413266 63.724422 
L 467.171863 85.663268 
L 467.551161 94.517984 
L 467.93046 87.639675 
L 469.068355 95.150279 
L 469.447653 87.047142 
L 469.826952 87.442164 
L 470.20625 88.628094 
L 470.585549 83.726191 
L 471.723444 94.597075 
L 472.102743 92.659998 
L 472.482041 89.537423 
L 472.86134 79.892231 
L 473.240638 75.425111 
L 474.378534 78.310846 
L 474.757832 76.966734 
L 475.137131 81.275672 
L 475.516429 82.777966 
L 475.895727 76.769223 
L 477.033623 76.33444 
L 477.412921 70.167948 
L 477.79222 76.492621 
L 478.171518 71.198722 
L 478.550817 70.084103 
L 479.688712 65.228444 
L 480.068011 62.601159 
L 480.447309 70.760913 
L 480.826608 81.985329 
L 481.205906 81.666804 
L 482.343802 80.87071 
L 482.7231 82.303853 
L 483.102398 90.025366 
L 483.860995 81.746327 
L 484.998891 80.313616 
L 485.378189 78.402903 
L 485.757488 90.383651 
L 486.136786 90.383651 
L 486.516085 93.448745 
L 487.65398 83.856281 
L 488.033279 73.746052 
L 488.412577 76.691429 
L 489.171174 89.388749 
L 490.309069 92.17508 
L 490.688368 101.767545 
L 491.067666 100.015878 
L 491.446965 85.687039 
L 491.826263 88.27413 
L 492.964159 84.055088 
L 493.343457 71.198722 
L 493.722756 76.174097 
L 494.102054 78.841144 
L 494.481353 87.398513 
L 495.619248 92.41365 
L 495.998547 85.846085 
L 496.377845 83.418472 
L 496.757143 79.95533 
L 497.136442 92.572696 
L 498.274337 99.578069 
L 498.653636 90.025366 
L 499.032934 87.915845 
L 499.412233 83.776325 
L 500.929427 79.557283 
L 501.308725 81.268757 
L 501.688024 86.204371 
L 502.067322 85.92604 
L 502.446621 88.47337 
L 503.584516 80.393139 
L 503.963814 64.193348 
L 504.343113 74.462623 
L 504.722411 67.536773 
L 505.10171 65.029205 
L 506.239605 64.711112 
L 506.618904 57.586022 
L 506.998202 69.009678 
L 507.377501 70.999914 
L 507.756799 85.607516 
L 509.273993 104.991253 
L 509.653292 98.145358 
L 510.03259 81.826282 
L 510.411889 85.687039 
L 511.549784 88.791462 
L 512.687679 76.572144 
L 513.066978 71.161121 
L 514.204873 68.195431 
L 514.584172 62.54411 
L 514.96347 62.664259 
L 515.342769 69.197248 
L 515.722067 61.90274 
L 516.859963 57.614115 
L 517.239261 52.924849 
L 517.61856 43.387273 
L 517.997858 48.035048 
L 518.377156 60.059015 
L 519.515052 68.075282 
L 519.89435 64.628132 
L 520.273649 73.766797 
L 520.652947 93.806599 
L 521.032246 96.732528 
L 522.54944 99.417726 
L 522.928738 104.227573 
L 523.308037 111.201396 
L 523.687335 100.219439 
L 524.825231 115.490021 
L 525.204529 127.954823 
L 525.583827 124.948939 
L 525.963126 127.353646 
L 526.342424 133.045161 
L 527.48032 144.708682 
L 527.859618 145.269665 
L 528.238917 128.876685 
L 528.618215 135.049228 
L 528.997514 137.77462 
L 530.135409 139.618344 
L 530.514708 133.16531 
L 530.894006 111.401933 
L 531.273305 102.985025 
L 531.652603 99.137235 
L 532.790498 107.994976 
L 533.169797 101.541942 
L 533.549095 108.916838 
L 533.928394 109.919087 
L 534.307692 108.916838 
L 535.445588 113.365805 
L 535.824886 111.081247 
L 536.204185 117.373939 
L 536.583483 128.876685 
L 536.962782 130.520305 
L 538.100677 129.357713 
L 538.859274 145.990991 
L 539.238572 145.990991 
L 539.617871 142.263781 
L 540.755766 142.424124 
L 541.135065 142.78457 
L 541.514363 141.98329 
L 541.893662 139.458001 
L 543.410856 132.564133 
L 543.790154 122.824724 
L 544.169453 116.011243 
L 544.548751 122.824724 
L 544.92805 139.538389 
L 546.065945 138.295841 
L 546.445243 149.037068 
L 546.824542 149.678439 
L 547.20384 142.038178 
L 547.583139 153.397437 
L 548.721034 147.85935 
L 549.100333 140.623187 
L 549.479631 126.596017 
L 549.85893 135.812908 
L 550.238228 138.683084 
L 552.134721 160.269695 
L 552.514019 161.482422 
L 552.893318 153.599702 
L 554.031213 156.186793 
L 554.410511 143.938086 
L 554.78981 152.993339 
L 555.548407 158.329161 
L 556.686302 146.444358 
L 557.065601 147.85935 
L 557.444899 146.768069 
L 557.824198 135.570449 
L 558.203496 129.708651 
L 559.72069 130.962003 
L 560.099989 135.570449 
L 560.479287 134.761821 
L 560.858585 139.127808 
L 561.996481 136.095993 
L 562.375779 134.236278 
L 563.134376 151.09343 
L 563.513675 166.2927 
L 564.65157 175.267133 
L 565.030869 176.156581 
L 565.410167 171.871413 
L 565.789466 180.239483 
L 566.168764 184.484024 
L 567.685958 177.49032 
L 568.065256 178.419961 
L 568.444555 180.158231 
L 568.823853 164.595056 
L 569.961749 166.131061 
L 570.341047 163.220691 
L 570.720346 163.099246 
L 571.099644 171.709774 
L 571.478943 168.920418 
L 572.996137 171.507509 
L 573.375435 174.17542 
L 573.754734 167.95015 
L 574.134032 169.001237 
L 575.271927 172.680041 
L 575.651226 172.194692 
L 576.030524 176.075329 
L 576.409823 177.247861 
L 576.789121 163.665415 
L 577.927017 160.390709 
L 578.306315 149.112702 
L 578.685614 148.465713 
L 579.064912 143.574182 
L 579.444211 145.959441 
L 580.582106 145.474091 
L 580.961405 152.589241 
L 581.720001 140.678075 
L 582.0993 135.168944 
L 583.237195 136.025978 
L 583.616494 138.310968 
L 583.995792 132.108172 
L 584.375091 130.843151 
L 584.754389 127.701127 
L 585.892285 128.109115 
L 586.271583 126.76241 
L 586.650882 116.438247 
L 587.409479 105.134308 
L 588.547374 103.665293 
L 588.926672 104.481268 
L 589.305971 106.399329 
L 589.685269 104.84863 
L 590.064568 111.867402 
L 591.202463 118.19294 
L 591.581762 118.845547 
L 591.96106 117.621584 
L 592.340359 112.275821 
L 592.719657 124.926033 
L 593.857553 130.883777 
L 594.236851 134.638215 
L 594.995448 127.537759 
L 595.374747 126.599042 
L 596.89194 131.781869 
L 597.650537 118.274623 
L 598.029836 114.112198 
L 599.167731 111.296478 
L 599.54703 123.94669 
L 599.926328 123.416392 
L 600.305627 119.008915 
L 600.684925 122.395991 
L 601.822821 117.131912 
L 602.202119 123.375334 
L 602.581418 126.76241 
L 602.960716 133.250884 
L 603.340014 146.554135 
L 604.47791 153.695648 
L 604.857208 154.838359 
L 605.236507 146.717503 
L 605.615805 153.287228 
L 605.995104 156.755988 
L 607.132999 151.165606 
L 607.512298 136.515649 
L 607.891596 140.025035 
L 608.270895 147.370542 
L 608.650193 157.082724 
L 609.788089 159.204346 
L 610.167387 164.958529 
L 610.546685 166.590912 
L 610.925984 155.490967 
L 611.305282 171.895616 
L 612.443178 164.387173 
L 612.822476 155.001295 
L 613.201775 162.346802 
L 613.581073 166.590912 
L 613.960372 155.898954 
L 615.098267 155.042353 
L 615.477566 150.634876 
L 615.856864 149.002493 
L 616.236163 149.900585 
L 616.615461 140.403202 
L 617.753356 140.608924 
L 618.132655 134.222447 
L 618.511953 131.544164 
L 618.891252 134.634757 
L 619.27055 129.566461 
L 620.408446 126.599906 
L 620.787744 127.794913 
L 621.167043 135.334905 
L 621.546341 113.291037 
L 621.92564 105.133012 
L 623.063535 109.129476 
L 623.442834 106.286528 
L 624.20143 112.673004 
L 624.580729 111.643095 
L 625.718624 112.137521 
L 626.097923 109.70645 
L 626.477221 108.63505 
L 627.235818 104.597095 
L 628.373714 108.800147 
L 628.753012 103.896947 
L 629.132311 95.697432 
L 629.511609 95.985703 
L 629.890908 99.693896 
L 631.028803 109.129476 
L 631.408101 118.606546 
L 631.7874 119.554339 
L 632.166698 113.744404 
L 632.545997 110.530637 
L 633.683892 103.73185 
L 634.063191 97.180709 
L 634.821788 117.452597 
L 635.201086 121.284829 
L 636.71828 128.289338 
L 637.097579 121.243339 
L 637.476877 123.30359 
L 639.373369 128.701216 
L 639.752668 131.173345 
L 640.131966 127.959577 
L 640.511265 128.86588 
L 642.028459 125.981874 
L 642.407757 122.150074 
L 642.787056 125.157687 
L 643.166354 118.400391 
L 644.30425 118.07063 
L 644.683548 112.796611 
L 645.062847 110.695301 
L 645.821443 101.506934 
L 647.338637 79.174795 
L 647.717936 81.235046 
L 648.097234 91.247168 
L 648.476533 82.635775 
L 649.614428 78.96864 
L 649.993727 85.64382 
L 650.373025 85.107904 
L 650.752324 81.564375 
L 651.131622 80.081098 
L 652.269518 80.600591 
L 652.648816 74.90994 
L 653.407413 67.101125 
L 653.786711 66.187475 
L 654.924607 68.389052 
L 655.303905 67.059635 
L 655.683204 68.139678 
L 656.062502 71.919183 
L 656.441801 70.299334 
L 657.579696 66.187475 
L 657.958995 61.493887 
L 658.338293 60.372353 
L 658.717592 65.605746 
L 659.09689 65.85512 
L 660.993382 75.159314 
L 661.372681 72.37644 
L 661.751979 73.373071 
L 662.889875 77.526853 
L 663.269173 78.357523 
L 663.648472 79.645018 
L 664.02777 80.101843 
L 664.407069 70.756591 
L 665.544964 70.548707 
L 665.924263 80.185256 
L 666.303561 80.849532 
L 666.682859 96.217789 
L 667.062158 105.148138 
L 668.200053 113.704211 
L 668.579352 105.480493 
L 668.95865 124.503783 
L 669.337949 117.775011 
L 669.717247 129.529725 
L 670.855143 123.46523 
L 671.234441 110.506002 
L 671.61374 115.531944 
L 672.372337 130.484865 
L 673.88953 126.621948 
L 674.268829 120.97322 
L 674.648127 121.513026 
L 675.027426 114.49339 
L 676.165321 117.151793 
L 676.54462 126.871322 
L 676.923918 131.024671 
L 677.303217 129.487802 
L 678.820411 130.276982 
L 679.199709 125.749788 
L 679.579008 124.171429 
L 679.958306 123.257778 
L 680.337605 119.021016 
L 681.4755 108.304856 
L 682.234097 103.486366 
L 682.613395 103.569779 
L 682.992694 100.703493 
L 684.130589 104.52492 
L 684.509888 113.413779 
L 684.889186 111.835419 
L 685.268485 104.275546 
L 685.647783 102.243819 
L 686.785679 110.790383 
L 687.923574 133.078872 
L 688.302872 123.568523 
L 689.440768 125.453737 
L 689.820066 125.705272 
L 690.199365 128.428504 
L 690.578663 132.995027 
L 690.957962 134.000734 
L 692.095857 131.654372 
L 692.475156 136.220896 
L 692.854454 127.632409 
L 693.233753 125.202635 
L 693.613051 134.629139 
L 694.750947 134.503371 
L 695.130245 132.953104 
L 695.509543 138.902205 
L 695.888842 131.445192 
L 696.26814 127.674331 
L 697.785334 129.685313 
L 698.164633 136.64012 
L 698.543931 135.341388 
L 698.92323 125.789117 
L 700.061125 128.344659 
L 700.440424 119.462715 
L 700.819722 116.781406 
L 701.199021 117.5775 
L 701.578319 117.996725 
L 702.716214 112.843287 
L 703.095513 109.324394 
L 703.474811 110.581203 
L 703.85411 106.098093 
L 704.233408 110.120056 
L 706.129901 117.451733 
L 706.509199 125.160712 
L 706.888498 129.014986 
L 708.026393 128.973063 
L 708.405692 125.453737 
L 708.78499 127.297461 
L 709.164288 122.060611 
L 709.543587 121.390284 
L 710.681482 117.158708 
L 711.440079 119.211612 
L 711.819378 130.062615 
L 712.198676 129.936848 
L 713.336572 129.769158 
L 713.71587 123.233576 
L 714.095169 119.840017 
L 714.474467 117.996725 
L 714.853766 119.798094 
L 715.991661 117.326398 
L 716.370959 93.99028 
L 716.750258 88.879197 
L 717.129556 86.197888 
L 718.64675 82.552794 
L 719.026049 83.600424 
L 719.784646 90.596721 
L 720.163944 91.992264 
L 721.30184 92.034619 
L 721.681138 94.655853 
L 722.060437 101.50607 
L 722.439735 102.267157 
L 722.819034 103.746977 
L 723.956929 102.520853 
L 724.336227 105.100165 
L 724.715526 108.947524 
L 725.474123 108.355855 
L 726.612018 109.920384 
L 726.991317 114.867235 
L 727.749914 116.431764 
L 728.129212 120.2372 
L 729.267108 122.943576 
L 729.646406 128.313541 
L 730.025705 126.579593 
L 730.405003 126.368252 
L 730.784301 127.298758 
L 731.922197 122.39383 
L 732.301495 117.446547 
L 732.680794 118.672671 
L 733.060092 119.13814 
L 733.439391 116.60075 
L 734.956585 120.448541 
L 735.335883 123.323903 
L 735.715182 124.677091 
L 736.09448 120.110568 
L 737.232376 126.072202 
L 738.370271 102.562775 
L 738.749569 105.353861 
L 739.887465 104.085382 
L 740.266763 104.930746 
L 740.646062 110.723826 
L 741.02536 120.279555 
L 741.404659 127.002708 
L 742.542554 128.101768 
L 742.921853 131.738217 
L 743.301151 133.93677 
L 743.68045 131.653508 
L 744.059748 133.852492 
L 745.197643 139.180103 
L 745.576942 149.285578 
L 745.95624 144.761409 
L 746.335539 144.507713 
L 746.714837 139.518508 
L 747.852733 141.294378 
L 748.232031 140.363872 
L 748.990628 150.173729 
L 749.369927 150.258438 
L 750.507822 146.283584 
L 750.887121 139.518508 
L 751.266419 162.562465 
L 751.645717 170.850147 
L 752.025016 169.961996 
L 753.162911 176.008771 
L 753.921508 177.27725 
L 754.300807 174.444242 
L 754.680105 181.505368 
L 755.818001 177.05424 
L 756.197299 176.06971 
L 756.576598 175.513481 
L 757.335195 152.786752 
L 758.47309 154.241937 
L 758.852388 155.996629 
L 759.231687 154.028002 
L 759.610985 161.646222 
L 759.990284 156.767225 
L 761.128179 158.008476 
L 761.507478 144.012855 
L 761.886776 138.149329 
L 762.266075 138.234903 
L 762.645373 135.581254 
L 763.783269 138.063755 
L 764.162567 143.327834 
L 764.541866 143.24226 
L 765.300463 142.557671 
L 766.438358 145.553614 
L 766.817656 150.133103 
L 767.196955 142.985539 
L 767.576253 139.604514 
L 767.955552 132.970392 
L 769.093447 131.600781 
L 769.852044 139.305006 
L 770.231343 135.281746 
L 770.610641 127.021292 
L 771.748537 124.709938 
L 772.127835 121.3717 
L 772.507134 112.683377 
L 772.886432 89.528779 
L 773.26573 87.217425 
L 774.403626 90.727243 
L 774.782924 85.76224 
L 775.162223 89.100478 
L 775.541521 82.72351 
L 775.92082 83.665252 
L 777.438014 81.824554 
L 777.817312 78.315168 
L 778.196611 78.400742 
L 778.575909 80.069861 
L 778.575909 80.069861 
" clip-path="url(#pbf843936ba)" style="fill: none; stroke: #1f77b4; stroke-width: 1.5; stroke-linecap: square"/>
   </g>
   <g id="patch_7">
    <path d="M 52.94 390.04 
L 52.94 26.88 
" style="fill: none; stroke: #000000; stroke-width: 0.8; stroke-linejoin: miter; stroke-linecap: square"/>
   </g>
   <g id="patch_8">
    <path d="M 813.13 390.04 
L 813.13 26.88 
" style="fill: none; stroke: #000000; stroke-width: 0.8; stroke-linejoin: miter; stroke-linecap: square"/>
   </g>
   <g id="patch_9">
    <path d="M 52.94 390.04 
L 813.13 390.04 
" style="fill: none; stroke: #000000; stroke-width: 0.8; stroke-linejoin: miter; stroke-linecap: square"/>
   </g>
   <g id="patch_10">
    <path d="M 52.94 26.88 
L 813.13 26.88 
" style="fill: none; stroke: #000000; stroke-width: 0.8; stroke-linejoin: miter; stroke-linecap: square"/>
   </g>
   <g id="text_24">
    <!-- Stock Trading Performance for MS -->
    <g transform="translate(331.536562 20.88) scale(0.12 -0.12)">
     <defs>
      <path id="DejaVuSans-53" d="M 3425 4513 
L 3425 3897 
Q 3066 4069 2747 4153 
Q 2428 4238 2131 4238 
Q 1616 4238 1336 4038 
Q 1056 3838 1056 3469 
Q 1056 3159 1242 3001 
Q 1428 2844 1947 2747 
L 2328 2669 
Q 3034 2534 3370 2195 
Q 3706 1856 3706 1288 
Q 3706 609 3251 259 
Q 2797 -91 1919 -91 
Q 1588 -91 1214 -16 
Q 841 59 441 206 
L 441 856 
Q 825 641 1194 531 
Q 1563 422 1919 422 
Q 2459 422 2753 634 
Q 3047 847 3047 1241 
Q 3047 1584 2836 1778 
Q 2625 1972 2144 2069 
L 1759 2144 
Q 1053 2284 737 2584 
Q 422 2884 422 3419 
Q 422 4038 858 4394 
Q 1294 4750 2059 4750 
Q 2388 4750 2728 4690 
Q 3069 4631 3425 4513 
z
" transform="scale(0.015625)"/>
      <path id="DejaVuSans-6b" d="M 581 4863 
L 1159 4863 
L 1159 1991 
L 2875 3500 
L 3609 3500 
L 1753 1863 
L 3688 0 
L 2938 0 
L 1159 1709 
L 1159 0 
L 581 0 
L 581 4863 
z
" transform="scale(0.015625)"/>
      <path id="DejaVuSans-54" d="M -19 4666 
L 3928 4666 
L 3928 4134 
L 2272 4134 
L 2272 0 
L 1638 0 
L 1638 4134 
L -19 4134 
L -19 4666 
z
" transform="scale(0.015625)"/>
      <path id="DejaVuSans-64" d="M 2906 2969 
L 2906 4863 
L 3481 4863 
L 3481 0 
L 2906 0 
L 2906 525 
Q 2725 213 2448 61 
Q 2172 -91 1784 -91 
Q 1150 -91 751 415 
Q 353 922 353 1747 
Q 353 2572 751 3078 
Q 1150 3584 1784 3584 
Q 2172 3584 2448 3432 
Q 2725 3281 2906 2969 
z
M 947 1747 
Q 947 1113 1208 752 
Q 1469 391 1925 391 
Q 2381 391 2643 752 
Q 2906 1113 2906 1747 
Q 2906 2381 2643 2742 
Q 2381 3103 1925 3103 
Q 1469 3103 1208 2742 
Q 947 2381 947 1747 
z
" transform="scale(0.015625)"/>
      <path id="DejaVuSans-67" d="M 2906 1791 
Q 2906 2416 2648 2759 
Q 2391 3103 1925 3103 
Q 1463 3103 1205 2759 
Q 947 2416 947 1791 
Q 947 1169 1205 825 
Q 1463 481 1925 481 
Q 2391 481 2648 825 
Q 2906 1169 2906 1791 
z
M 3481 434 
Q 3481 -459 3084 -895 
Q 2688 -1331 1869 -1331 
Q 1566 -1331 1297 -1286 
Q 1028 -1241 775 -1147 
L 775 -588 
Q 1028 -725 1275 -790 
Q 1522 -856 1778 -856 
Q 2344 -856 2625 -561 
Q 2906 -266 2906 331 
L 2906 616 
Q 2728 306 2450 153 
Q 2172 0 1784 0 
Q 1141 0 747 490 
Q 353 981 353 1791 
Q 353 2603 747 3093 
Q 1141 3584 1784 3584 
Q 2172 3584 2450 3431 
Q 2728 3278 2906 2969 
L 2906 3500 
L 3481 3500 
L 3481 434 
z
" transform="scale(0.015625)"/>
      <path id="DejaVuSans-66" d="M 2375 4863 
L 2375 4384 
L 1825 4384 
Q 1516 4384 1395 4259 
Q 1275 4134 1275 3809 
L 1275 3500 
L 2222 3500 
L 2222 3053 
L 1275 3053 
L 1275 0 
L 697 0 
L 697 3053 
L 147 3053 
L 147 3500 
L 697 3500 
L 697 3744 
Q 697 4328 969 4595 
Q 1241 4863 1831 4863 
L 2375 4863 
z
" transform="scale(0.015625)"/>
      <path id="DejaVuSans-6d" d="M 3328 2828 
Q 3544 3216 3844 3400 
Q 4144 3584 4550 3584 
Q 5097 3584 5394 3201 
Q 5691 2819 5691 2113 
L 5691 0 
L 5113 0 
L 5113 2094 
Q 5113 2597 4934 2840 
Q 4756 3084 4391 3084 
Q 3944 3084 3684 2787 
Q 3425 2491 3425 1978 
L 3425 0 
L 2847 0 
L 2847 2094 
Q 2847 2600 2669 2842 
Q 2491 3084 2119 3084 
Q 1678 3084 1418 2786 
Q 1159 2488 1159 1978 
L 1159 0 
L 581 0 
L 581 3500 
L 1159 3500 
L 1159 2956 
Q 1356 3278 1631 3431 
Q 1906 3584 2284 3584 
Q 2666 3584 2933 3390 
Q 3200 3197 3328 2828 
z
" transform="scale(0.015625)"/>
      <path id="DejaVuSans-4d" d="M 628 4666 
L 1569 4666 
L 2759 1491 
L 3956 4666 
L 4897 4666 
L 4897 0 
L 4281 0 
L 4281 4097 
L 3078 897 
L 2444 897 
L 1241 4097 
L 1241 0 
L 628 0 
L 628 4666 
z
" transform="scale(0.015625)"/>
     </defs>
     <use xlink:href="#DejaVuSans-53"/>
     <use xlink:href="#DejaVuSans-74" x="63.476562"/>
     <use xlink:href="#DejaVuSans-6f" x="102.685547"/>
     <use xlink:href="#DejaVuSans-63" x="163.867188"/>
     <use xlink:href="#DejaVuSans-6b" x="218.847656"/>
     <use xlink:href="#DejaVuSans-20" x="276.757812"/>
     <use xlink:href="#DejaVuSans-54" x="308.544922"/>
     <use xlink:href="#DejaVuSans-72" x="354.878906"/>
     <use xlink:href="#DejaVuSans-61" x="395.992188"/>
     <use xlink:href="#DejaVuSans-64" x="457.271484"/>
     <use xlink:href="#DejaVuSans-69" x="520.748047"/>
     <use xlink:href="#DejaVuSans-6e" x="548.53125"/>
     <use xlink:href="#DejaVuSans-67" x="611.910156"/>
     <use xlink:href="#DejaVuSans-20" x="675.386719"/>
     <use xlink:href="#DejaVuSans-50" x="707.173828"/>
     <use xlink:href="#DejaVuSans-65" x="763.851562"/>
     <use xlink:href="#DejaVuSans-72" x="825.375"/>
     <use xlink:href="#DejaVuSans-66" x="866.488281"/>
     <use xlink:href="#DejaVuSans-6f" x="901.693359"/>
     <use xlink:href="#DejaVuSans-72" x="962.875"/>
     <use xlink:href="#DejaVuSans-6d" x="1002.238281"/>
     <use xlink:href="#DejaVuSans-61" x="1099.650391"/>
     <use xlink:href="#DejaVuSans-6e" x="1160.929688"/>
     <use xlink:href="#DejaVuSans-63" x="1224.308594"/>
     <use xlink:href="#DejaVuSans-65" x="1279.289062"/>
     <use xlink:href="#DejaVuSans-20" x="1340.8125"/>
     <use xlink:href="#DejaVuSans-66" x="1372.599609"/>
     <use xlink:href="#DejaVuSans-6f" x="1407.804688"/>
     <use xlink:href="#DejaVuSans-72" x="1468.986328"/>
     <use xlink:href="#DejaVuSans-20" x="1510.099609"/>
     <use xlink:href="#DejaVuSans-4d" x="1541.886719"/>
     <use xlink:href="#DejaVuSans-53" x="1628.166016"/>
    </g>
   </g>
  </g>
 </g>
 <defs>
  <clipPath id="pbf843936ba">
   <rect x="52.94" y="26.88" width="760.19" height="363.16"/>
  </clipPath>
 </defs>
</svg>
