<?xml version="1.0" encoding="utf-8" standalone="no"?>
<!DOCTYPE svg PUBLIC "-//W3C//DTD SVG 1.1//EN"
  "http://www.w3.org/Graphics/SVG/1.1/DTD/svg11.dtd">
<svg xmlns:xlink="http://www.w3.org/1999/xlink" width="864pt" height="432pt" viewBox="0 0 864 432" xmlns="http://www.w3.org/2000/svg" version="1.1">
 <metadata>
  <rdf:RDF xmlns:dc="http://purl.org/dc/elements/1.1/" xmlns:cc="http://creativecommons.org/ns#" xmlns:rdf="http://www.w3.org/1999/02/22-rdf-syntax-ns#">
   <cc:Work>
    <dc:type rdf:resource="http://purl.org/dc/dcmitype/StillImage"/>
    <dc:date>2024-04-16T14:18:47.280541</dc:date>
    <dc:format>image/svg+xml</dc:format>
    <dc:creator>
     <cc:Agent>
      <dc:title>Matplotlib v3.8.2, https://matplotlib.org/</dc:title>
     </cc:Agent>
    </dc:creator>
   </cc:Work>
  </rdf:RDF>
 </metadata>
 <defs>
  <style type="text/css">*{stroke-linejoin: round; stroke-linecap: butt}</style>
 </defs>
 <g id="figure_1">
  <g id="patch_1">
   <path d="M 0 432 
L 864 432 
L 864 0 
L 0 0 
z
" style="fill: #ffffff"/>
  </g>
  <g id="axes_1">
   <g id="patch_2">
    <path d="M 52.94 390.04 
L 813.13 390.04 
L 813.13 26.88 
L 52.94 26.88 
z
" style="fill: #ffffff"/>
   </g>
   <g id="matplotlib.axis_1">
    <g id="xtick_1">
     <g id="line2d_1">
      <path d="M 87.114792 390.04 
L 87.114792 26.88 
" clip-path="url(#p054c62deb7)" style="fill: none; stroke-dasharray: 1.85,0.8; stroke-dashoffset: 0; stroke: #b0b0b0; stroke-opacity: 0.5; stroke-width: 0.5"/>
     </g>
     <g id="line2d_2">
      <defs>
       <path id="m4f558d6c27" d="M 0 0 
L 0 3.5 
" style="stroke: #000000; stroke-width: 0.8"/>
      </defs>
      <g>
       <use xlink:href="#m4f558d6c27" x="87.114792" y="390.04" style="stroke: #000000; stroke-width: 0.8"/>
      </g>
     </g>
     <g id="text_1">
      <!-- 2019 -->
      <g transform="translate(74.389792 404.638438) scale(0.1 -0.1)">
       <defs>
        <path id="DejaVuSans-32" d="M 1228 531 
L 3431 531 
L 3431 0 
L 469 0 
L 469 531 
Q 828 903 1448 1529 
Q 2069 2156 2228 2338 
Q 2531 2678 2651 2914 
Q 2772 3150 2772 3378 
Q 2772 3750 2511 3984 
Q 2250 4219 1831 4219 
Q 1534 4219 1204 4116 
Q 875 4013 500 3803 
L 500 4441 
Q 881 4594 1212 4672 
Q 1544 4750 1819 4750 
Q 2544 4750 2975 4387 
Q 3406 4025 3406 3419 
Q 3406 3131 3298 2873 
Q 3191 2616 2906 2266 
Q 2828 2175 2409 1742 
Q 1991 1309 1228 531 
z
" transform="scale(0.015625)"/>
        <path id="DejaVuSans-30" d="M 2034 4250 
Q 1547 4250 1301 3770 
Q 1056 3291 1056 2328 
Q 1056 1369 1301 889 
Q 1547 409 2034 409 
Q 2525 409 2770 889 
Q 3016 1369 3016 2328 
Q 3016 3291 2770 3770 
Q 2525 4250 2034 4250 
z
M 2034 4750 
Q 2819 4750 3233 4129 
Q 3647 3509 3647 2328 
Q 3647 1150 3233 529 
Q 2819 -91 2034 -91 
Q 1250 -91 836 529 
Q 422 1150 422 2328 
Q 422 3509 836 4129 
Q 1250 4750 2034 4750 
z
" transform="scale(0.015625)"/>
        <path id="DejaVuSans-31" d="M 794 531 
L 1825 531 
L 1825 4091 
L 703 3866 
L 703 4441 
L 1819 4666 
L 2450 4666 
L 2450 531 
L 3481 531 
L 3481 0 
L 794 0 
L 794 531 
z
" transform="scale(0.015625)"/>
        <path id="DejaVuSans-39" d="M 703 97 
L 703 672 
Q 941 559 1184 500 
Q 1428 441 1663 441 
Q 2288 441 2617 861 
Q 2947 1281 2994 2138 
Q 2813 1869 2534 1725 
Q 2256 1581 1919 1581 
Q 1219 1581 811 2004 
Q 403 2428 403 3163 
Q 403 3881 828 4315 
Q 1253 4750 1959 4750 
Q 2769 4750 3195 4129 
Q 3622 3509 3622 2328 
Q 3622 1225 3098 567 
Q 2575 -91 1691 -91 
Q 1453 -91 1209 -44 
Q 966 3 703 97 
z
M 1959 2075 
Q 2384 2075 2632 2365 
Q 2881 2656 2881 3163 
Q 2881 3666 2632 3958 
Q 2384 4250 1959 4250 
Q 1534 4250 1286 3958 
Q 1038 3666 1038 3163 
Q 1038 2656 1286 2365 
Q 1534 2075 1959 2075 
z
" transform="scale(0.015625)"/>
       </defs>
       <use xlink:href="#DejaVuSans-32"/>
       <use xlink:href="#DejaVuSans-30" x="63.623047"/>
       <use xlink:href="#DejaVuSans-31" x="127.246094"/>
       <use xlink:href="#DejaVuSans-39" x="190.869141"/>
      </g>
     </g>
    </g>
    <g id="xtick_2">
     <g id="line2d_3">
      <path d="M 225.558735 390.04 
L 225.558735 26.88 
" clip-path="url(#p054c62deb7)" style="fill: none; stroke-dasharray: 1.85,0.8; stroke-dashoffset: 0; stroke: #b0b0b0; stroke-opacity: 0.5; stroke-width: 0.5"/>
     </g>
     <g id="line2d_4">
      <g>
       <use xlink:href="#m4f558d6c27" x="225.558735" y="390.04" style="stroke: #000000; stroke-width: 0.8"/>
      </g>
     </g>
     <g id="text_2">
      <!-- 2020 -->
      <g transform="translate(212.833735 404.638438) scale(0.1 -0.1)">
       <use xlink:href="#DejaVuSans-32"/>
       <use xlink:href="#DejaVuSans-30" x="63.623047"/>
       <use xlink:href="#DejaVuSans-32" x="127.246094"/>
       <use xlink:href="#DejaVuSans-30" x="190.869141"/>
      </g>
     </g>
    </g>
    <g id="xtick_3">
     <g id="line2d_5">
      <path d="M 364.381976 390.04 
L 364.381976 26.88 
" clip-path="url(#p054c62deb7)" style="fill: none; stroke-dasharray: 1.85,0.8; stroke-dashoffset: 0; stroke: #b0b0b0; stroke-opacity: 0.5; stroke-width: 0.5"/>
     </g>
     <g id="line2d_6">
      <g>
       <use xlink:href="#m4f558d6c27" x="364.381976" y="390.04" style="stroke: #000000; stroke-width: 0.8"/>
      </g>
     </g>
     <g id="text_3">
      <!-- 2021 -->
      <g transform="translate(351.656976 404.638438) scale(0.1 -0.1)">
       <use xlink:href="#DejaVuSans-32"/>
       <use xlink:href="#DejaVuSans-30" x="63.623047"/>
       <use xlink:href="#DejaVuSans-32" x="127.246094"/>
       <use xlink:href="#DejaVuSans-31" x="190.869141"/>
      </g>
     </g>
    </g>
    <g id="xtick_4">
     <g id="line2d_7">
      <path d="M 502.825919 390.04 
L 502.825919 26.88 
" clip-path="url(#p054c62deb7)" style="fill: none; stroke-dasharray: 1.85,0.8; stroke-dashoffset: 0; stroke: #b0b0b0; stroke-opacity: 0.5; stroke-width: 0.5"/>
     </g>
     <g id="line2d_8">
      <g>
       <use xlink:href="#m4f558d6c27" x="502.825919" y="390.04" style="stroke: #000000; stroke-width: 0.8"/>
      </g>
     </g>
     <g id="text_4">
      <!-- 2022 -->
      <g transform="translate(490.100919 404.638438) scale(0.1 -0.1)">
       <use xlink:href="#DejaVuSans-32"/>
       <use xlink:href="#DejaVuSans-30" x="63.623047"/>
       <use xlink:href="#DejaVuSans-32" x="127.246094"/>
       <use xlink:href="#DejaVuSans-32" x="190.869141"/>
      </g>
     </g>
    </g>
    <g id="xtick_5">
     <g id="line2d_9">
      <path d="M 641.269862 390.04 
L 641.269862 26.88 
" clip-path="url(#p054c62deb7)" style="fill: none; stroke-dasharray: 1.85,0.8; stroke-dashoffset: 0; stroke: #b0b0b0; stroke-opacity: 0.5; stroke-width: 0.5"/>
     </g>
     <g id="line2d_10">
      <g>
       <use xlink:href="#m4f558d6c27" x="641.269862" y="390.04" style="stroke: #000000; stroke-width: 0.8"/>
      </g>
     </g>
     <g id="text_5">
      <!-- 2023 -->
      <g transform="translate(628.544862 404.638438) scale(0.1 -0.1)">
       <defs>
        <path id="DejaVuSans-33" d="M 2597 2516 
Q 3050 2419 3304 2112 
Q 3559 1806 3559 1356 
Q 3559 666 3084 287 
Q 2609 -91 1734 -91 
Q 1441 -91 1130 -33 
Q 819 25 488 141 
L 488 750 
Q 750 597 1062 519 
Q 1375 441 1716 441 
Q 2309 441 2620 675 
Q 2931 909 2931 1356 
Q 2931 1769 2642 2001 
Q 2353 2234 1838 2234 
L 1294 2234 
L 1294 2753 
L 1863 2753 
Q 2328 2753 2575 2939 
Q 2822 3125 2822 3475 
Q 2822 3834 2567 4026 
Q 2313 4219 1838 4219 
Q 1578 4219 1281 4162 
Q 984 4106 628 3988 
L 628 4550 
Q 988 4650 1302 4700 
Q 1616 4750 1894 4750 
Q 2613 4750 3031 4423 
Q 3450 4097 3450 3541 
Q 3450 3153 3228 2886 
Q 3006 2619 2597 2516 
z
" transform="scale(0.015625)"/>
       </defs>
       <use xlink:href="#DejaVuSans-32"/>
       <use xlink:href="#DejaVuSans-30" x="63.623047"/>
       <use xlink:href="#DejaVuSans-32" x="127.246094"/>
       <use xlink:href="#DejaVuSans-33" x="190.869141"/>
      </g>
     </g>
    </g>
    <g id="xtick_6">
     <g id="line2d_11">
      <path d="M 779.713805 390.04 
L 779.713805 26.88 
" clip-path="url(#p054c62deb7)" style="fill: none; stroke-dasharray: 1.85,0.8; stroke-dashoffset: 0; stroke: #b0b0b0; stroke-opacity: 0.5; stroke-width: 0.5"/>
     </g>
     <g id="line2d_12">
      <g>
       <use xlink:href="#m4f558d6c27" x="779.713805" y="390.04" style="stroke: #000000; stroke-width: 0.8"/>
      </g>
     </g>
     <g id="text_6">
      <!-- 2024 -->
      <g transform="translate(766.988805 404.638438) scale(0.1 -0.1)">
       <defs>
        <path id="DejaVuSans-34" d="M 2419 4116 
L 825 1625 
L 2419 1625 
L 2419 4116 
z
M 2253 4666 
L 3047 4666 
L 3047 1625 
L 3713 1625 
L 3713 1100 
L 3047 1100 
L 3047 0 
L 2419 0 
L 2419 1100 
L 313 1100 
L 313 1709 
L 2253 4666 
z
" transform="scale(0.015625)"/>
       </defs>
       <use xlink:href="#DejaVuSans-32"/>
       <use xlink:href="#DejaVuSans-30" x="63.623047"/>
       <use xlink:href="#DejaVuSans-32" x="127.246094"/>
       <use xlink:href="#DejaVuSans-34" x="190.869141"/>
      </g>
     </g>
    </g>
    <g id="text_7">
     <!-- Date -->
     <g transform="translate(421.084219 418.316562) scale(0.1 -0.1)">
      <defs>
       <path id="DejaVuSans-44" d="M 1259 4147 
L 1259 519 
L 2022 519 
Q 2988 519 3436 956 
Q 3884 1394 3884 2338 
Q 3884 3275 3436 3711 
Q 2988 4147 2022 4147 
L 1259 4147 
z
M 628 4666 
L 1925 4666 
Q 3281 4666 3915 4102 
Q 4550 3538 4550 2338 
Q 4550 1131 3912 565 
Q 3275 0 1925 0 
L 628 0 
L 628 4666 
z
" transform="scale(0.015625)"/>
       <path id="DejaVuSans-61" d="M 2194 1759 
Q 1497 1759 1228 1600 
Q 959 1441 959 1056 
Q 959 750 1161 570 
Q 1363 391 1709 391 
Q 2188 391 2477 730 
Q 2766 1069 2766 1631 
L 2766 1759 
L 2194 1759 
z
M 3341 1997 
L 3341 0 
L 2766 0 
L 2766 531 
Q 2569 213 2275 61 
Q 1981 -91 1556 -91 
Q 1019 -91 701 211 
Q 384 513 384 1019 
Q 384 1609 779 1909 
Q 1175 2209 1959 2209 
L 2766 2209 
L 2766 2266 
Q 2766 2663 2505 2880 
Q 2244 3097 1772 3097 
Q 1472 3097 1187 3025 
Q 903 2953 641 2809 
L 641 3341 
Q 956 3463 1253 3523 
Q 1550 3584 1831 3584 
Q 2591 3584 2966 3190 
Q 3341 2797 3341 1997 
z
" transform="scale(0.015625)"/>
       <path id="DejaVuSans-74" d="M 1172 4494 
L 1172 3500 
L 2356 3500 
L 2356 3053 
L 1172 3053 
L 1172 1153 
Q 1172 725 1289 603 
Q 1406 481 1766 481 
L 2356 481 
L 2356 0 
L 1766 0 
Q 1100 0 847 248 
Q 594 497 594 1153 
L 594 3053 
L 172 3053 
L 172 3500 
L 594 3500 
L 594 4494 
L 1172 4494 
z
" transform="scale(0.015625)"/>
       <path id="DejaVuSans-65" d="M 3597 1894 
L 3597 1613 
L 953 1613 
Q 991 1019 1311 708 
Q 1631 397 2203 397 
Q 2534 397 2845 478 
Q 3156 559 3463 722 
L 3463 178 
Q 3153 47 2828 -22 
Q 2503 -91 2169 -91 
Q 1331 -91 842 396 
Q 353 884 353 1716 
Q 353 2575 817 3079 
Q 1281 3584 2069 3584 
Q 2775 3584 3186 3129 
Q 3597 2675 3597 1894 
z
M 3022 2063 
Q 3016 2534 2758 2815 
Q 2500 3097 2075 3097 
Q 1594 3097 1305 2825 
Q 1016 2553 972 2059 
L 3022 2063 
z
" transform="scale(0.015625)"/>
      </defs>
      <use xlink:href="#DejaVuSans-44"/>
      <use xlink:href="#DejaVuSans-61" x="77.001953"/>
      <use xlink:href="#DejaVuSans-74" x="138.28125"/>
      <use xlink:href="#DejaVuSans-65" x="177.490234"/>
     </g>
    </g>
   </g>
   <g id="matplotlib.axis_2">
    <g id="ytick_1">
     <g id="line2d_13">
      <path d="M 52.94 363.18529 
L 813.13 363.18529 
" clip-path="url(#p054c62deb7)" style="fill: none; stroke-dasharray: 1.85,0.8; stroke-dashoffset: 0; stroke: #b0b0b0; stroke-opacity: 0.5; stroke-width: 0.5"/>
     </g>
     <g id="line2d_14">
      <defs>
       <path id="m11d5138de2" d="M 0 0 
L -3.5 0 
" style="stroke: #000000; stroke-width: 0.8"/>
      </defs>
      <g>
       <use xlink:href="#m11d5138de2" x="52.94" y="363.18529" style="stroke: #000000; stroke-width: 0.8"/>
      </g>
     </g>
     <g id="text_8">
      <!-- −15 -->
      <g style="fill: #d62728" transform="translate(24.835313 366.984508) scale(0.1 -0.1)">
       <defs>
        <path id="DejaVuSans-2212" d="M 678 2272 
L 4684 2272 
L 4684 1741 
L 678 1741 
L 678 2272 
z
" transform="scale(0.015625)"/>
        <path id="DejaVuSans-35" d="M 691 4666 
L 3169 4666 
L 3169 4134 
L 1269 4134 
L 1269 2991 
Q 1406 3038 1543 3061 
Q 1681 3084 1819 3084 
Q 2600 3084 3056 2656 
Q 3513 2228 3513 1497 
Q 3513 744 3044 326 
Q 2575 -91 1722 -91 
Q 1428 -91 1123 -41 
Q 819 9 494 109 
L 494 744 
Q 775 591 1075 516 
Q 1375 441 1709 441 
Q 2250 441 2565 725 
Q 2881 1009 2881 1497 
Q 2881 1984 2565 2268 
Q 2250 2553 1709 2553 
Q 1456 2553 1204 2497 
Q 953 2441 691 2322 
L 691 4666 
z
" transform="scale(0.015625)"/>
       </defs>
       <use xlink:href="#DejaVuSans-2212"/>
       <use xlink:href="#DejaVuSans-31" x="83.789062"/>
       <use xlink:href="#DejaVuSans-35" x="147.412109"/>
      </g>
     </g>
    </g>
    <g id="ytick_2">
     <g id="line2d_15">
      <path d="M 52.94 303.075429 
L 813.13 303.075429 
" clip-path="url(#p054c62deb7)" style="fill: none; stroke-dasharray: 1.85,0.8; stroke-dashoffset: 0; stroke: #b0b0b0; stroke-opacity: 0.5; stroke-width: 0.5"/>
     </g>
     <g id="line2d_16">
      <g>
       <use xlink:href="#m11d5138de2" x="52.94" y="303.075429" style="stroke: #000000; stroke-width: 0.8"/>
      </g>
     </g>
     <g id="text_9">
      <!-- −10 -->
      <g style="fill: #d62728" transform="translate(24.835313 306.874648) scale(0.1 -0.1)">
       <use xlink:href="#DejaVuSans-2212"/>
       <use xlink:href="#DejaVuSans-31" x="83.789062"/>
       <use xlink:href="#DejaVuSans-30" x="147.412109"/>
      </g>
     </g>
    </g>
    <g id="ytick_3">
     <g id="line2d_17">
      <path d="M 52.94 242.965568 
L 813.13 242.965568 
" clip-path="url(#p054c62deb7)" style="fill: none; stroke-dasharray: 1.85,0.8; stroke-dashoffset: 0; stroke: #b0b0b0; stroke-opacity: 0.5; stroke-width: 0.5"/>
     </g>
     <g id="line2d_18">
      <g>
       <use xlink:href="#m11d5138de2" x="52.94" y="242.965568" style="stroke: #000000; stroke-width: 0.8"/>
      </g>
     </g>
     <g id="text_10">
      <!-- −5 -->
      <g style="fill: #d62728" transform="translate(31.197813 246.764787) scale(0.1 -0.1)">
       <use xlink:href="#DejaVuSans-2212"/>
       <use xlink:href="#DejaVuSans-35" x="83.789062"/>
      </g>
     </g>
    </g>
    <g id="ytick_4">
     <g id="line2d_19">
      <path d="M 52.94 182.855708 
L 813.13 182.855708 
" clip-path="url(#p054c62deb7)" style="fill: none; stroke-dasharray: 1.85,0.8; stroke-dashoffset: 0; stroke: #b0b0b0; stroke-opacity: 0.5; stroke-width: 0.5"/>
     </g>
     <g id="line2d_20">
      <g>
       <use xlink:href="#m11d5138de2" x="52.94" y="182.855708" style="stroke: #000000; stroke-width: 0.8"/>
      </g>
     </g>
     <g id="text_11">
      <!-- 0 -->
      <g style="fill: #d62728" transform="translate(39.5775 186.654927) scale(0.1 -0.1)">
       <use xlink:href="#DejaVuSans-30"/>
      </g>
     </g>
    </g>
    <g id="ytick_5">
     <g id="line2d_21">
      <path d="M 52.94 122.745847 
L 813.13 122.745847 
" clip-path="url(#p054c62deb7)" style="fill: none; stroke-dasharray: 1.85,0.8; stroke-dashoffset: 0; stroke: #b0b0b0; stroke-opacity: 0.5; stroke-width: 0.5"/>
     </g>
     <g id="line2d_22">
      <g>
       <use xlink:href="#m11d5138de2" x="52.94" y="122.745847" style="stroke: #000000; stroke-width: 0.8"/>
      </g>
     </g>
     <g id="text_12">
      <!-- 5 -->
      <g style="fill: #d62728" transform="translate(39.5775 126.545066) scale(0.1 -0.1)">
       <use xlink:href="#DejaVuSans-35"/>
      </g>
     </g>
    </g>
    <g id="ytick_6">
     <g id="line2d_23">
      <path d="M 52.94 62.635987 
L 813.13 62.635987 
" clip-path="url(#p054c62deb7)" style="fill: none; stroke-dasharray: 1.85,0.8; stroke-dashoffset: 0; stroke: #b0b0b0; stroke-opacity: 0.5; stroke-width: 0.5"/>
     </g>
     <g id="line2d_24">
      <g>
       <use xlink:href="#m11d5138de2" x="52.94" y="62.635987" style="stroke: #000000; stroke-width: 0.8"/>
      </g>
     </g>
     <g id="text_13">
      <!-- 10 -->
      <g style="fill: #d62728" transform="translate(33.215 66.435205) scale(0.1 -0.1)">
       <use xlink:href="#DejaVuSans-31"/>
       <use xlink:href="#DejaVuSans-30" x="63.623047"/>
      </g>
     </g>
    </g>
    <g id="text_14">
     <!-- Returns (%) -->
     <g style="fill: #d62728" transform="translate(18.755625 237.8975) rotate(-90) scale(0.1 -0.1)">
      <defs>
       <path id="DejaVuSans-52" d="M 2841 2188 
Q 3044 2119 3236 1894 
Q 3428 1669 3622 1275 
L 4263 0 
L 3584 0 
L 2988 1197 
Q 2756 1666 2539 1819 
Q 2322 1972 1947 1972 
L 1259 1972 
L 1259 0 
L 628 0 
L 628 4666 
L 2053 4666 
Q 2853 4666 3247 4331 
Q 3641 3997 3641 3322 
Q 3641 2881 3436 2590 
Q 3231 2300 2841 2188 
z
M 1259 4147 
L 1259 2491 
L 2053 2491 
Q 2509 2491 2742 2702 
Q 2975 2913 2975 3322 
Q 2975 3731 2742 3939 
Q 2509 4147 2053 4147 
L 1259 4147 
z
" transform="scale(0.015625)"/>
       <path id="DejaVuSans-75" d="M 544 1381 
L 544 3500 
L 1119 3500 
L 1119 1403 
Q 1119 906 1312 657 
Q 1506 409 1894 409 
Q 2359 409 2629 706 
Q 2900 1003 2900 1516 
L 2900 3500 
L 3475 3500 
L 3475 0 
L 2900 0 
L 2900 538 
Q 2691 219 2414 64 
Q 2138 -91 1772 -91 
Q 1169 -91 856 284 
Q 544 659 544 1381 
z
M 1991 3584 
L 1991 3584 
z
" transform="scale(0.015625)"/>
       <path id="DejaVuSans-72" d="M 2631 2963 
Q 2534 3019 2420 3045 
Q 2306 3072 2169 3072 
Q 1681 3072 1420 2755 
Q 1159 2438 1159 1844 
L 1159 0 
L 581 0 
L 581 3500 
L 1159 3500 
L 1159 2956 
Q 1341 3275 1631 3429 
Q 1922 3584 2338 3584 
Q 2397 3584 2469 3576 
Q 2541 3569 2628 3553 
L 2631 2963 
z
" transform="scale(0.015625)"/>
       <path id="DejaVuSans-6e" d="M 3513 2113 
L 3513 0 
L 2938 0 
L 2938 2094 
Q 2938 2591 2744 2837 
Q 2550 3084 2163 3084 
Q 1697 3084 1428 2787 
Q 1159 2491 1159 1978 
L 1159 0 
L 581 0 
L 581 3500 
L 1159 3500 
L 1159 2956 
Q 1366 3272 1645 3428 
Q 1925 3584 2291 3584 
Q 2894 3584 3203 3211 
Q 3513 2838 3513 2113 
z
" transform="scale(0.015625)"/>
       <path id="DejaVuSans-73" d="M 2834 3397 
L 2834 2853 
Q 2591 2978 2328 3040 
Q 2066 3103 1784 3103 
Q 1356 3103 1142 2972 
Q 928 2841 928 2578 
Q 928 2378 1081 2264 
Q 1234 2150 1697 2047 
L 1894 2003 
Q 2506 1872 2764 1633 
Q 3022 1394 3022 966 
Q 3022 478 2636 193 
Q 2250 -91 1575 -91 
Q 1294 -91 989 -36 
Q 684 19 347 128 
L 347 722 
Q 666 556 975 473 
Q 1284 391 1588 391 
Q 1994 391 2212 530 
Q 2431 669 2431 922 
Q 2431 1156 2273 1281 
Q 2116 1406 1581 1522 
L 1381 1569 
Q 847 1681 609 1914 
Q 372 2147 372 2553 
Q 372 3047 722 3315 
Q 1072 3584 1716 3584 
Q 2034 3584 2315 3537 
Q 2597 3491 2834 3397 
z
" transform="scale(0.015625)"/>
       <path id="DejaVuSans-20" transform="scale(0.015625)"/>
       <path id="DejaVuSans-28" d="M 1984 4856 
Q 1566 4138 1362 3434 
Q 1159 2731 1159 2009 
Q 1159 1288 1364 580 
Q 1569 -128 1984 -844 
L 1484 -844 
Q 1016 -109 783 600 
Q 550 1309 550 2009 
Q 550 2706 781 3412 
Q 1013 4119 1484 4856 
L 1984 4856 
z
" transform="scale(0.015625)"/>
       <path id="DejaVuSans-25" d="M 4653 2053 
Q 4381 2053 4226 1822 
Q 4072 1591 4072 1178 
Q 4072 772 4226 539 
Q 4381 306 4653 306 
Q 4919 306 5073 539 
Q 5228 772 5228 1178 
Q 5228 1588 5073 1820 
Q 4919 2053 4653 2053 
z
M 4653 2450 
Q 5147 2450 5437 2106 
Q 5728 1763 5728 1178 
Q 5728 594 5436 251 
Q 5144 -91 4653 -91 
Q 4153 -91 3862 251 
Q 3572 594 3572 1178 
Q 3572 1766 3864 2108 
Q 4156 2450 4653 2450 
z
M 1428 4353 
Q 1159 4353 1004 4120 
Q 850 3888 850 3481 
Q 850 3069 1003 2837 
Q 1156 2606 1428 2606 
Q 1700 2606 1854 2837 
Q 2009 3069 2009 3481 
Q 2009 3884 1853 4118 
Q 1697 4353 1428 4353 
z
M 4250 4750 
L 4750 4750 
L 1831 -91 
L 1331 -91 
L 4250 4750 
z
M 1428 4750 
Q 1922 4750 2215 4408 
Q 2509 4066 2509 3481 
Q 2509 2891 2217 2550 
Q 1925 2209 1428 2209 
Q 931 2209 642 2551 
Q 353 2894 353 3481 
Q 353 4063 643 4406 
Q 934 4750 1428 4750 
z
" transform="scale(0.015625)"/>
       <path id="DejaVuSans-29" d="M 513 4856 
L 1013 4856 
Q 1481 4119 1714 3412 
Q 1947 2706 1947 2009 
Q 1947 1309 1714 600 
Q 1481 -109 1013 -844 
L 513 -844 
Q 928 -128 1133 580 
Q 1338 1288 1338 2009 
Q 1338 2731 1133 3434 
Q 928 4138 513 4856 
z
" transform="scale(0.015625)"/>
      </defs>
      <use xlink:href="#DejaVuSans-52"/>
      <use xlink:href="#DejaVuSans-65" x="64.982422"/>
      <use xlink:href="#DejaVuSans-74" x="126.505859"/>
      <use xlink:href="#DejaVuSans-75" x="165.714844"/>
      <use xlink:href="#DejaVuSans-72" x="229.09375"/>
      <use xlink:href="#DejaVuSans-6e" x="268.457031"/>
      <use xlink:href="#DejaVuSans-73" x="331.835938"/>
      <use xlink:href="#DejaVuSans-20" x="383.935547"/>
      <use xlink:href="#DejaVuSans-28" x="415.722656"/>
      <use xlink:href="#DejaVuSans-25" x="454.736328"/>
      <use xlink:href="#DejaVuSans-29" x="549.755859"/>
     </g>
    </g>
   </g>
   <g id="line2d_25">
    <path d="M 87.494091 182.855708 
L 87.873389 182.855708 
L 88.252688 131.423357 
L 137.182191 131.423357 
L 137.561489 117.662 
L 138.320086 86.854832 
L 138.699385 100.115908 
L 139.83728 121.809259 
L 140.216579 108.613437 
L 140.595877 114.297791 
L 140.975176 133.736251 
L 141.354474 134.374291 
L 142.871668 139.072583 
L 143.250966 149.324722 
L 143.630265 144.126148 
L 144.009563 163.91988 
L 145.147459 190.804554 
L 145.526757 157.184211 
L 146.285354 138.231531 
L 146.664653 114.152782 
L 147.802548 99.34736 
L 148.181847 97.592751 
L 148.561145 105.031714 
L 171.698352 105.031714 
L 172.07765 76.989397 
L 172.456949 116.072616 
L 172.836247 117.532334 
L 173.215546 97.18931 
L 174.353441 76.710333 
L 174.73274 86.842489 
L 175.112038 75.32217 
L 175.491337 79.558213 
L 175.870635 120.866786 
L 177.008531 101.768816 
L 177.387829 104.480742 
L 177.767128 99.901236 
L 178.146426 80.252294 
L 180.042918 96.008657 
L 180.801515 53.45503 
L 181.180814 54.771638 
L 182.318709 57.547963 
L 182.698008 61.368988 
L 183.077306 48.939924 
L 183.456605 43.387273 
L 183.835903 48.174287 
L 184.973799 54.149111 
L 185.353097 47.75927 
L 185.732395 48.317397 
L 186.111694 46.092043 
L 186.490992 60.252734 
L 187.628888 59.67314 
L 188.008186 77.26846 
L 188.387485 62.592575 
L 188.766783 67.465456 
L 189.146082 83.808567 
L 190.283977 71.42959 
L 190.663276 82.141341 
L 191.042574 104.537986 
L 191.421873 90.491783 
L 191.801171 71.42959 
L 192.939066 75.393725 
L 193.318365 75.393725 
L 193.697663 62.60754 
L 246.420151 62.60754 
L 246.79945 55.795167 
L 247.178748 122.349721 
L 247.558047 121.366622 
L 248.695942 56.160678 
L 249.07524 98.774246 
L 249.454539 45.113416 
L 249.833837 85.817503 
L 250.213136 107.735573 
L 251.351031 196.460274 
L 251.73033 131.74588 
L 252.109628 186.333092 
L 252.488927 296.238538 
L 252.868225 204.016273 
L 254.006121 345.475422 
L 254.385419 266.63843 
L 254.764718 300.656183 
L 255.144016 294.146302 
L 255.523315 336.879606 
L 304.832116 336.879606 
L 305.211415 324.799273 
L 305.590713 319.249414 
L 305.970011 300.229671 
L 307.487205 281.49368 
L 307.866504 278.760478 
L 308.245802 264.109684 
L 308.625101 277.045447 
L 309.762996 281.781605 
L 310.142295 302.67912 
L 310.521593 275.4556 
L 320.762652 275.4556 
L 321.14195 242.867375 
L 321.521249 265.632074 
L 321.900547 273.400978 
L 323.038443 254.043842 
L 323.417741 238.018637 
L 324.555637 288.115259 
L 325.693532 285.480806 
L 326.072831 265.056443 
L 326.452129 299.249709 
L 326.831428 294.195089 
L 327.210726 268.837955 
L 328.348621 245.661492 
L 328.72792 250.800146 
L 329.107218 243.031241 
L 329.865815 243.031241 
L 331.003711 218.679678 
L 338.968979 218.679678 
L 339.348277 209.574102 
L 339.727576 255.39105 
L 340.106874 235.641046 
L 340.486173 264.785692 
L 341.624068 262.294624 
L 342.003366 242.876196 
L 342.382665 191.902822 
L 342.761963 160.802731 
L 343.141262 159.888772 
L 344.279157 184.91848 
L 344.658456 206.411381 
L 384.484795 206.411381 
L 384.864094 196.695386 
L 385.243392 238.118371 
L 385.622691 233.318363 
L 386.760586 198.674501 
L 387.139885 217.702436 
L 387.519183 251.575603 
L 387.898482 270.124659 
L 388.27778 253.333984 
L 389.415676 285.373944 
L 389.794974 242.005517 
L 390.174273 245.267876 
L 390.553571 219.019352 
L 390.932869 228.477201 
L 392.070765 216.123634 
L 392.829362 204.869991 
L 393.20866 241.01783 
L 393.587959 236.984776 
L 394.725854 215.457694 
L 395.105153 220.557001 
L 395.484451 240.194757 
L 395.86375 242.177613 
L 396.243048 225.035262 
L 397.380944 225.364491 
L 397.760242 231.200822 
L 398.518839 193.578935 
L 400.036033 169.795887 
L 400.415331 170.641407 
L 400.79463 167.704535 
L 413.311479 167.704535 
L 413.690778 169.384111 
L 414.070076 200.846631 
L 414.449375 191.690851 
L 414.828673 165.350845 
L 415.966569 172.74707 
L 416.345867 180.931667 
L 416.725166 179.549159 
L 417.104464 156.23315 
L 417.483763 163.031431 
L 418.621658 142.480437 
L 419.000956 140.762776 
L 419.380255 136.428634 
L 419.759553 141.09793 
L 420.138852 137.175112 
L 421.656046 141.322635 
L 422.035344 138.896582 
L 422.414643 151.860923 
L 422.793941 130.93669 
L 423.931837 127.200492 
L 424.311135 126.602547 
L 424.690434 126.301671 
L 425.069732 113.188796 
L 450.862028 113.188796 
L 451.241327 125.428204 
L 451.620625 119.342135 
L 451.999924 106.231771 
L 453.137819 87.106148 
L 453.517118 83.140821 
L 453.896416 81.646742 
L 454.275714 89.920822 
L 454.655013 77.334449 
L 455.792908 62.659197 
L 456.172207 63.7355 
L 456.551505 61.543949 
L 456.930804 62.170612 
L 457.310102 58.102611 
L 458.827296 56.226162 
L 459.585893 65.406603 
L 459.965192 75.422595 
L 461.103087 76.325415 
L 461.482385 80.046449 
L 461.861684 70.342019 
L 462.240982 69.439199 
L 462.620281 85.020811 
L 463.758176 111.882363 
L 464.137475 110.313934 
L 464.896072 86.536132 
L 465.27537 85.31821 
L 466.413266 95.69179 
L 466.792564 132.176341 
L 467.171863 134.233355 
L 467.551161 138.828886 
L 467.93046 131.100038 
L 469.068355 157.419898 
L 469.447653 140.846954 
L 469.826952 132.873814 
L 470.20625 121.384986 
L 470.585549 127.687024 
L 471.723444 137.331267 
L 472.102743 141.682505 
L 472.482041 131.726702 
L 472.86134 108.642832 
L 473.240638 100.602423 
L 474.378534 87.686785 
L 489.171174 87.686785 
L 490.309069 59.535967 
L 491.067666 101.215904 
L 491.446965 91.96606 
L 491.826263 114.448272 
L 492.964159 104.267712 
L 493.343457 65.703654 
L 493.722756 59.802368 
L 494.102054 79.296843 
L 494.481353 65.106781 
L 495.619248 84.172991 
L 495.998547 97.634667 
L 496.377845 68.290103 
L 496.757143 102.146621 
L 497.136442 108.543615 
L 498.274337 120.926198 
L 498.653636 92.637121 
L 499.032934 76.899235 
L 499.412233 67.03903 
L 500.929427 45.258228 
L 501.308725 51.469753 
L 501.688024 51.66871 
L 502.067322 55.651235 
L 502.446621 63.953501 
L 503.584516 51.237074 
L 503.963814 68.532898 
L 504.343113 108.971879 
L 504.722411 109.868875 
L 505.10171 123.681255 
L 506.239605 122.851703 
L 506.618904 103.893402 
L 506.998202 98.814924 
L 507.377501 130.985361 
L 507.756799 123.182175 
L 509.273993 154.590503 
L 510.03259 183.90809 
L 510.411889 217.208201 
L 511.549784 211.863322 
L 511.929082 239.056446 
L 512.308381 239.056446 
L 512.687679 250.595559 
L 515.342769 250.595559 
L 515.722067 236.289881 
L 520.652947 236.289881 
L 521.032246 249.389156 
L 522.928738 249.389156 
L 523.308037 211.230454 
L 523.687335 211.230454 
L 524.825231 207.734282 
L 525.204529 207.734282 
L 525.583827 187.982778 
L 526.342424 187.982778 
L 527.48032 232.126864 
L 528.997514 232.126864 
L 530.135409 254.264445 
L 540.755766 254.264445 
L 541.135065 259.039309 
L 541.514363 236.150919 
L 541.893662 262.424449 
L 543.410856 261.559657 
L 543.790154 236.4504 
L 544.169453 253.201121 
L 544.548751 276.621173 
L 546.445243 276.621173 
L 546.824542 277.950653 
L 547.583139 277.950653 
L 548.721034 259.46664 
L 549.85893 259.46664 
L 550.238228 272.951323 
L 552.134721 272.951323 
L 552.514019 275.579567 
L 554.78981 275.579567 
L 555.169108 281.524035 
L 555.548407 281.524035 
L 556.686302 263.177664 
L 557.065601 263.177664 
L 557.444899 247.479271 
L 565.789466 247.479271 
L 566.168764 233.650867 
L 567.685958 204.608245 
L 568.065256 206.329887 
L 570.341047 206.329887 
L 570.720346 205.252411 
L 592.719657 205.252411 
L 593.857553 216.874234 
L 594.236851 229.882752 
L 594.61615 236.594821 
L 594.995448 236.097631 
L 595.374747 252.326233 
L 596.89194 260.459955 
L 597.271239 237.744574 
L 597.650537 231.801596 
L 598.029836 206.592494 
L 599.167731 192.589596 
L 599.54703 257.962351 
L 599.926328 249.024579 
L 600.305627 267.941116 
L 600.684925 274.769714 
L 601.822821 266.123264 
L 602.202119 275.041615 
L 602.581418 294.909805 
L 602.960716 308.326174 
L 603.340014 325.848248 
L 604.47791 330.229738 
L 604.857208 329.810233 
L 605.236507 308.823365 
L 605.615805 339.839494 
L 605.995104 357.555782 
L 607.132999 333.461474 
L 608.270895 333.461474 
L 608.650193 373.532727 
L 611.305282 373.532727 
L 612.443178 340.135137 
L 621.167043 340.135137 
L 621.546341 263.055812 
L 631.408101 263.055812 
L 631.7874 267.632187 
L 632.166698 254.410206 
L 632.545997 261.618902 
L 633.683892 247.523506 
L 634.063191 235.295688 
L 634.442489 243.816521 
L 634.821788 282.13008 
L 635.201086 292.643265 
L 636.338982 307.994449 
L 636.71828 308.831639 
L 637.097579 293.222859 
L 637.476877 319.928444 
L 637.856176 317.533595 
L 639.373369 332.623156 
L 639.752668 346.517305 
L 640.131966 321.20838 
L 640.511265 321.844323 
L 642.028459 329.032895 
L 642.407757 324.0017 
L 642.787056 340.608669 
L 643.166354 311.785957 
L 644.30425 304.838883 
L 644.683548 295.698207 
L 645.062847 276.853362 
L 645.442145 270.868252 
L 661.751979 270.868252 
L 662.889875 262.890864 
L 663.269173 264.341648 
L 663.648472 273.350362 
L 664.02777 264.153085 
L 664.407069 240.982872 
L 665.544964 239.686018 
L 665.924263 253.732069 
L 666.303561 248.082863 
L 667.062158 283.463519 
L 668.200053 275.297568 
L 668.579352 249.803023 
L 668.95865 243.845958 
L 669.337949 213.772015 
L 669.717247 219.305774 
L 670.855143 215.168923 
L 671.234441 198.463743 
L 722.060437 198.463743 
L 722.439735 200.365679 
L 722.819034 205.912196 
L 723.956929 195.927828 
L 724.715526 218.999555 
L 725.094824 216.842753 
L 725.474123 224.291207 
L 726.612018 211.267564 
L 727.749914 248.567175 
L 728.129212 249.991238 
L 729.267108 231.707802 
L 729.646406 233.354872 
L 730.025705 215.195683 
L 730.405003 240.201205 
L 730.784301 231.325503 
L 731.922197 222.644136 
L 732.301495 197.259502 
L 732.680794 190.636177 
L 733.060092 187.055312 
L 733.439391 188.323269 
L 734.956585 186.800446 
L 735.715182 205.84848 
L 736.09448 204.198224 
L 737.232376 190.288922 
L 737.611674 203.535572 
L 737.990972 199.034005 
L 738.370271 189.336361 
L 738.749569 209.808457 
L 739.887465 208.585101 
L 740.266763 211.092344 
L 741.02536 249.207525 
L 741.404659 249.048234 
L 742.542554 243.651451 
L 742.921853 260.787991 
L 743.301151 258.156501 
L 745.576942 258.156501 
L 745.95624 242.823725 
L 753.921508 242.823725 
L 754.300807 264.598147 
L 754.680105 259.218353 
L 755.818001 246.537877 
L 778.575909 246.537877 
L 778.575909 246.537877 
" clip-path="url(#p054c62deb7)" style="fill: none; stroke: #d62728; stroke-width: 1.5; stroke-linecap: square"/>
   </g>
   <g id="patch_3">
    <path d="M 52.94 390.04 
L 52.94 26.88 
" style="fill: none; stroke: #000000; stroke-width: 0.8; stroke-linejoin: miter; stroke-linecap: square"/>
   </g>
   <g id="patch_4">
    <path d="M 813.13 390.04 
L 813.13 26.88 
" style="fill: none; stroke: #000000; stroke-width: 0.8; stroke-linejoin: miter; stroke-linecap: square"/>
   </g>
   <g id="patch_5">
    <path d="M 52.94 390.04 
L 813.13 390.04 
" style="fill: none; stroke: #000000; stroke-width: 0.8; stroke-linejoin: miter; stroke-linecap: square"/>
   </g>
   <g id="patch_6">
    <path d="M 52.94 26.88 
L 813.13 26.88 
" style="fill: none; stroke: #000000; stroke-width: 0.8; stroke-linejoin: miter; stroke-linecap: square"/>
   </g>
  </g>
  <g id="axes_2">
   <g id="matplotlib.axis_3">
    <g id="ytick_7">
     <g id="line2d_26">
      <defs>
       <path id="mbd7b951765" d="M 0 0 
L 3.5 0 
" style="stroke: #000000; stroke-width: 0.8"/>
      </defs>
      <g>
       <use xlink:href="#mbd7b951765" x="813.13" y="367.054593" style="stroke: #000000; stroke-width: 0.8"/>
      </g>
     </g>
     <g id="text_15">
      <!-- 150 -->
      <g style="fill: #1f77b4" transform="translate(820.13 370.853812) scale(0.1 -0.1)">
       <use xlink:href="#DejaVuSans-31"/>
       <use xlink:href="#DejaVuSans-35" x="63.623047"/>
       <use xlink:href="#DejaVuSans-30" x="127.246094"/>
      </g>
     </g>
    </g>
    <g id="ytick_8">
     <g id="line2d_27">
      <g>
       <use xlink:href="#mbd7b951765" x="813.13" y="305.039142" style="stroke: #000000; stroke-width: 0.8"/>
      </g>
     </g>
     <g id="text_16">
      <!-- 200 -->
      <g style="fill: #1f77b4" transform="translate(820.13 308.838361) scale(0.1 -0.1)">
       <use xlink:href="#DejaVuSans-32"/>
       <use xlink:href="#DejaVuSans-30" x="63.623047"/>
       <use xlink:href="#DejaVuSans-30" x="127.246094"/>
      </g>
     </g>
    </g>
    <g id="ytick_9">
     <g id="line2d_28">
      <g>
       <use xlink:href="#mbd7b951765" x="813.13" y="243.023691" style="stroke: #000000; stroke-width: 0.8"/>
      </g>
     </g>
     <g id="text_17">
      <!-- 250 -->
      <g style="fill: #1f77b4" transform="translate(820.13 246.82291) scale(0.1 -0.1)">
       <use xlink:href="#DejaVuSans-32"/>
       <use xlink:href="#DejaVuSans-35" x="63.623047"/>
       <use xlink:href="#DejaVuSans-30" x="127.246094"/>
      </g>
     </g>
    </g>
    <g id="ytick_10">
     <g id="line2d_29">
      <g>
       <use xlink:href="#mbd7b951765" x="813.13" y="181.00824" style="stroke: #000000; stroke-width: 0.8"/>
      </g>
     </g>
     <g id="text_18">
      <!-- 300 -->
      <g style="fill: #1f77b4" transform="translate(820.13 184.807459) scale(0.1 -0.1)">
       <use xlink:href="#DejaVuSans-33"/>
       <use xlink:href="#DejaVuSans-30" x="63.623047"/>
       <use xlink:href="#DejaVuSans-30" x="127.246094"/>
      </g>
     </g>
    </g>
    <g id="ytick_11">
     <g id="line2d_30">
      <g>
       <use xlink:href="#mbd7b951765" x="813.13" y="118.99279" style="stroke: #000000; stroke-width: 0.8"/>
      </g>
     </g>
     <g id="text_19">
      <!-- 350 -->
      <g style="fill: #1f77b4" transform="translate(820.13 122.792008) scale(0.1 -0.1)">
       <use xlink:href="#DejaVuSans-33"/>
       <use xlink:href="#DejaVuSans-35" x="63.623047"/>
       <use xlink:href="#DejaVuSans-30" x="127.246094"/>
      </g>
     </g>
    </g>
    <g id="ytick_12">
     <g id="line2d_31">
      <g>
       <use xlink:href="#mbd7b951765" x="813.13" y="56.977339" style="stroke: #000000; stroke-width: 0.8"/>
      </g>
     </g>
     <g id="text_20">
      <!-- 400 -->
      <g style="fill: #1f77b4" transform="translate(820.13 60.776557) scale(0.1 -0.1)">
       <use xlink:href="#DejaVuSans-34"/>
       <use xlink:href="#DejaVuSans-30" x="63.623047"/>
       <use xlink:href="#DejaVuSans-30" x="127.246094"/>
      </g>
     </g>
    </g>
    <g id="text_21">
     <!-- Close Price -->
     <g style="fill: #1f77b4" transform="translate(850.815938 235.867812) rotate(-90) scale(0.1 -0.1)">
      <defs>
       <path id="DejaVuSans-43" d="M 4122 4306 
L 4122 3641 
Q 3803 3938 3442 4084 
Q 3081 4231 2675 4231 
Q 1875 4231 1450 3742 
Q 1025 3253 1025 2328 
Q 1025 1406 1450 917 
Q 1875 428 2675 428 
Q 3081 428 3442 575 
Q 3803 722 4122 1019 
L 4122 359 
Q 3791 134 3420 21 
Q 3050 -91 2638 -91 
Q 1578 -91 968 557 
Q 359 1206 359 2328 
Q 359 3453 968 4101 
Q 1578 4750 2638 4750 
Q 3056 4750 3426 4639 
Q 3797 4528 4122 4306 
z
" transform="scale(0.015625)"/>
       <path id="DejaVuSans-6c" d="M 603 4863 
L 1178 4863 
L 1178 0 
L 603 0 
L 603 4863 
z
" transform="scale(0.015625)"/>
       <path id="DejaVuSans-6f" d="M 1959 3097 
Q 1497 3097 1228 2736 
Q 959 2375 959 1747 
Q 959 1119 1226 758 
Q 1494 397 1959 397 
Q 2419 397 2687 759 
Q 2956 1122 2956 1747 
Q 2956 2369 2687 2733 
Q 2419 3097 1959 3097 
z
M 1959 3584 
Q 2709 3584 3137 3096 
Q 3566 2609 3566 1747 
Q 3566 888 3137 398 
Q 2709 -91 1959 -91 
Q 1206 -91 779 398 
Q 353 888 353 1747 
Q 353 2609 779 3096 
Q 1206 3584 1959 3584 
z
" transform="scale(0.015625)"/>
       <path id="DejaVuSans-50" d="M 1259 4147 
L 1259 2394 
L 2053 2394 
Q 2494 2394 2734 2622 
Q 2975 2850 2975 3272 
Q 2975 3691 2734 3919 
Q 2494 4147 2053 4147 
L 1259 4147 
z
M 628 4666 
L 2053 4666 
Q 2838 4666 3239 4311 
Q 3641 3956 3641 3272 
Q 3641 2581 3239 2228 
Q 2838 1875 2053 1875 
L 1259 1875 
L 1259 0 
L 628 0 
L 628 4666 
z
" transform="scale(0.015625)"/>
       <path id="DejaVuSans-69" d="M 603 3500 
L 1178 3500 
L 1178 0 
L 603 0 
L 603 3500 
z
M 603 4863 
L 1178 4863 
L 1178 4134 
L 603 4134 
L 603 4863 
z
" transform="scale(0.015625)"/>
       <path id="DejaVuSans-63" d="M 3122 3366 
L 3122 2828 
Q 2878 2963 2633 3030 
Q 2388 3097 2138 3097 
Q 1578 3097 1268 2742 
Q 959 2388 959 1747 
Q 959 1106 1268 751 
Q 1578 397 2138 397 
Q 2388 397 2633 464 
Q 2878 531 3122 666 
L 3122 134 
Q 2881 22 2623 -34 
Q 2366 -91 2075 -91 
Q 1284 -91 818 406 
Q 353 903 353 1747 
Q 353 2603 823 3093 
Q 1294 3584 2113 3584 
Q 2378 3584 2631 3529 
Q 2884 3475 3122 3366 
z
" transform="scale(0.015625)"/>
      </defs>
      <use xlink:href="#DejaVuSans-43"/>
      <use xlink:href="#DejaVuSans-6c" x="69.824219"/>
      <use xlink:href="#DejaVuSans-6f" x="97.607422"/>
      <use xlink:href="#DejaVuSans-73" x="158.789062"/>
      <use xlink:href="#DejaVuSans-65" x="210.888672"/>
      <use xlink:href="#DejaVuSans-20" x="272.412109"/>
      <use xlink:href="#DejaVuSans-50" x="304.199219"/>
      <use xlink:href="#DejaVuSans-72" x="362.751953"/>
      <use xlink:href="#DejaVuSans-69" x="403.865234"/>
      <use xlink:href="#DejaVuSans-63" x="431.648438"/>
      <use xlink:href="#DejaVuSans-65" x="486.628906"/>
     </g>
    </g>
   </g>
   <g id="line2d_32">
    <path d="M 87.494091 367.467616 
L 87.873389 373.532727 
L 88.252688 365.850253 
L 89.390583 363.620178 
L 90.14918 360.348242 
L 90.528479 359.797545 
L 90.907777 360.504521 
L 92.045673 362.206225 
L 92.424971 358.479097 
L 92.80427 358.515066 
L 93.562866 355.038479 
L 95.08006 359.006228 
L 95.459359 358.754445 
L 95.838657 357.495532 
L 96.217956 355.158789 
L 97.355851 357.603439 
L 97.73515 359.449018 
L 98.114448 354.523751 
L 98.493747 351.550731 
L 98.873045 352.401583 
L 100.010941 349.908561 
L 100.390239 348.111354 
L 100.769537 348.722826 
L 101.148836 351.46763 
L 101.528134 351.071971 
L 102.66603 351.262979 
L 103.045328 348.278795 
L 103.803925 347.883137 
L 104.183224 347.021122 
L 105.700418 346.61306 
L 106.079716 346.649029 
L 106.459015 347.404377 
L 106.838313 345.882518 
L 108.355507 344.911356 
L 108.734805 345.042829 
L 109.114104 345.522829 
L 109.493402 344.08407 
L 110.631298 344.048101 
L 111.010596 343.891822 
L 111.389895 345.078798 
L 111.769193 347.631354 
L 112.148492 347.943912 
L 114.044984 340.943608 
L 114.424283 341.303297 
L 114.803581 339.337408 
L 115.941476 338.828881 
L 116.700073 337.256169 
L 117.079372 333.881288 
L 117.45867 338.696168 
L 118.596566 339.10423 
L 118.975864 338.108261 
L 119.355163 339.488725 
L 119.734461 338.996323 
L 120.11376 337.375239 
L 122.010252 332.428886 
L 122.38955 332.513227 
L 122.768849 331.372143 
L 123.906744 330.807803 
L 124.286043 331.587957 
L 124.665341 330.399741 
L 125.04464 330.928112 
L 125.423938 329.966873 
L 126.561834 329.930904 
L 127.320431 328.381758 
L 127.699729 328.094006 
L 129.216923 327.457728 
L 129.596221 324.587653 
L 129.97552 325.308272 
L 130.354818 324.384242 
L 130.734117 324.179591 
L 131.872012 323.73556 
L 132.251311 325.512923 
L 132.630609 326.244706 
L 133.009908 327.229511 
L 133.389206 323.627654 
L 134.527102 325.031683 
L 134.9064 329.47447 
L 135.285699 330.038811 
L 135.664997 331.23943 
L 136.044295 330.964081 
L 137.182191 338.672602 
L 137.561489 336.318495 
L 138.320086 331.048422 
L 138.699385 333.316948 
L 139.83728 337.027952 
L 140.216579 334.77059 
L 140.595877 335.742992 
L 140.975176 339.068261 
L 141.354474 339.177408 
L 142.871668 339.981128 
L 143.250966 341.734925 
L 143.630265 340.845623 
L 144.009563 344.231667 
L 145.147459 348.830733 
L 145.526757 343.07942 
L 146.285354 339.837252 
L 146.664653 335.718186 
L 147.802548 333.185475 
L 148.181847 332.88532 
L 148.561145 334.157877 
L 148.940444 332.860514 
L 149.319742 333.798188 
L 150.457637 332.477258 
L 150.836936 329.27106 
L 151.216234 328.43013 
L 151.595533 326.34145 
L 151.974831 326.677573 
L 153.112727 326.670132 
L 153.492025 330.55726 
L 154.250622 328.667029 
L 154.629921 328.379277 
L 156.147115 324.443777 
L 156.526413 322.722228 
L 157.28501 323.192305 
L 158.422905 324.804707 
L 158.802204 323.661142 
L 159.181502 321.375252 
L 159.560801 321.543934 
L 159.940099 320.208122 
L 161.077995 319.461456 
L 161.836592 321.80812 
L 162.21589 321.543934 
L 162.595189 323.240677 
L 163.733084 321.411221 
L 164.491681 318.258356 
L 164.870979 320.484711 
L 165.250278 318.089674 
L 166.388173 318.895875 
L 166.767472 319.906727 
L 167.14677 323.13153 
L 167.526069 324.275095 
L 167.905367 327.645015 
L 169.043263 335.611519 
L 169.422561 332.566561 
L 169.80186 331.375864 
L 170.181158 326.549822 
L 170.560457 328.679432 
L 171.698352 331.254314 
L 172.07765 326.393543 
L 172.456949 333.168111 
L 172.836247 333.421134 
L 173.215546 329.894935 
L 174.353441 326.345171 
L 174.73274 328.101448 
L 175.112038 326.104551 
L 175.491337 326.838814 
L 175.870635 333.999118 
L 177.008531 330.688733 
L 177.387829 331.15881 
L 177.767128 330.365012 
L 178.146426 326.959124 
L 180.042918 329.690284 
L 180.801515 322.314166 
L 181.180814 322.542383 
L 182.318709 323.023623 
L 182.698008 323.685948 
L 183.077306 321.531531 
L 183.456605 320.569052 
L 183.835903 321.398818 
L 184.973799 322.434476 
L 185.353097 321.32688 
L 185.732395 321.423624 
L 186.111694 321.037888 
L 186.490992 323.49246 
L 187.628888 323.391995 
L 188.008186 326.441915 
L 188.387485 323.898041 
L 188.766783 324.742691 
L 189.146082 327.575557 
L 190.283977 325.429823 
L 190.663276 327.286565 
L 191.042574 331.168732 
L 191.421873 328.734006 
L 191.801171 325.429823 
L 192.939066 326.116954 
L 193.318365 329.517881 
L 194.45626 322.656492 
L 195.594156 322.680058 
L 195.973454 319.750448 
L 196.352753 320.328432 
L 196.732051 319.714479 
L 197.11135 321.956957 
L 198.249245 319.906727 
L 198.628544 321.763469 
L 199.007842 321.318198 
L 199.766439 317.194171 
L 200.904334 314.866111 
L 201.283633 316.711691 
L 201.662931 315.565645 
L 202.04223 315.457738 
L 202.421528 313.2996 
L 203.559424 311.816191 
L 203.938722 311.683478 
L 204.318021 312.225493 
L 205.076618 310.453091 
L 206.214513 310.779292 
L 206.593811 310.079758 
L 206.97311 310.018983 
L 207.352408 310.212471 
L 207.731707 308.427667 
L 208.869602 308.234178 
L 209.248901 307.873248 
L 209.628199 309.344255 
L 210.007498 309.88627 
L 210.386796 309.729991 
L 211.524692 306.847513 
L 211.90399 306.377436 
L 212.283289 304.653406 
L 213.041886 305.787049 
L 214.179781 308.318519 
L 214.559079 310.236037 
L 214.938378 309.005651 
L 215.317676 308.524411 
L 215.696975 305.907359 
L 216.83487 307.028598 
L 217.214169 307.233249 
L 217.593467 305.930925 
L 217.972766 304.086585 
L 219.48996 300.758836 
L 220.248557 300.420232 
L 220.627855 298.841318 
L 221.007153 297.815583 
L 222.524347 297.009382 
L 223.282944 294.749539 
L 223.662243 294.966593 
L 224.800138 296.658374 
L 225.179437 296.174654 
L 225.938034 291.885665 
L 226.317332 294.278221 
L 227.455228 292.610006 
L 227.834526 292.645975 
L 228.593123 288.464893 
L 228.972421 289.142102 
L 230.110317 286.097143 
L 230.489615 287.147685 
L 230.868914 287.039778 
L 231.248212 284.489703 
L 231.627511 283.160091 
L 233.144705 283.281642 
L 233.903302 281.697767 
L 234.2826 283.982416 
L 235.420495 289.540241 
L 235.799794 285.493113 
L 236.179092 285.057764 
L 236.558391 284.102726 
L 236.937689 288.368149 
L 238.075585 284.368152 
L 238.454883 278.21746 
L 238.834182 277.312034 
L 239.21348 274.930641 
L 239.592779 276.127539 
L 240.730674 272.779945 
L 241.109973 272.731573 
L 241.489271 270.000413 
L 241.86857 270.362583 
L 242.247868 269.553901 
L 243.765062 269.444754 
L 244.14436 266.725997 
L 244.523659 269.383979 
L 244.902957 274.833897 
L 246.040853 285.56505 
L 246.420151 292.839463 
L 246.79945 291.498689 
L 247.178748 304.597592 
L 247.558047 304.404104 
L 248.695942 291.570627 
L 249.07524 299.957596 
L 249.454539 289.396365 
L 249.833837 297.407521 
L 250.213136 301.721316 
L 251.351031 319.183626 
L 251.73033 306.446893 
L 252.109628 317.19045 
L 252.488927 338.821439 
L 252.868225 320.670757 
L 254.006121 348.511973 
L 254.385419 332.995708 
L 254.764718 339.690896 
L 255.144016 338.409656 
L 255.523315 346.820192 
L 256.66121 346.671355 
L 257.040508 330.686252 
L 257.419807 332.333383 
L 257.799105 320.707966 
L 258.178404 328.700517 
L 259.316299 320.538044 
L 259.695598 322.523779 
L 260.074896 332.32098 
L 260.454195 327.840983 
L 260.833493 331.03726 
L 261.971389 315.161304 
L 262.350687 315.258048 
L 262.729986 310.20875 
L 263.109284 309.856503 
L 264.626478 307.229528 
L 265.005776 296.535584 
L 265.385075 299.478837 
L 265.764373 294.852484 
L 266.143672 292.381789 
L 267.281567 295.470158 
L 267.660866 304.977127 
L 268.040164 297.613412 
L 268.419463 298.159148 
L 268.798761 294.138066 
L 269.936657 292.055588 
L 270.315955 296.972172 
L 270.695253 287.88939 
L 271.074552 287.998537 
L 271.45385 295.470158 
L 272.591746 292.46737 
L 272.971044 289.511714 
L 273.350343 287.88939 
L 274.10894 280.792341 
L 275.246835 278.358855 
L 275.626134 284.111408 
L 276.005432 287.477607 
L 276.384731 284.462416 
L 277.901924 277.680406 
L 278.281223 278.371258 
L 278.660521 272.885371 
L 279.03982 275.936532 
L 279.419118 274.980253 
L 280.936312 275.73064 
L 281.315611 274.217463 
L 281.694909 274.579633 
L 282.074208 270.499017 
L 283.212103 269.651886 
L 283.591402 267.750492 
L 283.9707 266.466772 
L 284.349999 268.477313 
L 284.729297 262.833907 
L 285.867192 260.581506 
L 286.246491 258.461818 
L 286.625789 254.925697 
L 287.005088 269.700258 
L 287.384386 267.447857 
L 288.522282 263.97127 
L 288.90158 259.006313 
L 289.660177 257.274842 
L 290.039476 257.323214 
L 291.177371 253.77593 
L 291.556669 251.228336 
L 291.935968 257.452206 
L 292.315266 254.637945 
L 292.694565 261.685381 
L 293.83246 258.507709 
L 294.211759 252.73283 
L 294.591057 249.226477 
L 294.970356 247.165083 
L 296.48755 239.643849 
L 296.866848 241.803227 
L 297.246147 237.702766 
L 298.004744 232.874243 
L 299.142639 239.461524 
L 299.521937 237.241371 
L 299.901236 236.598891 
L 300.280534 238.758269 
L 300.659833 238.393618 
L 301.797728 229.465874 
L 302.177027 232.838274 
L 302.556325 231.709593 
L 302.935624 240.104004 
L 303.314922 243.077025 
L 304.452818 237.545246 
L 304.832116 241.560127 
L 305.211415 237.969432 
L 305.590713 236.319821 
L 305.970011 230.666493 
L 307.487205 225.097505 
L 307.866504 224.285103 
L 308.245802 219.930378 
L 308.625101 223.775336 
L 309.762996 225.183086 
L 310.142295 231.394554 
L 310.521593 223.302778 
L 310.900892 222.54991 
L 311.28019 222.938127 
L 312.418086 219.105572 
L 312.797384 215.890691 
L 313.176682 218.159217 
L 313.555981 213.513019 
L 313.935279 211.158912 
L 315.073175 209.024341 
L 315.452473 206.319227 
L 315.831772 198.918303 
L 316.21107 200.023418 
L 316.590369 198.227451 
L 317.728264 195.37722 
L 318.107563 189.262497 
L 318.486861 185.816919 
L 318.86616 204.438918 
L 319.245458 209.085116 
L 320.762652 225.619675 
L 321.14195 215.999839 
L 321.521249 222.719833 
L 321.900547 225.013164 
L 323.038443 219.299061 
L 323.417741 214.568522 
L 324.555637 229.356726 
L 325.693532 228.579053 
L 326.072831 222.54991 
L 326.452129 232.643545 
L 326.831428 231.151453 
L 327.210726 223.666189 
L 328.348621 216.824644 
L 328.72792 218.341542 
L 329.107218 216.048211 
L 329.486517 210.698758 
L 329.865815 220.330998 
L 331.003711 213.233949 
L 331.383009 219.299061 
L 331.762308 213.525422 
L 332.141606 211.717051 
L 332.520905 206.500312 
L 333.6588 195.801406 
L 334.038098 195.813809 
L 334.796695 201.175665 
L 336.313889 208.818449 
L 336.693188 208.077985 
L 337.072486 208.344651 
L 337.451785 208.357054 
L 337.831083 207.677365 
L 338.968979 212.858136 
L 339.348277 210.201394 
L 339.727576 223.569444 
L 340.106874 217.806969 
L 340.486173 226.310527 
L 341.624068 225.583706 
L 342.003366 219.917975 
L 342.382665 205.045429 
L 342.761963 195.971328 
L 343.141262 195.704662 
L 344.279157 203.007602 
L 344.658456 209.278604 
L 345.037754 201.587448 
L 345.417053 203.238299 
L 345.796351 200.168534 
L 346.934247 197.415048 
L 347.313545 198.542489 
L 347.692844 201.163262 
L 348.072142 198.409776 
L 348.45144 200.83582 
L 349.589336 200.823417 
L 349.968634 195.874584 
L 350.347933 193.677997 
L 351.10653 190.366372 
L 352.244425 189.625908 
L 352.623724 184.968547 
L 353.382321 183.973819 
L 353.761619 182.469325 
L 354.899515 180.370722 
L 355.278813 179.109327 
L 355.658111 187.576917 
L 356.03741 186.108391 
L 356.416708 186.920794 
L 357.554604 184.264052 
L 357.933902 180.32235 
L 358.692499 175.821268 
L 359.071798 176.961112 
L 360.209693 177.665608 
L 360.588992 176.644833 
L 360.96829 178.540026 
L 361.347589 176.887934 
L 362.864782 173.095069 
L 363.244081 172.755224 
L 363.623379 172.742821 
L 364.002678 171.807628 
L 365.519872 177.19181 
L 365.89917 174.092277 
L 366.278469 179.342505 
L 366.657767 170.300653 
L 367.037066 165.377866 
L 368.174961 170.980342 
L 368.55426 171.588093 
L 368.933558 169.011972 
L 369.312857 171.065923 
L 369.692155 174.092277 
L 371.209349 168.56298 
L 371.588647 159.617871 
L 371.967946 156.469967 
L 372.347244 157.612291 
L 373.48514 154.342837 
L 373.864438 153.759892 
L 374.243737 164.892905 
L 374.623035 162.594613 
L 375.002334 170.81042 
L 376.140229 161.2588 
L 376.519527 154.866247 
L 376.898826 156.446401 
L 377.278124 151.754312 
L 377.657423 150.393693 
L 378.795318 147.696021 
L 379.174617 147.780362 
L 379.553915 148.704392 
L 380.312512 144.207032 
L 381.829706 145.313387 
L 382.967602 150.806716 
L 384.105497 161.233994 
L 384.484795 162.401125 
L 384.864094 159.180042 
L 385.243392 172.912744 
L 385.622691 171.321427 
L 386.760586 159.836166 
L 387.139885 166.144377 
L 387.519183 177.374135 
L 387.898482 183.523587 
L 388.27778 177.95708 
L 389.415676 188.579087 
L 389.794974 174.201425 
L 390.174273 175.282974 
L 390.553571 166.580966 
L 390.932869 169.716467 
L 392.070765 165.620967 
L 392.829362 161.890117 
L 393.20866 173.873983 
L 393.587959 172.53693 
L 394.725854 165.400192 
L 395.105153 167.090733 
L 395.484451 173.601115 
L 395.86375 174.258479 
L 396.243048 168.575383 
L 397.380944 168.68453 
L 397.760242 170.619412 
L 398.518839 158.146865 
L 400.036033 150.26222 
L 400.415331 150.54253 
L 400.79463 149.568887 
L 401.173928 145.358038 
L 401.553227 142.888583 
L 402.691122 143.423156 
L 403.070421 138.641765 
L 403.449719 143.617885 
L 403.829018 137.412619 
L 404.208316 136.925177 
L 405.346211 140.734166 
L 405.72551 143.739435 
L 406.104808 140.235562 
L 406.484107 145.211682 
L 406.863405 140.076803 
L 408.001301 137.387813 
L 408.759898 140.58781 
L 409.139196 139.10316 
L 409.518495 141.816956 
L 410.65639 144.007342 
L 411.035689 151.369816 
L 411.414987 152.720513 
L 412.173584 146.428425 
L 413.311479 156.699424 
L 413.690778 157.2464 
L 414.070076 167.492593 
L 414.449375 164.51089 
L 414.828673 155.932913 
L 415.966569 158.341593 
L 416.345867 161.007017 
L 416.725166 160.556785 
L 417.104464 152.963613 
L 417.483763 155.177565 
L 418.621658 148.484857 
L 419.000956 147.925478 
L 419.380255 146.514006 
L 419.759553 148.034625 
L 420.138852 146.757107 
L 421.656046 148.107803 
L 422.035344 147.317727 
L 422.414643 151.539739 
L 422.793941 144.725481 
L 423.931837 143.508738 
L 424.690434 143.216025 
L 425.069732 138.945641 
L 425.449031 137.862851 
L 426.586926 133.882699 
L 426.966224 136.621302 
L 427.345523 138.141921 
L 427.724821 132.873088 
L 428.10412 136.171069 
L 429.242015 133.580064 
L 429.621314 129.66937 
L 430.000612 129.462238 
L 430.379911 126.842705 
L 430.759209 127.366116 
L 432.276403 120.629997 
L 432.655702 121.312167 
L 433.035 121.141005 
L 433.414298 116.182249 
L 434.931492 114.294499 
L 435.310791 113.367988 
L 435.690089 116.02473 
L 436.069388 113.29605 
L 437.207283 111.578222 
L 437.586582 111.578222 
L 437.96588 110.785665 
L 438.724477 117.449845 
L 439.862373 121.019455 
L 440.241671 115.999924 
L 441.000268 109.714038 
L 441.379566 104.535748 
L 442.517462 104.1835 
L 442.89676 109.128612 
L 443.276059 107.423187 
L 443.655357 106.63187 
L 444.034656 108.95869 
L 445.172551 108.92148 
L 445.55185 106.23001 
L 445.931148 105.583809 
L 446.310447 102.745982 
L 446.689745 104.719313 
L 447.82764 103.890787 
L 448.206939 106.1928 
L 448.586237 106.960552 
L 449.344834 103.780399 
L 450.48273 103.585671 
L 451.241327 111.833726 
L 451.620625 109.701635 
L 451.999924 105.10877 
L 453.137819 98.408621 
L 453.517118 97.019475 
L 453.896416 96.496065 
L 454.275714 99.394667 
L 454.655013 94.985368 
L 455.792908 89.844287 
L 456.172207 90.221341 
L 456.551505 89.45359 
L 456.930804 89.673125 
L 457.310102 88.24801 
L 458.827296 87.590646 
L 459.585893 90.806767 
L 459.965192 94.315601 
L 461.103087 94.63188 
L 461.482385 95.935445 
L 461.861684 92.535758 
L 462.240982 92.219479 
L 462.620281 97.678079 
L 463.758176 107.088304 
L 464.137475 106.538847 
L 464.896072 98.208931 
L 465.27537 97.782265 
L 466.413266 101.41637 
L 466.792564 114.197755 
L 467.171863 114.918374 
L 467.551161 116.528296 
L 467.93046 113.820701 
L 469.068355 123.041158 
L 469.447653 117.235272 
L 469.826952 114.442096 
L 470.20625 110.417293 
L 470.585549 112.625043 
L 471.723444 116.003645 
L 472.102743 117.527985 
L 472.482041 114.040236 
L 472.86134 105.953421 
L 473.240638 103.136679 
L 474.378534 98.612032 
L 474.757832 95.172655 
L 475.137131 95.770484 
L 475.516429 92.977308 
L 475.895727 96.843351 
L 477.412921 90.721186 
L 477.79222 89.647078 
L 478.171518 84.501036 
L 478.550817 82.195302 
L 479.688712 80.585381 
L 480.068011 78.609568 
L 480.826608 67.425702 
L 481.205906 66.963067 
L 482.343802 67.621671 
L 482.7231 70.963063 
L 483.102398 78.048949 
L 483.481697 76.73174 
L 483.860995 71.719652 
L 484.998891 71.828799 
L 485.378189 68.401825 
L 485.757488 68.146321 
L 486.136786 63.120589 
L 486.516085 60.389429 
L 488.033279 68.328647 
L 488.412577 66.767098 
L 489.171174 75.987555 
L 490.309069 65.633455 
L 491.067666 80.963675 
L 491.446965 77.561507 
L 491.826263 85.830647 
L 492.964159 82.086154 
L 493.343457 67.90198 
L 493.722756 65.73144 
L 494.102054 72.901666 
L 494.481353 67.682446 
L 495.619248 74.695153 
L 495.998547 79.646467 
L 496.377845 68.853297 
L 496.757143 81.306 
L 497.136442 83.658866 
L 498.274337 88.213281 
L 498.653636 77.808329 
L 499.032934 72.019806 
L 499.412233 68.393143 
L 500.929427 60.381987 
L 501.308725 62.666636 
L 501.688024 62.739814 
L 502.067322 64.204619 
L 502.446621 67.25826 
L 503.584516 62.581055 
L 503.963814 68.9426 
L 504.343113 83.816385 
L 504.722411 84.146308 
L 505.10171 89.226613 
L 506.239605 88.921497 
L 506.618904 81.94848 
L 506.998202 80.080575 
L 507.377501 91.913123 
L 507.756799 89.043048 
L 509.273993 100.595286 
L 510.03259 111.378533 
L 510.411889 123.626584 
L 511.549784 121.660694 
L 511.929082 131.662546 
L 512.308381 132.32115 
L 512.687679 136.559286 
L 513.066978 123.492631 
L 514.204873 109.754968 
L 514.96347 103.111873 
L 515.342769 121.355578 
L 515.722067 115.909381 
L 516.859963 119.425657 
L 517.239261 114.553724 
L 517.61856 105.260088 
L 517.997858 115.395893 
L 518.377156 129.281153 
L 519.515052 128.755262 
L 519.89435 118.205193 
L 520.273649 118.314341 
L 520.652947 131.247043 
L 521.032246 136.058201 
L 522.54944 140.246725 
L 522.928738 150.82284 
L 523.308037 137.303472 
L 523.687335 130.856345 
L 524.825231 129.598672 
L 525.204529 136.083008 
L 525.583827 129.085184 
L 526.342424 141.199282 
L 527.48032 156.390587 
L 527.859618 158.234927 
L 528.238917 144.020985 
L 528.618215 148.562997 
L 528.997514 156.952447 
L 530.135409 164.560503 
L 530.894006 137.511844 
L 531.273305 132.47991 
L 531.652603 123.870925 
L 532.790498 125.064102 
L 533.169797 116.652326 
L 533.549095 122.924569 
L 533.928394 113.363027 
L 534.307692 113.730158 
L 535.445588 106.932025 
L 535.824886 99.253272 
L 536.583483 109.829387 
L 536.962782 110.674037 
L 538.100677 101.563967 
L 538.859274 121.176974 
L 539.238572 120.148758 
L 539.617871 126.201466 
L 540.755766 136.301302 
L 541.135065 138.0613 
L 541.514363 129.624718 
L 541.893662 139.309051 
L 543.410856 138.990292 
L 543.790154 129.735106 
L 544.169453 135.909364 
L 544.92805 155.240821 
L 546.065945 150.129507 
L 546.445243 165.339417 
L 546.824542 165.804533 
L 547.20384 152.049506 
L 547.583139 170.096002 
L 548.721034 163.700968 
L 549.100333 163.285465 
L 549.479631 150.104701 
L 549.85893 170.401118 
L 551.376124 189.780946 
L 551.755422 185.366686 
L 552.134721 196.273964 
L 552.514019 197.117374 
L 552.893318 183.924207 
L 554.031213 188.203273 
L 554.410511 178.752118 
L 554.78981 197.129777 
L 555.169108 199.037372 
L 555.548407 200.137526 
L 556.686302 194.268384 
L 557.065601 201.897525 
L 557.444899 196.98218 
L 558.203496 175.170106 
L 559.72069 176.172276 
L 560.099989 178.96049 
L 560.479287 168.714298 
L 560.858585 178.716149 
L 561.996481 177.468399 
L 562.375779 174.228711 
L 562.755078 176.954911 
L 563.513675 199.941558 
L 564.65157 216.362009 
L 565.030869 215.750536 
L 565.410167 207.326358 
L 565.789466 221.277353 
L 566.168764 217.242628 
L 567.685958 208.768837 
L 568.065256 209.271162 
L 568.444555 204.151166 
L 568.823853 192.194588 
L 569.961749 194.840167 
L 570.341047 205.754886 
L 570.720346 205.437367 
L 571.099644 209.748681 
L 571.478943 207.482636 
L 572.996137 201.565122 
L 573.375435 199.311481 
L 573.754734 191.740634 
L 574.134032 191.287922 
L 575.271927 199.017527 
L 575.651226 202.448222 
L 576.030524 203.170082 
L 576.409823 201.921091 
L 576.789121 195.550864 
L 577.927017 198.577218 
L 578.306315 187.673661 
L 579.064912 176.55057 
L 579.444211 183.153975 
L 580.582106 185.26002 
L 580.961405 192.488541 
L 581.340703 177.248864 
L 581.720001 173.573828 
L 582.0993 166.652904 
L 583.237195 166.884842 
L 583.616494 168.037089 
L 583.995792 157.550276 
L 584.375091 155.700975 
L 584.754389 158.946864 
L 585.892285 160.220661 
L 586.271583 164.668409 
L 586.650882 153.826868 
L 587.03018 156.092913 
L 587.409479 148.362067 
L 588.547374 145.091372 
L 588.926672 146.04765 
L 589.305971 150.690127 
L 589.685269 149.722686 
L 590.064568 157.587485 
L 591.202463 167.99988 
L 591.581762 168.318639 
L 591.96106 167.203601 
L 592.340359 160.380661 
L 592.719657 176.477392 
L 593.857553 180.188396 
L 594.236851 184.342191 
L 594.61615 186.485445 
L 594.995448 186.326686 
L 595.374747 191.508697 
L 596.89194 194.105904 
L 597.271239 186.852577 
L 597.650537 184.954904 
L 598.029836 176.905298 
L 599.167731 172.433984 
L 599.54703 193.308385 
L 599.926328 190.454434 
L 600.305627 196.494739 
L 600.684925 198.675202 
L 601.822821 195.914274 
L 602.202119 198.762024 
L 602.581418 205.106204 
L 602.960716 209.390232 
L 603.340014 214.985266 
L 604.47791 216.384334 
L 604.857208 216.250381 
L 605.236507 209.548991 
L 605.615805 219.452859 
L 605.995104 225.109908 
L 607.132999 217.416271 
L 607.512298 206.861242 
L 607.891596 207.046048 
L 608.270895 209.769766 
L 608.650193 222.852546 
L 609.788089 226.154248 
L 610.167387 230.645407 
L 610.546685 230.755795 
L 610.925984 223.196111 
L 611.305282 233.112382 
L 612.822476 219.931618 
L 613.201775 221.147121 
L 613.581073 222.840143 
L 613.960372 215.095653 
L 615.098267 211.377207 
L 615.477566 204.308686 
L 616.236163 218.226193 
L 616.615461 207.97876 
L 617.753356 211.99116 
L 618.132655 215.476428 
L 618.511953 227.049752 
L 618.891252 233.418738 
L 619.27055 228.276417 
L 620.408446 224.705568 
L 620.787744 222.313011 
L 621.167043 229.945873 
L 621.546341 206.100932 
L 621.92564 199.707139 
L 623.063535 202.79923 
L 623.442834 197.952102 
L 623.822132 202.79923 
L 624.20143 203.573182 
L 624.580729 203.560779 
L 625.718624 207.156435 
L 626.477221 198.651636 
L 627.235818 200.983417 
L 628.373714 206.149304 
L 628.753012 208.776279 
L 629.132311 193.080168 
L 629.511609 192.637378 
L 629.890908 194.073656 
L 631.028803 200.099077 
L 631.408101 207.414419 
L 631.7874 208.824651 
L 632.166698 204.750236 
L 632.545997 206.971629 
L 633.683892 202.628067 
L 634.063191 198.860008 
L 634.442489 201.485742 
L 634.821788 213.292244 
L 635.201086 216.531931 
L 636.338982 221.26247 
L 636.71828 221.520454 
L 637.097579 216.710536 
L 637.476877 224.939986 
L 637.856176 224.202002 
L 639.373369 228.851921 
L 639.752668 233.133467 
L 640.131966 225.334404 
L 640.511265 225.530373 
L 642.028459 227.745565 
L 642.407757 226.195179 
L 642.787056 231.312694 
L 643.166354 222.430841 
L 644.30425 220.290067 
L 644.683548 217.473326 
L 645.062847 211.666199 
L 645.821443 207.459071 
L 647.338637 206.758296 
L 648.097234 214.619375 
L 648.476533 205.355507 
L 649.614428 197.630862 
L 650.373025 199.144039 
L 650.752324 192.24296 
L 651.131622 188.649784 
L 652.269518 196.01846 
L 652.648816 190.667767 
L 653.028114 182.917076 
L 653.407413 169.632126 
L 653.786711 176.446384 
L 654.924607 179.632738 
L 655.303905 171.89569 
L 655.683204 178.673979 
L 656.441801 184.41785 
L 657.579696 178.513979 
L 658.338293 172.854449 
L 658.717592 179.989947 
L 659.09689 182.621883 
L 660.614084 191.393348 
L 660.993382 191.122961 
L 661.372681 187.961413 
L 661.751979 194.074896 
L 662.889875 191.503735 
L 663.269173 191.971332 
L 663.648472 194.874895 
L 664.02777 191.910557 
L 664.407069 184.442656 
L 665.544964 184.024672 
L 665.924263 188.5518 
L 666.303561 186.731026 
L 667.062158 198.134427 
L 668.200053 195.502492 
L 668.579352 187.285444 
L 668.95865 185.365446 
L 669.337949 175.672431 
L 669.717247 177.455995 
L 670.855143 176.122663 
L 671.234441 170.738482 
L 671.61374 175.937857 
L 671.993038 171.465303 
L 672.372337 170.061273 
L 673.510232 172.684527 
L 673.88953 174.70623 
L 674.268829 167.806391 
L 674.648127 164.158642 
L 675.027426 157.690431 
L 676.165321 158.65167 
L 676.54462 159.982522 
L 676.923918 163.863449 
L 677.303217 161.238955 
L 678.820411 161.46097 
L 679.199709 163.973836 
L 679.579008 167.411973 
L 679.958306 159.859731 
L 680.337605 160.598956 
L 681.854798 160.241747 
L 682.234097 160.426553 
L 682.613395 163.419418 
L 682.992694 163.013837 
L 684.130589 163.82624 
L 684.509888 171.170109 
L 684.889186 168.853212 
L 685.268485 158.404849 
L 685.647783 155.682371 
L 686.785679 156.138804 
L 687.544276 162.175388 
L 687.923574 163.555852 
L 688.302872 155.275549 
L 689.440768 154.290744 
L 689.820066 156.816013 
L 690.199365 152.503459 
L 690.578663 151.197413 
L 690.957962 152.639893 
L 692.095857 150.470592 
L 692.475156 150.015399 
L 692.854454 145.136023 
L 693.233753 137.558975 
L 693.613051 138.495409 
L 694.750947 137.102542 
L 695.130245 142.376335 
L 695.509543 144.48238 
L 696.26814 123.846119 
L 697.785334 121.898834 
L 698.164633 124.350925 
L 698.543931 119.398371 
L 698.92323 116.14504 
L 700.061125 115.837443 
L 700.440424 115.910622 
L 700.819722 123.32767 
L 701.199021 117.9931 
L 701.578319 116.329846 
L 702.716214 108.950007 
L 703.474811 102.284587 
L 703.85411 96.912808 
L 704.233408 99.782883 
L 705.750602 100.431565 
L 706.129901 106.600862 
L 706.509199 101.33327 
L 706.888498 105.810785 
L 708.026393 111.807679 
L 708.405692 104.219469 
L 708.78499 103.343811 
L 709.164288 104.244275 
L 709.543587 97.323351 
L 710.681482 96.249243 
L 711.440079 96.261646 
L 711.819378 99.740713 
L 712.198676 101.246448 
L 713.336572 101.098851 
L 713.71587 98.865055 
L 714.095169 93.128626 
L 714.474467 85.3184 
L 714.853766 85.417624 
L 715.991661 81.049256 
L 716.370959 77.188174 
L 716.750258 77.298562 
L 717.129556 88.266614 
L 717.508855 89.661962 
L 718.64675 88.921497 
L 719.026049 85.774833 
L 719.784646 88.440258 
L 720.163944 79.976389 
L 721.30184 79.729567 
L 721.681138 80.827241 
L 722.060437 91.191263 
L 722.439735 91.931727 
L 722.819034 94.091105 
L 723.956929 90.203977 
L 724.715526 99.186295 
L 725.094824 98.346606 
L 725.474123 101.246448 
L 726.612018 96.176065 
L 727.749914 110.697603 
L 728.129212 111.252021 
L 729.267108 104.133888 
L 729.646406 104.775127 
L 730.025705 97.705366 
L 730.405003 107.440551 
L 730.784301 103.98505 
L 731.922197 100.605208 
L 732.301495 90.722426 
L 732.680794 88.143824 
L 733.060092 86.749716 
L 733.439391 87.243359 
L 734.956585 86.650492 
L 735.715182 94.066299 
L 736.09448 93.423819 
L 737.232376 88.00863 
L 737.611674 93.165835 
L 737.990972 91.413278 
L 738.370271 87.637778 
L 738.749569 95.608003 
L 739.887465 95.131725 
L 740.266763 96.107848 
L 741.02536 110.946905 
L 741.404659 110.88489 
L 742.542554 108.783806 
L 742.921853 115.455428 
L 743.301151 114.430933 
L 743.68045 110.760859 
L 744.059748 110.439619 
L 745.197643 106.745978 
L 745.576942 114.57853 
L 745.95624 108.611403 
L 746.335539 109.921169 
L 746.714837 102.495439 
L 747.852733 100.197147 
L 748.61133 94.439632 
L 748.990628 96.033429 
L 749.369927 101.778541 
L 750.507822 96.675909 
L 750.887121 98.170482 
L 751.266419 104.138849 
L 751.645717 108.339775 
L 752.025016 114.974188 
L 753.162911 113.652019 
L 753.54221 109.376674 
L 754.300807 128.491076 
L 754.680105 126.452008 
L 756.197299 119.583177 
L 757.335195 98.775753 
L 758.47309 96.922731 
L 758.852388 92.610176 
L 759.231687 92.313743 
L 759.610985 95.859786 
L 759.990284 85.580105 
L 761.128179 87.038708 
L 761.507478 77.005849 
L 762.266075 76.239338 
L 762.645373 76.12895 
L 763.783269 70.321823 
L 764.162567 73.126162 
L 764.541866 71.161513 
L 765.300463 71.841202 
L 766.438358 72.261667 
L 766.817656 71.000272 
L 767.196955 71.47035 
L 767.576253 72.680891 
L 767.955552 71.31035 
L 769.093447 75.782904 
L 769.472746 74.583525 
L 769.852044 77.351895 
L 770.231343 70.703839 
L 770.610641 68.554383 
L 771.748537 64.415472 
L 772.127835 60.523382 
L 772.507134 54.258581 
L 772.886432 54.691449 
L 773.26573 52.282769 
L 774.403626 49.127423 
L 774.782924 46.552541 
L 775.162223 54.079977 
L 775.541521 48.27409 
L 777.438014 44.422931 
L 777.817312 43.387273 
L 778.196611 43.635335 
L 778.575909 45.840604 
L 778.575909 45.840604 
" clip-path="url(#p054c62deb7)" style="fill: none; stroke: #1f77b4; stroke-width: 1.5; stroke-linecap: square"/>
   </g>
   <g id="patch_7">
    <path d="M 52.94 390.04 
L 52.94 26.88 
" style="fill: none; stroke: #000000; stroke-width: 0.8; stroke-linejoin: miter; stroke-linecap: square"/>
   </g>
   <g id="patch_8">
    <path d="M 813.13 390.04 
L 813.13 26.88 
" style="fill: none; stroke: #000000; stroke-width: 0.8; stroke-linejoin: miter; stroke-linecap: square"/>
   </g>
   <g id="patch_9">
    <path d="M 52.94 390.04 
L 813.13 390.04 
" style="fill: none; stroke: #000000; stroke-width: 0.8; stroke-linejoin: miter; stroke-linecap: square"/>
   </g>
   <g id="patch_10">
    <path d="M 52.94 26.88 
L 813.13 26.88 
" style="fill: none; stroke: #000000; stroke-width: 0.8; stroke-linejoin: miter; stroke-linecap: square"/>
   </g>
   <g id="text_22">
    <!-- Stock Trading Performance for QQQ -->
    <g transform="translate(326.353125 20.88) scale(0.12 -0.12)">
     <defs>
      <path id="DejaVuSans-53" d="M 3425 4513 
L 3425 3897 
Q 3066 4069 2747 4153 
Q 2428 4238 2131 4238 
Q 1616 4238 1336 4038 
Q 1056 3838 1056 3469 
Q 1056 3159 1242 3001 
Q 1428 2844 1947 2747 
L 2328 2669 
Q 3034 2534 3370 2195 
Q 3706 1856 3706 1288 
Q 3706 609 3251 259 
Q 2797 -91 1919 -91 
Q 1588 -91 1214 -16 
Q 841 59 441 206 
L 441 856 
Q 825 641 1194 531 
Q 1563 422 1919 422 
Q 2459 422 2753 634 
Q 3047 847 3047 1241 
Q 3047 1584 2836 1778 
Q 2625 1972 2144 2069 
L 1759 2144 
Q 1053 2284 737 2584 
Q 422 2884 422 3419 
Q 422 4038 858 4394 
Q 1294 4750 2059 4750 
Q 2388 4750 2728 4690 
Q 3069 4631 3425 4513 
z
" transform="scale(0.015625)"/>
      <path id="DejaVuSans-6b" d="M 581 4863 
L 1159 4863 
L 1159 1991 
L 2875 3500 
L 3609 3500 
L 1753 1863 
L 3688 0 
L 2938 0 
L 1159 1709 
L 1159 0 
L 581 0 
L 581 4863 
z
" transform="scale(0.015625)"/>
      <path id="DejaVuSans-54" d="M -19 4666 
L 3928 4666 
L 3928 4134 
L 2272 4134 
L 2272 0 
L 1638 0 
L 1638 4134 
L -19 4134 
L -19 4666 
z
" transform="scale(0.015625)"/>
      <path id="DejaVuSans-64" d="M 2906 2969 
L 2906 4863 
L 3481 4863 
L 3481 0 
L 2906 0 
L 2906 525 
Q 2725 213 2448 61 
Q 2172 -91 1784 -91 
Q 1150 -91 751 415 
Q 353 922 353 1747 
Q 353 2572 751 3078 
Q 1150 3584 1784 3584 
Q 2172 3584 2448 3432 
Q 2725 3281 2906 2969 
z
M 947 1747 
Q 947 1113 1208 752 
Q 1469 391 1925 391 
Q 2381 391 2643 752 
Q 2906 1113 2906 1747 
Q 2906 2381 2643 2742 
Q 2381 3103 1925 3103 
Q 1469 3103 1208 2742 
Q 947 2381 947 1747 
z
" transform="scale(0.015625)"/>
      <path id="DejaVuSans-67" d="M 2906 1791 
Q 2906 2416 2648 2759 
Q 2391 3103 1925 3103 
Q 1463 3103 1205 2759 
Q 947 2416 947 1791 
Q 947 1169 1205 825 
Q 1463 481 1925 481 
Q 2391 481 2648 825 
Q 2906 1169 2906 1791 
z
M 3481 434 
Q 3481 -459 3084 -895 
Q 2688 -1331 1869 -1331 
Q 1566 -1331 1297 -1286 
Q 1028 -1241 775 -1147 
L 775 -588 
Q 1028 -725 1275 -790 
Q 1522 -856 1778 -856 
Q 2344 -856 2625 -561 
Q 2906 -266 2906 331 
L 2906 616 
Q 2728 306 2450 153 
Q 2172 0 1784 0 
Q 1141 0 747 490 
Q 353 981 353 1791 
Q 353 2603 747 3093 
Q 1141 3584 1784 3584 
Q 2172 3584 2450 3431 
Q 2728 3278 2906 2969 
L 2906 3500 
L 3481 3500 
L 3481 434 
z
" transform="scale(0.015625)"/>
      <path id="DejaVuSans-66" d="M 2375 4863 
L 2375 4384 
L 1825 4384 
Q 1516 4384 1395 4259 
Q 1275 4134 1275 3809 
L 1275 3500 
L 2222 3500 
L 2222 3053 
L 1275 3053 
L 1275 0 
L 697 0 
L 697 3053 
L 147 3053 
L 147 3500 
L 697 3500 
L 697 3744 
Q 697 4328 969 4595 
Q 1241 4863 1831 4863 
L 2375 4863 
z
" transform="scale(0.015625)"/>
      <path id="DejaVuSans-6d" d="M 3328 2828 
Q 3544 3216 3844 3400 
Q 4144 3584 4550 3584 
Q 5097 3584 5394 3201 
Q 5691 2819 5691 2113 
L 5691 0 
L 5113 0 
L 5113 2094 
Q 5113 2597 4934 2840 
Q 4756 3084 4391 3084 
Q 3944 3084 3684 2787 
Q 3425 2491 3425 1978 
L 3425 0 
L 2847 0 
L 2847 2094 
Q 2847 2600 2669 2842 
Q 2491 3084 2119 3084 
Q 1678 3084 1418 2786 
Q 1159 2488 1159 1978 
L 1159 0 
L 581 0 
L 581 3500 
L 1159 3500 
L 1159 2956 
Q 1356 3278 1631 3431 
Q 1906 3584 2284 3584 
Q 2666 3584 2933 3390 
Q 3200 3197 3328 2828 
z
" transform="scale(0.015625)"/>
      <path id="DejaVuSans-51" d="M 2522 4238 
Q 1834 4238 1429 3725 
Q 1025 3213 1025 2328 
Q 1025 1447 1429 934 
Q 1834 422 2522 422 
Q 3209 422 3611 934 
Q 4013 1447 4013 2328 
Q 4013 3213 3611 3725 
Q 3209 4238 2522 4238 
z
M 3406 84 
L 4238 -825 
L 3475 -825 
L 2784 -78 
Q 2681 -84 2626 -87 
Q 2572 -91 2522 -91 
Q 1538 -91 948 567 
Q 359 1225 359 2328 
Q 359 3434 948 4092 
Q 1538 4750 2522 4750 
Q 3503 4750 4090 4092 
Q 4678 3434 4678 2328 
Q 4678 1516 4351 937 
Q 4025 359 3406 84 
z
" transform="scale(0.015625)"/>
     </defs>
     <use xlink:href="#DejaVuSans-53"/>
     <use xlink:href="#DejaVuSans-74" x="63.476562"/>
     <use xlink:href="#DejaVuSans-6f" x="102.685547"/>
     <use xlink:href="#DejaVuSans-63" x="163.867188"/>
     <use xlink:href="#DejaVuSans-6b" x="218.847656"/>
     <use xlink:href="#DejaVuSans-20" x="276.757812"/>
     <use xlink:href="#DejaVuSans-54" x="308.544922"/>
     <use xlink:href="#DejaVuSans-72" x="354.878906"/>
     <use xlink:href="#DejaVuSans-61" x="395.992188"/>
     <use xlink:href="#DejaVuSans-64" x="457.271484"/>
     <use xlink:href="#DejaVuSans-69" x="520.748047"/>
     <use xlink:href="#DejaVuSans-6e" x="548.53125"/>
     <use xlink:href="#DejaVuSans-67" x="611.910156"/>
     <use xlink:href="#DejaVuSans-20" x="675.386719"/>
     <use xlink:href="#DejaVuSans-50" x="707.173828"/>
     <use xlink:href="#DejaVuSans-65" x="763.851562"/>
     <use xlink:href="#DejaVuSans-72" x="825.375"/>
     <use xlink:href="#DejaVuSans-66" x="866.488281"/>
     <use xlink:href="#DejaVuSans-6f" x="901.693359"/>
     <use xlink:href="#DejaVuSans-72" x="962.875"/>
     <use xlink:href="#DejaVuSans-6d" x="1002.238281"/>
     <use xlink:href="#DejaVuSans-61" x="1099.650391"/>
     <use xlink:href="#DejaVuSans-6e" x="1160.929688"/>
     <use xlink:href="#DejaVuSans-63" x="1224.308594"/>
     <use xlink:href="#DejaVuSans-65" x="1279.289062"/>
     <use xlink:href="#DejaVuSans-20" x="1340.8125"/>
     <use xlink:href="#DejaVuSans-66" x="1372.599609"/>
     <use xlink:href="#DejaVuSans-6f" x="1407.804688"/>
     <use xlink:href="#DejaVuSans-72" x="1468.986328"/>
     <use xlink:href="#DejaVuSans-20" x="1510.099609"/>
     <use xlink:href="#DejaVuSans-51" x="1541.886719"/>
     <use xlink:href="#DejaVuSans-51" x="1620.597656"/>
     <use xlink:href="#DejaVuSans-51" x="1699.308594"/>
    </g>
   </g>
  </g>
 </g>
 <defs>
  <clipPath id="p054c62deb7">
   <rect x="52.94" y="26.88" width="760.19" height="363.16"/>
  </clipPath>
 </defs>
</svg>
