<?xml version="1.0" encoding="utf-8" standalone="no"?>
<!DOCTYPE svg PUBLIC "-//W3C//DTD SVG 1.1//EN"
  "http://www.w3.org/Graphics/SVG/1.1/DTD/svg11.dtd">
<svg xmlns:xlink="http://www.w3.org/1999/xlink" width="864pt" height="432pt" viewBox="0 0 864 432" xmlns="http://www.w3.org/2000/svg" version="1.1">
 <metadata>
  <rdf:RDF xmlns:dc="http://purl.org/dc/elements/1.1/" xmlns:cc="http://creativecommons.org/ns#" xmlns:rdf="http://www.w3.org/1999/02/22-rdf-syntax-ns#">
   <cc:Work>
    <dc:type rdf:resource="http://purl.org/dc/dcmitype/StillImage"/>
    <dc:date>2024-04-18T22:06:57.879674</dc:date>
    <dc:format>image/svg+xml</dc:format>
    <dc:creator>
     <cc:Agent>
      <dc:title>Matplotlib v3.8.2, https://matplotlib.org/</dc:title>
     </cc:Agent>
    </dc:creator>
   </cc:Work>
  </rdf:RDF>
 </metadata>
 <defs>
  <style type="text/css">*{stroke-linejoin: round; stroke-linecap: butt}</style>
 </defs>
 <g id="figure_1">
  <g id="patch_1">
   <path d="M 0 432 
L 864 432 
L 864 0 
L 0 0 
z
" style="fill: #ffffff"/>
  </g>
  <g id="axes_1">
   <g id="patch_2">
    <path d="M 44.57 390.04 
L 813.22 390.04 
L 813.22 26.88 
L 44.57 26.88 
z
" style="fill: #ffffff"/>
   </g>
   <g id="matplotlib.axis_1">
    <g id="xtick_1">
     <g id="line2d_1">
      <path d="M 79.125117 390.04 
L 79.125117 26.88 
" clip-path="url(#p8a14d5aa94)" style="fill: none; stroke-dasharray: 1.85,0.8; stroke-dashoffset: 0; stroke: #b0b0b0; stroke-opacity: 0.5; stroke-width: 0.5"/>
     </g>
     <g id="line2d_2">
      <defs>
       <path id="m04a7b7320a" d="M 0 0 
L 0 3.5 
" style="stroke: #000000; stroke-width: 0.8"/>
      </defs>
      <g>
       <use xlink:href="#m04a7b7320a" x="79.125117" y="390.04" style="stroke: #000000; stroke-width: 0.8"/>
      </g>
     </g>
     <g id="text_1">
      <!-- 2019 -->
      <g transform="translate(66.400117 404.638438) scale(0.1 -0.1)">
       <defs>
        <path id="DejaVuSans-32" d="M 1228 531 
L 3431 531 
L 3431 0 
L 469 0 
L 469 531 
Q 828 903 1448 1529 
Q 2069 2156 2228 2338 
Q 2531 2678 2651 2914 
Q 2772 3150 2772 3378 
Q 2772 3750 2511 3984 
Q 2250 4219 1831 4219 
Q 1534 4219 1204 4116 
Q 875 4013 500 3803 
L 500 4441 
Q 881 4594 1212 4672 
Q 1544 4750 1819 4750 
Q 2544 4750 2975 4387 
Q 3406 4025 3406 3419 
Q 3406 3131 3298 2873 
Q 3191 2616 2906 2266 
Q 2828 2175 2409 1742 
Q 1991 1309 1228 531 
z
" transform="scale(0.015625)"/>
        <path id="DejaVuSans-30" d="M 2034 4250 
Q 1547 4250 1301 3770 
Q 1056 3291 1056 2328 
Q 1056 1369 1301 889 
Q 1547 409 2034 409 
Q 2525 409 2770 889 
Q 3016 1369 3016 2328 
Q 3016 3291 2770 3770 
Q 2525 4250 2034 4250 
z
M 2034 4750 
Q 2819 4750 3233 4129 
Q 3647 3509 3647 2328 
Q 3647 1150 3233 529 
Q 2819 -91 2034 -91 
Q 1250 -91 836 529 
Q 422 1150 422 2328 
Q 422 3509 836 4129 
Q 1250 4750 2034 4750 
z
" transform="scale(0.015625)"/>
        <path id="DejaVuSans-31" d="M 794 531 
L 1825 531 
L 1825 4091 
L 703 3866 
L 703 4441 
L 1819 4666 
L 2450 4666 
L 2450 531 
L 3481 531 
L 3481 0 
L 794 0 
L 794 531 
z
" transform="scale(0.015625)"/>
        <path id="DejaVuSans-39" d="M 703 97 
L 703 672 
Q 941 559 1184 500 
Q 1428 441 1663 441 
Q 2288 441 2617 861 
Q 2947 1281 2994 2138 
Q 2813 1869 2534 1725 
Q 2256 1581 1919 1581 
Q 1219 1581 811 2004 
Q 403 2428 403 3163 
Q 403 3881 828 4315 
Q 1253 4750 1959 4750 
Q 2769 4750 3195 4129 
Q 3622 3509 3622 2328 
Q 3622 1225 3098 567 
Q 2575 -91 1691 -91 
Q 1453 -91 1209 -44 
Q 966 3 703 97 
z
M 1959 2075 
Q 2384 2075 2632 2365 
Q 2881 2656 2881 3163 
Q 2881 3666 2632 3958 
Q 2384 4250 1959 4250 
Q 1534 4250 1286 3958 
Q 1038 3666 1038 3163 
Q 1038 2656 1286 2365 
Q 1534 2075 1959 2075 
z
" transform="scale(0.015625)"/>
       </defs>
       <use xlink:href="#DejaVuSans-32"/>
       <use xlink:href="#DejaVuSans-30" x="63.623047"/>
       <use xlink:href="#DejaVuSans-31" x="127.246094"/>
       <use xlink:href="#DejaVuSans-39" x="190.869141"/>
      </g>
     </g>
    </g>
    <g id="xtick_2">
     <g id="line2d_3">
      <path d="M 219.109774 390.04 
L 219.109774 26.88 
" clip-path="url(#p8a14d5aa94)" style="fill: none; stroke-dasharray: 1.85,0.8; stroke-dashoffset: 0; stroke: #b0b0b0; stroke-opacity: 0.5; stroke-width: 0.5"/>
     </g>
     <g id="line2d_4">
      <g>
       <use xlink:href="#m04a7b7320a" x="219.109774" y="390.04" style="stroke: #000000; stroke-width: 0.8"/>
      </g>
     </g>
     <g id="text_2">
      <!-- 2020 -->
      <g transform="translate(206.384774 404.638438) scale(0.1 -0.1)">
       <use xlink:href="#DejaVuSans-32"/>
       <use xlink:href="#DejaVuSans-30" x="63.623047"/>
       <use xlink:href="#DejaVuSans-32" x="127.246094"/>
       <use xlink:href="#DejaVuSans-30" x="190.869141"/>
      </g>
     </g>
    </g>
    <g id="xtick_3">
     <g id="line2d_5">
      <path d="M 359.477951 390.04 
L 359.477951 26.88 
" clip-path="url(#p8a14d5aa94)" style="fill: none; stroke-dasharray: 1.85,0.8; stroke-dashoffset: 0; stroke: #b0b0b0; stroke-opacity: 0.5; stroke-width: 0.5"/>
     </g>
     <g id="line2d_6">
      <g>
       <use xlink:href="#m04a7b7320a" x="359.477951" y="390.04" style="stroke: #000000; stroke-width: 0.8"/>
      </g>
     </g>
     <g id="text_3">
      <!-- 2021 -->
      <g transform="translate(346.752951 404.638438) scale(0.1 -0.1)">
       <use xlink:href="#DejaVuSans-32"/>
       <use xlink:href="#DejaVuSans-30" x="63.623047"/>
       <use xlink:href="#DejaVuSans-32" x="127.246094"/>
       <use xlink:href="#DejaVuSans-31" x="190.869141"/>
      </g>
     </g>
    </g>
    <g id="xtick_4">
     <g id="line2d_7">
      <path d="M 499.462608 390.04 
L 499.462608 26.88 
" clip-path="url(#p8a14d5aa94)" style="fill: none; stroke-dasharray: 1.85,0.8; stroke-dashoffset: 0; stroke: #b0b0b0; stroke-opacity: 0.5; stroke-width: 0.5"/>
     </g>
     <g id="line2d_8">
      <g>
       <use xlink:href="#m04a7b7320a" x="499.462608" y="390.04" style="stroke: #000000; stroke-width: 0.8"/>
      </g>
     </g>
     <g id="text_4">
      <!-- 2022 -->
      <g transform="translate(486.737608 404.638438) scale(0.1 -0.1)">
       <use xlink:href="#DejaVuSans-32"/>
       <use xlink:href="#DejaVuSans-30" x="63.623047"/>
       <use xlink:href="#DejaVuSans-32" x="127.246094"/>
       <use xlink:href="#DejaVuSans-32" x="190.869141"/>
      </g>
     </g>
    </g>
    <g id="xtick_5">
     <g id="line2d_9">
      <path d="M 639.447265 390.04 
L 639.447265 26.88 
" clip-path="url(#p8a14d5aa94)" style="fill: none; stroke-dasharray: 1.85,0.8; stroke-dashoffset: 0; stroke: #b0b0b0; stroke-opacity: 0.5; stroke-width: 0.5"/>
     </g>
     <g id="line2d_10">
      <g>
       <use xlink:href="#m04a7b7320a" x="639.447265" y="390.04" style="stroke: #000000; stroke-width: 0.8"/>
      </g>
     </g>
     <g id="text_5">
      <!-- 2023 -->
      <g transform="translate(626.722265 404.638438) scale(0.1 -0.1)">
       <defs>
        <path id="DejaVuSans-33" d="M 2597 2516 
Q 3050 2419 3304 2112 
Q 3559 1806 3559 1356 
Q 3559 666 3084 287 
Q 2609 -91 1734 -91 
Q 1441 -91 1130 -33 
Q 819 25 488 141 
L 488 750 
Q 750 597 1062 519 
Q 1375 441 1716 441 
Q 2309 441 2620 675 
Q 2931 909 2931 1356 
Q 2931 1769 2642 2001 
Q 2353 2234 1838 2234 
L 1294 2234 
L 1294 2753 
L 1863 2753 
Q 2328 2753 2575 2939 
Q 2822 3125 2822 3475 
Q 2822 3834 2567 4026 
Q 2313 4219 1838 4219 
Q 1578 4219 1281 4162 
Q 984 4106 628 3988 
L 628 4550 
Q 988 4650 1302 4700 
Q 1616 4750 1894 4750 
Q 2613 4750 3031 4423 
Q 3450 4097 3450 3541 
Q 3450 3153 3228 2886 
Q 3006 2619 2597 2516 
z
" transform="scale(0.015625)"/>
       </defs>
       <use xlink:href="#DejaVuSans-32"/>
       <use xlink:href="#DejaVuSans-30" x="63.623047"/>
       <use xlink:href="#DejaVuSans-32" x="127.246094"/>
       <use xlink:href="#DejaVuSans-33" x="190.869141"/>
      </g>
     </g>
    </g>
    <g id="xtick_6">
     <g id="line2d_11">
      <path d="M 779.431922 390.04 
L 779.431922 26.88 
" clip-path="url(#p8a14d5aa94)" style="fill: none; stroke-dasharray: 1.85,0.8; stroke-dashoffset: 0; stroke: #b0b0b0; stroke-opacity: 0.5; stroke-width: 0.5"/>
     </g>
     <g id="line2d_12">
      <g>
       <use xlink:href="#m04a7b7320a" x="779.431922" y="390.04" style="stroke: #000000; stroke-width: 0.8"/>
      </g>
     </g>
     <g id="text_6">
      <!-- 2024 -->
      <g transform="translate(766.706922 404.638438) scale(0.1 -0.1)">
       <defs>
        <path id="DejaVuSans-34" d="M 2419 4116 
L 825 1625 
L 2419 1625 
L 2419 4116 
z
M 2253 4666 
L 3047 4666 
L 3047 1625 
L 3713 1625 
L 3713 1100 
L 3047 1100 
L 3047 0 
L 2419 0 
L 2419 1100 
L 313 1100 
L 313 1709 
L 2253 4666 
z
" transform="scale(0.015625)"/>
       </defs>
       <use xlink:href="#DejaVuSans-32"/>
       <use xlink:href="#DejaVuSans-30" x="63.623047"/>
       <use xlink:href="#DejaVuSans-32" x="127.246094"/>
       <use xlink:href="#DejaVuSans-34" x="190.869141"/>
      </g>
     </g>
    </g>
    <g id="text_7">
     <!-- Date -->
     <g transform="translate(416.944219 418.316562) scale(0.1 -0.1)">
      <defs>
       <path id="DejaVuSans-44" d="M 1259 4147 
L 1259 519 
L 2022 519 
Q 2988 519 3436 956 
Q 3884 1394 3884 2338 
Q 3884 3275 3436 3711 
Q 2988 4147 2022 4147 
L 1259 4147 
z
M 628 4666 
L 1925 4666 
Q 3281 4666 3915 4102 
Q 4550 3538 4550 2338 
Q 4550 1131 3912 565 
Q 3275 0 1925 0 
L 628 0 
L 628 4666 
z
" transform="scale(0.015625)"/>
       <path id="DejaVuSans-61" d="M 2194 1759 
Q 1497 1759 1228 1600 
Q 959 1441 959 1056 
Q 959 750 1161 570 
Q 1363 391 1709 391 
Q 2188 391 2477 730 
Q 2766 1069 2766 1631 
L 2766 1759 
L 2194 1759 
z
M 3341 1997 
L 3341 0 
L 2766 0 
L 2766 531 
Q 2569 213 2275 61 
Q 1981 -91 1556 -91 
Q 1019 -91 701 211 
Q 384 513 384 1019 
Q 384 1609 779 1909 
Q 1175 2209 1959 2209 
L 2766 2209 
L 2766 2266 
Q 2766 2663 2505 2880 
Q 2244 3097 1772 3097 
Q 1472 3097 1187 3025 
Q 903 2953 641 2809 
L 641 3341 
Q 956 3463 1253 3523 
Q 1550 3584 1831 3584 
Q 2591 3584 2966 3190 
Q 3341 2797 3341 1997 
z
" transform="scale(0.015625)"/>
       <path id="DejaVuSans-74" d="M 1172 4494 
L 1172 3500 
L 2356 3500 
L 2356 3053 
L 1172 3053 
L 1172 1153 
Q 1172 725 1289 603 
Q 1406 481 1766 481 
L 2356 481 
L 2356 0 
L 1766 0 
Q 1100 0 847 248 
Q 594 497 594 1153 
L 594 3053 
L 172 3053 
L 172 3500 
L 594 3500 
L 594 4494 
L 1172 4494 
z
" transform="scale(0.015625)"/>
       <path id="DejaVuSans-65" d="M 3597 1894 
L 3597 1613 
L 953 1613 
Q 991 1019 1311 708 
Q 1631 397 2203 397 
Q 2534 397 2845 478 
Q 3156 559 3463 722 
L 3463 178 
Q 3153 47 2828 -22 
Q 2503 -91 2169 -91 
Q 1331 -91 842 396 
Q 353 884 353 1716 
Q 353 2575 817 3079 
Q 1281 3584 2069 3584 
Q 2775 3584 3186 3129 
Q 3597 2675 3597 1894 
z
M 3022 2063 
Q 3016 2534 2758 2815 
Q 2500 3097 2075 3097 
Q 1594 3097 1305 2825 
Q 1016 2553 972 2059 
L 3022 2063 
z
" transform="scale(0.015625)"/>
      </defs>
      <use xlink:href="#DejaVuSans-44"/>
      <use xlink:href="#DejaVuSans-61" x="77.001953"/>
      <use xlink:href="#DejaVuSans-74" x="138.28125"/>
      <use xlink:href="#DejaVuSans-65" x="177.490234"/>
     </g>
    </g>
   </g>
   <g id="matplotlib.axis_2">
    <g id="ytick_1">
     <g id="line2d_13">
      <path d="M 44.57 370.947267 
L 813.22 370.947267 
" clip-path="url(#p8a14d5aa94)" style="fill: none; stroke-dasharray: 1.85,0.8; stroke-dashoffset: 0; stroke: #b0b0b0; stroke-opacity: 0.5; stroke-width: 0.5"/>
     </g>
     <g id="line2d_14">
      <defs>
       <path id="mf6bd9a24b8" d="M 0 0 
L -3.5 0 
" style="stroke: #000000; stroke-width: 0.8"/>
      </defs>
      <g>
       <use xlink:href="#mf6bd9a24b8" x="44.57" y="370.947267" style="stroke: #000000; stroke-width: 0.8"/>
      </g>
     </g>
     <g id="text_8">
      <!-- 0 -->
      <g style="fill: #d62728" transform="translate(31.2075 374.746486) scale(0.1 -0.1)">
       <use xlink:href="#DejaVuSans-30"/>
      </g>
     </g>
    </g>
    <g id="ytick_2">
     <g id="line2d_15">
      <path d="M 44.57 291.759887 
L 813.22 291.759887 
" clip-path="url(#p8a14d5aa94)" style="fill: none; stroke-dasharray: 1.85,0.8; stroke-dashoffset: 0; stroke: #b0b0b0; stroke-opacity: 0.5; stroke-width: 0.5"/>
     </g>
     <g id="line2d_16">
      <g>
       <use xlink:href="#mf6bd9a24b8" x="44.57" y="291.759887" style="stroke: #000000; stroke-width: 0.8"/>
      </g>
     </g>
     <g id="text_9">
      <!-- 20 -->
      <g style="fill: #d62728" transform="translate(24.845 295.559106) scale(0.1 -0.1)">
       <use xlink:href="#DejaVuSans-32"/>
       <use xlink:href="#DejaVuSans-30" x="63.623047"/>
      </g>
     </g>
    </g>
    <g id="ytick_3">
     <g id="line2d_17">
      <path d="M 44.57 212.572507 
L 813.22 212.572507 
" clip-path="url(#p8a14d5aa94)" style="fill: none; stroke-dasharray: 1.85,0.8; stroke-dashoffset: 0; stroke: #b0b0b0; stroke-opacity: 0.5; stroke-width: 0.5"/>
     </g>
     <g id="line2d_18">
      <g>
       <use xlink:href="#mf6bd9a24b8" x="44.57" y="212.572507" style="stroke: #000000; stroke-width: 0.8"/>
      </g>
     </g>
     <g id="text_10">
      <!-- 40 -->
      <g style="fill: #d62728" transform="translate(24.845 216.371726) scale(0.1 -0.1)">
       <use xlink:href="#DejaVuSans-34"/>
       <use xlink:href="#DejaVuSans-30" x="63.623047"/>
      </g>
     </g>
    </g>
    <g id="ytick_4">
     <g id="line2d_19">
      <path d="M 44.57 133.385127 
L 813.22 133.385127 
" clip-path="url(#p8a14d5aa94)" style="fill: none; stroke-dasharray: 1.85,0.8; stroke-dashoffset: 0; stroke: #b0b0b0; stroke-opacity: 0.5; stroke-width: 0.5"/>
     </g>
     <g id="line2d_20">
      <g>
       <use xlink:href="#mf6bd9a24b8" x="44.57" y="133.385127" style="stroke: #000000; stroke-width: 0.8"/>
      </g>
     </g>
     <g id="text_11">
      <!-- 60 -->
      <g style="fill: #d62728" transform="translate(24.845 137.184346) scale(0.1 -0.1)">
       <defs>
        <path id="DejaVuSans-36" d="M 2113 2584 
Q 1688 2584 1439 2293 
Q 1191 2003 1191 1497 
Q 1191 994 1439 701 
Q 1688 409 2113 409 
Q 2538 409 2786 701 
Q 3034 994 3034 1497 
Q 3034 2003 2786 2293 
Q 2538 2584 2113 2584 
z
M 3366 4563 
L 3366 3988 
Q 3128 4100 2886 4159 
Q 2644 4219 2406 4219 
Q 1781 4219 1451 3797 
Q 1122 3375 1075 2522 
Q 1259 2794 1537 2939 
Q 1816 3084 2150 3084 
Q 2853 3084 3261 2657 
Q 3669 2231 3669 1497 
Q 3669 778 3244 343 
Q 2819 -91 2113 -91 
Q 1303 -91 875 529 
Q 447 1150 447 2328 
Q 447 3434 972 4092 
Q 1497 4750 2381 4750 
Q 2619 4750 2861 4703 
Q 3103 4656 3366 4563 
z
" transform="scale(0.015625)"/>
       </defs>
       <use xlink:href="#DejaVuSans-36"/>
       <use xlink:href="#DejaVuSans-30" x="63.623047"/>
      </g>
     </g>
    </g>
    <g id="ytick_5">
     <g id="line2d_21">
      <path d="M 44.57 54.197747 
L 813.22 54.197747 
" clip-path="url(#p8a14d5aa94)" style="fill: none; stroke-dasharray: 1.85,0.8; stroke-dashoffset: 0; stroke: #b0b0b0; stroke-opacity: 0.5; stroke-width: 0.5"/>
     </g>
     <g id="line2d_22">
      <g>
       <use xlink:href="#mf6bd9a24b8" x="44.57" y="54.197747" style="stroke: #000000; stroke-width: 0.8"/>
      </g>
     </g>
     <g id="text_12">
      <!-- 80 -->
      <g style="fill: #d62728" transform="translate(24.845 57.996966) scale(0.1 -0.1)">
       <defs>
        <path id="DejaVuSans-38" d="M 2034 2216 
Q 1584 2216 1326 1975 
Q 1069 1734 1069 1313 
Q 1069 891 1326 650 
Q 1584 409 2034 409 
Q 2484 409 2743 651 
Q 3003 894 3003 1313 
Q 3003 1734 2745 1975 
Q 2488 2216 2034 2216 
z
M 1403 2484 
Q 997 2584 770 2862 
Q 544 3141 544 3541 
Q 544 4100 942 4425 
Q 1341 4750 2034 4750 
Q 2731 4750 3128 4425 
Q 3525 4100 3525 3541 
Q 3525 3141 3298 2862 
Q 3072 2584 2669 2484 
Q 3125 2378 3379 2068 
Q 3634 1759 3634 1313 
Q 3634 634 3220 271 
Q 2806 -91 2034 -91 
Q 1263 -91 848 271 
Q 434 634 434 1313 
Q 434 1759 690 2068 
Q 947 2378 1403 2484 
z
M 1172 3481 
Q 1172 3119 1398 2916 
Q 1625 2713 2034 2713 
Q 2441 2713 2670 2916 
Q 2900 3119 2900 3481 
Q 2900 3844 2670 4047 
Q 2441 4250 2034 4250 
Q 1625 4250 1398 4047 
Q 1172 3844 1172 3481 
z
" transform="scale(0.015625)"/>
       </defs>
       <use xlink:href="#DejaVuSans-38"/>
       <use xlink:href="#DejaVuSans-30" x="63.623047"/>
      </g>
     </g>
    </g>
    <g id="text_13">
     <!-- Returns (%) -->
     <g style="fill: #d62728" transform="translate(18.765312 237.8975) rotate(-90) scale(0.1 -0.1)">
      <defs>
       <path id="DejaVuSans-52" d="M 2841 2188 
Q 3044 2119 3236 1894 
Q 3428 1669 3622 1275 
L 4263 0 
L 3584 0 
L 2988 1197 
Q 2756 1666 2539 1819 
Q 2322 1972 1947 1972 
L 1259 1972 
L 1259 0 
L 628 0 
L 628 4666 
L 2053 4666 
Q 2853 4666 3247 4331 
Q 3641 3997 3641 3322 
Q 3641 2881 3436 2590 
Q 3231 2300 2841 2188 
z
M 1259 4147 
L 1259 2491 
L 2053 2491 
Q 2509 2491 2742 2702 
Q 2975 2913 2975 3322 
Q 2975 3731 2742 3939 
Q 2509 4147 2053 4147 
L 1259 4147 
z
" transform="scale(0.015625)"/>
       <path id="DejaVuSans-75" d="M 544 1381 
L 544 3500 
L 1119 3500 
L 1119 1403 
Q 1119 906 1312 657 
Q 1506 409 1894 409 
Q 2359 409 2629 706 
Q 2900 1003 2900 1516 
L 2900 3500 
L 3475 3500 
L 3475 0 
L 2900 0 
L 2900 538 
Q 2691 219 2414 64 
Q 2138 -91 1772 -91 
Q 1169 -91 856 284 
Q 544 659 544 1381 
z
M 1991 3584 
L 1991 3584 
z
" transform="scale(0.015625)"/>
       <path id="DejaVuSans-72" d="M 2631 2963 
Q 2534 3019 2420 3045 
Q 2306 3072 2169 3072 
Q 1681 3072 1420 2755 
Q 1159 2438 1159 1844 
L 1159 0 
L 581 0 
L 581 3500 
L 1159 3500 
L 1159 2956 
Q 1341 3275 1631 3429 
Q 1922 3584 2338 3584 
Q 2397 3584 2469 3576 
Q 2541 3569 2628 3553 
L 2631 2963 
z
" transform="scale(0.015625)"/>
       <path id="DejaVuSans-6e" d="M 3513 2113 
L 3513 0 
L 2938 0 
L 2938 2094 
Q 2938 2591 2744 2837 
Q 2550 3084 2163 3084 
Q 1697 3084 1428 2787 
Q 1159 2491 1159 1978 
L 1159 0 
L 581 0 
L 581 3500 
L 1159 3500 
L 1159 2956 
Q 1366 3272 1645 3428 
Q 1925 3584 2291 3584 
Q 2894 3584 3203 3211 
Q 3513 2838 3513 2113 
z
" transform="scale(0.015625)"/>
       <path id="DejaVuSans-73" d="M 2834 3397 
L 2834 2853 
Q 2591 2978 2328 3040 
Q 2066 3103 1784 3103 
Q 1356 3103 1142 2972 
Q 928 2841 928 2578 
Q 928 2378 1081 2264 
Q 1234 2150 1697 2047 
L 1894 2003 
Q 2506 1872 2764 1633 
Q 3022 1394 3022 966 
Q 3022 478 2636 193 
Q 2250 -91 1575 -91 
Q 1294 -91 989 -36 
Q 684 19 347 128 
L 347 722 
Q 666 556 975 473 
Q 1284 391 1588 391 
Q 1994 391 2212 530 
Q 2431 669 2431 922 
Q 2431 1156 2273 1281 
Q 2116 1406 1581 1522 
L 1381 1569 
Q 847 1681 609 1914 
Q 372 2147 372 2553 
Q 372 3047 722 3315 
Q 1072 3584 1716 3584 
Q 2034 3584 2315 3537 
Q 2597 3491 2834 3397 
z
" transform="scale(0.015625)"/>
       <path id="DejaVuSans-20" transform="scale(0.015625)"/>
       <path id="DejaVuSans-28" d="M 1984 4856 
Q 1566 4138 1362 3434 
Q 1159 2731 1159 2009 
Q 1159 1288 1364 580 
Q 1569 -128 1984 -844 
L 1484 -844 
Q 1016 -109 783 600 
Q 550 1309 550 2009 
Q 550 2706 781 3412 
Q 1013 4119 1484 4856 
L 1984 4856 
z
" transform="scale(0.015625)"/>
       <path id="DejaVuSans-25" d="M 4653 2053 
Q 4381 2053 4226 1822 
Q 4072 1591 4072 1178 
Q 4072 772 4226 539 
Q 4381 306 4653 306 
Q 4919 306 5073 539 
Q 5228 772 5228 1178 
Q 5228 1588 5073 1820 
Q 4919 2053 4653 2053 
z
M 4653 2450 
Q 5147 2450 5437 2106 
Q 5728 1763 5728 1178 
Q 5728 594 5436 251 
Q 5144 -91 4653 -91 
Q 4153 -91 3862 251 
Q 3572 594 3572 1178 
Q 3572 1766 3864 2108 
Q 4156 2450 4653 2450 
z
M 1428 4353 
Q 1159 4353 1004 4120 
Q 850 3888 850 3481 
Q 850 3069 1003 2837 
Q 1156 2606 1428 2606 
Q 1700 2606 1854 2837 
Q 2009 3069 2009 3481 
Q 2009 3884 1853 4118 
Q 1697 4353 1428 4353 
z
M 4250 4750 
L 4750 4750 
L 1831 -91 
L 1331 -91 
L 4250 4750 
z
M 1428 4750 
Q 1922 4750 2215 4408 
Q 2509 4066 2509 3481 
Q 2509 2891 2217 2550 
Q 1925 2209 1428 2209 
Q 931 2209 642 2551 
Q 353 2894 353 3481 
Q 353 4063 643 4406 
Q 934 4750 1428 4750 
z
" transform="scale(0.015625)"/>
       <path id="DejaVuSans-29" d="M 513 4856 
L 1013 4856 
Q 1481 4119 1714 3412 
Q 1947 2706 1947 2009 
Q 1947 1309 1714 600 
Q 1481 -109 1013 -844 
L 513 -844 
Q 928 -128 1133 580 
Q 1338 1288 1338 2009 
Q 1338 2731 1133 3434 
Q 928 4138 513 4856 
z
" transform="scale(0.015625)"/>
      </defs>
      <use xlink:href="#DejaVuSans-52"/>
      <use xlink:href="#DejaVuSans-65" x="64.982422"/>
      <use xlink:href="#DejaVuSans-74" x="126.505859"/>
      <use xlink:href="#DejaVuSans-75" x="165.714844"/>
      <use xlink:href="#DejaVuSans-72" x="229.09375"/>
      <use xlink:href="#DejaVuSans-6e" x="268.457031"/>
      <use xlink:href="#DejaVuSans-73" x="331.835938"/>
      <use xlink:href="#DejaVuSans-20" x="383.935547"/>
      <use xlink:href="#DejaVuSans-28" x="415.722656"/>
      <use xlink:href="#DejaVuSans-25" x="454.736328"/>
      <use xlink:href="#DejaVuSans-29" x="549.755859"/>
     </g>
    </g>
   </g>
   <g id="line2d_23">
    <path d="M 79.508636 370.947267 
L 79.892156 370.947267 
L 80.275676 357.685616 
L 84.110872 357.685616 
L 84.494391 352.994924 
L 87.179029 352.994924 
L 87.562548 352.129548 
L 87.946068 351.908492 
L 88.329587 348.399009 
L 89.480146 351.579478 
L 89.863666 352.129548 
L 90.247185 345.56469 
L 90.630705 341.864995 
L 91.014225 341.661075 
L 92.164783 338.669103 
L 92.548303 336.874949 
L 92.931823 337.442155 
L 93.315342 341.534268 
L 93.698862 341.015042 
L 94.849421 340.778563 
L 95.23294 335.300137 
L 95.61646 333.8984 
L 95.99998 334.859737 
L 96.383499 330.152437 
L 97.917578 329.396733 
L 98.301097 328.514221 
L 98.684617 330.073611 
L 99.068136 327.3661 
L 100.218695 326.768048 
L 100.985734 327.271851 
L 101.369254 328.089245 
L 101.752774 325.350888 
L 103.286852 327.554597 
L 103.670372 330.215841 
L 104.053891 333.867554 
L 104.437411 334.73293 
L 106.355009 323.902884 
L 106.738529 324.18563 
L 107.122048 321.999058 
L 108.272607 320.386546 
L 108.656127 320.275161 
L 109.039646 321.618635 
L 109.423166 316.590889 
L 109.806685 325.25664 
L 110.957244 325.587367 
L 111.340764 322.29894 
L 111.724284 324.624316 
L 112.107803 322.9484 
L 112.491323 320.148354 
L 113.641882 314.85157 
L 114.025401 314.630514 
L 114.408921 313.91765 
L 114.79244 312.716406 
L 115.17596 310.519551 
L 116.326519 310.171688 
L 116.710038 312.510772 
L 117.093558 310.961664 
L 117.477078 311.088472 
L 117.860597 308.003965 
L 119.011156 308.305561 
L 119.394676 308.003965 
L 119.778195 309.128096 
L 120.161715 308.226735 
L 121.695793 307.83089 
L 122.079313 303.702791 
L 122.462833 304.73096 
L 122.846352 305.01542 
L 123.229872 302.864834 
L 124.76395 301.901782 
L 125.14747 305.395843 
L 125.530989 306.391453 
L 125.914509 301.884646 
L 127.065068 303.798754 
L 127.448587 311.530584 
L 127.832107 312.162908 
L 128.215627 313.538941 
L 128.599146 311.261547 
L 129.749705 322.710208 
L 130.133225 318.693494 
L 130.516744 316.068236 
L 130.900264 311.893871 
L 131.283784 314.836147 
L 132.434342 317.824692 
L 132.817862 313.77542 
L 133.201382 315.166875 
L 133.584901 320.686429 
L 133.968421 319.673682 
L 135.502499 323.832626 
L 135.886019 326.805747 
L 136.269538 325.604503 
L 136.653058 331.549033 
L 137.803617 332.656029 
L 138.187137 323.23286 
L 139.337695 311.972697 
L 140.488254 309.885514 
L 140.871774 309.996899 
L 141.255293 310.804011 
L 141.638813 308.922462 
L 142.022333 309.427979 
L 143.172891 309.25319 
L 143.556411 304.461923 
L 143.939931 304.461923 
L 144.32345 300.045882 
L 144.70697 300.724616 
L 145.857529 301.293931 
L 146.241048 305.860421 
L 146.624568 306.320318 
L 147.008088 304.687597 
L 147.391607 302.309466 
L 148.925686 296.871052 
L 149.309205 293.114939 
L 150.076244 293.65348 
L 151.226803 296.253866 
L 151.610323 295.667455 
L 151.993842 293.415838 
L 152.377362 292.306272 
L 152.760882 290.18117 
L 153.91144 290.023882 
L 154.29496 291.560862 
L 154.67848 294.79553 
L 155.061999 293.067069 
L 155.445519 295.698228 
L 156.596078 294.540792 
L 156.979597 291.164222 
L 157.363117 288.929702 
L 157.746637 291.212092 
L 158.130156 288.025294 
L 159.280715 288.897219 
L 159.664235 290.070042 
L 160.431274 299.392794 
L 160.814793 302.911265 
L 161.965352 316.862054 
L 162.348872 310.551716 
L 162.732391 310.2833 
L 163.115911 301.326414 
L 163.499431 304.496116 
L 164.64999 310.124302 
L 165.033509 303.022393 
L 165.417029 316.73554 
L 165.800548 315.54562 
L 166.184068 308.888221 
L 167.334627 303.371162 
L 167.718146 306.922117 
L 168.101666 303.181391 
L 168.485186 303.323292 
L 168.868705 315.229333 
L 170.019264 310.235429 
L 170.402784 312.027148 
L 170.786303 308.824964 
L 171.169823 302.974522 
L 171.553342 303.181391 
L 173.087421 305.891195 
L 173.85446 294.667306 
L 174.23798 294.30315 
L 175.772058 294.065507 
L 176.922617 294.065507 
L 178.073176 295.526931 
L 178.456695 294.333068 
L 178.840215 294.050267 
L 179.223735 294.082442 
L 179.607254 296.316065 
L 180.757813 296.426138 
L 181.141333 300.117798 
L 181.524852 297.355827 
L 181.908372 298.334625 
L 182.291892 300.859517 
L 183.44245 298.697017 
L 183.82597 304.266682 
L 184.20949 312.437444 
L 184.593009 308.715302 
L 184.976529 302.515684 
L 186.127088 304.519002 
L 186.510607 311.695725 
L 187.661166 299.470911 
L 188.811725 299.990791 
L 189.195244 295.369442 
L 189.578764 296.126402 
L 189.962284 294.737796 
L 190.345803 296.803771 
L 191.496362 293.618444 
L 191.879882 295.164538 
L 192.263401 293.791173 
L 192.646921 293.018973 
L 193.030441 291.078311 
L 194.180999 288.39593 
L 194.564519 288.538178 
L 194.948039 287.071674 
L 195.331558 288.348514 
L 195.715078 283.916829 
L 196.865637 281.976167 
L 197.249156 282.512982 
L 197.632676 282.402909 
L 198.399715 279.500384 
L 199.550274 280.430073 
L 199.933794 279.405552 
L 200.317313 279.248064 
L 200.700833 278.536827 
L 201.084352 275.004348 
L 202.234911 274.641956 
L 202.618431 274.78251 
L 203.00195 276.613099 
L 203.38547 277.402234 
L 203.76899 276.313363 
L 205.303068 271.392279 
L 205.686588 269.182363 
L 206.453627 271.028193 
L 207.604186 275.239734 
L 207.987705 278.536827 
L 208.371225 275.524229 
L 208.754745 274.641956 
L 209.138264 270.14592 
L 210.672343 272.259311 
L 211.055862 270.855464 
L 211.439382 266.579573 
L 211.822901 266.279837 
L 212.97346 262.84219 
L 213.740499 262.699943 
L 214.507539 258.413892 
L 215.658097 257.636611 
L 216.041617 257.62137 
L 216.808656 254.910201 
L 217.192176 255.037208 
L 218.342735 257.858449 
L 218.726254 256.622251 
L 219.493294 251.850187 
L 219.876813 255.750139 
L 221.027372 253.80101 
L 221.410892 255.243805 
L 222.177931 249.028946 
L 222.56145 250.519158 
L 223.712009 246.968051 
L 224.095529 247.760573 
L 224.479048 246.588725 
L 224.862568 242.260338 
L 225.246088 240.627879 
L 226.780166 241.65748 
L 227.163686 241.594823 
L 227.547205 240.991965 
L 227.930725 245.669197 
L 229.081284 254.022848 
L 229.464803 248.64962 
L 229.848323 249.076362 
L 230.231843 247.396487 
L 230.615362 256.828848 
L 231.765921 253.040663 
L 232.53296 239.185083 
L 232.91648 237.410377 
L 233.3 240.231618 
L 234.834078 235.379964 
L 235.217598 231.955864 
L 235.601117 232.526548 
L 235.984637 231.671369 
L 237.518715 233.049815 
L 237.902235 230.497828 
L 238.285754 232.70097 
L 239.819833 255.734898 
L 240.203352 271.222936 
L 240.586872 273.045059 
L 240.970392 295.222115 
L 241.353911 297.205112 
L 242.50447 276.865419 
L 242.88799 290.895421 
L 243.271509 270.889332 
L 243.655029 287.37649 
L 244.038549 295.301706 
L 245.189107 332.126863 
L 245.572627 309.633137 
L 245.956147 331.920266 
L 246.339666 373.532727 
L 246.723186 339.909831 
L 247.873745 339.909831 
L 248.257264 316.862406 
L 249.024303 316.862406 
L 249.407823 336.253691 
L 250.941902 336.253691 
L 251.325421 329.806651 
L 269.734362 329.806651 
L 270.117882 337.53569 
L 270.501402 332.398647 
L 270.884921 330.400818 
L 272.03548 317.107325 
L 272.419 321.726292 
L 272.802519 314.165627 
L 273.186039 317.29027 
L 273.569558 316.437064 
L 275.103637 310.88718 
L 275.487156 304.103629 
L 275.870676 304.956835 
L 276.254196 302.899104 
L 277.404755 301.024318 
L 277.788274 297.167893 
L 278.171794 290.916988 
L 278.555313 292.166845 
L 278.938833 280.001785 
L 280.089392 274.11839 
L 280.856431 280.521479 
L 281.239951 308.555841 
L 281.62347 303.067478 
L 282.774029 298.73831 
L 283.157549 289.728653 
L 283.541068 291.710291 
L 283.924588 291.527346 
L 284.308107 294.244004 
L 285.458666 291.211644 
L 285.842186 289.022775 
L 286.225706 301.210501 
L 286.609225 296.219167 
L 286.992745 307.396647 
L 288.143304 300.643856 
L 288.526823 294.671417 
L 289.293862 288.745928 
L 290.827941 281.36659 
L 291.21146 286.374114 
L 291.59498 282.699015 
L 291.9785 285.45453 
L 292.362019 280.539288 
L 293.512578 284.750271 
L 294.279617 274.016394 
L 294.663137 275.640237 
L 296.197215 270.234442 
L 296.580735 269.178863 
L 296.964255 266.345638 
L 297.347774 272.316458 
L 297.731294 275.502623 
L 298.881853 271.919807 
L 299.265372 275.057402 
L 299.648892 269.010489 
L 300.032411 270.786517 
L 300.415931 266.866952 
L 301.56649 263.390989 
L 301.950009 261.446586 
L 302.717049 254.907502 
L 303.100568 254.539992 
L 304.251127 253.01005 
L 304.634647 257.250175 
L 305.018166 250.146064 
L 305.401686 251.080219 
L 305.785206 251.064029 
L 306.935764 249.425616 
L 307.319284 248.308515 
L 307.702804 250.466623 
L 308.469843 247.02304 
L 310.003921 239.917311 
L 310.387441 234.63456 
L 310.77096 233.472128 
L 311.15448 230.026925 
L 312.305039 231.971328 
L 312.688559 226.933043 
L 313.072078 219.124674 
L 313.455598 237.972909 
L 313.839117 242.290744 
L 315.373196 256.622008 
L 315.756715 246.547058 
L 316.140235 255.581 
L 316.523755 255.321962 
L 318.057833 245.965842 
L 318.441353 248.033288 
L 318.824872 252.59559 
L 319.208392 258.516222 
L 320.358951 264.172959 
L 320.74247 259.053725 
L 321.12599 270.830229 
L 321.50951 269.507518 
L 321.893029 261.467633 
L 323.043588 253.073191 
L 323.427108 255.872418 
L 324.194147 248.692215 
L 324.577666 253.612313 
L 325.728225 244.510374 
L 326.111745 244.510374 
L 326.495264 235.418345 
L 332.248059 235.418345 
L 332.631578 233.613933 
L 333.782137 243.469173 
L 334.165657 245.273585 
L 334.549176 263.100071 
L 334.932696 257.980803 
L 335.316215 263.285222 
L 336.466774 257.641359 
L 337.233813 237.068464 
L 337.617333 226.735729 
L 338.000853 226.859163 
L 342.603088 226.859163 
L 342.986608 224.586429 
L 343.370127 228.298775 
L 344.520686 225.071619 
L 344.904206 216.341381 
L 345.287725 217.190464 
L 346.054764 215.65988 
L 347.205323 218.100197 
L 347.588843 212.099155 
L 347.972363 210.930867 
L 348.355882 211.082489 
L 348.739402 206.294425 
L 349.889961 207.445156 
L 350.27348 205.809234 
L 350.657 210.839894 
L 351.040519 211.021841 
L 351.424039 211.674613 
L 352.574598 214.159619 
L 352.958117 206.688642 
L 353.341637 205.809234 
L 353.725157 202.671455 
L 354.108676 204.925038 
L 355.259235 206.932833 
L 355.642755 207.877678 
L 356.026274 207.374931 
L 356.409794 205.197958 
L 357.943872 200.373184 
L 358.327392 201.453691 
L 358.710912 200.6477 
L 359.094431 197.771669 
L 360.62851 205.518758 
L 361.395549 198.27282 
L 361.779068 189.826673 
L 362.162588 186.538869 
L 363.313147 190.450718 
L 363.696667 190.32942 
L 364.080186 188.776491 
L 364.463706 190.800246 
L 364.847225 195.000975 
L 366.381304 190.511366 
L 366.764823 182.536046 
L 367.148343 182.004571 
L 367.531863 184.073015 
L 368.682421 181.77634 
L 369.065941 182.689264 
L 369.449461 196.964082 
L 369.83298 192.064296 
L 370.2165 203.570016 
L 371.367059 194.194984 
L 371.750578 186.098367 
L 372.134098 185.641904 
L 372.517618 179.035971 
L 372.901137 176.723336 
L 374.051696 172.461958 
L 374.818735 173.116327 
L 375.202255 172.157118 
L 375.585774 169.218842 
L 377.119853 169.737549 
L 377.503372 169.600291 
L 377.886892 172.141157 
L 378.270412 173.19134 
L 379.42097 177.757558 
L 379.80449 177.04254 
L 380.18801 170.54354 
L 380.571529 184.910927 
L 380.955049 187.909851 
L 382.105608 173.876033 
L 382.489127 178.5029 
L 383.256167 193.479967 
L 383.639686 182.93186 
L 384.790245 185.839811 
L 385.173765 177.545287 
L 385.557284 173.876033 
L 385.940804 167.865415 
L 386.324323 167.057828 
L 387.474882 163.481144 
L 387.858402 164.242446 
L 388.241921 162.188366 
L 388.625441 170.985638 
L 389.008961 172.086893 
L 390.15952 167.338728 
L 390.543039 172.056568 
L 390.926559 175.081029 
L 391.310078 171.751728 
L 391.693598 162.16283 
L 392.844157 162.46767 
L 393.227676 164.071672 
L 393.611196 161.628163 
L 393.994716 155.092454 
L 395.528794 146.312739 
L 395.912314 146.679824 
L 396.295833 145.961614 
L 396.679353 145.961614 
L 397.062872 141.447101 
L 398.213431 141.219945 
L 398.596951 139.364579 
L 398.980471 141.507464 
L 399.36399 134.79129 
L 399.74751 132.678587 
L 400.898069 135.793633 
L 401.281588 140.412988 
L 401.665108 134.486299 
L 402.048627 140.262081 
L 402.432147 133.468071 
L 403.582706 132.14644 
L 404.349745 132.465728 
L 404.733265 128.422999 
L 405.116784 132.618224 
L 406.267343 131.248938 
L 406.650863 135.170942 
L 407.034382 134.972379 
L 407.801422 125.292067 
L 408.95198 131.644474 
L 409.3355 137.313827 
L 409.71902 150.687398 
L 410.102539 143.286582 
L 410.486059 133.711111 
L 411.636618 135.323438 
L 412.020137 140.764046 
L 412.403657 142.404965 
L 412.787176 135.687204 
L 413.170696 136.203466 
L 414.321255 129.774811 
L 414.704774 131.188575 
L 415.088294 129.927307 
L 415.471814 129.593722 
L 415.855333 128.45318 
L 417.389412 129.015509 
L 417.772931 128.013166 
L 418.156451 130.383206 
L 418.539971 124.562946 
L 419.690529 125.185638 
L 420.074049 125.049027 
L 420.457569 126.006892 
L 420.841088 123.028457 
L 421.224608 121.964162 
L 422.375167 120.520217 
L 422.758686 121.705237 
L 423.142206 125.307952 
L 423.525725 125.520811 
L 423.909245 134.171776 
L 425.443324 121.684587 
L 425.826843 122.461362 
L 426.210363 118.650554 
L 426.593882 116.34723 
L 428.51148 114.13604 
L 428.895 110.523794 
L 429.27852 105.507314 
L 430.812598 106.711396 
L 431.196118 104.377892 
L 431.579637 109.775611 
L 431.963157 102.762388 
L 433.113716 100.384406 
L 433.497235 102.655959 
L 433.880755 101.664736 
L 434.264275 103.936289 
L 434.647794 109.135446 
L 435.798353 118.847528 
L 436.181873 109.562752 
L 436.565392 104.241281 
L 436.948912 102.854521 
L 437.332431 96.023976 
L 438.48299 94.376703 
L 438.86651 97.440917 
L 439.250029 97.715728 
L 439.633549 94.94062 
L 440.017069 98.203397 
L 441.167627 99.606041 
L 441.551147 94.178141 
L 441.934667 97.486984 
L 442.318186 93.248869 
L 442.701706 92.135331 
L 443.852265 92.683363 
L 444.235784 91.846224 
L 445.386343 86.905993 
L 446.536902 85.304786 
L 446.920422 89.771645 
L 447.303941 97.181992 
L 447.687461 96.144702 
L 448.07098 90.808935 
L 449.221539 84.863183 
L 449.605059 83.779827 
L 449.988578 82.347001 
L 450.372098 86.386554 
L 450.755618 80.304192 
L 451.906177 77.284455 
L 452.289696 78.30586 
L 452.673216 77.940505 
L 453.056735 75.821448 
L 453.440255 75.98824 
L 454.974333 78.458356 
L 455.357853 79.297083 
L 455.741373 82.240572 
L 456.124892 87.636702 
L 457.275451 85.898885 
L 457.658971 89.573082 
L 458.04249 83.916438 
L 458.42601 84.999794 
L 458.809529 91.641308 
L 459.960088 102.898999 
L 460.343608 103.526456 
L 461.110647 88.918621 
L 461.494167 87.801906 
L 462.644726 89.74464 
L 463.028245 103.388257 
L 463.411765 102.271542 
L 463.795284 110.393537 
L 464.178804 102.592419 
L 465.329363 111.159193 
L 465.712882 104.336591 
L 466.096402 101.583722 
L 466.479922 95.831768 
L 466.863441 97.0565 
L 468.39752 103.540753 
L 468.781039 101.154828 
L 469.164559 89.959088 
L 469.548079 84.804409 
L 471.465677 84.804409 
L 471.849196 83.025962 
L 472.232716 83.025962 
L 473.383275 79.360472 
L 473.766794 78.74146 
L 474.150314 81.789505 
L 474.533833 75.179401 
L 474.917353 73.77683 
L 476.067912 72.584253 
L 476.451431 69.777544 
L 477.218471 62.217766 
L 477.60199 59.773061 
L 478.752549 59.169721 
L 479.136069 61.507861 
L 479.519588 67.182396 
L 479.903108 66.955164 
L 480.286628 61.673976 
L 481.437186 61.432639 
L 481.820706 58.641602 
L 482.204226 60.36073 
L 482.587745 57.961472 
L 482.971265 59.229271 
L 484.121824 61.221078 
L 484.505343 60.285509 
L 484.888863 58.400266 
L 485.655902 74.198385 
L 486.806461 65.703037 
L 487.189981 79.344801 
L 487.5735 86.979801 
L 487.95702 76.567867 
L 488.340539 82.574632 
L 489.491098 74.471063 
L 489.874618 60.150737 
L 490.258137 58.279597 
L 490.641657 63.062442 
L 491.025177 56.438234 
L 492.175735 62.730213 
L 492.559255 67.574176 
L 492.942775 56.649794 
L 493.709814 70.402824 
L 494.860373 77.807458 
L 495.243892 65.572966 
L 495.627412 58.561679 
L 496.010932 54.154942 
L 497.54501 44.068969 
L 497.92853 44.659773 
L 498.312049 43.73674 
L 499.079088 47.552673 
L 500.229647 43.387273 
L 500.613167 43.630176 
L 500.996686 57.516411 
L 501.380206 58.182436 
L 501.763726 60.984444 
L 502.914285 61.86203 
L 503.297804 55.441546 
L 503.681324 53.518692 
L 504.064843 63.346091 
L 504.448363 63.057741 
L 505.982441 75.521032 
L 506.749481 90.270749 
L 507.133 103.550509 
L 508.283559 100.734398 
L 508.667079 108.866175 
L 509.050598 110.51635 
L 509.434118 113.757151 
L 509.817637 97.539044 
L 510.968196 85.48477 
L 512.118755 85.48477 
L 512.502275 82.28179 
L 514.803392 82.28179 
L 515.186912 95.780817 
L 517.48803 95.780817 
L 517.871549 100.126444 
L 519.789147 100.126444 
L 520.172667 90.092738 
L 520.556187 75.161549 
L 521.706745 76.930857 
L 522.090265 76.930857 
L 522.473785 64.237541 
L 523.240824 64.237541 
L 524.391383 84.947096 
L 525.925461 84.947096 
L 527.07602 89.929858 
L 530.527696 89.929858 
L 530.911216 79.727587 
L 533.979373 79.727587 
L 535.129932 73.841101 
L 535.896971 89.437707 
L 536.28049 86.02414 
L 536.66401 87.844396 
L 537.814569 99.449898 
L 538.198089 101.922817 
L 538.581608 94.306853 
L 538.965128 102.681909 
L 540.499206 102.40801 
L 540.882726 91.682116 
L 541.266245 92.18296 
L 541.649765 102.271843 
L 542.033285 120.507273 
L 543.183843 116.760331 
L 543.567363 135.587383 
L 543.950883 133.812515 
L 544.334402 117.821495 
L 544.717922 141.807243 
L 545.868481 138.04465 
L 546.252 135.16323 
L 546.63552 115.926112 
L 547.01904 139.06199 
L 547.402559 142.808932 
L 552.004794 142.808932 
L 552.388314 146.62995 
L 556.990549 146.62995 
L 557.374069 151.645038 
L 558.141108 151.645038 
L 559.291667 149.77315 
L 560.058706 149.77315 
L 560.825745 181.916626 
L 561.976304 204.124311 
L 562.359824 205.821043 
L 562.743343 197.821941 
L 563.126863 216.654739 
L 563.510383 215.468885 
L 565.044461 201.588501 
L 565.427981 202.613352 
L 572.714853 202.613352 
L 573.098373 207.606552 
L 578.851167 207.606552 
L 579.618206 192.337538 
L 580.768765 194.037915 
L 581.152285 197.818281 
L 581.535804 188.906701 
L 581.919324 189.296341 
L 582.302844 190.273305 
L 583.453402 190.942283 
L 583.836922 193.229985 
L 584.220442 181.18123 
L 584.603961 181.18123 
L 584.987481 171.265467 
L 586.13804 168.811595 
L 586.521559 167.63981 
L 586.905079 171.892902 
L 587.288598 170.163875 
L 587.672118 178.183008 
L 588.822677 190.440908 
L 589.206196 191.83473 
L 589.589716 189.993968 
L 589.973236 181.850207 
L 590.356755 201.653083 
L 591.507314 205.390475 
L 591.890834 211.553089 
L 592.274353 215.778963 
L 592.657873 214.049936 
L 593.041393 219.878777 
L 594.575471 221.943009 
L 594.958991 212.153306 
L 595.34251 208.527649 
L 595.72603 199.853863 
L 596.876589 193.76001 
L 597.260108 218.679775 
L 597.643628 216.588325 
L 598.027147 222.835456 
L 598.410667 226.985408 
L 599.561226 222.799644 
L 599.944746 229.04391 
L 600.328265 238.42535 
L 600.711785 242.864667 
L 601.095304 251.644458 
L 602.629383 258.043434 
L 603.012902 248.031694 
L 603.779942 266.724382 
L 604.9305 253.521032 
L 605.31402 237.613123 
L 606.081059 237.613123 
L 606.464579 252.375577 
L 608.765697 252.375577 
L 609.149216 264.09994 
L 611.833853 264.09994 
L 612.984412 257.948985 
L 618.353687 257.948985 
L 618.737206 255.203622 
L 619.120726 265.742583 
L 619.504246 238.210865 
L 619.887765 233.095503 
L 621.038324 237.63412 
L 621.421844 233.121532 
L 621.805363 237.192998 
L 622.188883 238.813639 
L 622.572402 236.416242 
L 623.722961 238.345119 
L 624.106481 231.233752 
L 624.49 227.859586 
L 625.25704 227.980141 
L 626.407599 236.576525 
L 626.791118 237.487536 
L 627.174638 220.815346 
L 627.558157 221.216739 
L 627.941677 221.846912 
L 629.092236 231.648845 
L 629.475755 239.361616 
L 629.859275 240.258928 
L 630.242795 236.135404 
L 630.626314 240.098645 
L 631.776873 232.506428 
L 632.160393 228.46236 
L 632.543912 231.903654 
L 632.927432 244.986597 
L 633.310952 251.145854 
L 634.46151 255.518708 
L 634.84503 254.818668 
L 635.22855 247.164804 
L 635.612069 254.576188 
L 635.995589 251.630814 
L 637.529667 253.662437 
L 637.913187 260.038146 
L 638.296706 250.917074 
L 638.680226 252.276056 
L 640.214304 254.441934 
L 640.597824 250.486912 
L 640.981344 256.379032 
L 641.364863 244.67562 
L 642.515422 244.971527 
L 642.898942 241.312413 
L 643.282461 234.666826 
L 644.049501 230.658377 
L 645.583579 231.640625 
L 645.967099 240.089055 
L 646.350618 243.922152 
L 646.734138 234.183237 
L 647.884697 227.792459 
L 648.268216 228.370574 
L 648.651736 228.169193 
L 649.035255 222.249675 
L 649.418775 220.998918 
L 650.569334 227.847256 
L 651.719893 206.066554 
L 652.103412 212.0258 
L 653.253971 215.416406 
L 653.637491 208.206403 
L 654.40453 219.102919 
L 654.78805 217.824763 
L 655.938608 211.380557 
L 656.322128 211.636737 
L 656.705648 209.833893 
L 657.089167 217.501457 
L 657.472687 218.874138 
L 659.006765 229.863811 
L 659.390285 230.604949 
L 659.773805 227.75273 
L 660.157324 233.510595 
L 661.307883 231.694053 
L 662.074922 235.716201 
L 662.458442 231.585827 
L 662.841961 223.003143 
L 663.99252 222.626409 
L 664.37604 230.967984 
L 664.759559 230.092591 
L 665.526599 247.594966 
L 666.677157 248.334734 
L 667.060677 239.765749 
L 667.444197 243.061829 
L 667.827716 233.87363 
L 668.211236 240.104125 
L 669.361795 235.03945 
L 669.745314 228.058227 
L 670.128834 237.240946 
L 670.512354 235.809357 
L 670.895873 232.325596 
L 672.046432 231.326908 
L 672.429952 232.528347 
L 672.813471 224.763518 
L 673.196991 221.590733 
L 673.58051 213.90673 
L 674.731069 211.79976 
L 675.114589 214.879389 
L 675.498108 216.323307 
L 675.881628 214.176608 
L 677.799226 213.461499 
L 678.182746 215.716423 
L 678.566265 208.396825 
L 678.949785 209.761286 
L 680.100344 207.762542 
L 680.483863 207.398137 
L 680.867383 207.492663 
L 681.250903 210.543523 
L 681.634422 210.111991 
L 682.784981 209.531136 
L 683.168501 218.37685 
L 683.55202 220.698901 
L 683.93554 209.828414 
L 684.319059 205.074716 
L 685.469618 205.641872 
L 685.853138 211.947713 
L 686.620177 219.659115 
L 687.003697 209.531136 
L 688.154256 209.383183 
L 688.537775 211.827158 
L 688.921295 209.233859 
L 689.688334 210.935326 
L 690.838893 209.017408 
L 691.222412 212.745019 
L 691.989452 200.618296 
L 692.372971 201.443001 
L 693.52353 201.21285 
L 693.90705 207.55979 
L 694.290569 211.610708 
L 694.674089 206.803582 
L 695.057609 199.552481 
L 696.591687 199.33603 
L 696.975207 202.482786 
L 697.358726 197.120835 
L 697.742246 188.883375 
L 698.892805 189.991658 
L 699.276324 188.735422 
L 699.659844 190.734167 
L 700.043363 187.250405 
L 700.426883 186.210619 
L 701.577442 180.943193 
L 701.960961 177.081328 
L 702.344481 176.379918 
L 702.728001 169.060319 
L 703.11152 171.096053 
L 704.645599 174.186641 
L 705.029118 177.222432 
L 705.412638 175.094912 
L 705.796158 179.567772 
L 706.946716 181.96654 
L 707.330236 175.555213 
L 707.713756 175.256565 
L 708.097275 172.926295 
L 708.480795 165.917673 
L 709.631354 165.227222 
L 710.398393 166.121794 
L 710.781912 170.824804 
L 711.165432 172.329 
L 712.315991 170.824804 
L 713.08303 162.205131 
L 713.46655 157.406225 
L 713.850069 157.785699 
L 715.000628 155.671879 
L 715.384148 151.130523 
L 715.767667 149.761951 
L 716.151187 153.855337 
L 716.534707 153.855337 
L 717.685265 151.116823 
L 718.068785 149.435905 
L 718.452305 149.341379 
L 718.835824 153.434765 
L 719.219344 147.43031 
L 720.369903 146.25079 
L 720.753422 148.027605 
L 721.136942 156.633578 
L 721.520462 158.381624 
L 721.903981 161.133837 
L 723.05454 155.847232 
L 723.43806 158.504919 
L 723.821579 162.570906 
L 724.205099 162.353085 
L 724.588618 162.70653 
L 725.739177 159.372092 
L 726.122697 166.446471 
L 726.889736 175.39219 
L 727.273256 175.108612 
L 728.423814 171.259076 
L 728.807334 172.871497 
L 729.190854 166.257419 
L 729.574373 174.579814 
L 729.957893 170.404232 
L 731.108452 166.623193 
L 731.491971 157.948722 
L 731.875491 155.440359 
L 732.259011 156.336301 
L 732.64253 155.19651 
L 734.176609 157.840497 
L 734.560128 161.933883 
L 734.943648 163.790154 
L 735.327167 162.881882 
L 736.477726 158.910421 
L 736.861246 162.244859 
L 737.244765 161.540709 
L 737.628285 156.322602 
L 738.011805 163.676449 
L 739.162364 163.323004 
L 739.545883 164.57376 
L 739.929403 170.109695 
L 740.312922 179.971905 
L 740.696442 181.291159 
L 741.847001 178.829373 
L 742.23052 187.466856 
L 742.61404 187.235335 
L 744.531638 187.235335 
L 744.915158 194.992749 
L 748.366834 194.992749 
L 748.750354 197.84125 
L 750.667952 197.84125 
L 751.051471 202.839989 
L 753.352589 202.839989 
L 753.736109 209.59457 
L 754.119628 212.119545 
L 755.270187 205.487404 
L 758.721864 205.487404 
L 759.105383 209.864649 
L 759.488903 209.864649 
L 760.639462 210.395464 
L 761.022981 210.395464 
L 761.406501 209.217859 
L 762.17354 207.841698 
L 763.324099 203.539634 
L 763.707619 204.76719 
L 764.091138 202.596801 
L 764.858177 202.249639 
L 766.008736 203.26615 
L 766.392256 202.707943 
L 766.775775 203.105057 
L 767.159295 200.885966 
L 767.542815 197.537974 
L 768.693373 200.526316 
L 769.076893 200.637458 
L 769.460413 202.918988 
L 769.843932 198.616924 
L 770.227452 196.1743 
L 771.378011 193.955209 
L 771.76153 191.339005 
L 772.14505 183.402976 
L 772.52857 181.531048 
L 772.912089 182.49511 
L 774.062648 179.208308 
L 774.446168 175.635534 
L 774.829687 183.826314 
L 775.213207 178.299192 
L 775.596726 177.116593 
L 777.130805 174.626515 
L 777.514324 173.556307 
L 777.897844 173.331525 
L 778.281364 175.049854 
L 778.281364 175.049854 
" clip-path="url(#p8a14d5aa94)" style="fill: none; stroke: #d62728; stroke-width: 1.5; stroke-linecap: square"/>
   </g>
   <g id="patch_3">
    <path d="M 44.57 390.04 
L 44.57 26.88 
" style="fill: none; stroke: #000000; stroke-width: 0.8; stroke-linejoin: miter; stroke-linecap: square"/>
   </g>
   <g id="patch_4">
    <path d="M 813.22 390.04 
L 813.22 26.88 
" style="fill: none; stroke: #000000; stroke-width: 0.8; stroke-linejoin: miter; stroke-linecap: square"/>
   </g>
   <g id="patch_5">
    <path d="M 44.57 390.04 
L 813.22 390.04 
" style="fill: none; stroke: #000000; stroke-width: 0.8; stroke-linejoin: miter; stroke-linecap: square"/>
   </g>
   <g id="patch_6">
    <path d="M 44.57 26.88 
L 813.22 26.88 
" style="fill: none; stroke: #000000; stroke-width: 0.8; stroke-linejoin: miter; stroke-linecap: square"/>
   </g>
  </g>
  <g id="axes_2">
   <g id="matplotlib.axis_3">
    <g id="ytick_6">
     <g id="line2d_24">
      <defs>
       <path id="m0955aa8fa3" d="M 0 0 
L 3.5 0 
" style="stroke: #000000; stroke-width: 0.8"/>
      </defs>
      <g>
       <use xlink:href="#m0955aa8fa3" x="813.22" y="385.894467" style="stroke: #000000; stroke-width: 0.8"/>
      </g>
     </g>
     <g id="text_14">
      <!-- 200 -->
      <g style="fill: #1f77b4" transform="translate(820.22 389.693686) scale(0.1 -0.1)">
       <use xlink:href="#DejaVuSans-32"/>
       <use xlink:href="#DejaVuSans-30" x="63.623047"/>
       <use xlink:href="#DejaVuSans-30" x="127.246094"/>
      </g>
     </g>
    </g>
    <g id="ytick_7">
     <g id="line2d_25">
      <g>
       <use xlink:href="#m0955aa8fa3" x="813.22" y="323.668855" style="stroke: #000000; stroke-width: 0.8"/>
      </g>
     </g>
     <g id="text_15">
      <!-- 250 -->
      <g style="fill: #1f77b4" transform="translate(820.22 327.468074) scale(0.1 -0.1)">
       <defs>
        <path id="DejaVuSans-35" d="M 691 4666 
L 3169 4666 
L 3169 4134 
L 1269 4134 
L 1269 2991 
Q 1406 3038 1543 3061 
Q 1681 3084 1819 3084 
Q 2600 3084 3056 2656 
Q 3513 2228 3513 1497 
Q 3513 744 3044 326 
Q 2575 -91 1722 -91 
Q 1428 -91 1123 -41 
Q 819 9 494 109 
L 494 744 
Q 775 591 1075 516 
Q 1375 441 1709 441 
Q 2250 441 2565 725 
Q 2881 1009 2881 1497 
Q 2881 1984 2565 2268 
Q 2250 2553 1709 2553 
Q 1456 2553 1204 2497 
Q 953 2441 691 2322 
L 691 4666 
z
" transform="scale(0.015625)"/>
       </defs>
       <use xlink:href="#DejaVuSans-32"/>
       <use xlink:href="#DejaVuSans-35" x="63.623047"/>
       <use xlink:href="#DejaVuSans-30" x="127.246094"/>
      </g>
     </g>
    </g>
    <g id="ytick_8">
     <g id="line2d_26">
      <g>
       <use xlink:href="#m0955aa8fa3" x="813.22" y="261.443242" style="stroke: #000000; stroke-width: 0.8"/>
      </g>
     </g>
     <g id="text_16">
      <!-- 300 -->
      <g style="fill: #1f77b4" transform="translate(820.22 265.242461) scale(0.1 -0.1)">
       <use xlink:href="#DejaVuSans-33"/>
       <use xlink:href="#DejaVuSans-30" x="63.623047"/>
       <use xlink:href="#DejaVuSans-30" x="127.246094"/>
      </g>
     </g>
    </g>
    <g id="ytick_9">
     <g id="line2d_27">
      <g>
       <use xlink:href="#m0955aa8fa3" x="813.22" y="199.21763" style="stroke: #000000; stroke-width: 0.8"/>
      </g>
     </g>
     <g id="text_17">
      <!-- 350 -->
      <g style="fill: #1f77b4" transform="translate(820.22 203.016849) scale(0.1 -0.1)">
       <use xlink:href="#DejaVuSans-33"/>
       <use xlink:href="#DejaVuSans-35" x="63.623047"/>
       <use xlink:href="#DejaVuSans-30" x="127.246094"/>
      </g>
     </g>
    </g>
    <g id="ytick_10">
     <g id="line2d_28">
      <g>
       <use xlink:href="#m0955aa8fa3" x="813.22" y="136.992017" style="stroke: #000000; stroke-width: 0.8"/>
      </g>
     </g>
     <g id="text_18">
      <!-- 400 -->
      <g style="fill: #1f77b4" transform="translate(820.22 140.791236) scale(0.1 -0.1)">
       <use xlink:href="#DejaVuSans-34"/>
       <use xlink:href="#DejaVuSans-30" x="63.623047"/>
       <use xlink:href="#DejaVuSans-30" x="127.246094"/>
      </g>
     </g>
    </g>
    <g id="ytick_11">
     <g id="line2d_29">
      <g>
       <use xlink:href="#m0955aa8fa3" x="813.22" y="74.766405" style="stroke: #000000; stroke-width: 0.8"/>
      </g>
     </g>
     <g id="text_19">
      <!-- 450 -->
      <g style="fill: #1f77b4" transform="translate(820.22 78.565623) scale(0.1 -0.1)">
       <use xlink:href="#DejaVuSans-34"/>
       <use xlink:href="#DejaVuSans-35" x="63.623047"/>
       <use xlink:href="#DejaVuSans-30" x="127.246094"/>
      </g>
     </g>
    </g>
    <g id="text_20">
     <!-- Close Price -->
     <g style="fill: #1f77b4" transform="translate(850.905938 235.867812) rotate(-90) scale(0.1 -0.1)">
      <defs>
       <path id="DejaVuSans-43" d="M 4122 4306 
L 4122 3641 
Q 3803 3938 3442 4084 
Q 3081 4231 2675 4231 
Q 1875 4231 1450 3742 
Q 1025 3253 1025 2328 
Q 1025 1406 1450 917 
Q 1875 428 2675 428 
Q 3081 428 3442 575 
Q 3803 722 4122 1019 
L 4122 359 
Q 3791 134 3420 21 
Q 3050 -91 2638 -91 
Q 1578 -91 968 557 
Q 359 1206 359 2328 
Q 359 3453 968 4101 
Q 1578 4750 2638 4750 
Q 3056 4750 3426 4639 
Q 3797 4528 4122 4306 
z
" transform="scale(0.015625)"/>
       <path id="DejaVuSans-6c" d="M 603 4863 
L 1178 4863 
L 1178 0 
L 603 0 
L 603 4863 
z
" transform="scale(0.015625)"/>
       <path id="DejaVuSans-6f" d="M 1959 3097 
Q 1497 3097 1228 2736 
Q 959 2375 959 1747 
Q 959 1119 1226 758 
Q 1494 397 1959 397 
Q 2419 397 2687 759 
Q 2956 1122 2956 1747 
Q 2956 2369 2687 2733 
Q 2419 3097 1959 3097 
z
M 1959 3584 
Q 2709 3584 3137 3096 
Q 3566 2609 3566 1747 
Q 3566 888 3137 398 
Q 2709 -91 1959 -91 
Q 1206 -91 779 398 
Q 353 888 353 1747 
Q 353 2609 779 3096 
Q 1206 3584 1959 3584 
z
" transform="scale(0.015625)"/>
       <path id="DejaVuSans-50" d="M 1259 4147 
L 1259 2394 
L 2053 2394 
Q 2494 2394 2734 2622 
Q 2975 2850 2975 3272 
Q 2975 3691 2734 3919 
Q 2494 4147 2053 4147 
L 1259 4147 
z
M 628 4666 
L 2053 4666 
Q 2838 4666 3239 4311 
Q 3641 3956 3641 3272 
Q 3641 2581 3239 2228 
Q 2838 1875 2053 1875 
L 1259 1875 
L 1259 0 
L 628 0 
L 628 4666 
z
" transform="scale(0.015625)"/>
       <path id="DejaVuSans-69" d="M 603 3500 
L 1178 3500 
L 1178 0 
L 603 0 
L 603 3500 
z
M 603 4863 
L 1178 4863 
L 1178 4134 
L 603 4134 
L 603 4863 
z
" transform="scale(0.015625)"/>
       <path id="DejaVuSans-63" d="M 3122 3366 
L 3122 2828 
Q 2878 2963 2633 3030 
Q 2388 3097 2138 3097 
Q 1578 3097 1268 2742 
Q 959 2388 959 1747 
Q 959 1106 1268 751 
Q 1578 397 2138 397 
Q 2388 397 2633 464 
Q 2878 531 3122 666 
L 3122 134 
Q 2881 22 2623 -34 
Q 2366 -91 2075 -91 
Q 1284 -91 818 406 
Q 353 903 353 1747 
Q 353 2603 823 3093 
Q 1294 3584 2113 3584 
Q 2378 3584 2631 3529 
Q 2884 3475 3122 3366 
z
" transform="scale(0.015625)"/>
      </defs>
      <use xlink:href="#DejaVuSans-43"/>
      <use xlink:href="#DejaVuSans-6c" x="69.824219"/>
      <use xlink:href="#DejaVuSans-6f" x="97.607422"/>
      <use xlink:href="#DejaVuSans-73" x="158.789062"/>
      <use xlink:href="#DejaVuSans-65" x="210.888672"/>
      <use xlink:href="#DejaVuSans-20" x="272.412109"/>
      <use xlink:href="#DejaVuSans-50" x="304.199219"/>
      <use xlink:href="#DejaVuSans-72" x="362.751953"/>
      <use xlink:href="#DejaVuSans-69" x="403.865234"/>
      <use xlink:href="#DejaVuSans-63" x="431.648438"/>
      <use xlink:href="#DejaVuSans-65" x="486.628906"/>
     </g>
    </g>
   </g>
   <g id="line2d_30">
    <path d="M 79.508636 348.754488 
L 79.892156 355.579394 
L 80.275676 346.226884 
L 81.426234 343.951916 
L 81.809754 341.218967 
L 82.576793 338.807102 
L 82.960313 338.692607 
L 84.110872 340.499639 
L 84.494391 337.125766 
L 84.877911 336.406438 
L 85.26143 334.141425 
L 85.64495 330.140319 
L 87.179029 334.255921 
L 87.562548 333.627442 
L 87.946068 333.4669 
L 88.329587 330.918139 
L 89.480146 333.227954 
L 89.863666 333.627442 
L 90.247185 328.859715 
L 90.630705 326.172814 
L 91.014225 326.024717 
L 92.164783 323.851798 
L 92.548303 322.548794 
L 92.931823 322.960727 
L 93.315342 325.932623 
L 93.698862 325.555535 
L 94.849421 325.383793 
L 95.23294 321.405087 
L 95.61646 320.387076 
L 95.99998 321.085247 
L 96.383499 317.666572 
L 97.917578 317.117742 
L 98.301097 316.476819 
L 98.684617 317.609325 
L 99.068136 315.642995 
L 100.218695 315.208661 
L 100.985734 315.574547 
L 101.369254 316.16818 
L 101.752774 314.179449 
L 103.286852 315.779892 
L 103.670372 317.712619 
L 104.053891 320.364675 
L 104.437411 320.993154 
L 106.355009 313.127836 
L 106.738529 313.333181 
L 107.122048 311.745183 
L 108.272607 310.574097 
L 108.656127 310.493204 
L 109.039646 311.468901 
L 109.423166 307.817502 
L 109.806685 314.111001 
L 110.957244 314.351192 
L 111.340764 311.962973 
L 111.724284 313.651776 
L 112.107803 312.434643 
L 112.491323 310.40111 
L 113.641882 306.554322 
L 114.025401 306.39378 
L 114.408921 305.876063 
L 114.79244 305.00366 
L 115.17596 303.408195 
L 116.326519 303.155559 
L 116.710038 304.854319 
L 117.093558 303.72928 
L 117.477078 303.821374 
L 117.860597 301.581251 
L 119.011156 301.800286 
L 119.394676 301.581251 
L 119.778195 302.397651 
L 120.161715 301.743038 
L 121.695793 301.455556 
L 122.079313 298.457526 
L 122.462833 299.204233 
L 122.846352 299.410822 
L 123.229872 297.848959 
L 124.76395 297.149543 
L 125.14747 299.687104 
L 125.530989 300.410165 
L 125.914509 297.137098 
L 127.065068 298.527218 
L 127.448587 304.142458 
L 127.832107 304.601683 
L 128.215627 305.601026 
L 128.599146 303.947069 
L 129.749705 312.261656 
L 130.133225 309.344519 
L 130.516744 307.437926 
L 130.900264 304.406294 
L 131.283784 306.543122 
L 132.434342 308.713551 
L 132.817862 305.772769 
L 133.201382 306.783313 
L 133.584901 310.791887 
L 133.968421 310.05638 
L 135.502499 313.076811 
L 135.886019 315.23604 
L 136.269538 314.363637 
L 136.653058 318.68085 
L 137.803617 319.484805 
L 138.187137 312.641232 
L 139.337695 304.463542 
L 140.488254 302.947726 
L 140.871774 303.028619 
L 141.255293 303.614784 
L 141.638813 302.24831 
L 142.022333 302.615441 
L 143.172891 302.488501 
L 143.556411 299.008845 
L 143.939931 298.250937 
L 144.32345 295.036362 
L 144.70697 295.530433 
L 145.857529 295.944855 
L 146.241048 299.268948 
L 146.624568 299.603721 
L 147.008088 298.415212 
L 147.391607 296.684096 
L 148.925686 292.725302 
L 149.309205 289.991109 
L 150.076244 290.38313 
L 151.226803 292.276033 
L 151.610323 291.849166 
L 151.993842 290.210143 
L 152.377362 289.402455 
L 152.760882 287.855526 
L 153.91144 287.741031 
L 154.29496 288.859847 
L 154.67848 291.214464 
L 155.061999 289.956263 
L 155.445519 291.871567 
L 156.596078 291.029032 
L 156.979597 288.57112 
L 157.363117 286.944543 
L 157.746637 288.605967 
L 158.130156 286.286196 
L 159.280715 286.920897 
L 159.664235 287.774633 
L 160.431274 294.560958 
L 160.814793 297.122164 
L 161.965352 307.277384 
L 162.348872 302.683889 
L 162.732391 302.488501 
L 163.115911 295.968501 
L 163.499431 298.275827 
L 164.64999 302.372761 
L 165.033509 297.203057 
L 165.417029 307.18529 
L 165.800548 306.31911 
L 166.184068 301.472979 
L 167.334627 297.456938 
L 167.718146 300.04179 
L 168.101666 297.318797 
L 168.485186 297.422092 
L 168.868705 306.088875 
L 170.019264 302.453655 
L 170.402784 303.757903 
L 170.786303 301.426932 
L 171.169823 297.168211 
L 171.553342 297.318797 
L 173.087421 299.291349 
L 173.85446 291.121126 
L 174.23798 290.856045 
L 175.388539 290.683058 
L 175.772058 290.763951 
L 176.155578 288.31724 
L 176.539097 287.11753 
L 176.922617 287.347765 
L 178.073176 288.421779 
L 178.456695 287.544398 
L 178.840215 287.336564 
L 179.223735 287.36021 
L 179.607254 289.001722 
L 180.757813 289.082615 
L 181.141333 291.795652 
L 181.524852 289.765852 
L 181.908372 290.48518 
L 182.291892 292.340748 
L 183.44245 290.751506 
L 183.82597 294.844707 
L 184.20949 300.849478 
L 184.593009 298.11404 
L 184.976529 293.557881 
L 186.127088 295.030139 
L 186.510607 300.304382 
L 187.661166 291.320248 
L 188.811725 291.702313 
L 189.195244 288.306039 
L 189.578764 288.862336 
L 189.962284 287.841836 
L 190.345803 289.360141 
L 191.496362 287.019214 
L 191.879882 288.155453 
L 192.263401 287.146154 
L 192.646921 286.578656 
L 193.030441 285.152445 
L 194.180999 283.181138 
L 194.564519 283.285677 
L 194.948039 282.207929 
L 195.331558 283.146291 
L 195.715078 279.889403 
L 196.865637 278.463192 
L 197.249156 278.857702 
L 197.632676 278.776809 
L 198.399715 276.643715 
L 199.550274 277.326952 
L 199.933794 276.574022 
L 200.317313 276.458283 
L 200.700833 275.935587 
L 201.084352 273.339535 
L 202.234911 273.073209 
L 202.618431 273.176504 
L 203.00195 274.521822 
L 203.38547 275.101764 
L 203.76899 274.301543 
L 205.303068 270.68499 
L 205.686588 269.060902 
L 206.453627 270.41742 
L 207.604186 273.512522 
L 207.987705 275.935587 
L 208.371225 273.7216 
L 208.754745 273.073209 
L 209.138264 269.769029 
L 210.672343 271.322181 
L 211.055862 270.29048 
L 211.439382 267.148086 
L 211.822901 266.927808 
L 212.97346 264.401448 
L 213.740499 264.296909 
L 214.507539 261.147048 
L 215.658097 260.575817 
L 216.041617 260.564617 
L 216.808656 258.572153 
L 217.192176 258.665491 
L 218.342735 260.738848 
L 218.726254 259.830354 
L 219.493294 256.323319 
L 219.876813 259.189431 
L 221.027372 257.756997 
L 221.410892 258.817321 
L 222.177931 254.249962 
L 222.56145 255.345132 
L 223.712009 252.73539 
L 224.095529 253.317822 
L 224.479048 252.456619 
L 224.862568 249.275646 
L 225.246088 248.075936 
L 226.780166 248.8326 
L 227.163686 248.786553 
L 227.547205 248.343506 
L 227.930725 251.780849 
L 229.081284 257.920028 
L 229.464803 253.971191 
L 229.848323 254.284808 
L 230.231843 253.050252 
L 230.615362 259.982185 
L 231.765921 257.198211 
L 232.53296 247.015612 
L 232.91648 245.711363 
L 233.3 247.78472 
L 234.834078 244.219193 
L 235.217598 241.702789 
L 235.601117 242.12219 
L 235.984637 241.493711 
L 237.518715 242.506744 
L 237.902235 240.631264 
L 238.285754 242.250374 
L 239.819833 259.17823 
L 240.203352 270.560539 
L 240.586872 271.899634 
L 240.970392 288.197767 
L 241.353911 289.655091 
L 242.50447 274.707254 
L 242.88799 285.018038 
L 243.271509 270.31537 
L 243.655029 282.431941 
L 244.038549 288.256259 
L 245.189107 315.319422 
L 245.572627 298.788566 
L 245.956147 315.167592 
L 246.339666 345.748991 
L 246.723186 321.039201 
L 247.873745 355.37156 
L 248.257264 340.285582 
L 248.640784 355.197328 
L 249.024303 354.603696 
L 249.407823 366.677954 
L 250.558382 373.532727 
L 250.941902 349.862104 
L 251.325421 345.595916 
L 251.708941 328.710374 
L 252.09246 337.826426 
L 253.243019 328.182701 
L 253.626539 332.75255 
L 254.010058 346.346357 
L 254.393578 339.690706 
L 254.777098 343.955649 
L 255.927656 324.42054 
L 256.311176 324.104434 
L 256.694696 313.675422 
L 257.078215 308.788222 
L 258.612294 311.765095 
L 258.995813 302.238354 
L 259.379333 309.304694 
L 259.762853 307.73412 
L 260.146372 298.898083 
L 261.296931 304.815739 
L 261.680451 314.835307 
L 262.06397 307.73412 
L 262.44749 307.757766 
L 262.831009 303.199117 
L 263.981568 298.417701 
L 264.365088 299.96463 
L 264.748607 291.19953 
L 265.132127 294.397927 
L 265.515647 303.40944 
L 266.666205 302.495968 
L 267.049725 299.425756 
L 267.433245 301.698236 
L 267.816764 297.679706 
L 268.200284 292.101802 
L 269.350843 292.030864 
L 270.117882 304.804538 
L 270.501402 300.855701 
L 270.884921 299.319973 
L 272.03548 289.101283 
L 272.419 292.651876 
L 272.802519 286.840004 
L 273.186039 289.241912 
L 273.569558 288.586055 
L 275.103637 284.319867 
L 275.487156 279.10536 
L 275.870676 279.761218 
L 276.254196 278.179443 
L 277.404755 276.738298 
L 277.788274 273.77387 
L 278.171794 268.968808 
L 278.555313 269.929571 
L 278.938833 260.578306 
L 280.089392 256.055749 
L 280.856431 260.977795 
L 281.239951 282.527769 
L 281.62347 278.308872 
L 282.774029 274.981047 
L 283.157549 268.055336 
L 283.541068 269.578619 
L 283.924588 269.437989 
L 284.308107 271.526281 
L 285.458666 269.195309 
L 285.842186 267.512729 
L 286.225706 276.881417 
L 286.609225 273.044586 
L 286.992745 281.636698 
L 288.143304 276.445838 
L 288.526823 271.854832 
L 289.293862 267.299917 
L 290.827941 261.62743 
L 291.21146 265.476707 
L 291.59498 262.651664 
L 291.9785 264.769824 
L 292.362019 260.991484 
L 293.512578 264.228461 
L 294.279617 255.977345 
L 294.663137 257.22559 
L 296.197215 253.070164 
L 296.580735 252.258742 
L 296.964255 250.080845 
L 297.347774 254.670607 
L 297.731294 257.119807 
L 298.881853 254.365701 
L 299.265372 256.777566 
L 299.648892 252.129313 
L 300.032411 253.494543 
L 300.415931 250.481578 
L 301.56649 247.809611 
L 301.950009 246.314951 
L 302.717049 241.288366 
L 303.100568 241.005862 
L 304.251127 239.829798 
L 304.634647 243.089176 
L 305.018166 237.628256 
L 305.401686 238.346339 
L 305.785206 238.333894 
L 306.935764 237.074448 
L 307.319284 236.215734 
L 307.702804 237.874669 
L 308.469843 235.227592 
L 310.003921 229.765427 
L 310.387441 225.704584 
L 310.77096 224.811024 
L 311.15448 222.162702 
L 312.305039 223.657361 
L 312.688559 219.784439 
L 313.072078 213.782157 
L 313.455598 228.270768 
L 313.839117 231.589882 
L 315.373196 242.606305 
L 315.756715 234.861705 
L 316.140235 241.806084 
L 316.523755 241.606962 
L 318.057833 234.414925 
L 318.441353 236.004167 
L 318.824872 239.511203 
L 319.208392 244.062384 
L 320.358951 248.41071 
L 320.74247 244.475562 
L 321.12599 253.528144 
L 321.50951 252.511378 
L 321.893029 246.33113 
L 323.043588 239.878334 
L 323.427108 242.030096 
L 324.194147 236.510684 
L 324.577666 240.292757 
L 325.728225 233.296109 
L 326.111745 239.004686 
L 326.495264 232.115067 
L 327.262304 224.918052 
L 328.412862 218.324626 
L 329.179902 223.642427 
L 329.563421 224.150188 
L 329.946941 224.397846 
L 331.0975 230.637831 
L 331.481019 229.01872 
L 331.864539 229.786584 
L 332.248059 227.56513 
L 332.631578 226.182477 
L 333.782137 233.734177 
L 334.165657 235.11683 
L 334.549176 248.776597 
L 334.932696 244.853894 
L 335.316215 248.918471 
L 336.466774 244.593791 
L 337.233813 228.829554 
L 337.617333 220.911967 
L 338.000853 221.00655 
L 339.151412 215.806978 
L 339.534931 216.421767 
L 339.918451 213.31422 
L 340.30197 217.402443 
L 340.68549 211.624172 
L 341.836049 206.341218 
L 342.219568 208.646055 
L 342.603088 213.77469 
L 342.986608 212.002504 
L 343.370127 214.89724 
L 344.520686 212.380836 
L 344.904206 205.573354 
L 345.287725 206.235434 
L 346.054764 205.041947 
L 347.205323 206.944806 
L 347.588843 202.26544 
L 347.972363 201.354457 
L 348.355882 201.472686 
L 348.739402 197.739149 
L 349.889961 198.636443 
L 350.27348 197.360817 
L 350.657 201.28352 
L 351.040519 201.425394 
L 351.424039 201.9344 
L 352.574598 203.872106 
L 352.958117 198.046544 
L 353.341637 197.360817 
L 353.725157 194.914106 
L 354.108676 196.671358 
L 355.259235 198.236954 
L 355.642755 198.973705 
L 356.026274 198.581684 
L 356.409794 196.884169 
L 357.943872 193.122009 
L 358.327392 193.964544 
L 358.710912 193.336065 
L 359.094431 191.093454 
L 360.62851 197.134316 
L 361.395549 191.484231 
L 361.779068 184.898272 
L 362.162588 182.334577 
L 363.313147 185.384876 
L 363.696667 185.290293 
L 364.080186 184.079383 
L 364.463706 185.657424 
L 364.847225 188.932981 
L 366.381304 185.432168 
L 366.764823 179.21334 
L 367.148343 178.798917 
L 367.531863 180.411805 
L 368.682421 178.620952 
L 369.065941 179.332813 
L 369.449461 190.463731 
L 369.83298 186.643078 
L 370.2165 195.614767 
L 371.367059 188.304502 
L 371.750578 181.991091 
L 372.134098 181.635161 
L 372.517618 176.484124 
L 372.901137 174.680826 
L 374.051696 171.357979 
L 374.818735 171.868229 
L 375.202255 171.120277 
L 375.585774 168.82913 
L 377.119853 169.233596 
L 377.503372 169.126568 
L 377.886892 171.107832 
L 378.270412 171.926721 
L 379.42097 175.48727 
L 379.80449 174.929729 
L 380.18801 169.862075 
L 380.571529 181.065174 
L 380.955049 183.403613 
L 382.105608 172.460616 
L 382.489127 176.068457 
L 383.256167 187.74696 
L 383.639686 179.521979 
L 384.790245 181.78948 
L 385.173765 175.32175 
L 385.557284 172.460616 
L 385.940804 167.773783 
L 386.324323 167.14406 
L 387.474882 164.355108 
L 387.858402 164.94874 
L 388.241921 163.347053 
L 388.625441 170.206805 
L 389.008961 171.065518 
L 390.15952 167.363094 
L 390.543039 171.041872 
L 390.926559 173.400223 
L 391.310078 170.804171 
L 391.693598 163.327141 
L 392.844157 163.564843 
L 393.227676 164.815578 
L 393.611196 162.910229 
L 393.994716 157.813952 
L 395.528794 150.96789 
L 395.912314 151.254128 
L 396.295833 150.694097 
L 396.679353 148.396727 
L 397.062872 144.859824 
L 398.213431 144.681858 
L 398.596951 143.228268 
L 398.980471 144.907115 
L 399.36399 139.645317 
L 399.74751 137.990116 
L 400.898069 140.430605 
L 401.281588 144.049646 
L 401.665108 139.406371 
L 402.048627 143.931418 
L 402.432147 138.608639 
L 403.582706 137.573204 
L 404.349745 137.823351 
L 404.733265 134.656068 
L 405.116784 137.942825 
L 406.267343 136.870055 
L 406.650863 139.942756 
L 407.034382 139.787192 
L 407.801422 132.203134 
L 408.95198 137.179939 
L 409.3355 141.621603 
L 409.71902 152.099151 
L 410.102539 146.300969 
L 410.486059 138.799049 
L 411.636618 140.062229 
L 412.020137 144.324683 
L 412.403657 145.610265 
L 412.787176 140.347222 
L 413.170696 140.751689 
L 414.321255 135.715148 
L 414.704774 136.822764 
L 415.088294 135.834621 
L 415.471814 135.573273 
L 415.855333 134.679713 
L 417.389412 135.120271 
L 417.772931 134.334984 
L 418.156451 136.191796 
L 418.539971 131.631903 
L 419.690529 132.119752 
L 420.074049 132.012724 
L 420.457569 132.763165 
L 420.841088 130.429704 
L 421.224608 129.595881 
L 422.375167 128.464619 
L 422.758686 129.393025 
L 423.142206 132.215579 
L 423.525725 132.382344 
L 423.909245 139.159958 
L 425.443324 129.376847 
L 425.826843 129.985413 
L 426.210363 126.999828 
L 426.593882 125.195286 
L 428.51148 123.462925 
L 428.895 120.632904 
L 429.27852 116.702734 
L 430.812598 117.646074 
L 431.196118 115.817886 
L 431.579637 120.046738 
L 431.963157 114.552217 
L 433.113716 112.689182 
L 433.497235 114.468834 
L 433.880755 113.692259 
L 434.264275 115.471911 
L 434.647794 119.5452 
L 435.798353 127.154148 
L 436.181873 119.879974 
L 436.565392 115.710858 
L 436.948912 114.624399 
L 437.332431 109.272996 
L 438.48299 107.982437 
L 438.86651 110.383101 
L 439.250029 110.598401 
L 439.633549 108.424238 
L 440.017069 110.980467 
L 441.167627 112.079371 
L 441.551147 107.826873 
L 441.934667 110.419192 
L 442.318186 107.098833 
L 442.701706 106.22643 
L 443.852265 106.655787 
L 444.235784 105.999929 
L 445.386343 102.129496 
L 446.536902 100.875027 
L 446.920422 104.374596 
L 447.303941 110.180245 
L 447.687461 109.367579 
L 448.07098 105.187262 
L 449.221539 100.529053 
L 449.605059 99.680295 
L 449.988578 98.557745 
L 450.372098 101.72254 
L 450.755618 96.957303 
L 451.906177 94.591485 
L 452.289696 95.391706 
L 452.673216 95.105468 
L 453.056735 93.445289 
L 453.440255 93.575963 
L 455.357853 96.168282 
L 455.741373 98.474363 
L 456.124892 102.701971 
L 457.275451 101.340475 
L 457.658971 104.219032 
L 458.04249 99.787323 
L 458.42601 100.636081 
L 458.809529 105.839387 
L 459.960088 114.659245 
L 460.343608 115.150827 
L 461.110647 103.706293 
L 461.494167 102.8314 
L 462.644726 104.353439 
L 463.028245 115.042555 
L 463.411765 114.167663 
L 463.795284 120.530854 
L 464.178804 114.419054 
L 465.329363 121.130709 
L 465.712882 115.785528 
L 466.096402 113.628789 
L 466.479922 109.12241 
L 466.863441 110.081929 
L 468.39752 115.162028 
L 468.781039 113.29277 
L 469.164559 104.521448 
L 469.548079 100.483006 
L 470.698637 98.901231 
L 471.082157 94.765717 
L 471.465677 92.645068 
L 471.849196 91.231302 
L 472.232716 91.793821 
L 473.383275 88.882907 
L 473.766794 88.391325 
L 474.150314 90.811901 
L 474.533833 85.562548 
L 474.917353 84.44871 
L 476.067912 83.501636 
L 476.451431 81.272715 
L 477.218471 75.269188 
L 477.60199 73.327748 
L 478.752549 72.848611 
L 479.136069 74.705424 
L 479.519588 79.211802 
L 479.903108 79.031348 
L 480.286628 74.837342 
L 481.437186 74.645687 
L 481.820706 72.429211 
L 482.204226 73.794441 
L 482.587745 71.889092 
L 482.971265 72.895903 
L 484.121824 74.477678 
L 484.505343 73.734704 
L 484.888863 72.237556 
L 485.655902 84.783484 
L 486.806461 78.036983 
L 487.189981 88.870462 
L 487.5735 94.933726 
L 487.95702 86.665186 
L 488.340539 91.435402 
L 489.491098 85.000029 
L 489.874618 73.627676 
L 490.258137 72.141728 
L 490.641657 75.93998 
L 491.025177 70.679426 
L 492.175735 75.676143 
L 492.559255 79.52293 
L 492.942775 70.847436 
L 493.709814 81.769275 
L 494.860373 87.649595 
L 495.243892 77.933688 
L 495.627412 72.36574 
L 496.010932 68.866172 
L 497.54501 60.856491 
L 497.92853 61.325672 
L 498.312049 60.592655 
L 499.079088 63.623042 
L 500.229647 60.315128 
L 500.613167 60.508028 
L 500.996686 71.535651 
L 501.380206 72.064569 
L 501.763726 74.289756 
L 502.914285 74.986683 
L 503.297804 69.887917 
L 503.681324 68.3609 
L 504.064843 76.165236 
L 504.448363 75.936246 
L 505.982441 85.833852 
L 506.749481 97.547201 
L 507.133 108.093198 
L 508.283559 105.85681 
L 508.667079 112.314584 
L 509.050598 113.625055 
L 509.434118 116.198707 
L 509.817637 103.319249 
L 511.351716 90.091328 
L 511.735236 84.799662 
L 512.118755 97.727656 
L 512.502275 95.20254 
L 513.652834 96.933657 
L 514.036353 92.508171 
L 514.419873 84.571917 
L 515.186912 105.111347 
L 516.337471 106.842463 
L 516.72099 98.328755 
L 517.10451 97.727656 
L 517.48803 109.19957 
L 517.871549 112.603311 
L 519.405628 118.207349 
L 519.789147 127.370693 
L 520.172667 119.734366 
L 520.556187 108.370724 
L 521.706745 109.717287 
L 522.090265 117.714522 
L 522.473785 108.201471 
L 522.857304 110.823658 
L 523.240824 115.081135 
L 524.774902 134.225466 
L 525.158422 120.804646 
L 525.541941 123.125662 
L 525.925461 129.631972 
L 527.07602 133.323195 
L 527.843059 110.931931 
L 528.610098 98.567701 
L 529.760657 98.72451 
L 530.144177 92.452168 
L 530.527696 99.436371 
L 530.911216 91.366954 
L 531.294736 88.712409 
L 532.445294 84.828286 
L 532.828814 78.024538 
L 533.212334 81.463125 
L 533.595853 89.979322 
L 535.129932 83.754272 
L 535.896971 96.155837 
L 536.28049 93.441555 
L 536.66401 94.888923 
L 537.814569 104.116982 
L 538.198089 106.083311 
L 538.581608 100.027514 
L 538.965128 106.686899 
L 540.499206 106.46911 
L 540.882726 97.940467 
L 541.266245 98.338711 
L 541.649765 106.360837 
L 542.033285 120.860649 
L 543.183843 117.881287 
L 543.567363 132.851525 
L 543.950883 131.440248 
L 544.334402 118.725066 
L 544.717922 137.797217 
L 545.868481 134.805409 
L 546.252 132.514262 
L 546.63552 117.217962 
L 547.01904 135.614342 
L 547.402559 138.593704 
L 548.553118 154.481148 
L 548.936638 153.371043 
L 549.320157 161.018571 
L 549.703677 161.513887 
L 550.087196 150.198781 
L 551.237755 152.163866 
L 551.621275 142.236392 
L 552.004794 162.092585 
L 552.388314 164.98732 
L 552.771834 164.781976 
L 553.922392 155.988252 
L 554.305912 159.643385 
L 554.689432 155.445645 
L 555.456471 133.864558 
L 556.990549 136.675911 
L 557.374069 140.704397 
L 557.757589 131.295885 
L 558.141108 139.558201 
L 559.291667 138.051097 
L 559.675187 133.28586 
L 560.058706 138.738068 
L 560.825745 164.577876 
L 561.976304 182.430404 
L 562.359824 183.794389 
L 562.743343 177.363995 
L 563.126863 192.503486 
L 563.510383 191.55019 
L 565.044461 180.391893 
L 565.427981 181.21576 
L 565.8115 176.769118 
L 566.19502 162.20708 
L 567.345579 164.011623 
L 567.729098 173.631702 
L 568.112618 174.007545 
L 568.496138 177.751038 
L 568.879657 172.917352 
L 570.413736 172.044949 
L 570.797255 170.481842 
L 571.180775 163.527507 
L 571.564294 163.915795 
L 572.714853 169.294577 
L 573.098373 173.413913 
L 573.481893 175.836978 
L 573.865412 176.950817 
L 574.248932 168.204384 
L 575.399491 172.05615 
L 575.78301 159.55378 
L 576.16653 156.524637 
L 576.550049 151.654861 
L 576.933569 156.137594 
L 578.084128 155.555162 
L 578.467647 161.22516 
L 578.851167 148.928134 
L 579.618206 135.662878 
L 580.768765 137.140114 
L 581.152285 140.424382 
L 581.535804 132.682271 
L 581.919324 133.020779 
L 582.302844 133.869536 
L 583.453402 134.450723 
L 583.836922 136.438209 
L 584.220442 125.970617 
L 584.603961 125.970617 
L 584.987481 117.356103 
L 586.13804 115.224253 
L 586.521559 114.206242 
L 586.905079 117.901199 
L 587.288598 116.399073 
L 587.672118 123.365853 
L 588.822677 134.015144 
L 589.206196 135.226054 
L 589.589716 133.626856 
L 589.973236 126.551804 
L 590.356755 143.755941 
L 591.507314 147.002874 
L 591.890834 152.356765 
L 592.274353 156.028077 
L 592.657873 154.52595 
L 593.041393 159.589871 
L 594.575471 161.383213 
L 594.958991 152.878216 
L 595.34251 149.728356 
L 595.72603 142.192834 
L 596.876589 136.898679 
L 597.260108 158.548214 
L 597.643628 156.731226 
L 598.027147 162.158544 
L 598.410667 165.763896 
L 599.561226 162.127431 
L 599.944746 167.55226 
L 600.328265 175.702571 
L 600.711785 179.559314 
L 601.095304 187.18693 
L 602.629383 192.746166 
L 603.012902 184.04827 
L 603.779942 200.28791 
L 604.9305 188.817241 
L 605.31402 174.996932 
L 605.69754 176.068457 
L 606.081059 180.800093 
L 606.464579 193.46425 
L 607.615138 196.833144 
L 607.998657 199.607162 
L 608.382177 201.042085 
L 608.765697 189.595061 
L 609.149216 199.741569 
L 610.299775 188.560871 
L 610.683295 183.317741 
L 611.450334 190.277054 
L 611.833853 179.474687 
L 612.984412 173.903006 
L 613.367932 166.542961 
L 613.751451 170.071153 
L 614.134971 172.55271 
L 614.518491 161.554956 
L 615.669049 164.973631 
L 616.052569 167.029565 
L 616.436089 178.769049 
L 616.819608 183.464594 
L 617.203128 176.96824 
L 618.353687 172.588801 
L 618.737206 170.094799 
L 619.120726 179.668831 
L 619.504246 154.657869 
L 619.887765 150.01086 
L 621.038324 154.133929 
L 621.421844 150.034506 
L 621.805363 153.733196 
L 622.188883 155.205454 
L 622.572402 153.027558 
L 623.722961 154.779831 
L 624.106481 148.319568 
L 624.49 145.254334 
L 625.25704 145.363851 
L 626.407599 153.173165 
L 626.791118 154.000766 
L 627.174638 138.855052 
L 627.558157 139.219694 
L 627.941677 139.79217 
L 629.092236 148.696655 
L 629.475755 155.703259 
L 629.859275 156.518414 
L 630.242795 152.772433 
L 630.626314 156.372806 
L 631.776873 149.47572 
L 632.160393 145.801919 
L 632.543912 148.928134 
L 632.927432 160.813226 
L 633.310952 166.408553 
L 634.46151 170.381036 
L 634.84503 169.745091 
L 635.22855 162.792001 
L 635.612069 169.524812 
L 635.995589 166.849111 
L 637.529667 168.694722 
L 637.913187 174.486682 
L 638.296706 166.20072 
L 638.680226 167.435276 
L 640.214304 169.40285 
L 640.597824 165.809943 
L 640.981344 171.16259 
L 641.364863 160.530722 
L 642.515422 160.799537 
L 642.898942 157.475444 
L 643.282461 151.438315 
L 644.049501 147.796873 
L 645.583579 148.689188 
L 645.967099 156.364095 
L 646.350618 159.84624 
L 646.734138 150.999003 
L 647.884697 145.193353 
L 648.268216 145.718537 
L 648.651736 145.535594 
L 649.035255 140.158056 
L 649.418775 139.021817 
L 650.569334 145.243133 
L 651.719893 125.456633 
L 652.103412 130.870261 
L 653.253971 133.950429 
L 653.637491 127.400561 
L 654.40453 137.299412 
L 654.78805 136.138282 
L 655.938608 130.284096 
L 656.322128 130.51682 
L 656.705648 128.879042 
L 657.089167 135.844577 
L 657.472687 137.091578 
L 659.006765 147.075055 
L 659.390285 147.748337 
L 659.773805 145.157262 
L 660.157324 150.387947 
L 661.307883 148.737724 
L 662.074922 152.391612 
L 662.458442 148.639407 
L 662.841961 140.842538 
L 663.99252 140.500297 
L 664.37604 148.078132 
L 664.759559 147.282889 
L 665.526599 163.182778 
L 666.677157 163.854814 
L 667.060677 156.07039 
L 667.444197 159.064686 
L 667.827716 150.717743 
L 668.211236 156.377785 
L 669.361795 151.776823 
L 669.745314 145.434788 
L 670.128834 153.776754 
L 670.512354 152.476239 
L 670.895873 149.311444 
L 672.046432 148.404195 
L 672.429952 149.495632 
L 672.813471 142.441736 
L 673.196991 139.559446 
L 673.58051 132.578977 
L 674.731069 130.664917 
L 675.114589 133.46258 
L 675.498108 134.774296 
L 675.881628 132.824146 
L 677.799226 132.17451 
L 678.182746 134.222977 
L 678.566265 127.573548 
L 678.949785 128.813083 
L 680.100344 126.997339 
L 680.483863 126.666299 
L 680.867383 126.75217 
L 681.250903 129.523699 
L 681.634422 129.131678 
L 682.784981 128.604005 
L 683.168501 136.63982 
L 683.55202 138.749268 
L 683.93554 128.874064 
L 684.319059 124.555606 
L 685.469618 125.070834 
L 685.853138 130.799324 
L 686.620177 137.804684 
L 687.003697 128.604005 
L 688.154256 128.469597 
L 688.537775 130.689807 
L 688.921295 128.333945 
L 689.688334 129.87963 
L 690.838893 128.137313 
L 691.222412 131.52363 
L 691.989452 120.507208 
L 692.372971 121.256404 
L 693.52353 121.047326 
L 693.90705 126.813151 
L 694.290569 130.493174 
L 694.674089 126.126181 
L 695.057609 119.538977 
L 696.591687 119.342344 
L 696.975207 122.200989 
L 697.358726 117.329968 
L 697.742246 109.846716 
L 698.892805 110.853526 
L 699.276324 109.712309 
L 699.659844 111.528052 
L 700.043363 108.363257 
L 700.426883 107.418673 
L 701.577442 102.633523 
L 701.960961 99.125243 
L 702.344481 98.488053 
L 702.728001 91.838624 
L 703.11152 93.687969 
L 704.645599 96.495589 
L 705.029118 99.253428 
L 705.412638 97.3207 
L 705.796158 101.384033 
L 706.946716 103.563174 
L 707.330236 97.738856 
L 707.713756 97.467553 
L 708.097275 95.350637 
L 708.480795 88.983713 
L 709.631354 88.356478 
L 710.398393 89.169145 
L 710.781912 93.441555 
L 711.165432 94.80803 
L 712.315991 93.441555 
L 713.08303 85.611084 
L 713.46655 81.251558 
L 713.850069 81.596288 
L 715.000628 79.676005 
L 715.384148 75.550447 
L 715.767667 74.30718 
L 716.151187 78.025782 
L 716.534707 78.025782 
L 717.685265 75.538002 
L 718.068785 74.010986 
L 718.452305 73.925114 
L 718.835824 77.643717 
L 719.219344 72.18902 
L 720.369903 71.117495 
L 720.753422 72.731627 
L 721.136942 80.549653 
L 721.520462 82.137651 
L 721.903981 84.637876 
L 723.05454 79.835303 
L 723.43806 82.249657 
L 723.821579 85.943369 
L 724.205099 85.745492 
L 724.588618 86.066576 
L 725.739177 83.037433 
L 726.122697 89.464094 
L 726.889736 97.590759 
L 727.273256 97.333145 
L 728.423814 93.836066 
L 728.807334 95.300857 
L 729.190854 89.292352 
L 729.574373 96.852764 
L 729.957893 93.05949 
L 731.108452 89.624636 
L 731.491971 81.744385 
L 731.875491 79.465683 
L 732.259011 80.279594 
L 732.64253 79.24416 
L 734.176609 81.646068 
L 734.560128 85.364671 
L 734.943648 87.050985 
L 735.327167 86.225873 
L 736.477726 82.618032 
L 736.861246 85.647175 
L 737.244765 85.007496 
L 737.628285 80.267149 
L 738.011805 86.947691 
L 739.162364 86.626606 
L 739.545883 87.762846 
L 739.929403 92.79192 
L 740.312922 101.751164 
L 740.696442 102.949629 
L 741.847001 100.713241 
L 742.23052 108.55989 
L 742.61404 108.349568 
L 742.99756 105.296779 
L 743.381079 106.58236 
L 744.531638 106.792683 
L 744.915158 113.860268 
L 745.298677 110.066995 
L 745.682197 110.264872 
L 746.065716 104.037333 
L 747.216275 100.63857 
L 747.983315 95.659276 
L 748.750354 101.615512 
L 749.900913 96.005251 
L 750.284432 96.030141 
L 750.667952 103.208488 
L 751.051471 107.879142 
L 751.434991 114.354339 
L 752.58555 115.256611 
L 752.969069 111.338886 
L 753.736109 125.03101 
L 754.119628 127.340825 
L 755.270187 121.273827 
L 755.653707 118.049296 
L 756.037226 112.538596 
L 756.420746 102.528984 
L 756.804266 97.672897 
L 757.954824 96.437096 
L 758.338344 94.905102 
L 758.721864 94.510591 
L 759.105383 98.723265 
L 759.488903 90.357654 
L 760.639462 90.876616 
L 761.022981 80.324396 
L 761.406501 79.150821 
L 762.17354 77.779369 
L 763.324099 73.492024 
L 763.707619 74.71538 
L 764.091138 72.552417 
L 764.858177 72.206443 
L 766.008736 73.219476 
L 766.392256 72.663179 
L 766.775775 73.058934 
L 767.159295 70.847436 
L 767.542815 67.510898 
L 768.693373 70.489016 
L 769.076893 70.599778 
L 769.460413 72.873501 
L 769.843932 68.586157 
L 770.227452 66.151891 
L 771.378011 63.940393 
L 771.76153 61.333139 
L 772.14505 53.424264 
L 772.52857 51.55874 
L 772.912089 52.519504 
L 774.062648 49.243947 
L 774.446168 45.683398 
L 774.829687 53.846154 
L 775.213207 48.337942 
L 775.596726 47.159389 
L 777.130805 44.677832 
L 777.514324 43.611285 
L 777.897844 43.387273 
L 778.281364 45.099722 
L 778.281364 45.099722 
" clip-path="url(#p8a14d5aa94)" style="fill: none; stroke: #1f77b4; stroke-width: 1.5; stroke-linecap: square"/>
   </g>
   <g id="patch_7">
    <path d="M 44.57 390.04 
L 44.57 26.88 
" style="fill: none; stroke: #000000; stroke-width: 0.8; stroke-linejoin: miter; stroke-linecap: square"/>
   </g>
   <g id="patch_8">
    <path d="M 813.22 390.04 
L 813.22 26.88 
" style="fill: none; stroke: #000000; stroke-width: 0.8; stroke-linejoin: miter; stroke-linecap: square"/>
   </g>
   <g id="patch_9">
    <path d="M 44.57 390.04 
L 813.22 390.04 
" style="fill: none; stroke: #000000; stroke-width: 0.8; stroke-linejoin: miter; stroke-linecap: square"/>
   </g>
   <g id="patch_10">
    <path d="M 44.57 26.88 
L 813.22 26.88 
" style="fill: none; stroke: #000000; stroke-width: 0.8; stroke-linejoin: miter; stroke-linecap: square"/>
   </g>
   <g id="text_21">
    <!-- Stock Trading Performance for SPY -->
    <g transform="translate(325.425937 20.88) scale(0.12 -0.12)">
     <defs>
      <path id="DejaVuSans-53" d="M 3425 4513 
L 3425 3897 
Q 3066 4069 2747 4153 
Q 2428 4238 2131 4238 
Q 1616 4238 1336 4038 
Q 1056 3838 1056 3469 
Q 1056 3159 1242 3001 
Q 1428 2844 1947 2747 
L 2328 2669 
Q 3034 2534 3370 2195 
Q 3706 1856 3706 1288 
Q 3706 609 3251 259 
Q 2797 -91 1919 -91 
Q 1588 -91 1214 -16 
Q 841 59 441 206 
L 441 856 
Q 825 641 1194 531 
Q 1563 422 1919 422 
Q 2459 422 2753 634 
Q 3047 847 3047 1241 
Q 3047 1584 2836 1778 
Q 2625 1972 2144 2069 
L 1759 2144 
Q 1053 2284 737 2584 
Q 422 2884 422 3419 
Q 422 4038 858 4394 
Q 1294 4750 2059 4750 
Q 2388 4750 2728 4690 
Q 3069 4631 3425 4513 
z
" transform="scale(0.015625)"/>
      <path id="DejaVuSans-6b" d="M 581 4863 
L 1159 4863 
L 1159 1991 
L 2875 3500 
L 3609 3500 
L 1753 1863 
L 3688 0 
L 2938 0 
L 1159 1709 
L 1159 0 
L 581 0 
L 581 4863 
z
" transform="scale(0.015625)"/>
      <path id="DejaVuSans-54" d="M -19 4666 
L 3928 4666 
L 3928 4134 
L 2272 4134 
L 2272 0 
L 1638 0 
L 1638 4134 
L -19 4134 
L -19 4666 
z
" transform="scale(0.015625)"/>
      <path id="DejaVuSans-64" d="M 2906 2969 
L 2906 4863 
L 3481 4863 
L 3481 0 
L 2906 0 
L 2906 525 
Q 2725 213 2448 61 
Q 2172 -91 1784 -91 
Q 1150 -91 751 415 
Q 353 922 353 1747 
Q 353 2572 751 3078 
Q 1150 3584 1784 3584 
Q 2172 3584 2448 3432 
Q 2725 3281 2906 2969 
z
M 947 1747 
Q 947 1113 1208 752 
Q 1469 391 1925 391 
Q 2381 391 2643 752 
Q 2906 1113 2906 1747 
Q 2906 2381 2643 2742 
Q 2381 3103 1925 3103 
Q 1469 3103 1208 2742 
Q 947 2381 947 1747 
z
" transform="scale(0.015625)"/>
      <path id="DejaVuSans-67" d="M 2906 1791 
Q 2906 2416 2648 2759 
Q 2391 3103 1925 3103 
Q 1463 3103 1205 2759 
Q 947 2416 947 1791 
Q 947 1169 1205 825 
Q 1463 481 1925 481 
Q 2391 481 2648 825 
Q 2906 1169 2906 1791 
z
M 3481 434 
Q 3481 -459 3084 -895 
Q 2688 -1331 1869 -1331 
Q 1566 -1331 1297 -1286 
Q 1028 -1241 775 -1147 
L 775 -588 
Q 1028 -725 1275 -790 
Q 1522 -856 1778 -856 
Q 2344 -856 2625 -561 
Q 2906 -266 2906 331 
L 2906 616 
Q 2728 306 2450 153 
Q 2172 0 1784 0 
Q 1141 0 747 490 
Q 353 981 353 1791 
Q 353 2603 747 3093 
Q 1141 3584 1784 3584 
Q 2172 3584 2450 3431 
Q 2728 3278 2906 2969 
L 2906 3500 
L 3481 3500 
L 3481 434 
z
" transform="scale(0.015625)"/>
      <path id="DejaVuSans-66" d="M 2375 4863 
L 2375 4384 
L 1825 4384 
Q 1516 4384 1395 4259 
Q 1275 4134 1275 3809 
L 1275 3500 
L 2222 3500 
L 2222 3053 
L 1275 3053 
L 1275 0 
L 697 0 
L 697 3053 
L 147 3053 
L 147 3500 
L 697 3500 
L 697 3744 
Q 697 4328 969 4595 
Q 1241 4863 1831 4863 
L 2375 4863 
z
" transform="scale(0.015625)"/>
      <path id="DejaVuSans-6d" d="M 3328 2828 
Q 3544 3216 3844 3400 
Q 4144 3584 4550 3584 
Q 5097 3584 5394 3201 
Q 5691 2819 5691 2113 
L 5691 0 
L 5113 0 
L 5113 2094 
Q 5113 2597 4934 2840 
Q 4756 3084 4391 3084 
Q 3944 3084 3684 2787 
Q 3425 2491 3425 1978 
L 3425 0 
L 2847 0 
L 2847 2094 
Q 2847 2600 2669 2842 
Q 2491 3084 2119 3084 
Q 1678 3084 1418 2786 
Q 1159 2488 1159 1978 
L 1159 0 
L 581 0 
L 581 3500 
L 1159 3500 
L 1159 2956 
Q 1356 3278 1631 3431 
Q 1906 3584 2284 3584 
Q 2666 3584 2933 3390 
Q 3200 3197 3328 2828 
z
" transform="scale(0.015625)"/>
      <path id="DejaVuSans-59" d="M -13 4666 
L 666 4666 
L 1959 2747 
L 3244 4666 
L 3922 4666 
L 2272 2222 
L 2272 0 
L 1638 0 
L 1638 2222 
L -13 4666 
z
" transform="scale(0.015625)"/>
     </defs>
     <use xlink:href="#DejaVuSans-53"/>
     <use xlink:href="#DejaVuSans-74" x="63.476562"/>
     <use xlink:href="#DejaVuSans-6f" x="102.685547"/>
     <use xlink:href="#DejaVuSans-63" x="163.867188"/>
     <use xlink:href="#DejaVuSans-6b" x="218.847656"/>
     <use xlink:href="#DejaVuSans-20" x="276.757812"/>
     <use xlink:href="#DejaVuSans-54" x="308.544922"/>
     <use xlink:href="#DejaVuSans-72" x="354.878906"/>
     <use xlink:href="#DejaVuSans-61" x="395.992188"/>
     <use xlink:href="#DejaVuSans-64" x="457.271484"/>
     <use xlink:href="#DejaVuSans-69" x="520.748047"/>
     <use xlink:href="#DejaVuSans-6e" x="548.53125"/>
     <use xlink:href="#DejaVuSans-67" x="611.910156"/>
     <use xlink:href="#DejaVuSans-20" x="675.386719"/>
     <use xlink:href="#DejaVuSans-50" x="707.173828"/>
     <use xlink:href="#DejaVuSans-65" x="763.851562"/>
     <use xlink:href="#DejaVuSans-72" x="825.375"/>
     <use xlink:href="#DejaVuSans-66" x="866.488281"/>
     <use xlink:href="#DejaVuSans-6f" x="901.693359"/>
     <use xlink:href="#DejaVuSans-72" x="962.875"/>
     <use xlink:href="#DejaVuSans-6d" x="1002.238281"/>
     <use xlink:href="#DejaVuSans-61" x="1099.650391"/>
     <use xlink:href="#DejaVuSans-6e" x="1160.929688"/>
     <use xlink:href="#DejaVuSans-63" x="1224.308594"/>
     <use xlink:href="#DejaVuSans-65" x="1279.289062"/>
     <use xlink:href="#DejaVuSans-20" x="1340.8125"/>
     <use xlink:href="#DejaVuSans-66" x="1372.599609"/>
     <use xlink:href="#DejaVuSans-6f" x="1407.804688"/>
     <use xlink:href="#DejaVuSans-72" x="1468.986328"/>
     <use xlink:href="#DejaVuSans-20" x="1510.099609"/>
     <use xlink:href="#DejaVuSans-53" x="1541.886719"/>
     <use xlink:href="#DejaVuSans-50" x="1605.363281"/>
     <use xlink:href="#DejaVuSans-59" x="1663.416016"/>
    </g>
   </g>
  </g>
 </g>
 <defs>
  <clipPath id="p8a14d5aa94">
   <rect x="44.57" y="26.88" width="768.65" height="363.16"/>
  </clipPath>
 </defs>
</svg>
