<?xml version="1.0" encoding="utf-8" standalone="no"?>
<!DOCTYPE svg PUBLIC "-//W3C//DTD SVG 1.1//EN"
  "http://www.w3.org/Graphics/SVG/1.1/DTD/svg11.dtd">
<svg xmlns:xlink="http://www.w3.org/1999/xlink" width="864pt" height="432pt" viewBox="0 0 864 432" xmlns="http://www.w3.org/2000/svg" version="1.1">
 <metadata>
  <rdf:RDF xmlns:dc="http://purl.org/dc/elements/1.1/" xmlns:cc="http://creativecommons.org/ns#" xmlns:rdf="http://www.w3.org/1999/02/22-rdf-syntax-ns#">
   <cc:Work>
    <dc:type rdf:resource="http://purl.org/dc/dcmitype/StillImage"/>
    <dc:date>2024-04-16T14:18:47.550517</dc:date>
    <dc:format>image/svg+xml</dc:format>
    <dc:creator>
     <cc:Agent>
      <dc:title>Matplotlib v3.8.2, https://matplotlib.org/</dc:title>
     </cc:Agent>
    </dc:creator>
   </cc:Work>
  </rdf:RDF>
 </metadata>
 <defs>
  <style type="text/css">*{stroke-linejoin: round; stroke-linecap: butt}</style>
 </defs>
 <g id="figure_1">
  <g id="patch_1">
   <path d="M 0 432 
L 864 432 
L 864 0 
L 0 0 
z
" style="fill: #ffffff"/>
  </g>
  <g id="axes_1">
   <g id="patch_2">
    <path d="M 52.94 390.04 
L 813.22 390.04 
L 813.22 26.88 
L 52.94 26.88 
z
" style="fill: #ffffff"/>
   </g>
   <g id="matplotlib.axis_1">
    <g id="xtick_1">
     <g id="line2d_1">
      <path d="M 87.118838 390.04 
L 87.118838 26.88 
" clip-path="url(#p6427be83bd)" style="fill: none; stroke-dasharray: 1.85,0.8; stroke-dashoffset: 0; stroke: #b0b0b0; stroke-opacity: 0.5; stroke-width: 0.5"/>
     </g>
     <g id="line2d_2">
      <defs>
       <path id="m6aaba87c8d" d="M 0 0 
L 0 3.5 
" style="stroke: #000000; stroke-width: 0.8"/>
      </defs>
      <g>
       <use xlink:href="#m6aaba87c8d" x="87.118838" y="390.04" style="stroke: #000000; stroke-width: 0.8"/>
      </g>
     </g>
     <g id="text_1">
      <!-- 2019 -->
      <g transform="translate(74.393838 404.638438) scale(0.1 -0.1)">
       <defs>
        <path id="DejaVuSans-32" d="M 1228 531 
L 3431 531 
L 3431 0 
L 469 0 
L 469 531 
Q 828 903 1448 1529 
Q 2069 2156 2228 2338 
Q 2531 2678 2651 2914 
Q 2772 3150 2772 3378 
Q 2772 3750 2511 3984 
Q 2250 4219 1831 4219 
Q 1534 4219 1204 4116 
Q 875 4013 500 3803 
L 500 4441 
Q 881 4594 1212 4672 
Q 1544 4750 1819 4750 
Q 2544 4750 2975 4387 
Q 3406 4025 3406 3419 
Q 3406 3131 3298 2873 
Q 3191 2616 2906 2266 
Q 2828 2175 2409 1742 
Q 1991 1309 1228 531 
z
" transform="scale(0.015625)"/>
        <path id="DejaVuSans-30" d="M 2034 4250 
Q 1547 4250 1301 3770 
Q 1056 3291 1056 2328 
Q 1056 1369 1301 889 
Q 1547 409 2034 409 
Q 2525 409 2770 889 
Q 3016 1369 3016 2328 
Q 3016 3291 2770 3770 
Q 2525 4250 2034 4250 
z
M 2034 4750 
Q 2819 4750 3233 4129 
Q 3647 3509 3647 2328 
Q 3647 1150 3233 529 
Q 2819 -91 2034 -91 
Q 1250 -91 836 529 
Q 422 1150 422 2328 
Q 422 3509 836 4129 
Q 1250 4750 2034 4750 
z
" transform="scale(0.015625)"/>
        <path id="DejaVuSans-31" d="M 794 531 
L 1825 531 
L 1825 4091 
L 703 3866 
L 703 4441 
L 1819 4666 
L 2450 4666 
L 2450 531 
L 3481 531 
L 3481 0 
L 794 0 
L 794 531 
z
" transform="scale(0.015625)"/>
        <path id="DejaVuSans-39" d="M 703 97 
L 703 672 
Q 941 559 1184 500 
Q 1428 441 1663 441 
Q 2288 441 2617 861 
Q 2947 1281 2994 2138 
Q 2813 1869 2534 1725 
Q 2256 1581 1919 1581 
Q 1219 1581 811 2004 
Q 403 2428 403 3163 
Q 403 3881 828 4315 
Q 1253 4750 1959 4750 
Q 2769 4750 3195 4129 
Q 3622 3509 3622 2328 
Q 3622 1225 3098 567 
Q 2575 -91 1691 -91 
Q 1453 -91 1209 -44 
Q 966 3 703 97 
z
M 1959 2075 
Q 2384 2075 2632 2365 
Q 2881 2656 2881 3163 
Q 2881 3666 2632 3958 
Q 2384 4250 1959 4250 
Q 1534 4250 1286 3958 
Q 1038 3666 1038 3163 
Q 1038 2656 1286 2365 
Q 1534 2075 1959 2075 
z
" transform="scale(0.015625)"/>
       </defs>
       <use xlink:href="#DejaVuSans-32"/>
       <use xlink:href="#DejaVuSans-30" x="63.623047"/>
       <use xlink:href="#DejaVuSans-31" x="127.246094"/>
       <use xlink:href="#DejaVuSans-39" x="190.869141"/>
      </g>
     </g>
    </g>
    <g id="xtick_2">
     <g id="line2d_3">
      <path d="M 225.579172 390.04 
L 225.579172 26.88 
" clip-path="url(#p6427be83bd)" style="fill: none; stroke-dasharray: 1.85,0.8; stroke-dashoffset: 0; stroke: #b0b0b0; stroke-opacity: 0.5; stroke-width: 0.5"/>
     </g>
     <g id="line2d_4">
      <g>
       <use xlink:href="#m6aaba87c8d" x="225.579172" y="390.04" style="stroke: #000000; stroke-width: 0.8"/>
      </g>
     </g>
     <g id="text_2">
      <!-- 2020 -->
      <g transform="translate(212.854172 404.638438) scale(0.1 -0.1)">
       <use xlink:href="#DejaVuSans-32"/>
       <use xlink:href="#DejaVuSans-30" x="63.623047"/>
       <use xlink:href="#DejaVuSans-32" x="127.246094"/>
       <use xlink:href="#DejaVuSans-30" x="190.869141"/>
      </g>
     </g>
    </g>
    <g id="xtick_3">
     <g id="line2d_5">
      <path d="M 364.418848 390.04 
L 364.418848 26.88 
" clip-path="url(#p6427be83bd)" style="fill: none; stroke-dasharray: 1.85,0.8; stroke-dashoffset: 0; stroke: #b0b0b0; stroke-opacity: 0.5; stroke-width: 0.5"/>
     </g>
     <g id="line2d_6">
      <g>
       <use xlink:href="#m6aaba87c8d" x="364.418848" y="390.04" style="stroke: #000000; stroke-width: 0.8"/>
      </g>
     </g>
     <g id="text_3">
      <!-- 2021 -->
      <g transform="translate(351.693848 404.638438) scale(0.1 -0.1)">
       <use xlink:href="#DejaVuSans-32"/>
       <use xlink:href="#DejaVuSans-30" x="63.623047"/>
       <use xlink:href="#DejaVuSans-32" x="127.246094"/>
       <use xlink:href="#DejaVuSans-31" x="190.869141"/>
      </g>
     </g>
    </g>
    <g id="xtick_4">
     <g id="line2d_7">
      <path d="M 502.879182 390.04 
L 502.879182 26.88 
" clip-path="url(#p6427be83bd)" style="fill: none; stroke-dasharray: 1.85,0.8; stroke-dashoffset: 0; stroke: #b0b0b0; stroke-opacity: 0.5; stroke-width: 0.5"/>
     </g>
     <g id="line2d_8">
      <g>
       <use xlink:href="#m6aaba87c8d" x="502.879182" y="390.04" style="stroke: #000000; stroke-width: 0.8"/>
      </g>
     </g>
     <g id="text_4">
      <!-- 2022 -->
      <g transform="translate(490.154182 404.638438) scale(0.1 -0.1)">
       <use xlink:href="#DejaVuSans-32"/>
       <use xlink:href="#DejaVuSans-30" x="63.623047"/>
       <use xlink:href="#DejaVuSans-32" x="127.246094"/>
       <use xlink:href="#DejaVuSans-32" x="190.869141"/>
      </g>
     </g>
    </g>
    <g id="xtick_5">
     <g id="line2d_9">
      <path d="M 641.339515 390.04 
L 641.339515 26.88 
" clip-path="url(#p6427be83bd)" style="fill: none; stroke-dasharray: 1.85,0.8; stroke-dashoffset: 0; stroke: #b0b0b0; stroke-opacity: 0.5; stroke-width: 0.5"/>
     </g>
     <g id="line2d_10">
      <g>
       <use xlink:href="#m6aaba87c8d" x="641.339515" y="390.04" style="stroke: #000000; stroke-width: 0.8"/>
      </g>
     </g>
     <g id="text_5">
      <!-- 2023 -->
      <g transform="translate(628.614515 404.638438) scale(0.1 -0.1)">
       <defs>
        <path id="DejaVuSans-33" d="M 2597 2516 
Q 3050 2419 3304 2112 
Q 3559 1806 3559 1356 
Q 3559 666 3084 287 
Q 2609 -91 1734 -91 
Q 1441 -91 1130 -33 
Q 819 25 488 141 
L 488 750 
Q 750 597 1062 519 
Q 1375 441 1716 441 
Q 2309 441 2620 675 
Q 2931 909 2931 1356 
Q 2931 1769 2642 2001 
Q 2353 2234 1838 2234 
L 1294 2234 
L 1294 2753 
L 1863 2753 
Q 2328 2753 2575 2939 
Q 2822 3125 2822 3475 
Q 2822 3834 2567 4026 
Q 2313 4219 1838 4219 
Q 1578 4219 1281 4162 
Q 984 4106 628 3988 
L 628 4550 
Q 988 4650 1302 4700 
Q 1616 4750 1894 4750 
Q 2613 4750 3031 4423 
Q 3450 4097 3450 3541 
Q 3450 3153 3228 2886 
Q 3006 2619 2597 2516 
z
" transform="scale(0.015625)"/>
       </defs>
       <use xlink:href="#DejaVuSans-32"/>
       <use xlink:href="#DejaVuSans-30" x="63.623047"/>
       <use xlink:href="#DejaVuSans-32" x="127.246094"/>
       <use xlink:href="#DejaVuSans-33" x="190.869141"/>
      </g>
     </g>
    </g>
    <g id="xtick_6">
     <g id="line2d_11">
      <path d="M 779.799848 390.04 
L 779.799848 26.88 
" clip-path="url(#p6427be83bd)" style="fill: none; stroke-dasharray: 1.85,0.8; stroke-dashoffset: 0; stroke: #b0b0b0; stroke-opacity: 0.5; stroke-width: 0.5"/>
     </g>
     <g id="line2d_12">
      <g>
       <use xlink:href="#m6aaba87c8d" x="779.799848" y="390.04" style="stroke: #000000; stroke-width: 0.8"/>
      </g>
     </g>
     <g id="text_6">
      <!-- 2024 -->
      <g transform="translate(767.074848 404.638438) scale(0.1 -0.1)">
       <defs>
        <path id="DejaVuSans-34" d="M 2419 4116 
L 825 1625 
L 2419 1625 
L 2419 4116 
z
M 2253 4666 
L 3047 4666 
L 3047 1625 
L 3713 1625 
L 3713 1100 
L 3047 1100 
L 3047 0 
L 2419 0 
L 2419 1100 
L 313 1100 
L 313 1709 
L 2253 4666 
z
" transform="scale(0.015625)"/>
       </defs>
       <use xlink:href="#DejaVuSans-32"/>
       <use xlink:href="#DejaVuSans-30" x="63.623047"/>
       <use xlink:href="#DejaVuSans-32" x="127.246094"/>
       <use xlink:href="#DejaVuSans-34" x="190.869141"/>
      </g>
     </g>
    </g>
    <g id="text_7">
     <!-- Date -->
     <g transform="translate(421.129219 418.316562) scale(0.1 -0.1)">
      <defs>
       <path id="DejaVuSans-44" d="M 1259 4147 
L 1259 519 
L 2022 519 
Q 2988 519 3436 956 
Q 3884 1394 3884 2338 
Q 3884 3275 3436 3711 
Q 2988 4147 2022 4147 
L 1259 4147 
z
M 628 4666 
L 1925 4666 
Q 3281 4666 3915 4102 
Q 4550 3538 4550 2338 
Q 4550 1131 3912 565 
Q 3275 0 1925 0 
L 628 0 
L 628 4666 
z
" transform="scale(0.015625)"/>
       <path id="DejaVuSans-61" d="M 2194 1759 
Q 1497 1759 1228 1600 
Q 959 1441 959 1056 
Q 959 750 1161 570 
Q 1363 391 1709 391 
Q 2188 391 2477 730 
Q 2766 1069 2766 1631 
L 2766 1759 
L 2194 1759 
z
M 3341 1997 
L 3341 0 
L 2766 0 
L 2766 531 
Q 2569 213 2275 61 
Q 1981 -91 1556 -91 
Q 1019 -91 701 211 
Q 384 513 384 1019 
Q 384 1609 779 1909 
Q 1175 2209 1959 2209 
L 2766 2209 
L 2766 2266 
Q 2766 2663 2505 2880 
Q 2244 3097 1772 3097 
Q 1472 3097 1187 3025 
Q 903 2953 641 2809 
L 641 3341 
Q 956 3463 1253 3523 
Q 1550 3584 1831 3584 
Q 2591 3584 2966 3190 
Q 3341 2797 3341 1997 
z
" transform="scale(0.015625)"/>
       <path id="DejaVuSans-74" d="M 1172 4494 
L 1172 3500 
L 2356 3500 
L 2356 3053 
L 1172 3053 
L 1172 1153 
Q 1172 725 1289 603 
Q 1406 481 1766 481 
L 2356 481 
L 2356 0 
L 1766 0 
Q 1100 0 847 248 
Q 594 497 594 1153 
L 594 3053 
L 172 3053 
L 172 3500 
L 594 3500 
L 594 4494 
L 1172 4494 
z
" transform="scale(0.015625)"/>
       <path id="DejaVuSans-65" d="M 3597 1894 
L 3597 1613 
L 953 1613 
Q 991 1019 1311 708 
Q 1631 397 2203 397 
Q 2534 397 2845 478 
Q 3156 559 3463 722 
L 3463 178 
Q 3153 47 2828 -22 
Q 2503 -91 2169 -91 
Q 1331 -91 842 396 
Q 353 884 353 1716 
Q 353 2575 817 3079 
Q 1281 3584 2069 3584 
Q 2775 3584 3186 3129 
Q 3597 2675 3597 1894 
z
M 3022 2063 
Q 3016 2534 2758 2815 
Q 2500 3097 2075 3097 
Q 1594 3097 1305 2825 
Q 1016 2553 972 2059 
L 3022 2063 
z
" transform="scale(0.015625)"/>
      </defs>
      <use xlink:href="#DejaVuSans-44"/>
      <use xlink:href="#DejaVuSans-61" x="77.001953"/>
      <use xlink:href="#DejaVuSans-74" x="138.28125"/>
      <use xlink:href="#DejaVuSans-65" x="177.490234"/>
     </g>
    </g>
   </g>
   <g id="matplotlib.axis_2">
    <g id="ytick_1">
     <g id="line2d_13">
      <path d="M 52.94 381.059468 
L 813.22 381.059468 
" clip-path="url(#p6427be83bd)" style="fill: none; stroke-dasharray: 1.85,0.8; stroke-dashoffset: 0; stroke: #b0b0b0; stroke-opacity: 0.5; stroke-width: 0.5"/>
     </g>
     <g id="line2d_14">
      <defs>
       <path id="m10de4de9e5" d="M 0 0 
L -3.5 0 
" style="stroke: #000000; stroke-width: 0.8"/>
      </defs>
      <g>
       <use xlink:href="#m10de4de9e5" x="52.94" y="381.059468" style="stroke: #000000; stroke-width: 0.8"/>
      </g>
     </g>
     <g id="text_8">
      <!-- −10 -->
      <g style="fill: #d62728" transform="translate(24.835313 384.858686) scale(0.1 -0.1)">
       <defs>
        <path id="DejaVuSans-2212" d="M 678 2272 
L 4684 2272 
L 4684 1741 
L 678 1741 
L 678 2272 
z
" transform="scale(0.015625)"/>
       </defs>
       <use xlink:href="#DejaVuSans-2212"/>
       <use xlink:href="#DejaVuSans-31" x="83.789062"/>
       <use xlink:href="#DejaVuSans-30" x="147.412109"/>
      </g>
     </g>
    </g>
    <g id="ytick_2">
     <g id="line2d_15">
      <path d="M 52.94 328.01171 
L 813.22 328.01171 
" clip-path="url(#p6427be83bd)" style="fill: none; stroke-dasharray: 1.85,0.8; stroke-dashoffset: 0; stroke: #b0b0b0; stroke-opacity: 0.5; stroke-width: 0.5"/>
     </g>
     <g id="line2d_16">
      <g>
       <use xlink:href="#m10de4de9e5" x="52.94" y="328.01171" style="stroke: #000000; stroke-width: 0.8"/>
      </g>
     </g>
     <g id="text_9">
      <!-- 0 -->
      <g style="fill: #d62728" transform="translate(39.5775 331.810929) scale(0.1 -0.1)">
       <use xlink:href="#DejaVuSans-30"/>
      </g>
     </g>
    </g>
    <g id="ytick_3">
     <g id="line2d_17">
      <path d="M 52.94 274.963953 
L 813.22 274.963953 
" clip-path="url(#p6427be83bd)" style="fill: none; stroke-dasharray: 1.85,0.8; stroke-dashoffset: 0; stroke: #b0b0b0; stroke-opacity: 0.5; stroke-width: 0.5"/>
     </g>
     <g id="line2d_18">
      <g>
       <use xlink:href="#m10de4de9e5" x="52.94" y="274.963953" style="stroke: #000000; stroke-width: 0.8"/>
      </g>
     </g>
     <g id="text_10">
      <!-- 10 -->
      <g style="fill: #d62728" transform="translate(33.215 278.763172) scale(0.1 -0.1)">
       <use xlink:href="#DejaVuSans-31"/>
       <use xlink:href="#DejaVuSans-30" x="63.623047"/>
      </g>
     </g>
    </g>
    <g id="ytick_4">
     <g id="line2d_19">
      <path d="M 52.94 221.916196 
L 813.22 221.916196 
" clip-path="url(#p6427be83bd)" style="fill: none; stroke-dasharray: 1.85,0.8; stroke-dashoffset: 0; stroke: #b0b0b0; stroke-opacity: 0.5; stroke-width: 0.5"/>
     </g>
     <g id="line2d_20">
      <g>
       <use xlink:href="#m10de4de9e5" x="52.94" y="221.916196" style="stroke: #000000; stroke-width: 0.8"/>
      </g>
     </g>
     <g id="text_11">
      <!-- 20 -->
      <g style="fill: #d62728" transform="translate(33.215 225.715415) scale(0.1 -0.1)">
       <use xlink:href="#DejaVuSans-32"/>
       <use xlink:href="#DejaVuSans-30" x="63.623047"/>
      </g>
     </g>
    </g>
    <g id="ytick_5">
     <g id="line2d_21">
      <path d="M 52.94 168.868439 
L 813.22 168.868439 
" clip-path="url(#p6427be83bd)" style="fill: none; stroke-dasharray: 1.85,0.8; stroke-dashoffset: 0; stroke: #b0b0b0; stroke-opacity: 0.5; stroke-width: 0.5"/>
     </g>
     <g id="line2d_22">
      <g>
       <use xlink:href="#m10de4de9e5" x="52.94" y="168.868439" style="stroke: #000000; stroke-width: 0.8"/>
      </g>
     </g>
     <g id="text_12">
      <!-- 30 -->
      <g style="fill: #d62728" transform="translate(33.215 172.667657) scale(0.1 -0.1)">
       <use xlink:href="#DejaVuSans-33"/>
       <use xlink:href="#DejaVuSans-30" x="63.623047"/>
      </g>
     </g>
    </g>
    <g id="ytick_6">
     <g id="line2d_23">
      <path d="M 52.94 115.820681 
L 813.22 115.820681 
" clip-path="url(#p6427be83bd)" style="fill: none; stroke-dasharray: 1.85,0.8; stroke-dashoffset: 0; stroke: #b0b0b0; stroke-opacity: 0.5; stroke-width: 0.5"/>
     </g>
     <g id="line2d_24">
      <g>
       <use xlink:href="#m10de4de9e5" x="52.94" y="115.820681" style="stroke: #000000; stroke-width: 0.8"/>
      </g>
     </g>
     <g id="text_13">
      <!-- 40 -->
      <g style="fill: #d62728" transform="translate(33.215 119.6199) scale(0.1 -0.1)">
       <use xlink:href="#DejaVuSans-34"/>
       <use xlink:href="#DejaVuSans-30" x="63.623047"/>
      </g>
     </g>
    </g>
    <g id="ytick_7">
     <g id="line2d_25">
      <path d="M 52.94 62.772924 
L 813.22 62.772924 
" clip-path="url(#p6427be83bd)" style="fill: none; stroke-dasharray: 1.85,0.8; stroke-dashoffset: 0; stroke: #b0b0b0; stroke-opacity: 0.5; stroke-width: 0.5"/>
     </g>
     <g id="line2d_26">
      <g>
       <use xlink:href="#m10de4de9e5" x="52.94" y="62.772924" style="stroke: #000000; stroke-width: 0.8"/>
      </g>
     </g>
     <g id="text_14">
      <!-- 50 -->
      <g style="fill: #d62728" transform="translate(33.215 66.572143) scale(0.1 -0.1)">
       <defs>
        <path id="DejaVuSans-35" d="M 691 4666 
L 3169 4666 
L 3169 4134 
L 1269 4134 
L 1269 2991 
Q 1406 3038 1543 3061 
Q 1681 3084 1819 3084 
Q 2600 3084 3056 2656 
Q 3513 2228 3513 1497 
Q 3513 744 3044 326 
Q 2575 -91 1722 -91 
Q 1428 -91 1123 -41 
Q 819 9 494 109 
L 494 744 
Q 775 591 1075 516 
Q 1375 441 1709 441 
Q 2250 441 2565 725 
Q 2881 1009 2881 1497 
Q 2881 1984 2565 2268 
Q 2250 2553 1709 2553 
Q 1456 2553 1204 2497 
Q 953 2441 691 2322 
L 691 4666 
z
" transform="scale(0.015625)"/>
       </defs>
       <use xlink:href="#DejaVuSans-35"/>
       <use xlink:href="#DejaVuSans-30" x="63.623047"/>
      </g>
     </g>
    </g>
    <g id="text_15">
     <!-- Returns (%) -->
     <g style="fill: #d62728" transform="translate(18.755625 237.8975) rotate(-90) scale(0.1 -0.1)">
      <defs>
       <path id="DejaVuSans-52" d="M 2841 2188 
Q 3044 2119 3236 1894 
Q 3428 1669 3622 1275 
L 4263 0 
L 3584 0 
L 2988 1197 
Q 2756 1666 2539 1819 
Q 2322 1972 1947 1972 
L 1259 1972 
L 1259 0 
L 628 0 
L 628 4666 
L 2053 4666 
Q 2853 4666 3247 4331 
Q 3641 3997 3641 3322 
Q 3641 2881 3436 2590 
Q 3231 2300 2841 2188 
z
M 1259 4147 
L 1259 2491 
L 2053 2491 
Q 2509 2491 2742 2702 
Q 2975 2913 2975 3322 
Q 2975 3731 2742 3939 
Q 2509 4147 2053 4147 
L 1259 4147 
z
" transform="scale(0.015625)"/>
       <path id="DejaVuSans-75" d="M 544 1381 
L 544 3500 
L 1119 3500 
L 1119 1403 
Q 1119 906 1312 657 
Q 1506 409 1894 409 
Q 2359 409 2629 706 
Q 2900 1003 2900 1516 
L 2900 3500 
L 3475 3500 
L 3475 0 
L 2900 0 
L 2900 538 
Q 2691 219 2414 64 
Q 2138 -91 1772 -91 
Q 1169 -91 856 284 
Q 544 659 544 1381 
z
M 1991 3584 
L 1991 3584 
z
" transform="scale(0.015625)"/>
       <path id="DejaVuSans-72" d="M 2631 2963 
Q 2534 3019 2420 3045 
Q 2306 3072 2169 3072 
Q 1681 3072 1420 2755 
Q 1159 2438 1159 1844 
L 1159 0 
L 581 0 
L 581 3500 
L 1159 3500 
L 1159 2956 
Q 1341 3275 1631 3429 
Q 1922 3584 2338 3584 
Q 2397 3584 2469 3576 
Q 2541 3569 2628 3553 
L 2631 2963 
z
" transform="scale(0.015625)"/>
       <path id="DejaVuSans-6e" d="M 3513 2113 
L 3513 0 
L 2938 0 
L 2938 2094 
Q 2938 2591 2744 2837 
Q 2550 3084 2163 3084 
Q 1697 3084 1428 2787 
Q 1159 2491 1159 1978 
L 1159 0 
L 581 0 
L 581 3500 
L 1159 3500 
L 1159 2956 
Q 1366 3272 1645 3428 
Q 1925 3584 2291 3584 
Q 2894 3584 3203 3211 
Q 3513 2838 3513 2113 
z
" transform="scale(0.015625)"/>
       <path id="DejaVuSans-73" d="M 2834 3397 
L 2834 2853 
Q 2591 2978 2328 3040 
Q 2066 3103 1784 3103 
Q 1356 3103 1142 2972 
Q 928 2841 928 2578 
Q 928 2378 1081 2264 
Q 1234 2150 1697 2047 
L 1894 2003 
Q 2506 1872 2764 1633 
Q 3022 1394 3022 966 
Q 3022 478 2636 193 
Q 2250 -91 1575 -91 
Q 1294 -91 989 -36 
Q 684 19 347 128 
L 347 722 
Q 666 556 975 473 
Q 1284 391 1588 391 
Q 1994 391 2212 530 
Q 2431 669 2431 922 
Q 2431 1156 2273 1281 
Q 2116 1406 1581 1522 
L 1381 1569 
Q 847 1681 609 1914 
Q 372 2147 372 2553 
Q 372 3047 722 3315 
Q 1072 3584 1716 3584 
Q 2034 3584 2315 3537 
Q 2597 3491 2834 3397 
z
" transform="scale(0.015625)"/>
       <path id="DejaVuSans-20" transform="scale(0.015625)"/>
       <path id="DejaVuSans-28" d="M 1984 4856 
Q 1566 4138 1362 3434 
Q 1159 2731 1159 2009 
Q 1159 1288 1364 580 
Q 1569 -128 1984 -844 
L 1484 -844 
Q 1016 -109 783 600 
Q 550 1309 550 2009 
Q 550 2706 781 3412 
Q 1013 4119 1484 4856 
L 1984 4856 
z
" transform="scale(0.015625)"/>
       <path id="DejaVuSans-25" d="M 4653 2053 
Q 4381 2053 4226 1822 
Q 4072 1591 4072 1178 
Q 4072 772 4226 539 
Q 4381 306 4653 306 
Q 4919 306 5073 539 
Q 5228 772 5228 1178 
Q 5228 1588 5073 1820 
Q 4919 2053 4653 2053 
z
M 4653 2450 
Q 5147 2450 5437 2106 
Q 5728 1763 5728 1178 
Q 5728 594 5436 251 
Q 5144 -91 4653 -91 
Q 4153 -91 3862 251 
Q 3572 594 3572 1178 
Q 3572 1766 3864 2108 
Q 4156 2450 4653 2450 
z
M 1428 4353 
Q 1159 4353 1004 4120 
Q 850 3888 850 3481 
Q 850 3069 1003 2837 
Q 1156 2606 1428 2606 
Q 1700 2606 1854 2837 
Q 2009 3069 2009 3481 
Q 2009 3884 1853 4118 
Q 1697 4353 1428 4353 
z
M 4250 4750 
L 4750 4750 
L 1831 -91 
L 1331 -91 
L 4250 4750 
z
M 1428 4750 
Q 1922 4750 2215 4408 
Q 2509 4066 2509 3481 
Q 2509 2891 2217 2550 
Q 1925 2209 1428 2209 
Q 931 2209 642 2551 
Q 353 2894 353 3481 
Q 353 4063 643 4406 
Q 934 4750 1428 4750 
z
" transform="scale(0.015625)"/>
       <path id="DejaVuSans-29" d="M 513 4856 
L 1013 4856 
Q 1481 4119 1714 3412 
Q 1947 2706 1947 2009 
Q 1947 1309 1714 600 
Q 1481 -109 1013 -844 
L 513 -844 
Q 928 -128 1133 580 
Q 1338 1288 1338 2009 
Q 1338 2731 1133 3434 
Q 928 4138 513 4856 
z
" transform="scale(0.015625)"/>
      </defs>
      <use xlink:href="#DejaVuSans-52"/>
      <use xlink:href="#DejaVuSans-65" x="64.982422"/>
      <use xlink:href="#DejaVuSans-74" x="126.505859"/>
      <use xlink:href="#DejaVuSans-75" x="165.714844"/>
      <use xlink:href="#DejaVuSans-72" x="229.09375"/>
      <use xlink:href="#DejaVuSans-6e" x="268.457031"/>
      <use xlink:href="#DejaVuSans-73" x="331.835938"/>
      <use xlink:href="#DejaVuSans-20" x="383.935547"/>
      <use xlink:href="#DejaVuSans-28" x="415.722656"/>
      <use xlink:href="#DejaVuSans-25" x="454.736328"/>
      <use xlink:href="#DejaVuSans-29" x="549.755859"/>
     </g>
    </g>
   </g>
   <g id="line2d_27">
    <path d="M 87.498182 328.01171 
L 87.877525 328.01171 
L 88.256869 310.243706 
L 134.916104 310.243706 
L 135.295448 311.004963 
L 135.674791 312.661574 
L 136.054134 309.919811 
L 137.192164 323.702896 
L 137.571508 318.86716 
L 137.950851 315.706603 
L 138.330195 310.681068 
L 138.709538 314.223286 
L 139.847568 317.821206 
L 140.226911 312.946272 
L 140.606255 314.62145 
L 140.985598 321.266461 
L 141.364942 320.047212 
L 142.882315 325.054179 
L 143.261659 328.633532 
L 143.641002 327.187349 
L 144.020345 334.343991 
L 145.158375 335.676707 
L 145.537719 324.33212 
L 146.675749 310.775967 
L 147.813779 308.2632 
L 148.193122 308.397297 
L 148.572466 309.368983 
L 148.951809 307.103779 
L 149.331153 307.712372 
L 150.848526 307.501943 
L 171.712412 307.501943 
L 172.091755 298.934331 
L 172.471099 315.477618 
L 172.850442 314.04212 
L 173.229785 306.010758 
L 174.367816 299.355081 
L 174.747159 303.638887 
L 175.126502 299.126144 
L 175.505846 299.297331 
L 175.885189 313.660559 
L 177.023219 307.636005 
L 177.402563 309.797502 
L 177.781906 305.934446 
L 178.161249 298.876581 
L 178.540593 299.126144 
L 180.057966 302.395201 
L 180.816653 288.854909 
L 181.195996 288.415598 
L 182.71337 288.128911 
L 190.679581 288.128911 
L 191.058924 298.203316 
L 191.438268 293.613981 
L 191.817611 285.96996 
L 192.955641 288.440017 
L 193.334985 297.28879 
L 194.473015 282.215809 
L 195.611045 282.856812 
L 195.990388 277.15877 
L 196.369732 278.092088 
L 196.749075 276.379961 
L 197.128418 278.927272 
L 198.266448 274.99982 
L 198.645792 276.906127 
L 199.025135 275.212792 
L 199.404479 274.260682 
L 199.783822 271.86788 
L 200.921852 268.560552 
L 201.301195 268.735941 
L 201.680539 266.927768 
L 202.059882 268.502089 
L 202.439226 263.037899 
L 203.577256 260.645097 
L 203.956599 261.30698 
L 204.335943 261.171263 
L 205.094629 257.5925 
L 206.232659 258.73879 
L 206.612003 257.475574 
L 206.991346 257.281394 
L 207.37069 256.404451 
L 207.750033 252.048967 
L 208.888063 251.602143 
L 209.267406 251.775444 
L 209.64675 254.032528 
L 210.026093 255.005518 
L 210.405437 253.662959 
L 211.92281 247.595348 
L 212.302153 244.870561 
L 213.06084 247.146437 
L 214.19887 252.339193 
L 214.578214 256.404451 
L 214.957557 252.68997 
L 215.336901 251.602143 
L 215.716244 246.05861 
L 217.233617 248.664384 
L 217.612961 246.933465 
L 217.992304 241.661367 
L 218.371648 241.291798 
L 219.509678 237.05324 
L 220.268364 236.877851 
L 221.027051 231.593225 
L 222.165081 230.634852 
L 222.544425 230.61606 
L 223.303111 227.273236 
L 223.682455 227.429833 
L 224.820485 230.908374 
L 225.199828 229.384164 
L 225.958515 223.500293 
L 226.337858 228.308864 
L 227.475889 225.905623 
L 227.855232 227.684565 
L 228.613919 220.021752 
L 228.993262 221.859157 
L 230.131292 217.480705 
L 230.510636 218.45787 
L 230.889979 217.013002 
L 231.269322 211.676177 
L 231.648666 209.663384 
L 233.166039 210.932864 
L 233.545383 210.855609 
L 233.924726 210.112295 
L 234.304069 215.87924 
L 235.4421 226.179146 
L 235.821443 219.554049 
L 236.200786 220.080215 
L 236.58013 218.008959 
L 236.959473 229.638895 
L 238.097503 224.968129 
L 238.85619 207.884442 
L 239.235533 205.696261 
L 239.614877 209.174802 
L 241.13225 203.192797 
L 241.511594 198.970942 
L 241.890937 199.674585 
L 242.27028 198.620165 
L 243.787654 200.319764 
L 244.166997 197.173209 
L 244.546341 199.889645 
L 246.063714 228.290073 
L 246.443058 247.386552 
L 246.822401 249.633197 
L 247.201744 276.977118 
L 247.581088 279.422119 
L 248.719118 254.343634 
L 249.098461 271.642381 
L 249.477805 246.975224 
L 249.857148 267.3036 
L 250.236491 277.075252 
L 251.374522 322.480024 
L 251.753865 294.745655 
L 252.133208 322.225293 
L 252.512552 373.532727 
L 252.891895 332.076287 
L 254.029925 332.076287 
L 254.409269 303.660132 
L 255.167955 303.660132 
L 255.547299 327.566523 
L 260.099419 327.566523 
L 260.478763 315.316383 
L 291.964263 315.316383 
L 292.343606 309.494137 
L 292.72295 322.532342 
L 293.86098 314.655408 
L 294.240323 307.688731 
L 294.99901 300.77682 
L 296.516384 292.169036 
L 296.895727 298.010167 
L 297.27507 293.723272 
L 297.654414 296.937499 
L 298.033757 291.204013 
L 299.171787 296.116002 
L 299.930474 283.595246 
L 300.309817 285.489411 
L 301.827191 279.183709 
L 302.206534 277.952407 
L 302.585878 274.647532 
L 302.965221 281.61232 
L 303.344564 285.328889 
L 304.482595 281.149638 
L 304.861938 284.809551 
L 305.241281 277.756003 
L 305.620625 279.827688 
L 305.999968 275.255629 
L 307.137998 271.201019 
L 307.517342 268.93293 
L 308.276028 261.305278 
L 308.655372 260.876589 
L 309.793402 259.091956 
L 310.172745 264.037938 
L 310.552089 255.751199 
L 310.931432 256.840864 
L 311.310775 256.821979 
L 312.448806 254.910817 
L 312.828149 253.607752 
L 313.207492 256.125122 
L 313.966179 252.108282 
L 315.483553 243.819655 
L 315.862896 237.657479 
L 316.242239 236.301536 
L 316.621583 232.282808 
L 317.759613 234.550896 
L 321.553047 234.550896 
L 321.93239 234.234817 
L 323.449763 222.818411 
L 323.829107 225.341123 
L 324.20845 230.908077 
L 324.587794 238.132475 
L 325.725824 245.034867 
L 326.105167 238.788341 
L 326.484511 253.158117 
L 326.863854 251.544134 
L 327.243197 241.733809 
L 328.381227 231.490849 
L 328.760571 234.906486 
L 329.519258 226.14515 
L 329.898601 232.14869 
L 331.036631 221.042438 
L 331.415974 221.042438 
L 331.795318 209.947495 
L 339.382185 209.947495 
L 339.761529 232.108013 
L 340.140872 225.744133 
L 340.520216 232.338179 
L 341.658246 225.322162 
L 342.416932 199.747519 
L 342.796276 186.902656 
L 343.175619 187.0561 
L 385.282734 187.0561 
L 385.662078 190.515879 
L 386.800108 174.325437 
L 387.179451 179.66333 
L 387.938138 196.941973 
L 388.317481 184.772903 
L 389.455511 188.127729 
L 389.834855 178.558557 
L 390.214198 174.325437 
L 390.593542 167.391148 
L 390.972885 166.459456 
L 392.110915 162.333131 
L 392.490258 163.211425 
L 392.869602 160.841688 
L 393.248945 170.990865 
L 393.628289 172.261354 
L 394.766319 166.783523 
L 395.145662 172.226369 
L 395.525005 175.715609 
L 395.904349 171.874683 
L 396.283692 160.812227 
L 397.421722 161.163913 
L 397.801066 163.014407 
L 398.180409 160.195396 
L 398.559753 152.655323 
L 400.077126 142.526399 
L 400.456469 142.949895 
L 400.835813 142.121316 
L 416.388891 142.121316 
L 416.768235 143.998707 
L 417.147578 136.312854 
L 417.526921 136.903514 
L 418.664952 129.548431 
L 419.044295 131.165931 
L 419.423638 129.722903 
L 419.802982 129.341246 
L 420.182325 128.036341 
L 421.699699 128.679706 
L 422.079042 127.532916 
L 422.458385 130.244501 
L 422.837729 123.585489 
L 423.975759 124.297916 
L 424.355102 124.141618 
L 424.734446 125.23752 
L 425.113789 121.829865 
L 425.493132 120.612196 
L 426.631163 118.960164 
L 427.010506 120.315957 
L 427.389849 124.437857 
L 427.769193 124.681391 
L 428.148536 134.579039 
L 429.66591 120.29233 
L 430.045253 121.181047 
L 430.424596 116.821066 
L 430.80394 114.185812 
L 432.700657 111.655969 
L 433.08 107.523165 
L 433.459343 101.783764 
L 434.976717 103.161366 
L 435.35606 100.491581 
L 435.735404 106.667161 
L 436.114747 98.643269 
L 437.252777 95.922597 
L 437.632121 98.521502 
L 438.011464 97.387435 
L 438.390807 99.98634 
L 438.770151 105.934743 
L 439.908181 117.046425 
L 440.287524 106.423628 
L 440.666868 100.335284 
L 441.046211 98.748679 
L 441.425554 90.93379 
L 442.563584 89.049129 
L 442.942928 92.554925 
L 443.322271 92.869338 
L 443.701615 89.694312 
L 444.080958 93.427285 
L 445.218988 95.032063 
L 445.598332 88.821952 
L 445.977675 92.60763 
L 446.357018 87.758764 
L 446.736362 86.484755 
L 447.874392 87.111764 
L 448.253735 86.153985 
L 449.391765 80.501821 
L 450.529795 78.669865 
L 450.909139 83.78044 
L 451.288482 92.258686 
L 451.667826 91.071913 
L 452.047169 84.967213 
L 453.185199 78.164624 
L 453.564542 76.925146 
L 453.943886 75.285837 
L 454.323229 79.907526 
L 454.702573 72.948639 
L 455.840603 69.493731 
L 456.219946 70.66233 
L 456.599289 70.244324 
L 456.978633 67.819891 
L 457.357976 68.01072 
L 458.87535 70.836802 
L 459.254693 71.796398 
L 459.634037 75.16407 
L 460.01338 81.337832 
L 461.15141 79.349579 
L 461.530753 83.553263 
L 461.910097 77.081444 
L 462.28944 78.320922 
L 462.668784 85.919539 
L 463.806814 98.799567 
L 464.186157 99.517446 
L 464.944844 82.804487 
L 465.324187 81.526844 
L 466.462217 83.749544 
L 466.841561 99.359331 
L 467.220904 98.081688 
L 467.600247 107.374136 
L 467.979591 98.448806 
L 469.117621 108.250131 
L 469.496964 100.444329 
L 469.876308 97.294746 
L 470.255651 90.713882 
L 470.634995 92.11511 
L 472.152368 99.533803 
L 472.531711 96.804044 
L 472.911055 83.994895 
L 473.290398 78.097379 
L 489.22282 78.097379 
L 490.36085 68.526987 
L 490.740194 83.895049 
L 491.119537 92.496221 
L 491.49888 80.766709 
L 491.878224 87.533599 
L 493.016254 78.404564 
L 493.395597 62.272071 
L 493.774941 60.164148 
L 494.154284 65.552238 
L 494.533627 58.089768 
L 495.671658 65.177967 
L 496.051001 70.634909 
L 496.430344 58.328101 
L 497.189031 73.821509 
L 498.327061 82.163163 
L 498.706405 68.380456 
L 499.085748 60.481925 
L 499.465091 55.517538 
L 500.982465 44.155234 
L 501.361808 44.820801 
L 501.741152 43.780963 
L 502.499838 48.079784 
L 503.637868 43.387273 
L 504.017212 43.660914 
L 504.396555 59.304384 
L 504.775899 60.054691 
L 505.155242 63.211279 
L 506.293272 64.199919 
L 506.672616 56.966955 
L 507.051959 54.800774 
L 507.431302 65.871781 
L 507.810646 65.546942 
L 509.328019 79.587402 
L 510.086706 96.203623 
L 510.466049 111.163871 
L 511.604079 107.991395 
L 511.983423 117.152208 
L 512.362766 119.011205 
L 512.74211 122.662113 
L 513.121453 104.391684 
L 514.259483 90.812002 
L 515.397513 90.812002 
L 515.776857 87.203037 
L 520.708321 87.203037 
L 521.087664 92.196884 
L 522.984381 92.196884 
L 523.363724 80.667637 
L 523.743068 63.51093 
L 524.881098 65.543956 
L 525.260441 65.543956 
L 525.639784 50.958227 
L 526.398471 50.958227 
L 527.536501 74.760729 
L 529.053875 74.760729 
L 530.191905 80.486319 
L 540.81352 80.486319 
L 541.192863 83.368732 
L 541.572206 74.491628 
L 541.95155 84.253524 
L 543.468923 83.934269 
L 543.848267 71.432257 
L 544.22761 72.016036 
L 544.606953 83.775554 
L 544.986297 105.030617 
L 546.124327 100.663214 
L 546.50367 122.607867 
L 546.883014 120.539097 
L 547.262357 101.900097 
L 547.6417 129.857685 
L 548.779731 125.472038 
L 549.159074 122.113479 
L 549.538417 99.690855 
L 549.917761 126.657841 
L 550.297104 131.025244 
L 554.849225 131.025244 
L 555.228568 135.47959 
L 555.607911 135.47959 
L 556.745942 121.955527 
L 565.470839 121.955527 
L 565.850183 146.329489 
L 566.229526 144.794721 
L 567.7469 126.83032 
L 568.126243 128.156712 
L 570.402303 128.156712 
L 570.781647 128.751871 
L 592.783563 128.751871 
L 593.921593 133.57655 
L 594.300936 141.532002 
L 594.680279 146.987274 
L 595.059623 144.755235 
L 595.438966 152.279812 
L 596.95634 154.944574 
L 597.335683 142.306835 
L 597.715026 137.626397 
L 598.09437 126.429219 
L 599.2324 118.562532 
L 599.611743 150.731995 
L 599.991087 148.032097 
L 600.37043 156.096654 
L 600.749773 161.453916 
L 601.887804 156.050423 
L 602.267147 164.111281 
L 602.64649 176.221985 
L 603.025834 181.952795 
L 603.405177 193.286816 
L 604.922551 201.547393 
L 605.301894 188.623021 
L 606.060581 212.753817 
L 607.198611 195.709327 
L 607.577954 175.173463 
L 608.336641 175.173463 
L 608.715984 194.234295 
L 632.614617 194.234295 
L 633.752647 184.659019 
L 634.131991 179.558655 
L 634.511334 183.898802 
L 634.890678 200.398962 
L 635.270021 208.166995 
L 636.408051 213.682023 
L 636.787394 212.799135 
L 637.166738 203.146109 
L 637.546081 212.49332 
L 637.925425 208.778624 
L 639.442798 211.340901 
L 639.822142 219.381921 
L 640.201485 207.878459 
L 640.580828 209.592402 
L 642.098202 212.323999 
L 642.477545 207.33594 
L 642.856889 214.76706 
L 643.236232 200.006759 
L 644.374262 200.379957 
L 644.753605 195.765095 
L 645.132949 187.383705 
L 645.891636 182.328263 
L 647.409009 183.567071 
L 647.788352 194.222201 
L 648.167696 199.056488 
L 648.547039 186.773804 
L 649.685069 178.713778 
L 650.064413 179.442895 
L 650.443756 179.188913 
L 650.823099 171.723239 
L 651.202443 170.145789 
L 652.340473 178.782888 
L 653.478503 151.313145 
L 653.857847 158.828925 
L 654.995877 163.105145 
L 655.37522 154.011915 
L 656.133907 167.754562 
L 656.51325 166.142556 
L 657.65128 158.015148 
L 658.030624 158.33824 
L 658.409967 156.0645 
L 658.78931 165.734804 
L 659.168654 167.466025 
L 660.686027 181.326159 
L 661.065371 182.26088 
L 661.444714 178.663673 
L 661.824057 185.925471 
L 662.962088 183.634454 
L 663.720774 188.707173 
L 664.100118 183.49796 
L 664.479461 172.67351 
L 665.617491 172.198374 
L 665.996835 182.718738 
L 666.376178 181.614696 
L 667.134865 203.688627 
L 668.272895 204.621621 
L 668.652238 193.814448 
L 669.031582 197.971452 
L 669.410925 186.383329 
L 669.790268 194.241206 
L 670.928299 187.853657 
L 671.307642 179.048964 
L 671.686985 190.630176 
L 672.066329 188.824661 
L 672.445672 184.430954 
L 673.583702 183.171413 
L 673.963046 184.686663 
L 674.342389 174.893688 
L 674.721732 170.892184 
L 675.101076 161.201147 
L 676.239106 158.543844 
L 676.618449 162.427861 
L 676.997793 164.248925 
L 677.377136 161.541517 
L 679.273853 160.639623 
L 679.653196 163.483525 
L 680.03254 154.252075 
L 680.411883 155.972929 
L 681.549913 153.452119 
L 681.929257 152.992533 
L 682.3086 153.111749 
L 682.687943 156.959483 
L 683.067287 156.415237 
L 684.205317 155.682664 
L 684.58466 166.838846 
L 684.964004 169.767408 
L 685.343347 156.057589 
L 685.72269 150.062243 
L 686.86072 150.777538 
L 687.240064 158.730443 
L 687.998751 168.456034 
L 688.378094 155.682664 
L 689.516124 155.496066 
L 689.895468 158.578399 
L 690.274811 155.307739 
L 691.033498 157.453624 
L 692.171528 155.034752 
L 692.550871 159.736002 
L 693.309558 144.441822 
L 693.688901 145.481937 
L 694.826931 145.191672 
L 695.206275 153.19641 
L 695.585618 158.305412 
L 695.964962 152.242683 
L 696.344305 143.097621 
L 697.861678 142.824634 
L 698.241022 146.793311 
L 698.620365 140.030837 
L 698.999709 129.641783 
L 700.137739 131.039546 
L 700.517082 129.455185 
L 700.896426 131.975995 
L 701.275769 127.582287 
L 701.655112 126.270913 
L 702.793142 119.627655 
L 703.172486 114.757084 
L 703.551829 113.872468 
L 703.931173 104.641017 
L 704.310516 107.208477 
L 705.827889 111.106316 
L 706.207233 114.935044 
L 706.586576 112.251824 
L 706.96592 117.892978 
L 708.10395 120.918296 
L 708.483293 112.832353 
L 708.862636 112.4557 
L 709.24198 109.516771 
L 709.621323 100.677523 
L 710.759353 99.80673 
L 711.51804 100.93496 
L 711.897383 106.866379 
L 712.276727 108.763466 
L 713.414757 106.866379 
L 714.173444 95.995279 
L 714.552787 89.942917 
L 714.932131 90.421508 
L 716.070161 87.755565 
L 716.449504 82.028023 
L 716.828847 80.301985 
L 717.208191 85.464548 
L 717.587534 85.464548 
L 718.725564 82.010745 
L 719.104908 79.890777 
L 719.484251 79.771561 
L 719.863594 84.934124 
L 720.242938 77.361329 
L 721.380968 75.873722 
L 721.760311 78.114634 
L 722.139655 88.968457 
L 722.518998 91.173086 
L 722.898341 94.644166 
L 724.036372 87.976719 
L 724.415715 91.328584 
L 724.795058 96.456592 
L 725.174402 96.181878 
L 725.553745 96.627641 
L 726.691775 92.42226 
L 727.071119 101.344441 
L 727.829805 112.626749 
L 728.209149 112.269102 
L 729.347179 107.414081 
L 729.726522 109.447661 
L 730.105866 101.106009 
L 730.485209 111.602184 
L 730.864552 106.335955 
L 732.002583 101.567323 
L 732.381926 90.627112 
L 740.72748 90.627112 
L 741.106824 103.317343 
L 741.486167 105.014897 
L 742.624197 101.847187 
L 743.003541 112.961496 
L 743.382884 112.663587 
L 745.279601 112.663587 
L 745.658944 122.644271 
L 754.004499 122.644271 
L 754.383842 131.454403 
L 754.763185 134.747777 
L 755.901215 126.097346 
L 778.661818 126.097346 
L 778.661818 126.097346 
" clip-path="url(#p6427be83bd)" style="fill: none; stroke: #d62728; stroke-width: 1.5; stroke-linecap: square"/>
   </g>
   <g id="patch_3">
    <path d="M 52.94 390.04 
L 52.94 26.88 
" style="fill: none; stroke: #000000; stroke-width: 0.8; stroke-linejoin: miter; stroke-linecap: square"/>
   </g>
   <g id="patch_4">
    <path d="M 813.22 390.04 
L 813.22 26.88 
" style="fill: none; stroke: #000000; stroke-width: 0.8; stroke-linejoin: miter; stroke-linecap: square"/>
   </g>
   <g id="patch_5">
    <path d="M 52.94 390.04 
L 813.22 390.04 
" style="fill: none; stroke: #000000; stroke-width: 0.8; stroke-linejoin: miter; stroke-linecap: square"/>
   </g>
   <g id="patch_6">
    <path d="M 52.94 26.88 
L 813.22 26.88 
" style="fill: none; stroke: #000000; stroke-width: 0.8; stroke-linejoin: miter; stroke-linecap: square"/>
   </g>
  </g>
  <g id="axes_2">
   <g id="matplotlib.axis_3">
    <g id="ytick_8">
     <g id="line2d_28">
      <defs>
       <path id="m185e4f2627" d="M 0 0 
L 3.5 0 
" style="stroke: #000000; stroke-width: 0.8"/>
      </defs>
      <g>
       <use xlink:href="#m185e4f2627" x="813.22" y="385.894467" style="stroke: #000000; stroke-width: 0.8"/>
      </g>
     </g>
     <g id="text_16">
      <!-- 200 -->
      <g style="fill: #1f77b4" transform="translate(820.22 389.693686) scale(0.1 -0.1)">
       <use xlink:href="#DejaVuSans-32"/>
       <use xlink:href="#DejaVuSans-30" x="63.623047"/>
       <use xlink:href="#DejaVuSans-30" x="127.246094"/>
      </g>
     </g>
    </g>
    <g id="ytick_9">
     <g id="line2d_29">
      <g>
       <use xlink:href="#m185e4f2627" x="813.22" y="323.668855" style="stroke: #000000; stroke-width: 0.8"/>
      </g>
     </g>
     <g id="text_17">
      <!-- 250 -->
      <g style="fill: #1f77b4" transform="translate(820.22 327.468074) scale(0.1 -0.1)">
       <use xlink:href="#DejaVuSans-32"/>
       <use xlink:href="#DejaVuSans-35" x="63.623047"/>
       <use xlink:href="#DejaVuSans-30" x="127.246094"/>
      </g>
     </g>
    </g>
    <g id="ytick_10">
     <g id="line2d_30">
      <g>
       <use xlink:href="#m185e4f2627" x="813.22" y="261.443242" style="stroke: #000000; stroke-width: 0.8"/>
      </g>
     </g>
     <g id="text_18">
      <!-- 300 -->
      <g style="fill: #1f77b4" transform="translate(820.22 265.242461) scale(0.1 -0.1)">
       <use xlink:href="#DejaVuSans-33"/>
       <use xlink:href="#DejaVuSans-30" x="63.623047"/>
       <use xlink:href="#DejaVuSans-30" x="127.246094"/>
      </g>
     </g>
    </g>
    <g id="ytick_11">
     <g id="line2d_31">
      <g>
       <use xlink:href="#m185e4f2627" x="813.22" y="199.21763" style="stroke: #000000; stroke-width: 0.8"/>
      </g>
     </g>
     <g id="text_19">
      <!-- 350 -->
      <g style="fill: #1f77b4" transform="translate(820.22 203.016849) scale(0.1 -0.1)">
       <use xlink:href="#DejaVuSans-33"/>
       <use xlink:href="#DejaVuSans-35" x="63.623047"/>
       <use xlink:href="#DejaVuSans-30" x="127.246094"/>
      </g>
     </g>
    </g>
    <g id="ytick_12">
     <g id="line2d_32">
      <g>
       <use xlink:href="#m185e4f2627" x="813.22" y="136.992017" style="stroke: #000000; stroke-width: 0.8"/>
      </g>
     </g>
     <g id="text_20">
      <!-- 400 -->
      <g style="fill: #1f77b4" transform="translate(820.22 140.791236) scale(0.1 -0.1)">
       <use xlink:href="#DejaVuSans-34"/>
       <use xlink:href="#DejaVuSans-30" x="63.623047"/>
       <use xlink:href="#DejaVuSans-30" x="127.246094"/>
      </g>
     </g>
    </g>
    <g id="ytick_13">
     <g id="line2d_33">
      <g>
       <use xlink:href="#m185e4f2627" x="813.22" y="74.766405" style="stroke: #000000; stroke-width: 0.8"/>
      </g>
     </g>
     <g id="text_21">
      <!-- 450 -->
      <g style="fill: #1f77b4" transform="translate(820.22 78.565623) scale(0.1 -0.1)">
       <use xlink:href="#DejaVuSans-34"/>
       <use xlink:href="#DejaVuSans-35" x="63.623047"/>
       <use xlink:href="#DejaVuSans-30" x="127.246094"/>
      </g>
     </g>
    </g>
    <g id="text_22">
     <!-- Close Price -->
     <g style="fill: #1f77b4" transform="translate(850.905938 235.867812) rotate(-90) scale(0.1 -0.1)">
      <defs>
       <path id="DejaVuSans-43" d="M 4122 4306 
L 4122 3641 
Q 3803 3938 3442 4084 
Q 3081 4231 2675 4231 
Q 1875 4231 1450 3742 
Q 1025 3253 1025 2328 
Q 1025 1406 1450 917 
Q 1875 428 2675 428 
Q 3081 428 3442 575 
Q 3803 722 4122 1019 
L 4122 359 
Q 3791 134 3420 21 
Q 3050 -91 2638 -91 
Q 1578 -91 968 557 
Q 359 1206 359 2328 
Q 359 3453 968 4101 
Q 1578 4750 2638 4750 
Q 3056 4750 3426 4639 
Q 3797 4528 4122 4306 
z
" transform="scale(0.015625)"/>
       <path id="DejaVuSans-6c" d="M 603 4863 
L 1178 4863 
L 1178 0 
L 603 0 
L 603 4863 
z
" transform="scale(0.015625)"/>
       <path id="DejaVuSans-6f" d="M 1959 3097 
Q 1497 3097 1228 2736 
Q 959 2375 959 1747 
Q 959 1119 1226 758 
Q 1494 397 1959 397 
Q 2419 397 2687 759 
Q 2956 1122 2956 1747 
Q 2956 2369 2687 2733 
Q 2419 3097 1959 3097 
z
M 1959 3584 
Q 2709 3584 3137 3096 
Q 3566 2609 3566 1747 
Q 3566 888 3137 398 
Q 2709 -91 1959 -91 
Q 1206 -91 779 398 
Q 353 888 353 1747 
Q 353 2609 779 3096 
Q 1206 3584 1959 3584 
z
" transform="scale(0.015625)"/>
       <path id="DejaVuSans-50" d="M 1259 4147 
L 1259 2394 
L 2053 2394 
Q 2494 2394 2734 2622 
Q 2975 2850 2975 3272 
Q 2975 3691 2734 3919 
Q 2494 4147 2053 4147 
L 1259 4147 
z
M 628 4666 
L 2053 4666 
Q 2838 4666 3239 4311 
Q 3641 3956 3641 3272 
Q 3641 2581 3239 2228 
Q 2838 1875 2053 1875 
L 1259 1875 
L 1259 0 
L 628 0 
L 628 4666 
z
" transform="scale(0.015625)"/>
       <path id="DejaVuSans-69" d="M 603 3500 
L 1178 3500 
L 1178 0 
L 603 0 
L 603 3500 
z
M 603 4863 
L 1178 4863 
L 1178 4134 
L 603 4134 
L 603 4863 
z
" transform="scale(0.015625)"/>
       <path id="DejaVuSans-63" d="M 3122 3366 
L 3122 2828 
Q 2878 2963 2633 3030 
Q 2388 3097 2138 3097 
Q 1578 3097 1268 2742 
Q 959 2388 959 1747 
Q 959 1106 1268 751 
Q 1578 397 2138 397 
Q 2388 397 2633 464 
Q 2878 531 3122 666 
L 3122 134 
Q 2881 22 2623 -34 
Q 2366 -91 2075 -91 
Q 1284 -91 818 406 
Q 353 903 353 1747 
Q 353 2603 823 3093 
Q 1294 3584 2113 3584 
Q 2378 3584 2631 3529 
Q 2884 3475 3122 3366 
z
" transform="scale(0.015625)"/>
      </defs>
      <use xlink:href="#DejaVuSans-43"/>
      <use xlink:href="#DejaVuSans-6c" x="69.824219"/>
      <use xlink:href="#DejaVuSans-6f" x="97.607422"/>
      <use xlink:href="#DejaVuSans-73" x="158.789062"/>
      <use xlink:href="#DejaVuSans-65" x="210.888672"/>
      <use xlink:href="#DejaVuSans-20" x="272.412109"/>
      <use xlink:href="#DejaVuSans-50" x="304.199219"/>
      <use xlink:href="#DejaVuSans-72" x="362.751953"/>
      <use xlink:href="#DejaVuSans-69" x="403.865234"/>
      <use xlink:href="#DejaVuSans-63" x="431.648438"/>
      <use xlink:href="#DejaVuSans-65" x="486.628906"/>
     </g>
    </g>
   </g>
   <g id="line2d_34">
    <path d="M 87.498182 348.754488 
L 87.877525 355.579394 
L 88.256869 346.226884 
L 89.394899 343.951916 
L 89.774242 341.218967 
L 90.532929 338.807102 
L 90.912272 338.692607 
L 92.050302 340.499639 
L 92.429646 337.125766 
L 92.808989 336.406438 
L 93.188333 334.141425 
L 93.567676 330.140319 
L 95.085049 334.255921 
L 95.464393 333.627442 
L 95.843736 333.4669 
L 96.22308 330.918139 
L 97.36111 333.227954 
L 97.740453 333.627442 
L 98.119796 328.859715 
L 98.49914 326.172814 
L 98.878483 326.024717 
L 100.016513 323.851798 
L 100.395857 322.548794 
L 100.7752 322.960727 
L 101.154543 325.932623 
L 101.533887 325.555535 
L 102.671917 325.383793 
L 103.05126 321.405087 
L 103.430604 320.387076 
L 103.809947 321.085247 
L 104.18929 317.666572 
L 105.706664 317.117742 
L 106.086007 316.476819 
L 106.465351 317.609325 
L 106.844694 315.642995 
L 107.982724 315.208661 
L 108.741411 315.574547 
L 109.120754 316.16818 
L 109.500098 314.179449 
L 111.017471 315.779892 
L 111.396815 317.712619 
L 111.776158 320.364675 
L 112.155501 320.993154 
L 114.052218 313.127836 
L 114.431562 313.333181 
L 114.810905 311.745183 
L 115.948935 310.574097 
L 116.328279 310.493204 
L 116.707622 311.468901 
L 117.086965 307.817502 
L 117.466309 314.111001 
L 118.604339 314.351192 
L 118.983682 311.962973 
L 119.363026 313.651776 
L 119.742369 312.434643 
L 120.121712 310.40111 
L 121.259743 306.554322 
L 121.639086 306.39378 
L 122.018429 305.876063 
L 122.397773 305.00366 
L 122.777116 303.408195 
L 123.915146 303.155559 
L 124.29449 304.854319 
L 124.673833 303.72928 
L 125.053176 303.821374 
L 125.43252 301.581251 
L 126.57055 301.800286 
L 126.949893 301.581251 
L 127.329237 302.397651 
L 127.70858 301.743038 
L 129.225953 301.455556 
L 129.605297 298.457526 
L 129.98464 299.204233 
L 130.363984 299.410822 
L 130.743327 297.848959 
L 132.260701 297.149543 
L 132.640044 299.687104 
L 133.019387 300.410165 
L 133.398731 297.137098 
L 134.536761 298.527218 
L 134.916104 304.142458 
L 135.295448 304.601683 
L 135.674791 305.601026 
L 136.054134 303.947069 
L 137.192164 312.261656 
L 137.571508 309.344519 
L 137.950851 307.437926 
L 138.330195 304.406294 
L 138.709538 306.543122 
L 139.847568 308.713551 
L 140.226911 305.772769 
L 140.606255 306.783313 
L 140.985598 310.791887 
L 141.364942 310.05638 
L 142.882315 313.076811 
L 143.261659 315.23604 
L 143.641002 314.363637 
L 144.020345 318.68085 
L 145.158375 319.484805 
L 145.537719 312.641232 
L 146.675749 304.463542 
L 147.813779 302.947726 
L 148.193122 303.028619 
L 148.572466 303.614784 
L 148.951809 302.24831 
L 149.331153 302.615441 
L 150.469183 302.488501 
L 150.848526 299.008845 
L 151.227869 298.250937 
L 151.607213 295.036362 
L 151.986556 295.530433 
L 153.124586 295.944855 
L 153.50393 299.268948 
L 153.883273 299.603721 
L 154.262617 298.415212 
L 154.64196 296.684096 
L 156.159333 292.725302 
L 156.538677 289.991109 
L 157.297364 290.38313 
L 158.435394 292.276033 
L 158.814737 291.849166 
L 159.19408 290.210143 
L 159.573424 289.402455 
L 159.952767 287.855526 
L 161.090797 287.741031 
L 161.470141 288.859847 
L 161.849484 291.214464 
L 162.228827 289.956263 
L 162.608171 291.871567 
L 163.746201 291.029032 
L 164.125544 288.57112 
L 164.504888 286.944543 
L 164.884231 288.605967 
L 165.263574 286.286196 
L 166.401605 286.920897 
L 166.780948 287.774633 
L 167.539635 294.560958 
L 167.918978 297.122164 
L 169.057008 307.277384 
L 169.436352 302.683889 
L 169.815695 302.488501 
L 170.195038 295.968501 
L 170.574382 298.275827 
L 171.712412 302.372761 
L 172.091755 297.203057 
L 172.471099 307.18529 
L 172.850442 306.31911 
L 173.229785 301.472979 
L 174.367816 297.456938 
L 174.747159 300.04179 
L 175.126502 297.318797 
L 175.505846 297.422092 
L 175.885189 306.088875 
L 177.023219 302.453655 
L 177.402563 303.757903 
L 177.781906 301.426932 
L 178.161249 297.168211 
L 178.540593 297.318797 
L 180.057966 299.291349 
L 180.816653 291.121126 
L 181.195996 290.856045 
L 182.334027 290.683058 
L 182.71337 290.763951 
L 183.092713 288.31724 
L 183.472057 287.11753 
L 183.8514 287.347765 
L 184.98943 288.421779 
L 185.368774 287.544398 
L 185.748117 287.336564 
L 186.12746 287.36021 
L 186.506804 289.001722 
L 187.644834 289.082615 
L 188.024177 291.795652 
L 188.403521 289.765852 
L 188.782864 290.48518 
L 189.162207 292.340748 
L 190.300238 290.751506 
L 190.679581 294.844707 
L 191.058924 300.849478 
L 191.438268 298.11404 
L 191.817611 293.557881 
L 192.955641 295.030139 
L 193.334985 300.304382 
L 194.473015 291.320248 
L 195.611045 291.702313 
L 195.990388 288.306039 
L 196.369732 288.862336 
L 196.749075 287.841836 
L 197.128418 289.360141 
L 198.266448 287.019214 
L 198.645792 288.155453 
L 199.025135 287.146154 
L 199.404479 286.578656 
L 199.783822 285.152445 
L 200.921852 283.181138 
L 201.301195 283.285677 
L 201.680539 282.207929 
L 202.059882 283.146291 
L 202.439226 279.889403 
L 203.577256 278.463192 
L 203.956599 278.857702 
L 204.335943 278.776809 
L 205.094629 276.643715 
L 206.232659 277.326952 
L 206.612003 276.574022 
L 206.991346 276.458283 
L 207.37069 275.935587 
L 207.750033 273.339535 
L 208.888063 273.073209 
L 209.267406 273.176504 
L 209.64675 274.521822 
L 210.026093 275.101764 
L 210.405437 274.301543 
L 211.92281 270.68499 
L 212.302153 269.060902 
L 213.06084 270.41742 
L 214.19887 273.512522 
L 214.578214 275.935587 
L 214.957557 273.7216 
L 215.336901 273.073209 
L 215.716244 269.769029 
L 217.233617 271.322181 
L 217.612961 270.29048 
L 217.992304 267.148086 
L 218.371648 266.927808 
L 219.509678 264.401448 
L 220.268364 264.296909 
L 221.027051 261.147048 
L 222.165081 260.575817 
L 222.544425 260.564617 
L 223.303111 258.572153 
L 223.682455 258.665491 
L 224.820485 260.738848 
L 225.199828 259.830354 
L 225.958515 256.323319 
L 226.337858 259.189431 
L 227.475889 257.756997 
L 227.855232 258.817321 
L 228.613919 254.249962 
L 228.993262 255.345132 
L 230.131292 252.73539 
L 230.510636 253.317822 
L 230.889979 252.456619 
L 231.269322 249.275646 
L 231.648666 248.075936 
L 233.166039 248.8326 
L 233.545383 248.786553 
L 233.924726 248.343506 
L 234.304069 251.780849 
L 235.4421 257.920028 
L 235.821443 253.971191 
L 236.200786 254.284808 
L 236.58013 253.050252 
L 236.959473 259.982185 
L 238.097503 257.198211 
L 238.85619 247.015612 
L 239.235533 245.711363 
L 239.614877 247.78472 
L 241.13225 244.219193 
L 241.511594 241.702789 
L 241.890937 242.12219 
L 242.27028 241.493711 
L 243.787654 242.506744 
L 244.166997 240.631264 
L 244.546341 242.250374 
L 246.063714 259.17823 
L 246.443058 270.560539 
L 246.822401 271.899634 
L 247.201744 288.197767 
L 247.581088 289.655091 
L 248.719118 274.707254 
L 249.098461 285.018038 
L 249.477805 270.31537 
L 249.857148 282.431941 
L 250.236491 288.256259 
L 251.374522 315.319422 
L 251.753865 298.788566 
L 252.133208 315.167592 
L 252.512552 345.748991 
L 252.891895 321.039201 
L 254.029925 355.37156 
L 254.409269 340.285582 
L 254.788612 355.197328 
L 255.167955 354.603696 
L 255.547299 366.677954 
L 256.685329 373.532727 
L 257.064672 349.862104 
L 257.444016 345.595916 
L 257.823359 328.710374 
L 258.202702 337.826426 
L 259.340732 328.182701 
L 259.720076 332.75255 
L 260.099419 346.346357 
L 260.478763 339.690706 
L 260.858106 343.955649 
L 261.996136 324.42054 
L 262.375479 324.104434 
L 262.754823 313.675422 
L 263.134166 308.788222 
L 264.65154 311.765095 
L 265.030883 302.238354 
L 265.410227 309.304694 
L 265.78957 307.73412 
L 266.168913 298.898083 
L 267.306943 304.815739 
L 267.686287 314.835307 
L 268.06563 307.73412 
L 268.444974 307.757766 
L 268.824317 303.199117 
L 269.962347 298.417701 
L 270.34169 299.96463 
L 270.721034 291.19953 
L 271.100377 294.397927 
L 271.479721 303.40944 
L 272.617751 302.495968 
L 272.997094 299.425756 
L 273.376437 301.698236 
L 273.755781 297.679706 
L 274.135124 292.101802 
L 275.273154 292.030864 
L 276.031841 304.804538 
L 276.411185 300.855701 
L 276.790528 299.319973 
L 277.928558 289.101283 
L 278.307901 292.651876 
L 278.687245 286.840004 
L 279.066588 289.241912 
L 279.445932 288.586055 
L 280.963305 284.319867 
L 281.342648 279.10536 
L 281.721992 279.761218 
L 282.101335 278.179443 
L 283.239365 276.738298 
L 283.618709 273.77387 
L 283.998052 268.968808 
L 284.377395 269.929571 
L 284.756739 260.578306 
L 285.894769 256.055749 
L 286.653456 260.977795 
L 287.032799 282.527769 
L 287.412143 278.308872 
L 288.550173 274.981047 
L 288.929516 268.055336 
L 289.308859 269.578619 
L 289.688203 269.437989 
L 290.067546 271.526281 
L 291.205576 269.195309 
L 291.58492 267.512729 
L 291.964263 276.881417 
L 292.343606 273.044586 
L 292.72295 281.636698 
L 293.86098 276.445838 
L 294.240323 271.854832 
L 294.99901 267.299917 
L 296.516384 261.62743 
L 296.895727 265.476707 
L 297.27507 262.651664 
L 297.654414 264.769824 
L 298.033757 260.991484 
L 299.171787 264.228461 
L 299.930474 255.977345 
L 300.309817 257.22559 
L 301.827191 253.070164 
L 302.206534 252.258742 
L 302.585878 250.080845 
L 302.965221 254.670607 
L 303.344564 257.119807 
L 304.482595 254.365701 
L 304.861938 256.777566 
L 305.241281 252.129313 
L 305.620625 253.494543 
L 305.999968 250.481578 
L 307.137998 247.809611 
L 307.517342 246.314951 
L 308.276028 241.288366 
L 308.655372 241.005862 
L 309.793402 239.829798 
L 310.172745 243.089176 
L 310.552089 237.628256 
L 310.931432 238.346339 
L 311.310775 238.333894 
L 312.448806 237.074448 
L 312.828149 236.215734 
L 313.207492 237.874669 
L 313.966179 235.227592 
L 315.483553 229.765427 
L 315.862896 225.704584 
L 316.242239 224.811024 
L 316.621583 222.162702 
L 317.759613 223.657361 
L 318.138956 219.784439 
L 318.5183 213.782157 
L 318.897643 228.270768 
L 319.276986 231.589882 
L 320.79436 242.606305 
L 321.173703 234.861705 
L 321.553047 241.806084 
L 321.93239 241.606962 
L 323.449763 234.414925 
L 323.829107 236.004167 
L 324.20845 239.511203 
L 324.587794 244.062384 
L 325.725824 248.41071 
L 326.105167 244.475562 
L 326.484511 253.528144 
L 326.863854 252.511378 
L 327.243197 246.33113 
L 328.381227 239.878334 
L 328.760571 242.030096 
L 329.519258 236.510684 
L 329.898601 240.292757 
L 331.036631 233.296109 
L 331.415974 239.004686 
L 331.795318 232.115067 
L 332.554005 224.918052 
L 333.692035 218.324626 
L 334.450721 223.642427 
L 334.830065 224.150188 
L 335.209408 224.397846 
L 336.347438 230.637831 
L 336.726782 229.01872 
L 337.106125 229.786584 
L 337.485469 227.56513 
L 337.864812 226.182477 
L 339.002842 233.734177 
L 339.382185 235.11683 
L 339.761529 248.776597 
L 340.140872 244.853894 
L 340.520216 248.918471 
L 341.658246 244.593791 
L 342.416932 228.829554 
L 342.796276 220.911967 
L 343.175619 221.00655 
L 344.313649 215.806978 
L 344.692993 216.421767 
L 345.072336 213.31422 
L 345.451679 217.402443 
L 345.831023 211.624172 
L 346.969053 206.341218 
L 347.348396 208.646055 
L 347.72774 213.77469 
L 348.107083 212.002504 
L 348.486427 214.89724 
L 349.624457 212.380836 
L 350.0038 205.573354 
L 350.383143 206.235434 
L 351.14183 205.041947 
L 352.27986 206.944806 
L 352.659204 202.26544 
L 353.038547 201.354457 
L 353.41789 201.472686 
L 353.797234 197.739149 
L 354.935264 198.636443 
L 355.314607 197.360817 
L 355.693951 201.28352 
L 356.073294 201.425394 
L 356.452637 201.9344 
L 357.590668 203.872106 
L 357.970011 198.046544 
L 358.349354 197.360817 
L 358.728698 194.914106 
L 359.108041 196.671358 
L 360.246071 198.236954 
L 360.625415 198.973705 
L 361.004758 198.581684 
L 361.384101 196.884169 
L 362.901475 193.122009 
L 363.280818 193.964544 
L 363.660162 193.336065 
L 364.039505 191.093454 
L 365.556879 197.134316 
L 366.315565 191.484231 
L 366.694909 184.898272 
L 367.074252 182.334577 
L 368.212282 185.384876 
L 368.591626 185.290293 
L 368.970969 184.079383 
L 369.350312 185.657424 
L 369.729656 188.932981 
L 371.247029 185.432168 
L 371.626373 179.21334 
L 372.005716 178.798917 
L 372.385059 180.411805 
L 373.52309 178.620952 
L 373.902433 179.332813 
L 374.281776 190.463731 
L 374.66112 186.643078 
L 375.040463 195.614767 
L 376.178493 188.304502 
L 376.557837 181.991091 
L 376.93718 181.635161 
L 377.316523 176.484124 
L 377.695867 174.680826 
L 378.833897 171.357979 
L 379.592584 171.868229 
L 379.971927 171.120277 
L 380.35127 168.82913 
L 381.868644 169.233596 
L 382.247987 169.126568 
L 382.627331 171.107832 
L 383.006674 171.926721 
L 384.144704 175.48727 
L 384.524048 174.929729 
L 384.903391 169.862075 
L 385.282734 181.065174 
L 385.662078 183.403613 
L 386.800108 172.460616 
L 387.179451 176.068457 
L 387.938138 187.74696 
L 388.317481 179.521979 
L 389.455511 181.78948 
L 389.834855 175.32175 
L 390.214198 172.460616 
L 390.593542 167.773783 
L 390.972885 167.14406 
L 392.110915 164.355108 
L 392.490258 164.94874 
L 392.869602 163.347053 
L 393.248945 170.206805 
L 393.628289 171.065518 
L 394.766319 167.363094 
L 395.145662 171.041872 
L 395.525005 173.400223 
L 395.904349 170.804171 
L 396.283692 163.327141 
L 397.421722 163.564843 
L 397.801066 164.815578 
L 398.180409 162.910229 
L 398.559753 157.813952 
L 400.077126 150.96789 
L 400.456469 151.254128 
L 400.835813 150.694097 
L 401.215156 148.396727 
L 401.5945 144.859824 
L 402.73253 144.681858 
L 403.111873 143.228268 
L 403.491216 144.907115 
L 403.87056 139.645317 
L 404.249903 137.990116 
L 405.387933 140.430605 
L 405.767277 144.049646 
L 406.14662 139.406371 
L 406.525963 143.931418 
L 406.905307 138.608639 
L 408.043337 137.573204 
L 408.802024 137.823351 
L 409.181367 134.656068 
L 409.560711 137.942825 
L 410.698741 136.870055 
L 411.078084 139.942756 
L 411.457427 139.787192 
L 412.216114 132.203134 
L 413.354144 137.179939 
L 413.733488 141.621603 
L 414.112831 152.099151 
L 414.492174 146.300969 
L 414.871518 138.799049 
L 416.009548 140.062229 
L 416.388891 144.324683 
L 416.768235 145.610265 
L 417.147578 140.347222 
L 417.526921 140.751689 
L 418.664952 135.715148 
L 419.044295 136.822764 
L 419.423638 135.834621 
L 419.802982 135.573273 
L 420.182325 134.679713 
L 421.699699 135.120271 
L 422.079042 134.334984 
L 422.458385 136.191796 
L 422.837729 131.631903 
L 423.975759 132.119752 
L 424.355102 132.012724 
L 424.734446 132.763165 
L 425.113789 130.429704 
L 425.493132 129.595881 
L 426.631163 128.464619 
L 427.010506 129.393025 
L 427.389849 132.215579 
L 427.769193 132.382344 
L 428.148536 139.159958 
L 429.66591 129.376847 
L 430.045253 129.985413 
L 430.424596 126.999828 
L 430.80394 125.195286 
L 432.700657 123.462925 
L 433.08 120.632904 
L 433.459343 116.702734 
L 434.976717 117.646074 
L 435.35606 115.817886 
L 435.735404 120.046738 
L 436.114747 114.552217 
L 437.252777 112.689182 
L 437.632121 114.468834 
L 438.011464 113.692259 
L 438.390807 115.471911 
L 438.770151 119.5452 
L 439.908181 127.154148 
L 440.287524 119.879974 
L 440.666868 115.710858 
L 441.046211 114.624399 
L 441.425554 109.272996 
L 442.563584 107.982437 
L 442.942928 110.383101 
L 443.322271 110.598401 
L 443.701615 108.424238 
L 444.080958 110.980467 
L 445.218988 112.079371 
L 445.598332 107.826873 
L 445.977675 110.419192 
L 446.357018 107.098833 
L 446.736362 106.22643 
L 447.874392 106.655787 
L 448.253735 105.999929 
L 449.391765 102.129496 
L 450.529795 100.875027 
L 450.909139 104.374596 
L 451.288482 110.180245 
L 451.667826 109.367579 
L 452.047169 105.187262 
L 453.185199 100.529053 
L 453.564542 99.680295 
L 453.943886 98.557745 
L 454.323229 101.72254 
L 454.702573 96.957303 
L 455.840603 94.591485 
L 456.219946 95.391706 
L 456.599289 95.105468 
L 456.978633 93.445289 
L 457.357976 93.575963 
L 459.254693 96.168282 
L 459.634037 98.474363 
L 460.01338 102.701971 
L 461.15141 101.340475 
L 461.530753 104.219032 
L 461.910097 99.787323 
L 462.28944 100.636081 
L 462.668784 105.839387 
L 463.806814 114.659245 
L 464.186157 115.150827 
L 464.944844 103.706293 
L 465.324187 102.8314 
L 466.462217 104.353439 
L 466.841561 115.042555 
L 467.220904 114.167663 
L 467.600247 120.530854 
L 467.979591 114.419054 
L 469.117621 121.130709 
L 469.496964 115.785528 
L 469.876308 113.628789 
L 470.255651 109.12241 
L 470.634995 110.081929 
L 472.152368 115.162028 
L 472.531711 113.29277 
L 472.911055 104.521448 
L 473.290398 100.483006 
L 474.428428 98.901231 
L 474.807772 94.765717 
L 475.187115 92.645068 
L 475.566458 91.231302 
L 475.945802 91.793821 
L 477.083832 88.882907 
L 477.463175 88.391325 
L 477.842519 90.811901 
L 478.221862 85.562548 
L 478.601205 84.44871 
L 479.739236 83.501636 
L 480.118579 81.272715 
L 480.877266 75.269188 
L 481.256609 73.327748 
L 482.394639 72.848611 
L 482.773983 74.705424 
L 483.153326 79.211802 
L 483.532669 79.031348 
L 483.912013 74.837342 
L 485.050043 74.645687 
L 485.429386 72.429211 
L 485.80873 73.794441 
L 486.188073 71.889092 
L 486.567416 72.895903 
L 487.705447 74.477678 
L 488.08479 73.734704 
L 488.464133 72.237556 
L 489.22282 84.783484 
L 490.36085 78.036983 
L 490.740194 88.870462 
L 491.119537 94.933726 
L 491.49888 86.665186 
L 491.878224 91.435402 
L 493.016254 85.000029 
L 493.395597 73.627676 
L 493.774941 72.141728 
L 494.154284 75.93998 
L 494.533627 70.679426 
L 495.671658 75.676143 
L 496.051001 79.52293 
L 496.430344 70.847436 
L 497.189031 81.769275 
L 498.327061 87.649595 
L 498.706405 77.933688 
L 499.085748 72.36574 
L 499.465091 68.866172 
L 500.982465 60.856491 
L 501.361808 61.325672 
L 501.741152 60.592655 
L 502.499838 63.623042 
L 503.637868 60.315128 
L 504.017212 60.508028 
L 504.396555 71.535651 
L 504.775899 72.064569 
L 505.155242 74.289756 
L 506.293272 74.986683 
L 506.672616 69.887917 
L 507.051959 68.3609 
L 507.431302 76.165236 
L 507.810646 75.936246 
L 509.328019 85.833852 
L 510.086706 97.547201 
L 510.466049 108.093198 
L 511.604079 105.85681 
L 511.983423 112.314584 
L 512.362766 113.625055 
L 512.74211 116.198707 
L 513.121453 103.319249 
L 514.638826 90.091328 
L 515.01817 84.799662 
L 515.397513 97.727656 
L 515.776857 95.20254 
L 516.914887 96.933657 
L 517.29423 92.508171 
L 517.673573 84.571917 
L 518.43226 105.111347 
L 519.57029 106.842463 
L 519.949634 98.328755 
L 520.328977 97.727656 
L 520.708321 109.19957 
L 521.087664 112.603311 
L 522.605037 118.207349 
L 522.984381 127.370693 
L 523.363724 119.734366 
L 523.743068 108.370724 
L 524.881098 109.717287 
L 525.260441 117.714522 
L 525.639784 108.201471 
L 526.019128 110.823658 
L 526.398471 115.081135 
L 527.915845 134.225466 
L 528.295188 120.804646 
L 528.674531 123.125662 
L 529.053875 129.631972 
L 530.191905 133.323195 
L 530.950592 110.931931 
L 531.709279 98.567701 
L 532.847309 98.72451 
L 533.226652 92.452168 
L 533.605995 99.436371 
L 533.985339 91.366954 
L 534.364682 88.712409 
L 535.502712 84.828286 
L 535.882056 78.024538 
L 536.261399 81.463125 
L 536.640742 89.979322 
L 538.158116 83.754272 
L 538.916803 96.155837 
L 539.296146 93.441555 
L 539.675489 94.888923 
L 540.81352 104.116982 
L 541.192863 106.083311 
L 541.572206 100.027514 
L 541.95155 106.686899 
L 543.468923 106.46911 
L 543.848267 97.940467 
L 544.22761 98.338711 
L 544.606953 106.360837 
L 544.986297 120.860649 
L 546.124327 117.881287 
L 546.50367 132.851525 
L 546.883014 131.440248 
L 547.262357 118.725066 
L 547.6417 137.797217 
L 548.779731 134.805409 
L 549.159074 132.514262 
L 549.538417 117.217962 
L 549.917761 135.614342 
L 550.297104 138.593704 
L 551.435134 154.481148 
L 551.814478 153.371043 
L 552.193821 161.018571 
L 552.573164 161.513887 
L 552.952508 150.198781 
L 554.090538 152.163866 
L 554.469881 142.236392 
L 554.849225 162.092585 
L 555.228568 164.98732 
L 555.607911 164.781976 
L 556.745942 155.988252 
L 557.125285 159.643385 
L 557.504628 155.445645 
L 558.263315 133.864558 
L 559.780689 136.675911 
L 560.160032 140.704397 
L 560.539375 131.295885 
L 560.918719 139.558201 
L 562.056749 138.051097 
L 562.436092 133.28586 
L 562.815436 138.738068 
L 563.574122 164.577876 
L 564.712152 182.430404 
L 565.091496 183.794389 
L 565.470839 177.363995 
L 565.850183 192.503486 
L 566.229526 191.55019 
L 567.7469 180.391893 
L 568.126243 181.21576 
L 568.505586 176.769118 
L 568.88493 162.20708 
L 570.02296 164.011623 
L 570.402303 173.631702 
L 570.781647 174.007545 
L 571.16099 177.751038 
L 571.540333 172.917352 
L 573.057707 172.044949 
L 573.43705 170.481842 
L 573.816394 163.527507 
L 574.195737 163.915795 
L 575.333767 169.294577 
L 575.71311 173.413913 
L 576.092454 175.836978 
L 576.471797 176.950817 
L 576.851141 168.204384 
L 577.989171 172.05615 
L 578.368514 159.55378 
L 578.747857 156.524637 
L 579.127201 151.654861 
L 579.506544 156.137594 
L 580.644574 155.555162 
L 581.023918 161.22516 
L 581.403261 148.928134 
L 582.161948 135.662878 
L 583.299978 137.140114 
L 583.679321 140.424382 
L 584.058665 132.682271 
L 584.438008 133.020779 
L 584.817352 133.869536 
L 585.955382 134.450723 
L 586.334725 136.438209 
L 586.714068 125.970617 
L 587.093412 125.970617 
L 587.472755 117.356103 
L 588.610785 115.224253 
L 588.990129 114.206242 
L 589.369472 117.901199 
L 589.748815 116.399073 
L 590.128159 123.365853 
L 591.266189 134.015144 
L 591.645532 135.226054 
L 592.024876 133.626856 
L 592.404219 126.551804 
L 592.783563 143.755941 
L 593.921593 147.002874 
L 594.300936 152.356765 
L 594.680279 156.028077 
L 595.059623 154.52595 
L 595.438966 159.589871 
L 596.95634 161.383213 
L 597.335683 152.878216 
L 597.715026 149.728356 
L 598.09437 142.192834 
L 599.2324 136.898679 
L 599.611743 158.548214 
L 599.991087 156.731226 
L 600.37043 162.158544 
L 600.749773 165.763896 
L 601.887804 162.127431 
L 602.267147 167.55226 
L 602.64649 175.702571 
L 603.025834 179.559314 
L 603.405177 187.18693 
L 604.922551 192.746166 
L 605.301894 184.04827 
L 606.060581 200.28791 
L 607.198611 188.817241 
L 607.577954 174.996932 
L 607.957298 176.068457 
L 608.336641 180.800093 
L 608.715984 193.46425 
L 609.854015 196.833144 
L 610.233358 199.607162 
L 610.612701 201.042085 
L 610.992045 189.595061 
L 611.371388 199.741569 
L 612.509418 188.560871 
L 612.888762 183.317741 
L 613.647448 190.277054 
L 614.026792 179.474687 
L 615.164822 173.903006 
L 615.544165 166.542961 
L 615.923509 170.071153 
L 616.302852 172.55271 
L 616.682195 161.554956 
L 617.820226 164.973631 
L 618.199569 167.029565 
L 618.578912 178.769049 
L 618.958256 183.464594 
L 619.337599 176.96824 
L 620.475629 172.588801 
L 620.854973 170.094799 
L 621.234316 179.668831 
L 621.613659 154.657869 
L 621.993003 150.01086 
L 623.131033 154.133929 
L 623.510376 150.034506 
L 623.88972 153.733196 
L 624.269063 155.205454 
L 624.648406 153.027558 
L 625.786436 154.779831 
L 626.16578 148.319568 
L 626.545123 145.254334 
L 627.30381 145.363851 
L 628.44184 153.173165 
L 628.821184 154.000766 
L 629.200527 138.855052 
L 629.57987 139.219694 
L 629.959214 139.79217 
L 631.097244 148.696655 
L 631.476587 155.703259 
L 631.855931 156.518414 
L 632.235274 152.772433 
L 632.614617 156.372806 
L 633.752647 149.47572 
L 634.131991 145.801919 
L 634.511334 148.928134 
L 634.890678 160.813226 
L 635.270021 166.408553 
L 636.408051 170.381036 
L 636.787394 169.745091 
L 637.166738 162.792001 
L 637.546081 169.524812 
L 637.925425 166.849111 
L 639.442798 168.694722 
L 639.822142 174.486682 
L 640.201485 166.20072 
L 640.580828 167.435276 
L 642.098202 169.40285 
L 642.477545 165.809943 
L 642.856889 171.16259 
L 643.236232 160.530722 
L 644.374262 160.799537 
L 644.753605 157.475444 
L 645.132949 151.438315 
L 645.891636 147.796873 
L 647.409009 148.689188 
L 647.788352 156.364095 
L 648.167696 159.84624 
L 648.547039 150.999003 
L 649.685069 145.193353 
L 650.064413 145.718537 
L 650.443756 145.535594 
L 650.823099 140.158056 
L 651.202443 139.021817 
L 652.340473 145.243133 
L 653.478503 125.456633 
L 653.857847 130.870261 
L 654.995877 133.950429 
L 655.37522 127.400561 
L 656.133907 137.299412 
L 656.51325 136.138282 
L 657.65128 130.284096 
L 658.030624 130.51682 
L 658.409967 128.879042 
L 658.78931 135.844577 
L 659.168654 137.091578 
L 660.686027 147.075055 
L 661.065371 147.748337 
L 661.444714 145.157262 
L 661.824057 150.387947 
L 662.962088 148.737724 
L 663.720774 152.391612 
L 664.100118 148.639407 
L 664.479461 140.842538 
L 665.617491 140.500297 
L 665.996835 148.078132 
L 666.376178 147.282889 
L 667.134865 163.182778 
L 668.272895 163.854814 
L 668.652238 156.07039 
L 669.031582 159.064686 
L 669.410925 150.717743 
L 669.790268 156.377785 
L 670.928299 151.776823 
L 671.307642 145.434788 
L 671.686985 153.776754 
L 672.066329 152.476239 
L 672.445672 149.311444 
L 673.583702 148.404195 
L 673.963046 149.495632 
L 674.342389 142.441736 
L 674.721732 139.559446 
L 675.101076 132.578977 
L 676.239106 130.664917 
L 676.618449 133.46258 
L 676.997793 134.774296 
L 677.377136 132.824146 
L 679.273853 132.17451 
L 679.653196 134.222977 
L 680.03254 127.573548 
L 680.411883 128.813083 
L 681.549913 126.997339 
L 681.929257 126.666299 
L 682.3086 126.75217 
L 682.687943 129.523699 
L 683.067287 129.131678 
L 684.205317 128.604005 
L 684.58466 136.63982 
L 684.964004 138.749268 
L 685.343347 128.874064 
L 685.72269 124.555606 
L 686.86072 125.070834 
L 687.240064 130.799324 
L 687.998751 137.804684 
L 688.378094 128.604005 
L 689.516124 128.469597 
L 689.895468 130.689807 
L 690.274811 128.333945 
L 691.033498 129.87963 
L 692.171528 128.137313 
L 692.550871 131.52363 
L 693.309558 120.507208 
L 693.688901 121.256404 
L 694.826931 121.047326 
L 695.206275 126.813151 
L 695.585618 130.493174 
L 695.964962 126.126181 
L 696.344305 119.538977 
L 697.861678 119.342344 
L 698.241022 122.200989 
L 698.620365 117.329968 
L 698.999709 109.846716 
L 700.137739 110.853526 
L 700.517082 109.712309 
L 700.896426 111.528052 
L 701.275769 108.363257 
L 701.655112 107.418673 
L 702.793142 102.633523 
L 703.172486 99.125243 
L 703.551829 98.488053 
L 703.931173 91.838624 
L 704.310516 93.687969 
L 705.827889 96.495589 
L 706.207233 99.253428 
L 706.586576 97.3207 
L 706.96592 101.384033 
L 708.10395 103.563174 
L 708.483293 97.738856 
L 708.862636 97.467553 
L 709.24198 95.350637 
L 709.621323 88.983713 
L 710.759353 88.356478 
L 711.51804 89.169145 
L 711.897383 93.441555 
L 712.276727 94.80803 
L 713.414757 93.441555 
L 714.173444 85.611084 
L 714.552787 81.251558 
L 714.932131 81.596288 
L 716.070161 79.676005 
L 716.449504 75.550447 
L 716.828847 74.30718 
L 717.208191 78.025782 
L 717.587534 78.025782 
L 718.725564 75.538002 
L 719.104908 74.010986 
L 719.484251 73.925114 
L 719.863594 77.643717 
L 720.242938 72.18902 
L 721.380968 71.117495 
L 721.760311 72.731627 
L 722.139655 80.549653 
L 722.518998 82.137651 
L 722.898341 84.637876 
L 724.036372 79.835303 
L 724.415715 82.249657 
L 724.795058 85.943369 
L 725.174402 85.745492 
L 725.553745 86.066576 
L 726.691775 83.037433 
L 727.071119 89.464094 
L 727.829805 97.590759 
L 728.209149 97.333145 
L 729.347179 93.836066 
L 729.726522 95.300857 
L 730.105866 89.292352 
L 730.485209 96.852764 
L 730.864552 93.05949 
L 732.002583 89.624636 
L 732.381926 81.744385 
L 732.761269 79.465683 
L 733.140613 80.279594 
L 733.519956 79.24416 
L 735.03733 81.646068 
L 735.416673 85.364671 
L 735.796016 87.050985 
L 736.17536 86.225873 
L 737.31339 82.618032 
L 737.692733 85.647175 
L 738.072077 85.007496 
L 738.45142 80.267149 
L 738.830763 86.947691 
L 739.968794 86.626606 
L 740.348137 87.762846 
L 740.72748 92.79192 
L 741.106824 101.751164 
L 741.486167 102.949629 
L 742.624197 100.713241 
L 743.003541 108.55989 
L 743.382884 108.349568 
L 743.762227 105.296779 
L 744.141571 106.58236 
L 745.279601 106.792683 
L 745.658944 113.860268 
L 746.038288 110.066995 
L 746.417631 110.264872 
L 746.796974 104.037333 
L 747.935004 100.63857 
L 748.693691 95.659276 
L 749.452378 101.615512 
L 750.590408 96.005251 
L 750.969752 96.030141 
L 751.349095 103.208488 
L 751.728438 107.879142 
L 752.107782 114.354339 
L 753.245812 115.256611 
L 753.625155 111.338886 
L 754.383842 125.03101 
L 754.763185 127.340825 
L 755.901215 121.273827 
L 756.280559 118.049296 
L 756.659902 112.538596 
L 757.039246 102.528984 
L 757.418589 97.672897 
L 758.556619 96.437096 
L 758.935962 94.905102 
L 759.315306 94.510591 
L 759.694649 98.723265 
L 760.073993 90.357654 
L 761.212023 90.876616 
L 761.591366 80.324396 
L 761.97071 79.150821 
L 762.729396 77.779369 
L 763.867426 73.492024 
L 764.24677 74.71538 
L 764.626113 72.552417 
L 765.3848 72.206443 
L 766.52283 73.219476 
L 766.902173 72.663179 
L 767.281517 73.058934 
L 767.66086 70.847436 
L 768.040204 67.510898 
L 769.178234 70.489016 
L 769.557577 70.599778 
L 769.93692 72.873501 
L 770.316264 68.586157 
L 770.695607 66.151891 
L 771.833637 63.940393 
L 772.212981 61.333139 
L 772.592324 53.424264 
L 772.971667 51.55874 
L 773.351011 52.519504 
L 774.489041 49.243947 
L 774.868384 45.683398 
L 775.247728 53.846154 
L 775.627071 48.337942 
L 776.006415 47.159389 
L 777.523788 44.677832 
L 777.903131 43.611285 
L 778.282475 43.387273 
L 778.661818 45.099722 
L 778.661818 45.099722 
" clip-path="url(#p6427be83bd)" style="fill: none; stroke: #1f77b4; stroke-width: 1.5; stroke-linecap: square"/>
   </g>
   <g id="patch_7">
    <path d="M 52.94 390.04 
L 52.94 26.88 
" style="fill: none; stroke: #000000; stroke-width: 0.8; stroke-linejoin: miter; stroke-linecap: square"/>
   </g>
   <g id="patch_8">
    <path d="M 813.22 390.04 
L 813.22 26.88 
" style="fill: none; stroke: #000000; stroke-width: 0.8; stroke-linejoin: miter; stroke-linecap: square"/>
   </g>
   <g id="patch_9">
    <path d="M 52.94 390.04 
L 813.22 390.04 
" style="fill: none; stroke: #000000; stroke-width: 0.8; stroke-linejoin: miter; stroke-linecap: square"/>
   </g>
   <g id="patch_10">
    <path d="M 52.94 26.88 
L 813.22 26.88 
" style="fill: none; stroke: #000000; stroke-width: 0.8; stroke-linejoin: miter; stroke-linecap: square"/>
   </g>
   <g id="text_23">
    <!-- Stock Trading Performance for SPY -->
    <g transform="translate(329.610937 20.88) scale(0.12 -0.12)">
     <defs>
      <path id="DejaVuSans-53" d="M 3425 4513 
L 3425 3897 
Q 3066 4069 2747 4153 
Q 2428 4238 2131 4238 
Q 1616 4238 1336 4038 
Q 1056 3838 1056 3469 
Q 1056 3159 1242 3001 
Q 1428 2844 1947 2747 
L 2328 2669 
Q 3034 2534 3370 2195 
Q 3706 1856 3706 1288 
Q 3706 609 3251 259 
Q 2797 -91 1919 -91 
Q 1588 -91 1214 -16 
Q 841 59 441 206 
L 441 856 
Q 825 641 1194 531 
Q 1563 422 1919 422 
Q 2459 422 2753 634 
Q 3047 847 3047 1241 
Q 3047 1584 2836 1778 
Q 2625 1972 2144 2069 
L 1759 2144 
Q 1053 2284 737 2584 
Q 422 2884 422 3419 
Q 422 4038 858 4394 
Q 1294 4750 2059 4750 
Q 2388 4750 2728 4690 
Q 3069 4631 3425 4513 
z
" transform="scale(0.015625)"/>
      <path id="DejaVuSans-6b" d="M 581 4863 
L 1159 4863 
L 1159 1991 
L 2875 3500 
L 3609 3500 
L 1753 1863 
L 3688 0 
L 2938 0 
L 1159 1709 
L 1159 0 
L 581 0 
L 581 4863 
z
" transform="scale(0.015625)"/>
      <path id="DejaVuSans-54" d="M -19 4666 
L 3928 4666 
L 3928 4134 
L 2272 4134 
L 2272 0 
L 1638 0 
L 1638 4134 
L -19 4134 
L -19 4666 
z
" transform="scale(0.015625)"/>
      <path id="DejaVuSans-64" d="M 2906 2969 
L 2906 4863 
L 3481 4863 
L 3481 0 
L 2906 0 
L 2906 525 
Q 2725 213 2448 61 
Q 2172 -91 1784 -91 
Q 1150 -91 751 415 
Q 353 922 353 1747 
Q 353 2572 751 3078 
Q 1150 3584 1784 3584 
Q 2172 3584 2448 3432 
Q 2725 3281 2906 2969 
z
M 947 1747 
Q 947 1113 1208 752 
Q 1469 391 1925 391 
Q 2381 391 2643 752 
Q 2906 1113 2906 1747 
Q 2906 2381 2643 2742 
Q 2381 3103 1925 3103 
Q 1469 3103 1208 2742 
Q 947 2381 947 1747 
z
" transform="scale(0.015625)"/>
      <path id="DejaVuSans-67" d="M 2906 1791 
Q 2906 2416 2648 2759 
Q 2391 3103 1925 3103 
Q 1463 3103 1205 2759 
Q 947 2416 947 1791 
Q 947 1169 1205 825 
Q 1463 481 1925 481 
Q 2391 481 2648 825 
Q 2906 1169 2906 1791 
z
M 3481 434 
Q 3481 -459 3084 -895 
Q 2688 -1331 1869 -1331 
Q 1566 -1331 1297 -1286 
Q 1028 -1241 775 -1147 
L 775 -588 
Q 1028 -725 1275 -790 
Q 1522 -856 1778 -856 
Q 2344 -856 2625 -561 
Q 2906 -266 2906 331 
L 2906 616 
Q 2728 306 2450 153 
Q 2172 0 1784 0 
Q 1141 0 747 490 
Q 353 981 353 1791 
Q 353 2603 747 3093 
Q 1141 3584 1784 3584 
Q 2172 3584 2450 3431 
Q 2728 3278 2906 2969 
L 2906 3500 
L 3481 3500 
L 3481 434 
z
" transform="scale(0.015625)"/>
      <path id="DejaVuSans-66" d="M 2375 4863 
L 2375 4384 
L 1825 4384 
Q 1516 4384 1395 4259 
Q 1275 4134 1275 3809 
L 1275 3500 
L 2222 3500 
L 2222 3053 
L 1275 3053 
L 1275 0 
L 697 0 
L 697 3053 
L 147 3053 
L 147 3500 
L 697 3500 
L 697 3744 
Q 697 4328 969 4595 
Q 1241 4863 1831 4863 
L 2375 4863 
z
" transform="scale(0.015625)"/>
      <path id="DejaVuSans-6d" d="M 3328 2828 
Q 3544 3216 3844 3400 
Q 4144 3584 4550 3584 
Q 5097 3584 5394 3201 
Q 5691 2819 5691 2113 
L 5691 0 
L 5113 0 
L 5113 2094 
Q 5113 2597 4934 2840 
Q 4756 3084 4391 3084 
Q 3944 3084 3684 2787 
Q 3425 2491 3425 1978 
L 3425 0 
L 2847 0 
L 2847 2094 
Q 2847 2600 2669 2842 
Q 2491 3084 2119 3084 
Q 1678 3084 1418 2786 
Q 1159 2488 1159 1978 
L 1159 0 
L 581 0 
L 581 3500 
L 1159 3500 
L 1159 2956 
Q 1356 3278 1631 3431 
Q 1906 3584 2284 3584 
Q 2666 3584 2933 3390 
Q 3200 3197 3328 2828 
z
" transform="scale(0.015625)"/>
      <path id="DejaVuSans-59" d="M -13 4666 
L 666 4666 
L 1959 2747 
L 3244 4666 
L 3922 4666 
L 2272 2222 
L 2272 0 
L 1638 0 
L 1638 2222 
L -13 4666 
z
" transform="scale(0.015625)"/>
     </defs>
     <use xlink:href="#DejaVuSans-53"/>
     <use xlink:href="#DejaVuSans-74" x="63.476562"/>
     <use xlink:href="#DejaVuSans-6f" x="102.685547"/>
     <use xlink:href="#DejaVuSans-63" x="163.867188"/>
     <use xlink:href="#DejaVuSans-6b" x="218.847656"/>
     <use xlink:href="#DejaVuSans-20" x="276.757812"/>
     <use xlink:href="#DejaVuSans-54" x="308.544922"/>
     <use xlink:href="#DejaVuSans-72" x="354.878906"/>
     <use xlink:href="#DejaVuSans-61" x="395.992188"/>
     <use xlink:href="#DejaVuSans-64" x="457.271484"/>
     <use xlink:href="#DejaVuSans-69" x="520.748047"/>
     <use xlink:href="#DejaVuSans-6e" x="548.53125"/>
     <use xlink:href="#DejaVuSans-67" x="611.910156"/>
     <use xlink:href="#DejaVuSans-20" x="675.386719"/>
     <use xlink:href="#DejaVuSans-50" x="707.173828"/>
     <use xlink:href="#DejaVuSans-65" x="763.851562"/>
     <use xlink:href="#DejaVuSans-72" x="825.375"/>
     <use xlink:href="#DejaVuSans-66" x="866.488281"/>
     <use xlink:href="#DejaVuSans-6f" x="901.693359"/>
     <use xlink:href="#DejaVuSans-72" x="962.875"/>
     <use xlink:href="#DejaVuSans-6d" x="1002.238281"/>
     <use xlink:href="#DejaVuSans-61" x="1099.650391"/>
     <use xlink:href="#DejaVuSans-6e" x="1160.929688"/>
     <use xlink:href="#DejaVuSans-63" x="1224.308594"/>
     <use xlink:href="#DejaVuSans-65" x="1279.289062"/>
     <use xlink:href="#DejaVuSans-20" x="1340.8125"/>
     <use xlink:href="#DejaVuSans-66" x="1372.599609"/>
     <use xlink:href="#DejaVuSans-6f" x="1407.804688"/>
     <use xlink:href="#DejaVuSans-72" x="1468.986328"/>
     <use xlink:href="#DejaVuSans-20" x="1510.099609"/>
     <use xlink:href="#DejaVuSans-53" x="1541.886719"/>
     <use xlink:href="#DejaVuSans-50" x="1605.363281"/>
     <use xlink:href="#DejaVuSans-59" x="1663.416016"/>
    </g>
   </g>
  </g>
 </g>
 <defs>
  <clipPath id="p6427be83bd">
   <rect x="52.94" y="26.88" width="760.28" height="363.16"/>
  </clipPath>
 </defs>
</svg>
