<?xml version="1.0" encoding="utf-8" standalone="no"?>
<!DOCTYPE svg PUBLIC "-//W3C//DTD SVG 1.1//EN"
  "http://www.w3.org/Graphics/SVG/1.1/DTD/svg11.dtd">
<svg xmlns:xlink="http://www.w3.org/1999/xlink" width="864pt" height="432pt" viewBox="0 0 864 432" xmlns="http://www.w3.org/2000/svg" version="1.1">
 <metadata>
  <rdf:RDF xmlns:dc="http://purl.org/dc/elements/1.1/" xmlns:cc="http://creativecommons.org/ns#" xmlns:rdf="http://www.w3.org/1999/02/22-rdf-syntax-ns#">
   <cc:Work>
    <dc:type rdf:resource="http://purl.org/dc/dcmitype/StillImage"/>
    <dc:date>2024-04-18T22:06:58.137688</dc:date>
    <dc:format>image/svg+xml</dc:format>
    <dc:creator>
     <cc:Agent>
      <dc:title>Matplotlib v3.8.2, https://matplotlib.org/</dc:title>
     </cc:Agent>
    </dc:creator>
   </cc:Work>
  </rdf:RDF>
 </metadata>
 <defs>
  <style type="text/css">*{stroke-linejoin: round; stroke-linecap: butt}</style>
 </defs>
 <g id="figure_1">
  <g id="patch_1">
   <path d="M 0 432 
L 864 432 
L 864 0 
L 0 0 
z
" style="fill: #ffffff"/>
  </g>
  <g id="axes_1">
   <g id="patch_2">
    <path d="M 52.85 390.04 
L 819.43 390.04 
L 819.43 26.88 
L 52.85 26.88 
z
" style="fill: #ffffff"/>
   </g>
   <g id="matplotlib.axis_1">
    <g id="xtick_1">
     <g id="line2d_1">
      <path d="M 87.312059 390.04 
L 87.312059 26.88 
" clip-path="url(#pc729da4a25)" style="fill: none; stroke-dasharray: 1.85,0.8; stroke-dashoffset: 0; stroke: #b0b0b0; stroke-opacity: 0.5; stroke-width: 0.5"/>
     </g>
     <g id="line2d_2">
      <defs>
       <path id="m13925082f0" d="M 0 0 
L 0 3.5 
" style="stroke: #000000; stroke-width: 0.8"/>
      </defs>
      <g>
       <use xlink:href="#m13925082f0" x="87.312059" y="390.04" style="stroke: #000000; stroke-width: 0.8"/>
      </g>
     </g>
     <g id="text_1">
      <!-- 2019 -->
      <g transform="translate(74.587059 404.638438) scale(0.1 -0.1)">
       <defs>
        <path id="DejaVuSans-32" d="M 1228 531 
L 3431 531 
L 3431 0 
L 469 0 
L 469 531 
Q 828 903 1448 1529 
Q 2069 2156 2228 2338 
Q 2531 2678 2651 2914 
Q 2772 3150 2772 3378 
Q 2772 3750 2511 3984 
Q 2250 4219 1831 4219 
Q 1534 4219 1204 4116 
Q 875 4013 500 3803 
L 500 4441 
Q 881 4594 1212 4672 
Q 1544 4750 1819 4750 
Q 2544 4750 2975 4387 
Q 3406 4025 3406 3419 
Q 3406 3131 3298 2873 
Q 3191 2616 2906 2266 
Q 2828 2175 2409 1742 
Q 1991 1309 1228 531 
z
" transform="scale(0.015625)"/>
        <path id="DejaVuSans-30" d="M 2034 4250 
Q 1547 4250 1301 3770 
Q 1056 3291 1056 2328 
Q 1056 1369 1301 889 
Q 1547 409 2034 409 
Q 2525 409 2770 889 
Q 3016 1369 3016 2328 
Q 3016 3291 2770 3770 
Q 2525 4250 2034 4250 
z
M 2034 4750 
Q 2819 4750 3233 4129 
Q 3647 3509 3647 2328 
Q 3647 1150 3233 529 
Q 2819 -91 2034 -91 
Q 1250 -91 836 529 
Q 422 1150 422 2328 
Q 422 3509 836 4129 
Q 1250 4750 2034 4750 
z
" transform="scale(0.015625)"/>
        <path id="DejaVuSans-31" d="M 794 531 
L 1825 531 
L 1825 4091 
L 703 3866 
L 703 4441 
L 1819 4666 
L 2450 4666 
L 2450 531 
L 3481 531 
L 3481 0 
L 794 0 
L 794 531 
z
" transform="scale(0.015625)"/>
        <path id="DejaVuSans-39" d="M 703 97 
L 703 672 
Q 941 559 1184 500 
Q 1428 441 1663 441 
Q 2288 441 2617 861 
Q 2947 1281 2994 2138 
Q 2813 1869 2534 1725 
Q 2256 1581 1919 1581 
Q 1219 1581 811 2004 
Q 403 2428 403 3163 
Q 403 3881 828 4315 
Q 1253 4750 1959 4750 
Q 2769 4750 3195 4129 
Q 3622 3509 3622 2328 
Q 3622 1225 3098 567 
Q 2575 -91 1691 -91 
Q 1453 -91 1209 -44 
Q 966 3 703 97 
z
M 1959 2075 
Q 2384 2075 2632 2365 
Q 2881 2656 2881 3163 
Q 2881 3666 2632 3958 
Q 2384 4250 1959 4250 
Q 1534 4250 1286 3958 
Q 1038 3666 1038 3163 
Q 1038 2656 1286 2365 
Q 1534 2075 1959 2075 
z
" transform="scale(0.015625)"/>
       </defs>
       <use xlink:href="#DejaVuSans-32"/>
       <use xlink:href="#DejaVuSans-30" x="63.623047"/>
       <use xlink:href="#DejaVuSans-31" x="127.246094"/>
       <use xlink:href="#DejaVuSans-39" x="190.869141"/>
      </g>
     </g>
    </g>
    <g id="xtick_2">
     <g id="line2d_3">
      <path d="M 226.919733 390.04 
L 226.919733 26.88 
" clip-path="url(#pc729da4a25)" style="fill: none; stroke-dasharray: 1.85,0.8; stroke-dashoffset: 0; stroke: #b0b0b0; stroke-opacity: 0.5; stroke-width: 0.5"/>
     </g>
     <g id="line2d_4">
      <g>
       <use xlink:href="#m13925082f0" x="226.919733" y="390.04" style="stroke: #000000; stroke-width: 0.8"/>
      </g>
     </g>
     <g id="text_2">
      <!-- 2020 -->
      <g transform="translate(214.194733 404.638438) scale(0.1 -0.1)">
       <use xlink:href="#DejaVuSans-32"/>
       <use xlink:href="#DejaVuSans-30" x="63.623047"/>
       <use xlink:href="#DejaVuSans-32" x="127.246094"/>
       <use xlink:href="#DejaVuSans-30" x="190.869141"/>
      </g>
     </g>
    </g>
    <g id="xtick_3">
     <g id="line2d_5">
      <path d="M 366.909893 390.04 
L 366.909893 26.88 
" clip-path="url(#pc729da4a25)" style="fill: none; stroke-dasharray: 1.85,0.8; stroke-dashoffset: 0; stroke: #b0b0b0; stroke-opacity: 0.5; stroke-width: 0.5"/>
     </g>
     <g id="line2d_6">
      <g>
       <use xlink:href="#m13925082f0" x="366.909893" y="390.04" style="stroke: #000000; stroke-width: 0.8"/>
      </g>
     </g>
     <g id="text_3">
      <!-- 2021 -->
      <g transform="translate(354.184893 404.638438) scale(0.1 -0.1)">
       <use xlink:href="#DejaVuSans-32"/>
       <use xlink:href="#DejaVuSans-30" x="63.623047"/>
       <use xlink:href="#DejaVuSans-32" x="127.246094"/>
       <use xlink:href="#DejaVuSans-31" x="190.869141"/>
      </g>
     </g>
    </g>
    <g id="xtick_4">
     <g id="line2d_7">
      <path d="M 506.517567 390.04 
L 506.517567 26.88 
" clip-path="url(#pc729da4a25)" style="fill: none; stroke-dasharray: 1.85,0.8; stroke-dashoffset: 0; stroke: #b0b0b0; stroke-opacity: 0.5; stroke-width: 0.5"/>
     </g>
     <g id="line2d_8">
      <g>
       <use xlink:href="#m13925082f0" x="506.517567" y="390.04" style="stroke: #000000; stroke-width: 0.8"/>
      </g>
     </g>
     <g id="text_4">
      <!-- 2022 -->
      <g transform="translate(493.792567 404.638438) scale(0.1 -0.1)">
       <use xlink:href="#DejaVuSans-32"/>
       <use xlink:href="#DejaVuSans-30" x="63.623047"/>
       <use xlink:href="#DejaVuSans-32" x="127.246094"/>
       <use xlink:href="#DejaVuSans-32" x="190.869141"/>
      </g>
     </g>
    </g>
    <g id="xtick_5">
     <g id="line2d_9">
      <path d="M 646.125241 390.04 
L 646.125241 26.88 
" clip-path="url(#pc729da4a25)" style="fill: none; stroke-dasharray: 1.85,0.8; stroke-dashoffset: 0; stroke: #b0b0b0; stroke-opacity: 0.5; stroke-width: 0.5"/>
     </g>
     <g id="line2d_10">
      <g>
       <use xlink:href="#m13925082f0" x="646.125241" y="390.04" style="stroke: #000000; stroke-width: 0.8"/>
      </g>
     </g>
     <g id="text_5">
      <!-- 2023 -->
      <g transform="translate(633.400241 404.638438) scale(0.1 -0.1)">
       <defs>
        <path id="DejaVuSans-33" d="M 2597 2516 
Q 3050 2419 3304 2112 
Q 3559 1806 3559 1356 
Q 3559 666 3084 287 
Q 2609 -91 1734 -91 
Q 1441 -91 1130 -33 
Q 819 25 488 141 
L 488 750 
Q 750 597 1062 519 
Q 1375 441 1716 441 
Q 2309 441 2620 675 
Q 2931 909 2931 1356 
Q 2931 1769 2642 2001 
Q 2353 2234 1838 2234 
L 1294 2234 
L 1294 2753 
L 1863 2753 
Q 2328 2753 2575 2939 
Q 2822 3125 2822 3475 
Q 2822 3834 2567 4026 
Q 2313 4219 1838 4219 
Q 1578 4219 1281 4162 
Q 984 4106 628 3988 
L 628 4550 
Q 988 4650 1302 4700 
Q 1616 4750 1894 4750 
Q 2613 4750 3031 4423 
Q 3450 4097 3450 3541 
Q 3450 3153 3228 2886 
Q 3006 2619 2597 2516 
z
" transform="scale(0.015625)"/>
       </defs>
       <use xlink:href="#DejaVuSans-32"/>
       <use xlink:href="#DejaVuSans-30" x="63.623047"/>
       <use xlink:href="#DejaVuSans-32" x="127.246094"/>
       <use xlink:href="#DejaVuSans-33" x="190.869141"/>
      </g>
     </g>
    </g>
    <g id="xtick_6">
     <g id="line2d_11">
      <path d="M 785.732915 390.04 
L 785.732915 26.88 
" clip-path="url(#pc729da4a25)" style="fill: none; stroke-dasharray: 1.85,0.8; stroke-dashoffset: 0; stroke: #b0b0b0; stroke-opacity: 0.5; stroke-width: 0.5"/>
     </g>
     <g id="line2d_12">
      <g>
       <use xlink:href="#m13925082f0" x="785.732915" y="390.04" style="stroke: #000000; stroke-width: 0.8"/>
      </g>
     </g>
     <g id="text_6">
      <!-- 2024 -->
      <g transform="translate(773.007915 404.638438) scale(0.1 -0.1)">
       <defs>
        <path id="DejaVuSans-34" d="M 2419 4116 
L 825 1625 
L 2419 1625 
L 2419 4116 
z
M 2253 4666 
L 3047 4666 
L 3047 1625 
L 3713 1625 
L 3713 1100 
L 3047 1100 
L 3047 0 
L 2419 0 
L 2419 1100 
L 313 1100 
L 313 1709 
L 2253 4666 
z
" transform="scale(0.015625)"/>
       </defs>
       <use xlink:href="#DejaVuSans-32"/>
       <use xlink:href="#DejaVuSans-30" x="63.623047"/>
       <use xlink:href="#DejaVuSans-32" x="127.246094"/>
       <use xlink:href="#DejaVuSans-34" x="190.869141"/>
      </g>
     </g>
    </g>
    <g id="text_7">
     <!-- Date -->
     <g transform="translate(424.189219 418.316562) scale(0.1 -0.1)">
      <defs>
       <path id="DejaVuSans-44" d="M 1259 4147 
L 1259 519 
L 2022 519 
Q 2988 519 3436 956 
Q 3884 1394 3884 2338 
Q 3884 3275 3436 3711 
Q 2988 4147 2022 4147 
L 1259 4147 
z
M 628 4666 
L 1925 4666 
Q 3281 4666 3915 4102 
Q 4550 3538 4550 2338 
Q 4550 1131 3912 565 
Q 3275 0 1925 0 
L 628 0 
L 628 4666 
z
" transform="scale(0.015625)"/>
       <path id="DejaVuSans-61" d="M 2194 1759 
Q 1497 1759 1228 1600 
Q 959 1441 959 1056 
Q 959 750 1161 570 
Q 1363 391 1709 391 
Q 2188 391 2477 730 
Q 2766 1069 2766 1631 
L 2766 1759 
L 2194 1759 
z
M 3341 1997 
L 3341 0 
L 2766 0 
L 2766 531 
Q 2569 213 2275 61 
Q 1981 -91 1556 -91 
Q 1019 -91 701 211 
Q 384 513 384 1019 
Q 384 1609 779 1909 
Q 1175 2209 1959 2209 
L 2766 2209 
L 2766 2266 
Q 2766 2663 2505 2880 
Q 2244 3097 1772 3097 
Q 1472 3097 1187 3025 
Q 903 2953 641 2809 
L 641 3341 
Q 956 3463 1253 3523 
Q 1550 3584 1831 3584 
Q 2591 3584 2966 3190 
Q 3341 2797 3341 1997 
z
" transform="scale(0.015625)"/>
       <path id="DejaVuSans-74" d="M 1172 4494 
L 1172 3500 
L 2356 3500 
L 2356 3053 
L 1172 3053 
L 1172 1153 
Q 1172 725 1289 603 
Q 1406 481 1766 481 
L 2356 481 
L 2356 0 
L 1766 0 
Q 1100 0 847 248 
Q 594 497 594 1153 
L 594 3053 
L 172 3053 
L 172 3500 
L 594 3500 
L 594 4494 
L 1172 4494 
z
" transform="scale(0.015625)"/>
       <path id="DejaVuSans-65" d="M 3597 1894 
L 3597 1613 
L 953 1613 
Q 991 1019 1311 708 
Q 1631 397 2203 397 
Q 2534 397 2845 478 
Q 3156 559 3463 722 
L 3463 178 
Q 3153 47 2828 -22 
Q 2503 -91 2169 -91 
Q 1331 -91 842 396 
Q 353 884 353 1716 
Q 353 2575 817 3079 
Q 1281 3584 2069 3584 
Q 2775 3584 3186 3129 
Q 3597 2675 3597 1894 
z
M 3022 2063 
Q 3016 2534 2758 2815 
Q 2500 3097 2075 3097 
Q 1594 3097 1305 2825 
Q 1016 2553 972 2059 
L 3022 2063 
z
" transform="scale(0.015625)"/>
      </defs>
      <use xlink:href="#DejaVuSans-44"/>
      <use xlink:href="#DejaVuSans-61" x="77.001953"/>
      <use xlink:href="#DejaVuSans-74" x="138.28125"/>
      <use xlink:href="#DejaVuSans-65" x="177.490234"/>
     </g>
    </g>
   </g>
   <g id="matplotlib.axis_2">
    <g id="ytick_1">
     <g id="line2d_13">
      <path d="M 52.85 330.487347 
L 819.43 330.487347 
" clip-path="url(#pc729da4a25)" style="fill: none; stroke-dasharray: 1.85,0.8; stroke-dashoffset: 0; stroke: #b0b0b0; stroke-opacity: 0.5; stroke-width: 0.5"/>
     </g>
     <g id="line2d_14">
      <defs>
       <path id="md4584087d9" d="M 0 0 
L -3.5 0 
" style="stroke: #000000; stroke-width: 0.8"/>
      </defs>
      <g>
       <use xlink:href="#md4584087d9" x="52.85" y="330.487347" style="stroke: #000000; stroke-width: 0.8"/>
      </g>
     </g>
     <g id="text_8">
      <!-- −20 -->
      <g style="fill: #d62728" transform="translate(24.745313 334.286566) scale(0.1 -0.1)">
       <defs>
        <path id="DejaVuSans-2212" d="M 678 2272 
L 4684 2272 
L 4684 1741 
L 678 1741 
L 678 2272 
z
" transform="scale(0.015625)"/>
       </defs>
       <use xlink:href="#DejaVuSans-2212"/>
       <use xlink:href="#DejaVuSans-32" x="83.789062"/>
       <use xlink:href="#DejaVuSans-30" x="147.412109"/>
      </g>
     </g>
    </g>
    <g id="ytick_2">
     <g id="line2d_15">
      <path d="M 52.85 252.864645 
L 819.43 252.864645 
" clip-path="url(#pc729da4a25)" style="fill: none; stroke-dasharray: 1.85,0.8; stroke-dashoffset: 0; stroke: #b0b0b0; stroke-opacity: 0.5; stroke-width: 0.5"/>
     </g>
     <g id="line2d_16">
      <g>
       <use xlink:href="#md4584087d9" x="52.85" y="252.864645" style="stroke: #000000; stroke-width: 0.8"/>
      </g>
     </g>
     <g id="text_9">
      <!-- 0 -->
      <g style="fill: #d62728" transform="translate(39.4875 256.663864) scale(0.1 -0.1)">
       <use xlink:href="#DejaVuSans-30"/>
      </g>
     </g>
    </g>
    <g id="ytick_3">
     <g id="line2d_17">
      <path d="M 52.85 175.241944 
L 819.43 175.241944 
" clip-path="url(#pc729da4a25)" style="fill: none; stroke-dasharray: 1.85,0.8; stroke-dashoffset: 0; stroke: #b0b0b0; stroke-opacity: 0.5; stroke-width: 0.5"/>
     </g>
     <g id="line2d_18">
      <g>
       <use xlink:href="#md4584087d9" x="52.85" y="175.241944" style="stroke: #000000; stroke-width: 0.8"/>
      </g>
     </g>
     <g id="text_10">
      <!-- 20 -->
      <g style="fill: #d62728" transform="translate(33.125 179.041162) scale(0.1 -0.1)">
       <use xlink:href="#DejaVuSans-32"/>
       <use xlink:href="#DejaVuSans-30" x="63.623047"/>
      </g>
     </g>
    </g>
    <g id="ytick_4">
     <g id="line2d_19">
      <path d="M 52.85 97.619242 
L 819.43 97.619242 
" clip-path="url(#pc729da4a25)" style="fill: none; stroke-dasharray: 1.85,0.8; stroke-dashoffset: 0; stroke: #b0b0b0; stroke-opacity: 0.5; stroke-width: 0.5"/>
     </g>
     <g id="line2d_20">
      <g>
       <use xlink:href="#md4584087d9" x="52.85" y="97.619242" style="stroke: #000000; stroke-width: 0.8"/>
      </g>
     </g>
     <g id="text_11">
      <!-- 40 -->
      <g style="fill: #d62728" transform="translate(33.125 101.418461) scale(0.1 -0.1)">
       <use xlink:href="#DejaVuSans-34"/>
       <use xlink:href="#DejaVuSans-30" x="63.623047"/>
      </g>
     </g>
    </g>
    <g id="text_12">
     <!-- Returns (%) -->
     <g style="fill: #d62728" transform="translate(18.665625 237.8975) rotate(-90) scale(0.1 -0.1)">
      <defs>
       <path id="DejaVuSans-52" d="M 2841 2188 
Q 3044 2119 3236 1894 
Q 3428 1669 3622 1275 
L 4263 0 
L 3584 0 
L 2988 1197 
Q 2756 1666 2539 1819 
Q 2322 1972 1947 1972 
L 1259 1972 
L 1259 0 
L 628 0 
L 628 4666 
L 2053 4666 
Q 2853 4666 3247 4331 
Q 3641 3997 3641 3322 
Q 3641 2881 3436 2590 
Q 3231 2300 2841 2188 
z
M 1259 4147 
L 1259 2491 
L 2053 2491 
Q 2509 2491 2742 2702 
Q 2975 2913 2975 3322 
Q 2975 3731 2742 3939 
Q 2509 4147 2053 4147 
L 1259 4147 
z
" transform="scale(0.015625)"/>
       <path id="DejaVuSans-75" d="M 544 1381 
L 544 3500 
L 1119 3500 
L 1119 1403 
Q 1119 906 1312 657 
Q 1506 409 1894 409 
Q 2359 409 2629 706 
Q 2900 1003 2900 1516 
L 2900 3500 
L 3475 3500 
L 3475 0 
L 2900 0 
L 2900 538 
Q 2691 219 2414 64 
Q 2138 -91 1772 -91 
Q 1169 -91 856 284 
Q 544 659 544 1381 
z
M 1991 3584 
L 1991 3584 
z
" transform="scale(0.015625)"/>
       <path id="DejaVuSans-72" d="M 2631 2963 
Q 2534 3019 2420 3045 
Q 2306 3072 2169 3072 
Q 1681 3072 1420 2755 
Q 1159 2438 1159 1844 
L 1159 0 
L 581 0 
L 581 3500 
L 1159 3500 
L 1159 2956 
Q 1341 3275 1631 3429 
Q 1922 3584 2338 3584 
Q 2397 3584 2469 3576 
Q 2541 3569 2628 3553 
L 2631 2963 
z
" transform="scale(0.015625)"/>
       <path id="DejaVuSans-6e" d="M 3513 2113 
L 3513 0 
L 2938 0 
L 2938 2094 
Q 2938 2591 2744 2837 
Q 2550 3084 2163 3084 
Q 1697 3084 1428 2787 
Q 1159 2491 1159 1978 
L 1159 0 
L 581 0 
L 581 3500 
L 1159 3500 
L 1159 2956 
Q 1366 3272 1645 3428 
Q 1925 3584 2291 3584 
Q 2894 3584 3203 3211 
Q 3513 2838 3513 2113 
z
" transform="scale(0.015625)"/>
       <path id="DejaVuSans-73" d="M 2834 3397 
L 2834 2853 
Q 2591 2978 2328 3040 
Q 2066 3103 1784 3103 
Q 1356 3103 1142 2972 
Q 928 2841 928 2578 
Q 928 2378 1081 2264 
Q 1234 2150 1697 2047 
L 1894 2003 
Q 2506 1872 2764 1633 
Q 3022 1394 3022 966 
Q 3022 478 2636 193 
Q 2250 -91 1575 -91 
Q 1294 -91 989 -36 
Q 684 19 347 128 
L 347 722 
Q 666 556 975 473 
Q 1284 391 1588 391 
Q 1994 391 2212 530 
Q 2431 669 2431 922 
Q 2431 1156 2273 1281 
Q 2116 1406 1581 1522 
L 1381 1569 
Q 847 1681 609 1914 
Q 372 2147 372 2553 
Q 372 3047 722 3315 
Q 1072 3584 1716 3584 
Q 2034 3584 2315 3537 
Q 2597 3491 2834 3397 
z
" transform="scale(0.015625)"/>
       <path id="DejaVuSans-20" transform="scale(0.015625)"/>
       <path id="DejaVuSans-28" d="M 1984 4856 
Q 1566 4138 1362 3434 
Q 1159 2731 1159 2009 
Q 1159 1288 1364 580 
Q 1569 -128 1984 -844 
L 1484 -844 
Q 1016 -109 783 600 
Q 550 1309 550 2009 
Q 550 2706 781 3412 
Q 1013 4119 1484 4856 
L 1984 4856 
z
" transform="scale(0.015625)"/>
       <path id="DejaVuSans-25" d="M 4653 2053 
Q 4381 2053 4226 1822 
Q 4072 1591 4072 1178 
Q 4072 772 4226 539 
Q 4381 306 4653 306 
Q 4919 306 5073 539 
Q 5228 772 5228 1178 
Q 5228 1588 5073 1820 
Q 4919 2053 4653 2053 
z
M 4653 2450 
Q 5147 2450 5437 2106 
Q 5728 1763 5728 1178 
Q 5728 594 5436 251 
Q 5144 -91 4653 -91 
Q 4153 -91 3862 251 
Q 3572 594 3572 1178 
Q 3572 1766 3864 2108 
Q 4156 2450 4653 2450 
z
M 1428 4353 
Q 1159 4353 1004 4120 
Q 850 3888 850 3481 
Q 850 3069 1003 2837 
Q 1156 2606 1428 2606 
Q 1700 2606 1854 2837 
Q 2009 3069 2009 3481 
Q 2009 3884 1853 4118 
Q 1697 4353 1428 4353 
z
M 4250 4750 
L 4750 4750 
L 1831 -91 
L 1331 -91 
L 4250 4750 
z
M 1428 4750 
Q 1922 4750 2215 4408 
Q 2509 4066 2509 3481 
Q 2509 2891 2217 2550 
Q 1925 2209 1428 2209 
Q 931 2209 642 2551 
Q 353 2894 353 3481 
Q 353 4063 643 4406 
Q 934 4750 1428 4750 
z
" transform="scale(0.015625)"/>
       <path id="DejaVuSans-29" d="M 513 4856 
L 1013 4856 
Q 1481 4119 1714 3412 
Q 1947 2706 1947 2009 
Q 1947 1309 1714 600 
Q 1481 -109 1013 -844 
L 513 -844 
Q 928 -128 1133 580 
Q 1338 1288 1338 2009 
Q 1338 2731 1133 3434 
Q 928 4138 513 4856 
z
" transform="scale(0.015625)"/>
      </defs>
      <use xlink:href="#DejaVuSans-52"/>
      <use xlink:href="#DejaVuSans-65" x="64.982422"/>
      <use xlink:href="#DejaVuSans-74" x="126.505859"/>
      <use xlink:href="#DejaVuSans-75" x="165.714844"/>
      <use xlink:href="#DejaVuSans-72" x="229.09375"/>
      <use xlink:href="#DejaVuSans-6e" x="268.457031"/>
      <use xlink:href="#DejaVuSans-73" x="331.835938"/>
      <use xlink:href="#DejaVuSans-20" x="383.935547"/>
      <use xlink:href="#DejaVuSans-28" x="415.722656"/>
      <use xlink:href="#DejaVuSans-25" x="454.736328"/>
      <use xlink:href="#DejaVuSans-29" x="549.755859"/>
     </g>
    </g>
   </g>
   <g id="line2d_21">
    <path d="M 87.694545 252.864645 
L 88.077032 290.466839 
L 88.459519 245.632881 
L 137.800313 245.632881 
L 138.1828 233.230734 
L 138.947774 203.014378 
L 139.33026 216.642233 
L 140.477721 237.917437 
L 140.860208 225.802472 
L 141.242694 231.211573 
L 141.625181 250.538672 
L 142.007668 251.115998 
L 143.537615 255.296431 
L 143.920102 264.95998 
L 144.302589 260.489404 
L 144.685075 278.806923 
L 145.832536 301.956216 
L 146.215022 274.481418 
L 146.979996 257.750806 
L 147.362483 235.898276 
L 148.509943 221.115769 
L 148.89243 219.528863 
L 173.371584 219.528863 
L 173.75407 221.316831 
L 174.136557 201.960934 
L 175.284018 181.413059 
L 175.666504 190.866365 
L 176.048991 179.401977 
L 176.431478 183.870368 
L 176.813965 225.708813 
L 177.961425 208.883578 
L 178.343912 211.490649 
L 178.726399 207.172019 
L 179.108885 187.443247 
L 181.021319 203.745845 
L 181.403806 185.358813 
L 181.786293 160.195842 
L 186.758621 160.195842 
L 187.141108 158.05825 
L 191.730949 158.05825 
L 192.113436 182.789323 
L 192.495923 167.694204 
L 192.878409 147.779459 
L 199.763171 147.779459 
L 200.145658 145.472577 
L 200.528145 131.252588 
L 248.721479 131.252588 
L 249.103966 123.320514 
L 250.251426 52.662972 
L 250.633913 108.060581 
L 251.0164 43.387273 
L 251.398886 43.387273 
L 251.781373 74.707293 
L 252.928833 189.74395 
L 253.31132 119.512827 
L 253.693807 186.574447 
L 254.076294 311.118189 
L 254.458781 222.095725 
L 255.606241 366.46394 
L 255.988728 321.730719 
L 257.136188 321.730719 
L 258.283648 320.741927 
L 343.960687 320.741927 
L 344.343173 304.633787 
L 387.946666 304.633787 
L 388.329153 299.582894 
L 389.476613 269.813794 
L 389.8591 287.606161 
L 390.241587 318.255418 
L 390.624073 334.21131 
L 391.00656 320.475047 
L 392.154021 347.871412 
L 392.536507 313.357629 
L 395.978888 313.357629 
L 396.361375 309.17576 
L 400.56873 309.17576 
L 400.951216 294.283696 
L 417.015661 294.283696 
L 417.398148 286.977099 
L 417.780635 263.956159 
L 418.928095 270.320412 
L 419.310582 278.098584 
L 419.693069 276.762857 
L 420.075555 255.705606 
L 424.665397 255.705606 
L 425.047883 253.695599 
L 425.43037 265.869252 
L 425.812857 246.642288 
L 426.960317 243.152984 
L 427.725291 242.243306 
L 428.107778 230.031522 
L 428.490264 226.770222 
L 429.637725 215.165409 
L 430.020212 223.053694 
L 430.402698 227.528936 
L 430.785185 212.093981 
L 431.167672 222.333111 
L 432.315132 214.672829 
L 465.973969 214.672829 
L 467.121429 240.896818 
L 467.503916 240.387011 
L 468.268889 217.220632 
L 468.651376 216.021449 
L 469.798836 226.271085 
L 470.181323 260.85615 
L 470.56381 263.37382 
L 470.946297 267.629383 
L 471.328784 260.826631 
L 472.476244 284.202713 
L 472.858731 270.476675 
L 473.241217 263.164116 
L 473.623704 252.944614 
L 474.006191 258.908553 
L 475.153651 267.389547 
L 475.536138 271.196185 
L 475.918625 262.535006 
L 476.301112 241.645846 
L 521.817038 241.645846 
L 522.199525 279.255216 
L 524.494446 279.255216 
L 524.876932 291.517783 
L 526.789366 291.517783 
L 527.171853 257.299653 
L 527.55434 239.1068 
L 529.084287 239.1068 
L 529.466774 219.91344 
L 532.909155 219.91344 
L 534.056615 244.576412 
L 545.913705 244.576412 
L 547.443652 243.480078 
L 547.826139 217.925201 
L 548.208626 217.925201 
L 548.591113 242.743157 
L 550.503547 242.743157 
L 550.886033 244.514973 
L 551.651007 244.514973 
L 552.798467 225.848298 
L 553.945928 225.848298 
L 554.328414 240.318108 
L 556.240848 240.318108 
L 556.623335 243.522524 
L 558.918256 243.522524 
L 559.300742 251.570917 
L 561.213176 251.570917 
L 561.595663 235.93628 
L 569.627885 235.93628 
L 570.010372 285.386584 
L 570.392859 272.210406 
L 571.922806 244.394402 
L 599.079367 244.394402 
L 599.461854 243.967185 
L 599.844341 260.508671 
L 601.374288 269.208094 
L 601.756775 247.247391 
L 602.139262 240.83036 
L 602.521748 215.446069 
L 603.669209 199.902398 
L 604.051695 272.488301 
L 604.434182 264.216094 
L 604.816669 283.183353 
L 605.199156 290.170983 
L 606.346616 281.756858 
L 606.729103 290.312901 
L 607.11159 309.563995 
L 607.876563 337.087296 
L 609.024024 341.221936 
L 609.40651 340.936637 
L 609.788997 323.397336 
L 610.171484 350.206658 
L 610.553971 365.465031 
L 615.143812 365.465031 
L 615.526299 347.046446 
L 615.908786 373.532727 
L 617.056246 347.199491 
L 618.203706 347.199491 
L 618.586193 326.400476 
L 625.088468 326.400476 
L 625.470955 319.605812 
L 625.853442 342.026984 
L 626.235929 276.631894 
L 637.328045 276.631894 
L 638.475505 263.377828 
L 638.857992 251.517702 
L 639.240479 260.761729 
L 642.300373 260.761729 
L 642.68286 259.677595 
L 644.212807 275.935182 
L 644.595294 290.674982 
L 644.977781 265.96336 
L 645.360267 265.96336 
L 646.890215 274.417394 
L 647.272701 268.782109 
L 647.655188 268.782109 
L 648.037675 239.660865 
L 649.185135 231.243313 
L 690.493707 231.243313 
L 690.876194 222.95635 
L 692.023654 224.14106 
L 692.788628 243.228554 
L 693.171115 247.667087 
L 693.553601 223.547954 
L 694.701062 220.145479 
L 695.083549 228.283791 
L 695.466035 214.96669 
L 695.848522 211.415563 
L 696.231009 215.854096 
L 697.378469 209.343447 
L 736.009634 209.343447 
L 736.392121 199.122341 
L 737.539581 189.249027 
L 737.922068 160.443344 
L 738.304554 152.428841 
L 738.687041 148.01446 
L 739.069528 149.756948 
L 740.599475 148.478575 
L 741.364449 171.941648 
L 741.746935 170.548128 
L 742.894396 154.519121 
L 743.276883 170.084013 
L 743.659369 165.438162 
L 744.041856 154.286476 
L 744.424343 179.259391 
L 745.571803 178.214838 
L 745.95429 181.001879 
L 746.719264 226.00694 
L 747.10175 225.657972 
L 748.631697 225.657972 
L 749.014184 223.129575 
L 749.396671 223.129575 
L 749.779158 222.188602 
L 751.309105 222.188602 
L 751.691592 205.213891 
L 757.046407 205.213891 
L 757.428893 216.856221 
L 757.81138 235.983078 
L 758.95884 232.419246 
L 759.341327 220.89547 
L 760.106301 274.355347 
L 760.488788 269.128154 
L 784.585455 269.128154 
L 784.585455 269.128154 
" clip-path="url(#pc729da4a25)" style="fill: none; stroke: #d62728; stroke-width: 1.5; stroke-linecap: square"/>
   </g>
   <g id="patch_3">
    <path d="M 52.85 390.04 
L 52.85 26.88 
" style="fill: none; stroke: #000000; stroke-width: 0.8; stroke-linejoin: miter; stroke-linecap: square"/>
   </g>
   <g id="patch_4">
    <path d="M 819.43 390.04 
L 819.43 26.88 
" style="fill: none; stroke: #000000; stroke-width: 0.8; stroke-linejoin: miter; stroke-linecap: square"/>
   </g>
   <g id="patch_5">
    <path d="M 52.85 390.04 
L 819.43 390.04 
" style="fill: none; stroke: #000000; stroke-width: 0.8; stroke-linejoin: miter; stroke-linecap: square"/>
   </g>
   <g id="patch_6">
    <path d="M 52.85 26.88 
L 819.43 26.88 
" style="fill: none; stroke: #000000; stroke-width: 0.8; stroke-linejoin: miter; stroke-linecap: square"/>
   </g>
  </g>
  <g id="axes_2">
   <g id="matplotlib.axis_3">
    <g id="ytick_5">
     <g id="line2d_22">
      <defs>
       <path id="med544447dc" d="M 0 0 
L 3.5 0 
" style="stroke: #000000; stroke-width: 0.8"/>
      </defs>
      <g>
       <use xlink:href="#med544447dc" x="819.43" y="366.181787" style="stroke: #000000; stroke-width: 0.8"/>
      </g>
     </g>
     <g id="text_13">
      <!-- 10 -->
      <g style="fill: #1f77b4" transform="translate(826.43 369.981005) scale(0.1 -0.1)">
       <use xlink:href="#DejaVuSans-31"/>
       <use xlink:href="#DejaVuSans-30" x="63.623047"/>
      </g>
     </g>
    </g>
    <g id="ytick_6">
     <g id="line2d_23">
      <g>
       <use xlink:href="#med544447dc" x="819.43" y="323.891008" style="stroke: #000000; stroke-width: 0.8"/>
      </g>
     </g>
     <g id="text_14">
      <!-- 20 -->
      <g style="fill: #1f77b4" transform="translate(826.43 327.690227) scale(0.1 -0.1)">
       <use xlink:href="#DejaVuSans-32"/>
       <use xlink:href="#DejaVuSans-30" x="63.623047"/>
      </g>
     </g>
    </g>
    <g id="ytick_7">
     <g id="line2d_24">
      <g>
       <use xlink:href="#med544447dc" x="819.43" y="281.60023" style="stroke: #000000; stroke-width: 0.8"/>
      </g>
     </g>
     <g id="text_15">
      <!-- 30 -->
      <g style="fill: #1f77b4" transform="translate(826.43 285.399449) scale(0.1 -0.1)">
       <use xlink:href="#DejaVuSans-33"/>
       <use xlink:href="#DejaVuSans-30" x="63.623047"/>
      </g>
     </g>
    </g>
    <g id="ytick_8">
     <g id="line2d_25">
      <g>
       <use xlink:href="#med544447dc" x="819.43" y="239.309452" style="stroke: #000000; stroke-width: 0.8"/>
      </g>
     </g>
     <g id="text_16">
      <!-- 40 -->
      <g style="fill: #1f77b4" transform="translate(826.43 243.108671) scale(0.1 -0.1)">
       <use xlink:href="#DejaVuSans-34"/>
       <use xlink:href="#DejaVuSans-30" x="63.623047"/>
      </g>
     </g>
    </g>
    <g id="ytick_9">
     <g id="line2d_26">
      <g>
       <use xlink:href="#med544447dc" x="819.43" y="197.018674" style="stroke: #000000; stroke-width: 0.8"/>
      </g>
     </g>
     <g id="text_17">
      <!-- 50 -->
      <g style="fill: #1f77b4" transform="translate(826.43 200.817893) scale(0.1 -0.1)">
       <defs>
        <path id="DejaVuSans-35" d="M 691 4666 
L 3169 4666 
L 3169 4134 
L 1269 4134 
L 1269 2991 
Q 1406 3038 1543 3061 
Q 1681 3084 1819 3084 
Q 2600 3084 3056 2656 
Q 3513 2228 3513 1497 
Q 3513 744 3044 326 
Q 2575 -91 1722 -91 
Q 1428 -91 1123 -41 
Q 819 9 494 109 
L 494 744 
Q 775 591 1075 516 
Q 1375 441 1709 441 
Q 2250 441 2565 725 
Q 2881 1009 2881 1497 
Q 2881 1984 2565 2268 
Q 2250 2553 1709 2553 
Q 1456 2553 1204 2497 
Q 953 2441 691 2322 
L 691 4666 
z
" transform="scale(0.015625)"/>
       </defs>
       <use xlink:href="#DejaVuSans-35"/>
       <use xlink:href="#DejaVuSans-30" x="63.623047"/>
      </g>
     </g>
    </g>
    <g id="ytick_10">
     <g id="line2d_27">
      <g>
       <use xlink:href="#med544447dc" x="819.43" y="154.727896" style="stroke: #000000; stroke-width: 0.8"/>
      </g>
     </g>
     <g id="text_18">
      <!-- 60 -->
      <g style="fill: #1f77b4" transform="translate(826.43 158.527115) scale(0.1 -0.1)">
       <defs>
        <path id="DejaVuSans-36" d="M 2113 2584 
Q 1688 2584 1439 2293 
Q 1191 2003 1191 1497 
Q 1191 994 1439 701 
Q 1688 409 2113 409 
Q 2538 409 2786 701 
Q 3034 994 3034 1497 
Q 3034 2003 2786 2293 
Q 2538 2584 2113 2584 
z
M 3366 4563 
L 3366 3988 
Q 3128 4100 2886 4159 
Q 2644 4219 2406 4219 
Q 1781 4219 1451 3797 
Q 1122 3375 1075 2522 
Q 1259 2794 1537 2939 
Q 1816 3084 2150 3084 
Q 2853 3084 3261 2657 
Q 3669 2231 3669 1497 
Q 3669 778 3244 343 
Q 2819 -91 2113 -91 
Q 1303 -91 875 529 
Q 447 1150 447 2328 
Q 447 3434 972 4092 
Q 1497 4750 2381 4750 
Q 2619 4750 2861 4703 
Q 3103 4656 3366 4563 
z
" transform="scale(0.015625)"/>
       </defs>
       <use xlink:href="#DejaVuSans-36"/>
       <use xlink:href="#DejaVuSans-30" x="63.623047"/>
      </g>
     </g>
    </g>
    <g id="ytick_11">
     <g id="line2d_28">
      <g>
       <use xlink:href="#med544447dc" x="819.43" y="112.437118" style="stroke: #000000; stroke-width: 0.8"/>
      </g>
     </g>
     <g id="text_19">
      <!-- 70 -->
      <g style="fill: #1f77b4" transform="translate(826.43 116.236337) scale(0.1 -0.1)">
       <defs>
        <path id="DejaVuSans-37" d="M 525 4666 
L 3525 4666 
L 3525 4397 
L 1831 0 
L 1172 0 
L 2766 4134 
L 525 4134 
L 525 4666 
z
" transform="scale(0.015625)"/>
       </defs>
       <use xlink:href="#DejaVuSans-37"/>
       <use xlink:href="#DejaVuSans-30" x="63.623047"/>
      </g>
     </g>
    </g>
    <g id="ytick_12">
     <g id="line2d_29">
      <g>
       <use xlink:href="#med544447dc" x="819.43" y="70.14634" style="stroke: #000000; stroke-width: 0.8"/>
      </g>
     </g>
     <g id="text_20">
      <!-- 80 -->
      <g style="fill: #1f77b4" transform="translate(826.43 73.945558) scale(0.1 -0.1)">
       <defs>
        <path id="DejaVuSans-38" d="M 2034 2216 
Q 1584 2216 1326 1975 
Q 1069 1734 1069 1313 
Q 1069 891 1326 650 
Q 1584 409 2034 409 
Q 2484 409 2743 651 
Q 3003 894 3003 1313 
Q 3003 1734 2745 1975 
Q 2488 2216 2034 2216 
z
M 1403 2484 
Q 997 2584 770 2862 
Q 544 3141 544 3541 
Q 544 4100 942 4425 
Q 1341 4750 2034 4750 
Q 2731 4750 3128 4425 
Q 3525 4100 3525 3541 
Q 3525 3141 3298 2862 
Q 3072 2584 2669 2484 
Q 3125 2378 3379 2068 
Q 3634 1759 3634 1313 
Q 3634 634 3220 271 
Q 2806 -91 2034 -91 
Q 1263 -91 848 271 
Q 434 634 434 1313 
Q 434 1759 690 2068 
Q 947 2378 1403 2484 
z
M 1172 3481 
Q 1172 3119 1398 2916 
Q 1625 2713 2034 2713 
Q 2441 2713 2670 2916 
Q 2900 3119 2900 3481 
Q 2900 3844 2670 4047 
Q 2441 4250 2034 4250 
Q 1625 4250 1398 4047 
Q 1172 3844 1172 3481 
z
" transform="scale(0.015625)"/>
       </defs>
       <use xlink:href="#DejaVuSans-38"/>
       <use xlink:href="#DejaVuSans-30" x="63.623047"/>
      </g>
     </g>
    </g>
    <g id="ytick_13">
     <g id="line2d_30">
      <g>
       <use xlink:href="#med544447dc" x="819.43" y="27.855562" style="stroke: #000000; stroke-width: 0.8"/>
      </g>
     </g>
     <g id="text_21">
      <!-- 90 -->
      <g style="fill: #1f77b4" transform="translate(826.43 31.65478) scale(0.1 -0.1)">
       <use xlink:href="#DejaVuSans-39"/>
       <use xlink:href="#DejaVuSans-30" x="63.623047"/>
      </g>
     </g>
    </g>
    <g id="text_22">
     <!-- Close Price -->
     <g style="fill: #1f77b4" transform="translate(850.753438 235.867812) rotate(-90) scale(0.1 -0.1)">
      <defs>
       <path id="DejaVuSans-43" d="M 4122 4306 
L 4122 3641 
Q 3803 3938 3442 4084 
Q 3081 4231 2675 4231 
Q 1875 4231 1450 3742 
Q 1025 3253 1025 2328 
Q 1025 1406 1450 917 
Q 1875 428 2675 428 
Q 3081 428 3442 575 
Q 3803 722 4122 1019 
L 4122 359 
Q 3791 134 3420 21 
Q 3050 -91 2638 -91 
Q 1578 -91 968 557 
Q 359 1206 359 2328 
Q 359 3453 968 4101 
Q 1578 4750 2638 4750 
Q 3056 4750 3426 4639 
Q 3797 4528 4122 4306 
z
" transform="scale(0.015625)"/>
       <path id="DejaVuSans-6c" d="M 603 4863 
L 1178 4863 
L 1178 0 
L 603 0 
L 603 4863 
z
" transform="scale(0.015625)"/>
       <path id="DejaVuSans-6f" d="M 1959 3097 
Q 1497 3097 1228 2736 
Q 959 2375 959 1747 
Q 959 1119 1226 758 
Q 1494 397 1959 397 
Q 2419 397 2687 759 
Q 2956 1122 2956 1747 
Q 2956 2369 2687 2733 
Q 2419 3097 1959 3097 
z
M 1959 3584 
Q 2709 3584 3137 3096 
Q 3566 2609 3566 1747 
Q 3566 888 3137 398 
Q 2709 -91 1959 -91 
Q 1206 -91 779 398 
Q 353 888 353 1747 
Q 353 2609 779 3096 
Q 1206 3584 1959 3584 
z
" transform="scale(0.015625)"/>
       <path id="DejaVuSans-50" d="M 1259 4147 
L 1259 2394 
L 2053 2394 
Q 2494 2394 2734 2622 
Q 2975 2850 2975 3272 
Q 2975 3691 2734 3919 
Q 2494 4147 2053 4147 
L 1259 4147 
z
M 628 4666 
L 2053 4666 
Q 2838 4666 3239 4311 
Q 3641 3956 3641 3272 
Q 3641 2581 3239 2228 
Q 2838 1875 2053 1875 
L 1259 1875 
L 1259 0 
L 628 0 
L 628 4666 
z
" transform="scale(0.015625)"/>
       <path id="DejaVuSans-69" d="M 603 3500 
L 1178 3500 
L 1178 0 
L 603 0 
L 603 3500 
z
M 603 4863 
L 1178 4863 
L 1178 4134 
L 603 4134 
L 603 4863 
z
" transform="scale(0.015625)"/>
       <path id="DejaVuSans-63" d="M 3122 3366 
L 3122 2828 
Q 2878 2963 2633 3030 
Q 2388 3097 2138 3097 
Q 1578 3097 1268 2742 
Q 959 2388 959 1747 
Q 959 1106 1268 751 
Q 1578 397 2138 397 
Q 2388 397 2633 464 
Q 2878 531 3122 666 
L 3122 134 
Q 2881 22 2623 -34 
Q 2366 -91 2075 -91 
Q 1284 -91 818 406 
Q 353 903 353 1747 
Q 353 2603 823 3093 
Q 1294 3584 2113 3584 
Q 2378 3584 2631 3529 
Q 2884 3475 3122 3366 
z
" transform="scale(0.015625)"/>
      </defs>
      <use xlink:href="#DejaVuSans-43"/>
      <use xlink:href="#DejaVuSans-6c" x="69.824219"/>
      <use xlink:href="#DejaVuSans-6f" x="97.607422"/>
      <use xlink:href="#DejaVuSans-73" x="158.789062"/>
      <use xlink:href="#DejaVuSans-65" x="210.888672"/>
      <use xlink:href="#DejaVuSans-20" x="272.412109"/>
      <use xlink:href="#DejaVuSans-50" x="304.199219"/>
      <use xlink:href="#DejaVuSans-72" x="362.751953"/>
      <use xlink:href="#DejaVuSans-69" x="403.865234"/>
      <use xlink:href="#DejaVuSans-63" x="431.648438"/>
      <use xlink:href="#DejaVuSans-65" x="486.628906"/>
     </g>
    </g>
   </g>
   <g id="line2d_31">
    <path d="M 87.694545 369.784411 
L 88.077032 373.532727 
L 88.459519 369.063565 
L 89.606979 367.807275 
L 90.371953 365.644694 
L 90.75444 365.232781 
L 91.136926 365.747883 
L 92.284387 366.859877 
L 92.666874 364.553169 
L 93.04936 364.491424 
L 93.814334 362.225907 
L 95.344281 364.779847 
L 95.726768 364.738402 
L 96.109255 363.966173 
L 96.491741 362.380268 
L 97.639202 364.079512 
L 98.021688 365.335971 
L 98.404175 362.102418 
L 98.786662 360.06358 
L 99.169149 360.681448 
L 100.316609 358.93061 
L 100.699096 357.622979 
L 101.081583 358.024318 
L 101.464069 360.083879 
L 101.846556 359.836901 
L 102.994017 359.95024 
L 103.376503 357.849657 
L 104.141477 357.561234 
L 104.523964 356.953516 
L 106.053911 356.644793 
L 106.436398 356.685815 
L 106.818884 357.272811 
L 107.201371 356.160564 
L 108.731318 355.419206 
L 109.113805 355.58414 
L 109.496292 355.913586 
L 109.878779 354.863083 
L 111.026239 354.852933 
L 111.408726 354.718871 
L 111.791212 355.645885 
L 112.173699 357.571384 
L 112.556186 357.859807 
L 114.46862 352.639011 
L 114.851107 352.885989 
L 115.233593 351.506041 
L 116.381054 350.991362 
L 117.146027 349.745053 
L 117.528514 347.025333 
L 117.911001 351.042957 
L 119.058461 351.403697 
L 119.440948 350.620472 
L 119.823435 351.753865 
L 120.205922 351.393124 
L 120.588408 350.10537 
L 122.500842 346.077596 
L 122.883329 346.170636 
L 123.265816 345.23305 
L 124.413276 344.73867 
L 124.795763 345.439006 
L 125.17825 344.419375 
L 125.560736 344.903604 
L 125.943223 344.120379 
L 127.090684 344.069207 
L 127.855657 342.791603 
L 128.238144 342.585647 
L 129.768091 342.029523 
L 130.150578 339.505609 
L 130.533065 340.175073 
L 130.915551 339.412993 
L 131.298038 339.165592 
L 132.445498 338.794702 
L 132.827985 340.391601 
L 133.592959 341.998651 
L 133.975446 338.867019 
L 135.122906 340.113328 
L 135.505393 344.089507 
L 135.887879 344.656203 
L 136.270366 345.665684 
L 136.652853 345.4906 
L 137.800313 352.000843 
L 138.1828 350.229282 
L 138.947774 345.913085 
L 139.33026 347.85973 
L 140.477721 350.898745 
L 140.860208 349.168206 
L 141.242694 349.940859 
L 141.625181 352.701601 
L 142.007668 352.784068 
L 143.537615 353.381214 
L 143.920102 354.761585 
L 144.302589 354.122994 
L 144.685075 356.739524 
L 145.832536 360.04624 
L 146.215022 356.121656 
L 146.979996 353.731804 
L 147.362483 350.610322 
L 148.509943 348.498743 
L 148.89243 348.272065 
L 149.274917 349.291696 
L 149.657403 348.323237 
L 150.03989 349.106462 
L 151.187351 348.024664 
L 151.569837 345.408133 
L 151.952324 344.666353 
L 152.334811 342.915092 
L 152.717298 343.214088 
L 153.864758 343.23481 
L 154.247245 346.572399 
L 155.012218 345.10956 
L 155.394705 344.841437 
L 156.924652 341.503849 
L 157.307139 340.020711 
L 158.072113 340.463496 
L 159.219573 341.895461 
L 159.60206 340.89613 
L 159.984546 338.897891 
L 160.367033 339.083125 
L 160.74952 337.919282 
L 161.89698 337.321714 
L 162.661954 339.371548 
L 163.044441 339.072975 
L 163.426927 340.751919 
L 164.574388 339.155442 
L 165.339361 336.312233 
L 165.721848 338.372217 
L 166.104335 336.29151 
L 167.251795 336.960973 
L 167.634282 337.919282 
L 168.016769 340.89613 
L 168.399256 341.843867 
L 168.781742 344.893032 
L 169.929203 351.568208 
L 170.311689 349.229951 
L 170.694176 348.364682 
L 171.076663 344.388503 
L 171.45915 346.283975 
L 172.60661 348.364682 
L 172.989097 344.419375 
L 173.371584 350.156965 
L 173.75407 350.404366 
L 174.136557 347.726091 
L 175.284018 344.882882 
L 175.666504 346.190936 
L 176.048991 344.604609 
L 176.431478 345.2229 
L 176.813965 351.012084 
L 177.961425 348.683977 
L 178.343912 349.044717 
L 178.726399 348.447149 
L 179.108885 345.717279 
L 181.021319 347.973069 
L 181.403806 345.428856 
L 181.786293 341.947056 
L 182.16878 342.13229 
L 183.31624 342.554775 
L 183.698727 343.100749 
L 184.081213 341.339338 
L 184.4637 340.504941 
L 184.846187 341.225998 
L 185.993647 342.153012 
L 186.376134 341.27717 
L 186.758621 341.318615 
L 187.141108 341.020042 
L 187.523594 343.141771 
L 188.671055 343.080026 
L 189.053542 345.665684 
L 189.436028 343.656872 
L 189.818515 344.306036 
L 190.201002 346.634143 
L 191.348462 344.985649 
L 191.730949 346.520804 
L 192.113436 349.693458 
L 192.495923 347.756963 
L 192.878409 345.202177 
L 194.02587 345.789173 
L 194.408356 348.642955 
L 195.555817 343.121471 
L 196.703277 343.049154 
L 197.085764 340.566685 
L 197.468251 341.071214 
L 197.850737 340.607707 
L 198.233224 342.554775 
L 199.380685 340.813663 
L 199.763171 342.379691 
L 200.145658 342.070545 
L 200.910632 338.609468 
L 202.058092 336.476744 
L 202.440579 338.135388 
L 202.823066 337.14663 
L 203.205552 337.095035 
L 203.588039 335.15854 
L 204.735499 333.850064 
L 205.117986 333.757447 
L 205.500473 334.231104 
L 206.265447 332.593182 
L 207.412907 332.9129 
L 207.795394 332.294609 
L 208.560367 332.428671 
L 208.942854 330.996705 
L 210.090314 330.594943 
L 210.472801 330.275647 
L 210.855288 331.645868 
L 211.237775 332.243014 
L 211.620261 332.037058 
L 212.767722 329.389655 
L 213.150209 328.915999 
L 213.532695 327.308949 
L 214.297669 328.390324 
L 215.445129 330.965833 
L 215.827616 332.706521 
L 216.210103 331.583701 
L 216.59259 331.181939 
L 216.975076 328.792087 
L 218.122537 329.770695 
L 218.505023 329.945779 
L 218.88751 328.761214 
L 219.269997 326.938059 
L 220.799944 323.847449 
L 221.564918 323.538726 
L 221.947404 321.807765 
L 222.329891 320.777984 
L 223.859838 320.014636 
L 224.624812 317.716555 
L 225.007299 317.984255 
L 226.154759 319.787957 
L 226.537246 319.283005 
L 227.302219 314.861927 
L 227.684706 317.407409 
L 228.832166 315.676025 
L 229.214653 315.789364 
L 229.979627 311.265519 
L 230.362114 312.058894 
L 231.509574 308.689165 
L 231.892061 309.853853 
L 232.274547 309.791686 
L 232.657034 307.040671 
L 233.039521 305.525815 
L 234.569468 305.576987 
L 234.951955 304.876229 
L 235.334442 303.91792 
L 235.716928 306.628336 
L 236.864389 312.924587 
L 237.246876 308.483209 
L 237.629362 308.122469 
L 238.011849 306.989076 
L 238.394336 311.976427 
L 239.541796 307.545623 
L 239.924283 300.65138 
L 240.30677 299.404648 
L 240.689257 296.745827 
L 241.071743 298.188365 
L 242.219204 294.210917 
L 242.60169 294.12845 
L 242.984177 290.779021 
L 243.366664 291.232801 
L 243.749151 290.439003 
L 245.279098 290.233047 
L 245.661585 286.811723 
L 246.044071 290.274069 
L 246.426558 297.03425 
L 247.574019 309.874153 
L 247.956505 317.850617 
L 248.338992 316.603462 
L 248.721479 330.339929 
L 249.103966 329.124069 
L 250.251426 318.293401 
L 250.633913 326.784966 
L 251.0164 316.871585 
L 251.398886 324.90937 
L 251.781373 329.289003 
L 252.928833 345.375147 
L 253.31132 335.554382 
L 253.693807 344.931939 
L 254.076294 362.347282 
L 254.458781 349.898991 
L 255.606241 370.086452 
L 255.988728 363.831265 
L 256.371214 367.963624 
L 256.753701 367.025868 
L 257.136188 371.879496 
L 258.283648 371.766157 
L 258.666135 363.583864 
L 259.048622 364.62464 
L 259.431109 357.483419 
L 259.813595 362.780339 
L 260.961056 357.978221 
L 261.343543 359.379738 
L 261.726029 365.46961 
L 262.108516 362.924551 
L 262.491003 364.758702 
L 263.638463 355.607823 
L 264.02095 355.711013 
L 264.403437 352.341284 
L 264.785924 352.135327 
L 266.315871 350.177264 
L 266.698357 342.613136 
L 267.080844 344.797877 
L 267.463331 341.387126 
L 267.845818 339.707337 
L 268.993278 341.9331 
L 269.375765 349.29085 
L 269.758252 344.056097 
L 270.140738 344.478582 
L 270.523225 341.387126 
L 271.670686 340.078227 
L 272.053172 343.777824 
L 272.435659 337.048515 
L 272.818146 336.574436 
L 273.200633 343.025471 
L 274.348093 340.71724 
L 274.73058 338.553221 
L 275.113067 337.172427 
L 275.87804 331.401428 
L 277.0255 329.48481 
L 277.407987 334.183738 
L 277.790474 336.996921 
L 278.172961 334.626945 
L 278.555448 333.359491 
L 279.702908 329.01073 
L 280.085395 329.618871 
L 280.467881 325.001987 
L 280.850368 327.568192 
L 281.232855 326.836561 
L 282.762802 327.176579 
L 283.145289 326.032613 
L 283.527776 326.558288 
L 283.910262 323.177986 
L 285.057723 322.12706 
L 285.44021 320.406248 
L 285.822696 319.210688 
L 286.205183 321.024539 
L 286.58767 315.840959 
L 287.73513 313.780129 
L 288.117617 311.667282 
L 288.500104 308.174064 
L 288.882591 322.941158 
L 289.265077 321.086284 
L 290.412538 318.004978 
L 290.795024 313.223583 
L 291.559998 311.553943 
L 291.942485 311.688004 
L 293.089945 308.245958 
L 293.472432 305.628582 
L 293.854919 311.688004 
L 294.237405 309.122223 
L 294.619892 316.263444 
L 295.767353 313.316199 
L 296.149839 307.844196 
L 296.532326 304.247788 
L 296.914813 302.032174 
L 298.44476 294.210917 
L 298.827247 296.457404 
L 299.209734 292.149665 
L 299.974707 286.719106 
L 301.122167 294.24179 
L 301.504654 291.819797 
L 301.887141 291.242951 
L 302.269628 293.757137 
L 302.652115 293.221313 
L 303.799575 283.411121 
L 304.182062 287.409292 
L 304.564548 286.007775 
L 304.947035 295.601861 
L 305.329522 298.940718 
L 306.476982 293.056379 
L 306.859469 297.39499 
L 307.241956 293.612926 
L 307.624443 291.747902 
L 308.006929 285.451651 
L 309.919363 278.176369 
L 310.30185 273.188595 
L 310.684337 277.60925 
L 311.831797 279.371506 
L 312.214284 286.698384 
L 312.596771 277.58895 
L 312.979258 276.671663 
L 313.361744 277.053126 
L 314.509205 272.714515 
L 314.891691 268.726495 
L 315.274178 271.45721 
L 315.656665 265.820272 
L 316.039152 262.842156 
L 317.186612 260.142312 
L 317.569099 256.679966 
L 317.951586 246.962391 
L 318.334072 248.425652 
L 318.716559 245.952488 
L 319.86402 242.191146 
L 320.246506 233.555369 
L 320.628993 228.619612 
L 321.01148 256.236759 
L 321.393967 262.51271 
L 322.923914 283.142998 
L 323.306401 272.374497 
L 323.688887 280.247348 
L 324.071374 283.050381 
L 325.218834 276.589196 
L 325.601321 270.98313 
L 326.366295 283.617077 
L 326.748782 288.439918 
L 327.896242 287.017679 
L 328.278729 280.38141 
L 328.661215 292.242282 
L 329.043702 290.542192 
L 329.426189 282.277729 
L 330.573649 274.796067 
L 330.956136 276.197583 
L 331.338623 273.580207 
L 331.72111 267.263234 
L 332.103596 278.907999 
L 333.251057 270.736152 
L 333.633544 278.134924 
L 334.01603 271.282126 
L 334.398517 269.262319 
L 334.781004 263.068834 
L 335.928464 249.50745 
L 336.310951 249.487151 
L 337.075925 256.618222 
L 338.605872 266.376819 
L 338.988358 265.459955 
L 339.370845 265.830845 
L 339.753332 265.758528 
L 340.135819 264.924131 
L 341.283279 271.467783 
L 341.665766 268.231692 
L 342.048253 284.688726 
L 342.430739 278.392475 
L 342.813226 287.440164 
L 343.960687 287.399142 
L 344.343173 281.308847 
L 344.72566 264.120183 
L 345.108147 252.980369 
L 345.490634 252.454695 
L 346.638094 261.976886 
L 347.020581 269.88061 
L 347.403068 260.564797 
L 347.785554 262.728816 
L 348.168041 258.90573 
L 349.315501 255.464106 
L 349.697988 256.875773 
L 350.080475 260.389713 
L 350.462962 256.720988 
L 350.845449 259.802295 
L 351.992909 259.771422 
L 352.375396 253.6917 
L 352.757882 250.775328 
L 353.522856 246.467589 
L 354.670316 245.633192 
L 355.052803 239.233752 
L 355.817777 237.863108 
L 356.200263 235.770983 
L 357.347724 232.844461 
L 357.730211 231.236988 
L 358.112697 243.108433 
L 358.495184 241.078052 
L 358.877671 242.25289 
L 360.025131 238.708077 
L 360.407618 233.43188 
L 361.172592 226.846783 
L 361.555078 228.825568 
L 362.702539 229.495454 
L 363.085025 228.083365 
L 363.467512 230.803931 
L 363.849999 228.4957 
L 365.379946 223.096014 
L 365.762433 222.549617 
L 366.14492 222.580489 
L 366.527406 221.127801 
L 368.057354 229.32037 
L 368.43984 224.827398 
L 368.822327 232.421976 
L 369.204814 219.705562 
L 369.587301 212.388834 
L 370.734761 221.055484 
L 371.117248 221.869581 
L 371.499735 218.242301 
L 371.882221 221.137951 
L 372.264708 225.692667 
L 373.794655 217.768221 
L 374.177142 204.474961 
L 374.559629 199.40472 
L 374.942116 201.301038 
L 376.089576 195.550761 
L 376.472063 195.324083 
L 376.854549 212.512746 
L 377.237036 209.627247 
L 377.619523 222.013793 
L 378.766983 208.308197 
L 379.14947 198.621495 
L 379.531957 201.032915 
L 379.914444 193.695888 
L 380.29693 191.449401 
L 381.444391 187.20383 
L 381.826878 187.306597 
L 382.209364 188.873047 
L 382.974338 181.53602 
L 384.504285 183.431916 
L 385.651745 192.438583 
L 386.799206 209.173889 
L 387.181692 210.946296 
L 387.564179 206.185623 
L 387.946666 227.310713 
L 388.329153 224.590147 
L 389.476613 208.555598 
L 389.8591 218.139112 
L 390.241587 234.64774 
L 390.624073 243.242072 
L 391.00656 235.8433 
L 392.154021 250.599821 
L 392.536507 232.009641 
L 392.918994 233.514347 
L 393.301481 221.375202 
L 393.683968 226.032685 
L 394.831428 220.200364 
L 395.596402 214.697488 
L 395.978888 232.483721 
L 396.361375 230.237234 
L 397.508835 220.736188 
L 397.891322 223.18863 
L 398.273809 232.545465 
L 398.656296 233.493624 
L 399.038783 225.764985 
L 400.186243 225.868174 
L 400.56873 228.464828 
L 401.333703 210.822807 
L 402.86365 198.951363 
L 403.246137 199.446165 
L 403.628624 197.900437 
L 404.011111 191.325489 
L 404.393597 187.389064 
L 405.541058 188.254756 
L 405.923545 180.71135 
L 406.306031 188.708113 
L 406.688518 179.000688 
L 407.071005 178.032229 
L 408.218465 184.31833 
L 408.600952 189.223215 
L 408.983439 183.679317 
L 409.365926 191.861314 
L 409.748412 183.700039 
L 410.895873 179.248089 
L 411.660846 184.586031 
L 412.043333 182.339545 
L 412.42582 186.585539 
L 413.57328 190.212819 
L 413.955767 201.71295 
L 414.338254 204.124371 
L 415.103227 194.540857 
L 416.250688 210.616428 
L 416.633174 211.606032 
L 417.015661 226.589232 
L 417.398148 222.755996 
L 417.780635 210.678595 
L 418.928095 214.017452 
L 419.310582 218.098089 
L 419.693069 217.397331 
L 420.075555 206.350134 
L 420.458042 209.688991 
L 421.605502 199.734588 
L 421.987989 198.724684 
L 422.370476 196.601687 
L 422.752963 199.074852 
L 423.13545 197.034745 
L 424.665397 199.095574 
L 425.047883 198.003203 
L 425.43037 204.619173 
L 425.812857 194.169967 
L 426.960317 192.273649 
L 427.725291 191.77927 
L 428.107778 185.142578 
L 428.490264 183.370171 
L 429.637725 177.063347 
L 430.020212 181.350364 
L 430.402698 183.782506 
L 430.785185 175.39413 
L 431.167672 180.958751 
L 432.315132 176.795647 
L 432.697619 170.323889 
L 433.080106 169.911977 
L 433.462593 165.521771 
L 433.845079 166.284697 
L 435.375026 154.887332 
L 435.757513 156.000003 
L 436.14 155.876513 
L 436.522487 147.302904 
L 438.052434 143.799113 
L 438.434921 142.109174 
L 438.817407 146.725635 
L 439.199894 142.294407 
L 440.347355 138.95555 
L 440.729841 139.099762 
L 441.112328 137.636501 
L 441.877302 149.755346 
L 443.024762 155.95898 
L 443.789736 141.676116 
L 444.172222 136.07005 
L 444.554709 127.022361 
L 445.702169 125.847524 
L 446.084656 135.080869 
L 446.467143 132.092603 
L 446.84963 130.732108 
L 447.232117 134.895636 
L 448.379577 134.97768 
L 448.762064 130.217007 
L 449.14455 128.836213 
L 449.527037 123.580738 
L 449.909524 127.290485 
L 451.056984 125.785779 
L 451.439471 130.011051 
L 451.821958 131.515334 
L 452.586931 125.827224 
L 453.734392 125.332422 
L 454.499365 140.790124 
L 454.881852 136.977188 
L 455.264339 128.588812 
L 456.411799 116.119799 
L 456.794286 113.234299 
L 457.176773 112.904431 
L 457.55926 117.912928 
L 457.941746 109.421362 
L 459.089207 99.507981 
L 459.471693 100.373673 
L 459.85418 98.683734 
L 460.236667 99.116369 
L 460.619154 96.334058 
L 462.149101 95.056454 
L 462.914074 101.589956 
L 463.296561 108.493926 
L 464.444022 109.174384 
L 464.826508 111.750316 
L 465.208995 105.175791 
L 465.591482 104.578222 
L 465.973969 115.315851 
L 467.121429 133.349908 
L 467.503916 132.999317 
L 468.268889 117.067958 
L 468.651376 116.243288 
L 469.798836 123.291892 
L 470.181323 147.075803 
L 470.56381 148.807187 
L 470.946297 151.733709 
L 471.328784 147.055503 
L 472.476244 163.131074 
L 472.858731 153.691772 
L 473.241217 148.662975 
L 473.623704 141.635094 
L 474.006191 145.736454 
L 475.153651 151.568775 
L 475.536138 154.186574 
L 475.918625 148.230341 
L 476.301112 133.865009 
L 476.683598 128.774468 
L 477.831059 120.386092 
L 478.213546 114.058969 
L 478.596032 114.986406 
L 478.978519 109.730508 
L 479.361006 117.294637 
L 481.27344 103.362363 
L 481.655927 93.345792 
L 482.038413 88.687886 
L 483.185874 85.534685 
L 483.56836 81.226946 
L 484.333334 58.246983 
L 484.715821 56.948657 
L 485.863281 58.391195 
L 486.245768 65.604733 
L 486.628255 80.629378 
L 487.010741 77.970557 
L 487.393228 67.480329 
L 488.540689 67.583096 
L 488.923175 60.534492 
L 489.305662 60.122579 
L 489.688149 49.466995 
L 490.070636 43.387273 
L 491.600583 60.843637 
L 491.98307 57.628692 
L 492.748043 76.981375 
L 493.895503 56.39211 
L 494.660477 88.811375 
L 495.042964 82.793397 
L 495.425451 99.157813 
L 496.572911 91.923553 
L 496.955398 63.378969 
L 497.337884 58.576429 
L 497.720371 73.683963 
L 498.102858 63.316802 
L 499.250318 78.156213 
L 499.632805 87.987127 
L 500.015292 66.779571 
L 500.397779 92.85099 
L 500.780265 97.67383 
L 501.927726 106.96892 
L 502.310213 86.81229 
L 502.692699 75.332458 
L 503.075186 67.418162 
L 504.605133 51.115912 
L 504.98762 55.320039 
L 505.370107 55.876585 
L 505.752594 59.17442 
L 506.13508 65.666478 
L 507.282541 55.773819 
L 507.665027 69.479414 
L 508.047514 100.662096 
L 508.430001 101.507489 
L 508.812488 111.544359 
L 509.959948 110.451989 
L 510.342435 97.343962 
L 510.724922 93.799149 
L 511.107408 116.6349 
L 511.489895 112.224395 
L 513.019842 133.576586 
L 513.784816 153.403349 
L 514.167303 174.879029 
L 515.314763 171.498727 
L 515.69725 188.976237 
L 516.079737 189.388149 
L 516.462223 195.942374 
L 516.84471 176.115611 
L 517.99217 153.609305 
L 518.757144 142.603553 
L 519.139631 174.590183 
L 519.522118 166.511375 
L 520.669578 171.993529 
L 521.052065 163.955744 
L 521.434551 148.786464 
L 521.817038 166.016573 
L 522.199525 188.852325 
L 523.346985 188.234034 
L 523.729472 172.281952 
L 524.111959 172.323397 
L 524.494446 193.26283 
L 524.876932 200.558835 
L 526.40688 206.989148 
L 526.789366 222.405405 
L 527.171853 204.186115 
L 527.55434 194.499412 
L 528.7018 192.232627 
L 529.084287 202.207753 
L 529.466774 192.356116 
L 530.231747 210.245538 
L 531.379208 232.380954 
L 531.761694 234.812674 
L 532.144181 216.222493 
L 532.526668 222.405405 
L 532.909155 233.946981 
L 534.056615 244.169508 
L 534.439102 228.95963 
L 534.821589 208.802999 
L 535.204075 202.125285 
L 535.586562 189.305682 
L 536.734023 190.872132 
L 537.116509 178.011507 
L 537.498996 187.739654 
L 537.881483 173.436067 
L 538.26397 173.806958 
L 539.41143 163.131074 
L 539.793917 150.558871 
L 540.176404 158.308233 
L 540.55889 168.654672 
L 540.941377 169.685298 
L 542.088837 154.76342 
L 542.853811 187.121363 
L 543.236298 185.678402 
L 543.618785 194.788258 
L 544.766245 209.957115 
L 545.148732 212.512746 
L 545.531218 200.765214 
L 545.913705 214.73851 
L 547.443652 214.202686 
L 547.826139 201.71295 
L 548.591113 222.611784 
L 548.973599 237.368305 
L 550.12106 231.02046 
L 550.503547 250.971134 
L 550.886033 251.671892 
L 551.26852 235.101097 
L 551.651007 257.895826 
L 552.798467 250.8062 
L 553.180954 250.434887 
L 553.563441 234.771652 
L 553.945928 260.657837 
L 555.475875 282.669341 
L 555.858361 278.34088 
L 556.240848 289.923901 
L 556.623335 290.87206 
L 557.005822 278.093902 
L 558.153282 282.133094 
L 558.535769 272.611325 
L 558.918256 292.438088 
L 559.300742 294.787764 
L 559.683229 295.776945 
L 560.83069 290.212324 
L 561.213176 297.590796 
L 561.595663 293.138846 
L 562.360637 271.251254 
L 563.890584 272.240435 
L 564.273071 275.414358 
L 564.655557 264.614985 
L 565.038044 275.991627 
L 566.185504 274.34271 
L 566.567991 271.08632 
L 566.950478 273.889353 
L 567.715452 298.044154 
L 568.862912 313.336922 
L 569.245399 312.718631 
L 569.627885 305.834961 
L 570.010372 318.365718 
L 570.392859 315.026861 
L 571.922806 307.978257 
L 572.305293 308.349147 
L 572.68778 304.062131 
L 573.070266 293.138846 
L 574.217727 295.859412 
L 574.600214 306.123384 
L 574.9827 305.917428 
L 575.365187 309.544708 
L 575.747674 307.936812 
L 577.277621 302.743082 
L 577.660108 300.723697 
L 578.042595 294.045983 
L 578.425081 293.510159 
L 579.955028 303.980087 
L 580.337515 304.6394 
L 580.720002 303.567752 
L 581.102489 298.044154 
L 582.249949 300.599785 
L 582.632436 291.160484 
L 583.397409 280.031242 
L 583.779896 286.749978 
L 584.927357 288.563407 
L 585.309843 295.81839 
L 585.69233 281.762204 
L 586.074817 278.134924 
L 586.457304 270.962831 
L 587.604764 271.168787 
L 587.987251 272.446391 
L 588.369738 261.564551 
L 588.752224 259.462277 
L 589.134711 263.00709 
L 590.282171 264.491073 
L 590.664658 269.437402 
L 591.047145 258.019738 
L 591.429632 260.286524 
L 591.812119 251.918871 
L 592.959579 248.168101 
L 593.342066 249.198728 
L 593.724552 254.721903 
L 594.107039 253.6917 
L 594.489526 262.759689 
L 595.636986 274.219221 
L 596.019473 274.672578 
L 596.40196 273.641952 
L 596.784447 266.552326 
L 597.166933 283.823456 
L 598.314394 287.656693 
L 598.696881 291.696308 
L 599.079367 293.839604 
L 599.461854 293.716115 
L 599.844341 298.497511 
L 601.374288 301.01212 
L 601.756775 294.664275 
L 602.139262 292.809401 
L 602.521748 285.471951 
L 603.669209 280.978979 
L 604.051695 301.96028 
L 604.434182 299.569159 
L 604.816669 305.051735 
L 605.199156 307.071543 
L 606.346616 304.6394 
L 606.729103 307.112565 
L 607.11159 312.677186 
L 607.876563 320.632927 
L 609.024024 321.828064 
L 609.40651 321.745597 
L 609.788997 316.675779 
L 610.171484 324.425141 
L 610.553971 328.835646 
L 611.701431 323.312048 
L 612.083918 315.397751 
L 612.466405 315.397751 
L 612.848891 317.747427 
L 613.231378 328.093443 
L 614.378838 330.608053 
L 614.761325 333.699509 
L 615.143812 333.864443 
L 615.526299 328.876668 
L 615.908786 336.049184 
L 617.438733 326.939328 
L 617.821219 327.928509 
L 618.203706 329.289003 
L 618.586193 323.682938 
L 619.733653 320.797438 
L 620.11614 315.521663 
L 620.881114 326.444948 
L 621.2636 319.025031 
L 622.411061 322.116487 
L 622.793548 324.796031 
L 623.176034 333.452108 
L 623.558521 337.780146 
L 623.941008 334.482734 
L 625.088468 332.133058 
L 625.470955 330.484141 
L 625.853442 335.925272 
L 626.235929 320.055658 
L 626.618415 315.026861 
L 627.765876 317.500026 
L 628.148362 313.831301 
L 628.530849 317.66496 
L 628.913336 318.365718 
L 629.295823 318.448185 
L 630.443283 321.168751 
L 631.208257 314.77946 
L 631.97323 316.716801 
L 633.120691 320.756416 
L 633.503177 322.85869 
L 633.885664 311.358136 
L 634.268151 310.822312 
L 634.650638 311.976427 
L 635.798098 316.840713 
L 636.180585 322.652734 
L 636.563072 323.682938 
L 636.945558 320.673949 
L 637.328045 322.363888 
L 638.475505 319.23141 
L 638.857992 316.428378 
L 639.240479 318.613119 
L 639.622966 327.516597 
L 640.005453 329.907294 
L 641.152913 333.163684 
L 641.5354 333.493552 
L 641.917886 330.237163 
L 642.300373 335.797554 
L 642.68286 335.590329 
L 644.212807 338.697856 
L 644.595294 341.515267 
L 644.977781 336.79181 
L 645.360267 336.79181 
L 646.890215 338.407741 
L 647.272701 337.330595 
L 647.655188 340.686791 
L 648.037675 335.383104 
L 649.185135 333.850064 
L 649.567622 331.861128 
L 649.950109 328.049461 
L 650.715082 325.190181 
L 652.245029 324.734709 
L 653.010003 330.369533 
L 653.39249 323.9887 
L 654.53995 318.436767 
L 655.304924 319.638248 
L 655.68741 314.500341 
L 656.069897 311.807264 
L 657.217358 317.607867 
L 657.599844 313.54753 
L 657.982331 307.415367 
L 658.364818 296.973774 
L 658.747305 302.733355 
L 659.894765 305.426432 
L 660.277252 299.045599 
L 660.659739 304.929092 
L 661.424712 309.776884 
L 662.572172 305.094872 
L 663.337146 300.49575 
L 663.719633 306.669358 
L 664.10212 308.865518 
L 665.632067 315.867602 
L 666.014553 315.784712 
L 666.39704 313.46464 
L 666.779527 318.270987 
L 667.926987 316.323497 
L 668.309474 316.779391 
L 668.691961 319.016573 
L 669.074448 316.862281 
L 669.456934 311.26848 
L 670.604395 310.85403 
L 670.986882 314.500341 
L 671.369368 313.21597 
L 672.134342 321.95832 
L 673.281802 320.094142 
L 673.664289 314.085891 
L 674.046776 312.718631 
L 674.429263 305.136317 
L 674.811749 306.669358 
L 675.95921 305.592212 
L 676.341696 301.241759 
L 676.724183 305.617586 
L 677.10667 301.95013 
L 677.489157 300.86664 
L 678.636617 303.075487 
L 679.019104 304.82548 
L 679.401591 299.15767 
L 679.784077 296.199007 
L 680.166564 290.697822 
L 681.314025 291.531374 
L 681.696511 292.698176 
L 682.078998 296.407078 
L 682.461485 294.156785 
L 683.991432 294.406724 
L 684.373919 296.615571 
L 684.756406 299.574657 
L 685.138892 293.323234 
L 685.521379 293.99016 
L 687.051326 293.781666 
L 687.433813 294.031605 
L 687.8163 296.698884 
L 688.198787 296.49039 
L 689.346247 297.157316 
L 689.728734 303.450184 
L 690.11122 301.700191 
L 690.493707 293.073295 
L 690.876194 290.739267 
L 692.023654 291.072942 
L 692.788628 296.448945 
L 693.171115 297.699061 
L 693.553601 290.905893 
L 694.701062 289.947584 
L 695.083549 292.239744 
L 695.466035 288.488975 
L 695.848522 287.488798 
L 696.231009 288.738914 
L 697.760956 286.446753 
L 698.143443 282.070927 
L 698.52593 275.277759 
L 698.908416 276.194623 
L 700.055877 274.819327 
L 700.438363 279.98726 
L 700.82085 282.070927 
L 701.585824 262.6916 
L 703.115771 260.649802 
L 703.498258 263.650332 
L 703.880744 258.399086 
L 704.263231 255.023437 
L 705.410692 254.690185 
L 705.793178 254.856811 
L 706.175665 262.6916 
L 706.558152 257.690716 
L 706.940639 255.856988 
L 708.088099 248.063643 
L 708.853073 240.978669 
L 709.235559 235.102366 
L 709.618046 238.43657 
L 711.147993 239.270122 
L 711.53048 246.051448 
L 711.912967 240.658105 
L 712.295454 245.633192 
L 713.442914 252.07154 
L 713.825401 244.33698 
L 714.207887 243.333843 
L 714.590374 244.462583 
L 714.972861 237.062543 
L 716.120321 235.891934 
L 716.885295 236.017538 
L 717.267782 240.072801 
L 717.650268 241.786846 
L 718.797729 241.661665 
L 719.180216 239.27858 
L 719.562702 233.00728 
L 719.945189 224.269583 
L 720.327676 224.437054 
L 721.475136 219.336363 
L 721.857623 214.8214 
L 722.24011 214.8214 
L 722.622597 228.408581 
L 723.005083 229.997446 
L 724.152544 229.286538 
L 724.53503 225.690976 
L 725.300004 229.119489 
L 725.682491 219.420099 
L 726.829951 219.043711 
L 727.212438 220.506972 
L 727.594925 232.798364 
L 727.977411 234.052708 
L 728.359898 236.477239 
L 729.507359 232.21306 
L 730.272332 242.455886 
L 730.654819 241.70311 
L 731.037306 245.047888 
L 732.184766 239.6131 
L 733.332226 255.583366 
L 733.714713 256.293852 
L 734.862173 248.936102 
L 735.24466 249.646587 
L 735.627147 242.163234 
L 736.009634 253.116545 
L 736.392121 249.437671 
L 737.539581 245.883977 
L 737.922068 235.515969 
L 738.304554 232.631315 
L 738.687041 231.042451 
L 739.069528 231.669623 
L 740.599475 231.209499 
L 741.364449 239.654545 
L 741.746935 239.152976 
L 742.894396 233.383668 
L 743.276883 238.985928 
L 743.659369 237.31375 
L 744.041856 233.299933 
L 744.424343 242.288415 
L 745.571803 241.91245 
L 745.95429 242.915587 
L 746.719264 259.114224 
L 747.10175 258.98862 
L 748.249211 257.016601 
L 748.631697 263.771284 
L 749.014184 262.890367 
L 749.396671 259.366277 
L 749.779158 259.030488 
L 750.926618 255.464529 
L 751.309105 263.561522 
L 751.691592 257.687756 
L 752.074078 259.282118 
L 752.456565 251.772122 
L 753.604026 249.464737 
L 753.986512 246.863431 
L 754.368999 243.423499 
L 754.751486 245.353227 
L 755.133973 251.520491 
L 756.281433 246.234144 
L 756.66392 247.786639 
L 757.046407 254.58319 
L 757.428893 258.694699 
L 757.81138 265.449382 
L 758.95884 264.190809 
L 759.341327 260.121167 
L 760.106301 279.000616 
L 760.488788 277.154624 
L 761.636248 272.917511 
L 762.018735 270.945492 
L 763.166195 250.807469 
L 764.313655 249.003344 
L 764.696142 244.514178 
L 765.078629 244.22068 
L 765.461116 248.122427 
L 765.843602 237.423706 
L 766.991063 238.976201 
L 767.37355 228.319771 
L 767.756036 227.816087 
L 768.138523 227.522589 
L 768.52101 227.396563 
L 769.66847 220.935801 
L 770.050957 224.333865 
L 770.433444 222.194374 
L 771.198417 223.117159 
L 772.345878 223.66271 
L 772.728364 222.194374 
L 773.110851 222.865529 
L 773.493338 224.418023 
L 773.875825 222.865529 
L 775.023285 228.151876 
L 775.405772 226.851435 
L 775.788259 230.082027 
L 776.170745 222.613899 
L 776.553232 220.39025 
L 777.700693 215.607586 
L 778.083179 210.950525 
L 778.465666 203.98608 
L 778.848153 204.321869 
L 779.23064 201.888457 
L 780.3781 197.567185 
L 780.760587 194.420329 
L 781.143074 203.931102 
L 781.52556 197.146815 
L 781.908047 196.30396 
L 783.820481 191.289542 
L 784.202968 191.837208 
L 784.585455 194.82928 
L 784.585455 194.82928 
" clip-path="url(#pc729da4a25)" style="fill: none; stroke: #1f77b4; stroke-width: 1.5; stroke-linecap: square"/>
   </g>
   <g id="patch_7">
    <path d="M 52.85 390.04 
L 52.85 26.88 
" style="fill: none; stroke: #000000; stroke-width: 0.8; stroke-linejoin: miter; stroke-linecap: square"/>
   </g>
   <g id="patch_8">
    <path d="M 819.43 390.04 
L 819.43 26.88 
" style="fill: none; stroke: #000000; stroke-width: 0.8; stroke-linejoin: miter; stroke-linecap: square"/>
   </g>
   <g id="patch_9">
    <path d="M 52.85 390.04 
L 819.43 390.04 
" style="fill: none; stroke: #000000; stroke-width: 0.8; stroke-linejoin: miter; stroke-linecap: square"/>
   </g>
   <g id="patch_10">
    <path d="M 52.85 26.88 
L 819.43 26.88 
" style="fill: none; stroke: #000000; stroke-width: 0.8; stroke-linejoin: miter; stroke-linecap: square"/>
   </g>
   <g id="text_23">
    <!-- Stock Trading Performance for TQQQ -->
    <g transform="translate(325.793437 20.88) scale(0.12 -0.12)">
     <defs>
      <path id="DejaVuSans-53" d="M 3425 4513 
L 3425 3897 
Q 3066 4069 2747 4153 
Q 2428 4238 2131 4238 
Q 1616 4238 1336 4038 
Q 1056 3838 1056 3469 
Q 1056 3159 1242 3001 
Q 1428 2844 1947 2747 
L 2328 2669 
Q 3034 2534 3370 2195 
Q 3706 1856 3706 1288 
Q 3706 609 3251 259 
Q 2797 -91 1919 -91 
Q 1588 -91 1214 -16 
Q 841 59 441 206 
L 441 856 
Q 825 641 1194 531 
Q 1563 422 1919 422 
Q 2459 422 2753 634 
Q 3047 847 3047 1241 
Q 3047 1584 2836 1778 
Q 2625 1972 2144 2069 
L 1759 2144 
Q 1053 2284 737 2584 
Q 422 2884 422 3419 
Q 422 4038 858 4394 
Q 1294 4750 2059 4750 
Q 2388 4750 2728 4690 
Q 3069 4631 3425 4513 
z
" transform="scale(0.015625)"/>
      <path id="DejaVuSans-6b" d="M 581 4863 
L 1159 4863 
L 1159 1991 
L 2875 3500 
L 3609 3500 
L 1753 1863 
L 3688 0 
L 2938 0 
L 1159 1709 
L 1159 0 
L 581 0 
L 581 4863 
z
" transform="scale(0.015625)"/>
      <path id="DejaVuSans-54" d="M -19 4666 
L 3928 4666 
L 3928 4134 
L 2272 4134 
L 2272 0 
L 1638 0 
L 1638 4134 
L -19 4134 
L -19 4666 
z
" transform="scale(0.015625)"/>
      <path id="DejaVuSans-64" d="M 2906 2969 
L 2906 4863 
L 3481 4863 
L 3481 0 
L 2906 0 
L 2906 525 
Q 2725 213 2448 61 
Q 2172 -91 1784 -91 
Q 1150 -91 751 415 
Q 353 922 353 1747 
Q 353 2572 751 3078 
Q 1150 3584 1784 3584 
Q 2172 3584 2448 3432 
Q 2725 3281 2906 2969 
z
M 947 1747 
Q 947 1113 1208 752 
Q 1469 391 1925 391 
Q 2381 391 2643 752 
Q 2906 1113 2906 1747 
Q 2906 2381 2643 2742 
Q 2381 3103 1925 3103 
Q 1469 3103 1208 2742 
Q 947 2381 947 1747 
z
" transform="scale(0.015625)"/>
      <path id="DejaVuSans-67" d="M 2906 1791 
Q 2906 2416 2648 2759 
Q 2391 3103 1925 3103 
Q 1463 3103 1205 2759 
Q 947 2416 947 1791 
Q 947 1169 1205 825 
Q 1463 481 1925 481 
Q 2391 481 2648 825 
Q 2906 1169 2906 1791 
z
M 3481 434 
Q 3481 -459 3084 -895 
Q 2688 -1331 1869 -1331 
Q 1566 -1331 1297 -1286 
Q 1028 -1241 775 -1147 
L 775 -588 
Q 1028 -725 1275 -790 
Q 1522 -856 1778 -856 
Q 2344 -856 2625 -561 
Q 2906 -266 2906 331 
L 2906 616 
Q 2728 306 2450 153 
Q 2172 0 1784 0 
Q 1141 0 747 490 
Q 353 981 353 1791 
Q 353 2603 747 3093 
Q 1141 3584 1784 3584 
Q 2172 3584 2450 3431 
Q 2728 3278 2906 2969 
L 2906 3500 
L 3481 3500 
L 3481 434 
z
" transform="scale(0.015625)"/>
      <path id="DejaVuSans-66" d="M 2375 4863 
L 2375 4384 
L 1825 4384 
Q 1516 4384 1395 4259 
Q 1275 4134 1275 3809 
L 1275 3500 
L 2222 3500 
L 2222 3053 
L 1275 3053 
L 1275 0 
L 697 0 
L 697 3053 
L 147 3053 
L 147 3500 
L 697 3500 
L 697 3744 
Q 697 4328 969 4595 
Q 1241 4863 1831 4863 
L 2375 4863 
z
" transform="scale(0.015625)"/>
      <path id="DejaVuSans-6d" d="M 3328 2828 
Q 3544 3216 3844 3400 
Q 4144 3584 4550 3584 
Q 5097 3584 5394 3201 
Q 5691 2819 5691 2113 
L 5691 0 
L 5113 0 
L 5113 2094 
Q 5113 2597 4934 2840 
Q 4756 3084 4391 3084 
Q 3944 3084 3684 2787 
Q 3425 2491 3425 1978 
L 3425 0 
L 2847 0 
L 2847 2094 
Q 2847 2600 2669 2842 
Q 2491 3084 2119 3084 
Q 1678 3084 1418 2786 
Q 1159 2488 1159 1978 
L 1159 0 
L 581 0 
L 581 3500 
L 1159 3500 
L 1159 2956 
Q 1356 3278 1631 3431 
Q 1906 3584 2284 3584 
Q 2666 3584 2933 3390 
Q 3200 3197 3328 2828 
z
" transform="scale(0.015625)"/>
      <path id="DejaVuSans-51" d="M 2522 4238 
Q 1834 4238 1429 3725 
Q 1025 3213 1025 2328 
Q 1025 1447 1429 934 
Q 1834 422 2522 422 
Q 3209 422 3611 934 
Q 4013 1447 4013 2328 
Q 4013 3213 3611 3725 
Q 3209 4238 2522 4238 
z
M 3406 84 
L 4238 -825 
L 3475 -825 
L 2784 -78 
Q 2681 -84 2626 -87 
Q 2572 -91 2522 -91 
Q 1538 -91 948 567 
Q 359 1225 359 2328 
Q 359 3434 948 4092 
Q 1538 4750 2522 4750 
Q 3503 4750 4090 4092 
Q 4678 3434 4678 2328 
Q 4678 1516 4351 937 
Q 4025 359 3406 84 
z
" transform="scale(0.015625)"/>
     </defs>
     <use xlink:href="#DejaVuSans-53"/>
     <use xlink:href="#DejaVuSans-74" x="63.476562"/>
     <use xlink:href="#DejaVuSans-6f" x="102.685547"/>
     <use xlink:href="#DejaVuSans-63" x="163.867188"/>
     <use xlink:href="#DejaVuSans-6b" x="218.847656"/>
     <use xlink:href="#DejaVuSans-20" x="276.757812"/>
     <use xlink:href="#DejaVuSans-54" x="308.544922"/>
     <use xlink:href="#DejaVuSans-72" x="354.878906"/>
     <use xlink:href="#DejaVuSans-61" x="395.992188"/>
     <use xlink:href="#DejaVuSans-64" x="457.271484"/>
     <use xlink:href="#DejaVuSans-69" x="520.748047"/>
     <use xlink:href="#DejaVuSans-6e" x="548.53125"/>
     <use xlink:href="#DejaVuSans-67" x="611.910156"/>
     <use xlink:href="#DejaVuSans-20" x="675.386719"/>
     <use xlink:href="#DejaVuSans-50" x="707.173828"/>
     <use xlink:href="#DejaVuSans-65" x="763.851562"/>
     <use xlink:href="#DejaVuSans-72" x="825.375"/>
     <use xlink:href="#DejaVuSans-66" x="866.488281"/>
     <use xlink:href="#DejaVuSans-6f" x="901.693359"/>
     <use xlink:href="#DejaVuSans-72" x="962.875"/>
     <use xlink:href="#DejaVuSans-6d" x="1002.238281"/>
     <use xlink:href="#DejaVuSans-61" x="1099.650391"/>
     <use xlink:href="#DejaVuSans-6e" x="1160.929688"/>
     <use xlink:href="#DejaVuSans-63" x="1224.308594"/>
     <use xlink:href="#DejaVuSans-65" x="1279.289062"/>
     <use xlink:href="#DejaVuSans-20" x="1340.8125"/>
     <use xlink:href="#DejaVuSans-66" x="1372.599609"/>
     <use xlink:href="#DejaVuSans-6f" x="1407.804688"/>
     <use xlink:href="#DejaVuSans-72" x="1468.986328"/>
     <use xlink:href="#DejaVuSans-20" x="1510.099609"/>
     <use xlink:href="#DejaVuSans-54" x="1541.886719"/>
     <use xlink:href="#DejaVuSans-51" x="1602.970703"/>
     <use xlink:href="#DejaVuSans-51" x="1681.681641"/>
     <use xlink:href="#DejaVuSans-51" x="1760.392578"/>
    </g>
   </g>
  </g>
 </g>
 <defs>
  <clipPath id="pc729da4a25">
   <rect x="52.85" y="26.88" width="766.58" height="363.16"/>
  </clipPath>
 </defs>
</svg>
