<?xml version="1.0" encoding="utf-8" standalone="no"?>
<!DOCTYPE svg PUBLIC "-//W3C//DTD SVG 1.1//EN"
  "http://www.w3.org/Graphics/SVG/1.1/DTD/svg11.dtd">
<svg xmlns:xlink="http://www.w3.org/1999/xlink" width="864pt" height="432pt" viewBox="0 0 864 432" xmlns="http://www.w3.org/2000/svg" version="1.1">
 <metadata>
  <rdf:RDF xmlns:dc="http://purl.org/dc/elements/1.1/" xmlns:cc="http://creativecommons.org/ns#" xmlns:rdf="http://www.w3.org/1999/02/22-rdf-syntax-ns#">
   <cc:Work>
    <dc:type rdf:resource="http://purl.org/dc/dcmitype/StillImage"/>
    <dc:date>2024-04-18T22:06:58.406446</dc:date>
    <dc:format>image/svg+xml</dc:format>
    <dc:creator>
     <cc:Agent>
      <dc:title>Matplotlib v3.8.2, https://matplotlib.org/</dc:title>
     </cc:Agent>
    </dc:creator>
   </cc:Work>
  </rdf:RDF>
 </metadata>
 <defs>
  <style type="text/css">*{stroke-linejoin: round; stroke-linecap: butt}</style>
 </defs>
 <g id="figure_1">
  <g id="patch_1">
   <path d="M 0 432 
L 864 432 
L 864 0 
L 0 0 
z
" style="fill: #ffffff"/>
  </g>
  <g id="axes_1">
   <g id="patch_2">
    <path d="M 50.87 390.04 
L 813.13 390.04 
L 813.13 26.88 
L 50.87 26.88 
z
" style="fill: #ffffff"/>
   </g>
   <g id="matplotlib.axis_1">
    <g id="xtick_1">
     <g id="line2d_1">
      <path d="M 85.137851 390.04 
L 85.137851 26.88 
" clip-path="url(#pdd84f6e2d4)" style="fill: none; stroke-dasharray: 1.85,0.8; stroke-dashoffset: 0; stroke: #b0b0b0; stroke-opacity: 0.5; stroke-width: 0.5"/>
     </g>
     <g id="line2d_2">
      <defs>
       <path id="m6374a12fe3" d="M 0 0 
L 0 3.5 
" style="stroke: #000000; stroke-width: 0.8"/>
      </defs>
      <g>
       <use xlink:href="#m6374a12fe3" x="85.137851" y="390.04" style="stroke: #000000; stroke-width: 0.8"/>
      </g>
     </g>
     <g id="text_1">
      <!-- 2019 -->
      <g transform="translate(72.412851 404.638438) scale(0.1 -0.1)">
       <defs>
        <path id="DejaVuSans-32" d="M 1228 531 
L 3431 531 
L 3431 0 
L 469 0 
L 469 531 
Q 828 903 1448 1529 
Q 2069 2156 2228 2338 
Q 2531 2678 2651 2914 
Q 2772 3150 2772 3378 
Q 2772 3750 2511 3984 
Q 2250 4219 1831 4219 
Q 1534 4219 1204 4116 
Q 875 4013 500 3803 
L 500 4441 
Q 881 4594 1212 4672 
Q 1544 4750 1819 4750 
Q 2544 4750 2975 4387 
Q 3406 4025 3406 3419 
Q 3406 3131 3298 2873 
Q 3191 2616 2906 2266 
Q 2828 2175 2409 1742 
Q 1991 1309 1228 531 
z
" transform="scale(0.015625)"/>
        <path id="DejaVuSans-30" d="M 2034 4250 
Q 1547 4250 1301 3770 
Q 1056 3291 1056 2328 
Q 1056 1369 1301 889 
Q 1547 409 2034 409 
Q 2525 409 2770 889 
Q 3016 1369 3016 2328 
Q 3016 3291 2770 3770 
Q 2525 4250 2034 4250 
z
M 2034 4750 
Q 2819 4750 3233 4129 
Q 3647 3509 3647 2328 
Q 3647 1150 3233 529 
Q 2819 -91 2034 -91 
Q 1250 -91 836 529 
Q 422 1150 422 2328 
Q 422 3509 836 4129 
Q 1250 4750 2034 4750 
z
" transform="scale(0.015625)"/>
        <path id="DejaVuSans-31" d="M 794 531 
L 1825 531 
L 1825 4091 
L 703 3866 
L 703 4441 
L 1819 4666 
L 2450 4666 
L 2450 531 
L 3481 531 
L 3481 0 
L 794 0 
L 794 531 
z
" transform="scale(0.015625)"/>
        <path id="DejaVuSans-39" d="M 703 97 
L 703 672 
Q 941 559 1184 500 
Q 1428 441 1663 441 
Q 2288 441 2617 861 
Q 2947 1281 2994 2138 
Q 2813 1869 2534 1725 
Q 2256 1581 1919 1581 
Q 1219 1581 811 2004 
Q 403 2428 403 3163 
Q 403 3881 828 4315 
Q 1253 4750 1959 4750 
Q 2769 4750 3195 4129 
Q 3622 3509 3622 2328 
Q 3622 1225 3098 567 
Q 2575 -91 1691 -91 
Q 1453 -91 1209 -44 
Q 966 3 703 97 
z
M 1959 2075 
Q 2384 2075 2632 2365 
Q 2881 2656 2881 3163 
Q 2881 3666 2632 3958 
Q 2384 4250 1959 4250 
Q 1534 4250 1286 3958 
Q 1038 3666 1038 3163 
Q 1038 2656 1286 2365 
Q 1534 2075 1959 2075 
z
" transform="scale(0.015625)"/>
       </defs>
       <use xlink:href="#DejaVuSans-32"/>
       <use xlink:href="#DejaVuSans-30" x="63.623047"/>
       <use xlink:href="#DejaVuSans-31" x="127.246094"/>
       <use xlink:href="#DejaVuSans-39" x="190.869141"/>
      </g>
     </g>
    </g>
    <g id="xtick_2">
     <g id="line2d_3">
      <path d="M 223.958777 390.04 
L 223.958777 26.88 
" clip-path="url(#pdd84f6e2d4)" style="fill: none; stroke-dasharray: 1.85,0.8; stroke-dashoffset: 0; stroke: #b0b0b0; stroke-opacity: 0.5; stroke-width: 0.5"/>
     </g>
     <g id="line2d_4">
      <g>
       <use xlink:href="#m6374a12fe3" x="223.958777" y="390.04" style="stroke: #000000; stroke-width: 0.8"/>
      </g>
     </g>
     <g id="text_2">
      <!-- 2020 -->
      <g transform="translate(211.233777 404.638438) scale(0.1 -0.1)">
       <use xlink:href="#DejaVuSans-32"/>
       <use xlink:href="#DejaVuSans-30" x="63.623047"/>
       <use xlink:href="#DejaVuSans-32" x="127.246094"/>
       <use xlink:href="#DejaVuSans-30" x="190.869141"/>
      </g>
     </g>
    </g>
    <g id="xtick_3">
     <g id="line2d_5">
      <path d="M 363.160034 390.04 
L 363.160034 26.88 
" clip-path="url(#pdd84f6e2d4)" style="fill: none; stroke-dasharray: 1.85,0.8; stroke-dashoffset: 0; stroke: #b0b0b0; stroke-opacity: 0.5; stroke-width: 0.5"/>
     </g>
     <g id="line2d_6">
      <g>
       <use xlink:href="#m6374a12fe3" x="363.160034" y="390.04" style="stroke: #000000; stroke-width: 0.8"/>
      </g>
     </g>
     <g id="text_3">
      <!-- 2021 -->
      <g transform="translate(350.435034 404.638438) scale(0.1 -0.1)">
       <use xlink:href="#DejaVuSans-32"/>
       <use xlink:href="#DejaVuSans-30" x="63.623047"/>
       <use xlink:href="#DejaVuSans-32" x="127.246094"/>
       <use xlink:href="#DejaVuSans-31" x="190.869141"/>
      </g>
     </g>
    </g>
    <g id="xtick_4">
     <g id="line2d_7">
      <path d="M 501.98096 390.04 
L 501.98096 26.88 
" clip-path="url(#pdd84f6e2d4)" style="fill: none; stroke-dasharray: 1.85,0.8; stroke-dashoffset: 0; stroke: #b0b0b0; stroke-opacity: 0.5; stroke-width: 0.5"/>
     </g>
     <g id="line2d_8">
      <g>
       <use xlink:href="#m6374a12fe3" x="501.98096" y="390.04" style="stroke: #000000; stroke-width: 0.8"/>
      </g>
     </g>
     <g id="text_4">
      <!-- 2022 -->
      <g transform="translate(489.25596 404.638438) scale(0.1 -0.1)">
       <use xlink:href="#DejaVuSans-32"/>
       <use xlink:href="#DejaVuSans-30" x="63.623047"/>
       <use xlink:href="#DejaVuSans-32" x="127.246094"/>
       <use xlink:href="#DejaVuSans-32" x="190.869141"/>
      </g>
     </g>
    </g>
    <g id="xtick_5">
     <g id="line2d_9">
      <path d="M 640.801886 390.04 
L 640.801886 26.88 
" clip-path="url(#pdd84f6e2d4)" style="fill: none; stroke-dasharray: 1.85,0.8; stroke-dashoffset: 0; stroke: #b0b0b0; stroke-opacity: 0.5; stroke-width: 0.5"/>
     </g>
     <g id="line2d_10">
      <g>
       <use xlink:href="#m6374a12fe3" x="640.801886" y="390.04" style="stroke: #000000; stroke-width: 0.8"/>
      </g>
     </g>
     <g id="text_5">
      <!-- 2023 -->
      <g transform="translate(628.076886 404.638438) scale(0.1 -0.1)">
       <defs>
        <path id="DejaVuSans-33" d="M 2597 2516 
Q 3050 2419 3304 2112 
Q 3559 1806 3559 1356 
Q 3559 666 3084 287 
Q 2609 -91 1734 -91 
Q 1441 -91 1130 -33 
Q 819 25 488 141 
L 488 750 
Q 750 597 1062 519 
Q 1375 441 1716 441 
Q 2309 441 2620 675 
Q 2931 909 2931 1356 
Q 2931 1769 2642 2001 
Q 2353 2234 1838 2234 
L 1294 2234 
L 1294 2753 
L 1863 2753 
Q 2328 2753 2575 2939 
Q 2822 3125 2822 3475 
Q 2822 3834 2567 4026 
Q 2313 4219 1838 4219 
Q 1578 4219 1281 4162 
Q 984 4106 628 3988 
L 628 4550 
Q 988 4650 1302 4700 
Q 1616 4750 1894 4750 
Q 2613 4750 3031 4423 
Q 3450 4097 3450 3541 
Q 3450 3153 3228 2886 
Q 3006 2619 2597 2516 
z
" transform="scale(0.015625)"/>
       </defs>
       <use xlink:href="#DejaVuSans-32"/>
       <use xlink:href="#DejaVuSans-30" x="63.623047"/>
       <use xlink:href="#DejaVuSans-32" x="127.246094"/>
       <use xlink:href="#DejaVuSans-33" x="190.869141"/>
      </g>
     </g>
    </g>
    <g id="xtick_6">
     <g id="line2d_11">
      <path d="M 779.622812 390.04 
L 779.622812 26.88 
" clip-path="url(#pdd84f6e2d4)" style="fill: none; stroke-dasharray: 1.85,0.8; stroke-dashoffset: 0; stroke: #b0b0b0; stroke-opacity: 0.5; stroke-width: 0.5"/>
     </g>
     <g id="line2d_12">
      <g>
       <use xlink:href="#m6374a12fe3" x="779.622812" y="390.04" style="stroke: #000000; stroke-width: 0.8"/>
      </g>
     </g>
     <g id="text_6">
      <!-- 2024 -->
      <g transform="translate(766.897812 404.638438) scale(0.1 -0.1)">
       <defs>
        <path id="DejaVuSans-34" d="M 2419 4116 
L 825 1625 
L 2419 1625 
L 2419 4116 
z
M 2253 4666 
L 3047 4666 
L 3047 1625 
L 3713 1625 
L 3713 1100 
L 3047 1100 
L 3047 0 
L 2419 0 
L 2419 1100 
L 313 1100 
L 313 1709 
L 2253 4666 
z
" transform="scale(0.015625)"/>
       </defs>
       <use xlink:href="#DejaVuSans-32"/>
       <use xlink:href="#DejaVuSans-30" x="63.623047"/>
       <use xlink:href="#DejaVuSans-32" x="127.246094"/>
       <use xlink:href="#DejaVuSans-34" x="190.869141"/>
      </g>
     </g>
    </g>
    <g id="text_7">
     <!-- Date -->
     <g transform="translate(420.049219 418.316562) scale(0.1 -0.1)">
      <defs>
       <path id="DejaVuSans-44" d="M 1259 4147 
L 1259 519 
L 2022 519 
Q 2988 519 3436 956 
Q 3884 1394 3884 2338 
Q 3884 3275 3436 3711 
Q 2988 4147 2022 4147 
L 1259 4147 
z
M 628 4666 
L 1925 4666 
Q 3281 4666 3915 4102 
Q 4550 3538 4550 2338 
Q 4550 1131 3912 565 
Q 3275 0 1925 0 
L 628 0 
L 628 4666 
z
" transform="scale(0.015625)"/>
       <path id="DejaVuSans-61" d="M 2194 1759 
Q 1497 1759 1228 1600 
Q 959 1441 959 1056 
Q 959 750 1161 570 
Q 1363 391 1709 391 
Q 2188 391 2477 730 
Q 2766 1069 2766 1631 
L 2766 1759 
L 2194 1759 
z
M 3341 1997 
L 3341 0 
L 2766 0 
L 2766 531 
Q 2569 213 2275 61 
Q 1981 -91 1556 -91 
Q 1019 -91 701 211 
Q 384 513 384 1019 
Q 384 1609 779 1909 
Q 1175 2209 1959 2209 
L 2766 2209 
L 2766 2266 
Q 2766 2663 2505 2880 
Q 2244 3097 1772 3097 
Q 1472 3097 1187 3025 
Q 903 2953 641 2809 
L 641 3341 
Q 956 3463 1253 3523 
Q 1550 3584 1831 3584 
Q 2591 3584 2966 3190 
Q 3341 2797 3341 1997 
z
" transform="scale(0.015625)"/>
       <path id="DejaVuSans-74" d="M 1172 4494 
L 1172 3500 
L 2356 3500 
L 2356 3053 
L 1172 3053 
L 1172 1153 
Q 1172 725 1289 603 
Q 1406 481 1766 481 
L 2356 481 
L 2356 0 
L 1766 0 
Q 1100 0 847 248 
Q 594 497 594 1153 
L 594 3053 
L 172 3053 
L 172 3500 
L 594 3500 
L 594 4494 
L 1172 4494 
z
" transform="scale(0.015625)"/>
       <path id="DejaVuSans-65" d="M 3597 1894 
L 3597 1613 
L 953 1613 
Q 991 1019 1311 708 
Q 1631 397 2203 397 
Q 2534 397 2845 478 
Q 3156 559 3463 722 
L 3463 178 
Q 3153 47 2828 -22 
Q 2503 -91 2169 -91 
Q 1331 -91 842 396 
Q 353 884 353 1716 
Q 353 2575 817 3079 
Q 1281 3584 2069 3584 
Q 2775 3584 3186 3129 
Q 3597 2675 3597 1894 
z
M 3022 2063 
Q 3016 2534 2758 2815 
Q 2500 3097 2075 3097 
Q 1594 3097 1305 2825 
Q 1016 2553 972 2059 
L 3022 2063 
z
" transform="scale(0.015625)"/>
      </defs>
      <use xlink:href="#DejaVuSans-44"/>
      <use xlink:href="#DejaVuSans-61" x="77.001953"/>
      <use xlink:href="#DejaVuSans-74" x="138.28125"/>
      <use xlink:href="#DejaVuSans-65" x="177.490234"/>
     </g>
    </g>
   </g>
   <g id="matplotlib.axis_2">
    <g id="ytick_1">
     <g id="line2d_13">
      <path d="M 50.87 373.532727 
L 813.13 373.532727 
" clip-path="url(#pdd84f6e2d4)" style="fill: none; stroke-dasharray: 1.85,0.8; stroke-dashoffset: 0; stroke: #b0b0b0; stroke-opacity: 0.5; stroke-width: 0.5"/>
     </g>
     <g id="line2d_14">
      <defs>
       <path id="mfcdb329c6d" d="M 0 0 
L -3.5 0 
" style="stroke: #000000; stroke-width: 0.8"/>
      </defs>
      <g>
       <use xlink:href="#mfcdb329c6d" x="50.87" y="373.532727" style="stroke: #000000; stroke-width: 0.8"/>
      </g>
     </g>
     <g id="text_8">
      <!-- 0 -->
      <g style="fill: #d62728" transform="translate(37.5075 377.331946) scale(0.1 -0.1)">
       <use xlink:href="#DejaVuSans-30"/>
      </g>
     </g>
    </g>
    <g id="ytick_2">
     <g id="line2d_15">
      <path d="M 50.87 306.494917 
L 813.13 306.494917 
" clip-path="url(#pdd84f6e2d4)" style="fill: none; stroke-dasharray: 1.85,0.8; stroke-dashoffset: 0; stroke: #b0b0b0; stroke-opacity: 0.5; stroke-width: 0.5"/>
     </g>
     <g id="line2d_16">
      <g>
       <use xlink:href="#mfcdb329c6d" x="50.87" y="306.494917" style="stroke: #000000; stroke-width: 0.8"/>
      </g>
     </g>
     <g id="text_9">
      <!-- 20 -->
      <g style="fill: #d62728" transform="translate(31.145 310.294136) scale(0.1 -0.1)">
       <use xlink:href="#DejaVuSans-32"/>
       <use xlink:href="#DejaVuSans-30" x="63.623047"/>
      </g>
     </g>
    </g>
    <g id="ytick_3">
     <g id="line2d_17">
      <path d="M 50.87 239.457107 
L 813.13 239.457107 
" clip-path="url(#pdd84f6e2d4)" style="fill: none; stroke-dasharray: 1.85,0.8; stroke-dashoffset: 0; stroke: #b0b0b0; stroke-opacity: 0.5; stroke-width: 0.5"/>
     </g>
     <g id="line2d_18">
      <g>
       <use xlink:href="#mfcdb329c6d" x="50.87" y="239.457107" style="stroke: #000000; stroke-width: 0.8"/>
      </g>
     </g>
     <g id="text_10">
      <!-- 40 -->
      <g style="fill: #d62728" transform="translate(31.145 243.256326) scale(0.1 -0.1)">
       <use xlink:href="#DejaVuSans-34"/>
       <use xlink:href="#DejaVuSans-30" x="63.623047"/>
      </g>
     </g>
    </g>
    <g id="ytick_4">
     <g id="line2d_19">
      <path d="M 50.87 172.419298 
L 813.13 172.419298 
" clip-path="url(#pdd84f6e2d4)" style="fill: none; stroke-dasharray: 1.85,0.8; stroke-dashoffset: 0; stroke: #b0b0b0; stroke-opacity: 0.5; stroke-width: 0.5"/>
     </g>
     <g id="line2d_20">
      <g>
       <use xlink:href="#mfcdb329c6d" x="50.87" y="172.419298" style="stroke: #000000; stroke-width: 0.8"/>
      </g>
     </g>
     <g id="text_11">
      <!-- 60 -->
      <g style="fill: #d62728" transform="translate(31.145 176.218516) scale(0.1 -0.1)">
       <defs>
        <path id="DejaVuSans-36" d="M 2113 2584 
Q 1688 2584 1439 2293 
Q 1191 2003 1191 1497 
Q 1191 994 1439 701 
Q 1688 409 2113 409 
Q 2538 409 2786 701 
Q 3034 994 3034 1497 
Q 3034 2003 2786 2293 
Q 2538 2584 2113 2584 
z
M 3366 4563 
L 3366 3988 
Q 3128 4100 2886 4159 
Q 2644 4219 2406 4219 
Q 1781 4219 1451 3797 
Q 1122 3375 1075 2522 
Q 1259 2794 1537 2939 
Q 1816 3084 2150 3084 
Q 2853 3084 3261 2657 
Q 3669 2231 3669 1497 
Q 3669 778 3244 343 
Q 2819 -91 2113 -91 
Q 1303 -91 875 529 
Q 447 1150 447 2328 
Q 447 3434 972 4092 
Q 1497 4750 2381 4750 
Q 2619 4750 2861 4703 
Q 3103 4656 3366 4563 
z
" transform="scale(0.015625)"/>
       </defs>
       <use xlink:href="#DejaVuSans-36"/>
       <use xlink:href="#DejaVuSans-30" x="63.623047"/>
      </g>
     </g>
    </g>
    <g id="ytick_5">
     <g id="line2d_21">
      <path d="M 50.87 105.381488 
L 813.13 105.381488 
" clip-path="url(#pdd84f6e2d4)" style="fill: none; stroke-dasharray: 1.85,0.8; stroke-dashoffset: 0; stroke: #b0b0b0; stroke-opacity: 0.5; stroke-width: 0.5"/>
     </g>
     <g id="line2d_22">
      <g>
       <use xlink:href="#mfcdb329c6d" x="50.87" y="105.381488" style="stroke: #000000; stroke-width: 0.8"/>
      </g>
     </g>
     <g id="text_12">
      <!-- 80 -->
      <g style="fill: #d62728" transform="translate(31.145 109.180706) scale(0.1 -0.1)">
       <defs>
        <path id="DejaVuSans-38" d="M 2034 2216 
Q 1584 2216 1326 1975 
Q 1069 1734 1069 1313 
Q 1069 891 1326 650 
Q 1584 409 2034 409 
Q 2484 409 2743 651 
Q 3003 894 3003 1313 
Q 3003 1734 2745 1975 
Q 2488 2216 2034 2216 
z
M 1403 2484 
Q 997 2584 770 2862 
Q 544 3141 544 3541 
Q 544 4100 942 4425 
Q 1341 4750 2034 4750 
Q 2731 4750 3128 4425 
Q 3525 4100 3525 3541 
Q 3525 3141 3298 2862 
Q 3072 2584 2669 2484 
Q 3125 2378 3379 2068 
Q 3634 1759 3634 1313 
Q 3634 634 3220 271 
Q 2806 -91 2034 -91 
Q 1263 -91 848 271 
Q 434 634 434 1313 
Q 434 1759 690 2068 
Q 947 2378 1403 2484 
z
M 1172 3481 
Q 1172 3119 1398 2916 
Q 1625 2713 2034 2713 
Q 2441 2713 2670 2916 
Q 2900 3119 2900 3481 
Q 2900 3844 2670 4047 
Q 2441 4250 2034 4250 
Q 1625 4250 1398 4047 
Q 1172 3844 1172 3481 
z
" transform="scale(0.015625)"/>
       </defs>
       <use xlink:href="#DejaVuSans-38"/>
       <use xlink:href="#DejaVuSans-30" x="63.623047"/>
      </g>
     </g>
    </g>
    <g id="ytick_6">
     <g id="line2d_23">
      <path d="M 50.87 38.343678 
L 813.13 38.343678 
" clip-path="url(#pdd84f6e2d4)" style="fill: none; stroke-dasharray: 1.85,0.8; stroke-dashoffset: 0; stroke: #b0b0b0; stroke-opacity: 0.5; stroke-width: 0.5"/>
     </g>
     <g id="line2d_24">
      <g>
       <use xlink:href="#mfcdb329c6d" x="50.87" y="38.343678" style="stroke: #000000; stroke-width: 0.8"/>
      </g>
     </g>
     <g id="text_13">
      <!-- 100 -->
      <g style="fill: #d62728" transform="translate(24.7825 42.142896) scale(0.1 -0.1)">
       <use xlink:href="#DejaVuSans-31"/>
       <use xlink:href="#DejaVuSans-30" x="63.623047"/>
       <use xlink:href="#DejaVuSans-30" x="127.246094"/>
      </g>
     </g>
    </g>
    <g id="text_14">
     <!-- Returns (%) -->
     <g style="fill: #d62728" transform="translate(18.702813 237.8975) rotate(-90) scale(0.1 -0.1)">
      <defs>
       <path id="DejaVuSans-52" d="M 2841 2188 
Q 3044 2119 3236 1894 
Q 3428 1669 3622 1275 
L 4263 0 
L 3584 0 
L 2988 1197 
Q 2756 1666 2539 1819 
Q 2322 1972 1947 1972 
L 1259 1972 
L 1259 0 
L 628 0 
L 628 4666 
L 2053 4666 
Q 2853 4666 3247 4331 
Q 3641 3997 3641 3322 
Q 3641 2881 3436 2590 
Q 3231 2300 2841 2188 
z
M 1259 4147 
L 1259 2491 
L 2053 2491 
Q 2509 2491 2742 2702 
Q 2975 2913 2975 3322 
Q 2975 3731 2742 3939 
Q 2509 4147 2053 4147 
L 1259 4147 
z
" transform="scale(0.015625)"/>
       <path id="DejaVuSans-75" d="M 544 1381 
L 544 3500 
L 1119 3500 
L 1119 1403 
Q 1119 906 1312 657 
Q 1506 409 1894 409 
Q 2359 409 2629 706 
Q 2900 1003 2900 1516 
L 2900 3500 
L 3475 3500 
L 3475 0 
L 2900 0 
L 2900 538 
Q 2691 219 2414 64 
Q 2138 -91 1772 -91 
Q 1169 -91 856 284 
Q 544 659 544 1381 
z
M 1991 3584 
L 1991 3584 
z
" transform="scale(0.015625)"/>
       <path id="DejaVuSans-72" d="M 2631 2963 
Q 2534 3019 2420 3045 
Q 2306 3072 2169 3072 
Q 1681 3072 1420 2755 
Q 1159 2438 1159 1844 
L 1159 0 
L 581 0 
L 581 3500 
L 1159 3500 
L 1159 2956 
Q 1341 3275 1631 3429 
Q 1922 3584 2338 3584 
Q 2397 3584 2469 3576 
Q 2541 3569 2628 3553 
L 2631 2963 
z
" transform="scale(0.015625)"/>
       <path id="DejaVuSans-6e" d="M 3513 2113 
L 3513 0 
L 2938 0 
L 2938 2094 
Q 2938 2591 2744 2837 
Q 2550 3084 2163 3084 
Q 1697 3084 1428 2787 
Q 1159 2491 1159 1978 
L 1159 0 
L 581 0 
L 581 3500 
L 1159 3500 
L 1159 2956 
Q 1366 3272 1645 3428 
Q 1925 3584 2291 3584 
Q 2894 3584 3203 3211 
Q 3513 2838 3513 2113 
z
" transform="scale(0.015625)"/>
       <path id="DejaVuSans-73" d="M 2834 3397 
L 2834 2853 
Q 2591 2978 2328 3040 
Q 2066 3103 1784 3103 
Q 1356 3103 1142 2972 
Q 928 2841 928 2578 
Q 928 2378 1081 2264 
Q 1234 2150 1697 2047 
L 1894 2003 
Q 2506 1872 2764 1633 
Q 3022 1394 3022 966 
Q 3022 478 2636 193 
Q 2250 -91 1575 -91 
Q 1294 -91 989 -36 
Q 684 19 347 128 
L 347 722 
Q 666 556 975 473 
Q 1284 391 1588 391 
Q 1994 391 2212 530 
Q 2431 669 2431 922 
Q 2431 1156 2273 1281 
Q 2116 1406 1581 1522 
L 1381 1569 
Q 847 1681 609 1914 
Q 372 2147 372 2553 
Q 372 3047 722 3315 
Q 1072 3584 1716 3584 
Q 2034 3584 2315 3537 
Q 2597 3491 2834 3397 
z
" transform="scale(0.015625)"/>
       <path id="DejaVuSans-20" transform="scale(0.015625)"/>
       <path id="DejaVuSans-28" d="M 1984 4856 
Q 1566 4138 1362 3434 
Q 1159 2731 1159 2009 
Q 1159 1288 1364 580 
Q 1569 -128 1984 -844 
L 1484 -844 
Q 1016 -109 783 600 
Q 550 1309 550 2009 
Q 550 2706 781 3412 
Q 1013 4119 1484 4856 
L 1984 4856 
z
" transform="scale(0.015625)"/>
       <path id="DejaVuSans-25" d="M 4653 2053 
Q 4381 2053 4226 1822 
Q 4072 1591 4072 1178 
Q 4072 772 4226 539 
Q 4381 306 4653 306 
Q 4919 306 5073 539 
Q 5228 772 5228 1178 
Q 5228 1588 5073 1820 
Q 4919 2053 4653 2053 
z
M 4653 2450 
Q 5147 2450 5437 2106 
Q 5728 1763 5728 1178 
Q 5728 594 5436 251 
Q 5144 -91 4653 -91 
Q 4153 -91 3862 251 
Q 3572 594 3572 1178 
Q 3572 1766 3864 2108 
Q 4156 2450 4653 2450 
z
M 1428 4353 
Q 1159 4353 1004 4120 
Q 850 3888 850 3481 
Q 850 3069 1003 2837 
Q 1156 2606 1428 2606 
Q 1700 2606 1854 2837 
Q 2009 3069 2009 3481 
Q 2009 3884 1853 4118 
Q 1697 4353 1428 4353 
z
M 4250 4750 
L 4750 4750 
L 1831 -91 
L 1331 -91 
L 4250 4750 
z
M 1428 4750 
Q 1922 4750 2215 4408 
Q 2509 4066 2509 3481 
Q 2509 2891 2217 2550 
Q 1925 2209 1428 2209 
Q 931 2209 642 2551 
Q 353 2894 353 3481 
Q 353 4063 643 4406 
Q 934 4750 1428 4750 
z
" transform="scale(0.015625)"/>
       <path id="DejaVuSans-29" d="M 513 4856 
L 1013 4856 
Q 1481 4119 1714 3412 
Q 1947 2706 1947 2009 
Q 1947 1309 1714 600 
Q 1481 -109 1013 -844 
L 513 -844 
Q 928 -128 1133 580 
Q 1338 1288 1338 2009 
Q 1338 2731 1133 3434 
Q 928 4138 513 4856 
z
" transform="scale(0.015625)"/>
      </defs>
      <use xlink:href="#DejaVuSans-52"/>
      <use xlink:href="#DejaVuSans-65" x="64.982422"/>
      <use xlink:href="#DejaVuSans-74" x="126.505859"/>
      <use xlink:href="#DejaVuSans-75" x="165.714844"/>
      <use xlink:href="#DejaVuSans-72" x="229.09375"/>
      <use xlink:href="#DejaVuSans-6e" x="268.457031"/>
      <use xlink:href="#DejaVuSans-73" x="331.835938"/>
      <use xlink:href="#DejaVuSans-20" x="383.935547"/>
      <use xlink:href="#DejaVuSans-28" x="415.722656"/>
      <use xlink:href="#DejaVuSans-25" x="454.736328"/>
      <use xlink:href="#DejaVuSans-29" x="549.755859"/>
     </g>
    </g>
   </g>
   <g id="line2d_25">
    <path d="M 85.518182 373.532727 
L 85.898513 373.532727 
L 86.278844 358.958444 
L 90.082157 358.958444 
L 90.462489 353.800049 
L 90.84282 353.800049 
L 91.223151 351.089905 
L 93.124808 351.089905 
L 93.505139 350.247327 
L 93.885471 346.564551 
L 94.265802 340.948802 
L 95.406796 345.536649 
L 95.787127 349.178482 
L 96.167458 338.8499 
L 96.54779 338.08921 
L 96.928121 335.578716 
L 98.069115 329.71515 
L 98.449446 326.588346 
L 98.829777 325.252289 
L 99.210109 330.437052 
L 99.59044 327.986896 
L 100.731434 327.782178 
L 101.111765 322.618964 
L 101.492097 322.022049 
L 101.872428 321.116978 
L 102.252759 318.153949 
L 103.774084 317.845794 
L 104.154416 317.289821 
L 104.534747 317.371709 
L 104.915078 312.148158 
L 106.436404 309.657058 
L 106.816735 309.657058 
L 107.197066 310.932777 
L 107.577397 308.383494 
L 108.718391 310.687115 
L 109.098723 312.023172 
L 109.479054 314.596158 
L 109.859385 318.009568 
L 110.239717 317.968625 
L 111.380711 309.389847 
L 112.141373 304.905436 
L 112.521704 304.103802 
L 112.902036 299.556899 
L 114.04303 297.994575 
L 114.423361 297.005462 
L 114.803692 298.261786 
L 115.184024 288.032331 
L 115.564355 298.720786 
L 116.705349 300.393012 
L 117.08568 298.020434 
L 117.466011 300.599886 
L 117.846343 298.886716 
L 118.226674 294.738475 
L 119.367668 288.939557 
L 119.747999 287.743571 
L 120.128331 284.1944 
L 120.508662 286.463542 
L 120.888993 284.463767 
L 122.029987 282.769991 
L 122.410318 284.730978 
L 122.79065 281.347737 
L 123.170981 281.554611 
L 123.551312 278.78768 
L 124.692306 278.78768 
L 125.452969 275.385045 
L 125.8333 274.60065 
L 127.354625 273.258129 
L 127.734957 268.243606 
L 128.115288 267.954845 
L 128.495619 268.512972 
L 128.875951 269.441747 
L 130.016944 269.152986 
L 130.397276 268.368592 
L 131.157938 272.081537 
L 131.53827 267.79107 
L 132.679264 270.762719 
L 133.059595 280.067709 
L 133.439926 280.852103 
L 133.820257 283.720316 
L 134.200589 282.524329 
L 135.341583 299.050491 
L 135.721914 292.180572 
L 136.482577 283.554386 
L 136.862908 287.784514 
L 138.003902 295.152221 
L 138.384233 289.497684 
L 138.764564 292.036192 
L 139.144896 299.608618 
L 139.525227 299.278913 
L 141.046552 300.556787 
L 141.426884 303.302168 
L 141.807215 300.908041 
L 142.187546 307.469804 
L 143.32854 314.775018 
L 143.708871 301.692435 
L 144.849865 284.586598 
L 145.990859 279.944878 
L 146.37119 280.459906 
L 146.751522 282.317456 
L 147.131853 281.078371 
L 151.315497 281.078371 
L 151.695829 288.568109 
L 152.07616 284.539714 
L 152.456491 282.575054 
L 152.836823 281.746608 
L 153.977817 275.490053 
L 154.358148 274.21471 
L 154.738479 271.096972 
L 155.499142 271.76521 
L 156.640136 275.005212 
L 157.020467 273.365185 
L 157.400798 270.023998 
L 157.78113 268.56526 
L 158.161461 265.042785 
L 159.302455 263.950839 
L 159.682786 267.715734 
L 160.063117 268.788708 
L 160.443449 265.67097 
L 160.82378 268.080419 
L 161.964774 263.301574 
L 162.345105 260.771969 
L 162.725437 256.581257 
L 163.105768 259.779099 
L 163.486099 256.661362 
L 164.627093 257.369651 
L 165.007424 260.103732 
L 165.387756 266.64276 
L 165.768087 268.87092 
L 166.148418 277.068948 
L 167.289412 294.803585 
L 167.669744 288.751505 
L 168.050075 285.876188 
L 168.430406 275.409948 
L 168.810737 280.349002 
L 169.951731 286.038504 
L 170.332063 275.875817 
L 170.712394 289.175214 
L 171.092725 290.005768 
L 171.473057 282.47387 
L 172.61405 276.17937 
L 172.994382 278.101869 
L 173.374713 273.120656 
L 173.755044 274.153578 
L 174.135376 288.022136 
L 175.27637 282.697318 
L 175.656701 283.749212 
L 176.037032 283.546844 
L 176.417364 276.057106 
L 176.797695 276.339578 
L 178.31902 281.664396 
L 179.079683 265.489682 
L 179.460014 266.115759 
L 180.601008 269.518077 
L 180.981339 271.704078 
L 181.36167 267.209813 
L 181.742002 265.143969 
L 182.122333 268.282787 
L 183.263327 268.708604 
L 183.643658 267.129709 
L 184.02399 266.885181 
L 184.404321 265.894419 
L 184.784652 270.591051 
L 185.925646 269.619262 
L 186.305977 274.579395 
L 186.686309 269.395813 
L 187.06664 268.982644 
L 187.446971 275.363572 
L 188.587965 270.626888 
L 188.968297 274.570963 
L 189.348628 282.699426 
L 189.728959 277.19332 
L 190.10929 269.89541 
L 191.250284 271.278261 
L 191.630616 271.278261 
L 192.010947 265.040216 
L 194.673266 265.040216 
L 195.053597 265.46712 
L 196.955254 265.46712 
L 197.335585 265.014894 
L 198.096248 252.800517 
L 199.237242 247.576449 
L 199.617573 251.317982 
L 199.997904 248.233457 
L 203.040555 248.233457 
L 203.420886 245.759602 
L 204.56188 245.177641 
L 205.322543 242.664154 
L 205.702874 243.227342 
L 206.083205 239.345516 
L 207.224199 238.239999 
L 207.60453 236.690189 
L 208.365193 241.717164 
L 208.745524 241.838145 
L 209.886518 234.981852 
L 210.26685 234.719031 
L 210.647181 231.784196 
L 211.407844 233.794986 
L 212.548837 240.551156 
L 212.929169 244.272368 
L 213.689831 241.416797 
L 214.070163 236.287614 
L 215.211157 238.721838 
L 215.591488 238.922082 
L 215.971819 235.826634 
L 216.35215 231.221008 
L 216.732482 228.123474 
L 217.873476 223.805699 
L 218.253807 224.733917 
L 218.634138 224.573304 
L 219.394801 218.664002 
L 220.535795 217.009898 
L 220.916126 216.970266 
L 221.676789 213.180219 
L 222.05712 213.361691 
L 223.198114 216.30487 
L 223.578445 214.953219 
L 224.339108 205.900493 
L 224.719439 211.181945 
L 225.860433 209.529927 
L 226.621096 209.590417 
L 227.001427 203.982274 
L 227.381758 205.080372 
L 228.522752 198.334912 
L 228.903084 201.049196 
L 229.283415 200.630185 
L 235.368716 200.630185 
L 236.50971 194.254181 
L 236.890041 180.803377 
L 237.270372 178.303835 
L 237.650704 174.046963 
L 238.031035 179.04398 
L 239.172029 172.448827 
L 239.55236 173.426729 
L 239.932691 167.730915 
L 240.313023 168.830797 
L 240.693354 166.651709 
L 242.214679 168.630255 
L 242.59501 162.595379 
L 242.975342 167.650285 
L 243.355673 179.64354 
L 244.496667 201.2897 
L 244.876998 217.417847 
L 245.25733 216.278684 
L 245.637661 241.762024 
L 246.017992 237.664346 
L 247.158986 212.941826 
L 247.539317 231.029911 
L 247.919649 211.542165 
L 248.29998 227.091427 
L 248.680311 237.30461 
L 249.821305 273.642042 
L 250.201637 246.130537 
L 250.581968 268.382459 
L 250.962299 311.701657 
L 251.34263 267.981375 
L 252.483624 327.412179 
L 252.863956 304.434994 
L 253.244287 318.020317 
L 253.624618 317.397915 
L 254.00495 333.150272 
L 255.526275 333.150272 
L 255.906606 332.966962 
L 300.7857 332.966962 
L 301.166031 330.138148 
L 303.448019 330.138148 
L 303.82835 323.659953 
L 304.208682 321.72711 
L 304.589013 312.621242 
L 305.730007 303.352696 
L 306.110338 302.025073 
L 306.49067 300.241122 
L 306.871001 295.318025 
L 309.913651 295.318025 
L 311.434977 290.535591 
L 311.815308 291.189587 
L 312.57597 281.407655 
L 313.716964 277.933213 
L 314.097296 275.875996 
L 314.477627 266.924513 
L 314.857958 267.197595 
L 315.23829 262.931916 
L 316.379284 261.570708 
L 316.759615 250.928917 
L 317.139946 247.658937 
L 317.520277 274.92231 
L 317.900609 281.816577 
L 319.421934 300.414153 
L 319.802265 287.524689 
L 320.182597 296.408952 
L 320.562928 299.716744 
L 321.703922 291.018736 
L 322.084253 286.457569 
L 322.464584 292.780464 
L 322.844916 296.508382 
L 323.225247 302.558196 
L 324.366241 298.816274 
L 324.746572 292.015835 
L 325.126904 304.469769 
L 325.507235 303.227596 
L 325.887566 293.011534 
L 327.02856 285.309224 
L 327.408891 286.470172 
L 327.789223 283.329031 
L 328.169554 278.031242 
L 328.549885 287.944815 
L 329.690879 278.385549 
L 330.07121 284.312126 
L 330.451542 276.282118 
L 340.340156 276.282118 
L 340.720487 268.447852 
L 341.48115 236.475254 
L 341.861481 234.274651 
L 343.002475 239.226751 
L 343.382806 248.927521 
L 343.763137 237.691377 
L 346.425457 237.691377 
L 346.805788 232.53213 
L 347.186119 236.353132 
L 348.327113 236.049121 
L 348.707444 230.438328 
L 349.087776 228.201462 
L 349.848438 224.639763 
L 350.989432 221.385056 
L 351.369763 217.344987 
L 351.750095 217.941087 
L 352.130426 217.635586 
L 352.510757 212.12762 
L 353.651751 210.892202 
L 354.032083 208.640434 
L 354.412414 218.900808 
L 354.792745 216.733984 
L 355.173077 217.607271 
L 356.31407 215.500057 
L 356.694402 207.303679 
L 357.455064 199.053652 
L 357.835396 200.423192 
L 358.97639 199.068555 
L 359.356721 193.563569 
L 359.737052 198.253388 
L 360.117383 194.860087 
L 361.638709 191.24921 
L 362.01904 194.670825 
L 362.399371 193.9868 
L 362.779703 193.535254 
L 364.301028 202.096744 
L 364.681359 197.932984 
L 365.06169 206.408038 
L 365.442022 192.107594 
L 365.822353 188.337261 
L 366.963347 192.778207 
L 367.343678 193.535254 
L 367.72401 190.957121 
L 368.104341 194.190965 
L 368.484672 199.606535 
L 370.005997 193.258068 
L 370.386329 183.502888 
L 370.76666 177.415215 
L 371.146991 178.974017 
L 372.287985 175.406357 
L 372.668317 177.109713 
L 373.048648 187.782887 
L 373.428979 185.016982 
L 373.80931 197.161034 
L 374.950304 184.318055 
L 375.330636 175.95924 
L 375.710967 177.92488 
L 376.091298 169.013182 
L 376.47163 168.911845 
L 377.612623 162.722835 
L 377.992955 162.548475 
L 378.373286 163.523099 
L 378.753617 157.582961 
L 381.796268 157.582961 
L 382.937262 170.998196 
L 383.317593 174.063846 
L 383.697924 166.707493 
L 384.078256 186.830346 
L 384.458587 183.100874 
L 385.599581 165.764564 
L 385.979912 175.361316 
L 386.740575 203.223727 
L 387.120906 195.042123 
L 388.2619 208.29442 
L 388.642231 189.14467 
L 389.022563 191.356404 
L 389.402894 178.574817 
L 389.783225 182.437052 
L 390.924219 175.951212 
L 391.30455 173.090743 
L 391.684882 172.929314 
L 392.065213 190.102686 
L 392.445544 190.411966 
L 393.586538 180.947979 
L 393.96687 184.927893 
L 394.347201 192.963154 
L 394.727532 192.845477 
L 395.107863 180.54516 
L 396.248857 184.51753 
L 396.629189 187.839657 
L 397.389851 168.16941 
L 398.911177 158.598306 
L 399.291508 159.588004 
L 399.671839 157.610117 
L 400.05217 149.220315 
L 400.432502 144.569036 
L 401.573496 146.429246 
L 401.953827 140.374889 
L 402.334158 146.533345 
L 402.71449 136.978837 
L 403.094821 137.864436 
L 404.235815 143.254971 
L 404.616146 148.98496 
L 404.996477 143.092033 
L 405.376809 148.349803 
L 405.75714 140.183286 
L 406.898134 135.575759 
L 407.278465 137.58382 
L 407.658797 142.102335 
L 408.039128 143.844867 
L 408.419459 151.967632 
L 409.560453 154.19747 
L 409.940784 165.43718 
L 410.321116 167.060526 
L 410.701447 163.753486 
L 411.081778 158.524381 
L 412.222772 172.746763 
L 412.603103 173.218982 
L 412.983435 188.977206 
L 413.363766 183.069192 
L 413.744097 170.900131 
L 414.885091 174.947936 
L 415.265423 178.448087 
L 415.645754 176.586368 
L 416.026085 166.05725 
L 416.406417 168.656715 
L 417.54741 159.263637 
L 417.927742 159.085612 
L 418.308073 158.00841 
L 418.688404 160.32726 
L 419.068736 158.850257 
L 420.590061 161.316958 
L 420.970392 158.200013 
L 421.350723 164.09294 
L 421.731055 153.799176 
L 422.872049 153.031255 
L 423.25238 152.056644 
L 423.632711 152.352347 
L 424.013043 147.345018 
L 424.393374 143.905214 
L 425.534368 137.672833 
L 425.914699 141.601451 
L 426.29503 143.97914 
L 426.675362 136.698222 
L 427.055693 141.275575 
L 428.196687 136.224494 
L 428.577018 130.731369 
L 428.95735 131.129662 
L 429.337681 127.172379 
L 429.718012 127.305143 
L 430.859006 121.107461 
L 431.239337 116.90728 
L 431.619669 118.844433 
L 432 118.652829 
L 432.380331 111.539375 
L 433.901657 108.580842 
L 434.281988 106.272553 
L 434.662319 112.144358 
L 435.04265 106.509417 
L 436.183644 106.569764 
L 436.563976 105.267768 
L 436.944307 102.650198 
L 437.70497 113.653044 
L 438.845963 120.85702 
L 439.226295 111.302512 
L 439.606626 105.208929 
L 439.986957 101.200351 
L 440.367289 95.239533 
L 441.508283 95.091682 
L 441.888614 101.776669 
L 442.268945 101.141512 
L 442.649277 98.139227 
L 443.029608 98.967496 
L 444.170602 100.476182 
L 444.550933 97.089182 
L 444.931264 95.565409 
L 445.311596 91.689595 
L 445.691927 92.652136 
L 446.832921 94.159314 
L 447.213252 98.789471 
L 447.593583 99.322037 
L 448.354246 93.243541 
L 449.49524 92.104483 
L 449.875571 97.369797 
L 450.255903 105.178756 
L 450.636234 100.637611 
L 451.016565 92.947839 
L 452.157559 84.294017 
L 452.53789 83.406909 
L 452.918222 83.363157 
L 453.298553 87.030773 
L 453.678884 79.917319 
L 454.819878 73.689463 
L 455.20021 77.565277 
L 455.960872 76.663083 
L 456.341203 73.615538 
L 457.862529 74.282377 
L 458.24286 77.965079 
L 458.623191 80.019909 
L 459.003523 86.306604 
L 460.144517 86.261343 
L 460.524848 87.04586 
L 460.905179 81.735285 
L 461.28551 80.68524 
L 461.665842 89.115777 
L 462.806836 100.993661 
L 463.187167 100.682872 
L 463.94783 83.717698 
L 464.328161 83.65886 
L 465.469155 89.782616 
L 465.849486 109.128495 
L 466.229817 110.495365 
L 466.610149 113.815982 
L 466.99048 105.560453 
L 468.131474 120.19018 
L 468.511805 111.696279 
L 468.892137 107.576057 
L 469.272468 101.112847 
L 469.652799 103.973316 
L 471.174124 108.776971 
L 471.554456 103.736452 
L 471.934787 90.633515 
L 472.315118 86.290008 
L 473.456112 80.480059 
L 476.498763 80.480059 
L 476.879094 82.850403 
L 477.259425 76.457024 
L 477.639757 73.574495 
L 478.78075 72.815151 
L 479.541413 64.608281 
L 479.921744 55.406818 
L 480.302076 53.197276 
L 481.44307 48.502744 
L 481.823401 50.256679 
L 482.203732 62.559541 
L 484.48572 62.559541 
L 484.866051 65.279793 
L 485.626714 56.873982 
L 487.148039 69.539975 
L 487.52837 64.225623 
L 488.289033 78.743301 
L 489.430027 64.453277 
L 489.810358 70.807299 
L 490.19069 82.446672 
L 490.571021 75.708393 
L 490.951352 87.462319 
L 492.092346 82.176967 
L 492.472677 59.524632 
L 492.853009 55.193399 
L 493.23334 63.670262 
L 493.613671 53.212661 
L 494.754665 62.829246 
L 495.134997 73.399949 
L 495.515328 56.589776 
L 495.895659 75.498139 
L 496.27599 77.696381 
L 497.416984 85.104573 
L 497.797316 68.291501 
L 498.177647 60.641154 
L 500.079303 43.387273 
L 500.459635 48.038962 
L 500.839966 47.982411 
L 501.600629 54.70474 
L 502.741623 49.238135 
L 503.121954 57.572895 
L 503.502285 79.18121 
L 503.882617 81.565055 
L 504.262948 87.972728 
L 505.403942 87.315866 
L 505.784273 79.110158 
L 506.164604 77.054019 
L 506.544936 94.908211 
L 506.925267 89.956366 
L 508.446592 105.741369 
L 509.207255 121.540873 
L 509.587586 134.257617 
L 510.72858 130.546995 
L 511.108911 144.747118 
L 511.489243 142.79248 
L 511.869574 147.587722 
L 512.249905 147.587722 
L 513.390899 130.583716 
L 514.531893 130.583716 
L 514.912224 126.173452 
L 517.194212 126.173452 
L 517.574543 144.558123 
L 519.856531 144.558123 
L 520.236863 151.608946 
L 521.758188 157.080441 
L 522.138519 171.029981 
L 522.51885 151.608946 
L 522.899182 143.5929 
L 524.420507 143.466383 
L 524.800838 131.693429 
L 528.22382 131.693429 
L 529.364814 144.174539 
L 536.210777 144.174539 
L 537.351771 133.069653 
L 538.112434 161.763133 
L 538.492765 160.063279 
L 538.873096 168.110357 
L 540.01409 180.913718 
L 540.394422 182.354389 
L 540.774753 173.179589 
L 541.155084 186.418598 
L 542.67641 185.807863 
L 543.056741 175.273732 
L 543.437072 177.475408 
L 543.817403 187.69659 
L 545.71906 187.69659 
L 546.099391 182.090937 
L 546.860054 182.090937 
L 548.001048 173.386441 
L 549.142042 173.386441 
L 549.522373 179.196041 
L 551.42403 179.196041 
L 551.804361 183.088462 
L 554.086349 183.088462 
L 554.46668 186.756828 
L 555.988005 186.756828 
L 556.368336 196.849875 
L 556.748668 189.510315 
L 559.791318 189.510315 
L 560.17165 202.697406 
L 561.692975 202.697406 
L 562.073306 208.142217 
L 562.453637 222.215824 
L 562.833969 241.305682 
L 563.974963 263.291477 
L 564.355294 260.811454 
L 564.735625 250.906816 
L 565.115956 270.909997 
L 565.496288 265.590241 
L 567.017613 254.397115 
L 567.397944 255.962411 
L 574.624239 255.962411 
L 575.00457 262.167461 
L 580.70954 262.167461 
L 581.470203 248.418133 
L 582.611196 249.238763 
L 582.991528 251.613807 
L 583.371859 238.361641 
L 583.75219 236.8689 
L 584.132522 237.602684 
L 585.273516 240.872617 
L 585.653847 246.615768 
L 586.034178 232.517799 
L 586.41451 235.277985 
L 586.794841 225.444271 
L 587.935835 222.522979 
L 588.316166 224.213326 
L 588.696497 228.291303 
L 589.076829 225.780326 
L 589.45716 235.079121 
L 590.598154 248.07075 
L 590.978485 249.151917 
L 591.358816 248.405547 
L 591.739148 240.051987 
L 592.119479 259.893108 
L 593.260473 265.686604 
L 594.781798 283.289871 
L 596.303123 286.372268 
L 596.683455 279.647382 
L 597.063786 277.060887 
L 597.444117 267.73692 
L 598.585111 260.750238 
L 598.965443 284.208675 
L 599.345774 282.369809 
L 599.726105 291.854882 
L 600.106436 294.975038 
L 601.24743 291.730277 
L 601.627762 294.316772 
L 602.768756 311.670829 
L 603.90975 314.257324 
L 604.290081 312.840101 
L 604.670412 308.248601 
L 605.050743 318.529131 
L 605.431075 325.607693 
L 606.572069 325.607693 
L 606.9524 312.192724 
L 607.713063 312.192724 
L 608.093394 328.691448 
L 610.375382 328.691448 
L 610.755713 339.50262 
L 611.896707 327.831214 
L 613.037701 327.831214 
L 613.418032 317.803937 
L 619.883664 317.803937 
L 620.263996 314.170141 
L 620.644327 324.674457 
L 621.024658 292.144396 
L 626.729628 292.144396 
L 628.250953 304.721649 
L 628.631284 284.98445 
L 629.011616 283.486543 
L 629.391947 285.873602 
L 630.532941 293.92147 
L 630.913272 302.932277 
L 631.293603 304.783139 
L 631.673935 297.744945 
L 632.054266 300.241456 
L 633.19526 291.279841 
L 633.575591 286.299116 
L 633.955923 289.453575 
L 634.336254 305.331634 
L 634.716585 310.605053 
L 635.857579 316.34334 
L 636.23791 315.476325 
L 636.618242 309.251034 
L 636.998573 319.150994 
L 637.378904 319.004646 
L 638.90023 322.812134 
L 639.280561 328.88001 
L 639.660892 318.52871 
L 640.041223 318.735318 
L 641.562549 322.471477 
L 641.94288 320.798937 
L 642.323211 328.830817 
L 642.703543 317.966688 
L 643.844536 313.07205 
L 644.224868 310.507899 
L 644.605199 303.794373 
L 644.98553 300.632535 
L 645.365862 298.910803 
L 646.887187 296.860712 
L 647.64785 307.041068 
L 648.028181 295.798158 
L 649.169175 285.996583 
L 649.929837 287.595334 
L 650.310169 280.894107 
L 650.6905 278.928873 
L 651.831494 287.327236 
L 652.211825 280.929771 
L 652.972488 257.370328 
L 653.352819 262.155513 
L 654.493813 268.015551 
L 654.874144 257.456414 
L 658.297126 257.456414 
L 658.677457 262.982975 
L 660.198783 273.764564 
L 660.579114 273.862964 
L 660.959445 267.174293 
L 661.339776 274.85194 
L 662.48077 272.911354 
L 662.861102 273.368475 
L 663.241433 276.731494 
L 663.621764 271.601022 
L 664.002096 262.427454 
L 665.14309 260.806977 
L 665.523421 266.321083 
L 665.903752 262.822297 
L 666.664415 278.523858 
L 667.805409 276.520994 
L 668.18574 266.766994 
L 668.566071 266.927671 
L 668.946403 254.860662 
L 669.326734 256.097505 
L 670.467728 254.71244 
L 670.848059 249.593178 
L 671.22839 255.169561 
L 671.608722 248.766125 
L 671.989053 247.932843 
L 673.130047 250.820057 
L 673.510378 252.789291 
L 673.89071 243.472484 
L 674.271041 238.777959 
L 674.651372 231.145152 
L 675.792366 231.777898 
L 676.172697 234.800878 
L 676.553029 240.499326 
L 676.93336 238.071725 
L 678.454685 238.343257 
L 679.215348 244.637085 
L 679.595679 235.655334 
L 679.97601 237.46389 
L 681.117004 235.754979 
L 681.497336 234.415999 
L 681.877667 235.407467 
L 682.257998 238.801624 
L 682.63833 240.189181 
L 683.779323 242.221939 
L 684.159655 252.293558 
L 684.539986 246.222686 
L 684.920317 237.46389 
L 685.300649 232.520253 
L 686.441643 232.025764 
L 686.821974 237.365491 
L 687.202305 240.697371 
L 687.582636 242.593117 
L 687.962968 230.265785 
L 689.103962 229.757595 
L 689.484293 233.238942 
L 689.864624 228.061139 
L 690.244956 230.092651 
L 690.625287 231.046752 
L 691.766281 227.019849 
L 692.146612 227.342449 
L 692.526943 220.292566 
L 692.907275 210.70298 
L 693.287606 211.608504 
L 694.4286 210.331802 
L 694.808931 217.925997 
L 695.189263 220.961433 
L 695.949925 190.18732 
L 697.47125 187.473239 
L 697.851582 192.231288 
L 699.753238 192.231288 
L 700.13357 191.374641 
L 700.513901 199.075846 
L 700.894232 193.945812 
L 701.274563 191.802965 
L 703.17622 172.827502 
L 703.556551 165.836478 
L 703.936883 170.52588 
L 705.458208 173.659533 
L 705.838539 181.862909 
L 706.21887 177.527982 
L 706.599202 183.699284 
L 707.740196 187.959132 
L 708.120527 177.430747 
L 708.88119 174.911271 
L 709.261521 166.499886 
L 710.402515 167.419305 
L 711.543509 172.864427 
L 711.92384 174.690955 
L 713.064834 172.545646 
L 713.445165 170.522187 
L 713.825496 164.893674 
L 714.205828 156.788762 
L 714.586159 158.762988 
L 715.727153 151.443336 
L 716.107484 145.140337 
L 716.487816 146.624699 
L 716.868147 158.518056 
L 717.248478 159.462091 
L 718.389472 158.836837 
L 718.769803 152.58307 
L 719.150135 158.984535 
L 719.530466 161.510166 
L 719.910797 153.736343 
L 721.051791 150.989166 
L 721.432123 150.695001 
L 721.812454 165.543544 
L 722.192785 167.690084 
L 722.573116 174.752496 
L 723.71411 173.857694 
L 724.094442 178.835106 
L 724.474773 186.253223 
L 724.855104 185.763359 
L 725.235436 189.1961 
L 726.376429 181.533051 
L 727.517423 197.337936 
L 727.897755 196.344669 
L 729.038749 187.528347 
L 729.41908 187.332647 
L 729.799411 177.866455 
L 730.179743 190.189367 
L 730.560074 184.9781 
L 731.701068 180.95703 
L 732.081399 170.325257 
L 732.46173 165.886941 
L 733.222393 160.969838 
L 738.547031 160.969838 
L 739.688025 158.748078 
L 740.068356 159.724208 
L 740.829019 176.771032 
L 741.20935 175.293296 
L 742.730676 175.293296 
L 743.111007 173.652293 
L 743.491338 173.652293 
L 743.871669 171.541027 
L 745.392995 171.541027 
L 745.773326 165.341181 
L 751.097964 165.341181 
L 751.478296 169.207265 
L 751.858627 178.724178 
L 752.999621 178.633516 
L 753.379952 173.926866 
L 754.140615 192.068319 
L 754.520946 189.922222 
L 755.66194 185.358041 
L 774.678505 185.358041 
L 775.058836 193.752455 
L 775.439168 187.364932 
L 775.819499 187.364932 
L 777.721156 184.281943 
L 778.101487 183.936994 
L 778.481818 186.944524 
L 778.481818 186.944524 
" clip-path="url(#pdd84f6e2d4)" style="fill: none; stroke: #d62728; stroke-width: 1.5; stroke-linecap: square"/>
   </g>
   <g id="patch_3">
    <path d="M 50.87 390.04 
L 50.87 26.88 
" style="fill: none; stroke: #000000; stroke-width: 0.8; stroke-linejoin: miter; stroke-linecap: square"/>
   </g>
   <g id="patch_4">
    <path d="M 813.13 390.04 
L 813.13 26.88 
" style="fill: none; stroke: #000000; stroke-width: 0.8; stroke-linejoin: miter; stroke-linecap: square"/>
   </g>
   <g id="patch_5">
    <path d="M 50.87 390.04 
L 813.13 390.04 
" style="fill: none; stroke: #000000; stroke-width: 0.8; stroke-linejoin: miter; stroke-linecap: square"/>
   </g>
   <g id="patch_6">
    <path d="M 50.87 26.88 
L 813.13 26.88 
" style="fill: none; stroke: #000000; stroke-width: 0.8; stroke-linejoin: miter; stroke-linecap: square"/>
   </g>
  </g>
  <g id="axes_2">
   <g id="matplotlib.axis_3">
    <g id="ytick_7">
     <g id="line2d_26">
      <defs>
       <path id="m78d1b7f43c" d="M 0 0 
L 3.5 0 
" style="stroke: #000000; stroke-width: 0.8"/>
      </defs>
      <g>
       <use xlink:href="#m78d1b7f43c" x="813.13" y="374.995866" style="stroke: #000000; stroke-width: 0.8"/>
      </g>
     </g>
     <g id="text_15">
      <!-- 150 -->
      <g style="fill: #1f77b4" transform="translate(820.13 378.795084) scale(0.1 -0.1)">
       <defs>
        <path id="DejaVuSans-35" d="M 691 4666 
L 3169 4666 
L 3169 4134 
L 1269 4134 
L 1269 2991 
Q 1406 3038 1543 3061 
Q 1681 3084 1819 3084 
Q 2600 3084 3056 2656 
Q 3513 2228 3513 1497 
Q 3513 744 3044 326 
Q 2575 -91 1722 -91 
Q 1428 -91 1123 -41 
Q 819 9 494 109 
L 494 744 
Q 775 591 1075 516 
Q 1375 441 1709 441 
Q 2250 441 2565 725 
Q 2881 1009 2881 1497 
Q 2881 1984 2565 2268 
Q 2250 2553 1709 2553 
Q 1456 2553 1204 2497 
Q 953 2441 691 2322 
L 691 4666 
z
" transform="scale(0.015625)"/>
       </defs>
       <use xlink:href="#DejaVuSans-31"/>
       <use xlink:href="#DejaVuSans-35" x="63.623047"/>
       <use xlink:href="#DejaVuSans-30" x="127.246094"/>
      </g>
     </g>
    </g>
    <g id="ytick_8">
     <g id="line2d_27">
      <g>
       <use xlink:href="#m78d1b7f43c" x="813.13" y="325.7651" style="stroke: #000000; stroke-width: 0.8"/>
      </g>
     </g>
     <g id="text_16">
      <!-- 200 -->
      <g style="fill: #1f77b4" transform="translate(820.13 329.564318) scale(0.1 -0.1)">
       <use xlink:href="#DejaVuSans-32"/>
       <use xlink:href="#DejaVuSans-30" x="63.623047"/>
       <use xlink:href="#DejaVuSans-30" x="127.246094"/>
      </g>
     </g>
    </g>
    <g id="ytick_9">
     <g id="line2d_28">
      <g>
       <use xlink:href="#m78d1b7f43c" x="813.13" y="276.534334" style="stroke: #000000; stroke-width: 0.8"/>
      </g>
     </g>
     <g id="text_17">
      <!-- 250 -->
      <g style="fill: #1f77b4" transform="translate(820.13 280.333553) scale(0.1 -0.1)">
       <use xlink:href="#DejaVuSans-32"/>
       <use xlink:href="#DejaVuSans-35" x="63.623047"/>
       <use xlink:href="#DejaVuSans-30" x="127.246094"/>
      </g>
     </g>
    </g>
    <g id="ytick_10">
     <g id="line2d_29">
      <g>
       <use xlink:href="#m78d1b7f43c" x="813.13" y="227.303568" style="stroke: #000000; stroke-width: 0.8"/>
      </g>
     </g>
     <g id="text_18">
      <!-- 300 -->
      <g style="fill: #1f77b4" transform="translate(820.13 231.102787) scale(0.1 -0.1)">
       <use xlink:href="#DejaVuSans-33"/>
       <use xlink:href="#DejaVuSans-30" x="63.623047"/>
       <use xlink:href="#DejaVuSans-30" x="127.246094"/>
      </g>
     </g>
    </g>
    <g id="ytick_11">
     <g id="line2d_30">
      <g>
       <use xlink:href="#m78d1b7f43c" x="813.13" y="178.072802" style="stroke: #000000; stroke-width: 0.8"/>
      </g>
     </g>
     <g id="text_19">
      <!-- 350 -->
      <g style="fill: #1f77b4" transform="translate(820.13 181.872021) scale(0.1 -0.1)">
       <use xlink:href="#DejaVuSans-33"/>
       <use xlink:href="#DejaVuSans-35" x="63.623047"/>
       <use xlink:href="#DejaVuSans-30" x="127.246094"/>
      </g>
     </g>
    </g>
    <g id="ytick_12">
     <g id="line2d_31">
      <g>
       <use xlink:href="#m78d1b7f43c" x="813.13" y="128.842036" style="stroke: #000000; stroke-width: 0.8"/>
      </g>
     </g>
     <g id="text_20">
      <!-- 400 -->
      <g style="fill: #1f77b4" transform="translate(820.13 132.641255) scale(0.1 -0.1)">
       <use xlink:href="#DejaVuSans-34"/>
       <use xlink:href="#DejaVuSans-30" x="63.623047"/>
       <use xlink:href="#DejaVuSans-30" x="127.246094"/>
      </g>
     </g>
    </g>
    <g id="ytick_13">
     <g id="line2d_32">
      <g>
       <use xlink:href="#m78d1b7f43c" x="813.13" y="79.61127" style="stroke: #000000; stroke-width: 0.8"/>
      </g>
     </g>
     <g id="text_21">
      <!-- 450 -->
      <g style="fill: #1f77b4" transform="translate(820.13 83.410489) scale(0.1 -0.1)">
       <use xlink:href="#DejaVuSans-34"/>
       <use xlink:href="#DejaVuSans-35" x="63.623047"/>
       <use xlink:href="#DejaVuSans-30" x="127.246094"/>
      </g>
     </g>
    </g>
    <g id="ytick_14">
     <g id="line2d_33">
      <g>
       <use xlink:href="#m78d1b7f43c" x="813.13" y="30.380504" style="stroke: #000000; stroke-width: 0.8"/>
      </g>
     </g>
     <g id="text_22">
      <!-- 500 -->
      <g style="fill: #1f77b4" transform="translate(820.13 34.179723) scale(0.1 -0.1)">
       <use xlink:href="#DejaVuSans-35"/>
       <use xlink:href="#DejaVuSans-30" x="63.623047"/>
       <use xlink:href="#DejaVuSans-30" x="127.246094"/>
      </g>
     </g>
    </g>
    <g id="text_23">
     <!-- Close Price -->
     <g style="fill: #1f77b4" transform="translate(850.815938 235.867812) rotate(-90) scale(0.1 -0.1)">
      <defs>
       <path id="DejaVuSans-43" d="M 4122 4306 
L 4122 3641 
Q 3803 3938 3442 4084 
Q 3081 4231 2675 4231 
Q 1875 4231 1450 3742 
Q 1025 3253 1025 2328 
Q 1025 1406 1450 917 
Q 1875 428 2675 428 
Q 3081 428 3442 575 
Q 3803 722 4122 1019 
L 4122 359 
Q 3791 134 3420 21 
Q 3050 -91 2638 -91 
Q 1578 -91 968 557 
Q 359 1206 359 2328 
Q 359 3453 968 4101 
Q 1578 4750 2638 4750 
Q 3056 4750 3426 4639 
Q 3797 4528 4122 4306 
z
" transform="scale(0.015625)"/>
       <path id="DejaVuSans-6c" d="M 603 4863 
L 1178 4863 
L 1178 0 
L 603 0 
L 603 4863 
z
" transform="scale(0.015625)"/>
       <path id="DejaVuSans-6f" d="M 1959 3097 
Q 1497 3097 1228 2736 
Q 959 2375 959 1747 
Q 959 1119 1226 758 
Q 1494 397 1959 397 
Q 2419 397 2687 759 
Q 2956 1122 2956 1747 
Q 2956 2369 2687 2733 
Q 2419 3097 1959 3097 
z
M 1959 3584 
Q 2709 3584 3137 3096 
Q 3566 2609 3566 1747 
Q 3566 888 3137 398 
Q 2709 -91 1959 -91 
Q 1206 -91 779 398 
Q 353 888 353 1747 
Q 353 2609 779 3096 
Q 1206 3584 1959 3584 
z
" transform="scale(0.015625)"/>
       <path id="DejaVuSans-50" d="M 1259 4147 
L 1259 2394 
L 2053 2394 
Q 2494 2394 2734 2622 
Q 2975 2850 2975 3272 
Q 2975 3691 2734 3919 
Q 2494 4147 2053 4147 
L 1259 4147 
z
M 628 4666 
L 2053 4666 
Q 2838 4666 3239 4311 
Q 3641 3956 3641 3272 
Q 3641 2581 3239 2228 
Q 2838 1875 2053 1875 
L 1259 1875 
L 1259 0 
L 628 0 
L 628 4666 
z
" transform="scale(0.015625)"/>
       <path id="DejaVuSans-69" d="M 603 3500 
L 1178 3500 
L 1178 0 
L 603 0 
L 603 3500 
z
M 603 4863 
L 1178 4863 
L 1178 4134 
L 603 4134 
L 603 4863 
z
" transform="scale(0.015625)"/>
       <path id="DejaVuSans-63" d="M 3122 3366 
L 3122 2828 
Q 2878 2963 2633 3030 
Q 2388 3097 2138 3097 
Q 1578 3097 1268 2742 
Q 959 2388 959 1747 
Q 959 1106 1268 751 
Q 1578 397 2138 397 
Q 2388 397 2633 464 
Q 2878 531 3122 666 
L 3122 134 
Q 2881 22 2623 -34 
Q 2366 -91 2075 -91 
Q 1284 -91 818 406 
Q 353 903 353 1747 
Q 353 2603 823 3093 
Q 1294 3584 2113 3584 
Q 2378 3584 2631 3529 
Q 2884 3475 3122 3366 
z
" transform="scale(0.015625)"/>
      </defs>
      <use xlink:href="#DejaVuSans-43"/>
      <use xlink:href="#DejaVuSans-6c" x="69.824219"/>
      <use xlink:href="#DejaVuSans-6f" x="97.607422"/>
      <use xlink:href="#DejaVuSans-73" x="158.789062"/>
      <use xlink:href="#DejaVuSans-65" x="210.888672"/>
      <use xlink:href="#DejaVuSans-20" x="272.412109"/>
      <use xlink:href="#DejaVuSans-50" x="304.199219"/>
      <use xlink:href="#DejaVuSans-72" x="362.751953"/>
      <use xlink:href="#DejaVuSans-69" x="403.865234"/>
      <use xlink:href="#DejaVuSans-63" x="431.648438"/>
      <use xlink:href="#DejaVuSans-65" x="486.628906"/>
     </g>
    </g>
   </g>
   <g id="line2d_34">
    <path d="M 85.518182 365.777897 
L 85.898513 373.532727 
L 86.278844 367.047066 
L 87.419838 365.308236 
L 87.80017 363.794882 
L 88.180501 361.810882 
L 88.560832 361.05962 
L 88.941164 361.153159 
L 90.082157 362.75119 
L 90.462489 360.392051 
L 90.84282 360.222697 
L 91.223151 358.982082 
L 91.603483 356.547128 
L 93.124808 359.28239 
L 93.505139 358.897405 
L 93.885471 357.214698 
L 94.265802 354.64879 
L 95.406796 356.745036 
L 95.787127 358.409036 
L 96.167458 353.689775 
L 96.54779 353.342206 
L 96.928121 352.195129 
L 98.069115 349.51599 
L 98.449446 348.087314 
L 98.829777 347.476852 
L 99.210109 349.845837 
L 99.59044 348.726329 
L 100.731434 348.63279 
L 101.111765 346.273652 
L 101.492097 346.000914 
L 101.872428 345.587375 
L 102.252759 344.233529 
L 103.774084 344.092729 
L 104.154416 343.838699 
L 104.534747 343.876114 
L 104.915078 341.489406 
L 106.436404 340.351191 
L 106.816735 340.351191 
L 107.197066 340.934083 
L 107.577397 339.769283 
L 108.718391 340.821837 
L 109.098723 341.432299 
L 109.479054 342.607929 
L 109.859385 344.16756 
L 110.239717 344.148852 
L 111.380711 340.229099 
L 112.141373 338.180114 
L 112.521704 337.813837 
L 112.902036 335.736299 
L 114.04303 335.022453 
L 114.423361 334.570515 
L 114.803692 335.144545 
L 115.184024 330.470576 
L 115.564355 335.354268 
L 116.705349 336.11833 
L 117.08568 335.034268 
L 117.466011 336.212853 
L 117.846343 335.430084 
L 118.226674 333.534699 
L 119.367668 330.885099 
L 119.747999 330.338638 
L 120.128331 328.716976 
L 120.508662 329.753776 
L 120.888993 328.840053 
L 122.029987 328.066146 
L 122.410318 328.962146 
L 122.79065 327.4163 
L 123.170981 327.510823 
L 123.551312 326.246577 
L 124.692306 326.246577 
L 125.452969 324.691869 
L 125.8333 324.333469 
L 127.354625 323.720054 
L 127.734957 321.428854 
L 128.115288 321.296915 
L 128.495619 321.551931 
L 128.875951 321.9763 
L 130.016944 321.844362 
L 130.397276 321.485962 
L 131.157938 323.182454 
L 131.53827 321.222085 
L 132.679264 322.579869 
L 133.059595 326.831438 
L 133.439926 327.189838 
L 133.820257 328.500361 
L 134.200589 327.9539 
L 135.341583 335.504914 
L 135.721914 332.365961 
L 136.482577 328.424546 
L 136.862908 330.357346 
L 138.003902 333.723745 
L 138.384233 331.140115 
L 138.764564 332.299992 
L 139.144896 335.75993 
L 139.525227 335.609284 
L 141.046552 336.193161 
L 141.426884 337.44756 
L 141.807215 336.353653 
L 142.187546 339.351807 
L 143.32854 342.689652 
L 143.708871 336.712053 
L 144.849865 328.896176 
L 145.990859 326.775315 
L 146.37119 327.010638 
L 146.751522 327.859377 
L 147.131853 327.293223 
L 147.512184 329.046823 
L 148.653178 328.660853 
L 149.03351 325.407684 
L 149.413841 324.455561 
L 149.794172 321.721285 
L 150.174504 322.7827 
L 151.315497 322.953038 
L 151.695829 326.451377 
L 152.07616 324.569777 
L 152.456491 323.652115 
L 152.836823 323.265161 
L 153.977817 320.342823 
L 154.358148 319.747131 
L 154.738479 318.290885 
L 155.499142 318.603008 
L 156.640136 320.116362 
L 157.020467 319.350331 
L 157.400798 317.789716 
L 157.78113 317.108362 
L 158.161461 315.46307 
L 159.302455 314.953039 
L 159.682786 316.711562 
L 160.063117 317.212731 
L 160.443449 315.756485 
L 160.82378 316.8819 
L 161.964774 314.649777 
L 162.345105 313.468239 
L 162.725437 311.510824 
L 163.105768 313.004485 
L 163.486099 311.548239 
L 164.627093 311.87907 
L 165.007424 313.156116 
L 165.387756 316.210393 
L 165.768087 317.251131 
L 166.148418 321.0803 
L 167.289412 329.363869 
L 167.669744 326.537038 
L 168.050075 325.194023 
L 168.430406 320.305408 
L 168.810737 322.612361 
L 169.951731 325.269838 
L 170.332063 320.523008 
L 170.712394 326.734946 
L 171.092725 327.122884 
L 171.473057 323.604854 
L 172.61405 320.664792 
L 172.994382 321.562762 
L 173.374713 319.236116 
L 173.755044 319.718577 
L 174.135376 326.196361 
L 175.27637 323.709223 
L 175.656701 324.200546 
L 176.037032 324.106023 
L 176.417364 320.607685 
L 176.797695 320.739623 
L 178.31902 323.226761 
L 179.079683 315.671808 
L 179.460014 315.964239 
L 180.601008 317.553408 
L 180.981339 318.574454 
L 181.36167 316.475254 
L 181.742002 315.510331 
L 182.122333 316.976423 
L 183.263327 317.175316 
L 183.643658 316.437839 
L 184.02399 316.323623 
L 184.404321 315.860854 
L 184.784652 318.054577 
L 185.925646 317.60067 
L 186.305977 319.917469 
L 186.686309 317.4963 
L 187.06664 317.303316 
L 187.446971 320.283746 
L 188.587965 318.071316 
L 188.968297 319.913531 
L 189.348628 323.710208 
L 189.728959 321.138392 
L 190.10929 317.729654 
L 191.250284 318.375562 
L 191.630616 322.343562 
L 192.010947 319.486208 
L 192.391278 318.261346 
L 192.77161 315.27107 
L 193.912604 315.280916 
L 194.292935 313.126578 
L 194.673266 314.957962 
L 195.053597 315.157839 
L 195.433929 317.350577 
L 196.574923 315.290762 
L 196.955254 318.099869 
L 197.335585 317.891131 
L 198.096248 312.253224 
L 199.237242 309.841901 
L 199.617573 311.568916 
L 199.997904 310.145162 
L 200.378236 310.392301 
L 200.758567 307.62947 
L 201.899561 306.651747 
L 202.660224 307.07907 
L 203.040555 305.332363 
L 203.420886 304.164609 
L 204.56188 303.889901 
L 205.322543 302.70344 
L 205.702874 302.969286 
L 206.083205 301.136917 
L 207.224199 300.615071 
L 207.60453 299.883501 
L 208.365193 302.256424 
L 208.745524 302.313532 
L 209.886518 299.077102 
L 210.26685 298.95304 
L 210.647181 297.567686 
L 211.407844 298.516855 
L 212.548837 301.706024 
L 212.929169 303.462578 
L 213.689831 302.11464 
L 214.070163 299.693471 
L 215.211157 300.842517 
L 215.591488 300.93704 
L 215.971819 299.475871 
L 216.35215 297.30184 
L 216.732482 295.839686 
L 217.873476 293.801533 
L 218.253807 294.239686 
L 218.634138 294.163871 
L 219.394801 291.374456 
L 220.535795 290.593656 
L 220.916126 290.574948 
L 221.676789 288.785902 
L 222.05712 288.871564 
L 223.198114 290.260856 
L 223.578445 289.622825 
L 224.339108 285.349595 
L 224.719439 287.842641 
L 225.860433 287.062825 
L 226.240764 287.091379 
L 227.001427 281.931995 
L 227.381758 282.45581 
L 228.522752 279.238088 
L 228.903084 280.532857 
L 229.283415 280.33298 
L 229.663746 277.010888 
L 230.044077 275.554642 
L 231.565403 275.915995 
L 232.326065 273.670088 
L 232.706397 274.955011 
L 233.84739 280.865657 
L 234.227722 276.268488 
L 234.608053 276.021349 
L 234.988384 274.050149 
L 235.368716 280.74258 
L 236.50971 277.706026 
L 236.890041 271.300119 
L 237.270372 270.109719 
L 237.650704 268.082396 
L 238.031035 270.462211 
L 239.172029 267.321288 
L 239.55236 267.787011 
L 239.932691 265.074396 
L 240.313023 265.598212 
L 240.693354 264.560427 
L 242.214679 265.502704 
L 242.59501 262.628612 
L 242.975342 265.035996 
L 243.355673 270.74775 
L 244.496667 281.056672 
L 244.876998 288.737656 
L 245.25733 288.195133 
L 245.637661 300.331501 
L 246.017992 298.379994 
L 247.158986 286.605964 
L 247.539317 295.220363 
L 247.919649 285.939379 
L 248.29998 293.344671 
L 248.680311 298.208671 
L 249.821305 315.51427 
L 250.201637 302.411994 
L 250.581968 313.009408 
L 250.962299 333.640053 
L 251.34263 312.818393 
L 252.483624 341.122145 
L 252.863956 330.181099 
L 253.244287 336.650022 
L 253.624618 336.353653 
L 254.00495 343.854452 
L 255.145944 345.441652 
L 255.526275 327.01753 
L 255.906606 326.922023 
L 256.286937 314.825039 
L 256.667269 324.017408 
L 257.808263 316.153285 
L 258.188594 320.204977 
L 258.568925 329.779376 
L 258.949257 326.005346 
L 259.329588 329.177776 
L 260.470582 312.694331 
L 260.850913 314.289408 
L 261.231244 308.30787 
L 261.611576 307.801778 
L 263.132901 307.314393 
L 263.513232 298.571009 
L 263.893564 303.425163 
L 264.273895 301.150701 
L 264.654226 297.586394 
L 265.79522 301.323009 
L 266.175551 310.41987 
L 266.555883 302.373594 
L 266.936214 303.501963 
L 267.316545 299.192302 
L 268.457539 296.650025 
L 268.83787 299.517225 
L 269.218202 289.990087 
L 269.598533 291.442394 
L 269.978864 298.083625 
L 271.119858 295.321779 
L 271.50019 291.805717 
L 271.880521 290.142702 
L 272.641184 282.450887 
L 273.782177 280.797718 
L 274.54284 290.19981 
L 274.923171 287.400548 
L 275.303503 286.015195 
L 276.444497 280.310334 
L 276.824828 281.045841 
L 277.205159 275.513288 
L 277.58549 278.570518 
L 277.965822 277.37618 
L 279.487147 277.204857 
L 279.867478 275.838211 
L 280.24781 276.334457 
L 280.628141 273.258519 
L 281.769135 272.455073 
L 282.529797 267.868734 
L 282.910129 270.372611 
L 283.29046 264.275873 
L 284.811785 262.106766 
L 285.192117 258.227381 
L 285.572448 273.295934 
L 285.952779 270.228857 
L 287.093773 267.084981 
L 287.474104 261.705043 
L 287.854436 261.905904 
L 288.234767 260.48215 
L 288.615098 262.220981 
L 290.136424 255.654581 
L 290.516755 261.689289 
L 290.897086 258.221474 
L 291.277417 263.107135 
L 292.418411 260.463443 
L 292.798743 255.702828 
L 293.179074 255.070705 
L 293.559405 253.604612 
L 295.08073 249.351074 
L 295.461062 251.860859 
L 295.841393 247.157351 
L 296.221724 246.046705 
L 296.602056 246.58332 
L 297.74305 252.885843 
L 298.123381 249.658274 
L 298.503712 247.95292 
L 298.884044 251.420736 
L 299.264375 249.81089 
L 300.405369 242.645844 
L 300.7857 245.347628 
L 301.166031 243.259259 
L 301.546363 250.126951 
L 301.926694 253.643012 
L 303.067688 249.083259 
L 303.448019 252.350212 
L 303.82835 247.723505 
L 304.208682 246.343074 
L 304.589013 239.83969 
L 305.730007 233.220121 
L 306.110338 232.271937 
L 306.49067 230.997845 
L 306.871001 227.481783 
L 307.251332 232.252245 
L 308.392326 233.171875 
L 308.772657 238.296798 
L 309.152989 232.061229 
L 309.53332 231.352306 
L 309.913651 232.070091 
L 311.434977 228.707629 
L 311.815308 229.167445 
L 312.57597 222.289907 
L 313.716964 219.847076 
L 314.097296 218.400676 
L 314.477627 212.107015 
L 314.857958 212.299015 
L 315.23829 209.299877 
L 316.379284 208.342831 
L 316.759615 200.860739 
L 317.139946 198.561662 
L 317.520277 217.730153 
L 317.900609 222.577414 
L 319.421934 235.653106 
L 319.802265 226.590706 
L 320.182597 232.837106 
L 320.562928 235.162767 
L 321.703922 229.047322 
L 322.084253 225.84043 
L 322.464584 230.285968 
L 322.844916 232.907014 
L 323.225247 237.160552 
L 324.366241 234.52966 
L 324.746572 229.748368 
L 325.126904 238.504552 
L 325.507235 237.631198 
L 325.887566 230.448429 
L 327.02856 225.033045 
L 327.408891 225.849291 
L 327.789223 223.640799 
L 328.169554 219.915999 
L 328.549885 226.886091 
L 329.690879 220.165107 
L 330.07121 224.331999 
L 330.451542 218.686215 
L 330.831873 217.352061 
L 331.212204 212.195631 
L 332.353198 204.369908 
L 333.494192 208.883385 
L 333.874524 209.881785 
L 335.015517 214.663077 
L 335.395849 214.270215 
L 336.156511 216.592923 
L 336.536843 216.776061 
L 337.677837 223.381845 
L 338.058168 222.037845 
L 338.438499 234.039321 
L 338.81883 229.949229 
L 339.199162 236.56486 
L 340.340156 235.970152 
L 340.720487 230.775322 
L 341.48115 209.574585 
L 341.861481 208.115385 
L 343.002475 211.399077 
L 343.382806 217.831569 
L 343.763137 210.380984 
L 344.143469 212.81003 
L 344.5238 210.371138 
L 345.664794 207.299139 
L 346.045125 208.210892 
L 346.425457 211.485723 
L 346.805788 208.076985 
L 347.186119 210.601538 
L 348.327113 210.400677 
L 348.707444 206.6936 
L 349.087776 205.215693 
L 349.848438 202.862462 
L 350.989432 200.712062 
L 351.369763 198.04277 
L 351.750095 198.436616 
L 352.130426 198.23477 
L 352.510757 194.595632 
L 353.651751 193.779386 
L 354.032083 192.291632 
L 354.412414 199.070708 
L 354.792745 197.639078 
L 355.173077 198.216062 
L 356.31407 196.823816 
L 356.694402 191.408432 
L 357.455064 185.957602 
L 357.835396 186.862463 
L 358.97639 185.967448 
L 359.356721 182.330279 
L 359.737052 185.428863 
L 360.117383 183.186894 
L 361.638709 180.801171 
L 362.01904 183.061848 
L 362.779703 182.311571 
L 364.301028 187.968186 
L 364.681359 185.217171 
L 365.06169 190.816678 
L 365.442022 181.36831 
L 365.822353 178.877233 
L 366.963347 181.811386 
L 367.343678 182.311571 
L 367.72401 180.608187 
L 368.104341 182.744802 
L 368.484672 186.322894 
L 370.005997 182.128433 
L 370.386329 175.683141 
L 370.76666 171.660987 
L 371.146991 172.690895 
L 372.287985 170.333726 
L 372.668317 171.459141 
L 373.048648 178.510956 
L 373.428979 176.68351 
L 373.80931 184.70714 
L 374.950304 176.221725 
L 375.330636 170.699018 
L 375.710967 171.997726 
L 376.091298 166.109726 
L 376.47163 166.042772 
L 377.612623 161.953665 
L 377.992955 161.838465 
L 378.373286 162.482403 
L 378.753617 158.557726 
L 379.133949 156.508742 
L 380.655274 157.92265 
L 381.035605 161.828619 
L 381.415937 163.483757 
L 381.796268 163.050526 
L 382.937262 171.805726 
L 383.317593 173.806464 
L 383.697924 169.00548 
L 384.078256 182.138279 
L 384.458587 179.70431 
L 385.599581 168.390095 
L 385.979912 174.653233 
L 386.740575 192.837109 
L 387.120906 187.49754 
L 388.2619 196.146401 
L 388.642231 183.648679 
L 389.022563 185.092125 
L 389.402894 176.750464 
L 389.783225 179.271079 
L 390.924219 175.038218 
L 391.30455 173.171387 
L 391.684882 173.066033 
L 392.065213 184.273909 
L 392.445544 184.475755 
L 393.586538 178.299264 
L 393.96687 180.896679 
L 394.347201 186.14074 
L 394.727532 186.06394 
L 395.107863 178.036371 
L 396.248857 180.628863 
L 396.629189 182.796986 
L 397.389851 169.959572 
L 398.911177 163.713172 
L 399.291508 164.35908 
L 399.671839 163.068249 
L 400.05217 157.592803 
L 400.432502 154.557234 
L 401.573496 155.771265 
L 401.953827 151.820004 
L 402.334158 155.839204 
L 402.71449 149.603635 
L 403.094821 150.181604 
L 404.235815 153.699634 
L 404.616146 157.439203 
L 404.996477 153.593296 
L 405.376809 157.02468 
L 405.75714 151.694958 
L 406.898134 148.687943 
L 407.278465 149.998466 
L 407.658797 152.947388 
L 408.039128 154.084619 
L 408.419459 159.385788 
L 409.560453 160.841049 
L 409.940784 168.176433 
L 410.321116 169.23588 
L 410.701447 167.077603 
L 411.081778 163.664926 
L 412.222772 172.946895 
L 412.603103 173.255079 
L 412.983435 183.539386 
L 413.363766 179.683633 
L 413.744097 171.741726 
L 414.885091 174.383448 
L 415.265423 176.667756 
L 415.645754 175.452741 
L 416.026085 168.58111 
L 416.406417 170.277603 
L 417.54741 164.147388 
L 417.927742 164.031203 
L 418.308073 163.328188 
L 418.688404 164.841541 
L 419.068736 163.877603 
L 420.590061 165.487449 
L 420.970392 163.453234 
L 421.350723 167.299141 
L 421.731055 160.581111 
L 422.872049 160.079942 
L 423.25238 159.44388 
L 423.632711 159.636865 
L 424.013043 156.368927 
L 424.393374 154.124004 
L 425.534368 150.056558 
L 425.914699 152.620496 
L 426.29503 154.17225 
L 426.675362 149.420496 
L 427.055693 152.407819 
L 428.196687 149.111327 
L 428.577018 145.526343 
L 428.95735 145.786281 
L 429.337681 143.203635 
L 429.718012 143.290281 
L 430.859006 139.245482 
L 431.239337 136.504313 
L 431.619669 137.768559 
L 432 137.643512 
L 432.380331 133.001051 
L 433.901657 131.070221 
L 434.281988 129.563759 
L 434.662319 133.395882 
L 435.04265 129.718344 
L 436.183644 129.757728 
L 436.563976 128.908005 
L 436.944307 127.199698 
L 437.70497 134.380497 
L 438.845963 139.082035 
L 439.226295 132.846467 
L 439.606626 128.869605 
L 439.986957 126.253482 
L 440.367289 122.363267 
L 441.508283 122.266775 
L 441.888614 126.629606 
L 442.268945 126.215082 
L 442.649277 124.255698 
L 443.029608 124.796252 
L 444.170602 125.780867 
L 444.550933 123.570406 
L 444.931264 122.575944 
L 445.311596 120.046468 
L 445.691927 120.674652 
L 446.832921 121.658283 
L 447.213252 124.680067 
L 447.593583 125.027636 
L 448.354246 121.060621 
L 449.49524 120.317237 
L 449.875571 123.753544 
L 450.255903 128.849913 
L 450.636234 125.886221 
L 451.016565 120.867637 
L 452.157559 115.219883 
L 452.53789 114.640929 
L 452.918222 114.612376 
L 453.298553 117.005975 
L 453.678884 112.363514 
L 454.819878 108.299022 
L 455.20021 110.828499 
L 455.960872 110.239699 
L 456.341203 108.250776 
L 457.862529 108.685976 
L 458.24286 111.089422 
L 458.623191 112.430468 
L 459.003523 116.53336 
L 460.144517 116.503822 
L 460.524848 117.015822 
L 460.905179 113.549976 
L 461.28551 112.864683 
L 461.665842 118.366714 
L 462.806836 126.11859 
L 463.187167 125.915759 
L 463.94783 114.84376 
L 464.328161 114.80536 
L 465.469155 118.801914 
L 465.849486 131.427636 
L 466.229817 132.319697 
L 466.610149 134.486836 
L 466.99048 129.099021 
L 468.131474 138.646836 
L 468.511805 133.103451 
L 468.892137 130.414467 
L 469.272468 126.196375 
L 469.652799 128.063205 
L 471.174124 131.198221 
L 471.554456 127.908621 
L 471.934787 119.357237 
L 472.315118 116.522529 
L 473.456112 112.730776 
L 473.836443 108.95773 
L 474.216775 109.761176 
L 474.597106 107.980991 
L 474.977437 109.741484 
L 476.498763 107.25533 
L 476.879094 108.822838 
L 477.259425 104.594899 
L 477.639757 102.688684 
L 478.78075 102.18653 
L 479.541413 96.759331 
L 479.921744 90.674408 
L 480.302076 89.213239 
L 481.44307 86.108747 
L 481.823401 87.268624 
L 482.203732 95.4045 
L 482.584063 93.092623 
L 482.964395 87.946039 
L 484.105389 88.526962 
L 484.48572 83.999701 
L 484.866051 85.846839 
L 485.626714 80.139024 
L 487.148039 88.739639 
L 487.52837 85.131024 
L 488.289033 94.988992 
L 489.430027 85.285608 
L 489.810358 89.600193 
L 490.19069 97.5037 
L 490.571021 92.928192 
L 490.951352 100.909484 
L 492.092346 97.320561 
L 492.472677 81.938901 
L 492.853009 78.997855 
L 493.23334 84.753916 
L 493.613671 77.65287 
L 494.754665 84.182839 
L 495.134997 91.360685 
L 495.515328 79.946039 
L 495.895659 92.785423 
L 496.27599 94.2781 
L 497.416984 99.3085 
L 497.797316 87.891885 
L 498.177647 82.697055 
L 500.079303 70.981117 
L 500.459635 74.139763 
L 500.839966 74.101363 
L 501.600629 78.66604 
L 502.741623 74.95404 
L 503.121954 80.613609 
L 503.502285 95.286346 
L 503.882617 96.905054 
L 504.262948 101.256069 
L 505.403942 100.810038 
L 505.784273 95.2381 
L 506.164604 93.841915 
L 506.544936 105.965484 
L 506.925267 102.603023 
L 508.446592 113.321545 
L 509.207255 124.049913 
L 509.587586 132.68499 
L 510.72858 130.165359 
L 511.108911 139.807697 
L 511.489243 138.480436 
L 511.869574 141.736558 
L 512.249905 125.503206 
L 513.390899 113.467268 
L 514.151562 109.639084 
L 514.531893 122.50899 
L 514.912224 119.455698 
L 516.053218 121.432806 
L 516.43355 116.257668 
L 516.813881 106.275638 
L 517.574543 129.263452 
L 518.715537 129.33139 
L 519.095869 118.002406 
L 519.4762 118.719206 
L 519.856531 132.00659 
L 520.236863 136.890282 
L 521.758188 140.680066 
L 522.138519 150.342096 
L 522.51885 136.890282 
L 522.899182 131.338036 
L 524.040176 131.250405 
L 524.420507 138.780743 
L 524.800838 130.784682 
L 525.561501 144.576189 
L 526.702495 158.753665 
L 527.082826 160.546649 
L 527.463157 145.108866 
L 528.22382 159.345419 
L 529.364814 167.204618 
L 530.125476 141.804497 
L 530.505808 137.666159 
L 530.886139 128.846959 
L 532.027133 129.845359 
L 532.407464 123.555637 
L 532.787796 129.631698 
L 533.168127 119.354283 
L 533.548458 120.29656 
L 534.689452 115.326222 
L 535.069783 106.317976 
L 535.830446 118.393298 
L 536.210777 119.577791 
L 537.351771 111.646714 
L 538.112434 132.139513 
L 538.492765 130.925482 
L 538.873096 136.672682 
L 540.01409 145.816804 
L 540.394422 146.845727 
L 540.774753 140.293112 
L 541.155084 149.748373 
L 542.67641 149.312189 
L 543.056741 141.788743 
L 543.437072 143.361174 
L 543.817403 150.661112 
L 544.197735 160.94148 
L 545.338729 155.038711 
L 545.71906 169.036987 
L 546.099391 165.231449 
L 546.479723 150.76745 
L 546.860054 166.231818 
L 548.001048 160.338896 
L 548.381379 160.106526 
L 548.76171 147.534958 
L 549.142042 166.687695 
L 549.522373 170.551326 
L 550.663367 185.714402 
L 551.043698 180.821848 
L 551.42403 192.528924 
L 551.804361 194.956001 
L 552.184692 182.559694 
L 553.325686 186.617294 
L 553.706017 177.103941 
L 554.086349 193.034032 
L 554.46668 195.335078 
L 554.847011 194.800432 
L 555.988005 187.859878 
L 556.368336 194.334709 
L 556.748668 189.626278 
L 557.128999 181.181233 
L 557.50933 169.280187 
L 559.030656 172.153295 
L 559.410987 173.502218 
L 559.791318 163.902218 
L 560.17165 173.016802 
L 561.312643 172.812987 
L 561.692975 168.163634 
L 562.073306 171.979018 
L 562.453637 181.840925 
L 562.833969 195.217909 
L 563.974963 210.624184 
L 564.355294 208.886338 
L 564.735625 201.945785 
L 565.115956 215.962769 
L 565.496288 212.235015 
L 567.017613 204.39157 
L 567.397944 205.488431 
L 567.778276 200.007077 
L 568.158607 188.113909 
L 569.299601 190.535078 
L 569.679932 200.804616 
L 570.060263 200.552554 
L 570.440595 205.113293 
L 570.820926 204.160185 
L 572.342251 199.288308 
L 572.722583 197.041416 
L 573.102914 189.795632 
L 573.483245 189.562278 
L 574.624239 194.892001 
L 575.00457 199.384801 
L 575.384902 200.134093 
L 575.765233 197.964985 
L 576.145564 192.004124 
L 577.286558 194.989478 
L 577.66689 185.127571 
L 578.427552 173.817295 
L 578.807883 179.264187 
L 579.948877 181.471694 
L 580.329209 187.899263 
L 580.70954 173.418525 
L 581.470203 162.662588 
L 582.611196 163.304557 
L 582.991528 165.162526 
L 583.371859 154.795511 
L 583.75219 153.627758 
L 584.132522 154.201788 
L 585.273516 156.759819 
L 585.653847 161.252619 
L 586.034178 150.223942 
L 586.41451 152.383204 
L 586.794841 144.690404 
L 587.935835 142.405112 
L 588.316166 143.727451 
L 588.696497 146.917604 
L 589.076829 144.953297 
L 589.45716 152.227635 
L 590.598154 162.390834 
L 590.978485 163.236618 
L 591.358816 162.652742 
L 591.739148 156.11785 
L 592.119479 171.639326 
L 593.260473 176.17151 
L 594.781798 189.94234 
L 596.303123 192.353663 
L 596.683455 187.092863 
L 597.063786 185.069479 
L 597.444117 177.775448 
L 598.585111 172.309849 
L 598.965443 190.661109 
L 599.345774 189.222586 
L 599.726105 196.642647 
L 600.106436 199.083508 
L 601.24743 196.54517 
L 601.627762 198.568555 
L 602.768756 212.144431 
L 603.90975 214.167815 
L 604.290081 213.059138 
L 604.670412 209.467261 
L 605.050743 217.509599 
L 605.431075 223.047076 
L 606.572069 213.9512 
L 606.9524 203.140123 
L 607.332731 202.126954 
L 607.713063 204.554031 
L 608.093394 217.792184 
L 609.234388 223.300122 
L 609.614719 228.174953 
L 609.99505 229.227506 
L 610.375382 220.824799 
L 610.755713 229.412614 
L 612.277038 217.032061 
L 612.65737 218.533599 
L 613.037701 218.367199 
L 613.418032 210.3544 
L 614.559026 206.668985 
L 614.939357 199.748124 
L 615.319689 206.240677 
L 615.70002 209.516492 
L 616.080351 196.911447 
L 617.221345 200.790831 
L 617.601676 203.276985 
L 618.362339 223.846584 
L 618.74267 219.966215 
L 619.883664 215.482276 
L 620.263996 212.625907 
L 620.644327 220.882891 
L 621.024658 195.312432 
L 621.40499 188.634771 
L 622.545983 191.82197 
L 622.926315 187.045601 
L 623.306646 192.768186 
L 623.686977 192.953293 
L 624.067309 192.583078 
L 625.208303 196.511693 
L 625.588634 190.67194 
L 625.968965 187.123386 
L 626.729628 189.229478 
L 628.250953 199.299139 
L 628.631284 183.497048 
L 629.011616 182.297786 
L 629.391947 184.208925 
L 630.532941 190.652247 
L 630.913272 197.866524 
L 631.293603 199.34837 
L 631.673935 193.713416 
L 632.054266 195.712185 
L 633.19526 188.537294 
L 633.575591 184.549602 
L 633.955923 187.07514 
L 634.336254 199.787508 
L 634.716585 204.009539 
L 635.857579 208.603754 
L 636.23791 207.9096 
L 636.618242 202.925477 
L 636.998573 210.851631 
L 637.378904 210.734461 
L 638.90023 213.78283 
L 639.280561 218.640922 
L 639.660892 210.353415 
L 640.041223 210.518831 
L 641.562549 213.510092 
L 641.94288 212.171015 
L 642.323211 218.601538 
L 642.703543 209.903446 
L 643.844536 205.984677 
L 644.224868 203.931754 
L 644.605199 198.556739 
L 644.98553 196.025293 
L 645.365862 194.646832 
L 646.887187 193.005478 
L 647.64785 201.156124 
L 648.028181 192.15477 
L 649.169175 184.307386 
L 649.929837 185.587386 
L 650.310169 180.222217 
L 650.6905 178.648802 
L 651.831494 185.37274 
L 652.211825 180.250771 
L 652.972488 161.388495 
L 653.352819 165.219634 
L 654.493813 169.911326 
L 654.874144 161.457419 
L 655.254476 166.030957 
L 655.634807 167.536434 
L 656.015138 169.794156 
L 657.916795 159.346403 
L 658.297126 165.97188 
L 658.677457 170.340618 
L 660.198783 178.863448 
L 660.579114 178.941233 
L 660.959445 173.653849 
L 661.339776 179.723017 
L 662.48077 178.188987 
L 662.861102 178.55034 
L 663.241433 181.208802 
L 663.621764 177.153171 
L 664.002096 169.90148 
L 665.14309 168.620495 
L 665.523421 172.979387 
L 665.903752 170.213603 
L 666.664415 182.625663 
L 667.805409 181.042402 
L 668.18574 173.331879 
L 668.566071 173.458895 
L 668.946403 163.919941 
L 669.326734 164.897664 
L 670.467728 163.802772 
L 670.848059 159.756003 
L 671.22839 164.164126 
L 671.608722 159.102219 
L 671.989053 158.443511 
L 673.130047 160.725849 
L 673.510378 162.282526 
L 673.89071 154.917604 
L 674.271041 151.206588 
L 674.651372 145.172866 
L 675.792366 145.67305 
L 676.172697 148.062712 
L 676.553029 152.567327 
L 676.93336 150.648312 
L 678.454685 150.862958 
L 679.215348 155.838219 
L 679.595679 148.738158 
L 679.97601 150.167819 
L 681.117004 148.816927 
L 681.497336 147.758466 
L 681.877667 148.542219 
L 682.257998 151.225296 
L 682.63833 152.322158 
L 683.779323 153.92905 
L 684.159655 161.890649 
L 684.539986 157.091634 
L 684.920317 150.167819 
L 685.300649 146.259881 
L 686.441643 145.868989 
L 686.821974 150.090035 
L 687.202305 152.723881 
L 687.582636 154.222465 
L 687.962968 144.477727 
L 689.103962 144.076004 
L 689.484293 146.828004 
L 689.864624 142.734958 
L 690.244956 144.340866 
L 690.625287 145.095081 
L 691.766281 141.91182 
L 692.146612 142.166835 
L 692.526943 136.593913 
L 692.907275 129.013359 
L 693.287606 129.729175 
L 694.4286 128.719944 
L 694.808931 134.723143 
L 695.189263 137.122651 
L 695.949925 112.79576 
L 697.47125 110.650284 
L 697.851582 114.411514 
L 698.231913 110.200314 
L 698.612244 107.340007 
L 699.753238 109.563268 
L 700.13357 108.877976 
L 700.513901 115.038714 
L 700.894232 110.934837 
L 701.274563 109.220622 
L 703.17622 94.040808 
L 703.556551 88.448193 
L 703.936883 92.199577 
L 705.458208 94.706408 
L 705.838539 101.268869 
L 706.21887 97.801054 
L 706.599202 102.737915 
L 707.740196 106.145668 
L 708.120527 97.723269 
L 708.88119 95.707761 
L 709.261521 88.9789 
L 710.402515 89.714408 
L 711.543509 94.070346 
L 711.92384 95.531515 
L 713.064834 93.815331 
L 713.445165 92.196623 
L 713.825496 87.693977 
L 714.205828 81.210286 
L 714.586159 82.789609 
L 715.727153 76.934101 
L 716.107484 71.891886 
L 716.487816 73.079332 
L 716.868147 82.59367 
L 717.248478 83.34887 
L 718.389472 82.848685 
L 718.769803 77.845855 
L 719.150135 82.966839 
L 719.530466 84.98727 
L 719.910797 78.76844 
L 721.051791 76.570778 
L 721.432123 76.335455 
L 721.812454 88.213854 
L 722.192785 89.931023 
L 722.573116 95.580746 
L 723.71411 94.864931 
L 724.094442 98.846715 
L 724.474773 104.780992 
L 724.855104 104.389115 
L 725.235436 107.135207 
L 726.376429 101.004992 
L 727.517423 113.648437 
L 727.897755 112.853853 
L 729.038749 105.801053 
L 729.41908 105.644499 
L 729.799411 98.071823 
L 730.179743 107.929791 
L 730.560074 103.76093 
L 731.701068 100.544192 
L 732.081399 92.039085 
L 732.46173 88.488562 
L 733.222393 84.555024 
L 734.743718 83.80967 
L 735.504381 95.325731 
L 735.884712 94.776315 
L 737.025706 92.746039 
L 737.406037 100.27933 
L 737.786369 99.710223 
L 738.1667 96.747515 
L 738.547031 104.496438 
L 739.688025 102.799946 
L 740.068356 103.545299 
L 740.829019 116.561914 
L 741.20935 115.433545 
L 742.350344 113.814837 
L 742.730676 121.112806 
L 743.111007 119.877114 
L 743.491338 116.445729 
L 743.871669 114.842776 
L 745.012663 111.088437 
L 745.392995 118.913175 
L 745.773326 114.252991 
L 746.153657 113.899514 
L 746.533989 105.701607 
L 747.674983 103.784561 
L 748.055314 102.398223 
L 748.435645 99.066284 
L 748.815976 100.068623 
L 749.196308 106.841792 
L 750.337302 102.064438 
L 750.717633 103.86333 
L 751.097964 109.603637 
L 751.478296 112.542714 
L 751.858627 119.777668 
L 752.999621 119.708744 
L 753.379952 116.130652 
L 754.140615 129.922159 
L 754.520946 128.290652 
L 755.66194 124.820867 
L 756.042271 121.822714 
L 757.183265 102.08413 
L 758.324259 100.17693 
L 758.70459 95.055946 
L 759.084922 93.276746 
L 759.465253 95.851515 
L 759.845584 84.576685 
L 760.986578 86.768439 
L 761.366909 76.22124 
L 761.747241 75.641301 
L 762.127572 74.648809 
L 762.507903 74.451886 
L 763.648897 68.13164 
L 764.029229 71.905671 
L 764.40956 70.254471 
L 765.170223 70.745794 
L 766.311216 70.982102 
L 766.691548 70.146163 
L 767.071879 68.386656 
L 767.45221 68.514656 
L 767.832542 65.938902 
L 768.973536 70.588255 
L 769.353867 68.141486 
L 769.734198 72.092748 
L 770.494861 63.157364 
L 771.635855 59.991825 
L 772.016186 57.229979 
L 772.396517 51.852995 
L 772.776849 50.938288 
L 773.15718 48.667765 
L 774.298174 47.576811 
L 774.678505 45.149734 
L 775.058836 52.810041 
L 775.439168 46.981119 
L 775.819499 46.518349 
L 777.721156 43.70235 
L 778.101487 43.387273 
L 778.481818 46.134349 
L 778.481818 46.134349 
" clip-path="url(#pdd84f6e2d4)" style="fill: none; stroke: #1f77b4; stroke-width: 1.5; stroke-linecap: square"/>
   </g>
   <g id="patch_7">
    <path d="M 50.87 390.04 
L 50.87 26.88 
" style="fill: none; stroke: #000000; stroke-width: 0.8; stroke-linejoin: miter; stroke-linecap: square"/>
   </g>
   <g id="patch_8">
    <path d="M 813.13 390.04 
L 813.13 26.88 
" style="fill: none; stroke: #000000; stroke-width: 0.8; stroke-linejoin: miter; stroke-linecap: square"/>
   </g>
   <g id="patch_9">
    <path d="M 50.87 390.04 
L 813.13 390.04 
" style="fill: none; stroke: #000000; stroke-width: 0.8; stroke-linejoin: miter; stroke-linecap: square"/>
   </g>
   <g id="patch_10">
    <path d="M 50.87 26.88 
L 813.13 26.88 
" style="fill: none; stroke: #000000; stroke-width: 0.8; stroke-linejoin: miter; stroke-linecap: square"/>
   </g>
   <g id="text_24">
    <!-- Stock Trading Performance for VGT -->
    <g transform="translate(327.286875 20.88) scale(0.12 -0.12)">
     <defs>
      <path id="DejaVuSans-53" d="M 3425 4513 
L 3425 3897 
Q 3066 4069 2747 4153 
Q 2428 4238 2131 4238 
Q 1616 4238 1336 4038 
Q 1056 3838 1056 3469 
Q 1056 3159 1242 3001 
Q 1428 2844 1947 2747 
L 2328 2669 
Q 3034 2534 3370 2195 
Q 3706 1856 3706 1288 
Q 3706 609 3251 259 
Q 2797 -91 1919 -91 
Q 1588 -91 1214 -16 
Q 841 59 441 206 
L 441 856 
Q 825 641 1194 531 
Q 1563 422 1919 422 
Q 2459 422 2753 634 
Q 3047 847 3047 1241 
Q 3047 1584 2836 1778 
Q 2625 1972 2144 2069 
L 1759 2144 
Q 1053 2284 737 2584 
Q 422 2884 422 3419 
Q 422 4038 858 4394 
Q 1294 4750 2059 4750 
Q 2388 4750 2728 4690 
Q 3069 4631 3425 4513 
z
" transform="scale(0.015625)"/>
      <path id="DejaVuSans-6b" d="M 581 4863 
L 1159 4863 
L 1159 1991 
L 2875 3500 
L 3609 3500 
L 1753 1863 
L 3688 0 
L 2938 0 
L 1159 1709 
L 1159 0 
L 581 0 
L 581 4863 
z
" transform="scale(0.015625)"/>
      <path id="DejaVuSans-54" d="M -19 4666 
L 3928 4666 
L 3928 4134 
L 2272 4134 
L 2272 0 
L 1638 0 
L 1638 4134 
L -19 4134 
L -19 4666 
z
" transform="scale(0.015625)"/>
      <path id="DejaVuSans-64" d="M 2906 2969 
L 2906 4863 
L 3481 4863 
L 3481 0 
L 2906 0 
L 2906 525 
Q 2725 213 2448 61 
Q 2172 -91 1784 -91 
Q 1150 -91 751 415 
Q 353 922 353 1747 
Q 353 2572 751 3078 
Q 1150 3584 1784 3584 
Q 2172 3584 2448 3432 
Q 2725 3281 2906 2969 
z
M 947 1747 
Q 947 1113 1208 752 
Q 1469 391 1925 391 
Q 2381 391 2643 752 
Q 2906 1113 2906 1747 
Q 2906 2381 2643 2742 
Q 2381 3103 1925 3103 
Q 1469 3103 1208 2742 
Q 947 2381 947 1747 
z
" transform="scale(0.015625)"/>
      <path id="DejaVuSans-67" d="M 2906 1791 
Q 2906 2416 2648 2759 
Q 2391 3103 1925 3103 
Q 1463 3103 1205 2759 
Q 947 2416 947 1791 
Q 947 1169 1205 825 
Q 1463 481 1925 481 
Q 2391 481 2648 825 
Q 2906 1169 2906 1791 
z
M 3481 434 
Q 3481 -459 3084 -895 
Q 2688 -1331 1869 -1331 
Q 1566 -1331 1297 -1286 
Q 1028 -1241 775 -1147 
L 775 -588 
Q 1028 -725 1275 -790 
Q 1522 -856 1778 -856 
Q 2344 -856 2625 -561 
Q 2906 -266 2906 331 
L 2906 616 
Q 2728 306 2450 153 
Q 2172 0 1784 0 
Q 1141 0 747 490 
Q 353 981 353 1791 
Q 353 2603 747 3093 
Q 1141 3584 1784 3584 
Q 2172 3584 2450 3431 
Q 2728 3278 2906 2969 
L 2906 3500 
L 3481 3500 
L 3481 434 
z
" transform="scale(0.015625)"/>
      <path id="DejaVuSans-66" d="M 2375 4863 
L 2375 4384 
L 1825 4384 
Q 1516 4384 1395 4259 
Q 1275 4134 1275 3809 
L 1275 3500 
L 2222 3500 
L 2222 3053 
L 1275 3053 
L 1275 0 
L 697 0 
L 697 3053 
L 147 3053 
L 147 3500 
L 697 3500 
L 697 3744 
Q 697 4328 969 4595 
Q 1241 4863 1831 4863 
L 2375 4863 
z
" transform="scale(0.015625)"/>
      <path id="DejaVuSans-6d" d="M 3328 2828 
Q 3544 3216 3844 3400 
Q 4144 3584 4550 3584 
Q 5097 3584 5394 3201 
Q 5691 2819 5691 2113 
L 5691 0 
L 5113 0 
L 5113 2094 
Q 5113 2597 4934 2840 
Q 4756 3084 4391 3084 
Q 3944 3084 3684 2787 
Q 3425 2491 3425 1978 
L 3425 0 
L 2847 0 
L 2847 2094 
Q 2847 2600 2669 2842 
Q 2491 3084 2119 3084 
Q 1678 3084 1418 2786 
Q 1159 2488 1159 1978 
L 1159 0 
L 581 0 
L 581 3500 
L 1159 3500 
L 1159 2956 
Q 1356 3278 1631 3431 
Q 1906 3584 2284 3584 
Q 2666 3584 2933 3390 
Q 3200 3197 3328 2828 
z
" transform="scale(0.015625)"/>
      <path id="DejaVuSans-56" d="M 1831 0 
L 50 4666 
L 709 4666 
L 2188 738 
L 3669 4666 
L 4325 4666 
L 2547 0 
L 1831 0 
z
" transform="scale(0.015625)"/>
      <path id="DejaVuSans-47" d="M 3809 666 
L 3809 1919 
L 2778 1919 
L 2778 2438 
L 4434 2438 
L 4434 434 
Q 4069 175 3628 42 
Q 3188 -91 2688 -91 
Q 1594 -91 976 548 
Q 359 1188 359 2328 
Q 359 3472 976 4111 
Q 1594 4750 2688 4750 
Q 3144 4750 3555 4637 
Q 3966 4525 4313 4306 
L 4313 3634 
Q 3963 3931 3569 4081 
Q 3175 4231 2741 4231 
Q 1884 4231 1454 3753 
Q 1025 3275 1025 2328 
Q 1025 1384 1454 906 
Q 1884 428 2741 428 
Q 3075 428 3337 486 
Q 3600 544 3809 666 
z
" transform="scale(0.015625)"/>
     </defs>
     <use xlink:href="#DejaVuSans-53"/>
     <use xlink:href="#DejaVuSans-74" x="63.476562"/>
     <use xlink:href="#DejaVuSans-6f" x="102.685547"/>
     <use xlink:href="#DejaVuSans-63" x="163.867188"/>
     <use xlink:href="#DejaVuSans-6b" x="218.847656"/>
     <use xlink:href="#DejaVuSans-20" x="276.757812"/>
     <use xlink:href="#DejaVuSans-54" x="308.544922"/>
     <use xlink:href="#DejaVuSans-72" x="354.878906"/>
     <use xlink:href="#DejaVuSans-61" x="395.992188"/>
     <use xlink:href="#DejaVuSans-64" x="457.271484"/>
     <use xlink:href="#DejaVuSans-69" x="520.748047"/>
     <use xlink:href="#DejaVuSans-6e" x="548.53125"/>
     <use xlink:href="#DejaVuSans-67" x="611.910156"/>
     <use xlink:href="#DejaVuSans-20" x="675.386719"/>
     <use xlink:href="#DejaVuSans-50" x="707.173828"/>
     <use xlink:href="#DejaVuSans-65" x="763.851562"/>
     <use xlink:href="#DejaVuSans-72" x="825.375"/>
     <use xlink:href="#DejaVuSans-66" x="866.488281"/>
     <use xlink:href="#DejaVuSans-6f" x="901.693359"/>
     <use xlink:href="#DejaVuSans-72" x="962.875"/>
     <use xlink:href="#DejaVuSans-6d" x="1002.238281"/>
     <use xlink:href="#DejaVuSans-61" x="1099.650391"/>
     <use xlink:href="#DejaVuSans-6e" x="1160.929688"/>
     <use xlink:href="#DejaVuSans-63" x="1224.308594"/>
     <use xlink:href="#DejaVuSans-65" x="1279.289062"/>
     <use xlink:href="#DejaVuSans-20" x="1340.8125"/>
     <use xlink:href="#DejaVuSans-66" x="1372.599609"/>
     <use xlink:href="#DejaVuSans-6f" x="1407.804688"/>
     <use xlink:href="#DejaVuSans-72" x="1468.986328"/>
     <use xlink:href="#DejaVuSans-20" x="1510.099609"/>
     <use xlink:href="#DejaVuSans-56" x="1541.886719"/>
     <use xlink:href="#DejaVuSans-47" x="1610.294922"/>
     <use xlink:href="#DejaVuSans-54" x="1684.160156"/>
    </g>
   </g>
  </g>
 </g>
 <defs>
  <clipPath id="pdd84f6e2d4">
   <rect x="50.87" y="26.88" width="762.26" height="363.16"/>
  </clipPath>
 </defs>
</svg>
