<?xml version="1.0" encoding="utf-8" standalone="no"?>
<!DOCTYPE svg PUBLIC "-//W3C//DTD SVG 1.1//EN"
  "http://www.w3.org/Graphics/SVG/1.1/DTD/svg11.dtd">
<svg xmlns:xlink="http://www.w3.org/1999/xlink" width="864pt" height="432pt" viewBox="0 0 864 432" xmlns="http://www.w3.org/2000/svg" version="1.1">
 <metadata>
  <rdf:RDF xmlns:dc="http://purl.org/dc/elements/1.1/" xmlns:cc="http://creativecommons.org/ns#" xmlns:rdf="http://www.w3.org/1999/02/22-rdf-syntax-ns#">
   <cc:Work>
    <dc:type rdf:resource="http://purl.org/dc/dcmitype/StillImage"/>
    <dc:date>2024-04-16T14:18:48.104164</dc:date>
    <dc:format>image/svg+xml</dc:format>
    <dc:creator>
     <cc:Agent>
      <dc:title>Matplotlib v3.8.2, https://matplotlib.org/</dc:title>
     </cc:Agent>
    </dc:creator>
   </cc:Work>
  </rdf:RDF>
 </metadata>
 <defs>
  <style type="text/css">*{stroke-linejoin: round; stroke-linecap: butt}</style>
 </defs>
 <g id="figure_1">
  <g id="patch_1">
   <path d="M 0 432 
L 864 432 
L 864 0 
L 0 0 
z
" style="fill: #ffffff"/>
  </g>
  <g id="axes_1">
   <g id="patch_2">
    <path d="M 59.24 390.04 
L 813.13 390.04 
L 813.13 26.88 
L 59.24 26.88 
z
" style="fill: #ffffff"/>
   </g>
   <g id="matplotlib.axis_1">
    <g id="xtick_1">
     <g id="line2d_1">
      <path d="M 93.131572 390.04 
L 93.131572 26.88 
" clip-path="url(#p4edff2c6eb)" style="fill: none; stroke-dasharray: 1.85,0.8; stroke-dashoffset: 0; stroke: #b0b0b0; stroke-opacity: 0.5; stroke-width: 0.5"/>
     </g>
     <g id="line2d_2">
      <defs>
       <path id="m91ed41eb40" d="M 0 0 
L 0 3.5 
" style="stroke: #000000; stroke-width: 0.8"/>
      </defs>
      <g>
       <use xlink:href="#m91ed41eb40" x="93.131572" y="390.04" style="stroke: #000000; stroke-width: 0.8"/>
      </g>
     </g>
     <g id="text_1">
      <!-- 2019 -->
      <g transform="translate(80.406572 404.638438) scale(0.1 -0.1)">
       <defs>
        <path id="DejaVuSans-32" d="M 1228 531 
L 3431 531 
L 3431 0 
L 469 0 
L 469 531 
Q 828 903 1448 1529 
Q 2069 2156 2228 2338 
Q 2531 2678 2651 2914 
Q 2772 3150 2772 3378 
Q 2772 3750 2511 3984 
Q 2250 4219 1831 4219 
Q 1534 4219 1204 4116 
Q 875 4013 500 3803 
L 500 4441 
Q 881 4594 1212 4672 
Q 1544 4750 1819 4750 
Q 2544 4750 2975 4387 
Q 3406 4025 3406 3419 
Q 3406 3131 3298 2873 
Q 3191 2616 2906 2266 
Q 2828 2175 2409 1742 
Q 1991 1309 1228 531 
z
" transform="scale(0.015625)"/>
        <path id="DejaVuSans-30" d="M 2034 4250 
Q 1547 4250 1301 3770 
Q 1056 3291 1056 2328 
Q 1056 1369 1301 889 
Q 1547 409 2034 409 
Q 2525 409 2770 889 
Q 3016 1369 3016 2328 
Q 3016 3291 2770 3770 
Q 2525 4250 2034 4250 
z
M 2034 4750 
Q 2819 4750 3233 4129 
Q 3647 3509 3647 2328 
Q 3647 1150 3233 529 
Q 2819 -91 2034 -91 
Q 1250 -91 836 529 
Q 422 1150 422 2328 
Q 422 3509 836 4129 
Q 1250 4750 2034 4750 
z
" transform="scale(0.015625)"/>
        <path id="DejaVuSans-31" d="M 794 531 
L 1825 531 
L 1825 4091 
L 703 3866 
L 703 4441 
L 1819 4666 
L 2450 4666 
L 2450 531 
L 3481 531 
L 3481 0 
L 794 0 
L 794 531 
z
" transform="scale(0.015625)"/>
        <path id="DejaVuSans-39" d="M 703 97 
L 703 672 
Q 941 559 1184 500 
Q 1428 441 1663 441 
Q 2288 441 2617 861 
Q 2947 1281 2994 2138 
Q 2813 1869 2534 1725 
Q 2256 1581 1919 1581 
Q 1219 1581 811 2004 
Q 403 2428 403 3163 
Q 403 3881 828 4315 
Q 1253 4750 1959 4750 
Q 2769 4750 3195 4129 
Q 3622 3509 3622 2328 
Q 3622 1225 3098 567 
Q 2575 -91 1691 -91 
Q 1453 -91 1209 -44 
Q 966 3 703 97 
z
M 1959 2075 
Q 2384 2075 2632 2365 
Q 2881 2656 2881 3163 
Q 2881 3666 2632 3958 
Q 2384 4250 1959 4250 
Q 1534 4250 1286 3958 
Q 1038 3666 1038 3163 
Q 1038 2656 1286 2365 
Q 1534 2075 1959 2075 
z
" transform="scale(0.015625)"/>
       </defs>
       <use xlink:href="#DejaVuSans-32"/>
       <use xlink:href="#DejaVuSans-30" x="63.623047"/>
       <use xlink:href="#DejaVuSans-31" x="127.246094"/>
       <use xlink:href="#DejaVuSans-39" x="190.869141"/>
      </g>
     </g>
    </g>
    <g id="xtick_2">
     <g id="line2d_3">
      <path d="M 230.428174 390.04 
L 230.428174 26.88 
" clip-path="url(#p4edff2c6eb)" style="fill: none; stroke-dasharray: 1.85,0.8; stroke-dashoffset: 0; stroke: #b0b0b0; stroke-opacity: 0.5; stroke-width: 0.5"/>
     </g>
     <g id="line2d_4">
      <g>
       <use xlink:href="#m91ed41eb40" x="230.428174" y="390.04" style="stroke: #000000; stroke-width: 0.8"/>
      </g>
     </g>
     <g id="text_2">
      <!-- 2020 -->
      <g transform="translate(217.703174 404.638438) scale(0.1 -0.1)">
       <use xlink:href="#DejaVuSans-32"/>
       <use xlink:href="#DejaVuSans-30" x="63.623047"/>
       <use xlink:href="#DejaVuSans-32" x="127.246094"/>
       <use xlink:href="#DejaVuSans-30" x="190.869141"/>
      </g>
     </g>
    </g>
    <g id="xtick_3">
     <g id="line2d_5">
      <path d="M 368.100932 390.04 
L 368.100932 26.88 
" clip-path="url(#p4edff2c6eb)" style="fill: none; stroke-dasharray: 1.85,0.8; stroke-dashoffset: 0; stroke: #b0b0b0; stroke-opacity: 0.5; stroke-width: 0.5"/>
     </g>
     <g id="line2d_6">
      <g>
       <use xlink:href="#m91ed41eb40" x="368.100932" y="390.04" style="stroke: #000000; stroke-width: 0.8"/>
      </g>
     </g>
     <g id="text_3">
      <!-- 2021 -->
      <g transform="translate(355.375932 404.638438) scale(0.1 -0.1)">
       <use xlink:href="#DejaVuSans-32"/>
       <use xlink:href="#DejaVuSans-30" x="63.623047"/>
       <use xlink:href="#DejaVuSans-32" x="127.246094"/>
       <use xlink:href="#DejaVuSans-31" x="190.869141"/>
      </g>
     </g>
    </g>
    <g id="xtick_4">
     <g id="line2d_7">
      <path d="M 505.397534 390.04 
L 505.397534 26.88 
" clip-path="url(#p4edff2c6eb)" style="fill: none; stroke-dasharray: 1.85,0.8; stroke-dashoffset: 0; stroke: #b0b0b0; stroke-opacity: 0.5; stroke-width: 0.5"/>
     </g>
     <g id="line2d_8">
      <g>
       <use xlink:href="#m91ed41eb40" x="505.397534" y="390.04" style="stroke: #000000; stroke-width: 0.8"/>
      </g>
     </g>
     <g id="text_4">
      <!-- 2022 -->
      <g transform="translate(492.672534 404.638438) scale(0.1 -0.1)">
       <use xlink:href="#DejaVuSans-32"/>
       <use xlink:href="#DejaVuSans-30" x="63.623047"/>
       <use xlink:href="#DejaVuSans-32" x="127.246094"/>
       <use xlink:href="#DejaVuSans-32" x="190.869141"/>
      </g>
     </g>
    </g>
    <g id="xtick_5">
     <g id="line2d_9">
      <path d="M 642.694136 390.04 
L 642.694136 26.88 
" clip-path="url(#p4edff2c6eb)" style="fill: none; stroke-dasharray: 1.85,0.8; stroke-dashoffset: 0; stroke: #b0b0b0; stroke-opacity: 0.5; stroke-width: 0.5"/>
     </g>
     <g id="line2d_10">
      <g>
       <use xlink:href="#m91ed41eb40" x="642.694136" y="390.04" style="stroke: #000000; stroke-width: 0.8"/>
      </g>
     </g>
     <g id="text_5">
      <!-- 2023 -->
      <g transform="translate(629.969136 404.638438) scale(0.1 -0.1)">
       <defs>
        <path id="DejaVuSans-33" d="M 2597 2516 
Q 3050 2419 3304 2112 
Q 3559 1806 3559 1356 
Q 3559 666 3084 287 
Q 2609 -91 1734 -91 
Q 1441 -91 1130 -33 
Q 819 25 488 141 
L 488 750 
Q 750 597 1062 519 
Q 1375 441 1716 441 
Q 2309 441 2620 675 
Q 2931 909 2931 1356 
Q 2931 1769 2642 2001 
Q 2353 2234 1838 2234 
L 1294 2234 
L 1294 2753 
L 1863 2753 
Q 2328 2753 2575 2939 
Q 2822 3125 2822 3475 
Q 2822 3834 2567 4026 
Q 2313 4219 1838 4219 
Q 1578 4219 1281 4162 
Q 984 4106 628 3988 
L 628 4550 
Q 988 4650 1302 4700 
Q 1616 4750 1894 4750 
Q 2613 4750 3031 4423 
Q 3450 4097 3450 3541 
Q 3450 3153 3228 2886 
Q 3006 2619 2597 2516 
z
" transform="scale(0.015625)"/>
       </defs>
       <use xlink:href="#DejaVuSans-32"/>
       <use xlink:href="#DejaVuSans-30" x="63.623047"/>
       <use xlink:href="#DejaVuSans-32" x="127.246094"/>
       <use xlink:href="#DejaVuSans-33" x="190.869141"/>
      </g>
     </g>
    </g>
    <g id="xtick_6">
     <g id="line2d_11">
      <path d="M 779.990738 390.04 
L 779.990738 26.88 
" clip-path="url(#p4edff2c6eb)" style="fill: none; stroke-dasharray: 1.85,0.8; stroke-dashoffset: 0; stroke: #b0b0b0; stroke-opacity: 0.5; stroke-width: 0.5"/>
     </g>
     <g id="line2d_12">
      <g>
       <use xlink:href="#m91ed41eb40" x="779.990738" y="390.04" style="stroke: #000000; stroke-width: 0.8"/>
      </g>
     </g>
     <g id="text_6">
      <!-- 2024 -->
      <g transform="translate(767.265738 404.638438) scale(0.1 -0.1)">
       <defs>
        <path id="DejaVuSans-34" d="M 2419 4116 
L 825 1625 
L 2419 1625 
L 2419 4116 
z
M 2253 4666 
L 3047 4666 
L 3047 1625 
L 3713 1625 
L 3713 1100 
L 3047 1100 
L 3047 0 
L 2419 0 
L 2419 1100 
L 313 1100 
L 313 1709 
L 2253 4666 
z
" transform="scale(0.015625)"/>
       </defs>
       <use xlink:href="#DejaVuSans-32"/>
       <use xlink:href="#DejaVuSans-30" x="63.623047"/>
       <use xlink:href="#DejaVuSans-32" x="127.246094"/>
       <use xlink:href="#DejaVuSans-34" x="190.869141"/>
      </g>
     </g>
    </g>
    <g id="text_7">
     <!-- Date -->
     <g transform="translate(424.234219 418.316562) scale(0.1 -0.1)">
      <defs>
       <path id="DejaVuSans-44" d="M 1259 4147 
L 1259 519 
L 2022 519 
Q 2988 519 3436 956 
Q 3884 1394 3884 2338 
Q 3884 3275 3436 3711 
Q 2988 4147 2022 4147 
L 1259 4147 
z
M 628 4666 
L 1925 4666 
Q 3281 4666 3915 4102 
Q 4550 3538 4550 2338 
Q 4550 1131 3912 565 
Q 3275 0 1925 0 
L 628 0 
L 628 4666 
z
" transform="scale(0.015625)"/>
       <path id="DejaVuSans-61" d="M 2194 1759 
Q 1497 1759 1228 1600 
Q 959 1441 959 1056 
Q 959 750 1161 570 
Q 1363 391 1709 391 
Q 2188 391 2477 730 
Q 2766 1069 2766 1631 
L 2766 1759 
L 2194 1759 
z
M 3341 1997 
L 3341 0 
L 2766 0 
L 2766 531 
Q 2569 213 2275 61 
Q 1981 -91 1556 -91 
Q 1019 -91 701 211 
Q 384 513 384 1019 
Q 384 1609 779 1909 
Q 1175 2209 1959 2209 
L 2766 2209 
L 2766 2266 
Q 2766 2663 2505 2880 
Q 2244 3097 1772 3097 
Q 1472 3097 1187 3025 
Q 903 2953 641 2809 
L 641 3341 
Q 956 3463 1253 3523 
Q 1550 3584 1831 3584 
Q 2591 3584 2966 3190 
Q 3341 2797 3341 1997 
z
" transform="scale(0.015625)"/>
       <path id="DejaVuSans-74" d="M 1172 4494 
L 1172 3500 
L 2356 3500 
L 2356 3053 
L 1172 3053 
L 1172 1153 
Q 1172 725 1289 603 
Q 1406 481 1766 481 
L 2356 481 
L 2356 0 
L 1766 0 
Q 1100 0 847 248 
Q 594 497 594 1153 
L 594 3053 
L 172 3053 
L 172 3500 
L 594 3500 
L 594 4494 
L 1172 4494 
z
" transform="scale(0.015625)"/>
       <path id="DejaVuSans-65" d="M 3597 1894 
L 3597 1613 
L 953 1613 
Q 991 1019 1311 708 
Q 1631 397 2203 397 
Q 2534 397 2845 478 
Q 3156 559 3463 722 
L 3463 178 
Q 3153 47 2828 -22 
Q 2503 -91 2169 -91 
Q 1331 -91 842 396 
Q 353 884 353 1716 
Q 353 2575 817 3079 
Q 1281 3584 2069 3584 
Q 2775 3584 3186 3129 
Q 3597 2675 3597 1894 
z
M 3022 2063 
Q 3016 2534 2758 2815 
Q 2500 3097 2075 3097 
Q 1594 3097 1305 2825 
Q 1016 2553 972 2059 
L 3022 2063 
z
" transform="scale(0.015625)"/>
      </defs>
      <use xlink:href="#DejaVuSans-44"/>
      <use xlink:href="#DejaVuSans-61" x="77.001953"/>
      <use xlink:href="#DejaVuSans-74" x="138.28125"/>
      <use xlink:href="#DejaVuSans-65" x="177.490234"/>
     </g>
    </g>
   </g>
   <g id="matplotlib.axis_2">
    <g id="ytick_1">
     <g id="line2d_13">
      <path d="M 59.24 373.58722 
L 813.13 373.58722 
" clip-path="url(#p4edff2c6eb)" style="fill: none; stroke-dasharray: 1.85,0.8; stroke-dashoffset: 0; stroke: #b0b0b0; stroke-opacity: 0.5; stroke-width: 0.5"/>
     </g>
     <g id="line2d_14">
      <defs>
       <path id="m4091ac107b" d="M 0 0 
L -3.5 0 
" style="stroke: #000000; stroke-width: 0.8"/>
      </defs>
      <g>
       <use xlink:href="#m4091ac107b" x="59.24" y="373.58722" style="stroke: #000000; stroke-width: 0.8"/>
      </g>
     </g>
     <g id="text_8">
      <!-- −100 -->
      <g style="fill: #d62728" transform="translate(24.772813 377.386438) scale(0.1 -0.1)">
       <defs>
        <path id="DejaVuSans-2212" d="M 678 2272 
L 4684 2272 
L 4684 1741 
L 678 1741 
L 678 2272 
z
" transform="scale(0.015625)"/>
       </defs>
       <use xlink:href="#DejaVuSans-2212"/>
       <use xlink:href="#DejaVuSans-31" x="83.789062"/>
       <use xlink:href="#DejaVuSans-30" x="147.412109"/>
       <use xlink:href="#DejaVuSans-30" x="211.035156"/>
      </g>
     </g>
    </g>
    <g id="ytick_2">
     <g id="line2d_15">
      <path d="M 59.24 318.215238 
L 813.13 318.215238 
" clip-path="url(#p4edff2c6eb)" style="fill: none; stroke-dasharray: 1.85,0.8; stroke-dashoffset: 0; stroke: #b0b0b0; stroke-opacity: 0.5; stroke-width: 0.5"/>
     </g>
     <g id="line2d_16">
      <g>
       <use xlink:href="#m4091ac107b" x="59.24" y="318.215238" style="stroke: #000000; stroke-width: 0.8"/>
      </g>
     </g>
     <g id="text_9">
      <!-- −80 -->
      <g style="fill: #d62728" transform="translate(31.135313 322.014457) scale(0.1 -0.1)">
       <defs>
        <path id="DejaVuSans-38" d="M 2034 2216 
Q 1584 2216 1326 1975 
Q 1069 1734 1069 1313 
Q 1069 891 1326 650 
Q 1584 409 2034 409 
Q 2484 409 2743 651 
Q 3003 894 3003 1313 
Q 3003 1734 2745 1975 
Q 2488 2216 2034 2216 
z
M 1403 2484 
Q 997 2584 770 2862 
Q 544 3141 544 3541 
Q 544 4100 942 4425 
Q 1341 4750 2034 4750 
Q 2731 4750 3128 4425 
Q 3525 4100 3525 3541 
Q 3525 3141 3298 2862 
Q 3072 2584 2669 2484 
Q 3125 2378 3379 2068 
Q 3634 1759 3634 1313 
Q 3634 634 3220 271 
Q 2806 -91 2034 -91 
Q 1263 -91 848 271 
Q 434 634 434 1313 
Q 434 1759 690 2068 
Q 947 2378 1403 2484 
z
M 1172 3481 
Q 1172 3119 1398 2916 
Q 1625 2713 2034 2713 
Q 2441 2713 2670 2916 
Q 2900 3119 2900 3481 
Q 2900 3844 2670 4047 
Q 2441 4250 2034 4250 
Q 1625 4250 1398 4047 
Q 1172 3844 1172 3481 
z
" transform="scale(0.015625)"/>
       </defs>
       <use xlink:href="#DejaVuSans-2212"/>
       <use xlink:href="#DejaVuSans-38" x="83.789062"/>
       <use xlink:href="#DejaVuSans-30" x="147.412109"/>
      </g>
     </g>
    </g>
    <g id="ytick_3">
     <g id="line2d_17">
      <path d="M 59.24 262.843257 
L 813.13 262.843257 
" clip-path="url(#p4edff2c6eb)" style="fill: none; stroke-dasharray: 1.85,0.8; stroke-dashoffset: 0; stroke: #b0b0b0; stroke-opacity: 0.5; stroke-width: 0.5"/>
     </g>
     <g id="line2d_18">
      <g>
       <use xlink:href="#m4091ac107b" x="59.24" y="262.843257" style="stroke: #000000; stroke-width: 0.8"/>
      </g>
     </g>
     <g id="text_10">
      <!-- −60 -->
      <g style="fill: #d62728" transform="translate(31.135313 266.642476) scale(0.1 -0.1)">
       <defs>
        <path id="DejaVuSans-36" d="M 2113 2584 
Q 1688 2584 1439 2293 
Q 1191 2003 1191 1497 
Q 1191 994 1439 701 
Q 1688 409 2113 409 
Q 2538 409 2786 701 
Q 3034 994 3034 1497 
Q 3034 2003 2786 2293 
Q 2538 2584 2113 2584 
z
M 3366 4563 
L 3366 3988 
Q 3128 4100 2886 4159 
Q 2644 4219 2406 4219 
Q 1781 4219 1451 3797 
Q 1122 3375 1075 2522 
Q 1259 2794 1537 2939 
Q 1816 3084 2150 3084 
Q 2853 3084 3261 2657 
Q 3669 2231 3669 1497 
Q 3669 778 3244 343 
Q 2819 -91 2113 -91 
Q 1303 -91 875 529 
Q 447 1150 447 2328 
Q 447 3434 972 4092 
Q 1497 4750 2381 4750 
Q 2619 4750 2861 4703 
Q 3103 4656 3366 4563 
z
" transform="scale(0.015625)"/>
       </defs>
       <use xlink:href="#DejaVuSans-2212"/>
       <use xlink:href="#DejaVuSans-36" x="83.789062"/>
       <use xlink:href="#DejaVuSans-30" x="147.412109"/>
      </g>
     </g>
    </g>
    <g id="ytick_4">
     <g id="line2d_19">
      <path d="M 59.24 207.471276 
L 813.13 207.471276 
" clip-path="url(#p4edff2c6eb)" style="fill: none; stroke-dasharray: 1.85,0.8; stroke-dashoffset: 0; stroke: #b0b0b0; stroke-opacity: 0.5; stroke-width: 0.5"/>
     </g>
     <g id="line2d_20">
      <g>
       <use xlink:href="#m4091ac107b" x="59.24" y="207.471276" style="stroke: #000000; stroke-width: 0.8"/>
      </g>
     </g>
     <g id="text_11">
      <!-- −40 -->
      <g style="fill: #d62728" transform="translate(31.135313 211.270495) scale(0.1 -0.1)">
       <use xlink:href="#DejaVuSans-2212"/>
       <use xlink:href="#DejaVuSans-34" x="83.789062"/>
       <use xlink:href="#DejaVuSans-30" x="147.412109"/>
      </g>
     </g>
    </g>
    <g id="ytick_5">
     <g id="line2d_21">
      <path d="M 59.24 152.099295 
L 813.13 152.099295 
" clip-path="url(#p4edff2c6eb)" style="fill: none; stroke-dasharray: 1.85,0.8; stroke-dashoffset: 0; stroke: #b0b0b0; stroke-opacity: 0.5; stroke-width: 0.5"/>
     </g>
     <g id="line2d_22">
      <g>
       <use xlink:href="#m4091ac107b" x="59.24" y="152.099295" style="stroke: #000000; stroke-width: 0.8"/>
      </g>
     </g>
     <g id="text_12">
      <!-- −20 -->
      <g style="fill: #d62728" transform="translate(31.135313 155.898513) scale(0.1 -0.1)">
       <use xlink:href="#DejaVuSans-2212"/>
       <use xlink:href="#DejaVuSans-32" x="83.789062"/>
       <use xlink:href="#DejaVuSans-30" x="147.412109"/>
      </g>
     </g>
    </g>
    <g id="ytick_6">
     <g id="line2d_23">
      <path d="M 59.24 96.727313 
L 813.13 96.727313 
" clip-path="url(#p4edff2c6eb)" style="fill: none; stroke-dasharray: 1.85,0.8; stroke-dashoffset: 0; stroke: #b0b0b0; stroke-opacity: 0.5; stroke-width: 0.5"/>
     </g>
     <g id="line2d_24">
      <g>
       <use xlink:href="#m4091ac107b" x="59.24" y="96.727313" style="stroke: #000000; stroke-width: 0.8"/>
      </g>
     </g>
     <g id="text_13">
      <!-- 0 -->
      <g style="fill: #d62728" transform="translate(45.8775 100.526532) scale(0.1 -0.1)">
       <use xlink:href="#DejaVuSans-30"/>
      </g>
     </g>
    </g>
    <g id="ytick_7">
     <g id="line2d_25">
      <path d="M 59.24 41.355332 
L 813.13 41.355332 
" clip-path="url(#p4edff2c6eb)" style="fill: none; stroke-dasharray: 1.85,0.8; stroke-dashoffset: 0; stroke: #b0b0b0; stroke-opacity: 0.5; stroke-width: 0.5"/>
     </g>
     <g id="line2d_26">
      <g>
       <use xlink:href="#m4091ac107b" x="59.24" y="41.355332" style="stroke: #000000; stroke-width: 0.8"/>
      </g>
     </g>
     <g id="text_14">
      <!-- 20 -->
      <g style="fill: #d62728" transform="translate(39.515 45.154551) scale(0.1 -0.1)">
       <use xlink:href="#DejaVuSans-32"/>
       <use xlink:href="#DejaVuSans-30" x="63.623047"/>
      </g>
     </g>
    </g>
    <g id="text_15">
     <!-- Returns (%) -->
     <g style="fill: #d62728" transform="translate(18.693125 237.8975) rotate(-90) scale(0.1 -0.1)">
      <defs>
       <path id="DejaVuSans-52" d="M 2841 2188 
Q 3044 2119 3236 1894 
Q 3428 1669 3622 1275 
L 4263 0 
L 3584 0 
L 2988 1197 
Q 2756 1666 2539 1819 
Q 2322 1972 1947 1972 
L 1259 1972 
L 1259 0 
L 628 0 
L 628 4666 
L 2053 4666 
Q 2853 4666 3247 4331 
Q 3641 3997 3641 3322 
Q 3641 2881 3436 2590 
Q 3231 2300 2841 2188 
z
M 1259 4147 
L 1259 2491 
L 2053 2491 
Q 2509 2491 2742 2702 
Q 2975 2913 2975 3322 
Q 2975 3731 2742 3939 
Q 2509 4147 2053 4147 
L 1259 4147 
z
" transform="scale(0.015625)"/>
       <path id="DejaVuSans-75" d="M 544 1381 
L 544 3500 
L 1119 3500 
L 1119 1403 
Q 1119 906 1312 657 
Q 1506 409 1894 409 
Q 2359 409 2629 706 
Q 2900 1003 2900 1516 
L 2900 3500 
L 3475 3500 
L 3475 0 
L 2900 0 
L 2900 538 
Q 2691 219 2414 64 
Q 2138 -91 1772 -91 
Q 1169 -91 856 284 
Q 544 659 544 1381 
z
M 1991 3584 
L 1991 3584 
z
" transform="scale(0.015625)"/>
       <path id="DejaVuSans-72" d="M 2631 2963 
Q 2534 3019 2420 3045 
Q 2306 3072 2169 3072 
Q 1681 3072 1420 2755 
Q 1159 2438 1159 1844 
L 1159 0 
L 581 0 
L 581 3500 
L 1159 3500 
L 1159 2956 
Q 1341 3275 1631 3429 
Q 1922 3584 2338 3584 
Q 2397 3584 2469 3576 
Q 2541 3569 2628 3553 
L 2631 2963 
z
" transform="scale(0.015625)"/>
       <path id="DejaVuSans-6e" d="M 3513 2113 
L 3513 0 
L 2938 0 
L 2938 2094 
Q 2938 2591 2744 2837 
Q 2550 3084 2163 3084 
Q 1697 3084 1428 2787 
Q 1159 2491 1159 1978 
L 1159 0 
L 581 0 
L 581 3500 
L 1159 3500 
L 1159 2956 
Q 1366 3272 1645 3428 
Q 1925 3584 2291 3584 
Q 2894 3584 3203 3211 
Q 3513 2838 3513 2113 
z
" transform="scale(0.015625)"/>
       <path id="DejaVuSans-73" d="M 2834 3397 
L 2834 2853 
Q 2591 2978 2328 3040 
Q 2066 3103 1784 3103 
Q 1356 3103 1142 2972 
Q 928 2841 928 2578 
Q 928 2378 1081 2264 
Q 1234 2150 1697 2047 
L 1894 2003 
Q 2506 1872 2764 1633 
Q 3022 1394 3022 966 
Q 3022 478 2636 193 
Q 2250 -91 1575 -91 
Q 1294 -91 989 -36 
Q 684 19 347 128 
L 347 722 
Q 666 556 975 473 
Q 1284 391 1588 391 
Q 1994 391 2212 530 
Q 2431 669 2431 922 
Q 2431 1156 2273 1281 
Q 2116 1406 1581 1522 
L 1381 1569 
Q 847 1681 609 1914 
Q 372 2147 372 2553 
Q 372 3047 722 3315 
Q 1072 3584 1716 3584 
Q 2034 3584 2315 3537 
Q 2597 3491 2834 3397 
z
" transform="scale(0.015625)"/>
       <path id="DejaVuSans-20" transform="scale(0.015625)"/>
       <path id="DejaVuSans-28" d="M 1984 4856 
Q 1566 4138 1362 3434 
Q 1159 2731 1159 2009 
Q 1159 1288 1364 580 
Q 1569 -128 1984 -844 
L 1484 -844 
Q 1016 -109 783 600 
Q 550 1309 550 2009 
Q 550 2706 781 3412 
Q 1013 4119 1484 4856 
L 1984 4856 
z
" transform="scale(0.015625)"/>
       <path id="DejaVuSans-25" d="M 4653 2053 
Q 4381 2053 4226 1822 
Q 4072 1591 4072 1178 
Q 4072 772 4226 539 
Q 4381 306 4653 306 
Q 4919 306 5073 539 
Q 5228 772 5228 1178 
Q 5228 1588 5073 1820 
Q 4919 2053 4653 2053 
z
M 4653 2450 
Q 5147 2450 5437 2106 
Q 5728 1763 5728 1178 
Q 5728 594 5436 251 
Q 5144 -91 4653 -91 
Q 4153 -91 3862 251 
Q 3572 594 3572 1178 
Q 3572 1766 3864 2108 
Q 4156 2450 4653 2450 
z
M 1428 4353 
Q 1159 4353 1004 4120 
Q 850 3888 850 3481 
Q 850 3069 1003 2837 
Q 1156 2606 1428 2606 
Q 1700 2606 1854 2837 
Q 2009 3069 2009 3481 
Q 2009 3884 1853 4118 
Q 1697 4353 1428 4353 
z
M 4250 4750 
L 4750 4750 
L 1831 -91 
L 1331 -91 
L 4250 4750 
z
M 1428 4750 
Q 1922 4750 2215 4408 
Q 2509 4066 2509 3481 
Q 2509 2891 2217 2550 
Q 1925 2209 1428 2209 
Q 931 2209 642 2551 
Q 353 2894 353 3481 
Q 353 4063 643 4406 
Q 934 4750 1428 4750 
z
" transform="scale(0.015625)"/>
       <path id="DejaVuSans-29" d="M 513 4856 
L 1013 4856 
Q 1481 4119 1714 3412 
Q 1947 2706 1947 2009 
Q 1947 1309 1714 600 
Q 1481 -109 1013 -844 
L 513 -844 
Q 928 -128 1133 580 
Q 1338 1288 1338 2009 
Q 1338 2731 1133 3434 
Q 928 4138 513 4856 
z
" transform="scale(0.015625)"/>
      </defs>
      <use xlink:href="#DejaVuSans-52"/>
      <use xlink:href="#DejaVuSans-65" x="64.982422"/>
      <use xlink:href="#DejaVuSans-74" x="126.505859"/>
      <use xlink:href="#DejaVuSans-75" x="165.714844"/>
      <use xlink:href="#DejaVuSans-72" x="229.09375"/>
      <use xlink:href="#DejaVuSans-6e" x="268.457031"/>
      <use xlink:href="#DejaVuSans-73" x="331.835938"/>
      <use xlink:href="#DejaVuSans-20" x="383.935547"/>
      <use xlink:href="#DejaVuSans-28" x="415.722656"/>
      <use xlink:href="#DejaVuSans-25" x="454.736328"/>
      <use xlink:href="#DejaVuSans-29" x="549.755859"/>
     </g>
    </g>
   </g>
   <g id="line2d_27">
    <path d="M 93.507727 96.727313 
L 93.883882 96.727313 
L 94.260037 84.689227 
L 142.784042 84.689227 
L 143.160197 79.845357 
L 143.912507 73.76317 
L 144.288662 76.745766 
L 145.417128 81.940619 
L 145.793283 77.953695 
L 146.169438 79.743557 
L 146.545593 85.082753 
L 146.921748 84.850284 
L 148.426368 85.751292 
L 148.802523 87.687017 
L 149.178678 85.998956 
L 149.554833 90.625551 
L 150.683299 95.776341 
L 151.059454 86.55202 
L 152.187919 74.490966 
L 153.316384 71.218163 
L 153.692539 71.581301 
L 154.068694 72.89103 
L 154.444849 72.017371 
L 177.014154 72.017371 
L 177.390309 64.767055 
L 177.766464 74.255179 
L 178.142619 74.847717 
L 178.518774 69.474271 
L 179.647239 64.983617 
L 180.023394 66.355176 
L 180.399549 62.801453 
L 180.775705 63.538366 
L 181.15186 73.432544 
L 182.280325 69.633685 
L 182.65648 70.384132 
L 183.032635 70.239758 
L 183.40879 64.89639 
L 183.784945 65.097913 
L 185.289565 68.896772 
L 186.041876 57.357325 
L 186.418031 57.803984 
L 187.546496 60.231283 
L 187.922651 61.790831 
L 188.298806 58.584509 
L 188.674961 57.110684 
L 189.051116 59.349996 
L 190.179581 59.653784 
L 190.555736 58.527361 
L 190.931892 58.352908 
L 191.308047 57.646074 
L 191.684202 60.99677 
L 192.812667 60.303471 
L 193.188822 63.842154 
L 193.564977 60.144057 
L 193.941132 59.849292 
L 194.317287 64.401606 
L 195.445752 61.022336 
L 195.821907 63.836139 
L 196.198063 69.635189 
L 196.574218 65.706994 
L 196.950373 60.500482 
L 198.078838 61.487042 
L 198.454993 61.487042 
L 198.831148 57.035943 
L 222.152763 57.035943 
L 222.528918 54.950418 
L 222.905073 51.847425 
L 223.281228 49.760494 
L 224.409693 46.851438 
L 224.785848 47.476815 
L 225.162003 47.368603 
L 225.914313 43.387273 
L 250.740548 43.387273 
L 251.116703 53.881664 
L 251.492858 53.140424 
L 251.869014 69.722127 
L 252.245169 67.055817 
L 253.373634 50.969171 
L 253.749789 62.738871 
L 254.125944 50.058428 
L 254.502099 60.176146 
L 254.878254 66.821742 
L 256.006719 90.466072 
L 256.382874 72.564666 
L 256.75903 373.524054 
L 264.282131 373.532727 
L 778.862273 373.532727 
L 778.862273 373.532727 
" clip-path="url(#p4edff2c6eb)" style="fill: none; stroke: #d62728; stroke-width: 1.5; stroke-linecap: square"/>
   </g>
   <g id="patch_3">
    <path d="M 59.24 390.04 
L 59.24 26.88 
" style="fill: none; stroke: #000000; stroke-width: 0.8; stroke-linejoin: miter; stroke-linecap: square"/>
   </g>
   <g id="patch_4">
    <path d="M 813.13 390.04 
L 813.13 26.88 
" style="fill: none; stroke: #000000; stroke-width: 0.8; stroke-linejoin: miter; stroke-linecap: square"/>
   </g>
   <g id="patch_5">
    <path d="M 59.24 390.04 
L 813.13 390.04 
" style="fill: none; stroke: #000000; stroke-width: 0.8; stroke-linejoin: miter; stroke-linecap: square"/>
   </g>
   <g id="patch_6">
    <path d="M 59.24 26.88 
L 813.13 26.88 
" style="fill: none; stroke: #000000; stroke-width: 0.8; stroke-linejoin: miter; stroke-linecap: square"/>
   </g>
  </g>
  <g id="axes_2">
   <g id="matplotlib.axis_3">
    <g id="ytick_8">
     <g id="line2d_28">
      <defs>
       <path id="mbca7298245" d="M 0 0 
L 3.5 0 
" style="stroke: #000000; stroke-width: 0.8"/>
      </defs>
      <g>
       <use xlink:href="#mbca7298245" x="813.13" y="374.995866" style="stroke: #000000; stroke-width: 0.8"/>
      </g>
     </g>
     <g id="text_16">
      <!-- 150 -->
      <g style="fill: #1f77b4" transform="translate(820.13 378.795084) scale(0.1 -0.1)">
       <defs>
        <path id="DejaVuSans-35" d="M 691 4666 
L 3169 4666 
L 3169 4134 
L 1269 4134 
L 1269 2991 
Q 1406 3038 1543 3061 
Q 1681 3084 1819 3084 
Q 2600 3084 3056 2656 
Q 3513 2228 3513 1497 
Q 3513 744 3044 326 
Q 2575 -91 1722 -91 
Q 1428 -91 1123 -41 
Q 819 9 494 109 
L 494 744 
Q 775 591 1075 516 
Q 1375 441 1709 441 
Q 2250 441 2565 725 
Q 2881 1009 2881 1497 
Q 2881 1984 2565 2268 
Q 2250 2553 1709 2553 
Q 1456 2553 1204 2497 
Q 953 2441 691 2322 
L 691 4666 
z
" transform="scale(0.015625)"/>
       </defs>
       <use xlink:href="#DejaVuSans-31"/>
       <use xlink:href="#DejaVuSans-35" x="63.623047"/>
       <use xlink:href="#DejaVuSans-30" x="127.246094"/>
      </g>
     </g>
    </g>
    <g id="ytick_9">
     <g id="line2d_29">
      <g>
       <use xlink:href="#mbca7298245" x="813.13" y="325.7651" style="stroke: #000000; stroke-width: 0.8"/>
      </g>
     </g>
     <g id="text_17">
      <!-- 200 -->
      <g style="fill: #1f77b4" transform="translate(820.13 329.564318) scale(0.1 -0.1)">
       <use xlink:href="#DejaVuSans-32"/>
       <use xlink:href="#DejaVuSans-30" x="63.623047"/>
       <use xlink:href="#DejaVuSans-30" x="127.246094"/>
      </g>
     </g>
    </g>
    <g id="ytick_10">
     <g id="line2d_30">
      <g>
       <use xlink:href="#mbca7298245" x="813.13" y="276.534334" style="stroke: #000000; stroke-width: 0.8"/>
      </g>
     </g>
     <g id="text_18">
      <!-- 250 -->
      <g style="fill: #1f77b4" transform="translate(820.13 280.333553) scale(0.1 -0.1)">
       <use xlink:href="#DejaVuSans-32"/>
       <use xlink:href="#DejaVuSans-35" x="63.623047"/>
       <use xlink:href="#DejaVuSans-30" x="127.246094"/>
      </g>
     </g>
    </g>
    <g id="ytick_11">
     <g id="line2d_31">
      <g>
       <use xlink:href="#mbca7298245" x="813.13" y="227.303568" style="stroke: #000000; stroke-width: 0.8"/>
      </g>
     </g>
     <g id="text_19">
      <!-- 300 -->
      <g style="fill: #1f77b4" transform="translate(820.13 231.102787) scale(0.1 -0.1)">
       <use xlink:href="#DejaVuSans-33"/>
       <use xlink:href="#DejaVuSans-30" x="63.623047"/>
       <use xlink:href="#DejaVuSans-30" x="127.246094"/>
      </g>
     </g>
    </g>
    <g id="ytick_12">
     <g id="line2d_32">
      <g>
       <use xlink:href="#mbca7298245" x="813.13" y="178.072802" style="stroke: #000000; stroke-width: 0.8"/>
      </g>
     </g>
     <g id="text_20">
      <!-- 350 -->
      <g style="fill: #1f77b4" transform="translate(820.13 181.872021) scale(0.1 -0.1)">
       <use xlink:href="#DejaVuSans-33"/>
       <use xlink:href="#DejaVuSans-35" x="63.623047"/>
       <use xlink:href="#DejaVuSans-30" x="127.246094"/>
      </g>
     </g>
    </g>
    <g id="ytick_13">
     <g id="line2d_33">
      <g>
       <use xlink:href="#mbca7298245" x="813.13" y="128.842036" style="stroke: #000000; stroke-width: 0.8"/>
      </g>
     </g>
     <g id="text_21">
      <!-- 400 -->
      <g style="fill: #1f77b4" transform="translate(820.13 132.641255) scale(0.1 -0.1)">
       <use xlink:href="#DejaVuSans-34"/>
       <use xlink:href="#DejaVuSans-30" x="63.623047"/>
       <use xlink:href="#DejaVuSans-30" x="127.246094"/>
      </g>
     </g>
    </g>
    <g id="ytick_14">
     <g id="line2d_34">
      <g>
       <use xlink:href="#mbca7298245" x="813.13" y="79.61127" style="stroke: #000000; stroke-width: 0.8"/>
      </g>
     </g>
     <g id="text_22">
      <!-- 450 -->
      <g style="fill: #1f77b4" transform="translate(820.13 83.410489) scale(0.1 -0.1)">
       <use xlink:href="#DejaVuSans-34"/>
       <use xlink:href="#DejaVuSans-35" x="63.623047"/>
       <use xlink:href="#DejaVuSans-30" x="127.246094"/>
      </g>
     </g>
    </g>
    <g id="ytick_15">
     <g id="line2d_35">
      <g>
       <use xlink:href="#mbca7298245" x="813.13" y="30.380504" style="stroke: #000000; stroke-width: 0.8"/>
      </g>
     </g>
     <g id="text_23">
      <!-- 500 -->
      <g style="fill: #1f77b4" transform="translate(820.13 34.179723) scale(0.1 -0.1)">
       <use xlink:href="#DejaVuSans-35"/>
       <use xlink:href="#DejaVuSans-30" x="63.623047"/>
       <use xlink:href="#DejaVuSans-30" x="127.246094"/>
      </g>
     </g>
    </g>
    <g id="text_24">
     <!-- Close Price -->
     <g style="fill: #1f77b4" transform="translate(850.815938 235.867812) rotate(-90) scale(0.1 -0.1)">
      <defs>
       <path id="DejaVuSans-43" d="M 4122 4306 
L 4122 3641 
Q 3803 3938 3442 4084 
Q 3081 4231 2675 4231 
Q 1875 4231 1450 3742 
Q 1025 3253 1025 2328 
Q 1025 1406 1450 917 
Q 1875 428 2675 428 
Q 3081 428 3442 575 
Q 3803 722 4122 1019 
L 4122 359 
Q 3791 134 3420 21 
Q 3050 -91 2638 -91 
Q 1578 -91 968 557 
Q 359 1206 359 2328 
Q 359 3453 968 4101 
Q 1578 4750 2638 4750 
Q 3056 4750 3426 4639 
Q 3797 4528 4122 4306 
z
" transform="scale(0.015625)"/>
       <path id="DejaVuSans-6c" d="M 603 4863 
L 1178 4863 
L 1178 0 
L 603 0 
L 603 4863 
z
" transform="scale(0.015625)"/>
       <path id="DejaVuSans-6f" d="M 1959 3097 
Q 1497 3097 1228 2736 
Q 959 2375 959 1747 
Q 959 1119 1226 758 
Q 1494 397 1959 397 
Q 2419 397 2687 759 
Q 2956 1122 2956 1747 
Q 2956 2369 2687 2733 
Q 2419 3097 1959 3097 
z
M 1959 3584 
Q 2709 3584 3137 3096 
Q 3566 2609 3566 1747 
Q 3566 888 3137 398 
Q 2709 -91 1959 -91 
Q 1206 -91 779 398 
Q 353 888 353 1747 
Q 353 2609 779 3096 
Q 1206 3584 1959 3584 
z
" transform="scale(0.015625)"/>
       <path id="DejaVuSans-50" d="M 1259 4147 
L 1259 2394 
L 2053 2394 
Q 2494 2394 2734 2622 
Q 2975 2850 2975 3272 
Q 2975 3691 2734 3919 
Q 2494 4147 2053 4147 
L 1259 4147 
z
M 628 4666 
L 2053 4666 
Q 2838 4666 3239 4311 
Q 3641 3956 3641 3272 
Q 3641 2581 3239 2228 
Q 2838 1875 2053 1875 
L 1259 1875 
L 1259 0 
L 628 0 
L 628 4666 
z
" transform="scale(0.015625)"/>
       <path id="DejaVuSans-69" d="M 603 3500 
L 1178 3500 
L 1178 0 
L 603 0 
L 603 3500 
z
M 603 4863 
L 1178 4863 
L 1178 4134 
L 603 4134 
L 603 4863 
z
" transform="scale(0.015625)"/>
       <path id="DejaVuSans-63" d="M 3122 3366 
L 3122 2828 
Q 2878 2963 2633 3030 
Q 2388 3097 2138 3097 
Q 1578 3097 1268 2742 
Q 959 2388 959 1747 
Q 959 1106 1268 751 
Q 1578 397 2138 397 
Q 2388 397 2633 464 
Q 2878 531 3122 666 
L 3122 134 
Q 2881 22 2623 -34 
Q 2366 -91 2075 -91 
Q 1284 -91 818 406 
Q 353 903 353 1747 
Q 353 2603 823 3093 
Q 1294 3584 2113 3584 
Q 2378 3584 2631 3529 
Q 2884 3475 3122 3366 
z
" transform="scale(0.015625)"/>
      </defs>
      <use xlink:href="#DejaVuSans-43"/>
      <use xlink:href="#DejaVuSans-6c" x="69.824219"/>
      <use xlink:href="#DejaVuSans-6f" x="97.607422"/>
      <use xlink:href="#DejaVuSans-73" x="158.789062"/>
      <use xlink:href="#DejaVuSans-65" x="210.888672"/>
      <use xlink:href="#DejaVuSans-20" x="272.412109"/>
      <use xlink:href="#DejaVuSans-50" x="304.199219"/>
      <use xlink:href="#DejaVuSans-72" x="362.751953"/>
      <use xlink:href="#DejaVuSans-69" x="403.865234"/>
      <use xlink:href="#DejaVuSans-63" x="431.648438"/>
      <use xlink:href="#DejaVuSans-65" x="486.628906"/>
     </g>
    </g>
   </g>
   <g id="line2d_36">
    <path d="M 93.507727 365.777897 
L 93.883882 373.532727 
L 94.260037 367.047066 
L 95.388503 365.308236 
L 95.764658 363.794882 
L 96.140813 361.810882 
L 96.516968 361.05962 
L 96.893123 361.153159 
L 98.021588 362.75119 
L 98.397743 360.392051 
L 98.773898 360.222697 
L 99.150053 358.982082 
L 99.526208 356.547128 
L 101.030829 359.28239 
L 101.406984 358.897405 
L 101.783139 357.214698 
L 102.159294 354.64879 
L 103.287759 356.745036 
L 103.663914 358.409036 
L 104.040069 353.689775 
L 104.416224 353.342206 
L 104.79238 352.195129 
L 105.920845 349.51599 
L 106.297 348.087314 
L 106.673155 347.476852 
L 107.04931 349.845837 
L 107.425465 348.726329 
L 108.55393 348.63279 
L 108.930085 346.273652 
L 109.30624 346.000914 
L 109.682395 345.587375 
L 110.058551 344.233529 
L 111.563171 344.092729 
L 111.939326 343.838699 
L 112.315481 343.876114 
L 112.691636 341.489406 
L 114.196256 340.351191 
L 114.572411 340.351191 
L 114.948567 340.934083 
L 115.324722 339.769283 
L 116.453187 340.821837 
L 116.829342 341.432299 
L 117.205497 342.607929 
L 117.581652 344.16756 
L 117.957807 344.148852 
L 119.086272 340.229099 
L 119.838582 338.180114 
L 120.214738 337.813837 
L 120.590893 335.736299 
L 121.719358 335.022453 
L 122.095513 334.570515 
L 122.471668 335.144545 
L 122.847823 330.470576 
L 123.223978 335.354268 
L 124.352443 336.11833 
L 124.728598 335.034268 
L 125.104754 336.212853 
L 125.480909 335.430084 
L 125.857064 333.534699 
L 126.985529 330.885099 
L 127.361684 330.338638 
L 127.737839 328.716976 
L 128.113994 329.753776 
L 128.490149 328.840053 
L 129.618614 328.066146 
L 129.994769 328.962146 
L 130.370925 327.4163 
L 130.74708 327.510823 
L 131.123235 326.246577 
L 132.2517 326.246577 
L 133.00401 324.691869 
L 133.380165 324.333469 
L 134.884785 323.720054 
L 135.260941 321.428854 
L 135.637096 321.296915 
L 136.013251 321.551931 
L 136.389406 321.9763 
L 137.517871 321.844362 
L 137.894026 321.485962 
L 138.646336 323.182454 
L 139.022491 321.222085 
L 140.150956 322.579869 
L 140.527112 326.831438 
L 140.903267 327.189838 
L 141.279422 328.500361 
L 141.655577 327.9539 
L 142.784042 335.504914 
L 143.160197 332.365961 
L 143.912507 328.424546 
L 144.288662 330.357346 
L 145.417128 333.723745 
L 145.793283 331.140115 
L 146.169438 332.299992 
L 146.545593 335.75993 
L 146.921748 335.609284 
L 148.426368 336.193161 
L 148.802523 337.44756 
L 149.178678 336.353653 
L 149.554833 339.351807 
L 150.683299 342.689652 
L 151.059454 336.712053 
L 152.187919 328.896176 
L 153.316384 326.775315 
L 153.692539 327.010638 
L 154.068694 327.859377 
L 154.444849 327.293223 
L 154.821004 329.046823 
L 155.94947 328.660853 
L 156.325625 325.407684 
L 156.70178 324.455561 
L 157.077935 321.721285 
L 157.45409 322.7827 
L 158.582555 322.953038 
L 158.95871 326.451377 
L 159.334865 324.569777 
L 159.71102 323.652115 
L 160.087175 323.265161 
L 161.215641 320.342823 
L 161.591796 319.747131 
L 161.967951 318.290885 
L 162.720261 318.603008 
L 163.848726 320.116362 
L 164.224881 319.350331 
L 164.601036 317.789716 
L 164.977191 317.108362 
L 165.353346 315.46307 
L 166.481812 314.953039 
L 166.857967 316.711562 
L 167.234122 317.212731 
L 167.610277 315.756485 
L 167.986432 316.8819 
L 169.114897 314.649777 
L 169.491052 313.468239 
L 169.867207 311.510824 
L 170.243362 313.004485 
L 170.619518 311.548239 
L 171.747983 311.87907 
L 172.124138 313.156116 
L 172.500293 316.210393 
L 172.876448 317.251131 
L 173.252603 321.0803 
L 174.381068 329.363869 
L 174.757223 326.537038 
L 175.133378 325.194023 
L 175.509533 320.305408 
L 175.885689 322.612361 
L 177.014154 325.269838 
L 177.390309 320.523008 
L 177.766464 326.734946 
L 178.142619 327.122884 
L 178.518774 323.604854 
L 179.647239 320.664792 
L 180.023394 321.562762 
L 180.399549 319.236116 
L 180.775705 319.718577 
L 181.15186 326.196361 
L 182.280325 323.709223 
L 182.65648 324.200546 
L 183.032635 324.106023 
L 183.40879 320.607685 
L 183.784945 320.739623 
L 185.289565 323.226761 
L 186.041876 315.671808 
L 186.418031 315.964239 
L 187.546496 317.553408 
L 187.922651 318.574454 
L 188.298806 316.475254 
L 188.674961 315.510331 
L 189.051116 316.976423 
L 190.179581 317.175316 
L 190.555736 316.437839 
L 190.931892 316.323623 
L 191.308047 315.860854 
L 191.684202 318.054577 
L 192.812667 317.60067 
L 193.188822 319.917469 
L 193.564977 317.4963 
L 193.941132 317.303316 
L 194.317287 320.283746 
L 195.445752 318.071316 
L 195.821907 319.913531 
L 196.198063 323.710208 
L 196.574218 321.138392 
L 196.950373 317.729654 
L 198.078838 318.375562 
L 198.454993 322.343562 
L 198.831148 319.486208 
L 199.207303 318.261346 
L 199.583458 315.27107 
L 200.711923 315.280916 
L 201.088079 313.126578 
L 201.464234 314.957962 
L 201.840389 315.157839 
L 202.216544 317.350577 
L 203.345009 315.290762 
L 203.721164 318.099869 
L 204.097319 317.891131 
L 204.849629 312.253224 
L 205.978095 309.841901 
L 206.35425 311.568916 
L 206.730405 310.145162 
L 207.10656 310.392301 
L 207.482715 307.62947 
L 208.61118 306.651747 
L 209.36349 307.07907 
L 209.739645 305.332363 
L 210.1158 304.164609 
L 211.244266 303.889901 
L 211.996576 302.70344 
L 212.372731 302.969286 
L 212.748886 301.136917 
L 213.877351 300.615071 
L 214.253506 299.883501 
L 215.005816 302.256424 
L 215.381971 302.313532 
L 216.510437 299.077102 
L 216.886592 298.95304 
L 217.262747 297.567686 
L 218.015057 298.516855 
L 219.143522 301.706024 
L 219.519677 303.462578 
L 220.271987 302.11464 
L 220.648142 299.693471 
L 221.776608 300.842517 
L 222.152763 300.93704 
L 222.528918 299.475871 
L 222.905073 297.30184 
L 223.281228 295.839686 
L 224.409693 293.801533 
L 224.785848 294.239686 
L 225.162003 294.163871 
L 225.914313 291.374456 
L 227.042779 290.593656 
L 227.418934 290.574948 
L 228.171244 288.785902 
L 228.547399 288.871564 
L 229.675864 290.260856 
L 230.052019 289.622825 
L 230.804329 285.349595 
L 231.180484 287.842641 
L 232.30895 287.062825 
L 232.685105 287.091379 
L 233.437415 281.931995 
L 233.81357 282.45581 
L 234.942035 279.238088 
L 235.31819 280.532857 
L 235.694345 280.33298 
L 236.0705 277.010888 
L 236.446656 275.554642 
L 237.951276 275.915995 
L 238.703586 273.670088 
L 239.079741 274.955011 
L 240.208206 280.865657 
L 240.584361 276.268488 
L 240.960516 276.021349 
L 241.336671 274.050149 
L 241.712827 280.74258 
L 242.841292 277.706026 
L 243.217447 271.300119 
L 243.593602 270.109719 
L 243.969757 268.082396 
L 244.345912 270.462211 
L 245.474377 267.321288 
L 245.850532 267.787011 
L 246.226687 265.074396 
L 246.602843 265.598212 
L 246.978998 264.560427 
L 248.483618 265.502704 
L 248.859773 262.628612 
L 249.235928 265.035996 
L 249.612083 270.74775 
L 250.740548 281.056672 
L 251.116703 288.737656 
L 251.492858 288.195133 
L 251.869014 300.331501 
L 252.245169 298.379994 
L 253.373634 286.605964 
L 253.749789 295.220363 
L 254.125944 285.939379 
L 254.502099 293.344671 
L 254.878254 298.208671 
L 256.006719 315.51427 
L 256.382874 302.411994 
L 256.75903 313.009408 
L 257.135185 333.640053 
L 257.51134 312.818393 
L 258.639805 341.122145 
L 259.01596 330.181099 
L 259.392115 336.650022 
L 259.76827 336.353653 
L 260.144425 343.854452 
L 261.27289 345.441652 
L 261.649046 327.01753 
L 262.025201 326.922023 
L 262.401356 314.825039 
L 262.777511 324.017408 
L 263.905976 316.153285 
L 264.282131 320.204977 
L 264.658286 329.779376 
L 265.034441 326.005346 
L 265.410596 329.177776 
L 266.539061 312.694331 
L 266.915217 314.289408 
L 267.291372 308.30787 
L 267.667527 307.801778 
L 269.172147 307.314393 
L 269.548302 298.571009 
L 269.924457 303.425163 
L 270.300612 301.150701 
L 270.676767 297.586394 
L 271.805233 301.323009 
L 272.181388 310.41987 
L 272.557543 302.373594 
L 272.933698 303.501963 
L 273.309853 299.192302 
L 274.438318 296.650025 
L 274.814473 299.517225 
L 275.190628 289.990087 
L 275.566783 291.442394 
L 275.942938 298.083625 
L 277.071404 295.321779 
L 277.447559 291.805717 
L 277.823714 290.142702 
L 278.576024 282.450887 
L 279.704489 280.797718 
L 280.456799 290.19981 
L 280.832954 287.400548 
L 281.209109 286.015195 
L 282.337575 280.310334 
L 282.71373 281.045841 
L 283.089885 275.513288 
L 283.46604 278.570518 
L 283.842195 277.37618 
L 285.346815 277.204857 
L 285.72297 275.838211 
L 286.099125 276.334457 
L 286.47528 273.258519 
L 287.603746 272.455073 
L 288.356056 267.868734 
L 288.732211 270.372611 
L 289.108366 264.275873 
L 290.612986 262.106766 
L 290.989141 258.227381 
L 291.365296 273.295934 
L 291.741451 270.228857 
L 292.869917 267.084981 
L 293.246072 261.705043 
L 293.622227 261.905904 
L 293.998382 260.48215 
L 294.374537 262.220981 
L 295.879157 255.654581 
L 296.255312 261.689289 
L 296.631467 258.221474 
L 297.007622 263.107135 
L 298.136088 260.463443 
L 298.512243 255.702828 
L 298.888398 255.070705 
L 299.264553 253.604612 
L 300.769173 249.351074 
L 301.145328 251.860859 
L 301.521483 247.157351 
L 301.897638 246.046705 
L 302.273794 246.58332 
L 303.402259 252.885843 
L 303.778414 249.658274 
L 304.154569 247.95292 
L 304.530724 251.420736 
L 304.906879 249.81089 
L 306.035344 242.645844 
L 306.411499 245.347628 
L 306.787654 243.259259 
L 307.16381 250.126951 
L 307.539965 253.643012 
L 308.66843 249.083259 
L 309.044585 252.350212 
L 309.42074 247.723505 
L 309.796895 246.343074 
L 310.17305 239.83969 
L 311.301515 233.220121 
L 311.67767 232.271937 
L 312.053825 230.997845 
L 312.429981 227.481783 
L 312.806136 232.252245 
L 313.934601 233.171875 
L 314.310756 238.296798 
L 314.686911 232.061229 
L 315.063066 231.352306 
L 315.439221 232.070091 
L 316.943841 228.707629 
L 317.319997 229.167445 
L 318.072307 222.289907 
L 319.200772 219.847076 
L 319.576927 218.400676 
L 319.953082 212.107015 
L 320.329237 212.299015 
L 320.705392 209.299877 
L 321.833857 208.342831 
L 322.210012 200.860739 
L 322.586168 198.561662 
L 322.962323 217.730153 
L 323.338478 222.577414 
L 324.843098 235.653106 
L 325.219253 226.590706 
L 325.595408 232.837106 
L 325.971563 235.162767 
L 327.100028 229.047322 
L 327.476184 225.84043 
L 327.852339 230.285968 
L 328.228494 232.907014 
L 328.604649 237.160552 
L 329.733114 234.52966 
L 330.109269 229.748368 
L 330.485424 238.504552 
L 330.861579 237.631198 
L 331.237734 230.448429 
L 332.366199 225.033045 
L 332.742355 225.849291 
L 333.11851 223.640799 
L 333.494665 219.915999 
L 333.87082 226.886091 
L 334.999285 220.165107 
L 335.37544 224.331999 
L 335.751595 218.686215 
L 336.12775 217.352061 
L 336.503905 212.195631 
L 337.632371 204.369908 
L 338.760836 208.883385 
L 339.136991 209.881785 
L 340.265456 214.663077 
L 340.641611 214.270215 
L 341.393921 216.592923 
L 341.770076 216.776061 
L 342.898542 223.381845 
L 343.274697 222.037845 
L 343.650852 234.039321 
L 344.027007 229.949229 
L 344.403162 236.56486 
L 345.531627 235.970152 
L 345.907782 230.775322 
L 346.660092 209.574585 
L 347.036247 208.115385 
L 348.164713 211.399077 
L 348.540868 217.831569 
L 348.917023 210.380984 
L 349.293178 212.81003 
L 349.669333 210.371138 
L 350.797798 207.299139 
L 351.173953 208.210892 
L 351.550108 211.485723 
L 351.926263 208.076985 
L 352.302418 210.601538 
L 353.430884 210.400677 
L 353.807039 206.6936 
L 354.183194 205.215693 
L 354.935504 202.862462 
L 356.063969 200.712062 
L 356.440124 198.04277 
L 356.816279 198.436616 
L 357.192434 198.23477 
L 357.568589 194.595632 
L 358.697055 193.779386 
L 359.07321 192.291632 
L 359.449365 199.070708 
L 359.82552 197.639078 
L 360.201675 198.216062 
L 361.33014 196.823816 
L 361.706295 191.408432 
L 362.458605 185.957602 
L 362.834761 186.862463 
L 363.963226 185.967448 
L 364.339381 182.330279 
L 364.715536 185.428863 
L 365.091691 183.186894 
L 366.596311 180.801171 
L 366.972466 183.061848 
L 367.724776 182.311571 
L 369.229397 187.968186 
L 369.605552 185.217171 
L 369.981707 190.816678 
L 370.357862 181.36831 
L 370.734017 178.877233 
L 371.862482 181.811386 
L 372.238637 182.311571 
L 372.614792 180.608187 
L 372.990948 182.744802 
L 373.367103 186.322894 
L 374.871723 182.128433 
L 375.247878 175.683141 
L 375.624033 171.660987 
L 376.000188 172.690895 
L 377.128653 170.333726 
L 377.504808 171.459141 
L 377.880963 178.510956 
L 378.257119 176.68351 
L 378.633274 184.70714 
L 379.761739 176.221725 
L 380.137894 170.699018 
L 380.514049 171.997726 
L 380.890204 166.109726 
L 381.266359 166.042772 
L 382.394824 161.953665 
L 382.770979 161.838465 
L 383.147135 162.482403 
L 383.52329 158.557726 
L 383.899445 156.508742 
L 385.404065 157.92265 
L 385.78022 161.828619 
L 386.156375 163.483757 
L 386.53253 163.050526 
L 387.660995 171.805726 
L 388.03715 173.806464 
L 388.413306 169.00548 
L 388.789461 182.138279 
L 389.165616 179.70431 
L 390.294081 168.390095 
L 390.670236 174.653233 
L 391.422546 192.837109 
L 391.798701 187.49754 
L 392.927166 196.146401 
L 393.303322 183.648679 
L 393.679477 185.092125 
L 394.055632 176.750464 
L 394.431787 179.271079 
L 395.560252 175.038218 
L 395.936407 173.171387 
L 396.312562 173.066033 
L 396.688717 184.273909 
L 397.064872 184.475755 
L 398.193337 178.299264 
L 398.569493 180.896679 
L 398.945648 186.14074 
L 399.321803 186.06394 
L 399.697958 178.036371 
L 400.826423 180.628863 
L 401.202578 182.796986 
L 401.954888 169.959572 
L 403.459509 163.713172 
L 403.835664 164.35908 
L 404.211819 163.068249 
L 404.587974 157.592803 
L 404.964129 154.557234 
L 406.092594 155.771265 
L 406.468749 151.820004 
L 406.844904 155.839204 
L 407.221059 149.603635 
L 407.597214 150.181604 
L 408.72568 153.699634 
L 409.101835 157.439203 
L 409.47799 153.593296 
L 409.854145 157.02468 
L 410.2303 151.694958 
L 411.358765 148.687943 
L 411.73492 149.998466 
L 412.111075 152.947388 
L 412.48723 154.084619 
L 412.863385 159.385788 
L 413.991851 160.841049 
L 414.368006 168.176433 
L 414.744161 169.23588 
L 415.120316 167.077603 
L 415.496471 163.664926 
L 416.624936 172.946895 
L 417.001091 173.255079 
L 417.377246 183.539386 
L 417.753401 179.683633 
L 418.129556 171.741726 
L 419.258022 174.383448 
L 419.634177 176.667756 
L 420.010332 175.452741 
L 420.386487 168.58111 
L 420.762642 170.277603 
L 421.891107 164.147388 
L 422.267262 164.031203 
L 422.643417 163.328188 
L 423.019572 164.841541 
L 423.395727 163.877603 
L 424.900348 165.487449 
L 425.276503 163.453234 
L 425.652658 167.299141 
L 426.028813 160.581111 
L 427.157278 160.079942 
L 427.533433 159.44388 
L 427.909588 159.636865 
L 428.285743 156.368927 
L 428.661899 154.124004 
L 429.790364 150.056558 
L 430.166519 152.620496 
L 430.542674 154.17225 
L 430.918829 149.420496 
L 431.294984 152.407819 
L 432.423449 149.111327 
L 432.799604 145.526343 
L 433.175759 145.786281 
L 433.551914 143.203635 
L 433.92807 143.290281 
L 435.056535 139.245482 
L 435.43269 136.504313 
L 435.808845 137.768559 
L 436.185 137.643512 
L 436.561155 133.001051 
L 438.065775 131.070221 
L 438.44193 129.563759 
L 438.818086 133.395882 
L 439.194241 129.718344 
L 440.322706 129.757728 
L 440.698861 128.908005 
L 441.075016 127.199698 
L 441.827326 134.380497 
L 442.955791 139.082035 
L 443.331946 132.846467 
L 443.708101 128.869605 
L 444.084257 126.253482 
L 444.460412 122.363267 
L 445.588877 122.266775 
L 445.965032 126.629606 
L 446.341187 126.215082 
L 446.717342 124.255698 
L 447.093497 124.796252 
L 448.221962 125.780867 
L 448.598117 123.570406 
L 448.974273 122.575944 
L 449.350428 120.046468 
L 449.726583 120.674652 
L 450.855048 121.658283 
L 451.231203 124.680067 
L 451.607358 125.027636 
L 452.359668 121.060621 
L 453.488133 120.317237 
L 453.864288 123.753544 
L 454.240444 128.849913 
L 454.616599 125.886221 
L 454.992754 120.867637 
L 456.121219 115.219883 
L 456.497374 114.640929 
L 456.873529 114.612376 
L 457.249684 117.005975 
L 457.625839 112.363514 
L 458.754304 108.299022 
L 459.13046 110.828499 
L 459.88277 110.239699 
L 460.258925 108.250776 
L 461.763545 108.685976 
L 462.1397 111.089422 
L 462.515855 112.430468 
L 462.89201 116.53336 
L 464.020476 116.503822 
L 464.396631 117.015822 
L 464.772786 113.549976 
L 465.148941 112.864683 
L 465.525096 118.366714 
L 466.653561 126.11859 
L 467.029716 125.915759 
L 467.782026 114.84376 
L 468.158181 114.80536 
L 469.286647 118.801914 
L 469.662802 131.427636 
L 470.038957 132.319697 
L 470.415112 134.486836 
L 470.791267 129.099021 
L 471.919732 138.646836 
L 472.295887 133.103451 
L 472.672042 130.414467 
L 473.048197 126.196375 
L 473.424352 128.063205 
L 474.928973 131.198221 
L 475.305128 127.908621 
L 475.681283 119.357237 
L 476.057438 116.522529 
L 477.185903 112.730776 
L 477.562058 108.95773 
L 477.938213 109.761176 
L 478.314368 107.980991 
L 478.690523 109.741484 
L 480.195144 107.25533 
L 480.571299 108.822838 
L 480.947454 104.594899 
L 481.323609 102.688684 
L 482.452074 102.18653 
L 483.204384 96.759331 
L 483.580539 90.674408 
L 483.956694 89.213239 
L 485.08516 86.108747 
L 485.461315 87.268624 
L 485.83747 95.4045 
L 486.213625 93.092623 
L 486.58978 87.946039 
L 487.718245 88.526962 
L 488.0944 83.999701 
L 488.470555 85.846839 
L 489.222865 80.139024 
L 490.727486 88.739639 
L 491.103641 85.131024 
L 491.855951 94.988992 
L 492.984416 85.285608 
L 493.360571 89.600193 
L 493.736726 97.5037 
L 494.112881 92.928192 
L 494.489037 100.909484 
L 495.617502 97.320561 
L 495.993657 81.938901 
L 496.369812 78.997855 
L 496.745967 84.753916 
L 497.122122 77.65287 
L 498.250587 84.182839 
L 498.626742 91.360685 
L 499.002897 79.946039 
L 499.379052 92.785423 
L 499.755208 94.2781 
L 500.883673 99.3085 
L 501.259828 87.891885 
L 501.635983 82.697055 
L 503.516758 70.981117 
L 503.892913 74.139763 
L 504.269068 74.101363 
L 505.021379 78.66604 
L 506.149844 74.95404 
L 506.525999 80.613609 
L 506.902154 95.286346 
L 507.278309 96.905054 
L 507.654464 101.256069 
L 508.782929 100.810038 
L 509.159084 95.2381 
L 509.535239 93.841915 
L 509.911395 105.965484 
L 510.28755 102.603023 
L 511.79217 113.321545 
L 512.54448 124.049913 
L 512.920635 132.68499 
L 514.0491 130.165359 
L 514.425255 139.807697 
L 514.801411 138.480436 
L 515.177566 141.736558 
L 515.553721 125.503206 
L 516.682186 113.467268 
L 517.434496 109.639084 
L 517.810651 122.50899 
L 518.186806 119.455698 
L 519.315271 121.432806 
L 519.691427 116.257668 
L 520.067582 106.275638 
L 520.819892 129.263452 
L 521.948357 129.33139 
L 522.324512 118.002406 
L 522.700667 118.719206 
L 523.076822 132.00659 
L 523.452977 136.890282 
L 524.957598 140.680066 
L 525.333753 150.342096 
L 525.709908 136.890282 
L 526.086063 131.338036 
L 527.214528 131.250405 
L 527.590683 138.780743 
L 527.966838 130.784682 
L 528.719148 144.576189 
L 529.847614 158.753665 
L 530.223769 160.546649 
L 530.599924 145.108866 
L 531.352234 159.345419 
L 532.480699 167.204618 
L 533.233009 141.804497 
L 533.609164 137.666159 
L 533.985319 128.846959 
L 535.113785 129.845359 
L 535.48994 123.555637 
L 535.866095 129.631698 
L 536.24225 119.354283 
L 536.618405 120.29656 
L 537.74687 115.326222 
L 538.123025 106.317976 
L 538.875335 118.393298 
L 539.25149 119.577791 
L 540.379956 111.646714 
L 541.132266 132.139513 
L 541.508421 130.925482 
L 541.884576 136.672682 
L 543.013041 145.816804 
L 543.389196 146.845727 
L 543.765351 140.293112 
L 544.141506 149.748373 
L 545.646127 149.312189 
L 546.022282 141.788743 
L 546.398437 143.361174 
L 546.774592 150.661112 
L 547.150747 160.94148 
L 548.279212 155.038711 
L 548.655367 169.036987 
L 549.031522 165.231449 
L 549.407677 150.76745 
L 549.783832 166.231818 
L 550.912298 160.338896 
L 551.288453 160.106526 
L 551.664608 147.534958 
L 552.040763 166.687695 
L 552.416918 170.551326 
L 553.545383 185.714402 
L 553.921538 180.821848 
L 554.297693 192.528924 
L 554.673848 194.956001 
L 555.050003 182.559694 
L 556.178469 186.617294 
L 556.554624 177.103941 
L 556.930779 193.034032 
L 557.306934 195.335078 
L 557.683089 194.800432 
L 558.811554 187.859878 
L 559.187709 194.334709 
L 559.563864 189.626278 
L 559.940019 181.181233 
L 560.316175 169.280187 
L 561.820795 172.153295 
L 562.19695 173.502218 
L 562.573105 163.902218 
L 562.94926 173.016802 
L 564.077725 172.812987 
L 564.45388 168.163634 
L 564.830035 171.979018 
L 565.20619 181.840925 
L 565.582346 195.217909 
L 566.710811 210.624184 
L 567.086966 208.886338 
L 567.463121 201.945785 
L 567.839276 215.962769 
L 568.215431 212.235015 
L 569.720051 204.39157 
L 570.096206 205.488431 
L 570.472362 200.007077 
L 570.848517 188.113909 
L 571.976982 190.535078 
L 572.353137 200.804616 
L 572.729292 200.552554 
L 573.105447 205.113293 
L 573.481602 204.160185 
L 574.986222 199.288308 
L 575.362378 197.041416 
L 575.738533 189.795632 
L 576.114688 189.562278 
L 577.243153 194.892001 
L 577.619308 199.384801 
L 577.995463 200.134093 
L 578.371618 197.964985 
L 578.747773 192.004124 
L 579.876238 194.989478 
L 580.252393 185.127571 
L 581.004704 173.817295 
L 581.380859 179.264187 
L 582.509324 181.471694 
L 582.885479 187.899263 
L 583.261634 173.418525 
L 584.013944 162.662588 
L 585.142409 163.304557 
L 585.518565 165.162526 
L 585.89472 154.795511 
L 586.270875 153.627758 
L 586.64703 154.201788 
L 587.775495 156.759819 
L 588.15165 161.252619 
L 588.527805 150.223942 
L 588.90396 152.383204 
L 589.280115 144.690404 
L 590.40858 142.405112 
L 590.784736 143.727451 
L 591.160891 146.917604 
L 591.537046 144.953297 
L 591.913201 152.227635 
L 593.041666 162.390834 
L 593.417821 163.236618 
L 593.793976 162.652742 
L 594.170131 156.11785 
L 594.546286 171.639326 
L 595.674752 176.17151 
L 597.179372 189.94234 
L 598.683992 192.353663 
L 599.060147 187.092863 
L 599.436302 185.069479 
L 599.812457 177.775448 
L 600.940923 172.309849 
L 601.317078 190.661109 
L 601.693233 189.222586 
L 602.069388 196.642647 
L 602.445543 199.083508 
L 603.574008 196.54517 
L 603.950163 198.568555 
L 605.078628 212.144431 
L 606.207094 214.167815 
L 606.583249 213.059138 
L 606.959404 209.467261 
L 607.335559 217.509599 
L 607.711714 223.047076 
L 608.840179 213.9512 
L 609.216334 203.140123 
L 609.592489 202.126954 
L 609.968644 204.554031 
L 610.344799 217.792184 
L 611.473265 223.300122 
L 611.84942 228.174953 
L 612.225575 229.227506 
L 612.60173 220.824799 
L 612.977885 229.412614 
L 614.482505 217.032061 
L 614.85866 218.533599 
L 615.234815 218.367199 
L 615.61097 210.3544 
L 616.739436 206.668985 
L 617.115591 199.748124 
L 617.491746 206.240677 
L 617.867901 209.516492 
L 618.244056 196.911447 
L 619.372521 200.790831 
L 619.748676 203.276985 
L 620.500986 223.846584 
L 620.877142 219.966215 
L 622.005607 215.482276 
L 622.381762 212.625907 
L 622.757917 220.882891 
L 623.134072 195.312432 
L 623.510227 188.634771 
L 624.638692 191.82197 
L 625.014847 187.045601 
L 625.391002 192.768186 
L 625.767157 192.953293 
L 626.143313 192.583078 
L 627.271778 196.511693 
L 627.647933 190.67194 
L 628.024088 187.123386 
L 628.776398 189.229478 
L 630.281018 199.299139 
L 630.657173 183.497048 
L 631.033329 182.297786 
L 631.409484 184.208925 
L 632.537949 190.652247 
L 632.914104 197.866524 
L 633.290259 199.34837 
L 633.666414 193.713416 
L 634.042569 195.712185 
L 635.171034 188.537294 
L 635.547189 184.549602 
L 635.923344 187.07514 
L 636.2995 199.787508 
L 636.675655 204.009539 
L 637.80412 208.603754 
L 638.180275 207.9096 
L 638.55643 202.925477 
L 638.932585 210.851631 
L 639.30874 210.734461 
L 640.81336 213.78283 
L 641.189516 218.640922 
L 641.565671 210.353415 
L 641.941826 210.518831 
L 643.446446 213.510092 
L 643.822601 212.171015 
L 644.198756 218.601538 
L 644.574911 209.903446 
L 645.703376 205.984677 
L 646.079531 203.931754 
L 646.455687 198.556739 
L 646.831842 196.025293 
L 647.207997 194.646832 
L 648.712617 193.005478 
L 649.464927 201.156124 
L 649.841082 192.15477 
L 650.969547 184.307386 
L 651.721858 185.587386 
L 652.098013 180.222217 
L 652.474168 178.648802 
L 653.602633 185.37274 
L 653.978788 180.250771 
L 654.731098 161.388495 
L 655.107253 165.219634 
L 656.235718 169.911326 
L 656.611874 161.457419 
L 656.988029 166.030957 
L 657.364184 167.536434 
L 657.740339 169.794156 
L 659.621114 159.346403 
L 659.997269 165.97188 
L 660.373424 170.340618 
L 661.878045 178.863448 
L 662.2542 178.941233 
L 662.630355 173.653849 
L 663.00651 179.723017 
L 664.134975 178.188987 
L 664.51113 178.55034 
L 664.887285 181.208802 
L 665.26344 177.153171 
L 665.639595 169.90148 
L 666.768061 168.620495 
L 667.144216 172.979387 
L 667.520371 170.213603 
L 668.272681 182.625663 
L 669.401146 181.042402 
L 669.777301 173.331879 
L 670.153456 173.458895 
L 670.529611 163.919941 
L 670.905766 164.897664 
L 672.034232 163.802772 
L 672.410387 159.756003 
L 672.786542 164.164126 
L 673.162697 159.102219 
L 673.538852 158.443511 
L 674.667317 160.725849 
L 675.043472 162.282526 
L 675.419627 154.917604 
L 675.795782 151.206588 
L 676.171937 145.172866 
L 677.300403 145.67305 
L 677.676558 148.062712 
L 678.052713 152.567327 
L 678.428868 150.648312 
L 679.933488 150.862958 
L 680.685798 155.838219 
L 681.061953 148.738158 
L 681.438108 150.167819 
L 682.566574 148.816927 
L 682.942729 147.758466 
L 683.318884 148.542219 
L 683.695039 151.225296 
L 684.071194 152.322158 
L 685.199659 153.92905 
L 685.575814 161.890649 
L 685.951969 157.091634 
L 686.328124 150.167819 
L 686.70428 146.259881 
L 687.832745 145.868989 
L 688.2089 150.090035 
L 688.585055 152.723881 
L 688.96121 154.222465 
L 689.337365 144.477727 
L 690.46583 144.076004 
L 690.841985 146.828004 
L 691.21814 142.734958 
L 691.594295 144.340866 
L 691.970451 145.095081 
L 693.098916 141.91182 
L 693.475071 142.166835 
L 693.851226 136.593913 
L 694.227381 129.013359 
L 694.603536 129.729175 
L 695.732001 128.719944 
L 696.108156 134.723143 
L 696.484311 137.122651 
L 697.236622 112.79576 
L 698.741242 110.650284 
L 699.117397 114.411514 
L 699.493552 110.200314 
L 699.869707 107.340007 
L 700.998172 109.563268 
L 701.374327 108.877976 
L 701.750482 115.038714 
L 702.126638 110.934837 
L 702.502793 109.220622 
L 704.383568 94.040808 
L 704.759723 88.448193 
L 705.135878 92.199577 
L 706.640498 94.706408 
L 707.016654 101.268869 
L 707.392809 97.801054 
L 707.768964 102.737915 
L 708.897429 106.145668 
L 709.273584 97.723269 
L 710.025894 95.707761 
L 710.402049 88.9789 
L 711.530514 89.714408 
L 712.65898 94.070346 
L 713.035135 95.531515 
L 714.1636 93.815331 
L 714.539755 92.196623 
L 714.91591 87.693977 
L 715.292065 81.210286 
L 715.66822 82.789609 
L 716.796685 76.934101 
L 717.172841 71.891886 
L 717.548996 73.079332 
L 717.925151 82.59367 
L 718.301306 83.34887 
L 719.429771 82.848685 
L 719.805926 77.845855 
L 720.182081 82.966839 
L 720.558236 84.98727 
L 720.934391 78.76844 
L 722.062857 76.570778 
L 722.439012 76.335455 
L 722.815167 88.213854 
L 723.191322 89.931023 
L 723.567477 95.580746 
L 724.695942 94.864931 
L 725.072097 98.846715 
L 725.448252 104.780992 
L 725.824407 104.389115 
L 726.200562 107.135207 
L 727.329028 101.004992 
L 728.457493 113.648437 
L 728.833648 112.853853 
L 729.962113 105.801053 
L 730.338268 105.644499 
L 730.714423 98.071823 
L 731.090578 107.929791 
L 731.466733 103.76093 
L 732.595199 100.544192 
L 732.971354 92.039085 
L 733.347509 88.488562 
L 734.099819 84.555024 
L 735.604439 83.80967 
L 736.356749 95.325731 
L 736.732904 94.776315 
L 737.86137 92.746039 
L 738.237525 100.27933 
L 738.61368 99.710223 
L 738.989835 96.747515 
L 739.36599 104.496438 
L 740.494455 102.799946 
L 740.87061 103.545299 
L 741.62292 116.561914 
L 741.999075 115.433545 
L 743.127541 113.814837 
L 743.503696 121.112806 
L 743.879851 119.877114 
L 744.256006 116.445729 
L 744.632161 114.842776 
L 745.760626 111.088437 
L 746.136781 118.913175 
L 746.512936 114.252991 
L 746.889091 113.899514 
L 747.265246 105.701607 
L 748.393712 103.784561 
L 748.769867 102.398223 
L 749.146022 99.066284 
L 749.522177 100.068623 
L 749.898332 106.841792 
L 751.026797 102.064438 
L 751.402952 103.86333 
L 751.779107 109.603637 
L 752.155262 112.542714 
L 752.531418 119.777668 
L 753.659883 119.708744 
L 754.036038 116.130652 
L 754.788348 129.922159 
L 755.164503 128.290652 
L 756.292968 124.820867 
L 756.669123 121.822714 
L 757.797589 102.08413 
L 758.926054 100.17693 
L 759.302209 95.055946 
L 759.678364 93.276746 
L 760.054519 95.851515 
L 760.430674 84.576685 
L 761.559139 86.768439 
L 761.935294 76.22124 
L 762.311449 75.641301 
L 762.687605 74.648809 
L 763.06376 74.451886 
L 764.192225 68.13164 
L 764.56838 71.905671 
L 764.944535 70.254471 
L 765.696845 70.745794 
L 766.82531 70.982102 
L 767.201465 70.146163 
L 767.57762 68.386656 
L 767.953776 68.514656 
L 768.329931 65.938902 
L 769.458396 70.588255 
L 769.834551 68.141486 
L 770.210706 72.092748 
L 770.963016 63.157364 
L 772.091481 59.991825 
L 772.467636 57.229979 
L 772.843792 51.852995 
L 773.219947 50.938288 
L 773.596102 48.667765 
L 774.724567 47.576811 
L 775.100722 45.149734 
L 775.476877 52.810041 
L 775.853032 46.981119 
L 776.229187 46.518349 
L 778.109963 43.70235 
L 778.486118 43.387273 
L 778.862273 46.134349 
L 778.862273 46.134349 
" clip-path="url(#p4edff2c6eb)" style="fill: none; stroke: #1f77b4; stroke-width: 1.5; stroke-linecap: square"/>
   </g>
   <g id="patch_7">
    <path d="M 59.24 390.04 
L 59.24 26.88 
" style="fill: none; stroke: #000000; stroke-width: 0.8; stroke-linejoin: miter; stroke-linecap: square"/>
   </g>
   <g id="patch_8">
    <path d="M 813.13 390.04 
L 813.13 26.88 
" style="fill: none; stroke: #000000; stroke-width: 0.8; stroke-linejoin: miter; stroke-linecap: square"/>
   </g>
   <g id="patch_9">
    <path d="M 59.24 390.04 
L 813.13 390.04 
" style="fill: none; stroke: #000000; stroke-width: 0.8; stroke-linejoin: miter; stroke-linecap: square"/>
   </g>
   <g id="patch_10">
    <path d="M 59.24 26.88 
L 813.13 26.88 
" style="fill: none; stroke: #000000; stroke-width: 0.8; stroke-linejoin: miter; stroke-linecap: square"/>
   </g>
   <g id="text_25">
    <!-- Stock Trading Performance for VGT -->
    <g transform="translate(331.471875 20.88) scale(0.12 -0.12)">
     <defs>
      <path id="DejaVuSans-53" d="M 3425 4513 
L 3425 3897 
Q 3066 4069 2747 4153 
Q 2428 4238 2131 4238 
Q 1616 4238 1336 4038 
Q 1056 3838 1056 3469 
Q 1056 3159 1242 3001 
Q 1428 2844 1947 2747 
L 2328 2669 
Q 3034 2534 3370 2195 
Q 3706 1856 3706 1288 
Q 3706 609 3251 259 
Q 2797 -91 1919 -91 
Q 1588 -91 1214 -16 
Q 841 59 441 206 
L 441 856 
Q 825 641 1194 531 
Q 1563 422 1919 422 
Q 2459 422 2753 634 
Q 3047 847 3047 1241 
Q 3047 1584 2836 1778 
Q 2625 1972 2144 2069 
L 1759 2144 
Q 1053 2284 737 2584 
Q 422 2884 422 3419 
Q 422 4038 858 4394 
Q 1294 4750 2059 4750 
Q 2388 4750 2728 4690 
Q 3069 4631 3425 4513 
z
" transform="scale(0.015625)"/>
      <path id="DejaVuSans-6b" d="M 581 4863 
L 1159 4863 
L 1159 1991 
L 2875 3500 
L 3609 3500 
L 1753 1863 
L 3688 0 
L 2938 0 
L 1159 1709 
L 1159 0 
L 581 0 
L 581 4863 
z
" transform="scale(0.015625)"/>
      <path id="DejaVuSans-54" d="M -19 4666 
L 3928 4666 
L 3928 4134 
L 2272 4134 
L 2272 0 
L 1638 0 
L 1638 4134 
L -19 4134 
L -19 4666 
z
" transform="scale(0.015625)"/>
      <path id="DejaVuSans-64" d="M 2906 2969 
L 2906 4863 
L 3481 4863 
L 3481 0 
L 2906 0 
L 2906 525 
Q 2725 213 2448 61 
Q 2172 -91 1784 -91 
Q 1150 -91 751 415 
Q 353 922 353 1747 
Q 353 2572 751 3078 
Q 1150 3584 1784 3584 
Q 2172 3584 2448 3432 
Q 2725 3281 2906 2969 
z
M 947 1747 
Q 947 1113 1208 752 
Q 1469 391 1925 391 
Q 2381 391 2643 752 
Q 2906 1113 2906 1747 
Q 2906 2381 2643 2742 
Q 2381 3103 1925 3103 
Q 1469 3103 1208 2742 
Q 947 2381 947 1747 
z
" transform="scale(0.015625)"/>
      <path id="DejaVuSans-67" d="M 2906 1791 
Q 2906 2416 2648 2759 
Q 2391 3103 1925 3103 
Q 1463 3103 1205 2759 
Q 947 2416 947 1791 
Q 947 1169 1205 825 
Q 1463 481 1925 481 
Q 2391 481 2648 825 
Q 2906 1169 2906 1791 
z
M 3481 434 
Q 3481 -459 3084 -895 
Q 2688 -1331 1869 -1331 
Q 1566 -1331 1297 -1286 
Q 1028 -1241 775 -1147 
L 775 -588 
Q 1028 -725 1275 -790 
Q 1522 -856 1778 -856 
Q 2344 -856 2625 -561 
Q 2906 -266 2906 331 
L 2906 616 
Q 2728 306 2450 153 
Q 2172 0 1784 0 
Q 1141 0 747 490 
Q 353 981 353 1791 
Q 353 2603 747 3093 
Q 1141 3584 1784 3584 
Q 2172 3584 2450 3431 
Q 2728 3278 2906 2969 
L 2906 3500 
L 3481 3500 
L 3481 434 
z
" transform="scale(0.015625)"/>
      <path id="DejaVuSans-66" d="M 2375 4863 
L 2375 4384 
L 1825 4384 
Q 1516 4384 1395 4259 
Q 1275 4134 1275 3809 
L 1275 3500 
L 2222 3500 
L 2222 3053 
L 1275 3053 
L 1275 0 
L 697 0 
L 697 3053 
L 147 3053 
L 147 3500 
L 697 3500 
L 697 3744 
Q 697 4328 969 4595 
Q 1241 4863 1831 4863 
L 2375 4863 
z
" transform="scale(0.015625)"/>
      <path id="DejaVuSans-6d" d="M 3328 2828 
Q 3544 3216 3844 3400 
Q 4144 3584 4550 3584 
Q 5097 3584 5394 3201 
Q 5691 2819 5691 2113 
L 5691 0 
L 5113 0 
L 5113 2094 
Q 5113 2597 4934 2840 
Q 4756 3084 4391 3084 
Q 3944 3084 3684 2787 
Q 3425 2491 3425 1978 
L 3425 0 
L 2847 0 
L 2847 2094 
Q 2847 2600 2669 2842 
Q 2491 3084 2119 3084 
Q 1678 3084 1418 2786 
Q 1159 2488 1159 1978 
L 1159 0 
L 581 0 
L 581 3500 
L 1159 3500 
L 1159 2956 
Q 1356 3278 1631 3431 
Q 1906 3584 2284 3584 
Q 2666 3584 2933 3390 
Q 3200 3197 3328 2828 
z
" transform="scale(0.015625)"/>
      <path id="DejaVuSans-56" d="M 1831 0 
L 50 4666 
L 709 4666 
L 2188 738 
L 3669 4666 
L 4325 4666 
L 2547 0 
L 1831 0 
z
" transform="scale(0.015625)"/>
      <path id="DejaVuSans-47" d="M 3809 666 
L 3809 1919 
L 2778 1919 
L 2778 2438 
L 4434 2438 
L 4434 434 
Q 4069 175 3628 42 
Q 3188 -91 2688 -91 
Q 1594 -91 976 548 
Q 359 1188 359 2328 
Q 359 3472 976 4111 
Q 1594 4750 2688 4750 
Q 3144 4750 3555 4637 
Q 3966 4525 4313 4306 
L 4313 3634 
Q 3963 3931 3569 4081 
Q 3175 4231 2741 4231 
Q 1884 4231 1454 3753 
Q 1025 3275 1025 2328 
Q 1025 1384 1454 906 
Q 1884 428 2741 428 
Q 3075 428 3337 486 
Q 3600 544 3809 666 
z
" transform="scale(0.015625)"/>
     </defs>
     <use xlink:href="#DejaVuSans-53"/>
     <use xlink:href="#DejaVuSans-74" x="63.476562"/>
     <use xlink:href="#DejaVuSans-6f" x="102.685547"/>
     <use xlink:href="#DejaVuSans-63" x="163.867188"/>
     <use xlink:href="#DejaVuSans-6b" x="218.847656"/>
     <use xlink:href="#DejaVuSans-20" x="276.757812"/>
     <use xlink:href="#DejaVuSans-54" x="308.544922"/>
     <use xlink:href="#DejaVuSans-72" x="354.878906"/>
     <use xlink:href="#DejaVuSans-61" x="395.992188"/>
     <use xlink:href="#DejaVuSans-64" x="457.271484"/>
     <use xlink:href="#DejaVuSans-69" x="520.748047"/>
     <use xlink:href="#DejaVuSans-6e" x="548.53125"/>
     <use xlink:href="#DejaVuSans-67" x="611.910156"/>
     <use xlink:href="#DejaVuSans-20" x="675.386719"/>
     <use xlink:href="#DejaVuSans-50" x="707.173828"/>
     <use xlink:href="#DejaVuSans-65" x="763.851562"/>
     <use xlink:href="#DejaVuSans-72" x="825.375"/>
     <use xlink:href="#DejaVuSans-66" x="866.488281"/>
     <use xlink:href="#DejaVuSans-6f" x="901.693359"/>
     <use xlink:href="#DejaVuSans-72" x="962.875"/>
     <use xlink:href="#DejaVuSans-6d" x="1002.238281"/>
     <use xlink:href="#DejaVuSans-61" x="1099.650391"/>
     <use xlink:href="#DejaVuSans-6e" x="1160.929688"/>
     <use xlink:href="#DejaVuSans-63" x="1224.308594"/>
     <use xlink:href="#DejaVuSans-65" x="1279.289062"/>
     <use xlink:href="#DejaVuSans-20" x="1340.8125"/>
     <use xlink:href="#DejaVuSans-66" x="1372.599609"/>
     <use xlink:href="#DejaVuSans-6f" x="1407.804688"/>
     <use xlink:href="#DejaVuSans-72" x="1468.986328"/>
     <use xlink:href="#DejaVuSans-20" x="1510.099609"/>
     <use xlink:href="#DejaVuSans-56" x="1541.886719"/>
     <use xlink:href="#DejaVuSans-47" x="1610.294922"/>
     <use xlink:href="#DejaVuSans-54" x="1684.160156"/>
    </g>
   </g>
  </g>
 </g>
 <defs>
  <clipPath id="p4edff2c6eb">
   <rect x="59.24" y="26.88" width="753.89" height="363.16"/>
  </clipPath>
 </defs>
</svg>
