<?xml version="1.0" encoding="utf-8" standalone="no"?>
<!DOCTYPE svg PUBLIC "-//W3C//DTD SVG 1.1//EN"
  "http://www.w3.org/Graphics/SVG/1.1/DTD/svg11.dtd">
<svg xmlns:xlink="http://www.w3.org/1999/xlink" width="864pt" height="432pt" viewBox="0 0 864 432" xmlns="http://www.w3.org/2000/svg" version="1.1">
 <metadata>
  <rdf:RDF xmlns:dc="http://purl.org/dc/elements/1.1/" xmlns:cc="http://creativecommons.org/ns#" xmlns:rdf="http://www.w3.org/1999/02/22-rdf-syntax-ns#">
   <cc:Work>
    <dc:type rdf:resource="http://purl.org/dc/dcmitype/StillImage"/>
    <dc:date>2024-04-18T22:06:58.674514</dc:date>
    <dc:format>image/svg+xml</dc:format>
    <dc:creator>
     <cc:Agent>
      <dc:title>Matplotlib v3.8.2, https://matplotlib.org/</dc:title>
     </cc:Agent>
    </dc:creator>
   </cc:Work>
  </rdf:RDF>
 </metadata>
 <defs>
  <style type="text/css">*{stroke-linejoin: round; stroke-linecap: butt}</style>
 </defs>
 <g id="figure_1">
  <g id="patch_1">
   <path d="M 0 432 
L 864 432 
L 864 0 
L 0 0 
z
" style="fill: #ffffff"/>
  </g>
  <g id="axes_1">
   <g id="patch_2">
    <path d="M 44.57 390.04 
L 813.13 390.04 
L 813.13 26.88 
L 44.57 26.88 
z
" style="fill: #ffffff"/>
   </g>
   <g id="matplotlib.axis_1">
    <g id="xtick_1">
     <g id="line2d_1">
      <path d="M 79.121071 390.04 
L 79.121071 26.88 
" clip-path="url(#p4d405fda4e)" style="fill: none; stroke-dasharray: 1.85,0.8; stroke-dashoffset: 0; stroke: #b0b0b0; stroke-opacity: 0.5; stroke-width: 0.5"/>
     </g>
     <g id="line2d_2">
      <defs>
       <path id="me1df41c393" d="M 0 0 
L 0 3.5 
" style="stroke: #000000; stroke-width: 0.8"/>
      </defs>
      <g>
       <use xlink:href="#me1df41c393" x="79.121071" y="390.04" style="stroke: #000000; stroke-width: 0.8"/>
      </g>
     </g>
     <g id="text_1">
      <!-- 2019 -->
      <g transform="translate(66.396071 404.638438) scale(0.1 -0.1)">
       <defs>
        <path id="DejaVuSans-32" d="M 1228 531 
L 3431 531 
L 3431 0 
L 469 0 
L 469 531 
Q 828 903 1448 1529 
Q 2069 2156 2228 2338 
Q 2531 2678 2651 2914 
Q 2772 3150 2772 3378 
Q 2772 3750 2511 3984 
Q 2250 4219 1831 4219 
Q 1534 4219 1204 4116 
Q 875 4013 500 3803 
L 500 4441 
Q 881 4594 1212 4672 
Q 1544 4750 1819 4750 
Q 2544 4750 2975 4387 
Q 3406 4025 3406 3419 
Q 3406 3131 3298 2873 
Q 3191 2616 2906 2266 
Q 2828 2175 2409 1742 
Q 1991 1309 1228 531 
z
" transform="scale(0.015625)"/>
        <path id="DejaVuSans-30" d="M 2034 4250 
Q 1547 4250 1301 3770 
Q 1056 3291 1056 2328 
Q 1056 1369 1301 889 
Q 1547 409 2034 409 
Q 2525 409 2770 889 
Q 3016 1369 3016 2328 
Q 3016 3291 2770 3770 
Q 2525 4250 2034 4250 
z
M 2034 4750 
Q 2819 4750 3233 4129 
Q 3647 3509 3647 2328 
Q 3647 1150 3233 529 
Q 2819 -91 2034 -91 
Q 1250 -91 836 529 
Q 422 1150 422 2328 
Q 422 3509 836 4129 
Q 1250 4750 2034 4750 
z
" transform="scale(0.015625)"/>
        <path id="DejaVuSans-31" d="M 794 531 
L 1825 531 
L 1825 4091 
L 703 3866 
L 703 4441 
L 1819 4666 
L 2450 4666 
L 2450 531 
L 3481 531 
L 3481 0 
L 794 0 
L 794 531 
z
" transform="scale(0.015625)"/>
        <path id="DejaVuSans-39" d="M 703 97 
L 703 672 
Q 941 559 1184 500 
Q 1428 441 1663 441 
Q 2288 441 2617 861 
Q 2947 1281 2994 2138 
Q 2813 1869 2534 1725 
Q 2256 1581 1919 1581 
Q 1219 1581 811 2004 
Q 403 2428 403 3163 
Q 403 3881 828 4315 
Q 1253 4750 1959 4750 
Q 2769 4750 3195 4129 
Q 3622 3509 3622 2328 
Q 3622 1225 3098 567 
Q 2575 -91 1691 -91 
Q 1453 -91 1209 -44 
Q 966 3 703 97 
z
M 1959 2075 
Q 2384 2075 2632 2365 
Q 2881 2656 2881 3163 
Q 2881 3666 2632 3958 
Q 2384 4250 1959 4250 
Q 1534 4250 1286 3958 
Q 1038 3666 1038 3163 
Q 1038 2656 1286 2365 
Q 1534 2075 1959 2075 
z
" transform="scale(0.015625)"/>
       </defs>
       <use xlink:href="#DejaVuSans-32"/>
       <use xlink:href="#DejaVuSans-30" x="63.623047"/>
       <use xlink:href="#DejaVuSans-31" x="127.246094"/>
       <use xlink:href="#DejaVuSans-39" x="190.869141"/>
      </g>
     </g>
    </g>
    <g id="xtick_2">
     <g id="line2d_3">
      <path d="M 219.089337 390.04 
L 219.089337 26.88 
" clip-path="url(#p4d405fda4e)" style="fill: none; stroke-dasharray: 1.85,0.8; stroke-dashoffset: 0; stroke: #b0b0b0; stroke-opacity: 0.5; stroke-width: 0.5"/>
     </g>
     <g id="line2d_4">
      <g>
       <use xlink:href="#me1df41c393" x="219.089337" y="390.04" style="stroke: #000000; stroke-width: 0.8"/>
      </g>
     </g>
     <g id="text_2">
      <!-- 2020 -->
      <g transform="translate(206.364337 404.638438) scale(0.1 -0.1)">
       <use xlink:href="#DejaVuSans-32"/>
       <use xlink:href="#DejaVuSans-30" x="63.623047"/>
       <use xlink:href="#DejaVuSans-32" x="127.246094"/>
       <use xlink:href="#DejaVuSans-30" x="190.869141"/>
      </g>
     </g>
    </g>
    <g id="xtick_3">
     <g id="line2d_5">
      <path d="M 359.441079 390.04 
L 359.441079 26.88 
" clip-path="url(#p4d405fda4e)" style="fill: none; stroke-dasharray: 1.85,0.8; stroke-dashoffset: 0; stroke: #b0b0b0; stroke-opacity: 0.5; stroke-width: 0.5"/>
     </g>
     <g id="line2d_6">
      <g>
       <use xlink:href="#me1df41c393" x="359.441079" y="390.04" style="stroke: #000000; stroke-width: 0.8"/>
      </g>
     </g>
     <g id="text_3">
      <!-- 2021 -->
      <g transform="translate(346.716079 404.638438) scale(0.1 -0.1)">
       <use xlink:href="#DejaVuSans-32"/>
       <use xlink:href="#DejaVuSans-30" x="63.623047"/>
       <use xlink:href="#DejaVuSans-32" x="127.246094"/>
       <use xlink:href="#DejaVuSans-31" x="190.869141"/>
      </g>
     </g>
    </g>
    <g id="xtick_4">
     <g id="line2d_7">
      <path d="M 499.409345 390.04 
L 499.409345 26.88 
" clip-path="url(#p4d405fda4e)" style="fill: none; stroke-dasharray: 1.85,0.8; stroke-dashoffset: 0; stroke: #b0b0b0; stroke-opacity: 0.5; stroke-width: 0.5"/>
     </g>
     <g id="line2d_8">
      <g>
       <use xlink:href="#me1df41c393" x="499.409345" y="390.04" style="stroke: #000000; stroke-width: 0.8"/>
      </g>
     </g>
     <g id="text_4">
      <!-- 2022 -->
      <g transform="translate(486.684345 404.638438) scale(0.1 -0.1)">
       <use xlink:href="#DejaVuSans-32"/>
       <use xlink:href="#DejaVuSans-30" x="63.623047"/>
       <use xlink:href="#DejaVuSans-32" x="127.246094"/>
       <use xlink:href="#DejaVuSans-32" x="190.869141"/>
      </g>
     </g>
    </g>
    <g id="xtick_5">
     <g id="line2d_9">
      <path d="M 639.377612 390.04 
L 639.377612 26.88 
" clip-path="url(#p4d405fda4e)" style="fill: none; stroke-dasharray: 1.85,0.8; stroke-dashoffset: 0; stroke: #b0b0b0; stroke-opacity: 0.5; stroke-width: 0.5"/>
     </g>
     <g id="line2d_10">
      <g>
       <use xlink:href="#me1df41c393" x="639.377612" y="390.04" style="stroke: #000000; stroke-width: 0.8"/>
      </g>
     </g>
     <g id="text_5">
      <!-- 2023 -->
      <g transform="translate(626.652612 404.638438) scale(0.1 -0.1)">
       <defs>
        <path id="DejaVuSans-33" d="M 2597 2516 
Q 3050 2419 3304 2112 
Q 3559 1806 3559 1356 
Q 3559 666 3084 287 
Q 2609 -91 1734 -91 
Q 1441 -91 1130 -33 
Q 819 25 488 141 
L 488 750 
Q 750 597 1062 519 
Q 1375 441 1716 441 
Q 2309 441 2620 675 
Q 2931 909 2931 1356 
Q 2931 1769 2642 2001 
Q 2353 2234 1838 2234 
L 1294 2234 
L 1294 2753 
L 1863 2753 
Q 2328 2753 2575 2939 
Q 2822 3125 2822 3475 
Q 2822 3834 2567 4026 
Q 2313 4219 1838 4219 
Q 1578 4219 1281 4162 
Q 984 4106 628 3988 
L 628 4550 
Q 988 4650 1302 4700 
Q 1616 4750 1894 4750 
Q 2613 4750 3031 4423 
Q 3450 4097 3450 3541 
Q 3450 3153 3228 2886 
Q 3006 2619 2597 2516 
z
" transform="scale(0.015625)"/>
       </defs>
       <use xlink:href="#DejaVuSans-32"/>
       <use xlink:href="#DejaVuSans-30" x="63.623047"/>
       <use xlink:href="#DejaVuSans-32" x="127.246094"/>
       <use xlink:href="#DejaVuSans-33" x="190.869141"/>
      </g>
     </g>
    </g>
    <g id="xtick_6">
     <g id="line2d_11">
      <path d="M 779.345879 390.04 
L 779.345879 26.88 
" clip-path="url(#p4d405fda4e)" style="fill: none; stroke-dasharray: 1.85,0.8; stroke-dashoffset: 0; stroke: #b0b0b0; stroke-opacity: 0.5; stroke-width: 0.5"/>
     </g>
     <g id="line2d_12">
      <g>
       <use xlink:href="#me1df41c393" x="779.345879" y="390.04" style="stroke: #000000; stroke-width: 0.8"/>
      </g>
     </g>
     <g id="text_6">
      <!-- 2024 -->
      <g transform="translate(766.620879 404.638438) scale(0.1 -0.1)">
       <defs>
        <path id="DejaVuSans-34" d="M 2419 4116 
L 825 1625 
L 2419 1625 
L 2419 4116 
z
M 2253 4666 
L 3047 4666 
L 3047 1625 
L 3713 1625 
L 3713 1100 
L 3047 1100 
L 3047 0 
L 2419 0 
L 2419 1100 
L 313 1100 
L 313 1709 
L 2253 4666 
z
" transform="scale(0.015625)"/>
       </defs>
       <use xlink:href="#DejaVuSans-32"/>
       <use xlink:href="#DejaVuSans-30" x="63.623047"/>
       <use xlink:href="#DejaVuSans-32" x="127.246094"/>
       <use xlink:href="#DejaVuSans-34" x="190.869141"/>
      </g>
     </g>
    </g>
    <g id="text_7">
     <!-- Date -->
     <g transform="translate(416.899219 418.316562) scale(0.1 -0.1)">
      <defs>
       <path id="DejaVuSans-44" d="M 1259 4147 
L 1259 519 
L 2022 519 
Q 2988 519 3436 956 
Q 3884 1394 3884 2338 
Q 3884 3275 3436 3711 
Q 2988 4147 2022 4147 
L 1259 4147 
z
M 628 4666 
L 1925 4666 
Q 3281 4666 3915 4102 
Q 4550 3538 4550 2338 
Q 4550 1131 3912 565 
Q 3275 0 1925 0 
L 628 0 
L 628 4666 
z
" transform="scale(0.015625)"/>
       <path id="DejaVuSans-61" d="M 2194 1759 
Q 1497 1759 1228 1600 
Q 959 1441 959 1056 
Q 959 750 1161 570 
Q 1363 391 1709 391 
Q 2188 391 2477 730 
Q 2766 1069 2766 1631 
L 2766 1759 
L 2194 1759 
z
M 3341 1997 
L 3341 0 
L 2766 0 
L 2766 531 
Q 2569 213 2275 61 
Q 1981 -91 1556 -91 
Q 1019 -91 701 211 
Q 384 513 384 1019 
Q 384 1609 779 1909 
Q 1175 2209 1959 2209 
L 2766 2209 
L 2766 2266 
Q 2766 2663 2505 2880 
Q 2244 3097 1772 3097 
Q 1472 3097 1187 3025 
Q 903 2953 641 2809 
L 641 3341 
Q 956 3463 1253 3523 
Q 1550 3584 1831 3584 
Q 2591 3584 2966 3190 
Q 3341 2797 3341 1997 
z
" transform="scale(0.015625)"/>
       <path id="DejaVuSans-74" d="M 1172 4494 
L 1172 3500 
L 2356 3500 
L 2356 3053 
L 1172 3053 
L 1172 1153 
Q 1172 725 1289 603 
Q 1406 481 1766 481 
L 2356 481 
L 2356 0 
L 1766 0 
Q 1100 0 847 248 
Q 594 497 594 1153 
L 594 3053 
L 172 3053 
L 172 3500 
L 594 3500 
L 594 4494 
L 1172 4494 
z
" transform="scale(0.015625)"/>
       <path id="DejaVuSans-65" d="M 3597 1894 
L 3597 1613 
L 953 1613 
Q 991 1019 1311 708 
Q 1631 397 2203 397 
Q 2534 397 2845 478 
Q 3156 559 3463 722 
L 3463 178 
Q 3153 47 2828 -22 
Q 2503 -91 2169 -91 
Q 1331 -91 842 396 
Q 353 884 353 1716 
Q 353 2575 817 3079 
Q 1281 3584 2069 3584 
Q 2775 3584 3186 3129 
Q 3597 2675 3597 1894 
z
M 3022 2063 
Q 3016 2534 2758 2815 
Q 2500 3097 2075 3097 
Q 1594 3097 1305 2825 
Q 1016 2553 972 2059 
L 3022 2063 
z
" transform="scale(0.015625)"/>
      </defs>
      <use xlink:href="#DejaVuSans-44"/>
      <use xlink:href="#DejaVuSans-61" x="77.001953"/>
      <use xlink:href="#DejaVuSans-74" x="138.28125"/>
      <use xlink:href="#DejaVuSans-65" x="177.490234"/>
     </g>
    </g>
   </g>
   <g id="matplotlib.axis_2">
    <g id="ytick_1">
     <g id="line2d_13">
      <path d="M 44.57 373.532727 
L 813.13 373.532727 
" clip-path="url(#p4d405fda4e)" style="fill: none; stroke-dasharray: 1.85,0.8; stroke-dashoffset: 0; stroke: #b0b0b0; stroke-opacity: 0.5; stroke-width: 0.5"/>
     </g>
     <g id="line2d_14">
      <defs>
       <path id="m0a4441eb0e" d="M 0 0 
L -3.5 0 
" style="stroke: #000000; stroke-width: 0.8"/>
      </defs>
      <g>
       <use xlink:href="#m0a4441eb0e" x="44.57" y="373.532727" style="stroke: #000000; stroke-width: 0.8"/>
      </g>
     </g>
     <g id="text_8">
      <!-- 0 -->
      <g style="fill: #d62728" transform="translate(31.2075 377.331946) scale(0.1 -0.1)">
       <use xlink:href="#DejaVuSans-30"/>
      </g>
     </g>
    </g>
    <g id="ytick_2">
     <g id="line2d_15">
      <path d="M 44.57 325.38418 
L 813.13 325.38418 
" clip-path="url(#p4d405fda4e)" style="fill: none; stroke-dasharray: 1.85,0.8; stroke-dashoffset: 0; stroke: #b0b0b0; stroke-opacity: 0.5; stroke-width: 0.5"/>
     </g>
     <g id="line2d_16">
      <g>
       <use xlink:href="#m0a4441eb0e" x="44.57" y="325.38418" style="stroke: #000000; stroke-width: 0.8"/>
      </g>
     </g>
     <g id="text_9">
      <!-- 10 -->
      <g style="fill: #d62728" transform="translate(24.845 329.183399) scale(0.1 -0.1)">
       <use xlink:href="#DejaVuSans-31"/>
       <use xlink:href="#DejaVuSans-30" x="63.623047"/>
      </g>
     </g>
    </g>
    <g id="ytick_3">
     <g id="line2d_17">
      <path d="M 44.57 277.235634 
L 813.13 277.235634 
" clip-path="url(#p4d405fda4e)" style="fill: none; stroke-dasharray: 1.85,0.8; stroke-dashoffset: 0; stroke: #b0b0b0; stroke-opacity: 0.5; stroke-width: 0.5"/>
     </g>
     <g id="line2d_18">
      <g>
       <use xlink:href="#m0a4441eb0e" x="44.57" y="277.235634" style="stroke: #000000; stroke-width: 0.8"/>
      </g>
     </g>
     <g id="text_10">
      <!-- 20 -->
      <g style="fill: #d62728" transform="translate(24.845 281.034852) scale(0.1 -0.1)">
       <use xlink:href="#DejaVuSans-32"/>
       <use xlink:href="#DejaVuSans-30" x="63.623047"/>
      </g>
     </g>
    </g>
    <g id="ytick_4">
     <g id="line2d_19">
      <path d="M 44.57 229.087087 
L 813.13 229.087087 
" clip-path="url(#p4d405fda4e)" style="fill: none; stroke-dasharray: 1.85,0.8; stroke-dashoffset: 0; stroke: #b0b0b0; stroke-opacity: 0.5; stroke-width: 0.5"/>
     </g>
     <g id="line2d_20">
      <g>
       <use xlink:href="#m0a4441eb0e" x="44.57" y="229.087087" style="stroke: #000000; stroke-width: 0.8"/>
      </g>
     </g>
     <g id="text_11">
      <!-- 30 -->
      <g style="fill: #d62728" transform="translate(24.845 232.886306) scale(0.1 -0.1)">
       <use xlink:href="#DejaVuSans-33"/>
       <use xlink:href="#DejaVuSans-30" x="63.623047"/>
      </g>
     </g>
    </g>
    <g id="ytick_5">
     <g id="line2d_21">
      <path d="M 44.57 180.93854 
L 813.13 180.93854 
" clip-path="url(#p4d405fda4e)" style="fill: none; stroke-dasharray: 1.85,0.8; stroke-dashoffset: 0; stroke: #b0b0b0; stroke-opacity: 0.5; stroke-width: 0.5"/>
     </g>
     <g id="line2d_22">
      <g>
       <use xlink:href="#m0a4441eb0e" x="44.57" y="180.93854" style="stroke: #000000; stroke-width: 0.8"/>
      </g>
     </g>
     <g id="text_12">
      <!-- 40 -->
      <g style="fill: #d62728" transform="translate(24.845 184.737759) scale(0.1 -0.1)">
       <use xlink:href="#DejaVuSans-34"/>
       <use xlink:href="#DejaVuSans-30" x="63.623047"/>
      </g>
     </g>
    </g>
    <g id="ytick_6">
     <g id="line2d_23">
      <path d="M 44.57 132.789993 
L 813.13 132.789993 
" clip-path="url(#p4d405fda4e)" style="fill: none; stroke-dasharray: 1.85,0.8; stroke-dashoffset: 0; stroke: #b0b0b0; stroke-opacity: 0.5; stroke-width: 0.5"/>
     </g>
     <g id="line2d_24">
      <g>
       <use xlink:href="#m0a4441eb0e" x="44.57" y="132.789993" style="stroke: #000000; stroke-width: 0.8"/>
      </g>
     </g>
     <g id="text_13">
      <!-- 50 -->
      <g style="fill: #d62728" transform="translate(24.845 136.589212) scale(0.1 -0.1)">
       <defs>
        <path id="DejaVuSans-35" d="M 691 4666 
L 3169 4666 
L 3169 4134 
L 1269 4134 
L 1269 2991 
Q 1406 3038 1543 3061 
Q 1681 3084 1819 3084 
Q 2600 3084 3056 2656 
Q 3513 2228 3513 1497 
Q 3513 744 3044 326 
Q 2575 -91 1722 -91 
Q 1428 -91 1123 -41 
Q 819 9 494 109 
L 494 744 
Q 775 591 1075 516 
Q 1375 441 1709 441 
Q 2250 441 2565 725 
Q 2881 1009 2881 1497 
Q 2881 1984 2565 2268 
Q 2250 2553 1709 2553 
Q 1456 2553 1204 2497 
Q 953 2441 691 2322 
L 691 4666 
z
" transform="scale(0.015625)"/>
       </defs>
       <use xlink:href="#DejaVuSans-35"/>
       <use xlink:href="#DejaVuSans-30" x="63.623047"/>
      </g>
     </g>
    </g>
    <g id="ytick_7">
     <g id="line2d_25">
      <path d="M 44.57 84.641446 
L 813.13 84.641446 
" clip-path="url(#p4d405fda4e)" style="fill: none; stroke-dasharray: 1.85,0.8; stroke-dashoffset: 0; stroke: #b0b0b0; stroke-opacity: 0.5; stroke-width: 0.5"/>
     </g>
     <g id="line2d_26">
      <g>
       <use xlink:href="#m0a4441eb0e" x="44.57" y="84.641446" style="stroke: #000000; stroke-width: 0.8"/>
      </g>
     </g>
     <g id="text_14">
      <!-- 60 -->
      <g style="fill: #d62728" transform="translate(24.845 88.440665) scale(0.1 -0.1)">
       <defs>
        <path id="DejaVuSans-36" d="M 2113 2584 
Q 1688 2584 1439 2293 
Q 1191 2003 1191 1497 
Q 1191 994 1439 701 
Q 1688 409 2113 409 
Q 2538 409 2786 701 
Q 3034 994 3034 1497 
Q 3034 2003 2786 2293 
Q 2538 2584 2113 2584 
z
M 3366 4563 
L 3366 3988 
Q 3128 4100 2886 4159 
Q 2644 4219 2406 4219 
Q 1781 4219 1451 3797 
Q 1122 3375 1075 2522 
Q 1259 2794 1537 2939 
Q 1816 3084 2150 3084 
Q 2853 3084 3261 2657 
Q 3669 2231 3669 1497 
Q 3669 778 3244 343 
Q 2819 -91 2113 -91 
Q 1303 -91 875 529 
Q 447 1150 447 2328 
Q 447 3434 972 4092 
Q 1497 4750 2381 4750 
Q 2619 4750 2861 4703 
Q 3103 4656 3366 4563 
z
" transform="scale(0.015625)"/>
       </defs>
       <use xlink:href="#DejaVuSans-36"/>
       <use xlink:href="#DejaVuSans-30" x="63.623047"/>
      </g>
     </g>
    </g>
    <g id="ytick_8">
     <g id="line2d_27">
      <path d="M 44.57 36.4929 
L 813.13 36.4929 
" clip-path="url(#p4d405fda4e)" style="fill: none; stroke-dasharray: 1.85,0.8; stroke-dashoffset: 0; stroke: #b0b0b0; stroke-opacity: 0.5; stroke-width: 0.5"/>
     </g>
     <g id="line2d_28">
      <g>
       <use xlink:href="#m0a4441eb0e" x="44.57" y="36.4929" style="stroke: #000000; stroke-width: 0.8"/>
      </g>
     </g>
     <g id="text_15">
      <!-- 70 -->
      <g style="fill: #d62728" transform="translate(24.845 40.292118) scale(0.1 -0.1)">
       <defs>
        <path id="DejaVuSans-37" d="M 525 4666 
L 3525 4666 
L 3525 4397 
L 1831 0 
L 1172 0 
L 2766 4134 
L 525 4134 
L 525 4666 
z
" transform="scale(0.015625)"/>
       </defs>
       <use xlink:href="#DejaVuSans-37"/>
       <use xlink:href="#DejaVuSans-30" x="63.623047"/>
      </g>
     </g>
    </g>
    <g id="text_16">
     <!-- Returns (%) -->
     <g style="fill: #d62728" transform="translate(18.765312 237.8975) rotate(-90) scale(0.1 -0.1)">
      <defs>
       <path id="DejaVuSans-52" d="M 2841 2188 
Q 3044 2119 3236 1894 
Q 3428 1669 3622 1275 
L 4263 0 
L 3584 0 
L 2988 1197 
Q 2756 1666 2539 1819 
Q 2322 1972 1947 1972 
L 1259 1972 
L 1259 0 
L 628 0 
L 628 4666 
L 2053 4666 
Q 2853 4666 3247 4331 
Q 3641 3997 3641 3322 
Q 3641 2881 3436 2590 
Q 3231 2300 2841 2188 
z
M 1259 4147 
L 1259 2491 
L 2053 2491 
Q 2509 2491 2742 2702 
Q 2975 2913 2975 3322 
Q 2975 3731 2742 3939 
Q 2509 4147 2053 4147 
L 1259 4147 
z
" transform="scale(0.015625)"/>
       <path id="DejaVuSans-75" d="M 544 1381 
L 544 3500 
L 1119 3500 
L 1119 1403 
Q 1119 906 1312 657 
Q 1506 409 1894 409 
Q 2359 409 2629 706 
Q 2900 1003 2900 1516 
L 2900 3500 
L 3475 3500 
L 3475 0 
L 2900 0 
L 2900 538 
Q 2691 219 2414 64 
Q 2138 -91 1772 -91 
Q 1169 -91 856 284 
Q 544 659 544 1381 
z
M 1991 3584 
L 1991 3584 
z
" transform="scale(0.015625)"/>
       <path id="DejaVuSans-72" d="M 2631 2963 
Q 2534 3019 2420 3045 
Q 2306 3072 2169 3072 
Q 1681 3072 1420 2755 
Q 1159 2438 1159 1844 
L 1159 0 
L 581 0 
L 581 3500 
L 1159 3500 
L 1159 2956 
Q 1341 3275 1631 3429 
Q 1922 3584 2338 3584 
Q 2397 3584 2469 3576 
Q 2541 3569 2628 3553 
L 2631 2963 
z
" transform="scale(0.015625)"/>
       <path id="DejaVuSans-6e" d="M 3513 2113 
L 3513 0 
L 2938 0 
L 2938 2094 
Q 2938 2591 2744 2837 
Q 2550 3084 2163 3084 
Q 1697 3084 1428 2787 
Q 1159 2491 1159 1978 
L 1159 0 
L 581 0 
L 581 3500 
L 1159 3500 
L 1159 2956 
Q 1366 3272 1645 3428 
Q 1925 3584 2291 3584 
Q 2894 3584 3203 3211 
Q 3513 2838 3513 2113 
z
" transform="scale(0.015625)"/>
       <path id="DejaVuSans-73" d="M 2834 3397 
L 2834 2853 
Q 2591 2978 2328 3040 
Q 2066 3103 1784 3103 
Q 1356 3103 1142 2972 
Q 928 2841 928 2578 
Q 928 2378 1081 2264 
Q 1234 2150 1697 2047 
L 1894 2003 
Q 2506 1872 2764 1633 
Q 3022 1394 3022 966 
Q 3022 478 2636 193 
Q 2250 -91 1575 -91 
Q 1294 -91 989 -36 
Q 684 19 347 128 
L 347 722 
Q 666 556 975 473 
Q 1284 391 1588 391 
Q 1994 391 2212 530 
Q 2431 669 2431 922 
Q 2431 1156 2273 1281 
Q 2116 1406 1581 1522 
L 1381 1569 
Q 847 1681 609 1914 
Q 372 2147 372 2553 
Q 372 3047 722 3315 
Q 1072 3584 1716 3584 
Q 2034 3584 2315 3537 
Q 2597 3491 2834 3397 
z
" transform="scale(0.015625)"/>
       <path id="DejaVuSans-20" transform="scale(0.015625)"/>
       <path id="DejaVuSans-28" d="M 1984 4856 
Q 1566 4138 1362 3434 
Q 1159 2731 1159 2009 
Q 1159 1288 1364 580 
Q 1569 -128 1984 -844 
L 1484 -844 
Q 1016 -109 783 600 
Q 550 1309 550 2009 
Q 550 2706 781 3412 
Q 1013 4119 1484 4856 
L 1984 4856 
z
" transform="scale(0.015625)"/>
       <path id="DejaVuSans-25" d="M 4653 2053 
Q 4381 2053 4226 1822 
Q 4072 1591 4072 1178 
Q 4072 772 4226 539 
Q 4381 306 4653 306 
Q 4919 306 5073 539 
Q 5228 772 5228 1178 
Q 5228 1588 5073 1820 
Q 4919 2053 4653 2053 
z
M 4653 2450 
Q 5147 2450 5437 2106 
Q 5728 1763 5728 1178 
Q 5728 594 5436 251 
Q 5144 -91 4653 -91 
Q 4153 -91 3862 251 
Q 3572 594 3572 1178 
Q 3572 1766 3864 2108 
Q 4156 2450 4653 2450 
z
M 1428 4353 
Q 1159 4353 1004 4120 
Q 850 3888 850 3481 
Q 850 3069 1003 2837 
Q 1156 2606 1428 2606 
Q 1700 2606 1854 2837 
Q 2009 3069 2009 3481 
Q 2009 3884 1853 4118 
Q 1697 4353 1428 4353 
z
M 4250 4750 
L 4750 4750 
L 1831 -91 
L 1331 -91 
L 4250 4750 
z
M 1428 4750 
Q 1922 4750 2215 4408 
Q 2509 4066 2509 3481 
Q 2509 2891 2217 2550 
Q 1925 2209 1428 2209 
Q 931 2209 642 2551 
Q 353 2894 353 3481 
Q 353 4063 643 4406 
Q 934 4750 1428 4750 
z
" transform="scale(0.015625)"/>
       <path id="DejaVuSans-29" d="M 513 4856 
L 1013 4856 
Q 1481 4119 1714 3412 
Q 1947 2706 1947 2009 
Q 1947 1309 1714 600 
Q 1481 -109 1013 -844 
L 513 -844 
Q 928 -128 1133 580 
Q 1338 1288 1338 2009 
Q 1338 2731 1133 3434 
Q 928 4138 513 4856 
z
" transform="scale(0.015625)"/>
      </defs>
      <use xlink:href="#DejaVuSans-52"/>
      <use xlink:href="#DejaVuSans-65" x="64.982422"/>
      <use xlink:href="#DejaVuSans-74" x="126.505859"/>
      <use xlink:href="#DejaVuSans-75" x="165.714844"/>
      <use xlink:href="#DejaVuSans-72" x="229.09375"/>
      <use xlink:href="#DejaVuSans-6e" x="268.457031"/>
      <use xlink:href="#DejaVuSans-73" x="331.835938"/>
      <use xlink:href="#DejaVuSans-20" x="383.935547"/>
      <use xlink:href="#DejaVuSans-28" x="415.722656"/>
      <use xlink:href="#DejaVuSans-25" x="454.736328"/>
      <use xlink:href="#DejaVuSans-29" x="549.755859"/>
     </g>
    </g>
   </g>
   <g id="line2d_29">
    <path d="M 79.504545 373.532727 
L 79.88802 373.532727 
L 80.271495 354.375262 
L 82.955818 354.375262 
L 84.106242 358.065832 
L 84.873191 358.065832 
L 85.256666 353.940728 
L 87.17404 353.940728 
L 87.557514 353.764389 
L 87.940989 352.136924 
L 88.324464 346.152411 
L 89.474888 350.968677 
L 89.858362 353.374973 
L 90.241837 342.155389 
L 90.625312 335.748396 
L 91.008787 336.207613 
L 92.159211 331.112144 
L 92.542685 327.148185 
L 92.92616 328.985052 
L 93.309635 334.190733 
L 93.693109 332.809409 
L 94.843534 332.419993 
L 95.227008 325.623585 
L 95.610483 323.959384 
L 95.993958 323.852845 
L 96.377432 319.925624 
L 97.911331 319.396606 
L 98.294806 319.076991 
L 98.678281 321.446549 
L 99.061755 317.023374 
L 100.212179 316.138004 
L 100.595654 316.35108 
L 100.979129 315.64205 
L 101.362604 316.59722 
L 101.746078 311.85443 
L 103.279977 314.404001 
L 103.663452 317.625866 
L 104.046926 322.827873 
L 104.430401 323.959384 
L 105.580825 314.899955 
L 105.9643 313.022677 
L 106.347775 309.484871 
L 106.731249 309.554672 
L 107.114724 306.123404 
L 108.265148 305.16456 
L 109.032098 302.828065 
L 109.415572 294.760545 
L 109.799047 306.865499 
L 110.949471 307.005101 
L 111.332946 303.78691 
L 111.716421 306.689159 
L 112.099895 303.948554 
L 112.48337 299.760497 
L 114.400743 289.712834 
L 114.784218 289.606296 
L 115.167693 286.803237 
L 116.318117 286.237482 
L 116.701592 288.614388 
L 117.085066 285.95093 
L 117.468541 286.270545 
L 117.852016 282.012687 
L 119.00244 282.189027 
L 119.385915 282.758455 
L 119.769389 284.426331 
L 120.152864 282.758455 
L 121.686763 281.230182 
L 122.070238 275.054635 
L 122.453712 276.156755 
L 122.837187 274.878296 
L 123.220662 272.288313 
L 124.371086 271.895224 
L 124.75456 273.636574 
L 125.138035 277.931169 
L 125.52151 278.816539 
L 125.904985 272.427915 
L 127.055409 274.841558 
L 127.438883 285.631316 
L 127.822358 285.598252 
L 128.205833 287.335928 
L 128.589307 285.774591 
L 129.739732 302.067602 
L 130.890156 284.745946 
L 131.27363 289.393219 
L 132.424054 295.925119 
L 132.807529 290.425539 
L 133.191004 291.59746 
L 133.574479 299.334344 
L 133.957953 298.977992 
L 135.491852 301.567974 
L 135.875327 305.722967 
L 136.258802 302.989709 
L 136.642276 310.480453 
L 137.7927 318.676554 
L 138.176175 305.866243 
L 139.326599 287.585742 
L 140.477023 284.143453 
L 140.860498 284.496132 
L 141.243973 285.70479 
L 141.627447 282.758455 
L 142.010922 284.283055 
L 143.161346 282.049425 
L 143.544821 275.870204 
L 143.928296 273.599836 
L 144.31177 267.956981 
L 144.695245 269.23544 
L 145.845669 270.903315 
L 146.229144 279.599044 
L 146.612619 278.959814 
L 147.379568 273.541057 
L 148.913467 265.106163 
L 149.296941 260.550733 
L 150.063891 261.439776 
L 151.214315 264.893086 
L 151.59779 261.976142 
L 151.981264 257.883602 
L 152.364739 256.638206 
L 152.748214 253.717587 
L 153.898638 253.008557 
L 154.665587 258.559569 
L 155.049062 257.170897 
L 155.432537 261.156899 
L 156.582961 257.883602 
L 157.34991 250.550828 
L 157.733385 254.253952 
L 158.11686 249.092356 
L 159.267284 251.263533 
L 159.650758 253.078357 
L 160.034233 260.19438 
L 160.417708 263.57789 
L 160.801183 269.411779 
L 161.951607 289.091973 
L 162.335081 280.48074 
L 162.718556 277.773198 
L 163.102031 264.749811 
L 163.485505 269.305241 
L 164.63593 276.671078 
L 165.019404 266.388296 
L 165.402879 284.036915 
L 165.786354 281.083233 
L 166.169828 272.791615 
L 167.320252 265.31924 
L 167.703727 268.203121 
L 168.087202 262.259019 
L 168.470677 263.008461 
L 168.854151 279.16187 
L 170.004575 272.258923 
L 170.38805 273.57412 
L 170.771525 270.693913 
L 171.155 261.902667 
L 171.538474 263.610953 
L 173.072373 268.309659 
L 173.839322 252.259115 
L 174.222797 252.722005 
L 175.373221 256.921083 
L 175.756696 260.19438 
L 176.523645 252.935082 
L 176.90712 254.929919 
L 178.057544 256.443498 
L 178.441019 252.843238 
L 178.824494 252.486886 
L 179.207968 251.913784 
L 179.591443 257.159876 
L 180.741867 256.836587 
L 181.125342 263.045198 
L 181.508816 258.192195 
L 181.892291 258.978374 
L 182.275766 265.719677 
L 183.42619 261.902667 
L 183.809665 267.787989 
L 184.193139 277.736461 
L 184.576614 271.318447 
L 184.960089 262.901923 
L 186.110513 265.11351 
L 186.493988 274.099464 
L 186.877462 267.681451 
L 187.260937 264.25753 
L 187.644412 257.979119 
L 188.794836 258.122394 
L 189.178311 251.987258 
L 189.561785 253.805757 
L 189.94526 252.523624 
L 190.328735 257.159876 
L 191.479159 252.913039 
L 191.862633 259.76088 
L 192.246108 258.085657 
L 192.629583 253.019578 
L 193.013058 250.312036 
L 194.163482 246.065199 
L 194.546956 248.849889 
L 194.930431 245.459033 
L 195.313906 246.531763 
L 195.697381 241.428947 
L 196.847805 240.716242 
L 197.231279 242.571478 
L 197.614754 243.390721 
L 197.998229 241.572222 
L 198.381703 240.323153 
L 199.532128 240.146813 
L 200.682552 234.437831 
L 201.066026 229.981591 
L 202.21645 229.195412 
L 202.599925 228.019817 
L 202.9834 229.981591 
L 203.366875 232.656069 
L 203.750349 232.369518 
L 205.284248 224.022794 
L 205.667723 219.779631 
L 206.434672 222.241033 
L 207.968571 233.192435 
L 208.352046 230.124867 
L 208.73552 229.268887 
L 209.118995 223.31009 
L 210.652894 226.451133 
L 211.036369 224.309346 
L 211.803318 218.923651 
L 212.953742 213.787771 
L 213.337217 214.57395 
L 213.720692 213.894309 
L 214.487641 206.47704 
L 216.02154 205.378594 
L 216.788489 199.941467 
L 217.171964 200.154544 
L 218.322388 204.732016 
L 218.705863 203.409472 
L 219.472812 194.037776 
L 219.856287 198.582186 
L 221.006711 194.361065 
L 221.390186 194.577815 
L 222.157135 183.453748 
L 222.54061 184.882831 
L 223.691034 177.730071 
L 224.074509 180.735185 
L 224.457983 178.766064 
L 224.841458 171.936592 
L 225.224933 168.575125 
L 226.758831 168.251837 
L 227.142306 167.858747 
L 227.525781 166.069639 
L 227.909256 172.006393 
L 229.05968 184.276665 
L 229.443154 174.724956 
L 230.210104 171.543502 
L 230.593578 183.023922 
L 231.744003 174.188591 
L 232.127477 160.742724 
L 232.510952 159.383442 
L 232.894427 154.589219 
L 233.277901 157.700872 
L 234.428326 149.258631 
L 242.864769 149.258631 
L 243.248244 120.486629 
L 243.631718 145.034251 
L 244.015193 158.457401 
L 245.165617 209.883757 
L 245.549092 173.810307 
L 245.932567 206.174248 
L 246.316041 265.258813 
L 246.699516 212.960825 
L 247.84994 293.953787 
L 248.233415 261.431736 
L 248.61689 287.361808 
L 249.000364 281.284701 
L 249.383839 281.284701 
L 250.534263 289.831621 
L 250.917738 289.831621 
L 251.301212 284.891617 
L 254.752485 284.891617 
L 255.902909 242.665914 
L 296.551227 242.665914 
L 296.934702 239.529986 
L 297.318177 252.872253 
L 297.701652 255.32329 
L 298.852076 246.999674 
L 299.23555 253.612519 
L 299.619025 245.146095 
L 300.0025 244.633155 
L 300.385974 235.283659 
L 301.919873 226.61614 
L 302.303348 223.080934 
L 302.686823 215.867716 
L 303.070297 221.626633 
L 304.220721 223.509356 
L 305.75462 223.509356 
L 306.905044 217.113153 
L 307.288519 212.271141 
L 307.671994 215.668943 
L 308.055469 208.87334 
L 313.424114 208.87334 
L 313.807589 219.147804 
L 315.341488 242.898504 
L 315.724963 225.997448 
L 316.108437 237.872797 
L 316.491912 240.193658 
L 317.642336 230.387882 
L 318.025811 223.013081 
L 319.176235 246.131333 
L 320.326659 246.241446 
L 320.710134 236.243678 
L 321.093608 253.449665 
L 321.477083 251.764077 
L 321.860558 238.770648 
L 332.59785 238.770648 
L 333.748274 249.237468 
L 334.131748 245.659963 
L 334.515223 269.331079 
L 334.898698 261.835226 
L 335.282172 274.30416 
L 336.432597 272.277891 
L 336.816071 261.730557 
L 337.199546 237.611247 
L 337.583021 223.462253 
L 337.966495 221.988847 
L 339.116919 231.720306 
L 339.500394 241.21559 
L 339.883869 229.669883 
L 340.267344 233.325218 
L 343.335141 233.325218 
L 344.485565 232.435361 
L 344.86904 225.33788 
L 345.252515 221.775778 
L 346.019464 217.481482 
L 347.169888 216.800059 
L 347.553363 209.886963 
L 347.936838 211.589183 
L 348.320312 211.93123 
L 348.703787 208.080526 
L 349.854211 205.565944 
L 350.237686 204.203099 
L 350.621161 215.859429 
L 351.004635 213.580005 
L 351.38811 214.338922 
L 352.538534 212.636703 
L 352.922009 204.780304 
L 353.305483 201.480082 
L 353.688958 195.876386 
L 354.072433 196.084821 
L 355.222857 197.159063 
L 355.606332 194.409324 
L 355.989806 198.70362 
L 356.373281 195.737429 
L 357.90718 189.938659 
L 358.290655 191.354949 
L 358.674129 191.485888 
L 359.057604 190.253984 
L 360.591503 199.908803 
L 360.974978 195.659934 
L 361.358452 202.874994 
L 361.741927 187.814225 
L 362.125402 180.67666 
L 363.275826 189.754274 
L 363.6593 191.042296 
L 364.042775 188.52237 
L 364.42625 195.002562 
L 364.809725 198.727671 
L 366.343623 191.435116 
L 366.727098 175.877309 
L 367.110573 172.622516 
L 367.494048 173.19972 
L 368.644472 168.819912 
L 369.027946 169.920877 
L 377.080915 169.920877 
L 378.231339 177.69775 
L 379.381763 192.839858 
L 379.765238 193.915854 
L 380.148713 189.564973 
L 380.532187 210.363226 
L 380.915662 208.086178 
L 382.066086 190.588863 
L 382.449561 199.592842 
L 382.833036 217.574746 
L 383.21651 228.47279 
L 383.599985 219.979454 
L 384.750409 233.000833 
L 385.133884 212.637668 
L 385.517359 212.741881 
L 385.900833 198.287578 
L 386.284308 202.357084 
L 387.818207 194.119069 
L 388.201681 192.918017 
L 388.585156 210.31112 
L 388.968631 209.261176 
L 390.119055 199.772609 
L 390.50253 202.458691 
L 390.886004 211.38451 
L 391.269479 211.228191 
L 391.652954 201.648438 
L 392.803378 202.338847 
L 393.186853 205.517335 
L 393.953802 185.35478 
L 395.487701 173.570927 
L 395.871176 172.724199 
L 396.25465 170.650366 
L 398.172024 170.650366 
L 398.555498 163.457048 
L 398.938973 170.775667 
L 399.322448 159.963955 
L 399.705923 159.761939 
L 400.856347 165.56927 
L 401.239821 170.271905 
L 401.623296 164.814905 
L 402.006771 170.952112 
L 402.390245 160.641605 
L 403.54067 157.296827 
L 404.307619 160.314287 
L 404.691094 158.529383 
L 405.074568 163.935239 
L 406.224993 167.90908 
L 406.608467 178.21703 
L 406.991942 181.789395 
L 407.375417 178.996966 
L 407.758891 173.314936 
L 408.909315 187.622298 
L 409.29279 189.558076 
L 409.676265 206.982627 
L 410.05974 202.131677 
L 410.443214 188.729553 
L 411.593638 192.626679 
L 411.977113 196.799979 
L 412.360588 196.574948 
L 412.744062 185.057458 
L 413.127537 188.174647 
L 414.277961 177.237634 
L 415.044911 174.42219 
L 415.428385 175.629174 
L 415.81186 173.818698 
L 417.345759 176.181523 
L 417.729234 175.427158 
L 418.112708 181.763823 
L 418.496183 172.634729 
L 419.646607 171.353587 
L 420.030082 170.573651 
L 420.413557 170.422778 
L 420.797031 163.935239 
L 421.180506 161.370398 
L 422.33093 155.36105 
L 422.714405 159.360463 
L 423.097879 161.97389 
L 423.481354 153.2744 
L 423.864829 158.27878 
L 425.015253 152.34359 
L 425.398728 145.027529 
L 425.782202 144.498195 
L 426.165677 140.813314 
L 426.549152 139.603773 
L 428.083051 131.748149 
L 428.466525 132.806817 
L 428.85 131.497546 
L 429.233475 123.491049 
L 431.150848 117.497044 
L 431.534323 122.78527 
L 431.917798 117.069997 
L 433.068222 115.45898 
L 433.451696 116.691536 
L 433.835171 115.735154 
L 434.602121 124.623875 
L 435.752545 133.612325 
L 436.136019 122.281508 
L 436.902969 111.983787 
L 437.286443 100.65297 
L 438.436868 99.949748 
L 438.820342 107.022879 
L 439.203817 105.161259 
L 439.587292 104.455481 
L 439.970766 109.817865 
L 441.12119 111.252437 
L 441.504665 107.099594 
L 441.88814 106.595831 
L 442.271615 100.30008 
L 442.655089 102.995337 
L 443.805513 102.591304 
L 444.188988 106.897577 
L 444.572463 108.23242 
L 444.955938 104.153735 
L 445.339412 102.038956 
L 446.489836 100.931701 
L 447.256786 113.998836 
L 447.64026 111.075992 
L 448.023735 103.322655 
L 449.174159 93.930172 
L 449.941109 91.539218 
L 450.324583 95.945221 
L 450.708058 88.843962 
L 451.858482 81.164782 
L 452.241957 82.448481 
L 452.625432 80.157258 
L 453.008906 80.56129 
L 453.392381 77.791876 
L 454.92628 76.986368 
L 455.693229 81.366799 
L 456.076704 87.787851 
L 457.227128 89.524169 
L 457.610603 90.48055 
L 457.994077 85.092594 
L 458.377552 83.959768 
L 458.761027 92.572315 
L 459.911451 106.419387 
L 460.294926 105.010386 
L 461.061875 89.751757 
L 461.44535 88.826062 
L 462.595774 95.454245 
L 462.979249 118.113322 
L 463.362723 118.921387 
L 463.746198 123.583107 
L 464.129673 115.870684 
L 465.280097 131.574261 
L 465.663571 122.17155 
L 466.047046 117.3564 
L 466.430521 110.250026 
L 466.813996 113.172871 
L 467.96442 118.34091 
L 468.347894 118.793529 
L 468.731369 113.149856 
L 469.114844 100.394696 
L 469.498319 94.597593 
L 470.648743 87.212488 
L 471.032217 81.694116 
L 471.415692 83.40742 
L 474.100015 83.40742 
L 474.48349 75.607676 
L 474.866964 72.093366 
L 476.017388 71.721709 
L 476.400863 69.403276 
L 476.784338 64.096416 
L 477.167813 55.098267 
L 477.551287 53.82907 
L 478.701711 52.506779 
L 479.085186 56.544443 
L 479.468661 69.054373 
L 479.852136 67.9571 
L 480.23561 58.063939 
L 481.386034 58.463408 
L 481.769509 51.012566 
L 482.152984 52.458742 
L 482.536458 46.153211 
L 482.919933 43.387273 
L 484.453832 58.713707 
L 484.837307 53.629336 
L 485.604256 69.951913 
L 486.75468 55.272718 
L 487.138155 66.513452 
L 487.52163 83.359383 
L 487.905104 74.335951 
L 488.288579 88.117606 
L 489.439003 79.594773 
L 489.822478 56.918628 
L 490.205952 50.863397 
L 490.589427 61.454363 
L 490.972902 54.203255 
L 492.123326 65.067275 
L 492.506801 75.359904 
L 492.890275 60.109318 
L 493.27375 78.049994 
L 493.657225 80.46703 
L 494.807649 89.811554 
L 495.191124 71.221109 
L 495.574598 62.374657 
L 495.958073 56.119692 
L 497.491972 43.645157 
L 497.875447 47.263126 
L 498.258921 46.964789 
L 499.025871 54.102124 
L 500.176295 48.635982 
L 500.559769 58.369861 
L 500.943244 85.720796 
L 501.326719 87.394518 
L 501.710194 95.753012 
L 502.860618 97.30032 
L 503.244092 87.493121 
L 503.627567 84.747408 
L 504.011042 105.06214 
L 504.394517 103.416229 
L 505.928415 121.334151 
L 506.31189 128.246469 
L 506.695365 137.755331 
L 507.078839 157.245843 
L 509.763162 157.245843 
L 510.913586 135.389808 
L 514.748333 135.389808 
L 515.131808 157.690855 
L 517.432656 157.690855 
L 517.816131 165.57822 
L 519.733505 165.57822 
L 520.116979 142.019479 
L 520.500454 131.062665 
L 522.034353 131.062665 
L 522.417828 119.699456 
L 525.8691 119.699456 
L 527.019524 132.28635 
L 535.455967 132.28635 
L 535.839442 149.663419 
L 536.222917 147.082365 
L 536.606392 155.508225 
L 537.756816 171.88282 
L 538.14029 175.344529 
L 538.523765 162.479864 
L 538.90724 177.324099 
L 540.441139 178.402711 
L 540.824613 162.779337 
L 541.208088 170.603714 
L 541.591563 184.823623 
L 541.975037 204.058442 
L 543.508936 204.058442 
L 543.892411 202.563939 
L 544.65936 202.563939 
L 545.809784 193.998567 
L 546.960209 193.998567 
L 547.343683 203.059199 
L 549.261057 203.059199 
L 549.644531 204.108204 
L 551.94538 204.108204 
L 552.328854 204.70302 
L 554.246228 204.70302 
L 554.629703 196.331254 
L 558.080975 196.331254 
L 559.231399 193.867441 
L 559.998348 193.867441 
L 560.381823 211.774497 
L 560.765298 236.144188 
L 561.915722 264.460986 
L 562.299197 264.189999 
L 562.682671 249.50468 
L 563.066146 273.521267 
L 563.449621 267.192757 
L 564.98352 252.236451 
L 565.366994 252.236451 
L 565.750469 240.748234 
L 572.653014 240.748234 
L 573.036488 248.769268 
L 590.29285 248.769268 
L 591.443274 254.879142 
L 591.826749 260.964119 
L 592.210224 265.251488 
L 592.593698 265.151897 
L 592.977173 272.84028 
L 594.511072 275.03127 
L 594.894546 262.983315 
L 595.278021 258.920025 
L 595.661496 246.304404 
L 596.81192 238.914792 
L 597.195395 270.696596 
L 597.578869 266.927097 
L 597.962344 276.80647 
L 598.345819 282.941242 
L 599.496243 278.014005 
L 599.879718 283.952085 
L 600.646667 301.985427 
L 601.030142 310.92118 
L 602.180566 314.426764 
L 602.564041 314.327174 
L 602.947515 303.812912 
L 603.33099 317.857655 
L 603.714465 326.843204 
L 604.864889 314.526355 
L 606.015313 314.526355 
L 606.398788 333.648184 
L 607.549212 333.648184 
L 607.932686 340.550931 
L 608.699636 340.550931 
L 609.08311 356.285987 
L 610.233535 338.565655 
L 611.000484 338.565655 
L 611.383959 342.520356 
L 613.684807 342.520356 
L 614.068282 349.479684 
L 618.286503 349.479684 
L 618.669978 347.536146 
L 619.053453 359.742424 
L 619.436927 320.658908 
L 619.820402 309.710073 
L 620.970826 316.322404 
L 621.354301 308.713203 
L 621.737776 314.735062 
L 626.339472 314.735062 
L 626.722947 318.962069 
L 627.106422 295.256918 
L 627.489896 293.408663 
L 627.873371 294.944435 
L 629.023795 306.281049 
L 629.40727 317.784805 
L 629.790744 319.969768 
L 630.174219 313.773388 
L 630.557694 317.472321 
L 631.708118 309.522157 
L 632.091593 302.703233 
L 632.475067 306.760675 
L 632.858542 324.533481 
L 633.242017 331.73756 
L 634.392441 339.833065 
L 634.775916 339.520582 
L 635.15939 331.306381 
L 635.542865 342.526722 
L 635.92634 340.816541 
L 637.460238 346.639878 
L 637.843713 353.306195 
L 638.227188 340.649398 
L 638.610663 342.068898 
L 640.144561 345.678204 
L 640.528036 342.163369 
L 640.911511 351.358623 
L 641.294986 339.566606 
L 642.44541 335.065874 
L 642.828884 330.444024 
L 643.212359 319.783246 
L 648.19753 319.783246 
L 648.581005 321.038803 
L 648.96448 312.722204 
L 649.347954 307.332899 
L 650.498378 317.508281 
L 651.265328 297.971173 
L 651.648803 280.643562 
L 652.032277 289.958527 
L 653.182701 295.114023 
L 653.566176 284.499078 
L 657.017448 284.499078 
L 657.400923 289.317955 
L 658.934822 303.275258 
L 659.318297 302.871495 
L 659.701771 298.265251 
L 660.085246 307.783548 
L 661.23567 303.939436 
L 661.619145 304.555832 
L 662.002619 308.85149 
L 662.386094 303.559565 
L 662.769569 291.974669 
L 663.919993 291.358273 
L 664.303468 298.929429 
L 664.686942 296.960785 
L 665.453892 316.757124 
L 666.604316 313.362169 
L 666.987791 301.540749 
L 667.371265 301.352008 
L 667.75474 287.726794 
L 668.138215 291.097858 
L 669.288639 289.389629 
L 669.672114 280.275095 
L 670.055588 288.985866 
L 670.439063 283.328404 
L 670.822538 281.782637 
L 671.972962 284.422626 
L 672.356436 286.799811 
L 672.739911 276.978094 
L 673.123386 272.34318 
L 673.506861 261.833394 
L 674.657285 262.378115 
L 675.040759 264.138905 
L 675.424234 270.462934 
L 675.807709 266.802786 
L 677.341608 267.39529 
L 677.725082 269.774865 
L 678.108557 273.365728 
L 678.492032 261.618372 
L 678.875506 263.164139 
L 680.025931 262.093809 
L 680.79288 261.023478 
L 681.176355 264.781581 
L 681.559829 263.995557 
L 682.710253 264.75769 
L 683.093728 277.001986 
L 683.477203 274.173255 
L 683.860678 260.263735 
L 684.244152 255.674214 
L 685.394576 256.529523 
L 685.778051 261.690046 
L 686.545 267.75366 
L 686.928475 255.530866 
L 688.078899 253.817859 
L 688.462374 256.529523 
L 688.845849 250.274778 
L 689.229323 249.823233 
L 689.612798 251.796655 
L 690.763222 249.467252 
L 691.146697 250.370344 
L 691.913646 233.108873 
L 692.297121 234.962838 
L 693.447545 233.297614 
L 693.83102 242.90431 
L 694.214495 246.25626 
L 694.981444 223.215482 
L 696.515343 220.957753 
L 696.898817 224.689576 
L 697.665767 209.829181 
L 698.816191 210.780056 
L 699.199666 209.590268 
L 699.58314 219.292529 
L 699.966615 212.990002 
L 700.35009 211.01658 
L 701.500514 201.768254 
L 701.883989 197.154842 
L 702.267463 193.991633 
L 702.650938 185.194853 
L 703.034413 189.402112 
L 704.568312 190.615791 
L 704.951786 197.65417 
L 705.335261 191.019554 
L 705.718736 196.110792 
L 706.86916 203.540989 
L 707.252634 193.372848 
L 707.636109 191.08645 
L 708.019584 190.823645 
L 708.403059 181.130941 
L 709.553483 181.085548 
L 710.320432 180.751069 
L 710.703907 185.655955 
L 711.087381 187.846788 
L 712.237806 187.870679 
L 712.62128 184.346711 
L 713.38823 166.843938 
L 713.771704 166.249045 
L 714.922129 161.604574 
L 715.305603 156.033121 
L 715.689078 156.556341 
L 716.072553 170.152885 
L 716.456027 171.581585 
L 717.606451 169.414643 
L 717.989926 165.247999 
L 718.373401 166.057914 
L 718.756876 170.630711 
L 719.14035 159.936961 
L 720.290774 158.508261 
L 720.674249 160.699094 
L 721.057724 175.440031 
L 721.441198 176.988188 
L 721.824673 180.822743 
L 722.975097 175.917858 
L 723.358572 178.751367 
L 723.742047 185.775412 
L 724.125521 184.537842 
L 724.508996 188.157375 
L 725.65942 180.727178 
L 726.809844 200.040912 
L 727.193319 200.922501 
L 728.343743 192.063604 
L 728.727218 191.872474 
L 729.110693 182.060313 
L 729.494167 194.395396 
L 729.877642 189.251597 
L 731.028066 184.418385 
L 731.411541 171.488409 
L 731.795015 167.035069 
L 732.561965 165.367456 
L 734.095864 165.247999 
L 734.479338 171.605476 
L 734.862813 175.203507 
L 735.246288 174.725681 
L 736.396712 167.22381 
L 736.780187 174.725681 
L 737.163661 172.917109 
L 737.547136 168.795858 
L 737.930611 179.941154 
L 739.081035 179.632956 
L 739.46451 180.751069 
L 740.231459 203.997313 
L 740.614934 204.878902 
L 741.765358 201.302373 
L 742.148832 201.302373 
L 742.532307 200.357268 
L 744.833155 200.357268 
L 745.21663 191.243542 
L 748.284428 191.243542 
L 748.667902 198.651103 
L 750.585276 198.651103 
L 750.968751 204.020135 
L 751.352225 213.860584 
L 752.502649 211.839161 
L 752.886124 206.327272 
L 753.653074 233.441481 
L 754.036548 231.231963 
L 755.570447 219.253426 
L 768.608587 219.253426 
L 768.992062 216.256163 
L 769.375536 219.70398 
L 769.759011 212.078876 
L 770.142486 208.974339 
L 771.29291 208.545239 
L 771.676385 203.900233 
L 772.059859 196.382404 
L 772.443334 197.345733 
L 773.977233 190.495154 
L 774.360708 186.832786 
L 774.744182 195.590714 
L 775.127657 188.499839 
L 775.511132 188.564204 
L 777.81198 185.174316 
L 778.195455 187.920555 
L 778.195455 187.920555 
" clip-path="url(#p4d405fda4e)" style="fill: none; stroke: #d62728; stroke-width: 1.5; stroke-linecap: square"/>
   </g>
   <g id="patch_3">
    <path d="M 44.57 390.04 
L 44.57 26.88 
" style="fill: none; stroke: #000000; stroke-width: 0.8; stroke-linejoin: miter; stroke-linecap: square"/>
   </g>
   <g id="patch_4">
    <path d="M 813.13 390.04 
L 813.13 26.88 
" style="fill: none; stroke: #000000; stroke-width: 0.8; stroke-linejoin: miter; stroke-linecap: square"/>
   </g>
   <g id="patch_5">
    <path d="M 44.57 390.04 
L 813.13 390.04 
" style="fill: none; stroke: #000000; stroke-width: 0.8; stroke-linejoin: miter; stroke-linecap: square"/>
   </g>
   <g id="patch_6">
    <path d="M 44.57 26.88 
L 813.13 26.88 
" style="fill: none; stroke: #000000; stroke-width: 0.8; stroke-linejoin: miter; stroke-linecap: square"/>
   </g>
  </g>
  <g id="axes_2">
   <g id="matplotlib.axis_3">
    <g id="ytick_9">
     <g id="line2d_30">
      <defs>
       <path id="m30eaa897d2" d="M 0 0 
L 3.5 0 
" style="stroke: #000000; stroke-width: 0.8"/>
      </defs>
      <g>
       <use xlink:href="#m30eaa897d2" x="813.13" y="374.248493" style="stroke: #000000; stroke-width: 0.8"/>
      </g>
     </g>
     <g id="text_17">
      <!-- 125 -->
      <g style="fill: #1f77b4" transform="translate(820.13 378.047712) scale(0.1 -0.1)">
       <use xlink:href="#DejaVuSans-31"/>
       <use xlink:href="#DejaVuSans-32" x="63.623047"/>
       <use xlink:href="#DejaVuSans-35" x="127.246094"/>
      </g>
     </g>
    </g>
    <g id="ytick_10">
     <g id="line2d_31">
      <g>
       <use xlink:href="#m30eaa897d2" x="813.13" y="332.0453" style="stroke: #000000; stroke-width: 0.8"/>
      </g>
     </g>
     <g id="text_18">
      <!-- 150 -->
      <g style="fill: #1f77b4" transform="translate(820.13 335.844519) scale(0.1 -0.1)">
       <use xlink:href="#DejaVuSans-31"/>
       <use xlink:href="#DejaVuSans-35" x="63.623047"/>
       <use xlink:href="#DejaVuSans-30" x="127.246094"/>
      </g>
     </g>
    </g>
    <g id="ytick_11">
     <g id="line2d_32">
      <g>
       <use xlink:href="#m30eaa897d2" x="813.13" y="289.842106" style="stroke: #000000; stroke-width: 0.8"/>
      </g>
     </g>
     <g id="text_19">
      <!-- 175 -->
      <g style="fill: #1f77b4" transform="translate(820.13 293.641325) scale(0.1 -0.1)">
       <use xlink:href="#DejaVuSans-31"/>
       <use xlink:href="#DejaVuSans-37" x="63.623047"/>
       <use xlink:href="#DejaVuSans-35" x="127.246094"/>
      </g>
     </g>
    </g>
    <g id="ytick_12">
     <g id="line2d_33">
      <g>
       <use xlink:href="#m30eaa897d2" x="813.13" y="247.638913" style="stroke: #000000; stroke-width: 0.8"/>
      </g>
     </g>
     <g id="text_20">
      <!-- 200 -->
      <g style="fill: #1f77b4" transform="translate(820.13 251.438131) scale(0.1 -0.1)">
       <use xlink:href="#DejaVuSans-32"/>
       <use xlink:href="#DejaVuSans-30" x="63.623047"/>
       <use xlink:href="#DejaVuSans-30" x="127.246094"/>
      </g>
     </g>
    </g>
    <g id="ytick_13">
     <g id="line2d_34">
      <g>
       <use xlink:href="#m30eaa897d2" x="813.13" y="205.435719" style="stroke: #000000; stroke-width: 0.8"/>
      </g>
     </g>
     <g id="text_21">
      <!-- 225 -->
      <g style="fill: #1f77b4" transform="translate(820.13 209.234938) scale(0.1 -0.1)">
       <use xlink:href="#DejaVuSans-32"/>
       <use xlink:href="#DejaVuSans-32" x="63.623047"/>
       <use xlink:href="#DejaVuSans-35" x="127.246094"/>
      </g>
     </g>
    </g>
    <g id="ytick_14">
     <g id="line2d_35">
      <g>
       <use xlink:href="#m30eaa897d2" x="813.13" y="163.232526" style="stroke: #000000; stroke-width: 0.8"/>
      </g>
     </g>
     <g id="text_22">
      <!-- 250 -->
      <g style="fill: #1f77b4" transform="translate(820.13 167.031744) scale(0.1 -0.1)">
       <use xlink:href="#DejaVuSans-32"/>
       <use xlink:href="#DejaVuSans-35" x="63.623047"/>
       <use xlink:href="#DejaVuSans-30" x="127.246094"/>
      </g>
     </g>
    </g>
    <g id="ytick_15">
     <g id="line2d_36">
      <g>
       <use xlink:href="#m30eaa897d2" x="813.13" y="121.029332" style="stroke: #000000; stroke-width: 0.8"/>
      </g>
     </g>
     <g id="text_23">
      <!-- 275 -->
      <g style="fill: #1f77b4" transform="translate(820.13 124.828551) scale(0.1 -0.1)">
       <use xlink:href="#DejaVuSans-32"/>
       <use xlink:href="#DejaVuSans-37" x="63.623047"/>
       <use xlink:href="#DejaVuSans-35" x="127.246094"/>
      </g>
     </g>
    </g>
    <g id="ytick_16">
     <g id="line2d_37">
      <g>
       <use xlink:href="#m30eaa897d2" x="813.13" y="78.826138" style="stroke: #000000; stroke-width: 0.8"/>
      </g>
     </g>
     <g id="text_24">
      <!-- 300 -->
      <g style="fill: #1f77b4" transform="translate(820.13 82.625357) scale(0.1 -0.1)">
       <use xlink:href="#DejaVuSans-33"/>
       <use xlink:href="#DejaVuSans-30" x="63.623047"/>
       <use xlink:href="#DejaVuSans-30" x="127.246094"/>
      </g>
     </g>
    </g>
    <g id="ytick_17">
     <g id="line2d_38">
      <g>
       <use xlink:href="#m30eaa897d2" x="813.13" y="36.622945" style="stroke: #000000; stroke-width: 0.8"/>
      </g>
     </g>
     <g id="text_25">
      <!-- 325 -->
      <g style="fill: #1f77b4" transform="translate(820.13 40.422164) scale(0.1 -0.1)">
       <use xlink:href="#DejaVuSans-33"/>
       <use xlink:href="#DejaVuSans-32" x="63.623047"/>
       <use xlink:href="#DejaVuSans-35" x="127.246094"/>
      </g>
     </g>
    </g>
    <g id="text_26">
     <!-- Close Price -->
     <g style="fill: #1f77b4" transform="translate(850.815938 235.867812) rotate(-90) scale(0.1 -0.1)">
      <defs>
       <path id="DejaVuSans-43" d="M 4122 4306 
L 4122 3641 
Q 3803 3938 3442 4084 
Q 3081 4231 2675 4231 
Q 1875 4231 1450 3742 
Q 1025 3253 1025 2328 
Q 1025 1406 1450 917 
Q 1875 428 2675 428 
Q 3081 428 3442 575 
Q 3803 722 4122 1019 
L 4122 359 
Q 3791 134 3420 21 
Q 3050 -91 2638 -91 
Q 1578 -91 968 557 
Q 359 1206 359 2328 
Q 359 3453 968 4101 
Q 1578 4750 2638 4750 
Q 3056 4750 3426 4639 
Q 3797 4528 4122 4306 
z
" transform="scale(0.015625)"/>
       <path id="DejaVuSans-6c" d="M 603 4863 
L 1178 4863 
L 1178 0 
L 603 0 
L 603 4863 
z
" transform="scale(0.015625)"/>
       <path id="DejaVuSans-6f" d="M 1959 3097 
Q 1497 3097 1228 2736 
Q 959 2375 959 1747 
Q 959 1119 1226 758 
Q 1494 397 1959 397 
Q 2419 397 2687 759 
Q 2956 1122 2956 1747 
Q 2956 2369 2687 2733 
Q 2419 3097 1959 3097 
z
M 1959 3584 
Q 2709 3584 3137 3096 
Q 3566 2609 3566 1747 
Q 3566 888 3137 398 
Q 2709 -91 1959 -91 
Q 1206 -91 779 398 
Q 353 888 353 1747 
Q 353 2609 779 3096 
Q 1206 3584 1959 3584 
z
" transform="scale(0.015625)"/>
       <path id="DejaVuSans-50" d="M 1259 4147 
L 1259 2394 
L 2053 2394 
Q 2494 2394 2734 2622 
Q 2975 2850 2975 3272 
Q 2975 3691 2734 3919 
Q 2494 4147 2053 4147 
L 1259 4147 
z
M 628 4666 
L 2053 4666 
Q 2838 4666 3239 4311 
Q 3641 3956 3641 3272 
Q 3641 2581 3239 2228 
Q 2838 1875 2053 1875 
L 1259 1875 
L 1259 0 
L 628 0 
L 628 4666 
z
" transform="scale(0.015625)"/>
       <path id="DejaVuSans-69" d="M 603 3500 
L 1178 3500 
L 1178 0 
L 603 0 
L 603 3500 
z
M 603 4863 
L 1178 4863 
L 1178 4134 
L 603 4134 
L 603 4863 
z
" transform="scale(0.015625)"/>
       <path id="DejaVuSans-63" d="M 3122 3366 
L 3122 2828 
Q 2878 2963 2633 3030 
Q 2388 3097 2138 3097 
Q 1578 3097 1268 2742 
Q 959 2388 959 1747 
Q 959 1106 1268 751 
Q 1578 397 2138 397 
Q 2388 397 2633 464 
Q 2878 531 3122 666 
L 3122 134 
Q 2881 22 2623 -34 
Q 2366 -91 2075 -91 
Q 1284 -91 818 406 
Q 353 903 353 1747 
Q 353 2603 823 3093 
Q 1294 3584 2113 3584 
Q 2378 3584 2631 3529 
Q 2884 3475 3122 3366 
z
" transform="scale(0.015625)"/>
      </defs>
      <use xlink:href="#DejaVuSans-43"/>
      <use xlink:href="#DejaVuSans-6c" x="69.824219"/>
      <use xlink:href="#DejaVuSans-6f" x="97.607422"/>
      <use xlink:href="#DejaVuSans-73" x="158.789062"/>
      <use xlink:href="#DejaVuSans-65" x="210.888672"/>
      <use xlink:href="#DejaVuSans-20" x="272.412109"/>
      <use xlink:href="#DejaVuSans-50" x="304.199219"/>
      <use xlink:href="#DejaVuSans-72" x="362.751953"/>
      <use xlink:href="#DejaVuSans-69" x="403.865234"/>
      <use xlink:href="#DejaVuSans-63" x="431.648438"/>
      <use xlink:href="#DejaVuSans-65" x="486.628906"/>
     </g>
    </g>
   </g>
   <g id="line2d_39">
    <path d="M 79.504545 366.847741 
L 79.88802 373.532727 
L 80.271495 365.107282 
L 81.421919 362.862072 
L 81.805394 360.145874 
L 82.188868 358.390221 
L 82.572343 357.299691 
L 84.106242 359.544901 
L 84.489717 356.291879 
L 84.873191 356.096056 
L 85.256666 354.193536 
L 85.640141 351.315278 
L 87.17404 355.039288 
L 87.557514 354.958258 
L 87.940989 354.210417 
L 88.324464 351.460457 
L 89.474888 353.673593 
L 89.858362 354.779316 
L 90.241837 349.623774 
L 90.625312 346.679679 
L 91.008787 346.890695 
L 92.159211 344.549262 
L 92.542685 342.727772 
L 92.92616 343.571836 
L 93.309635 345.963913 
L 93.693109 345.329177 
L 94.843534 345.150236 
L 95.227008 342.027199 
L 95.610483 341.262477 
L 95.993958 341.213522 
L 96.377432 339.408913 
L 98.294806 339.018956 
L 98.678281 340.107798 
L 99.061755 338.075292 
L 100.212179 337.668453 
L 100.595654 337.766365 
L 100.979129 337.440556 
L 101.362604 337.879469 
L 101.746078 335.700096 
L 103.279977 336.871657 
L 103.663452 338.352145 
L 104.046926 340.742534 
L 104.430401 341.262477 
L 105.580825 337.099554 
L 105.9643 336.236921 
L 106.347775 334.611254 
L 106.731249 334.643328 
L 107.114724 333.066617 
L 108.265148 332.626016 
L 109.032098 331.552367 
L 109.415572 327.845238 
L 109.799047 333.407619 
L 110.949471 333.471768 
L 111.332946 331.992968 
L 111.716421 333.326589 
L 112.099895 332.067246 
L 112.48337 330.14278 
L 114.400743 325.525751 
L 114.784218 325.476795 
L 115.167693 324.188753 
L 116.318117 323.928782 
L 116.701592 325.021 
L 117.085066 323.797108 
L 117.468541 323.943975 
L 117.852016 321.987435 
L 119.00244 322.068465 
L 119.385915 322.330125 
L 119.769389 323.096535 
L 120.152864 322.330125 
L 121.686763 321.627864 
L 122.070238 318.790121 
L 122.453712 319.296559 
L 122.837187 318.709091 
L 123.220662 317.518961 
L 124.371086 317.338331 
L 124.75456 318.138504 
L 125.138035 320.111925 
L 125.52151 320.518764 
L 125.904985 317.583109 
L 127.055409 318.692209 
L 127.438883 323.650241 
L 127.822358 323.635047 
L 128.205833 324.433532 
L 128.589307 323.716078 
L 129.739732 331.202924 
L 130.890156 323.243402 
L 131.27363 325.378883 
L 132.424054 328.380375 
L 132.807529 325.853247 
L 133.191004 326.39176 
L 133.574479 329.946957 
L 133.957953 329.783209 
L 135.491852 330.973339 
L 135.875327 332.882611 
L 136.258802 331.626644 
L 136.642276 335.068737 
L 137.7927 338.83495 
L 138.176175 332.948448 
L 139.326599 324.548325 
L 140.477023 322.966549 
L 140.860498 323.128609 
L 141.243973 323.684003 
L 141.627447 322.330125 
L 142.010922 323.030698 
L 143.161346 322.004316 
L 143.544821 319.164885 
L 143.928296 318.121622 
L 144.31177 315.528658 
L 144.695245 316.116126 
L 145.845669 316.882536 
L 146.229144 320.878335 
L 146.612619 320.584601 
L 147.379568 318.094612 
L 148.913467 314.218671 
L 149.296941 312.125392 
L 150.063891 312.533919 
L 151.214315 314.120759 
L 151.59779 312.780386 
L 151.981264 310.899812 
L 152.364739 310.327536 
L 152.748214 308.985475 
L 153.898638 308.659666 
L 154.665587 311.210427 
L 155.049062 310.572315 
L 155.432537 312.403934 
L 156.582961 310.899812 
L 157.34991 307.530309 
L 157.733385 309.231942 
L 158.11686 306.860122 
L 159.267284 307.857806 
L 159.650758 308.691741 
L 160.034233 311.961644 
L 160.417708 313.51641 
L 160.801183 316.197157 
L 161.951607 325.240457 
L 162.335081 321.283486 
L 162.718556 320.039335 
L 163.102031 314.054923 
L 163.485505 316.148201 
L 164.63593 319.532897 
L 165.019404 314.807827 
L 165.402879 322.917593 
L 165.786354 321.560338 
L 166.169828 317.750234 
L 167.320252 314.316582 
L 167.703727 315.641763 
L 168.087202 312.910372 
L 168.470677 313.25475 
L 168.854151 320.677448 
L 170.004575 317.505456 
L 170.38805 318.109805 
L 170.771525 316.786313 
L 171.155 312.746624 
L 171.538474 313.531603 
L 173.072373 315.690718 
L 173.839322 308.315288 
L 174.222797 308.527992 
L 175.373221 310.457522 
L 175.756696 311.961644 
L 176.523645 308.625904 
L 176.90712 309.542557 
L 178.057544 310.238066 
L 178.441019 308.5837 
L 179.207968 308.156604 
L 179.591443 310.567251 
L 180.741867 310.418695 
L 181.125342 313.271631 
L 181.508816 311.041614 
L 181.892291 311.402874 
L 182.275766 314.500588 
L 183.42619 312.746624 
L 183.809665 315.451004 
L 184.193139 320.022454 
L 184.576614 317.073295 
L 184.960089 313.205794 
L 186.110513 314.222047 
L 186.493988 318.351208 
L 186.877462 315.402048 
L 187.260937 313.828713 
L 187.644412 310.943703 
L 188.794836 311.00954 
L 189.178311 308.190367 
L 189.561785 309.02599 
L 189.94526 308.436833 
L 190.328735 310.567251 
L 191.479159 308.615775 
L 191.862633 311.762445 
L 192.246108 310.992659 
L 192.629583 308.664731 
L 193.013058 307.42058 
L 194.163482 305.469105 
L 194.546956 306.748706 
L 194.930431 305.190564 
L 195.313906 305.683497 
L 195.697381 303.338688 
L 196.847805 303.011191 
L 197.231279 303.863695 
L 197.614754 304.240148 
L 198.381703 302.830561 
L 199.532128 302.749531 
L 200.682552 300.126181 
L 201.066026 298.078482 
L 202.21645 297.717222 
L 202.599925 297.177021 
L 202.9834 298.078482 
L 203.366875 299.307439 
L 203.750349 299.175765 
L 205.284248 295.340338 
L 205.667723 293.390551 
L 206.434672 294.521596 
L 207.968571 299.553905 
L 208.352046 298.144319 
L 208.73552 297.750985 
L 209.118995 295.012842 
L 210.652894 296.456191 
L 211.036369 295.472012 
L 211.803318 292.997217 
L 212.953742 290.637214 
L 213.337217 290.998474 
L 213.720692 290.68617 
L 214.487641 287.27784 
L 216.02154 286.77309 
L 216.788489 284.274661 
L 217.171964 284.372572 
L 218.322388 286.47598 
L 218.705863 285.868254 
L 219.472812 281.56184 
L 219.856287 283.650054 
L 221.006711 281.710395 
L 221.390186 281.809994 
L 222.157135 276.698344 
L 222.54061 277.355025 
L 223.691034 274.068241 
L 224.074509 275.449129 
L 224.457983 274.544293 
L 224.841458 271.406063 
L 225.224933 269.861426 
L 226.758831 269.712871 
L 227.142306 269.532241 
L 227.525781 268.710123 
L 227.909256 271.438138 
L 229.05968 277.076484 
L 229.443154 272.687352 
L 230.210104 271.225434 
L 230.593578 276.500833 
L 231.744003 272.440886 
L 232.127477 266.262338 
L 232.510952 265.637731 
L 232.894427 263.434724 
L 233.277901 264.864568 
L 234.428326 260.985251 
L 234.8118 261.002132 
L 235.195275 258.290999 
L 235.57875 257.995576 
L 235.962224 256.434058 
L 237.496123 256.268622 
L 237.879598 253.935629 
L 238.263073 255.990081 
L 238.646547 261.462991 
L 239.796971 273.180285 
L 240.180446 281.973743 
L 240.563921 282.03958 
L 240.947395 296.60137 
L 241.33087 296.469696 
L 242.481294 282.745217 
L 242.864769 291.407001 
L 243.248244 279.426358 
L 243.631718 289.647972 
L 244.015193 295.237363 
L 245.165617 316.651263 
L 245.549092 301.630302 
L 245.932567 315.106626 
L 246.316041 339.7094 
L 246.699516 317.932552 
L 247.84994 351.657968 
L 248.233415 338.115807 
L 248.61689 348.913072 
L 249.000364 346.382569 
L 249.383839 355.815827 
L 250.534263 359.234285 
L 250.917738 339.018956 
L 251.301212 336.866593 
L 251.684687 323.505062 
L 252.068162 331.859606 
L 253.218586 323.390269 
L 253.602061 327.065323 
L 253.985535 338.683018 
L 254.36901 334.233113 
L 254.752485 337.430427 
L 255.902909 319.073726 
L 256.286384 319.715215 
L 256.669858 311.657781 
L 257.053333 308.857177 
L 258.587232 309.004044 
L 258.970707 298.573103 
L 259.354181 303.006126 
L 259.737656 299.974249 
L 260.121131 294.636389 
L 261.271555 298.986694 
L 261.655029 308.674859 
L 262.038504 300.188641 
L 262.421979 300.683263 
L 262.805454 296.415676 
L 263.955878 293.515472 
L 264.339352 297.271556 
L 264.722827 287.929458 
L 265.106302 288.126969 
L 265.489776 295.921054 
L 266.640201 293.020851 
L 267.023675 289.411634 
L 267.40715 288.753264 
L 268.174099 280.316001 
L 269.324524 278.273367 
L 269.707998 284.551514 
L 270.091473 288.653664 
L 270.858422 283.462672 
L 272.008846 276.591992 
L 272.392321 277.942494 
L 272.775796 272.093131 
L 273.159271 274.581431 
L 273.542745 273.214048 
L 275.076644 272.47296 
L 275.460119 270.3628 
L 275.843593 269.736505 
L 276.227068 267.150293 
L 277.377492 264.974297 
L 278.144442 259.965621 
L 278.527916 263.260847 
L 278.911391 256.027219 
L 280.061815 253.25869 
L 280.44529 252.649276 
L 280.828765 250.424323 
L 281.212239 268.122655 
L 281.595714 264.793667 
L 282.746138 261.316124 
L 283.129613 255.071739 
L 283.513088 254.79151 
L 283.896562 254.082496 
L 284.280037 255.284443 
L 285.430461 251.199174 
L 285.813936 249.089014 
L 286.19741 257.114374 
L 286.580885 253.434255 
L 286.96436 261.920473 
L 288.114784 257.661327 
L 288.498259 251.550305 
L 288.881733 247.719943 
L 289.265208 246.300227 
L 290.799107 238.720534 
L 291.182582 241.593727 
L 291.566056 237.316012 
L 292.333006 234.328025 
L 293.48343 241.494128 
L 293.866905 237.267056 
L 294.250379 235.236238 
L 294.633854 237.943995 
L 295.017329 236.639072 
L 296.167753 228.399321 
L 296.551227 230.595575 
L 296.934702 228.77915 
L 297.318177 236.507398 
L 297.701652 237.927114 
L 298.852076 233.105821 
L 299.23555 236.936183 
L 299.619025 232.032172 
L 300.0025 231.735061 
L 300.385974 226.319547 
L 301.919873 221.299056 
L 302.303348 219.251357 
L 302.686823 215.07324 
L 303.070297 218.408981 
L 304.220721 219.499511 
L 304.604196 224.915025 
L 304.987671 217.880597 
L 305.371146 216.295445 
L 305.75462 216.955503 
L 306.905044 213.224741 
L 307.288519 210.400503 
L 307.671994 212.382365 
L 308.055469 208.418641 
L 308.438943 206.354061 
L 309.589367 204.157806 
L 309.972842 201.384213 
L 310.356317 193.407809 
L 310.739791 194.201229 
L 311.123266 191.674102 
L 312.27369 190.08895 
L 312.657165 184.045453 
L 313.04064 179.901099 
L 313.424114 198.973566 
L 313.807589 205.116663 
L 315.341488 219.317194 
L 315.724963 209.212061 
L 316.108437 216.312326 
L 316.491912 217.699967 
L 317.642336 211.8371 
L 318.025811 207.42771 
L 319.176235 221.2501 
L 320.326659 221.315937 
L 320.710134 215.338276 
L 321.093608 225.625727 
L 321.477083 224.617915 
L 321.860558 216.849151 
L 323.010982 210.33129 
L 323.394457 211.107828 
L 323.777931 208.708999 
L 324.161406 203.696948 
L 324.544881 210.876555 
L 325.695305 203.779666 
L 326.07878 210.148972 
L 326.462254 203.828622 
L 326.845729 201.529392 
L 327.229204 195.772876 
L 328.379628 187.036815 
L 328.763102 187.533124 
L 329.146577 190.759137 
L 331.063951 200.222781 
L 331.447425 198.782808 
L 331.8309 199.262236 
L 332.214375 199.561035 
L 332.59785 197.675396 
L 333.748274 204.259094 
L 334.131748 202.00882 
L 334.515223 216.898107 
L 334.898698 212.183166 
L 335.282172 220.026207 
L 336.432597 218.751671 
L 336.816071 212.117329 
L 337.199546 196.946125 
L 337.583021 188.046315 
L 337.966495 187.119533 
L 339.116919 193.240684 
L 339.500394 199.21328 
L 339.883869 191.950955 
L 340.267344 194.250185 
L 340.650818 191.20649 
L 341.801242 188.277589 
L 342.184717 189.121653 
L 342.568192 192.727494 
L 342.951667 189.651725 
L 343.335141 192.578938 
L 344.485565 192.016792 
L 344.86904 187.533124 
L 345.252515 185.28285 
L 346.019464 182.570029 
L 347.169888 182.139556 
L 347.553363 177.77237 
L 347.936838 178.847707 
L 348.320312 179.063788 
L 348.703787 176.631195 
L 349.854211 175.042667 
L 350.237686 174.181722 
L 350.621161 181.545335 
L 351.004635 180.105362 
L 351.38811 180.584791 
L 352.538534 179.509453 
L 352.922009 174.546358 
L 353.305483 172.46152 
L 353.688958 168.921516 
L 354.072433 169.05319 
L 355.222857 169.731817 
L 355.606332 167.994734 
L 355.989806 170.707555 
L 356.373281 168.833733 
L 357.90718 165.170496 
L 358.290655 166.065204 
L 358.674129 166.147922 
L 359.057604 165.369695 
L 360.591503 171.468901 
L 360.974978 168.784778 
L 361.358452 173.342723 
L 361.741927 163.828435 
L 362.125402 159.319445 
L 363.275826 165.054015 
L 363.6593 165.867693 
L 364.042775 164.275789 
L 364.42625 168.369498 
L 364.809725 170.722748 
L 366.343623 166.115848 
L 366.727098 156.287568 
L 367.110573 154.231428 
L 367.494048 154.596064 
L 368.644472 151.829223 
L 369.027946 152.524731 
L 369.411421 163.595473 
L 369.794896 161.044712 
L 370.17837 169.628842 
L 371.328795 159.652007 
L 371.712269 152.043615 
L 372.095744 153.12064 
L 372.479219 148.032623 
L 372.862693 146.044009 
L 374.013117 143.557397 
L 374.396592 143.673878 
L 374.780067 144.32043 
L 375.547016 139.580168 
L 377.080915 141.386464 
L 378.231339 146.425526 
L 379.381763 156.236924 
L 379.765238 156.934121 
L 380.148713 154.114948 
L 380.532187 167.591271 
L 380.915662 166.115848 
L 382.066086 154.778382 
L 382.449561 160.612551 
L 382.833036 172.264009 
L 383.21651 179.325447 
L 383.599985 173.822151 
L 384.750409 182.259413 
L 385.133884 169.065007 
L 385.517359 169.132532 
L 385.900833 159.766799 
L 386.284308 162.403655 
L 387.818207 157.065795 
L 388.201681 156.287568 
L 388.585156 167.557509 
L 388.968631 166.877193 
L 390.119055 160.729032 
L 390.50253 162.469492 
L 390.886004 168.253017 
L 391.269479 168.15173 
L 391.652954 161.944484 
L 392.803378 162.391838 
L 393.186853 164.451354 
L 393.953802 151.386933 
L 395.487701 143.751531 
L 395.871176 143.20289 
L 396.25465 141.85914 
L 396.638125 136.845401 
L 397.0216 133.526542 
L 398.172024 133.526542 
L 398.555498 128.777838 
L 398.938973 133.60926 
L 399.322448 126.471856 
L 399.705923 126.338494 
L 400.856347 130.172232 
L 401.239821 133.276699 
L 401.623296 129.674234 
L 402.006771 133.725741 
L 402.390245 126.91921 
L 403.54067 124.711139 
L 404.307619 126.703129 
L 404.691094 125.524816 
L 405.074568 129.093518 
L 406.224993 131.716869 
L 406.608467 138.521712 
L 406.991942 140.880026 
L 407.375417 139.036591 
L 407.758891 135.285571 
L 408.909315 144.730646 
L 409.29279 146.008558 
L 409.676265 157.511461 
L 410.05974 154.309082 
L 410.443214 145.461605 
L 411.593638 148.034312 
L 411.977113 150.789336 
L 412.360588 150.640781 
L 412.744062 143.037453 
L 413.127537 145.095281 
L 414.277961 137.875159 
L 415.044911 136.01653 
L 415.428385 136.813326 
L 415.81186 135.618132 
L 417.345759 137.177962 
L 417.729234 136.679964 
L 418.112708 140.863145 
L 418.496183 134.836529 
L 419.646607 133.990777 
L 420.030082 133.475898 
L 420.413557 133.376298 
L 420.797031 129.093518 
L 421.180506 127.400326 
L 422.33093 123.433226 
L 422.714405 126.073458 
L 423.097879 127.798724 
L 423.481354 122.055714 
L 423.864829 125.35938 
L 425.015253 121.441235 
L 425.398728 116.611502 
L 425.782202 116.262059 
L 426.165677 113.829467 
L 426.549152 113.030983 
L 428.083051 107.845054 
L 428.466525 108.543939 
L 428.85 107.679618 
L 429.233475 102.39409 
L 431.150848 98.437118 
L 431.534323 101.928167 
L 431.917798 98.155201 
L 433.068222 97.091681 
L 433.451696 97.905358 
L 433.835171 97.273998 
L 434.602121 103.14193 
L 435.752545 109.075699 
L 436.136019 101.595605 
L 436.902969 94.797515 
L 437.286443 87.317421 
L 438.436868 86.853186 
L 438.820342 91.522547 
L 439.203817 90.29359 
L 439.587292 89.827667 
L 439.970766 93.367671 
L 441.12119 94.31471 
L 441.504665 91.573191 
L 441.88814 91.24063 
L 442.271615 87.084459 
L 442.655089 88.863746 
L 443.805513 88.597022 
L 444.188988 91.439829 
L 444.572463 92.321032 
L 444.955938 89.628468 
L 445.339412 88.232386 
L 446.489836 87.501427 
L 447.256786 96.12776 
L 447.64026 94.19823 
L 448.023735 89.079826 
L 449.174159 82.879333 
L 449.941109 81.300934 
L 450.324583 84.209578 
L 450.708058 79.521647 
L 451.858482 74.452199 
L 452.241957 75.29964 
L 452.625432 73.787077 
L 453.008906 74.053801 
L 453.392381 72.225559 
L 454.92628 71.693799 
L 455.693229 74.585562 
L 456.076704 78.82445 
L 457.227128 79.970689 
L 457.610603 80.602049 
L 457.994077 77.045164 
L 458.377552 76.297323 
L 458.761027 81.982937 
L 459.911451 91.124149 
L 460.294926 90.193991 
L 461.061875 80.120932 
L 461.44535 79.50983 
L 462.595774 83.885457 
L 462.979249 98.843957 
L 463.362723 99.377406 
L 463.746198 102.454862 
L 464.129673 97.363469 
L 465.280097 107.730262 
L 465.663571 101.523016 
L 466.047046 98.344271 
L 466.430521 93.652964 
L 466.813996 95.582494 
L 467.96442 98.994201 
L 468.347894 99.292999 
L 468.731369 95.567301 
L 469.114844 87.14692 
L 469.498319 83.319934 
L 470.648743 78.444622 
L 471.032217 74.801642 
L 471.415692 75.932687 
L 471.799167 71.938577 
L 472.182641 75.384046 
L 473.333066 71.256574 
L 473.71654 70.47497 
L 474.100015 70.108647 
L 474.48349 64.900773 
L 474.866964 62.554275 
L 476.017388 62.30612 
L 476.400863 60.758107 
L 476.784338 57.214727 
L 477.167813 51.20668 
L 477.551287 50.35924 
L 478.701711 49.476349 
L 479.085186 52.17229 
L 479.468661 60.525146 
L 479.852136 59.792498 
L 480.23561 53.186854 
L 481.386034 53.453578 
L 481.769509 48.478666 
L 482.152984 49.444275 
L 482.536458 45.234084 
L 482.919933 43.387273 
L 484.453832 53.620703 
L 484.837307 50.225878 
L 485.604256 61.124431 
L 486.75468 51.323161 
L 487.138155 58.828577 
L 487.52163 70.076572 
L 487.905104 64.051644 
L 488.288579 73.253629 
L 489.439003 67.56295 
L 489.822478 52.422132 
L 490.205952 48.379066 
L 490.589427 55.450634 
L 490.972902 50.609083 
L 492.123326 57.862968 
L 492.506801 64.735336 
L 492.890275 54.55255 
L 493.27375 66.531504 
L 493.657225 68.145354 
L 494.807649 74.384674 
L 495.191124 61.971871 
L 495.574598 56.065112 
L 495.958073 51.888684 
L 497.491972 43.559462 
L 497.875447 45.975173 
L 498.258921 45.775973 
L 499.025871 50.541558 
L 500.176295 46.891826 
L 500.559769 53.391118 
L 500.943244 71.653284 
L 501.326719 72.770824 
L 501.710194 78.351775 
L 502.860618 79.384909 
L 503.244092 72.836661 
L 503.627567 71.003354 
L 504.011042 84.567461 
L 504.394517 83.46849 
L 505.928415 95.432251 
L 506.31189 100.047592 
L 506.695365 106.396641 
L 507.078839 119.410417 
L 508.229264 116.02741 
L 508.612738 127.34293 
L 508.996213 127.908453 
L 509.379688 132.241876 
L 509.763162 115.595249 
L 511.297061 96.681466 
L 511.680536 93.965268 
L 512.064011 112.527921 
L 512.447485 105.913836 
L 513.597909 109.663168 
L 513.981384 105.06302 
L 514.364859 95.165527 
L 514.748333 104.64774 
L 515.131808 119.54378 
L 516.282232 118.927613 
L 516.665707 108.295784 
L 517.049182 108.79547 
L 517.432656 122.776544 
L 517.816131 128.008052 
L 519.35003 134.623825 
L 519.733505 145.937657 
L 520.116979 130.925137 
L 520.500454 123.94304 
L 521.650878 123.093912 
L 522.034353 129.940958 
L 522.417828 122.793425 
L 523.184777 137.640509 
L 524.335201 155.586995 
L 524.718676 157.670145 
L 525.10215 140.922229 
L 525.485625 145.10541 
L 525.8691 154.020412 
L 527.019524 161.402595 
L 527.786473 132.690918 
L 528.169948 126.043071 
L 528.553423 116.761745 
L 529.703847 118.644008 
L 530.087322 110.095329 
L 530.470796 117.183777 
L 530.854271 108.476414 
L 531.237746 108.8765 
L 532.38817 101.502758 
L 532.771645 91.694736 
L 533.155119 97.567733 
L 533.538594 105.523879 
L 533.922069 104.055208 
L 535.072493 95.064239 
L 535.839442 116.115192 
L 536.222917 114.398366 
L 536.606392 120.00295 
L 537.756816 130.894751 
L 538.14029 133.197357 
L 538.523765 124.640237 
L 538.90724 134.514096 
L 540.441139 135.231551 
L 540.824613 124.839436 
L 541.208088 130.043934 
L 541.591563 139.502514 
L 541.975037 152.296834 
L 543.125462 146.726013 
L 543.508936 163.973614 
L 543.892411 163.006316 
L 544.275886 148.076515 
L 544.65936 167.292473 
L 545.809784 161.80437 
L 546.193259 162.172381 
L 546.576734 148.410764 
L 546.960209 170.228127 
L 548.494107 193.94801 
L 548.877582 190.662913 
L 549.261057 202.339693 
L 549.644531 202.955859 
L 550.028006 188.578076 
L 551.17843 193.765692 
L 551.561905 184.389831 
L 551.94538 202.923785 
L 552.328854 203.273228 
L 552.712329 203.85732 
L 553.862753 196.917427 
L 554.246228 205.675433 
L 554.629703 200.788303 
L 555.013177 190.279708 
L 555.396652 176.583928 
L 556.930551 178.535404 
L 557.314026 181.720901 
L 557.6975 169.211874 
L 558.080975 179.536463 
L 559.231399 178.018836 
L 559.614874 174.315084 
L 559.998348 177.551225 
L 560.381823 188.594957 
L 560.765298 203.624358 
L 561.915722 221.08804 
L 562.299197 220.920915 
L 562.682671 211.86411 
L 563.066146 226.675742 
L 563.449621 222.772791 
L 564.98352 213.548861 
L 565.366994 213.548861 
L 565.750469 206.463789 
L 566.133944 192.281828 
L 567.284368 196.441375 
L 567.667843 208.903134 
L 568.051317 208.151917 
L 568.434792 212.929318 
L 568.818267 209.30322 
L 570.73564 200.784927 
L 571.119115 192.999282 
L 571.50259 193.134332 
L 572.653014 200.317316 
L 573.036488 205.34456 
L 573.419963 206.565077 
L 573.803438 205.979296 
L 574.186912 198.980319 
L 575.337337 202.27048 
L 575.720811 190.04337 
L 576.487761 177.397605 
L 576.871235 184.614352 
L 578.02166 186.785284 
L 578.405134 195.070615 
L 578.788609 179.035089 
L 579.555558 164.366947 
L 580.705982 164.952728 
L 581.089457 166.539568 
L 581.472932 156.049542 
L 581.856407 153.927565 
L 582.239881 156.199785 
L 583.390305 157.118127 
L 583.77378 161.779048 
L 584.157255 149.332482 
L 584.540729 151.689108 
L 584.924204 143.186009 
L 586.074628 140.446177 
L 586.458103 140.697708 
L 586.841578 145.140861 
L 587.225052 144.755967 
L 587.608527 153.343473 
L 588.758951 164.550953 
L 589.142426 165.386577 
L 589.525901 164.100223 
L 589.909375 156.91724 
L 590.29285 174.240807 
L 591.443274 178.383472 
L 591.826749 182.509256 
L 592.210224 185.416212 
L 592.593698 185.348687 
L 592.977173 190.561626 
L 594.511072 192.047178 
L 594.894546 183.878328 
L 595.278021 181.123303 
L 595.661496 172.56956 
L 596.81192 167.559197 
L 597.195395 189.108148 
L 597.578869 186.552322 
L 597.962344 193.250813 
L 598.345819 197.41036 
L 599.496243 194.069555 
L 599.879718 198.09574 
L 600.646667 210.322849 
L 601.030142 216.381539 
L 602.180566 218.758423 
L 602.564041 218.690898 
L 602.947515 211.561935 
L 603.33099 221.084663 
L 603.714465 227.177116 
L 604.864889 218.825948 
L 605.248363 206.60728 
L 605.631838 207.059698 
L 606.015313 209.703306 
L 606.398788 222.992248 
L 607.549212 227.646416 
L 607.932686 232.381614 
L 608.316161 232.901558 
L 608.699636 225.286413 
L 609.08311 236.298071 
L 610.617009 220.080227 
L 611.383959 225.235769 
L 611.767433 217.235732 
L 612.917857 213.586 
L 613.301332 204.86682 
L 613.684807 212.983338 
L 614.068282 218.039281 
L 614.451756 208.449027 
L 615.60218 212.465083 
L 615.985655 216.14689 
L 616.36913 229.520238 
L 616.752605 236.365596 
L 617.136079 231.795834 
L 618.669978 226.908704 
L 619.053453 235.528284 
L 619.436927 207.929084 
L 619.820402 200.197459 
L 620.970826 204.86682 
L 621.354301 199.493509 
L 621.737776 203.745903 
L 622.12125 206.590399 
L 622.504725 206.338867 
L 623.655149 210.223249 
L 624.422099 200.715714 
L 625.189048 202.105043 
L 626.339472 208.800158 
L 626.722947 211.745941 
L 627.106422 195.225923 
L 627.489896 193.937881 
L 627.873371 195.008154 
L 629.023795 202.908592 
L 629.40727 210.925511 
L 629.790744 212.448202 
L 630.174219 208.129971 
L 630.557694 210.707742 
L 631.708118 205.167307 
L 632.091593 200.415227 
L 632.475067 203.242841 
L 632.858542 215.628634 
L 633.242017 220.649126 
L 634.392441 226.290849 
L 634.775916 226.073081 
L 635.15939 220.34864 
L 635.542865 228.168047 
L 635.92634 226.976229 
L 637.460238 231.034488 
L 637.843713 235.680216 
L 638.227188 226.859748 
L 638.610663 227.848991 
L 640.144561 230.364302 
L 640.528036 227.914828 
L 640.911511 234.322961 
L 641.294986 226.105155 
L 642.44541 222.968614 
L 642.828884 219.747666 
L 643.212359 212.318216 
L 643.979308 207.890257 
L 645.513207 206.799726 
L 646.280157 214.531351 
L 646.663631 204.519066 
L 647.814055 197.660203 
L 648.581005 199.773739 
L 648.96448 193.769068 
L 649.347954 189.877934 
L 650.498378 197.224666 
L 651.265328 183.11867 
L 651.648803 170.607956 
L 652.032277 177.333457 
L 653.182701 181.055778 
L 653.566176 173.391678 
L 653.949651 179.430111 
L 654.333125 183.287483 
L 654.7166 185.8872 
L 656.250499 177.684587 
L 656.633974 174.397802 
L 657.017448 182.180071 
L 657.400923 185.585025 
L 658.934822 195.447067 
L 659.318297 195.161774 
L 659.701771 191.907063 
L 660.085246 198.632564 
L 661.23567 195.916367 
L 661.619145 196.351904 
L 662.002619 199.387157 
L 662.386094 195.647954 
L 662.769569 187.462223 
L 663.919993 187.026686 
L 664.303468 192.376363 
L 664.686942 190.985346 
L 665.453892 204.973172 
L 666.604316 202.574343 
L 666.987791 194.221487 
L 667.371265 194.088124 
L 667.75474 184.460732 
L 668.138215 186.84268 
L 669.288639 185.635669 
L 669.672114 179.195462 
L 670.055588 185.350375 
L 670.439063 181.352889 
L 670.822538 180.26067 
L 671.972962 182.126051 
L 672.356436 183.805738 
L 672.739911 176.865845 
L 673.123386 173.590877 
L 673.506861 166.164803 
L 674.657285 166.549697 
L 675.040759 167.793847 
L 675.424234 172.262321 
L 675.807709 169.676109 
L 677.341608 170.094765 
L 677.725082 171.77614 
L 678.108557 174.313396 
L 678.492032 166.012872 
L 678.875506 167.105091 
L 680.025931 166.348809 
L 680.79288 165.592528 
L 681.176355 168.247953 
L 681.559829 167.692559 
L 682.710253 168.231072 
L 683.093728 176.882727 
L 683.477203 174.883983 
L 683.860678 165.055704 
L 684.244152 161.81281 
L 685.394576 162.41716 
L 685.778051 166.063516 
L 686.545 170.347984 
L 686.928475 161.711522 
L 688.078899 160.501135 
L 688.462374 162.41716 
L 688.845849 157.997641 
L 689.229323 157.678585 
L 689.612798 159.072979 
L 690.763222 157.427054 
L 691.146697 158.065167 
L 691.913646 145.868444 
L 692.297121 147.178431 
L 693.447545 146.001806 
L 693.83102 152.789767 
L 694.214495 155.158211 
L 694.981444 138.877907 
L 696.515343 137.282626 
L 696.898817 139.919481 
L 697.665767 129.419327 
L 698.816191 130.091202 
L 699.199666 129.250514 
L 699.58314 136.106001 
L 699.966615 131.65272 
L 700.35009 130.258326 
L 701.500514 123.723584 
L 701.883989 120.463809 
L 702.267463 118.228728 
L 702.650938 112.013042 
L 703.034413 114.985835 
L 704.568312 115.843404 
L 704.951786 120.816628 
L 705.335261 116.128697 
L 705.718736 119.726097 
L 706.86916 124.976175 
L 707.252634 117.791503 
L 707.636109 116.175965 
L 708.019584 115.990271 
L 708.403059 109.141536 
L 709.553483 109.109462 
L 710.320432 108.873124 
L 710.703907 112.33885 
L 711.087381 113.886864 
L 712.237806 113.903745 
L 712.62128 111.413756 
L 713.38823 99.046533 
L 713.771704 98.626189 
L 714.922129 95.344468 
L 715.305603 91.407755 
L 715.689078 91.777454 
L 716.072553 101.384589 
L 716.456027 102.39409 
L 717.606451 100.862958 
L 717.989926 97.918863 
L 718.373401 98.491139 
L 718.756876 101.722215 
L 719.14035 94.166155 
L 720.290774 93.156655 
L 720.674249 94.704668 
L 721.057724 105.120416 
L 721.441198 106.214323 
L 721.824673 108.923768 
L 722.975097 105.458042 
L 723.358572 107.460161 
L 723.742047 112.423257 
L 724.125521 111.548807 
L 724.508996 114.10632 
L 725.65942 108.856243 
L 726.809844 122.503068 
L 727.193319 123.125987 
L 728.343743 116.866409 
L 728.727218 116.731359 
L 729.110693 109.798218 
L 729.494167 118.514022 
L 729.877642 114.879483 
L 731.028066 111.4644 
L 731.411541 102.328253 
L 731.795015 99.181583 
L 732.561965 98.00327 
L 734.095864 97.918863 
L 734.479338 102.410971 
L 734.862813 104.953292 
L 735.246288 104.615666 
L 736.396712 99.314945 
L 736.780187 104.615666 
L 737.163661 103.337753 
L 737.547136 100.425733 
L 737.930611 108.300849 
L 739.081035 108.08308 
L 739.46451 108.873124 
L 740.231459 125.298607 
L 740.614934 125.921526 
L 741.765358 123.394399 
L 742.148832 131.077068 
L 742.532307 130.420387 
L 742.915782 126.898952 
L 743.299257 126.443158 
L 744.449681 122.837317 
L 744.833155 131.397813 
L 745.21663 125.07915 
L 745.600105 124.775287 
L 745.983579 116.974449 
L 747.134004 114.867666 
L 747.517478 112.644402 
L 747.900953 108.920392 
L 748.284428 111.246632 
L 748.667902 116.537224 
L 749.818327 111.162225 
L 750.201801 112.408064 
L 750.585276 119.923608 
L 750.968751 123.730336 
L 751.352225 130.707368 
L 752.502649 129.274148 
L 752.886124 125.366132 
L 753.653074 144.590531 
L 754.036548 143.023948 
L 755.570447 134.530978 
L 756.720871 113.672471 
L 757.871295 110.976531 
L 758.25477 106.562077 
L 758.638245 104.708513 
L 759.021719 108.53381 
L 759.405194 99.198464 
L 760.555618 99.434802 
L 760.939093 89.729756 
L 761.322568 89.729756 
L 761.706042 87.58921 
L 762.089517 88.011241 
L 763.239941 82.416786 
L 763.623416 83.932725 
L 764.006891 81.57441 
L 764.77384 82.013324 
L 765.924264 82.383024 
L 766.307739 81.152378 
L 766.691213 81.895155 
L 767.074688 82.19733 
L 767.458163 80.428172 
L 768.608587 85.112726 
L 768.992062 82.754412 
L 769.375536 85.467233 
L 769.759011 79.467627 
L 770.142486 77.024906 
L 771.29291 76.687281 
L 771.676385 73.032484 
L 772.059859 67.117284 
L 772.443334 67.875254 
L 773.977233 62.485062 
L 774.360708 59.603428 
L 774.744182 66.494365 
L 775.127657 60.915103 
L 775.511132 60.965747 
L 777.81198 58.298505 
L 778.195455 60.459309 
L 778.195455 60.459309 
" clip-path="url(#p4d405fda4e)" style="fill: none; stroke: #1f77b4; stroke-width: 1.5; stroke-linecap: square"/>
   </g>
   <g id="patch_7">
    <path d="M 44.57 390.04 
L 44.57 26.88 
" style="fill: none; stroke: #000000; stroke-width: 0.8; stroke-linejoin: miter; stroke-linecap: square"/>
   </g>
   <g id="patch_8">
    <path d="M 813.13 390.04 
L 813.13 26.88 
" style="fill: none; stroke: #000000; stroke-width: 0.8; stroke-linejoin: miter; stroke-linecap: square"/>
   </g>
   <g id="patch_9">
    <path d="M 44.57 390.04 
L 813.13 390.04 
" style="fill: none; stroke: #000000; stroke-width: 0.8; stroke-linejoin: miter; stroke-linecap: square"/>
   </g>
   <g id="patch_10">
    <path d="M 44.57 26.88 
L 813.13 26.88 
" style="fill: none; stroke: #000000; stroke-width: 0.8; stroke-linejoin: miter; stroke-linecap: square"/>
   </g>
   <g id="text_27">
    <!-- Stock Trading Performance for VUG -->
    <g transform="translate(323.192812 20.88) scale(0.12 -0.12)">
     <defs>
      <path id="DejaVuSans-53" d="M 3425 4513 
L 3425 3897 
Q 3066 4069 2747 4153 
Q 2428 4238 2131 4238 
Q 1616 4238 1336 4038 
Q 1056 3838 1056 3469 
Q 1056 3159 1242 3001 
Q 1428 2844 1947 2747 
L 2328 2669 
Q 3034 2534 3370 2195 
Q 3706 1856 3706 1288 
Q 3706 609 3251 259 
Q 2797 -91 1919 -91 
Q 1588 -91 1214 -16 
Q 841 59 441 206 
L 441 856 
Q 825 641 1194 531 
Q 1563 422 1919 422 
Q 2459 422 2753 634 
Q 3047 847 3047 1241 
Q 3047 1584 2836 1778 
Q 2625 1972 2144 2069 
L 1759 2144 
Q 1053 2284 737 2584 
Q 422 2884 422 3419 
Q 422 4038 858 4394 
Q 1294 4750 2059 4750 
Q 2388 4750 2728 4690 
Q 3069 4631 3425 4513 
z
" transform="scale(0.015625)"/>
      <path id="DejaVuSans-6b" d="M 581 4863 
L 1159 4863 
L 1159 1991 
L 2875 3500 
L 3609 3500 
L 1753 1863 
L 3688 0 
L 2938 0 
L 1159 1709 
L 1159 0 
L 581 0 
L 581 4863 
z
" transform="scale(0.015625)"/>
      <path id="DejaVuSans-54" d="M -19 4666 
L 3928 4666 
L 3928 4134 
L 2272 4134 
L 2272 0 
L 1638 0 
L 1638 4134 
L -19 4134 
L -19 4666 
z
" transform="scale(0.015625)"/>
      <path id="DejaVuSans-64" d="M 2906 2969 
L 2906 4863 
L 3481 4863 
L 3481 0 
L 2906 0 
L 2906 525 
Q 2725 213 2448 61 
Q 2172 -91 1784 -91 
Q 1150 -91 751 415 
Q 353 922 353 1747 
Q 353 2572 751 3078 
Q 1150 3584 1784 3584 
Q 2172 3584 2448 3432 
Q 2725 3281 2906 2969 
z
M 947 1747 
Q 947 1113 1208 752 
Q 1469 391 1925 391 
Q 2381 391 2643 752 
Q 2906 1113 2906 1747 
Q 2906 2381 2643 2742 
Q 2381 3103 1925 3103 
Q 1469 3103 1208 2742 
Q 947 2381 947 1747 
z
" transform="scale(0.015625)"/>
      <path id="DejaVuSans-67" d="M 2906 1791 
Q 2906 2416 2648 2759 
Q 2391 3103 1925 3103 
Q 1463 3103 1205 2759 
Q 947 2416 947 1791 
Q 947 1169 1205 825 
Q 1463 481 1925 481 
Q 2391 481 2648 825 
Q 2906 1169 2906 1791 
z
M 3481 434 
Q 3481 -459 3084 -895 
Q 2688 -1331 1869 -1331 
Q 1566 -1331 1297 -1286 
Q 1028 -1241 775 -1147 
L 775 -588 
Q 1028 -725 1275 -790 
Q 1522 -856 1778 -856 
Q 2344 -856 2625 -561 
Q 2906 -266 2906 331 
L 2906 616 
Q 2728 306 2450 153 
Q 2172 0 1784 0 
Q 1141 0 747 490 
Q 353 981 353 1791 
Q 353 2603 747 3093 
Q 1141 3584 1784 3584 
Q 2172 3584 2450 3431 
Q 2728 3278 2906 2969 
L 2906 3500 
L 3481 3500 
L 3481 434 
z
" transform="scale(0.015625)"/>
      <path id="DejaVuSans-66" d="M 2375 4863 
L 2375 4384 
L 1825 4384 
Q 1516 4384 1395 4259 
Q 1275 4134 1275 3809 
L 1275 3500 
L 2222 3500 
L 2222 3053 
L 1275 3053 
L 1275 0 
L 697 0 
L 697 3053 
L 147 3053 
L 147 3500 
L 697 3500 
L 697 3744 
Q 697 4328 969 4595 
Q 1241 4863 1831 4863 
L 2375 4863 
z
" transform="scale(0.015625)"/>
      <path id="DejaVuSans-6d" d="M 3328 2828 
Q 3544 3216 3844 3400 
Q 4144 3584 4550 3584 
Q 5097 3584 5394 3201 
Q 5691 2819 5691 2113 
L 5691 0 
L 5113 0 
L 5113 2094 
Q 5113 2597 4934 2840 
Q 4756 3084 4391 3084 
Q 3944 3084 3684 2787 
Q 3425 2491 3425 1978 
L 3425 0 
L 2847 0 
L 2847 2094 
Q 2847 2600 2669 2842 
Q 2491 3084 2119 3084 
Q 1678 3084 1418 2786 
Q 1159 2488 1159 1978 
L 1159 0 
L 581 0 
L 581 3500 
L 1159 3500 
L 1159 2956 
Q 1356 3278 1631 3431 
Q 1906 3584 2284 3584 
Q 2666 3584 2933 3390 
Q 3200 3197 3328 2828 
z
" transform="scale(0.015625)"/>
      <path id="DejaVuSans-56" d="M 1831 0 
L 50 4666 
L 709 4666 
L 2188 738 
L 3669 4666 
L 4325 4666 
L 2547 0 
L 1831 0 
z
" transform="scale(0.015625)"/>
      <path id="DejaVuSans-55" d="M 556 4666 
L 1191 4666 
L 1191 1831 
Q 1191 1081 1462 751 
Q 1734 422 2344 422 
Q 2950 422 3222 751 
Q 3494 1081 3494 1831 
L 3494 4666 
L 4128 4666 
L 4128 1753 
Q 4128 841 3676 375 
Q 3225 -91 2344 -91 
Q 1459 -91 1007 375 
Q 556 841 556 1753 
L 556 4666 
z
" transform="scale(0.015625)"/>
      <path id="DejaVuSans-47" d="M 3809 666 
L 3809 1919 
L 2778 1919 
L 2778 2438 
L 4434 2438 
L 4434 434 
Q 4069 175 3628 42 
Q 3188 -91 2688 -91 
Q 1594 -91 976 548 
Q 359 1188 359 2328 
Q 359 3472 976 4111 
Q 1594 4750 2688 4750 
Q 3144 4750 3555 4637 
Q 3966 4525 4313 4306 
L 4313 3634 
Q 3963 3931 3569 4081 
Q 3175 4231 2741 4231 
Q 1884 4231 1454 3753 
Q 1025 3275 1025 2328 
Q 1025 1384 1454 906 
Q 1884 428 2741 428 
Q 3075 428 3337 486 
Q 3600 544 3809 666 
z
" transform="scale(0.015625)"/>
     </defs>
     <use xlink:href="#DejaVuSans-53"/>
     <use xlink:href="#DejaVuSans-74" x="63.476562"/>
     <use xlink:href="#DejaVuSans-6f" x="102.685547"/>
     <use xlink:href="#DejaVuSans-63" x="163.867188"/>
     <use xlink:href="#DejaVuSans-6b" x="218.847656"/>
     <use xlink:href="#DejaVuSans-20" x="276.757812"/>
     <use xlink:href="#DejaVuSans-54" x="308.544922"/>
     <use xlink:href="#DejaVuSans-72" x="354.878906"/>
     <use xlink:href="#DejaVuSans-61" x="395.992188"/>
     <use xlink:href="#DejaVuSans-64" x="457.271484"/>
     <use xlink:href="#DejaVuSans-69" x="520.748047"/>
     <use xlink:href="#DejaVuSans-6e" x="548.53125"/>
     <use xlink:href="#DejaVuSans-67" x="611.910156"/>
     <use xlink:href="#DejaVuSans-20" x="675.386719"/>
     <use xlink:href="#DejaVuSans-50" x="707.173828"/>
     <use xlink:href="#DejaVuSans-65" x="763.851562"/>
     <use xlink:href="#DejaVuSans-72" x="825.375"/>
     <use xlink:href="#DejaVuSans-66" x="866.488281"/>
     <use xlink:href="#DejaVuSans-6f" x="901.693359"/>
     <use xlink:href="#DejaVuSans-72" x="962.875"/>
     <use xlink:href="#DejaVuSans-6d" x="1002.238281"/>
     <use xlink:href="#DejaVuSans-61" x="1099.650391"/>
     <use xlink:href="#DejaVuSans-6e" x="1160.929688"/>
     <use xlink:href="#DejaVuSans-63" x="1224.308594"/>
     <use xlink:href="#DejaVuSans-65" x="1279.289062"/>
     <use xlink:href="#DejaVuSans-20" x="1340.8125"/>
     <use xlink:href="#DejaVuSans-66" x="1372.599609"/>
     <use xlink:href="#DejaVuSans-6f" x="1407.804688"/>
     <use xlink:href="#DejaVuSans-72" x="1468.986328"/>
     <use xlink:href="#DejaVuSans-20" x="1510.099609"/>
     <use xlink:href="#DejaVuSans-56" x="1541.886719"/>
     <use xlink:href="#DejaVuSans-55" x="1610.294922"/>
     <use xlink:href="#DejaVuSans-47" x="1683.488281"/>
    </g>
   </g>
  </g>
 </g>
 <defs>
  <clipPath id="p4d405fda4e">
   <rect x="44.57" y="26.88" width="768.56" height="363.16"/>
  </clipPath>
 </defs>
</svg>
