<?xml version="1.0" encoding="utf-8" standalone="no"?>
<!DOCTYPE svg PUBLIC "-//W3C//DTD SVG 1.1//EN"
  "http://www.w3.org/Graphics/SVG/1.1/DTD/svg11.dtd">
<svg xmlns:xlink="http://www.w3.org/1999/xlink" width="864pt" height="432pt" viewBox="0 0 864 432" xmlns="http://www.w3.org/2000/svg" version="1.1">
 <metadata>
  <rdf:RDF xmlns:dc="http://purl.org/dc/elements/1.1/" xmlns:cc="http://creativecommons.org/ns#" xmlns:rdf="http://www.w3.org/1999/02/22-rdf-syntax-ns#">
   <cc:Work>
    <dc:type rdf:resource="http://purl.org/dc/dcmitype/StillImage"/>
    <dc:date>2024-04-16T14:18:48.373593</dc:date>
    <dc:format>image/svg+xml</dc:format>
    <dc:creator>
     <cc:Agent>
      <dc:title>Matplotlib v3.8.2, https://matplotlib.org/</dc:title>
     </cc:Agent>
    </dc:creator>
   </cc:Work>
  </rdf:RDF>
 </metadata>
 <defs>
  <style type="text/css">*{stroke-linejoin: round; stroke-linecap: butt}</style>
 </defs>
 <g id="figure_1">
  <g id="patch_1">
   <path d="M 0 432 
L 864 432 
L 864 0 
L 0 0 
z
" style="fill: #ffffff"/>
  </g>
  <g id="axes_1">
   <g id="patch_2">
    <path d="M 52.94 390.04 
L 813.13 390.04 
L 813.13 26.88 
L 52.94 26.88 
z
" style="fill: #ffffff"/>
   </g>
   <g id="matplotlib.axis_1">
    <g id="xtick_1">
     <g id="line2d_1">
      <path d="M 87.114792 390.04 
L 87.114792 26.88 
" clip-path="url(#pc5881e09cb)" style="fill: none; stroke-dasharray: 1.85,0.8; stroke-dashoffset: 0; stroke: #b0b0b0; stroke-opacity: 0.5; stroke-width: 0.5"/>
     </g>
     <g id="line2d_2">
      <defs>
       <path id="m04caab4acc" d="M 0 0 
L 0 3.5 
" style="stroke: #000000; stroke-width: 0.8"/>
      </defs>
      <g>
       <use xlink:href="#m04caab4acc" x="87.114792" y="390.04" style="stroke: #000000; stroke-width: 0.8"/>
      </g>
     </g>
     <g id="text_1">
      <!-- 2019 -->
      <g transform="translate(74.389792 404.638438) scale(0.1 -0.1)">
       <defs>
        <path id="DejaVuSans-32" d="M 1228 531 
L 3431 531 
L 3431 0 
L 469 0 
L 469 531 
Q 828 903 1448 1529 
Q 2069 2156 2228 2338 
Q 2531 2678 2651 2914 
Q 2772 3150 2772 3378 
Q 2772 3750 2511 3984 
Q 2250 4219 1831 4219 
Q 1534 4219 1204 4116 
Q 875 4013 500 3803 
L 500 4441 
Q 881 4594 1212 4672 
Q 1544 4750 1819 4750 
Q 2544 4750 2975 4387 
Q 3406 4025 3406 3419 
Q 3406 3131 3298 2873 
Q 3191 2616 2906 2266 
Q 2828 2175 2409 1742 
Q 1991 1309 1228 531 
z
" transform="scale(0.015625)"/>
        <path id="DejaVuSans-30" d="M 2034 4250 
Q 1547 4250 1301 3770 
Q 1056 3291 1056 2328 
Q 1056 1369 1301 889 
Q 1547 409 2034 409 
Q 2525 409 2770 889 
Q 3016 1369 3016 2328 
Q 3016 3291 2770 3770 
Q 2525 4250 2034 4250 
z
M 2034 4750 
Q 2819 4750 3233 4129 
Q 3647 3509 3647 2328 
Q 3647 1150 3233 529 
Q 2819 -91 2034 -91 
Q 1250 -91 836 529 
Q 422 1150 422 2328 
Q 422 3509 836 4129 
Q 1250 4750 2034 4750 
z
" transform="scale(0.015625)"/>
        <path id="DejaVuSans-31" d="M 794 531 
L 1825 531 
L 1825 4091 
L 703 3866 
L 703 4441 
L 1819 4666 
L 2450 4666 
L 2450 531 
L 3481 531 
L 3481 0 
L 794 0 
L 794 531 
z
" transform="scale(0.015625)"/>
        <path id="DejaVuSans-39" d="M 703 97 
L 703 672 
Q 941 559 1184 500 
Q 1428 441 1663 441 
Q 2288 441 2617 861 
Q 2947 1281 2994 2138 
Q 2813 1869 2534 1725 
Q 2256 1581 1919 1581 
Q 1219 1581 811 2004 
Q 403 2428 403 3163 
Q 403 3881 828 4315 
Q 1253 4750 1959 4750 
Q 2769 4750 3195 4129 
Q 3622 3509 3622 2328 
Q 3622 1225 3098 567 
Q 2575 -91 1691 -91 
Q 1453 -91 1209 -44 
Q 966 3 703 97 
z
M 1959 2075 
Q 2384 2075 2632 2365 
Q 2881 2656 2881 3163 
Q 2881 3666 2632 3958 
Q 2384 4250 1959 4250 
Q 1534 4250 1286 3958 
Q 1038 3666 1038 3163 
Q 1038 2656 1286 2365 
Q 1534 2075 1959 2075 
z
" transform="scale(0.015625)"/>
       </defs>
       <use xlink:href="#DejaVuSans-32"/>
       <use xlink:href="#DejaVuSans-30" x="63.623047"/>
       <use xlink:href="#DejaVuSans-31" x="127.246094"/>
       <use xlink:href="#DejaVuSans-39" x="190.869141"/>
      </g>
     </g>
    </g>
    <g id="xtick_2">
     <g id="line2d_3">
      <path d="M 225.558735 390.04 
L 225.558735 26.88 
" clip-path="url(#pc5881e09cb)" style="fill: none; stroke-dasharray: 1.85,0.8; stroke-dashoffset: 0; stroke: #b0b0b0; stroke-opacity: 0.5; stroke-width: 0.5"/>
     </g>
     <g id="line2d_4">
      <g>
       <use xlink:href="#m04caab4acc" x="225.558735" y="390.04" style="stroke: #000000; stroke-width: 0.8"/>
      </g>
     </g>
     <g id="text_2">
      <!-- 2020 -->
      <g transform="translate(212.833735 404.638438) scale(0.1 -0.1)">
       <use xlink:href="#DejaVuSans-32"/>
       <use xlink:href="#DejaVuSans-30" x="63.623047"/>
       <use xlink:href="#DejaVuSans-32" x="127.246094"/>
       <use xlink:href="#DejaVuSans-30" x="190.869141"/>
      </g>
     </g>
    </g>
    <g id="xtick_3">
     <g id="line2d_5">
      <path d="M 364.381976 390.04 
L 364.381976 26.88 
" clip-path="url(#pc5881e09cb)" style="fill: none; stroke-dasharray: 1.85,0.8; stroke-dashoffset: 0; stroke: #b0b0b0; stroke-opacity: 0.5; stroke-width: 0.5"/>
     </g>
     <g id="line2d_6">
      <g>
       <use xlink:href="#m04caab4acc" x="364.381976" y="390.04" style="stroke: #000000; stroke-width: 0.8"/>
      </g>
     </g>
     <g id="text_3">
      <!-- 2021 -->
      <g transform="translate(351.656976 404.638438) scale(0.1 -0.1)">
       <use xlink:href="#DejaVuSans-32"/>
       <use xlink:href="#DejaVuSans-30" x="63.623047"/>
       <use xlink:href="#DejaVuSans-32" x="127.246094"/>
       <use xlink:href="#DejaVuSans-31" x="190.869141"/>
      </g>
     </g>
    </g>
    <g id="xtick_4">
     <g id="line2d_7">
      <path d="M 502.825919 390.04 
L 502.825919 26.88 
" clip-path="url(#pc5881e09cb)" style="fill: none; stroke-dasharray: 1.85,0.8; stroke-dashoffset: 0; stroke: #b0b0b0; stroke-opacity: 0.5; stroke-width: 0.5"/>
     </g>
     <g id="line2d_8">
      <g>
       <use xlink:href="#m04caab4acc" x="502.825919" y="390.04" style="stroke: #000000; stroke-width: 0.8"/>
      </g>
     </g>
     <g id="text_4">
      <!-- 2022 -->
      <g transform="translate(490.100919 404.638438) scale(0.1 -0.1)">
       <use xlink:href="#DejaVuSans-32"/>
       <use xlink:href="#DejaVuSans-30" x="63.623047"/>
       <use xlink:href="#DejaVuSans-32" x="127.246094"/>
       <use xlink:href="#DejaVuSans-32" x="190.869141"/>
      </g>
     </g>
    </g>
    <g id="xtick_5">
     <g id="line2d_9">
      <path d="M 641.269862 390.04 
L 641.269862 26.88 
" clip-path="url(#pc5881e09cb)" style="fill: none; stroke-dasharray: 1.85,0.8; stroke-dashoffset: 0; stroke: #b0b0b0; stroke-opacity: 0.5; stroke-width: 0.5"/>
     </g>
     <g id="line2d_10">
      <g>
       <use xlink:href="#m04caab4acc" x="641.269862" y="390.04" style="stroke: #000000; stroke-width: 0.8"/>
      </g>
     </g>
     <g id="text_5">
      <!-- 2023 -->
      <g transform="translate(628.544862 404.638438) scale(0.1 -0.1)">
       <defs>
        <path id="DejaVuSans-33" d="M 2597 2516 
Q 3050 2419 3304 2112 
Q 3559 1806 3559 1356 
Q 3559 666 3084 287 
Q 2609 -91 1734 -91 
Q 1441 -91 1130 -33 
Q 819 25 488 141 
L 488 750 
Q 750 597 1062 519 
Q 1375 441 1716 441 
Q 2309 441 2620 675 
Q 2931 909 2931 1356 
Q 2931 1769 2642 2001 
Q 2353 2234 1838 2234 
L 1294 2234 
L 1294 2753 
L 1863 2753 
Q 2328 2753 2575 2939 
Q 2822 3125 2822 3475 
Q 2822 3834 2567 4026 
Q 2313 4219 1838 4219 
Q 1578 4219 1281 4162 
Q 984 4106 628 3988 
L 628 4550 
Q 988 4650 1302 4700 
Q 1616 4750 1894 4750 
Q 2613 4750 3031 4423 
Q 3450 4097 3450 3541 
Q 3450 3153 3228 2886 
Q 3006 2619 2597 2516 
z
" transform="scale(0.015625)"/>
       </defs>
       <use xlink:href="#DejaVuSans-32"/>
       <use xlink:href="#DejaVuSans-30" x="63.623047"/>
       <use xlink:href="#DejaVuSans-32" x="127.246094"/>
       <use xlink:href="#DejaVuSans-33" x="190.869141"/>
      </g>
     </g>
    </g>
    <g id="xtick_6">
     <g id="line2d_11">
      <path d="M 779.713805 390.04 
L 779.713805 26.88 
" clip-path="url(#pc5881e09cb)" style="fill: none; stroke-dasharray: 1.85,0.8; stroke-dashoffset: 0; stroke: #b0b0b0; stroke-opacity: 0.5; stroke-width: 0.5"/>
     </g>
     <g id="line2d_12">
      <g>
       <use xlink:href="#m04caab4acc" x="779.713805" y="390.04" style="stroke: #000000; stroke-width: 0.8"/>
      </g>
     </g>
     <g id="text_6">
      <!-- 2024 -->
      <g transform="translate(766.988805 404.638438) scale(0.1 -0.1)">
       <defs>
        <path id="DejaVuSans-34" d="M 2419 4116 
L 825 1625 
L 2419 1625 
L 2419 4116 
z
M 2253 4666 
L 3047 4666 
L 3047 1625 
L 3713 1625 
L 3713 1100 
L 3047 1100 
L 3047 0 
L 2419 0 
L 2419 1100 
L 313 1100 
L 313 1709 
L 2253 4666 
z
" transform="scale(0.015625)"/>
       </defs>
       <use xlink:href="#DejaVuSans-32"/>
       <use xlink:href="#DejaVuSans-30" x="63.623047"/>
       <use xlink:href="#DejaVuSans-32" x="127.246094"/>
       <use xlink:href="#DejaVuSans-34" x="190.869141"/>
      </g>
     </g>
    </g>
    <g id="text_7">
     <!-- Date -->
     <g transform="translate(421.084219 418.316562) scale(0.1 -0.1)">
      <defs>
       <path id="DejaVuSans-44" d="M 1259 4147 
L 1259 519 
L 2022 519 
Q 2988 519 3436 956 
Q 3884 1394 3884 2338 
Q 3884 3275 3436 3711 
Q 2988 4147 2022 4147 
L 1259 4147 
z
M 628 4666 
L 1925 4666 
Q 3281 4666 3915 4102 
Q 4550 3538 4550 2338 
Q 4550 1131 3912 565 
Q 3275 0 1925 0 
L 628 0 
L 628 4666 
z
" transform="scale(0.015625)"/>
       <path id="DejaVuSans-61" d="M 2194 1759 
Q 1497 1759 1228 1600 
Q 959 1441 959 1056 
Q 959 750 1161 570 
Q 1363 391 1709 391 
Q 2188 391 2477 730 
Q 2766 1069 2766 1631 
L 2766 1759 
L 2194 1759 
z
M 3341 1997 
L 3341 0 
L 2766 0 
L 2766 531 
Q 2569 213 2275 61 
Q 1981 -91 1556 -91 
Q 1019 -91 701 211 
Q 384 513 384 1019 
Q 384 1609 779 1909 
Q 1175 2209 1959 2209 
L 2766 2209 
L 2766 2266 
Q 2766 2663 2505 2880 
Q 2244 3097 1772 3097 
Q 1472 3097 1187 3025 
Q 903 2953 641 2809 
L 641 3341 
Q 956 3463 1253 3523 
Q 1550 3584 1831 3584 
Q 2591 3584 2966 3190 
Q 3341 2797 3341 1997 
z
" transform="scale(0.015625)"/>
       <path id="DejaVuSans-74" d="M 1172 4494 
L 1172 3500 
L 2356 3500 
L 2356 3053 
L 1172 3053 
L 1172 1153 
Q 1172 725 1289 603 
Q 1406 481 1766 481 
L 2356 481 
L 2356 0 
L 1766 0 
Q 1100 0 847 248 
Q 594 497 594 1153 
L 594 3053 
L 172 3053 
L 172 3500 
L 594 3500 
L 594 4494 
L 1172 4494 
z
" transform="scale(0.015625)"/>
       <path id="DejaVuSans-65" d="M 3597 1894 
L 3597 1613 
L 953 1613 
Q 991 1019 1311 708 
Q 1631 397 2203 397 
Q 2534 397 2845 478 
Q 3156 559 3463 722 
L 3463 178 
Q 3153 47 2828 -22 
Q 2503 -91 2169 -91 
Q 1331 -91 842 396 
Q 353 884 353 1716 
Q 353 2575 817 3079 
Q 1281 3584 2069 3584 
Q 2775 3584 3186 3129 
Q 3597 2675 3597 1894 
z
M 3022 2063 
Q 3016 2534 2758 2815 
Q 2500 3097 2075 3097 
Q 1594 3097 1305 2825 
Q 1016 2553 972 2059 
L 3022 2063 
z
" transform="scale(0.015625)"/>
      </defs>
      <use xlink:href="#DejaVuSans-44"/>
      <use xlink:href="#DejaVuSans-61" x="77.001953"/>
      <use xlink:href="#DejaVuSans-74" x="138.28125"/>
      <use xlink:href="#DejaVuSans-65" x="177.490234"/>
     </g>
    </g>
   </g>
   <g id="matplotlib.axis_2">
    <g id="ytick_1">
     <g id="line2d_13">
      <path d="M 52.94 380.462622 
L 813.13 380.462622 
" clip-path="url(#pc5881e09cb)" style="fill: none; stroke-dasharray: 1.85,0.8; stroke-dashoffset: 0; stroke: #b0b0b0; stroke-opacity: 0.5; stroke-width: 0.5"/>
     </g>
     <g id="line2d_14">
      <defs>
       <path id="mb32f8e6cf6" d="M 0 0 
L -3.5 0 
" style="stroke: #000000; stroke-width: 0.8"/>
      </defs>
      <g>
       <use xlink:href="#mb32f8e6cf6" x="52.94" y="380.462622" style="stroke: #000000; stroke-width: 0.8"/>
      </g>
     </g>
     <g id="text_8">
      <!-- −15 -->
      <g style="fill: #d62728" transform="translate(24.835313 384.261841) scale(0.1 -0.1)">
       <defs>
        <path id="DejaVuSans-2212" d="M 678 2272 
L 4684 2272 
L 4684 1741 
L 678 1741 
L 678 2272 
z
" transform="scale(0.015625)"/>
        <path id="DejaVuSans-35" d="M 691 4666 
L 3169 4666 
L 3169 4134 
L 1269 4134 
L 1269 2991 
Q 1406 3038 1543 3061 
Q 1681 3084 1819 3084 
Q 2600 3084 3056 2656 
Q 3513 2228 3513 1497 
Q 3513 744 3044 326 
Q 2575 -91 1722 -91 
Q 1428 -91 1123 -41 
Q 819 9 494 109 
L 494 744 
Q 775 591 1075 516 
Q 1375 441 1709 441 
Q 2250 441 2565 725 
Q 2881 1009 2881 1497 
Q 2881 1984 2565 2268 
Q 2250 2553 1709 2553 
Q 1456 2553 1204 2497 
Q 953 2441 691 2322 
L 691 4666 
z
" transform="scale(0.015625)"/>
       </defs>
       <use xlink:href="#DejaVuSans-2212"/>
       <use xlink:href="#DejaVuSans-31" x="83.789062"/>
       <use xlink:href="#DejaVuSans-35" x="147.412109"/>
      </g>
     </g>
    </g>
    <g id="ytick_2">
     <g id="line2d_15">
      <path d="M 52.94 333.16668 
L 813.13 333.16668 
" clip-path="url(#pc5881e09cb)" style="fill: none; stroke-dasharray: 1.85,0.8; stroke-dashoffset: 0; stroke: #b0b0b0; stroke-opacity: 0.5; stroke-width: 0.5"/>
     </g>
     <g id="line2d_16">
      <g>
       <use xlink:href="#mb32f8e6cf6" x="52.94" y="333.16668" style="stroke: #000000; stroke-width: 0.8"/>
      </g>
     </g>
     <g id="text_9">
      <!-- −10 -->
      <g style="fill: #d62728" transform="translate(24.835313 336.965898) scale(0.1 -0.1)">
       <use xlink:href="#DejaVuSans-2212"/>
       <use xlink:href="#DejaVuSans-31" x="83.789062"/>
       <use xlink:href="#DejaVuSans-30" x="147.412109"/>
      </g>
     </g>
    </g>
    <g id="ytick_3">
     <g id="line2d_17">
      <path d="M 52.94 285.870737 
L 813.13 285.870737 
" clip-path="url(#pc5881e09cb)" style="fill: none; stroke-dasharray: 1.85,0.8; stroke-dashoffset: 0; stroke: #b0b0b0; stroke-opacity: 0.5; stroke-width: 0.5"/>
     </g>
     <g id="line2d_18">
      <g>
       <use xlink:href="#mb32f8e6cf6" x="52.94" y="285.870737" style="stroke: #000000; stroke-width: 0.8"/>
      </g>
     </g>
     <g id="text_10">
      <!-- −5 -->
      <g style="fill: #d62728" transform="translate(31.197813 289.669956) scale(0.1 -0.1)">
       <use xlink:href="#DejaVuSans-2212"/>
       <use xlink:href="#DejaVuSans-35" x="83.789062"/>
      </g>
     </g>
    </g>
    <g id="ytick_4">
     <g id="line2d_19">
      <path d="M 52.94 238.574794 
L 813.13 238.574794 
" clip-path="url(#pc5881e09cb)" style="fill: none; stroke-dasharray: 1.85,0.8; stroke-dashoffset: 0; stroke: #b0b0b0; stroke-opacity: 0.5; stroke-width: 0.5"/>
     </g>
     <g id="line2d_20">
      <g>
       <use xlink:href="#mb32f8e6cf6" x="52.94" y="238.574794" style="stroke: #000000; stroke-width: 0.8"/>
      </g>
     </g>
     <g id="text_11">
      <!-- 0 -->
      <g style="fill: #d62728" transform="translate(39.5775 242.374013) scale(0.1 -0.1)">
       <use xlink:href="#DejaVuSans-30"/>
      </g>
     </g>
    </g>
    <g id="ytick_5">
     <g id="line2d_21">
      <path d="M 52.94 191.278851 
L 813.13 191.278851 
" clip-path="url(#pc5881e09cb)" style="fill: none; stroke-dasharray: 1.85,0.8; stroke-dashoffset: 0; stroke: #b0b0b0; stroke-opacity: 0.5; stroke-width: 0.5"/>
     </g>
     <g id="line2d_22">
      <g>
       <use xlink:href="#mb32f8e6cf6" x="52.94" y="191.278851" style="stroke: #000000; stroke-width: 0.8"/>
      </g>
     </g>
     <g id="text_12">
      <!-- 5 -->
      <g style="fill: #d62728" transform="translate(39.5775 195.07807) scale(0.1 -0.1)">
       <use xlink:href="#DejaVuSans-35"/>
      </g>
     </g>
    </g>
    <g id="ytick_6">
     <g id="line2d_23">
      <path d="M 52.94 143.982908 
L 813.13 143.982908 
" clip-path="url(#pc5881e09cb)" style="fill: none; stroke-dasharray: 1.85,0.8; stroke-dashoffset: 0; stroke: #b0b0b0; stroke-opacity: 0.5; stroke-width: 0.5"/>
     </g>
     <g id="line2d_24">
      <g>
       <use xlink:href="#mb32f8e6cf6" x="52.94" y="143.982908" style="stroke: #000000; stroke-width: 0.8"/>
      </g>
     </g>
     <g id="text_13">
      <!-- 10 -->
      <g style="fill: #d62728" transform="translate(33.215 147.782127) scale(0.1 -0.1)">
       <use xlink:href="#DejaVuSans-31"/>
       <use xlink:href="#DejaVuSans-30" x="63.623047"/>
      </g>
     </g>
    </g>
    <g id="ytick_7">
     <g id="line2d_25">
      <path d="M 52.94 96.686965 
L 813.13 96.686965 
" clip-path="url(#pc5881e09cb)" style="fill: none; stroke-dasharray: 1.85,0.8; stroke-dashoffset: 0; stroke: #b0b0b0; stroke-opacity: 0.5; stroke-width: 0.5"/>
     </g>
     <g id="line2d_26">
      <g>
       <use xlink:href="#mb32f8e6cf6" x="52.94" y="96.686965" style="stroke: #000000; stroke-width: 0.8"/>
      </g>
     </g>
     <g id="text_14">
      <!-- 15 -->
      <g style="fill: #d62728" transform="translate(33.215 100.486184) scale(0.1 -0.1)">
       <use xlink:href="#DejaVuSans-31"/>
       <use xlink:href="#DejaVuSans-35" x="63.623047"/>
      </g>
     </g>
    </g>
    <g id="ytick_8">
     <g id="line2d_27">
      <path d="M 52.94 49.391023 
L 813.13 49.391023 
" clip-path="url(#pc5881e09cb)" style="fill: none; stroke-dasharray: 1.85,0.8; stroke-dashoffset: 0; stroke: #b0b0b0; stroke-opacity: 0.5; stroke-width: 0.5"/>
     </g>
     <g id="line2d_28">
      <g>
       <use xlink:href="#mb32f8e6cf6" x="52.94" y="49.391023" style="stroke: #000000; stroke-width: 0.8"/>
      </g>
     </g>
     <g id="text_15">
      <!-- 20 -->
      <g style="fill: #d62728" transform="translate(33.215 53.190241) scale(0.1 -0.1)">
       <use xlink:href="#DejaVuSans-32"/>
       <use xlink:href="#DejaVuSans-30" x="63.623047"/>
      </g>
     </g>
    </g>
    <g id="text_16">
     <!-- Returns (%) -->
     <g style="fill: #d62728" transform="translate(18.755625 237.8975) rotate(-90) scale(0.1 -0.1)">
      <defs>
       <path id="DejaVuSans-52" d="M 2841 2188 
Q 3044 2119 3236 1894 
Q 3428 1669 3622 1275 
L 4263 0 
L 3584 0 
L 2988 1197 
Q 2756 1666 2539 1819 
Q 2322 1972 1947 1972 
L 1259 1972 
L 1259 0 
L 628 0 
L 628 4666 
L 2053 4666 
Q 2853 4666 3247 4331 
Q 3641 3997 3641 3322 
Q 3641 2881 3436 2590 
Q 3231 2300 2841 2188 
z
M 1259 4147 
L 1259 2491 
L 2053 2491 
Q 2509 2491 2742 2702 
Q 2975 2913 2975 3322 
Q 2975 3731 2742 3939 
Q 2509 4147 2053 4147 
L 1259 4147 
z
" transform="scale(0.015625)"/>
       <path id="DejaVuSans-75" d="M 544 1381 
L 544 3500 
L 1119 3500 
L 1119 1403 
Q 1119 906 1312 657 
Q 1506 409 1894 409 
Q 2359 409 2629 706 
Q 2900 1003 2900 1516 
L 2900 3500 
L 3475 3500 
L 3475 0 
L 2900 0 
L 2900 538 
Q 2691 219 2414 64 
Q 2138 -91 1772 -91 
Q 1169 -91 856 284 
Q 544 659 544 1381 
z
M 1991 3584 
L 1991 3584 
z
" transform="scale(0.015625)"/>
       <path id="DejaVuSans-72" d="M 2631 2963 
Q 2534 3019 2420 3045 
Q 2306 3072 2169 3072 
Q 1681 3072 1420 2755 
Q 1159 2438 1159 1844 
L 1159 0 
L 581 0 
L 581 3500 
L 1159 3500 
L 1159 2956 
Q 1341 3275 1631 3429 
Q 1922 3584 2338 3584 
Q 2397 3584 2469 3576 
Q 2541 3569 2628 3553 
L 2631 2963 
z
" transform="scale(0.015625)"/>
       <path id="DejaVuSans-6e" d="M 3513 2113 
L 3513 0 
L 2938 0 
L 2938 2094 
Q 2938 2591 2744 2837 
Q 2550 3084 2163 3084 
Q 1697 3084 1428 2787 
Q 1159 2491 1159 1978 
L 1159 0 
L 581 0 
L 581 3500 
L 1159 3500 
L 1159 2956 
Q 1366 3272 1645 3428 
Q 1925 3584 2291 3584 
Q 2894 3584 3203 3211 
Q 3513 2838 3513 2113 
z
" transform="scale(0.015625)"/>
       <path id="DejaVuSans-73" d="M 2834 3397 
L 2834 2853 
Q 2591 2978 2328 3040 
Q 2066 3103 1784 3103 
Q 1356 3103 1142 2972 
Q 928 2841 928 2578 
Q 928 2378 1081 2264 
Q 1234 2150 1697 2047 
L 1894 2003 
Q 2506 1872 2764 1633 
Q 3022 1394 3022 966 
Q 3022 478 2636 193 
Q 2250 -91 1575 -91 
Q 1294 -91 989 -36 
Q 684 19 347 128 
L 347 722 
Q 666 556 975 473 
Q 1284 391 1588 391 
Q 1994 391 2212 530 
Q 2431 669 2431 922 
Q 2431 1156 2273 1281 
Q 2116 1406 1581 1522 
L 1381 1569 
Q 847 1681 609 1914 
Q 372 2147 372 2553 
Q 372 3047 722 3315 
Q 1072 3584 1716 3584 
Q 2034 3584 2315 3537 
Q 2597 3491 2834 3397 
z
" transform="scale(0.015625)"/>
       <path id="DejaVuSans-20" transform="scale(0.015625)"/>
       <path id="DejaVuSans-28" d="M 1984 4856 
Q 1566 4138 1362 3434 
Q 1159 2731 1159 2009 
Q 1159 1288 1364 580 
Q 1569 -128 1984 -844 
L 1484 -844 
Q 1016 -109 783 600 
Q 550 1309 550 2009 
Q 550 2706 781 3412 
Q 1013 4119 1484 4856 
L 1984 4856 
z
" transform="scale(0.015625)"/>
       <path id="DejaVuSans-25" d="M 4653 2053 
Q 4381 2053 4226 1822 
Q 4072 1591 4072 1178 
Q 4072 772 4226 539 
Q 4381 306 4653 306 
Q 4919 306 5073 539 
Q 5228 772 5228 1178 
Q 5228 1588 5073 1820 
Q 4919 2053 4653 2053 
z
M 4653 2450 
Q 5147 2450 5437 2106 
Q 5728 1763 5728 1178 
Q 5728 594 5436 251 
Q 5144 -91 4653 -91 
Q 4153 -91 3862 251 
Q 3572 594 3572 1178 
Q 3572 1766 3864 2108 
Q 4156 2450 4653 2450 
z
M 1428 4353 
Q 1159 4353 1004 4120 
Q 850 3888 850 3481 
Q 850 3069 1003 2837 
Q 1156 2606 1428 2606 
Q 1700 2606 1854 2837 
Q 2009 3069 2009 3481 
Q 2009 3884 1853 4118 
Q 1697 4353 1428 4353 
z
M 4250 4750 
L 4750 4750 
L 1831 -91 
L 1331 -91 
L 4250 4750 
z
M 1428 4750 
Q 1922 4750 2215 4408 
Q 2509 4066 2509 3481 
Q 2509 2891 2217 2550 
Q 1925 2209 1428 2209 
Q 931 2209 642 2551 
Q 353 2894 353 3481 
Q 353 4063 643 4406 
Q 934 4750 1428 4750 
z
" transform="scale(0.015625)"/>
       <path id="DejaVuSans-29" d="M 513 4856 
L 1013 4856 
Q 1481 4119 1714 3412 
Q 1947 2706 1947 2009 
Q 1947 1309 1714 600 
Q 1481 -109 1013 -844 
L 513 -844 
Q 928 -128 1133 580 
Q 1338 1288 1338 2009 
Q 1338 2731 1133 3434 
Q 928 4138 513 4856 
z
" transform="scale(0.015625)"/>
      </defs>
      <use xlink:href="#DejaVuSans-52"/>
      <use xlink:href="#DejaVuSans-65" x="64.982422"/>
      <use xlink:href="#DejaVuSans-74" x="126.505859"/>
      <use xlink:href="#DejaVuSans-75" x="165.714844"/>
      <use xlink:href="#DejaVuSans-72" x="229.09375"/>
      <use xlink:href="#DejaVuSans-6e" x="268.457031"/>
      <use xlink:href="#DejaVuSans-73" x="331.835938"/>
      <use xlink:href="#DejaVuSans-20" x="383.935547"/>
      <use xlink:href="#DejaVuSans-28" x="415.722656"/>
      <use xlink:href="#DejaVuSans-25" x="454.736328"/>
      <use xlink:href="#DejaVuSans-29" x="549.755859"/>
     </g>
    </g>
   </g>
   <g id="line2d_29">
    <path d="M 87.494091 238.574794 
L 87.873389 238.574794 
L 88.252688 200.938336 
L 135.285699 200.881221 
L 135.664997 203.882959 
L 136.044295 201.185837 
L 137.182191 229.331099 
L 138.320086 199.408909 
L 138.699385 207.436814 
L 139.83728 218.720303 
L 140.216579 209.220087 
L 140.595877 211.244516 
L 140.975176 224.609549 
L 141.354474 223.99397 
L 142.871668 228.46802 
L 143.250966 235.645538 
L 143.630265 230.923987 
L 144.009563 243.863827 
L 145.147459 258.022132 
L 145.526757 235.893038 
L 146.664653 204.314498 
L 147.802548 198.368137 
L 148.181847 198.97737 
L 148.561145 201.065259 
L 148.940444 195.975631 
L 149.319742 198.609292 
L 150.457637 194.750821 
L 150.836936 184.076563 
L 151.216234 180.154631 
L 151.595533 170.406914 
L 171.698352 170.406914 
L 172.07765 152.376575 
L 172.456949 183.322537 
L 172.836247 178.143405 
L 173.215546 163.604471 
L 174.353441 150.502038 
L 174.73274 155.558778 
L 175.112038 145.136096 
L 175.491337 146.450204 
L 175.870635 174.774392 
L 177.008531 162.670423 
L 177.387829 164.976555 
L 177.767128 159.926256 
L 178.146426 144.51125 
L 178.525724 147.506644 
L 180.042918 155.745588 
L 180.801515 127.601768 
L 181.180814 128.413423 
L 182.318709 135.776295 
L 182.698008 141.515856 
L 183.456605 128.787042 
L 183.835903 132.28489 
L 184.973799 134.938873 
L 185.353097 128.626 
L 185.732395 128.001154 
L 186.111694 126.996248 
L 186.490992 136.195006 
L 187.628888 135.628136 
L 188.008186 146.514621 
L 188.387485 138.005126 
L 188.766783 139.383651 
L 189.146082 151.204184 
L 190.283977 144.51125 
L 190.663276 154.830866 
L 191.042574 172.275009 
L 191.421873 161.021346 
L 191.801171 146.263395 
L 192.939066 150.141303 
L 193.318365 165.897719 
L 193.697663 154.644056 
L 194.076962 148.640385 
L 194.45626 137.631507 
L 195.594156 137.882733 
L 195.973454 127.125082 
L 196.352753 130.313727 
L 196.732051 128.065571 
L 197.11135 136.195006 
L 198.249245 128.748392 
L 198.628544 140.755735 
L 199.007842 137.818316 
L 199.387141 128.935202 
L 199.766439 124.187663 
L 200.904334 116.74105 
L 201.283633 121.623864 
L 201.662931 115.678168 
L 202.04223 117.559146 
L 202.421528 108.611615 
L 203.559424 107.361924 
L 203.938722 110.614986 
L 204.318021 112.051487 
L 204.697319 108.862841 
L 205.076618 106.672661 
L 206.214513 106.363459 
L 207.352408 96.353046 
L 207.731707 88.539255 
L 208.869602 87.160729 
L 209.248901 85.099383 
L 209.628199 88.539255 
L 210.007498 93.228818 
L 210.386796 92.726364 
L 211.90399 78.090805 
L 212.283289 70.650633 
L 213.041886 74.966577 
L 214.559079 94.169307 
L 214.938378 88.790481 
L 215.317676 87.289563 
L 215.696975 76.841114 
L 217.214169 82.348774 
L 217.593467 78.593258 
L 218.352064 69.149715 
L 219.48996 60.144208 
L 219.869258 61.522734 
L 220.248557 60.331018 
L 220.627855 52.890846 
L 246.420151 52.890846 
L 246.79945 53.136465 
L 247.178748 107.46239 
L 247.558047 106.971151 
L 248.695942 55.768999 
L 249.07524 88.083666 
L 249.454539 43.387273 
L 249.833837 81.521225 
L 250.213136 102.373664 
L 251.351031 182.262878 
L 251.73033 126.223916 
L 252.109628 176.500274 
L 252.488927 268.286273 
L 252.868225 187.043005 
L 254.006121 312.863005 
L 254.385419 262.341029 
L 254.764718 302.622575 
L 255.144016 293.181981 
L 255.523315 293.181981 
L 256.66121 306.460128 
L 320.762652 306.460128 
L 321.14195 282.219949 
L 321.521249 299.252056 
L 321.900547 302.580727 
L 323.038443 288.516888 
L 323.417741 277.93965 
L 324.555637 311.096781 
L 325.693532 311.254711 
L 326.072831 296.915507 
L 326.452129 321.593029 
L 326.831428 319.175491 
L 327.210726 300.53979 
L 338.968979 300.53979 
L 339.348277 295.319623 
L 339.727576 329.859661 
L 340.106874 318.921983 
L 340.486173 337.116202 
L 341.624068 334.159543 
L 342.003366 318.769254 
L 342.382665 283.575227 
L 342.761963 262.929527 
L 343.141262 260.779585 
L 344.279157 274.979379 
L 344.658456 288.834555 
L 345.037754 271.987475 
L 345.417053 277.321209 
L 365.519872 277.321209 
L 365.89917 271.437518 
L 366.278469 281.428691 
L 366.657767 260.573042 
L 367.037066 250.689181 
L 368.174961 263.259558 
L 368.55426 265.043167 
L 368.933558 261.553657 
L 369.312857 270.527211 
L 369.692155 275.685617 
L 371.209349 265.587131 
L 371.588647 244.043201 
L 371.967946 239.536072 
L 372.347244 240.335366 
L 373.48514 234.270353 
L 373.864438 235.794932 
L 384.484795 235.794932 
L 384.864094 229.552019 
L 385.243392 259.394639 
L 385.622691 256.12739 
L 386.760586 231.02116 
L 387.139885 243.940626 
L 387.519183 269.742174 
L 387.898482 285.379363 
L 388.27778 273.192599 
L 389.415676 291.876479 
L 389.794974 262.65815 
L 390.174273 262.807681 
L 390.553571 242.067752 
L 390.932869 247.906931 
L 392.450063 236.086517 
L 392.829362 234.363174 
L 393.20866 259.319874 
L 393.587959 257.81335 
L 394.725854 244.198566 
L 395.105153 248.052724 
L 395.484451 260.860042 
L 395.86375 260.635745 
L 396.243048 246.890122 
L 397.380944 247.880764 
L 397.760242 252.441455 
L 398.518839 223.510973 
L 400.036033 206.602772 
L 400.415331 205.387833 
L 400.79463 202.412169 
L 413.311479 202.412169 
L 413.690778 205.260658 
L 414.070076 230.900822 
L 414.449375 223.762667 
L 414.828673 204.04149 
L 415.966569 209.776097 
L 416.345867 215.917093 
L 416.725166 215.585961 
L 417.104464 198.638016 
L 417.483763 203.224948 
L 418.621658 187.131174 
L 419.380255 182.988259 
L 419.759553 184.764332 
L 420.138852 182.100223 
L 421.656046 185.57711 
L 422.035344 184.467065 
L 422.414643 193.791445 
L 422.793941 180.358016 
L 423.931837 178.472821 
L 424.311135 177.325147 
L 424.690434 177.103138 
L 425.069732 167.556749 
L 425.449031 163.782595 
L 426.586926 154.939862 
L 462.620281 154.939862 
L 463.758176 173.635712 
L 464.137475 171.733327 
L 464.896072 151.13164 
L 465.27537 149.881797 
L 466.413266 158.830946 
L 466.792564 189.424469 
L 467.171863 190.515492 
L 467.551161 196.809589 
L 467.93046 186.396535 
L 469.068355 207.598975 
L 469.447653 194.903751 
L 469.826952 188.402498 
L 470.20625 178.807712 
L 470.585549 182.754038 
L 471.723444 189.731751 
L 472.102743 190.342862 
L 472.482041 182.722965 
L 472.86134 165.501377 
L 473.240638 157.674324 
L 474.378534 147.703204 
L 474.757832 140.252485 
L 475.137131 142.56573 
L 489.171174 142.56573 
L 490.309069 123.085588 
L 490.688368 138.002693 
L 491.067666 160.358218 
L 491.446965 148.383602 
L 491.826263 166.672656 
L 492.964159 155.362364 
L 493.343457 125.269807 
L 493.722756 117.234165 
L 494.102054 131.288989 
L 494.481353 121.66635 
L 495.619248 136.083533 
L 495.998547 149.742447 
L 496.377845 129.504037 
L 496.757143 153.312353 
L 497.136442 156.519899 
L 498.274337 168.920623 
L 498.653636 144.250027 
L 499.412233 124.209572 
L 500.929427 107.655142 
L 501.308725 112.456397 
L 501.688024 112.060486 
L 502.446621 121.532143 
L 503.584516 114.278256 
L 503.963814 127.195677 
L 504.343113 163.491951 
L 504.722411 165.713076 
L 505.10171 176.805282 
L 506.239605 178.858649 
L 506.618904 165.843928 
L 506.998202 162.200209 
L 507.377501 189.159034 
L 507.756799 186.974815 
L 509.273993 210.752935 
L 509.653292 219.925981 
L 510.03259 232.544791 
L 510.411889 258.409829 
L 512.308381 258.409829 
L 512.687679 267.18282 
L 515.342769 267.18282 
L 515.722067 254.352267 
L 520.652947 254.352267 
L 521.032246 264.873071 
L 522.928738 264.873071 
L 523.308037 233.45404 
L 523.687335 218.841524 
L 525.204529 218.841524 
L 525.583827 203.686526 
L 526.342424 203.686526 
L 527.48032 243.005734 
L 528.997514 243.005734 
L 530.135409 259.121551 
L 540.755766 259.121551 
L 541.135065 263.810258 
L 541.514363 246.385727 
L 541.893662 266.491484 
L 543.410856 267.952409 
L 543.790154 246.791349 
L 544.169453 257.389066 
L 544.548751 276.649206 
L 544.92805 302.701784 
L 546.445243 302.701784 
L 546.824542 300.677371 
L 547.583139 300.677371 
L 548.721034 289.074709 
L 549.85893 289.074709 
L 550.238228 301.347533 
L 552.134721 301.347533 
L 552.514019 302.768279 
L 554.78981 302.768279 
L 555.169108 303.574018 
L 555.548407 304.920808 
L 557.065601 304.920808 
L 557.444899 293.597378 
L 565.789466 293.597378 
L 566.168764 283.902565 
L 567.685958 260.990602 
L 568.065256 260.990602 
L 568.444555 243.391497 
L 570.341047 243.391497 
L 570.720346 241.51329 
L 592.719657 241.51329 
L 593.857553 251.01663 
L 594.236851 260.481245 
L 594.61615 267.149848 
L 594.995448 266.994944 
L 595.374747 278.953507 
L 596.89194 282.361388 
L 597.271239 263.621916 
L 597.650537 257.301847 
L 598.029836 237.679424 
L 599.167731 226.185572 
L 599.54703 275.619206 
L 599.926328 269.756102 
L 600.305627 285.122546 
L 600.684925 294.664612 
L 601.822821 287.000753 
L 602.202119 296.236885 
L 602.960716 324.286067 
L 603.340014 338.184799 
L 604.47791 343.637408 
L 604.857208 343.482505 
L 605.236507 327.128549 
L 605.615805 348.97384 
L 605.995104 362.950024 
L 607.132999 343.792312 
L 608.270895 343.792312 
L 608.650193 373.532727 
L 611.305282 373.532727 
L 612.443178 344.716386 
L 621.167043 344.716386 
L 621.546341 278.4496 
L 621.92564 259.885659 
L 623.063535 271.096983 
L 623.442834 258.195449 
L 623.822132 268.405616 
L 631.408101 268.405616 
L 631.7874 272.131623 
L 632.166698 261.564966 
L 632.545997 267.87274 
L 633.683892 254.315363 
L 634.063191 242.687083 
L 634.442489 249.60622 
L 634.821788 279.914102 
L 635.201086 292.199184 
L 636.338982 306.00441 
L 636.71828 305.471533 
L 637.097579 291.463896 
L 637.476877 310.59789 
L 637.856176 307.681526 
L 639.373369 317.612035 
L 639.752668 328.980073 
L 640.131966 307.396499 
L 640.511265 309.817164 
L 642.028459 315.972097 
L 642.407757 309.978266 
L 642.787056 325.658888 
L 643.166354 305.550019 
L 644.30425 297.874941 
L 644.683548 289.993322 
L 645.062847 271.813549 
L 661.751979 271.813549 
L 662.889875 265.402955 
L 663.269173 266.430881 
L 663.648472 273.594491 
L 664.02777 264.769466 
L 664.407069 245.45003 
L 665.544964 244.422104 
L 665.924263 257.048066 
L 666.303561 253.765077 
L 667.062158 286.778243 
L 668.200053 281.11668 
L 668.579352 261.402808 
L 668.95865 261.088055 
L 669.337949 238.366104 
L 669.717247 243.987825 
L 670.855143 241.139115 
L 671.234441 225.939353 
L 671.61374 240.465783 
L 671.993038 231.031173 
L 672.372337 228.453389 
L 673.510232 232.855942 
L 673.88953 236.820231 
L 674.268829 220.441143 
L 674.648127 212.711775 
L 675.027426 195.185234 
L 676.165321 196.093634 
L 676.54462 199.029997 
L 676.923918 209.576201 
L 677.303217 203.472391 
L 678.820411 204.460475 
L 679.199709 208.428749 
L 679.579008 214.417017 
L 679.958306 194.826655 
L 680.337605 197.404439 
L 681.4755 195.619513 
L 682.234097 193.834587 
L 682.613395 200.101749 
L 682.992694 198.790944 
L 684.130589 200.061907 
L 684.509888 220.480985 
L 684.889186 215.76368 
L 685.268485 192.567608 
L 685.647783 184.91394 
L 686.785679 186.340287 
L 687.164977 194.946181 
L 687.923574 205.058107 
L 688.302872 184.674887 
L 689.440768 181.818209 
L 689.820066 186.340287 
L 690.199365 175.909625 
L 690.578663 175.156609 
L 690.957962 178.447567 
L 692.095857 174.562962 
L 692.475156 176.068993 
L 693.233753 147.283074 
L 693.613051 150.374822 
L 694.750947 147.597827 
L 695.130245 163.618336 
L 695.509543 169.208183 
L 696.26814 130.78446 
L 697.785334 127.019381 
L 698.164633 133.242718 
L 698.92323 108.46093 
L 724.715526 108.46093 
L 725.094824 106.471097 
L 725.474123 112.290782 
L 726.612018 100.344101 
L 727.749914 131.397789 
L 728.129212 132.815257 
L 729.267108 118.571433 
L 729.646406 118.264123 
L 730.025705 102.48759 
L 730.405003 122.320616 
L 730.784301 114.050133 
L 731.922197 106.279028 
L 732.301495 85.489499 
L 732.680794 78.329173 
L 733.439391 75.647892 
L 734.956585 75.455823 
L 735.335883 85.677726 
L 735.715182 91.462839 
L 736.09448 90.694564 
L 737.232376 78.632642 
L 737.611674 90.694564 
L 737.990972 87.786642 
L 738.370271 81.160267 
L 738.749569 99.080289 
L 739.887465 98.584751 
L 740.266763 100.382515 
L 741.02536 137.759108 
L 741.404659 139.176576 
L 742.542554 133.426036 
L 742.921853 133.426036 
L 743.301151 131.906719 
L 745.576942 131.906719 
L 745.95624 117.255822 
L 753.921508 117.255822 
L 754.300807 138.216921 
L 754.680105 134.497628 
L 756.197299 114.334094 
L 778.575909 114.334094 
L 778.575909 114.334094 
" clip-path="url(#pc5881e09cb)" style="fill: none; stroke: #d62728; stroke-width: 1.5; stroke-linecap: square"/>
   </g>
   <g id="patch_3">
    <path d="M 52.94 390.04 
L 52.94 26.88 
" style="fill: none; stroke: #000000; stroke-width: 0.8; stroke-linejoin: miter; stroke-linecap: square"/>
   </g>
   <g id="patch_4">
    <path d="M 813.13 390.04 
L 813.13 26.88 
" style="fill: none; stroke: #000000; stroke-width: 0.8; stroke-linejoin: miter; stroke-linecap: square"/>
   </g>
   <g id="patch_5">
    <path d="M 52.94 390.04 
L 813.13 390.04 
" style="fill: none; stroke: #000000; stroke-width: 0.8; stroke-linejoin: miter; stroke-linecap: square"/>
   </g>
   <g id="patch_6">
    <path d="M 52.94 26.88 
L 813.13 26.88 
" style="fill: none; stroke: #000000; stroke-width: 0.8; stroke-linejoin: miter; stroke-linecap: square"/>
   </g>
  </g>
  <g id="axes_2">
   <g id="matplotlib.axis_3">
    <g id="ytick_9">
     <g id="line2d_30">
      <defs>
       <path id="m49c0510989" d="M 0 0 
L 3.5 0 
" style="stroke: #000000; stroke-width: 0.8"/>
      </defs>
      <g>
       <use xlink:href="#m49c0510989" x="813.13" y="374.248493" style="stroke: #000000; stroke-width: 0.8"/>
      </g>
     </g>
     <g id="text_17">
      <!-- 125 -->
      <g style="fill: #1f77b4" transform="translate(820.13 378.047712) scale(0.1 -0.1)">
       <use xlink:href="#DejaVuSans-31"/>
       <use xlink:href="#DejaVuSans-32" x="63.623047"/>
       <use xlink:href="#DejaVuSans-35" x="127.246094"/>
      </g>
     </g>
    </g>
    <g id="ytick_10">
     <g id="line2d_31">
      <g>
       <use xlink:href="#m49c0510989" x="813.13" y="332.0453" style="stroke: #000000; stroke-width: 0.8"/>
      </g>
     </g>
     <g id="text_18">
      <!-- 150 -->
      <g style="fill: #1f77b4" transform="translate(820.13 335.844519) scale(0.1 -0.1)">
       <use xlink:href="#DejaVuSans-31"/>
       <use xlink:href="#DejaVuSans-35" x="63.623047"/>
       <use xlink:href="#DejaVuSans-30" x="127.246094"/>
      </g>
     </g>
    </g>
    <g id="ytick_11">
     <g id="line2d_32">
      <g>
       <use xlink:href="#m49c0510989" x="813.13" y="289.842106" style="stroke: #000000; stroke-width: 0.8"/>
      </g>
     </g>
     <g id="text_19">
      <!-- 175 -->
      <g style="fill: #1f77b4" transform="translate(820.13 293.641325) scale(0.1 -0.1)">
       <defs>
        <path id="DejaVuSans-37" d="M 525 4666 
L 3525 4666 
L 3525 4397 
L 1831 0 
L 1172 0 
L 2766 4134 
L 525 4134 
L 525 4666 
z
" transform="scale(0.015625)"/>
       </defs>
       <use xlink:href="#DejaVuSans-31"/>
       <use xlink:href="#DejaVuSans-37" x="63.623047"/>
       <use xlink:href="#DejaVuSans-35" x="127.246094"/>
      </g>
     </g>
    </g>
    <g id="ytick_12">
     <g id="line2d_33">
      <g>
       <use xlink:href="#m49c0510989" x="813.13" y="247.638913" style="stroke: #000000; stroke-width: 0.8"/>
      </g>
     </g>
     <g id="text_20">
      <!-- 200 -->
      <g style="fill: #1f77b4" transform="translate(820.13 251.438131) scale(0.1 -0.1)">
       <use xlink:href="#DejaVuSans-32"/>
       <use xlink:href="#DejaVuSans-30" x="63.623047"/>
       <use xlink:href="#DejaVuSans-30" x="127.246094"/>
      </g>
     </g>
    </g>
    <g id="ytick_13">
     <g id="line2d_34">
      <g>
       <use xlink:href="#m49c0510989" x="813.13" y="205.435719" style="stroke: #000000; stroke-width: 0.8"/>
      </g>
     </g>
     <g id="text_21">
      <!-- 225 -->
      <g style="fill: #1f77b4" transform="translate(820.13 209.234938) scale(0.1 -0.1)">
       <use xlink:href="#DejaVuSans-32"/>
       <use xlink:href="#DejaVuSans-32" x="63.623047"/>
       <use xlink:href="#DejaVuSans-35" x="127.246094"/>
      </g>
     </g>
    </g>
    <g id="ytick_14">
     <g id="line2d_35">
      <g>
       <use xlink:href="#m49c0510989" x="813.13" y="163.232526" style="stroke: #000000; stroke-width: 0.8"/>
      </g>
     </g>
     <g id="text_22">
      <!-- 250 -->
      <g style="fill: #1f77b4" transform="translate(820.13 167.031744) scale(0.1 -0.1)">
       <use xlink:href="#DejaVuSans-32"/>
       <use xlink:href="#DejaVuSans-35" x="63.623047"/>
       <use xlink:href="#DejaVuSans-30" x="127.246094"/>
      </g>
     </g>
    </g>
    <g id="ytick_15">
     <g id="line2d_36">
      <g>
       <use xlink:href="#m49c0510989" x="813.13" y="121.029332" style="stroke: #000000; stroke-width: 0.8"/>
      </g>
     </g>
     <g id="text_23">
      <!-- 275 -->
      <g style="fill: #1f77b4" transform="translate(820.13 124.828551) scale(0.1 -0.1)">
       <use xlink:href="#DejaVuSans-32"/>
       <use xlink:href="#DejaVuSans-37" x="63.623047"/>
       <use xlink:href="#DejaVuSans-35" x="127.246094"/>
      </g>
     </g>
    </g>
    <g id="ytick_16">
     <g id="line2d_37">
      <g>
       <use xlink:href="#m49c0510989" x="813.13" y="78.826138" style="stroke: #000000; stroke-width: 0.8"/>
      </g>
     </g>
     <g id="text_24">
      <!-- 300 -->
      <g style="fill: #1f77b4" transform="translate(820.13 82.625357) scale(0.1 -0.1)">
       <use xlink:href="#DejaVuSans-33"/>
       <use xlink:href="#DejaVuSans-30" x="63.623047"/>
       <use xlink:href="#DejaVuSans-30" x="127.246094"/>
      </g>
     </g>
    </g>
    <g id="ytick_17">
     <g id="line2d_38">
      <g>
       <use xlink:href="#m49c0510989" x="813.13" y="36.622945" style="stroke: #000000; stroke-width: 0.8"/>
      </g>
     </g>
     <g id="text_25">
      <!-- 325 -->
      <g style="fill: #1f77b4" transform="translate(820.13 40.422164) scale(0.1 -0.1)">
       <use xlink:href="#DejaVuSans-33"/>
       <use xlink:href="#DejaVuSans-32" x="63.623047"/>
       <use xlink:href="#DejaVuSans-35" x="127.246094"/>
      </g>
     </g>
    </g>
    <g id="text_26">
     <!-- Close Price -->
     <g style="fill: #1f77b4" transform="translate(850.815938 235.867812) rotate(-90) scale(0.1 -0.1)">
      <defs>
       <path id="DejaVuSans-43" d="M 4122 4306 
L 4122 3641 
Q 3803 3938 3442 4084 
Q 3081 4231 2675 4231 
Q 1875 4231 1450 3742 
Q 1025 3253 1025 2328 
Q 1025 1406 1450 917 
Q 1875 428 2675 428 
Q 3081 428 3442 575 
Q 3803 722 4122 1019 
L 4122 359 
Q 3791 134 3420 21 
Q 3050 -91 2638 -91 
Q 1578 -91 968 557 
Q 359 1206 359 2328 
Q 359 3453 968 4101 
Q 1578 4750 2638 4750 
Q 3056 4750 3426 4639 
Q 3797 4528 4122 4306 
z
" transform="scale(0.015625)"/>
       <path id="DejaVuSans-6c" d="M 603 4863 
L 1178 4863 
L 1178 0 
L 603 0 
L 603 4863 
z
" transform="scale(0.015625)"/>
       <path id="DejaVuSans-6f" d="M 1959 3097 
Q 1497 3097 1228 2736 
Q 959 2375 959 1747 
Q 959 1119 1226 758 
Q 1494 397 1959 397 
Q 2419 397 2687 759 
Q 2956 1122 2956 1747 
Q 2956 2369 2687 2733 
Q 2419 3097 1959 3097 
z
M 1959 3584 
Q 2709 3584 3137 3096 
Q 3566 2609 3566 1747 
Q 3566 888 3137 398 
Q 2709 -91 1959 -91 
Q 1206 -91 779 398 
Q 353 888 353 1747 
Q 353 2609 779 3096 
Q 1206 3584 1959 3584 
z
" transform="scale(0.015625)"/>
       <path id="DejaVuSans-50" d="M 1259 4147 
L 1259 2394 
L 2053 2394 
Q 2494 2394 2734 2622 
Q 2975 2850 2975 3272 
Q 2975 3691 2734 3919 
Q 2494 4147 2053 4147 
L 1259 4147 
z
M 628 4666 
L 2053 4666 
Q 2838 4666 3239 4311 
Q 3641 3956 3641 3272 
Q 3641 2581 3239 2228 
Q 2838 1875 2053 1875 
L 1259 1875 
L 1259 0 
L 628 0 
L 628 4666 
z
" transform="scale(0.015625)"/>
       <path id="DejaVuSans-69" d="M 603 3500 
L 1178 3500 
L 1178 0 
L 603 0 
L 603 3500 
z
M 603 4863 
L 1178 4863 
L 1178 4134 
L 603 4134 
L 603 4863 
z
" transform="scale(0.015625)"/>
       <path id="DejaVuSans-63" d="M 3122 3366 
L 3122 2828 
Q 2878 2963 2633 3030 
Q 2388 3097 2138 3097 
Q 1578 3097 1268 2742 
Q 959 2388 959 1747 
Q 959 1106 1268 751 
Q 1578 397 2138 397 
Q 2388 397 2633 464 
Q 2878 531 3122 666 
L 3122 134 
Q 2881 22 2623 -34 
Q 2366 -91 2075 -91 
Q 1284 -91 818 406 
Q 353 903 353 1747 
Q 353 2603 823 3093 
Q 1294 3584 2113 3584 
Q 2378 3584 2631 3529 
Q 2884 3475 3122 3366 
z
" transform="scale(0.015625)"/>
      </defs>
      <use xlink:href="#DejaVuSans-43"/>
      <use xlink:href="#DejaVuSans-6c" x="69.824219"/>
      <use xlink:href="#DejaVuSans-6f" x="97.607422"/>
      <use xlink:href="#DejaVuSans-73" x="158.789062"/>
      <use xlink:href="#DejaVuSans-65" x="210.888672"/>
      <use xlink:href="#DejaVuSans-20" x="272.412109"/>
      <use xlink:href="#DejaVuSans-50" x="304.199219"/>
      <use xlink:href="#DejaVuSans-72" x="362.751953"/>
      <use xlink:href="#DejaVuSans-69" x="403.865234"/>
      <use xlink:href="#DejaVuSans-63" x="431.648438"/>
      <use xlink:href="#DejaVuSans-65" x="486.628906"/>
     </g>
    </g>
   </g>
   <g id="line2d_39">
    <path d="M 87.494091 366.847741 
L 87.873389 373.532727 
L 88.252688 365.107282 
L 89.390583 362.862072 
L 89.769882 360.145874 
L 90.14918 358.390221 
L 90.528479 357.299691 
L 92.045673 359.544901 
L 92.424971 356.291879 
L 92.80427 356.096056 
L 93.183568 354.193536 
L 93.562866 351.315278 
L 95.08006 355.039288 
L 95.459359 354.958258 
L 95.838657 354.210417 
L 96.217956 351.460457 
L 97.355851 353.673593 
L 97.73515 354.779316 
L 98.114448 349.623774 
L 98.493747 346.679679 
L 98.873045 346.890695 
L 100.010941 344.549262 
L 100.390239 342.727772 
L 100.769537 343.571836 
L 101.148836 345.963913 
L 101.528134 345.329177 
L 102.66603 345.150236 
L 103.045328 342.027199 
L 103.424627 341.262477 
L 103.803925 341.213522 
L 104.183224 339.408913 
L 106.079716 339.018956 
L 106.459015 340.107798 
L 106.838313 338.075292 
L 107.976208 337.668453 
L 108.355507 337.766365 
L 108.734805 337.440556 
L 109.114104 337.879469 
L 109.493402 335.700096 
L 111.010596 336.871657 
L 111.389895 338.352145 
L 111.769193 340.742534 
L 112.148492 341.262477 
L 113.286387 337.099554 
L 113.665686 336.236921 
L 114.044984 334.611254 
L 114.424283 334.643328 
L 114.803581 333.066617 
L 115.941476 332.626016 
L 116.700073 331.552367 
L 117.079372 327.845238 
L 117.45867 333.407619 
L 118.596566 333.471768 
L 118.975864 331.992968 
L 119.355163 333.326589 
L 119.734461 332.067246 
L 120.11376 330.14278 
L 122.010252 325.525751 
L 122.38955 325.476795 
L 122.768849 324.188753 
L 123.906744 323.928782 
L 124.286043 325.021 
L 124.665341 323.797108 
L 125.04464 323.943975 
L 125.423938 321.987435 
L 126.561834 322.068465 
L 126.941132 322.330125 
L 127.320431 323.096535 
L 127.699729 322.330125 
L 129.216923 321.627864 
L 129.596221 318.790121 
L 129.97552 319.296559 
L 130.354818 318.709091 
L 130.734117 317.518961 
L 131.872012 317.338331 
L 132.251311 318.138504 
L 132.630609 320.111925 
L 133.009908 320.518764 
L 133.389206 317.583109 
L 134.527102 318.692209 
L 134.9064 323.650241 
L 135.285699 323.635047 
L 135.664997 324.433532 
L 136.044295 323.716078 
L 137.182191 331.202924 
L 138.320086 323.243402 
L 138.699385 325.378883 
L 139.83728 328.380375 
L 140.216579 325.853247 
L 140.595877 326.39176 
L 140.975176 329.946957 
L 141.354474 329.783209 
L 142.871668 330.973339 
L 143.250966 332.882611 
L 143.630265 331.626644 
L 144.009563 335.068737 
L 145.147459 338.83495 
L 145.526757 332.948448 
L 146.664653 324.548325 
L 147.802548 322.966549 
L 148.181847 323.128609 
L 148.561145 323.684003 
L 148.940444 322.330125 
L 149.319742 323.030698 
L 150.457637 322.004316 
L 150.836936 319.164885 
L 151.216234 318.121622 
L 151.595533 315.528658 
L 151.974831 316.116126 
L 153.112727 316.882536 
L 153.492025 320.878335 
L 153.871324 320.584601 
L 154.629921 318.094612 
L 156.147115 314.218671 
L 156.526413 312.125392 
L 157.28501 312.533919 
L 158.422905 314.120759 
L 158.802204 312.780386 
L 159.181502 310.899812 
L 159.560801 310.327536 
L 159.940099 308.985475 
L 161.077995 308.659666 
L 161.836592 311.210427 
L 162.21589 310.572315 
L 162.595189 312.403934 
L 163.733084 310.899812 
L 164.491681 307.530309 
L 164.870979 309.231942 
L 165.250278 306.860122 
L 166.388173 307.857806 
L 166.767472 308.691741 
L 167.14677 311.961644 
L 167.526069 313.51641 
L 167.905367 316.197157 
L 169.043263 325.240457 
L 169.422561 321.283486 
L 169.80186 320.039335 
L 170.181158 314.054923 
L 170.560457 316.148201 
L 171.698352 319.532897 
L 172.07765 314.807827 
L 172.456949 322.917593 
L 172.836247 321.560338 
L 173.215546 317.750234 
L 174.353441 314.316582 
L 174.73274 315.641763 
L 175.112038 312.910372 
L 175.491337 313.25475 
L 175.870635 320.677448 
L 177.008531 317.505456 
L 177.387829 318.109805 
L 177.767128 316.786313 
L 178.146426 312.746624 
L 178.525724 313.531603 
L 180.042918 315.690718 
L 180.801515 308.315288 
L 181.180814 308.527992 
L 182.318709 310.457522 
L 182.698008 311.961644 
L 183.456605 308.625904 
L 183.835903 309.542557 
L 184.973799 310.238066 
L 185.353097 308.5837 
L 186.111694 308.156604 
L 186.490992 310.567251 
L 187.628888 310.418695 
L 188.008186 313.271631 
L 188.387485 311.041614 
L 188.766783 311.402874 
L 189.146082 314.500588 
L 190.283977 312.746624 
L 190.663276 315.451004 
L 191.042574 320.022454 
L 191.421873 317.073295 
L 191.801171 313.205794 
L 192.939066 314.222047 
L 193.318365 318.351208 
L 193.697663 315.402048 
L 194.076962 313.828713 
L 194.45626 310.943703 
L 195.594156 311.00954 
L 195.973454 308.190367 
L 196.352753 309.02599 
L 196.732051 308.436833 
L 197.11135 310.567251 
L 198.249245 308.615775 
L 198.628544 311.762445 
L 199.007842 310.992659 
L 199.387141 308.664731 
L 199.766439 307.42058 
L 200.904334 305.469105 
L 201.283633 306.748706 
L 201.662931 305.190564 
L 202.04223 305.683497 
L 202.421528 303.338688 
L 203.559424 303.011191 
L 203.938722 303.863695 
L 204.318021 304.240148 
L 205.076618 302.830561 
L 206.214513 302.749531 
L 207.352408 300.126181 
L 207.731707 298.078482 
L 208.869602 297.717222 
L 209.248901 297.177021 
L 209.628199 298.078482 
L 210.007498 299.307439 
L 210.386796 299.175765 
L 211.90399 295.340338 
L 212.283289 293.390551 
L 213.041886 294.521596 
L 214.559079 299.553905 
L 214.938378 298.144319 
L 215.317676 297.750985 
L 215.696975 295.012842 
L 217.214169 296.456191 
L 217.593467 295.472012 
L 218.352064 292.997217 
L 219.48996 290.637214 
L 219.869258 290.998474 
L 220.248557 290.68617 
L 221.007153 287.27784 
L 222.524347 286.77309 
L 223.282944 284.274661 
L 223.662243 284.372572 
L 224.800138 286.47598 
L 225.179437 285.868254 
L 225.938034 281.56184 
L 226.317332 283.650054 
L 227.455228 281.710395 
L 227.834526 281.809994 
L 228.593123 276.698344 
L 228.972421 277.355025 
L 230.110317 274.068241 
L 230.489615 275.449129 
L 230.868914 274.544293 
L 231.248212 271.406063 
L 231.627511 269.861426 
L 233.144705 269.712871 
L 233.524003 269.532241 
L 233.903302 268.710123 
L 234.2826 271.438138 
L 235.420495 277.076484 
L 235.799794 272.687352 
L 236.558391 271.225434 
L 236.937689 276.500833 
L 238.075585 272.440886 
L 238.454883 266.262338 
L 238.834182 265.637731 
L 239.21348 263.434724 
L 239.592779 264.864568 
L 240.730674 260.985251 
L 241.109973 261.002132 
L 241.489271 258.290999 
L 241.86857 257.995576 
L 242.247868 256.434058 
L 243.765062 256.268622 
L 244.14436 253.935629 
L 244.523659 255.990081 
L 244.902957 261.462991 
L 246.040853 273.180285 
L 246.420151 281.973743 
L 246.79945 282.03958 
L 247.178748 296.60137 
L 247.558047 296.469696 
L 248.695942 282.745217 
L 249.07524 291.407001 
L 249.454539 279.426358 
L 249.833837 289.647972 
L 250.213136 295.237363 
L 251.351031 316.651263 
L 251.73033 301.630302 
L 252.109628 315.106626 
L 252.488927 339.7094 
L 252.868225 317.932552 
L 254.006121 351.657968 
L 254.385419 338.115807 
L 254.764718 348.913072 
L 255.144016 346.382569 
L 255.523315 355.815827 
L 256.66121 359.234285 
L 257.040508 339.018956 
L 257.419807 336.866593 
L 257.799105 323.505062 
L 258.178404 331.859606 
L 259.316299 323.390269 
L 259.695598 327.065323 
L 260.074896 338.683018 
L 260.454195 334.233113 
L 260.833493 337.430427 
L 261.971389 319.073726 
L 262.350687 319.715215 
L 262.729986 311.657781 
L 263.109284 308.857177 
L 264.626478 309.004044 
L 265.005776 298.573103 
L 265.385075 303.006126 
L 265.764373 299.974249 
L 266.143672 294.636389 
L 267.281567 298.986694 
L 267.660866 308.674859 
L 268.040164 300.188641 
L 268.419463 300.683263 
L 268.798761 296.415676 
L 269.936657 293.515472 
L 270.315955 297.271556 
L 270.695253 287.929458 
L 271.074552 288.126969 
L 271.45385 295.921054 
L 272.591746 293.020851 
L 272.971044 289.411634 
L 273.350343 288.753264 
L 274.10894 280.316001 
L 275.246835 278.273367 
L 275.626134 284.551514 
L 276.005432 288.653664 
L 276.764029 283.462672 
L 277.901924 276.591992 
L 278.281223 277.942494 
L 278.660521 272.093131 
L 279.03982 274.581431 
L 279.419118 273.214048 
L 280.936312 272.47296 
L 281.315611 270.3628 
L 281.694909 269.736505 
L 282.074208 267.150293 
L 283.212103 264.974297 
L 283.9707 259.965621 
L 284.349999 263.260847 
L 284.729297 256.027219 
L 285.867192 253.25869 
L 286.246491 252.649276 
L 286.625789 250.424323 
L 287.005088 268.122655 
L 287.384386 264.793667 
L 288.522282 261.316124 
L 288.90158 255.071739 
L 289.280879 254.79151 
L 289.660177 254.082496 
L 290.039476 255.284443 
L 291.177371 251.199174 
L 291.556669 249.089014 
L 291.935968 257.114374 
L 292.315266 253.434255 
L 292.694565 261.920473 
L 293.83246 257.661327 
L 294.211759 251.550305 
L 294.591057 247.719943 
L 294.970356 246.300227 
L 296.48755 238.720534 
L 296.866848 241.593727 
L 297.246147 237.316012 
L 298.004744 234.328025 
L 299.142639 241.494128 
L 299.521937 237.267056 
L 299.901236 235.236238 
L 300.280534 237.943995 
L 300.659833 236.639072 
L 301.797728 228.399321 
L 302.177027 230.595575 
L 302.556325 228.77915 
L 302.935624 236.507398 
L 303.314922 237.927114 
L 304.452818 233.105821 
L 304.832116 236.936183 
L 305.211415 232.032172 
L 305.590713 231.735061 
L 305.970011 226.319547 
L 307.487205 221.299056 
L 307.866504 219.251357 
L 308.245802 215.07324 
L 308.625101 218.408981 
L 309.762996 219.499511 
L 310.142295 224.915025 
L 310.521593 217.880597 
L 310.900892 216.295445 
L 311.28019 216.955503 
L 312.418086 213.224741 
L 312.797384 210.400503 
L 313.176682 212.382365 
L 313.555981 208.418641 
L 313.935279 206.354061 
L 315.073175 204.157806 
L 315.452473 201.384213 
L 315.831772 193.407809 
L 316.21107 194.201229 
L 316.590369 191.674102 
L 317.728264 190.08895 
L 318.107563 184.045453 
L 318.486861 179.901099 
L 318.86616 198.973566 
L 319.245458 205.116663 
L 320.762652 219.317194 
L 321.14195 209.212061 
L 321.521249 216.312326 
L 321.900547 217.699967 
L 323.038443 211.8371 
L 323.417741 207.42771 
L 324.555637 221.2501 
L 325.693532 221.315937 
L 326.072831 215.338276 
L 326.452129 225.625727 
L 326.831428 224.617915 
L 327.210726 216.849151 
L 328.348621 210.33129 
L 328.72792 211.107828 
L 329.107218 208.708999 
L 329.486517 203.696948 
L 329.865815 210.876555 
L 331.003711 203.779666 
L 331.383009 210.148972 
L 331.762308 203.828622 
L 332.141606 201.529392 
L 332.520905 195.772876 
L 333.6588 187.036815 
L 334.038098 187.533124 
L 334.417397 190.759137 
L 336.313889 200.222781 
L 336.693188 198.782808 
L 337.072486 199.262236 
L 337.451785 199.561035 
L 337.831083 197.675396 
L 338.968979 204.259094 
L 339.348277 202.00882 
L 339.727576 216.898107 
L 340.106874 212.183166 
L 340.486173 220.026207 
L 341.624068 218.751671 
L 342.003366 212.117329 
L 342.382665 196.946125 
L 342.761963 188.046315 
L 343.141262 187.119533 
L 344.279157 193.240684 
L 344.658456 199.21328 
L 345.037754 191.950955 
L 345.417053 194.250185 
L 345.796351 191.20649 
L 346.934247 188.277589 
L 347.313545 189.121653 
L 347.692844 192.727494 
L 348.072142 189.651725 
L 348.45144 192.578938 
L 349.589336 192.016792 
L 349.968634 187.533124 
L 350.347933 185.28285 
L 351.10653 182.570029 
L 352.244425 182.139556 
L 352.623724 177.77237 
L 353.003022 178.847707 
L 353.382321 179.063788 
L 353.761619 176.631195 
L 354.899515 175.042667 
L 355.278813 174.181722 
L 355.658111 181.545335 
L 356.03741 180.105362 
L 356.416708 180.584791 
L 357.554604 179.509453 
L 357.933902 174.546358 
L 358.313201 172.46152 
L 358.692499 168.921516 
L 359.071798 169.05319 
L 360.209693 169.731817 
L 360.588992 167.994734 
L 360.96829 170.707555 
L 361.347589 168.833733 
L 362.864782 165.170496 
L 363.244081 166.065204 
L 363.623379 166.147922 
L 364.002678 165.369695 
L 365.519872 171.468901 
L 365.89917 168.784778 
L 366.278469 173.342723 
L 366.657767 163.828435 
L 367.037066 159.319445 
L 368.174961 165.054015 
L 368.55426 165.867693 
L 368.933558 164.275789 
L 369.312857 168.369498 
L 369.692155 170.722748 
L 371.209349 166.115848 
L 371.588647 156.287568 
L 371.967946 154.231428 
L 372.347244 154.596064 
L 373.48514 151.829223 
L 373.864438 152.524731 
L 374.243737 163.595473 
L 374.623035 161.044712 
L 375.002334 169.628842 
L 376.140229 159.652007 
L 376.519527 152.043615 
L 376.898826 153.12064 
L 377.278124 148.032623 
L 377.657423 146.044009 
L 378.795318 143.557397 
L 379.174617 143.673878 
L 379.553915 144.32043 
L 380.312512 139.580168 
L 381.829706 141.386464 
L 382.967602 146.425526 
L 384.105497 156.236924 
L 384.484795 156.934121 
L 384.864094 154.114948 
L 385.243392 167.591271 
L 385.622691 166.115848 
L 386.760586 154.778382 
L 387.139885 160.612551 
L 387.519183 172.264009 
L 387.898482 179.325447 
L 388.27778 173.822151 
L 389.415676 182.259413 
L 389.794974 169.065007 
L 390.174273 169.132532 
L 390.553571 159.766799 
L 390.932869 162.403655 
L 392.450063 157.065795 
L 392.829362 156.287568 
L 393.20866 167.557509 
L 393.587959 166.877193 
L 394.725854 160.729032 
L 395.105153 162.469492 
L 395.484451 168.253017 
L 395.86375 168.15173 
L 396.243048 161.944484 
L 397.380944 162.391838 
L 397.760242 164.451354 
L 398.518839 151.386933 
L 400.036033 143.751531 
L 400.415331 143.20289 
L 400.79463 141.85914 
L 401.173928 136.845401 
L 401.553227 133.526542 
L 402.691122 133.526542 
L 403.070421 128.777838 
L 403.449719 133.60926 
L 403.829018 126.471856 
L 404.208316 126.338494 
L 405.346211 130.172232 
L 405.72551 133.276699 
L 406.104808 129.674234 
L 406.484107 133.725741 
L 406.863405 126.91921 
L 408.001301 124.711139 
L 408.759898 126.703129 
L 409.139196 125.524816 
L 409.518495 129.093518 
L 410.65639 131.716869 
L 411.035689 138.521712 
L 411.414987 140.880026 
L 411.794286 139.036591 
L 412.173584 135.285571 
L 413.311479 144.730646 
L 413.690778 146.008558 
L 414.070076 157.511461 
L 414.449375 154.309082 
L 414.828673 145.461605 
L 415.966569 148.034312 
L 416.345867 150.789336 
L 416.725166 150.640781 
L 417.104464 143.037453 
L 417.483763 145.095281 
L 418.621658 137.875159 
L 419.380255 136.01653 
L 419.759553 136.813326 
L 420.138852 135.618132 
L 421.656046 137.177962 
L 422.035344 136.679964 
L 422.414643 140.863145 
L 422.793941 134.836529 
L 423.931837 133.990777 
L 424.311135 133.475898 
L 424.690434 133.376298 
L 425.069732 129.093518 
L 425.449031 127.400326 
L 426.586926 123.433226 
L 426.966224 126.073458 
L 427.345523 127.798724 
L 427.724821 122.055714 
L 428.10412 125.35938 
L 429.242015 121.441235 
L 429.621314 116.611502 
L 430.000612 116.262059 
L 430.379911 113.829467 
L 430.759209 113.030983 
L 432.276403 107.845054 
L 432.655702 108.543939 
L 433.035 107.679618 
L 433.414298 102.39409 
L 435.310791 98.437118 
L 435.690089 101.928167 
L 436.069388 98.155201 
L 437.207283 97.091681 
L 437.586582 97.905358 
L 437.96588 97.273998 
L 438.724477 103.14193 
L 439.862373 109.075699 
L 440.241671 101.595605 
L 441.000268 94.797515 
L 441.379566 87.317421 
L 442.517462 86.853186 
L 442.89676 91.522547 
L 443.276059 90.29359 
L 443.655357 89.827667 
L 444.034656 93.367671 
L 445.172551 94.31471 
L 445.55185 91.573191 
L 445.931148 91.24063 
L 446.310447 87.084459 
L 446.689745 88.863746 
L 447.82764 88.597022 
L 448.206939 91.439829 
L 448.586237 92.321032 
L 448.965536 89.628468 
L 449.344834 88.232386 
L 450.48273 87.501427 
L 451.241327 96.12776 
L 451.620625 94.19823 
L 451.999924 89.079826 
L 453.137819 82.879333 
L 453.896416 81.300934 
L 454.275714 84.209578 
L 454.655013 79.521647 
L 455.792908 74.452199 
L 456.172207 75.29964 
L 456.551505 73.787077 
L 456.930804 74.053801 
L 457.310102 72.225559 
L 458.827296 71.693799 
L 459.585893 74.585562 
L 459.965192 78.82445 
L 461.103087 79.970689 
L 461.482385 80.602049 
L 461.861684 77.045164 
L 462.240982 76.297323 
L 462.620281 81.982937 
L 463.758176 91.124149 
L 464.137475 90.193991 
L 464.896072 80.120932 
L 465.27537 79.50983 
L 466.413266 83.885457 
L 466.792564 98.843957 
L 467.171863 99.377406 
L 467.551161 102.454862 
L 467.93046 97.363469 
L 469.068355 107.730262 
L 469.447653 101.523016 
L 469.826952 98.344271 
L 470.20625 93.652964 
L 470.585549 95.582494 
L 471.723444 98.994201 
L 472.102743 99.292999 
L 472.482041 95.567301 
L 472.86134 87.14692 
L 473.240638 83.319934 
L 474.378534 78.444622 
L 474.757832 74.801642 
L 475.137131 75.932687 
L 475.516429 71.938577 
L 475.895727 75.384046 
L 477.033623 71.256574 
L 477.412921 70.47497 
L 477.79222 70.108647 
L 478.171518 64.900773 
L 478.550817 62.554275 
L 479.688712 62.30612 
L 480.068011 60.758107 
L 480.447309 57.214727 
L 480.826608 51.20668 
L 481.205906 50.35924 
L 482.343802 49.476349 
L 482.7231 52.17229 
L 483.102398 60.525146 
L 483.481697 59.792498 
L 483.860995 53.186854 
L 484.998891 53.453578 
L 485.378189 48.478666 
L 485.757488 49.444275 
L 486.136786 45.234084 
L 486.516085 43.387273 
L 488.033279 53.620703 
L 488.412577 50.225878 
L 489.171174 61.124431 
L 490.309069 51.323161 
L 490.688368 58.828577 
L 491.067666 70.076572 
L 491.446965 64.051644 
L 491.826263 73.253629 
L 492.964159 67.56295 
L 493.343457 52.422132 
L 493.722756 48.379066 
L 494.102054 55.450634 
L 494.481353 50.609083 
L 495.619248 57.862968 
L 495.998547 64.735336 
L 496.377845 54.55255 
L 496.757143 66.531504 
L 497.136442 68.145354 
L 498.274337 74.384674 
L 498.653636 61.971871 
L 499.412233 51.888684 
L 500.929427 43.559462 
L 501.308725 45.975173 
L 501.688024 45.775973 
L 502.446621 50.541558 
L 503.584516 46.891826 
L 503.963814 53.391118 
L 504.343113 71.653284 
L 504.722411 72.770824 
L 505.10171 78.351775 
L 506.239605 79.384909 
L 506.618904 72.836661 
L 506.998202 71.003354 
L 507.377501 84.567461 
L 507.756799 83.46849 
L 509.273993 95.432251 
L 509.653292 100.047592 
L 510.03259 106.396641 
L 510.411889 119.410417 
L 511.549784 116.02741 
L 511.929082 127.34293 
L 512.308381 127.908453 
L 512.687679 132.241876 
L 513.066978 115.595249 
L 514.584172 96.681466 
L 514.96347 93.965268 
L 515.342769 112.527921 
L 515.722067 105.913836 
L 516.859963 109.663168 
L 517.239261 105.06302 
L 517.61856 95.165527 
L 517.997858 104.64774 
L 518.377156 119.54378 
L 519.515052 118.927613 
L 519.89435 108.295784 
L 520.273649 108.79547 
L 520.652947 122.776544 
L 521.032246 128.008052 
L 522.54944 134.623825 
L 522.928738 145.937657 
L 523.308037 130.925137 
L 523.687335 123.94304 
L 524.825231 123.093912 
L 525.204529 129.940958 
L 525.583827 122.793425 
L 526.342424 137.640509 
L 527.48032 155.586995 
L 527.859618 157.670145 
L 528.238917 140.922229 
L 528.618215 145.10541 
L 528.997514 154.020412 
L 530.135409 161.402595 
L 530.894006 132.690918 
L 531.273305 126.043071 
L 531.652603 116.761745 
L 532.790498 118.644008 
L 533.169797 110.095329 
L 533.549095 117.183777 
L 533.928394 108.476414 
L 534.307692 108.8765 
L 535.445588 101.502758 
L 535.824886 91.694736 
L 536.204185 97.567733 
L 536.583483 105.523879 
L 536.962782 104.055208 
L 538.100677 95.064239 
L 538.859274 116.115192 
L 539.238572 114.398366 
L 539.617871 120.00295 
L 540.755766 130.894751 
L 541.135065 133.197357 
L 541.514363 124.640237 
L 541.893662 134.514096 
L 543.410856 135.231551 
L 543.790154 124.839436 
L 544.169453 130.043934 
L 544.548751 139.502514 
L 544.92805 152.296834 
L 546.065945 146.726013 
L 546.445243 163.973614 
L 546.824542 163.006316 
L 547.20384 148.076515 
L 547.583139 167.292473 
L 548.721034 161.80437 
L 549.100333 162.172381 
L 549.479631 148.410764 
L 549.85893 170.228127 
L 551.376124 193.94801 
L 551.755422 190.662913 
L 552.134721 202.339693 
L 552.514019 202.955859 
L 552.893318 188.578076 
L 554.031213 193.765692 
L 554.410511 184.389831 
L 554.78981 202.923785 
L 555.169108 203.273228 
L 555.548407 203.85732 
L 556.686302 196.917427 
L 557.065601 205.675433 
L 557.444899 200.788303 
L 557.824198 190.279708 
L 558.203496 176.583928 
L 559.72069 178.535404 
L 560.099989 181.720901 
L 560.479287 169.211874 
L 560.858585 179.536463 
L 561.996481 178.018836 
L 562.375779 174.315084 
L 562.755078 177.551225 
L 563.134376 188.594957 
L 563.513675 203.624358 
L 564.65157 221.08804 
L 565.030869 220.920915 
L 565.410167 211.86411 
L 565.789466 226.675742 
L 566.168764 222.772791 
L 567.685958 213.548861 
L 568.065256 213.548861 
L 568.444555 206.463789 
L 568.823853 192.281828 
L 569.961749 196.441375 
L 570.341047 208.903134 
L 570.720346 208.151917 
L 571.099644 212.929318 
L 571.478943 209.30322 
L 573.375435 200.784927 
L 573.754734 192.999282 
L 574.134032 193.134332 
L 575.271927 200.317316 
L 575.651226 205.34456 
L 576.030524 206.565077 
L 576.409823 205.979296 
L 576.789121 198.980319 
L 577.927017 202.27048 
L 578.306315 190.04337 
L 579.064912 177.397605 
L 579.444211 184.614352 
L 580.582106 186.785284 
L 580.961405 195.070615 
L 581.340703 179.035089 
L 582.0993 164.366947 
L 583.237195 164.952728 
L 583.616494 166.539568 
L 583.995792 156.049542 
L 584.375091 153.927565 
L 584.754389 156.199785 
L 585.892285 157.118127 
L 586.271583 161.779048 
L 586.650882 149.332482 
L 587.03018 151.689108 
L 587.409479 143.186009 
L 588.547374 140.446177 
L 588.926672 140.697708 
L 589.305971 145.140861 
L 589.685269 144.755967 
L 590.064568 153.343473 
L 591.202463 164.550953 
L 591.581762 165.386577 
L 591.96106 164.100223 
L 592.340359 156.91724 
L 592.719657 174.240807 
L 593.857553 178.383472 
L 594.236851 182.509256 
L 594.61615 185.416212 
L 594.995448 185.348687 
L 595.374747 190.561626 
L 596.89194 192.047178 
L 597.271239 183.878328 
L 597.650537 181.123303 
L 598.029836 172.56956 
L 599.167731 167.559197 
L 599.54703 189.108148 
L 599.926328 186.552322 
L 600.305627 193.250813 
L 600.684925 197.41036 
L 601.822821 194.069555 
L 602.202119 198.09574 
L 602.960716 210.322849 
L 603.340014 216.381539 
L 604.47791 218.758423 
L 604.857208 218.690898 
L 605.236507 211.561935 
L 605.615805 221.084663 
L 605.995104 227.177116 
L 607.132999 218.825948 
L 607.512298 206.60728 
L 607.891596 207.059698 
L 608.270895 209.703306 
L 608.650193 222.992248 
L 609.788089 227.646416 
L 610.167387 232.381614 
L 610.546685 232.901558 
L 610.925984 225.286413 
L 611.305282 236.298071 
L 612.822476 220.080227 
L 613.581073 225.235769 
L 613.960372 217.235732 
L 615.098267 213.586 
L 615.477566 204.86682 
L 615.856864 212.983338 
L 616.236163 218.039281 
L 616.615461 208.449027 
L 617.753356 212.465083 
L 618.132655 216.14689 
L 618.511953 229.520238 
L 618.891252 236.365596 
L 619.27055 231.795834 
L 620.787744 226.908704 
L 621.167043 235.528284 
L 621.546341 207.929084 
L 621.92564 200.197459 
L 623.063535 204.86682 
L 623.442834 199.493509 
L 623.822132 203.745903 
L 624.20143 206.590399 
L 624.580729 206.338867 
L 625.718624 210.223249 
L 626.477221 200.715714 
L 627.235818 202.105043 
L 628.373714 208.800158 
L 628.753012 211.745941 
L 629.132311 195.225923 
L 629.511609 193.937881 
L 629.890908 195.008154 
L 631.028803 202.908592 
L 631.408101 210.925511 
L 631.7874 212.448202 
L 632.166698 208.129971 
L 632.545997 210.707742 
L 633.683892 205.167307 
L 634.063191 200.415227 
L 634.442489 203.242841 
L 634.821788 215.628634 
L 635.201086 220.649126 
L 636.338982 226.290849 
L 636.71828 226.073081 
L 637.097579 220.34864 
L 637.476877 228.168047 
L 637.856176 226.976229 
L 639.373369 231.034488 
L 639.752668 235.680216 
L 640.131966 226.859748 
L 640.511265 227.848991 
L 642.028459 230.364302 
L 642.407757 227.914828 
L 642.787056 234.322961 
L 643.166354 226.105155 
L 644.30425 222.968614 
L 644.683548 219.747666 
L 645.062847 212.318216 
L 645.821443 207.890257 
L 647.338637 206.799726 
L 648.097234 214.531351 
L 648.476533 204.519066 
L 649.614428 197.660203 
L 650.373025 199.773739 
L 650.752324 193.769068 
L 651.131622 189.877934 
L 652.269518 197.224666 
L 653.028114 183.11867 
L 653.407413 170.607956 
L 653.786711 177.333457 
L 654.924607 181.055778 
L 655.303905 173.391678 
L 655.683204 179.430111 
L 656.062502 183.287483 
L 656.441801 185.8872 
L 657.958995 177.684587 
L 658.338293 174.397802 
L 658.717592 182.180071 
L 659.09689 185.585025 
L 660.614084 195.447067 
L 660.993382 195.161774 
L 661.372681 191.907063 
L 661.751979 198.632564 
L 662.889875 195.916367 
L 663.269173 196.351904 
L 663.648472 199.387157 
L 664.02777 195.647954 
L 664.407069 187.462223 
L 665.544964 187.026686 
L 665.924263 192.376363 
L 666.303561 190.985346 
L 667.062158 204.973172 
L 668.200053 202.574343 
L 668.579352 194.221487 
L 668.95865 194.088124 
L 669.337949 184.460732 
L 669.717247 186.84268 
L 670.855143 185.635669 
L 671.234441 179.195462 
L 671.61374 185.350375 
L 671.993038 181.352889 
L 672.372337 180.26067 
L 673.510232 182.126051 
L 673.88953 183.805738 
L 674.268829 176.865845 
L 674.648127 173.590877 
L 675.027426 166.164803 
L 676.165321 166.549697 
L 676.54462 167.793847 
L 676.923918 172.262321 
L 677.303217 169.676109 
L 678.820411 170.094765 
L 679.199709 171.77614 
L 679.579008 174.313396 
L 679.958306 166.012872 
L 680.337605 167.105091 
L 681.4755 166.348809 
L 682.234097 165.592528 
L 682.613395 168.247953 
L 682.992694 167.692559 
L 684.130589 168.231072 
L 684.509888 176.882727 
L 684.889186 174.883983 
L 685.268485 165.055704 
L 685.647783 161.81281 
L 686.785679 162.41716 
L 687.164977 166.063516 
L 687.923574 170.347984 
L 688.302872 161.711522 
L 689.440768 160.501135 
L 689.820066 162.41716 
L 690.199365 157.997641 
L 690.578663 157.678585 
L 690.957962 159.072979 
L 692.095857 157.427054 
L 692.475156 158.065167 
L 693.233753 145.868444 
L 693.613051 147.178431 
L 694.750947 146.001806 
L 695.130245 152.789767 
L 695.509543 155.158211 
L 696.26814 138.877907 
L 697.785334 137.282626 
L 698.164633 139.919481 
L 698.92323 129.419327 
L 700.061125 130.091202 
L 700.440424 129.250514 
L 700.819722 136.106001 
L 701.199021 131.65272 
L 701.578319 130.258326 
L 702.716214 123.723584 
L 703.095513 120.463809 
L 703.474811 118.228728 
L 703.85411 112.013042 
L 704.233408 114.985835 
L 705.750602 115.843404 
L 706.129901 120.816628 
L 706.509199 116.128697 
L 706.888498 119.726097 
L 708.026393 124.976175 
L 708.405692 117.791503 
L 708.78499 116.175965 
L 709.164288 115.990271 
L 709.543587 109.141536 
L 710.681482 109.109462 
L 711.440079 108.873124 
L 711.819378 112.33885 
L 712.198676 113.886864 
L 713.336572 113.903745 
L 713.71587 111.413756 
L 714.474467 99.046533 
L 714.853766 98.626189 
L 715.991661 95.344468 
L 716.370959 91.407755 
L 716.750258 91.777454 
L 717.129556 101.384589 
L 717.508855 102.39409 
L 718.64675 100.862958 
L 719.026049 97.918863 
L 719.405347 98.491139 
L 719.784646 101.722215 
L 720.163944 94.166155 
L 721.30184 93.156655 
L 721.681138 94.704668 
L 722.060437 105.120416 
L 722.439735 106.214323 
L 722.819034 108.923768 
L 723.956929 105.458042 
L 724.336227 107.460161 
L 724.715526 112.423257 
L 725.094824 111.548807 
L 725.474123 114.10632 
L 726.612018 108.856243 
L 727.749914 122.503068 
L 728.129212 123.125987 
L 729.267108 116.866409 
L 729.646406 116.731359 
L 730.025705 109.798218 
L 730.405003 118.514022 
L 730.784301 114.879483 
L 731.922197 111.4644 
L 732.301495 102.328253 
L 732.680794 99.181583 
L 733.439391 98.00327 
L 734.956585 97.918863 
L 735.335883 102.410971 
L 735.715182 104.953292 
L 736.09448 104.615666 
L 737.232376 99.314945 
L 737.611674 104.615666 
L 737.990972 103.337753 
L 738.370271 100.425733 
L 738.749569 108.300849 
L 739.887465 108.08308 
L 740.266763 108.873124 
L 741.02536 125.298607 
L 741.404659 125.921526 
L 742.542554 123.394399 
L 742.921853 131.077068 
L 743.301151 130.420387 
L 743.68045 126.898952 
L 744.059748 126.443158 
L 745.197643 122.837317 
L 745.576942 131.397813 
L 745.95624 125.07915 
L 746.335539 124.775287 
L 746.714837 116.974449 
L 747.852733 114.867666 
L 748.232031 112.644402 
L 748.61133 108.920392 
L 748.990628 111.246632 
L 749.369927 116.537224 
L 750.507822 111.162225 
L 750.887121 112.408064 
L 751.266419 119.923608 
L 751.645717 123.730336 
L 752.025016 130.707368 
L 753.162911 129.274148 
L 753.54221 125.366132 
L 754.300807 144.590531 
L 754.680105 143.023948 
L 756.197299 134.530978 
L 757.335195 113.672471 
L 758.47309 110.976531 
L 758.852388 106.562077 
L 759.231687 104.708513 
L 759.610985 108.53381 
L 759.990284 99.198464 
L 761.128179 99.434802 
L 761.507478 89.729756 
L 761.886776 89.729756 
L 762.266075 87.58921 
L 762.645373 88.011241 
L 763.783269 82.416786 
L 764.162567 83.932725 
L 764.541866 81.57441 
L 765.300463 82.013324 
L 766.438358 82.383024 
L 766.817656 81.152378 
L 767.196955 81.895155 
L 767.576253 82.19733 
L 767.955552 80.428172 
L 769.093447 85.112726 
L 769.472746 82.754412 
L 769.852044 85.467233 
L 770.231343 79.467627 
L 770.610641 77.024906 
L 771.748537 76.687281 
L 772.127835 73.032484 
L 772.507134 67.117284 
L 772.886432 67.875254 
L 774.403626 62.485062 
L 774.782924 59.603428 
L 775.162223 66.494365 
L 775.541521 60.915103 
L 775.92082 60.965747 
L 778.196611 58.298505 
L 778.575909 60.459309 
L 778.575909 60.459309 
" clip-path="url(#pc5881e09cb)" style="fill: none; stroke: #1f77b4; stroke-width: 1.5; stroke-linecap: square"/>
   </g>
   <g id="patch_7">
    <path d="M 52.94 390.04 
L 52.94 26.88 
" style="fill: none; stroke: #000000; stroke-width: 0.8; stroke-linejoin: miter; stroke-linecap: square"/>
   </g>
   <g id="patch_8">
    <path d="M 813.13 390.04 
L 813.13 26.88 
" style="fill: none; stroke: #000000; stroke-width: 0.8; stroke-linejoin: miter; stroke-linecap: square"/>
   </g>
   <g id="patch_9">
    <path d="M 52.94 390.04 
L 813.13 390.04 
" style="fill: none; stroke: #000000; stroke-width: 0.8; stroke-linejoin: miter; stroke-linecap: square"/>
   </g>
   <g id="patch_10">
    <path d="M 52.94 26.88 
L 813.13 26.88 
" style="fill: none; stroke: #000000; stroke-width: 0.8; stroke-linejoin: miter; stroke-linecap: square"/>
   </g>
   <g id="text_27">
    <!-- Stock Trading Performance for VUG -->
    <g transform="translate(327.377813 20.88) scale(0.12 -0.12)">
     <defs>
      <path id="DejaVuSans-53" d="M 3425 4513 
L 3425 3897 
Q 3066 4069 2747 4153 
Q 2428 4238 2131 4238 
Q 1616 4238 1336 4038 
Q 1056 3838 1056 3469 
Q 1056 3159 1242 3001 
Q 1428 2844 1947 2747 
L 2328 2669 
Q 3034 2534 3370 2195 
Q 3706 1856 3706 1288 
Q 3706 609 3251 259 
Q 2797 -91 1919 -91 
Q 1588 -91 1214 -16 
Q 841 59 441 206 
L 441 856 
Q 825 641 1194 531 
Q 1563 422 1919 422 
Q 2459 422 2753 634 
Q 3047 847 3047 1241 
Q 3047 1584 2836 1778 
Q 2625 1972 2144 2069 
L 1759 2144 
Q 1053 2284 737 2584 
Q 422 2884 422 3419 
Q 422 4038 858 4394 
Q 1294 4750 2059 4750 
Q 2388 4750 2728 4690 
Q 3069 4631 3425 4513 
z
" transform="scale(0.015625)"/>
      <path id="DejaVuSans-6b" d="M 581 4863 
L 1159 4863 
L 1159 1991 
L 2875 3500 
L 3609 3500 
L 1753 1863 
L 3688 0 
L 2938 0 
L 1159 1709 
L 1159 0 
L 581 0 
L 581 4863 
z
" transform="scale(0.015625)"/>
      <path id="DejaVuSans-54" d="M -19 4666 
L 3928 4666 
L 3928 4134 
L 2272 4134 
L 2272 0 
L 1638 0 
L 1638 4134 
L -19 4134 
L -19 4666 
z
" transform="scale(0.015625)"/>
      <path id="DejaVuSans-64" d="M 2906 2969 
L 2906 4863 
L 3481 4863 
L 3481 0 
L 2906 0 
L 2906 525 
Q 2725 213 2448 61 
Q 2172 -91 1784 -91 
Q 1150 -91 751 415 
Q 353 922 353 1747 
Q 353 2572 751 3078 
Q 1150 3584 1784 3584 
Q 2172 3584 2448 3432 
Q 2725 3281 2906 2969 
z
M 947 1747 
Q 947 1113 1208 752 
Q 1469 391 1925 391 
Q 2381 391 2643 752 
Q 2906 1113 2906 1747 
Q 2906 2381 2643 2742 
Q 2381 3103 1925 3103 
Q 1469 3103 1208 2742 
Q 947 2381 947 1747 
z
" transform="scale(0.015625)"/>
      <path id="DejaVuSans-67" d="M 2906 1791 
Q 2906 2416 2648 2759 
Q 2391 3103 1925 3103 
Q 1463 3103 1205 2759 
Q 947 2416 947 1791 
Q 947 1169 1205 825 
Q 1463 481 1925 481 
Q 2391 481 2648 825 
Q 2906 1169 2906 1791 
z
M 3481 434 
Q 3481 -459 3084 -895 
Q 2688 -1331 1869 -1331 
Q 1566 -1331 1297 -1286 
Q 1028 -1241 775 -1147 
L 775 -588 
Q 1028 -725 1275 -790 
Q 1522 -856 1778 -856 
Q 2344 -856 2625 -561 
Q 2906 -266 2906 331 
L 2906 616 
Q 2728 306 2450 153 
Q 2172 0 1784 0 
Q 1141 0 747 490 
Q 353 981 353 1791 
Q 353 2603 747 3093 
Q 1141 3584 1784 3584 
Q 2172 3584 2450 3431 
Q 2728 3278 2906 2969 
L 2906 3500 
L 3481 3500 
L 3481 434 
z
" transform="scale(0.015625)"/>
      <path id="DejaVuSans-66" d="M 2375 4863 
L 2375 4384 
L 1825 4384 
Q 1516 4384 1395 4259 
Q 1275 4134 1275 3809 
L 1275 3500 
L 2222 3500 
L 2222 3053 
L 1275 3053 
L 1275 0 
L 697 0 
L 697 3053 
L 147 3053 
L 147 3500 
L 697 3500 
L 697 3744 
Q 697 4328 969 4595 
Q 1241 4863 1831 4863 
L 2375 4863 
z
" transform="scale(0.015625)"/>
      <path id="DejaVuSans-6d" d="M 3328 2828 
Q 3544 3216 3844 3400 
Q 4144 3584 4550 3584 
Q 5097 3584 5394 3201 
Q 5691 2819 5691 2113 
L 5691 0 
L 5113 0 
L 5113 2094 
Q 5113 2597 4934 2840 
Q 4756 3084 4391 3084 
Q 3944 3084 3684 2787 
Q 3425 2491 3425 1978 
L 3425 0 
L 2847 0 
L 2847 2094 
Q 2847 2600 2669 2842 
Q 2491 3084 2119 3084 
Q 1678 3084 1418 2786 
Q 1159 2488 1159 1978 
L 1159 0 
L 581 0 
L 581 3500 
L 1159 3500 
L 1159 2956 
Q 1356 3278 1631 3431 
Q 1906 3584 2284 3584 
Q 2666 3584 2933 3390 
Q 3200 3197 3328 2828 
z
" transform="scale(0.015625)"/>
      <path id="DejaVuSans-56" d="M 1831 0 
L 50 4666 
L 709 4666 
L 2188 738 
L 3669 4666 
L 4325 4666 
L 2547 0 
L 1831 0 
z
" transform="scale(0.015625)"/>
      <path id="DejaVuSans-55" d="M 556 4666 
L 1191 4666 
L 1191 1831 
Q 1191 1081 1462 751 
Q 1734 422 2344 422 
Q 2950 422 3222 751 
Q 3494 1081 3494 1831 
L 3494 4666 
L 4128 4666 
L 4128 1753 
Q 4128 841 3676 375 
Q 3225 -91 2344 -91 
Q 1459 -91 1007 375 
Q 556 841 556 1753 
L 556 4666 
z
" transform="scale(0.015625)"/>
      <path id="DejaVuSans-47" d="M 3809 666 
L 3809 1919 
L 2778 1919 
L 2778 2438 
L 4434 2438 
L 4434 434 
Q 4069 175 3628 42 
Q 3188 -91 2688 -91 
Q 1594 -91 976 548 
Q 359 1188 359 2328 
Q 359 3472 976 4111 
Q 1594 4750 2688 4750 
Q 3144 4750 3555 4637 
Q 3966 4525 4313 4306 
L 4313 3634 
Q 3963 3931 3569 4081 
Q 3175 4231 2741 4231 
Q 1884 4231 1454 3753 
Q 1025 3275 1025 2328 
Q 1025 1384 1454 906 
Q 1884 428 2741 428 
Q 3075 428 3337 486 
Q 3600 544 3809 666 
z
" transform="scale(0.015625)"/>
     </defs>
     <use xlink:href="#DejaVuSans-53"/>
     <use xlink:href="#DejaVuSans-74" x="63.476562"/>
     <use xlink:href="#DejaVuSans-6f" x="102.685547"/>
     <use xlink:href="#DejaVuSans-63" x="163.867188"/>
     <use xlink:href="#DejaVuSans-6b" x="218.847656"/>
     <use xlink:href="#DejaVuSans-20" x="276.757812"/>
     <use xlink:href="#DejaVuSans-54" x="308.544922"/>
     <use xlink:href="#DejaVuSans-72" x="354.878906"/>
     <use xlink:href="#DejaVuSans-61" x="395.992188"/>
     <use xlink:href="#DejaVuSans-64" x="457.271484"/>
     <use xlink:href="#DejaVuSans-69" x="520.748047"/>
     <use xlink:href="#DejaVuSans-6e" x="548.53125"/>
     <use xlink:href="#DejaVuSans-67" x="611.910156"/>
     <use xlink:href="#DejaVuSans-20" x="675.386719"/>
     <use xlink:href="#DejaVuSans-50" x="707.173828"/>
     <use xlink:href="#DejaVuSans-65" x="763.851562"/>
     <use xlink:href="#DejaVuSans-72" x="825.375"/>
     <use xlink:href="#DejaVuSans-66" x="866.488281"/>
     <use xlink:href="#DejaVuSans-6f" x="901.693359"/>
     <use xlink:href="#DejaVuSans-72" x="962.875"/>
     <use xlink:href="#DejaVuSans-6d" x="1002.238281"/>
     <use xlink:href="#DejaVuSans-61" x="1099.650391"/>
     <use xlink:href="#DejaVuSans-6e" x="1160.929688"/>
     <use xlink:href="#DejaVuSans-63" x="1224.308594"/>
     <use xlink:href="#DejaVuSans-65" x="1279.289062"/>
     <use xlink:href="#DejaVuSans-20" x="1340.8125"/>
     <use xlink:href="#DejaVuSans-66" x="1372.599609"/>
     <use xlink:href="#DejaVuSans-6f" x="1407.804688"/>
     <use xlink:href="#DejaVuSans-72" x="1468.986328"/>
     <use xlink:href="#DejaVuSans-20" x="1510.099609"/>
     <use xlink:href="#DejaVuSans-56" x="1541.886719"/>
     <use xlink:href="#DejaVuSans-55" x="1610.294922"/>
     <use xlink:href="#DejaVuSans-47" x="1683.488281"/>
    </g>
   </g>
  </g>
 </g>
 <defs>
  <clipPath id="pc5881e09cb">
   <rect x="52.94" y="26.88" width="760.19" height="363.16"/>
  </clipPath>
 </defs>
</svg>
