<?xml version="1.0" encoding="utf-8" standalone="no"?>
<!DOCTYPE svg PUBLIC "-//W3C//DTD SVG 1.1//EN"
  "http://www.w3.org/Graphics/SVG/1.1/DTD/svg11.dtd">
<svg xmlns:xlink="http://www.w3.org/1999/xlink" width="864pt" height="432pt" viewBox="0 0 864 432" xmlns="http://www.w3.org/2000/svg" version="1.1">
 <metadata>
  <rdf:RDF xmlns:dc="http://purl.org/dc/elements/1.1/" xmlns:cc="http://creativecommons.org/ns#" xmlns:rdf="http://www.w3.org/1999/02/22-rdf-syntax-ns#">
   <cc:Work>
    <dc:type rdf:resource="http://purl.org/dc/dcmitype/StillImage"/>
    <dc:date>2024-04-16T14:18:48.653934</dc:date>
    <dc:format>image/svg+xml</dc:format>
    <dc:creator>
     <cc:Agent>
      <dc:title>Matplotlib v3.8.2, https://matplotlib.org/</dc:title>
     </cc:Agent>
    </dc:creator>
   </cc:Work>
  </rdf:RDF>
 </metadata>
 <defs>
  <style type="text/css">*{stroke-linejoin: round; stroke-linecap: butt}</style>
 </defs>
 <g id="figure_1">
  <g id="patch_1">
   <path d="M 0 432 
L 864 432 
L 864 0 
L 0 0 
z
" style="fill: #ffffff"/>
  </g>
  <g id="axes_1">
   <g id="patch_2">
    <path d="M 52.94 390.04 
L 819.43 390.04 
L 819.43 26.88 
L 52.94 26.88 
z
" style="fill: #ffffff"/>
   </g>
   <g id="matplotlib.axis_1">
    <g id="xtick_1">
     <g id="line2d_1">
      <path d="M 87.398013 390.04 
L 87.398013 26.88 
" clip-path="url(#pcadba9885d)" style="fill: none; stroke-dasharray: 1.85,0.8; stroke-dashoffset: 0; stroke: #b0b0b0; stroke-opacity: 0.5; stroke-width: 0.5"/>
     </g>
     <g id="line2d_2">
      <defs>
       <path id="m88026e4bf4" d="M 0 0 
L 0 3.5 
" style="stroke: #000000; stroke-width: 0.8"/>
      </defs>
      <g>
       <use xlink:href="#m88026e4bf4" x="87.398013" y="390.04" style="stroke: #000000; stroke-width: 0.8"/>
      </g>
     </g>
     <g id="text_1">
      <!-- 2019 -->
      <g transform="translate(74.673013 404.638438) scale(0.1 -0.1)">
       <defs>
        <path id="DejaVuSans-32" d="M 1228 531 
L 3431 531 
L 3431 0 
L 469 0 
L 469 531 
Q 828 903 1448 1529 
Q 2069 2156 2228 2338 
Q 2531 2678 2651 2914 
Q 2772 3150 2772 3378 
Q 2772 3750 2511 3984 
Q 2250 4219 1831 4219 
Q 1534 4219 1204 4116 
Q 875 4013 500 3803 
L 500 4441 
Q 881 4594 1212 4672 
Q 1544 4750 1819 4750 
Q 2544 4750 2975 4387 
Q 3406 4025 3406 3419 
Q 3406 3131 3298 2873 
Q 3191 2616 2906 2266 
Q 2828 2175 2409 1742 
Q 1991 1309 1228 531 
z
" transform="scale(0.015625)"/>
        <path id="DejaVuSans-30" d="M 2034 4250 
Q 1547 4250 1301 3770 
Q 1056 3291 1056 2328 
Q 1056 1369 1301 889 
Q 1547 409 2034 409 
Q 2525 409 2770 889 
Q 3016 1369 3016 2328 
Q 3016 3291 2770 3770 
Q 2525 4250 2034 4250 
z
M 2034 4750 
Q 2819 4750 3233 4129 
Q 3647 3509 3647 2328 
Q 3647 1150 3233 529 
Q 2819 -91 2034 -91 
Q 1250 -91 836 529 
Q 422 1150 422 2328 
Q 422 3509 836 4129 
Q 1250 4750 2034 4750 
z
" transform="scale(0.015625)"/>
        <path id="DejaVuSans-31" d="M 794 531 
L 1825 531 
L 1825 4091 
L 703 3866 
L 703 4441 
L 1819 4666 
L 2450 4666 
L 2450 531 
L 3481 531 
L 3481 0 
L 794 0 
L 794 531 
z
" transform="scale(0.015625)"/>
        <path id="DejaVuSans-39" d="M 703 97 
L 703 672 
Q 941 559 1184 500 
Q 1428 441 1663 441 
Q 2288 441 2617 861 
Q 2947 1281 2994 2138 
Q 2813 1869 2534 1725 
Q 2256 1581 1919 1581 
Q 1219 1581 811 2004 
Q 403 2428 403 3163 
Q 403 3881 828 4315 
Q 1253 4750 1959 4750 
Q 2769 4750 3195 4129 
Q 3622 3509 3622 2328 
Q 3622 1225 3098 567 
Q 2575 -91 1691 -91 
Q 1453 -91 1209 -44 
Q 966 3 703 97 
z
M 1959 2075 
Q 2384 2075 2632 2365 
Q 2881 2656 2881 3163 
Q 2881 3666 2632 3958 
Q 2384 4250 1959 4250 
Q 1534 4250 1286 3958 
Q 1038 3666 1038 3163 
Q 1038 2656 1286 2365 
Q 1534 2075 1959 2075 
z
" transform="scale(0.015625)"/>
       </defs>
       <use xlink:href="#DejaVuSans-32"/>
       <use xlink:href="#DejaVuSans-30" x="63.623047"/>
       <use xlink:href="#DejaVuSans-31" x="127.246094"/>
       <use xlink:href="#DejaVuSans-39" x="190.869141"/>
      </g>
     </g>
    </g>
    <g id="xtick_2">
     <g id="line2d_3">
      <path d="M 226.989296 390.04 
L 226.989296 26.88 
" clip-path="url(#pcadba9885d)" style="fill: none; stroke-dasharray: 1.85,0.8; stroke-dashoffset: 0; stroke: #b0b0b0; stroke-opacity: 0.5; stroke-width: 0.5"/>
     </g>
     <g id="line2d_4">
      <g>
       <use xlink:href="#m88026e4bf4" x="226.989296" y="390.04" style="stroke: #000000; stroke-width: 0.8"/>
      </g>
     </g>
     <g id="text_2">
      <!-- 2020 -->
      <g transform="translate(214.264296 404.638438) scale(0.1 -0.1)">
       <use xlink:href="#DejaVuSans-32"/>
       <use xlink:href="#DejaVuSans-30" x="63.623047"/>
       <use xlink:href="#DejaVuSans-32" x="127.246094"/>
       <use xlink:href="#DejaVuSans-30" x="190.869141"/>
      </g>
     </g>
    </g>
    <g id="xtick_3">
     <g id="line2d_5">
      <path d="M 366.963021 390.04 
L 366.963021 26.88 
" clip-path="url(#pcadba9885d)" style="fill: none; stroke-dasharray: 1.85,0.8; stroke-dashoffset: 0; stroke: #b0b0b0; stroke-opacity: 0.5; stroke-width: 0.5"/>
     </g>
     <g id="line2d_6">
      <g>
       <use xlink:href="#m88026e4bf4" x="366.963021" y="390.04" style="stroke: #000000; stroke-width: 0.8"/>
      </g>
     </g>
     <g id="text_3">
      <!-- 2021 -->
      <g transform="translate(354.238021 404.638438) scale(0.1 -0.1)">
       <use xlink:href="#DejaVuSans-32"/>
       <use xlink:href="#DejaVuSans-30" x="63.623047"/>
       <use xlink:href="#DejaVuSans-32" x="127.246094"/>
       <use xlink:href="#DejaVuSans-31" x="190.869141"/>
      </g>
     </g>
    </g>
    <g id="xtick_4">
     <g id="line2d_7">
      <path d="M 506.554304 390.04 
L 506.554304 26.88 
" clip-path="url(#pcadba9885d)" style="fill: none; stroke-dasharray: 1.85,0.8; stroke-dashoffset: 0; stroke: #b0b0b0; stroke-opacity: 0.5; stroke-width: 0.5"/>
     </g>
     <g id="line2d_8">
      <g>
       <use xlink:href="#m88026e4bf4" x="506.554304" y="390.04" style="stroke: #000000; stroke-width: 0.8"/>
      </g>
     </g>
     <g id="text_4">
      <!-- 2022 -->
      <g transform="translate(493.829304 404.638438) scale(0.1 -0.1)">
       <use xlink:href="#DejaVuSans-32"/>
       <use xlink:href="#DejaVuSans-30" x="63.623047"/>
       <use xlink:href="#DejaVuSans-32" x="127.246094"/>
       <use xlink:href="#DejaVuSans-32" x="190.869141"/>
      </g>
     </g>
    </g>
    <g id="xtick_5">
     <g id="line2d_9">
      <path d="M 646.145588 390.04 
L 646.145588 26.88 
" clip-path="url(#pcadba9885d)" style="fill: none; stroke-dasharray: 1.85,0.8; stroke-dashoffset: 0; stroke: #b0b0b0; stroke-opacity: 0.5; stroke-width: 0.5"/>
     </g>
     <g id="line2d_10">
      <g>
       <use xlink:href="#m88026e4bf4" x="646.145588" y="390.04" style="stroke: #000000; stroke-width: 0.8"/>
      </g>
     </g>
     <g id="text_5">
      <!-- 2023 -->
      <g transform="translate(633.420588 404.638438) scale(0.1 -0.1)">
       <defs>
        <path id="DejaVuSans-33" d="M 2597 2516 
Q 3050 2419 3304 2112 
Q 3559 1806 3559 1356 
Q 3559 666 3084 287 
Q 2609 -91 1734 -91 
Q 1441 -91 1130 -33 
Q 819 25 488 141 
L 488 750 
Q 750 597 1062 519 
Q 1375 441 1716 441 
Q 2309 441 2620 675 
Q 2931 909 2931 1356 
Q 2931 1769 2642 2001 
Q 2353 2234 1838 2234 
L 1294 2234 
L 1294 2753 
L 1863 2753 
Q 2328 2753 2575 2939 
Q 2822 3125 2822 3475 
Q 2822 3834 2567 4026 
Q 2313 4219 1838 4219 
Q 1578 4219 1281 4162 
Q 984 4106 628 3988 
L 628 4550 
Q 988 4650 1302 4700 
Q 1616 4750 1894 4750 
Q 2613 4750 3031 4423 
Q 3450 4097 3450 3541 
Q 3450 3153 3228 2886 
Q 3006 2619 2597 2516 
z
" transform="scale(0.015625)"/>
       </defs>
       <use xlink:href="#DejaVuSans-32"/>
       <use xlink:href="#DejaVuSans-30" x="63.623047"/>
       <use xlink:href="#DejaVuSans-32" x="127.246094"/>
       <use xlink:href="#DejaVuSans-33" x="190.869141"/>
      </g>
     </g>
    </g>
    <g id="xtick_6">
     <g id="line2d_11">
      <path d="M 785.736871 390.04 
L 785.736871 26.88 
" clip-path="url(#pcadba9885d)" style="fill: none; stroke-dasharray: 1.85,0.8; stroke-dashoffset: 0; stroke: #b0b0b0; stroke-opacity: 0.5; stroke-width: 0.5"/>
     </g>
     <g id="line2d_12">
      <g>
       <use xlink:href="#m88026e4bf4" x="785.736871" y="390.04" style="stroke: #000000; stroke-width: 0.8"/>
      </g>
     </g>
     <g id="text_6">
      <!-- 2024 -->
      <g transform="translate(773.011871 404.638438) scale(0.1 -0.1)">
       <defs>
        <path id="DejaVuSans-34" d="M 2419 4116 
L 825 1625 
L 2419 1625 
L 2419 4116 
z
M 2253 4666 
L 3047 4666 
L 3047 1625 
L 3713 1625 
L 3713 1100 
L 3047 1100 
L 3047 0 
L 2419 0 
L 2419 1100 
L 313 1100 
L 313 1709 
L 2253 4666 
z
" transform="scale(0.015625)"/>
       </defs>
       <use xlink:href="#DejaVuSans-32"/>
       <use xlink:href="#DejaVuSans-30" x="63.623047"/>
       <use xlink:href="#DejaVuSans-32" x="127.246094"/>
       <use xlink:href="#DejaVuSans-34" x="190.869141"/>
      </g>
     </g>
    </g>
    <g id="text_7">
     <!-- Date -->
     <g transform="translate(424.234219 418.316562) scale(0.1 -0.1)">
      <defs>
       <path id="DejaVuSans-44" d="M 1259 4147 
L 1259 519 
L 2022 519 
Q 2988 519 3436 956 
Q 3884 1394 3884 2338 
Q 3884 3275 3436 3711 
Q 2988 4147 2022 4147 
L 1259 4147 
z
M 628 4666 
L 1925 4666 
Q 3281 4666 3915 4102 
Q 4550 3538 4550 2338 
Q 4550 1131 3912 565 
Q 3275 0 1925 0 
L 628 0 
L 628 4666 
z
" transform="scale(0.015625)"/>
       <path id="DejaVuSans-61" d="M 2194 1759 
Q 1497 1759 1228 1600 
Q 959 1441 959 1056 
Q 959 750 1161 570 
Q 1363 391 1709 391 
Q 2188 391 2477 730 
Q 2766 1069 2766 1631 
L 2766 1759 
L 2194 1759 
z
M 3341 1997 
L 3341 0 
L 2766 0 
L 2766 531 
Q 2569 213 2275 61 
Q 1981 -91 1556 -91 
Q 1019 -91 701 211 
Q 384 513 384 1019 
Q 384 1609 779 1909 
Q 1175 2209 1959 2209 
L 2766 2209 
L 2766 2266 
Q 2766 2663 2505 2880 
Q 2244 3097 1772 3097 
Q 1472 3097 1187 3025 
Q 903 2953 641 2809 
L 641 3341 
Q 956 3463 1253 3523 
Q 1550 3584 1831 3584 
Q 2591 3584 2966 3190 
Q 3341 2797 3341 1997 
z
" transform="scale(0.015625)"/>
       <path id="DejaVuSans-74" d="M 1172 4494 
L 1172 3500 
L 2356 3500 
L 2356 3053 
L 1172 3053 
L 1172 1153 
Q 1172 725 1289 603 
Q 1406 481 1766 481 
L 2356 481 
L 2356 0 
L 1766 0 
Q 1100 0 847 248 
Q 594 497 594 1153 
L 594 3053 
L 172 3053 
L 172 3500 
L 594 3500 
L 594 4494 
L 1172 4494 
z
" transform="scale(0.015625)"/>
       <path id="DejaVuSans-65" d="M 3597 1894 
L 3597 1613 
L 953 1613 
Q 991 1019 1311 708 
Q 1631 397 2203 397 
Q 2534 397 2845 478 
Q 3156 559 3463 722 
L 3463 178 
Q 3153 47 2828 -22 
Q 2503 -91 2169 -91 
Q 1331 -91 842 396 
Q 353 884 353 1716 
Q 353 2575 817 3079 
Q 1281 3584 2069 3584 
Q 2775 3584 3186 3129 
Q 3597 2675 3597 1894 
z
M 3022 2063 
Q 3016 2534 2758 2815 
Q 2500 3097 2075 3097 
Q 1594 3097 1305 2825 
Q 1016 2553 972 2059 
L 3022 2063 
z
" transform="scale(0.015625)"/>
      </defs>
      <use xlink:href="#DejaVuSans-44"/>
      <use xlink:href="#DejaVuSans-61" x="77.001953"/>
      <use xlink:href="#DejaVuSans-74" x="138.28125"/>
      <use xlink:href="#DejaVuSans-65" x="177.490234"/>
     </g>
    </g>
   </g>
   <g id="matplotlib.axis_2">
    <g id="ytick_1">
     <g id="line2d_13">
      <path d="M 52.94 346.799651 
L 819.43 346.799651 
" clip-path="url(#pcadba9885d)" style="fill: none; stroke-dasharray: 1.85,0.8; stroke-dashoffset: 0; stroke: #b0b0b0; stroke-opacity: 0.5; stroke-width: 0.5"/>
     </g>
     <g id="line2d_14">
      <defs>
       <path id="mbe42147722" d="M 0 0 
L -3.5 0 
" style="stroke: #000000; stroke-width: 0.8"/>
      </defs>
      <g>
       <use xlink:href="#mbe42147722" x="52.94" y="346.799651" style="stroke: #000000; stroke-width: 0.8"/>
      </g>
     </g>
     <g id="text_8">
      <!-- −30 -->
      <g style="fill: #d62728" transform="translate(24.835313 350.59887) scale(0.1 -0.1)">
       <defs>
        <path id="DejaVuSans-2212" d="M 678 2272 
L 4684 2272 
L 4684 1741 
L 678 1741 
L 678 2272 
z
" transform="scale(0.015625)"/>
       </defs>
       <use xlink:href="#DejaVuSans-2212"/>
       <use xlink:href="#DejaVuSans-33" x="83.789062"/>
       <use xlink:href="#DejaVuSans-30" x="147.412109"/>
      </g>
     </g>
    </g>
    <g id="ytick_2">
     <g id="line2d_15">
      <path d="M 52.94 297.265286 
L 819.43 297.265286 
" clip-path="url(#pcadba9885d)" style="fill: none; stroke-dasharray: 1.85,0.8; stroke-dashoffset: 0; stroke: #b0b0b0; stroke-opacity: 0.5; stroke-width: 0.5"/>
     </g>
     <g id="line2d_16">
      <g>
       <use xlink:href="#mbe42147722" x="52.94" y="297.265286" style="stroke: #000000; stroke-width: 0.8"/>
      </g>
     </g>
     <g id="text_9">
      <!-- −20 -->
      <g style="fill: #d62728" transform="translate(24.835313 301.064505) scale(0.1 -0.1)">
       <use xlink:href="#DejaVuSans-2212"/>
       <use xlink:href="#DejaVuSans-32" x="83.789062"/>
       <use xlink:href="#DejaVuSans-30" x="147.412109"/>
      </g>
     </g>
    </g>
    <g id="ytick_3">
     <g id="line2d_17">
      <path d="M 52.94 247.730921 
L 819.43 247.730921 
" clip-path="url(#pcadba9885d)" style="fill: none; stroke-dasharray: 1.85,0.8; stroke-dashoffset: 0; stroke: #b0b0b0; stroke-opacity: 0.5; stroke-width: 0.5"/>
     </g>
     <g id="line2d_18">
      <g>
       <use xlink:href="#mbe42147722" x="52.94" y="247.730921" style="stroke: #000000; stroke-width: 0.8"/>
      </g>
     </g>
     <g id="text_10">
      <!-- −10 -->
      <g style="fill: #d62728" transform="translate(24.835313 251.53014) scale(0.1 -0.1)">
       <use xlink:href="#DejaVuSans-2212"/>
       <use xlink:href="#DejaVuSans-31" x="83.789062"/>
       <use xlink:href="#DejaVuSans-30" x="147.412109"/>
      </g>
     </g>
    </g>
    <g id="ytick_4">
     <g id="line2d_19">
      <path d="M 52.94 198.196556 
L 819.43 198.196556 
" clip-path="url(#pcadba9885d)" style="fill: none; stroke-dasharray: 1.85,0.8; stroke-dashoffset: 0; stroke: #b0b0b0; stroke-opacity: 0.5; stroke-width: 0.5"/>
     </g>
     <g id="line2d_20">
      <g>
       <use xlink:href="#mbe42147722" x="52.94" y="198.196556" style="stroke: #000000; stroke-width: 0.8"/>
      </g>
     </g>
     <g id="text_11">
      <!-- 0 -->
      <g style="fill: #d62728" transform="translate(39.5775 201.995775) scale(0.1 -0.1)">
       <use xlink:href="#DejaVuSans-30"/>
      </g>
     </g>
    </g>
    <g id="ytick_5">
     <g id="line2d_21">
      <path d="M 52.94 148.662191 
L 819.43 148.662191 
" clip-path="url(#pcadba9885d)" style="fill: none; stroke-dasharray: 1.85,0.8; stroke-dashoffset: 0; stroke: #b0b0b0; stroke-opacity: 0.5; stroke-width: 0.5"/>
     </g>
     <g id="line2d_22">
      <g>
       <use xlink:href="#mbe42147722" x="52.94" y="148.662191" style="stroke: #000000; stroke-width: 0.8"/>
      </g>
     </g>
     <g id="text_12">
      <!-- 10 -->
      <g style="fill: #d62728" transform="translate(33.215 152.46141) scale(0.1 -0.1)">
       <use xlink:href="#DejaVuSans-31"/>
       <use xlink:href="#DejaVuSans-30" x="63.623047"/>
      </g>
     </g>
    </g>
    <g id="ytick_6">
     <g id="line2d_23">
      <path d="M 52.94 99.127826 
L 819.43 99.127826 
" clip-path="url(#pcadba9885d)" style="fill: none; stroke-dasharray: 1.85,0.8; stroke-dashoffset: 0; stroke: #b0b0b0; stroke-opacity: 0.5; stroke-width: 0.5"/>
     </g>
     <g id="line2d_24">
      <g>
       <use xlink:href="#mbe42147722" x="52.94" y="99.127826" style="stroke: #000000; stroke-width: 0.8"/>
      </g>
     </g>
     <g id="text_13">
      <!-- 20 -->
      <g style="fill: #d62728" transform="translate(33.215 102.927045) scale(0.1 -0.1)">
       <use xlink:href="#DejaVuSans-32"/>
       <use xlink:href="#DejaVuSans-30" x="63.623047"/>
      </g>
     </g>
    </g>
    <g id="ytick_7">
     <g id="line2d_25">
      <path d="M 52.94 49.593461 
L 819.43 49.593461 
" clip-path="url(#pcadba9885d)" style="fill: none; stroke-dasharray: 1.85,0.8; stroke-dashoffset: 0; stroke: #b0b0b0; stroke-opacity: 0.5; stroke-width: 0.5"/>
     </g>
     <g id="line2d_26">
      <g>
       <use xlink:href="#mbe42147722" x="52.94" y="49.593461" style="stroke: #000000; stroke-width: 0.8"/>
      </g>
     </g>
     <g id="text_14">
      <!-- 30 -->
      <g style="fill: #d62728" transform="translate(33.215 53.39268) scale(0.1 -0.1)">
       <use xlink:href="#DejaVuSans-33"/>
       <use xlink:href="#DejaVuSans-30" x="63.623047"/>
      </g>
     </g>
    </g>
    <g id="text_15">
     <!-- Returns (%) -->
     <g style="fill: #d62728" transform="translate(18.755625 237.8975) rotate(-90) scale(0.1 -0.1)">
      <defs>
       <path id="DejaVuSans-52" d="M 2841 2188 
Q 3044 2119 3236 1894 
Q 3428 1669 3622 1275 
L 4263 0 
L 3584 0 
L 2988 1197 
Q 2756 1666 2539 1819 
Q 2322 1972 1947 1972 
L 1259 1972 
L 1259 0 
L 628 0 
L 628 4666 
L 2053 4666 
Q 2853 4666 3247 4331 
Q 3641 3997 3641 3322 
Q 3641 2881 3436 2590 
Q 3231 2300 2841 2188 
z
M 1259 4147 
L 1259 2491 
L 2053 2491 
Q 2509 2491 2742 2702 
Q 2975 2913 2975 3322 
Q 2975 3731 2742 3939 
Q 2509 4147 2053 4147 
L 1259 4147 
z
" transform="scale(0.015625)"/>
       <path id="DejaVuSans-75" d="M 544 1381 
L 544 3500 
L 1119 3500 
L 1119 1403 
Q 1119 906 1312 657 
Q 1506 409 1894 409 
Q 2359 409 2629 706 
Q 2900 1003 2900 1516 
L 2900 3500 
L 3475 3500 
L 3475 0 
L 2900 0 
L 2900 538 
Q 2691 219 2414 64 
Q 2138 -91 1772 -91 
Q 1169 -91 856 284 
Q 544 659 544 1381 
z
M 1991 3584 
L 1991 3584 
z
" transform="scale(0.015625)"/>
       <path id="DejaVuSans-72" d="M 2631 2963 
Q 2534 3019 2420 3045 
Q 2306 3072 2169 3072 
Q 1681 3072 1420 2755 
Q 1159 2438 1159 1844 
L 1159 0 
L 581 0 
L 581 3500 
L 1159 3500 
L 1159 2956 
Q 1341 3275 1631 3429 
Q 1922 3584 2338 3584 
Q 2397 3584 2469 3576 
Q 2541 3569 2628 3553 
L 2631 2963 
z
" transform="scale(0.015625)"/>
       <path id="DejaVuSans-6e" d="M 3513 2113 
L 3513 0 
L 2938 0 
L 2938 2094 
Q 2938 2591 2744 2837 
Q 2550 3084 2163 3084 
Q 1697 3084 1428 2787 
Q 1159 2491 1159 1978 
L 1159 0 
L 581 0 
L 581 3500 
L 1159 3500 
L 1159 2956 
Q 1366 3272 1645 3428 
Q 1925 3584 2291 3584 
Q 2894 3584 3203 3211 
Q 3513 2838 3513 2113 
z
" transform="scale(0.015625)"/>
       <path id="DejaVuSans-73" d="M 2834 3397 
L 2834 2853 
Q 2591 2978 2328 3040 
Q 2066 3103 1784 3103 
Q 1356 3103 1142 2972 
Q 928 2841 928 2578 
Q 928 2378 1081 2264 
Q 1234 2150 1697 2047 
L 1894 2003 
Q 2506 1872 2764 1633 
Q 3022 1394 3022 966 
Q 3022 478 2636 193 
Q 2250 -91 1575 -91 
Q 1294 -91 989 -36 
Q 684 19 347 128 
L 347 722 
Q 666 556 975 473 
Q 1284 391 1588 391 
Q 1994 391 2212 530 
Q 2431 669 2431 922 
Q 2431 1156 2273 1281 
Q 2116 1406 1581 1522 
L 1381 1569 
Q 847 1681 609 1914 
Q 372 2147 372 2553 
Q 372 3047 722 3315 
Q 1072 3584 1716 3584 
Q 2034 3584 2315 3537 
Q 2597 3491 2834 3397 
z
" transform="scale(0.015625)"/>
       <path id="DejaVuSans-20" transform="scale(0.015625)"/>
       <path id="DejaVuSans-28" d="M 1984 4856 
Q 1566 4138 1362 3434 
Q 1159 2731 1159 2009 
Q 1159 1288 1364 580 
Q 1569 -128 1984 -844 
L 1484 -844 
Q 1016 -109 783 600 
Q 550 1309 550 2009 
Q 550 2706 781 3412 
Q 1013 4119 1484 4856 
L 1984 4856 
z
" transform="scale(0.015625)"/>
       <path id="DejaVuSans-25" d="M 4653 2053 
Q 4381 2053 4226 1822 
Q 4072 1591 4072 1178 
Q 4072 772 4226 539 
Q 4381 306 4653 306 
Q 4919 306 5073 539 
Q 5228 772 5228 1178 
Q 5228 1588 5073 1820 
Q 4919 2053 4653 2053 
z
M 4653 2450 
Q 5147 2450 5437 2106 
Q 5728 1763 5728 1178 
Q 5728 594 5436 251 
Q 5144 -91 4653 -91 
Q 4153 -91 3862 251 
Q 3572 594 3572 1178 
Q 3572 1766 3864 2108 
Q 4156 2450 4653 2450 
z
M 1428 4353 
Q 1159 4353 1004 4120 
Q 850 3888 850 3481 
Q 850 3069 1003 2837 
Q 1156 2606 1428 2606 
Q 1700 2606 1854 2837 
Q 2009 3069 2009 3481 
Q 2009 3884 1853 4118 
Q 1697 4353 1428 4353 
z
M 4250 4750 
L 4750 4750 
L 1831 -91 
L 1331 -91 
L 4250 4750 
z
M 1428 4750 
Q 1922 4750 2215 4408 
Q 2509 4066 2509 3481 
Q 2509 2891 2217 2550 
Q 1925 2209 1428 2209 
Q 931 2209 642 2551 
Q 353 2894 353 3481 
Q 353 4063 643 4406 
Q 934 4750 1428 4750 
z
" transform="scale(0.015625)"/>
       <path id="DejaVuSans-29" d="M 513 4856 
L 1013 4856 
Q 1481 4119 1714 3412 
Q 1947 2706 1947 2009 
Q 1947 1309 1714 600 
Q 1481 -109 1013 -844 
L 513 -844 
Q 928 -128 1133 580 
Q 1338 1288 1338 2009 
Q 1338 2731 1133 3434 
Q 928 4138 513 4856 
z
" transform="scale(0.015625)"/>
      </defs>
      <use xlink:href="#DejaVuSans-52"/>
      <use xlink:href="#DejaVuSans-65" x="64.982422"/>
      <use xlink:href="#DejaVuSans-74" x="126.505859"/>
      <use xlink:href="#DejaVuSans-75" x="165.714844"/>
      <use xlink:href="#DejaVuSans-72" x="229.09375"/>
      <use xlink:href="#DejaVuSans-6e" x="268.457031"/>
      <use xlink:href="#DejaVuSans-73" x="331.835938"/>
      <use xlink:href="#DejaVuSans-20" x="383.935547"/>
      <use xlink:href="#DejaVuSans-28" x="415.722656"/>
      <use xlink:href="#DejaVuSans-25" x="454.736328"/>
      <use xlink:href="#DejaVuSans-29" x="549.755859"/>
     </g>
    </g>
   </g>
   <g id="line2d_27">
    <path d="M 87.780455 198.196556 
L 115.316269 198.196556 
L 116.463595 191.316185 
L 116.846037 192.677063 
L 117.610921 184.737799 
L 117.993362 198.49854 
L 119.140688 198.271565 
L 119.52313 191.164219 
L 119.905572 194.717892 
L 120.288014 192.828055 
L 120.670456 193.58399 
L 121.817781 187.005603 
L 122.200223 190.484267 
L 122.582665 195.322835 
L 122.965107 191.164219 
L 123.347549 182.318028 
L 124.494874 180.050223 
L 124.877316 186.325652 
L 125.259758 184.43484 
L 125.6422 184.056873 
L 126.024642 182.695995 
L 127.171967 185.720709 
L 127.554409 182.394011 
L 127.936851 183.073963 
L 128.319293 185.493734 
L 129.84906 174.756731 
L 130.231502 175.588649 
L 130.613944 184.661816 
L 130.996386 186.249668 
L 131.378828 192.828055 
L 132.526154 193.282005 
L 132.908595 193.659973 
L 133.673479 212.184273 
L 134.055921 207.722699 
L 135.203247 207.269722 
L 135.585689 211.503347 
L 136.350572 211.503347 
L 136.733014 209.235542 
L 137.88034 217.552774 
L 138.262782 211.730322 
L 139.027665 206.588796 
L 139.410107 211.503347 
L 140.939875 211.277346 
L 141.322317 211.277346 
L 141.704759 227.448206 
L 144.381852 227.448206 
L 144.764293 235.629289 
L 145.911619 235.629289 
L 146.294061 227.705775 
L 146.676503 227.705775 
L 147.058945 219.071147 
L 165.798596 219.071147 
L 166.181038 221.489509 
L 167.328364 223.379035 
L 167.710806 218.087783 
L 168.093248 219.599983 
L 168.47569 230.33303 
L 168.858131 236.984971 
L 170.005457 250.590908 
L 170.387899 251.119744 
L 170.770341 254.445232 
L 171.152783 241.822659 
L 171.535225 246.810892 
L 172.68255 252.102143 
L 173.064992 248.020072 
L 173.447434 265.481298 
L 173.829876 268.126441 
L 174.212318 262.533136 
L 175.359643 253.00927 
L 175.742085 256.713049 
L 176.889411 256.713049 
L 178.036736 254.840472 
L 190.274876 254.840472 
L 191.422202 258.004093 
L 192.187086 278.529939 
L 192.569527 274.041859 
L 192.951969 271.393873 
L 194.099295 275.145729 
L 194.481737 282.281795 
L 197.541272 282.281795 
L 197.923714 281.994815 
L 210.161854 281.994815 
L 210.544295 288.096114 
L 210.926737 284.005481 
L 211.309179 277.279577 
L 211.691621 278.666515 
L 212.838947 278.24982 
L 213.221389 282.064119 
L 213.60383 281.023696 
L 214.368714 285.18451 
L 215.51604 285.18451 
L 215.898482 291.285808 
L 232.343482 291.285808 
L 232.725924 290.60864 
L 233.108366 293.181386 
L 234.638133 300.359208 
L 235.020575 304.152011 
L 235.403017 305.641452 
L 235.785459 310.1106 
L 236.932785 320.74264 
L 237.315227 319.049719 
L 237.697668 322.976802 
L 238.08011 319.997096 
L 238.462552 331.644889 
L 239.609878 336.385069 
L 239.99232 335.098284 
L 240.374762 321.622465 
L 240.757203 325.414444 
L 241.139645 327.988014 
L 242.286971 329.81604 
L 249.170925 329.81604 
L 250.31825 315.113807 
L 250.700692 315.113807 
L 251.083134 306.162808 
L 251.465576 306.162808 
L 251.848018 327.927129 
L 253.760227 327.927129 
L 254.142669 373.532727 
L 255.672436 373.532727 
L 256.054878 371.346175 
L 258.349529 371.346175 
L 258.731971 319.675246 
L 261.791506 319.675246 
L 262.173948 285.429405 
L 293.916624 285.429405 
L 294.299065 277.62182 
L 294.681507 292.027674 
L 295.828833 286.640014 
L 296.211275 277.292359 
L 296.593717 287.408757 
L 296.976159 282.900952 
L 298.505926 281.690343 
L 298.888368 294.77706 
L 299.27081 295.107814 
L 299.653252 314.792799 
L 300.035694 302.695758 
L 301.183019 304.78493 
L 301.565461 291.147819 
L 301.947903 282.460378 
L 302.330345 284.329909 
L 302.712787 290.048323 
L 303.860112 296.756412 
L 304.242554 272.783262 
L 316.098252 272.783262 
L 317.245578 261.221811 
L 317.62802 267.294077 
L 318.010462 276.287231 
L 318.392903 275.469546 
L 318.775345 267.995145 
L 320.305113 280.023059 
L 322.982206 280.023059 
L 323.364648 277.193514 
L 323.74709 277.193514 
L 324.129531 276.810787 
L 325.659299 276.810787 
L 326.041741 260.07932 
L 326.806625 260.07932 
L 327.95395 274.447555 
L 331.013485 274.447555 
L 331.395927 275.702074 
L 332.160811 275.702074 
L 333.308136 263.158049 
L 337.514997 263.158049 
L 338.662323 272.281426 
L 339.427206 272.281426 
L 339.809648 254.904073 
L 341.339416 254.904073 
L 341.721858 260.591682 
L 342.104299 278.706553 
L 342.486741 265.981674 
L 342.869183 263.586891 
L 344.016509 248.915385 
L 345.546276 248.915385 
L 346.693602 185.441011 
L 404.059883 185.441011 
L 404.442325 188.79223 
L 405.58965 192.772321 
L 405.972092 192.248656 
L 406.354534 178.31893 
L 407.119418 186.593547 
L 408.266743 187.117212 
L 408.649185 200.523273 
L 409.031627 194.239292 
L 409.414069 200.104813 
L 409.796511 195.601058 
L 410.943836 192.248656 
L 411.326278 186.173905 
L 411.70872 168.682548 
L 412.091162 162.817027 
L 412.473604 176.22427 
L 413.62093 161.980108 
L 421.652209 161.980108 
L 422.034651 172.775885 
L 422.417093 168.135296 
L 422.799534 167.731023 
L 423.181976 166.722051 
L 424.711744 146.44125 
L 425.094186 136.249034 
L 425.476628 134.735576 
L 425.859069 131.002605 
L 427.006395 133.424822 
L 427.388837 128.581527 
L 435.037674 128.581527 
L 435.420116 131.328327 
L 435.802558 124.355681 
L 436.185 114.423763 
L 436.567442 115.691516 
L 438.097209 134.498892 
L 438.479651 143.585641 
L 438.862093 146.755026 
L 439.244535 135.132769 
L 440.391861 135.977938 
L 440.774302 140.203784 
L 441.156744 156.686944 
L 441.539186 164.188411 
L 441.921628 179.192525 
L 443.068954 197.364844 
L 443.451396 190.708546 
L 443.833837 173.168924 
L 444.216279 178.981233 
L 444.598721 180.882864 
L 445.746047 168.202965 
L 446.128489 173.063868 
L 446.510931 168.309201 
L 447.275814 168.309201 
L 448.42314 172.243964 
L 449.188024 172.243964 
L 449.570466 166.333829 
L 452.63 166.333829 
L 453.777326 176.041014 
L 454.159768 181.375497 
L 454.924652 205.057692 
L 455.307094 203.991034 
L 456.454419 185.64213 
L 456.836861 177.214934 
L 457.601745 177.214934 
L 457.984187 163.454327 
L 459.513954 163.454327 
L 459.896396 171.229977 
L 486.667327 171.229977 
L 487.049769 169.230758 
L 487.432211 170.503717 
L 488.579536 166.141147 
L 488.961978 165.3226 
L 489.34442 173.411764 
L 489.726862 176.501374 
L 490.109304 196.677136 
L 491.25663 187.861713 
L 491.639071 172.320369 
L 492.021513 167.231539 
L 492.786397 188.406408 
L 493.933723 185.498362 
L 494.316165 197.404398 
L 494.698606 202.674793 
L 495.081048 188.406408 
L 495.46349 192.405849 
L 496.610816 184.953667 
L 496.993258 173.047631 
L 497.3757 173.138915 
L 497.758141 177.137353 
L 498.140583 173.32048 
L 499.287909 187.770429 
L 500.052793 192.314565 
L 500.435235 189.13367 
L 500.817676 199.403617 
L 501.965002 205.524658 
L 502.347444 191.624418 
L 502.729886 188.402395 
L 503.112328 188.126537 
L 504.642095 177.079172 
L 505.406979 177.079172 
L 505.789421 180.231471 
L 549.005352 180.231471 
L 550.152678 197.206268 
L 550.53512 196.533005 
L 550.917562 189.257261 
L 551.300003 173.966349 
L 551.682445 187.304364 
L 552.829771 179.220851 
L 553.212213 164.805325 
L 553.594655 142.845041 
L 553.977097 151.130678 
L 554.359538 134.964379 
L 555.506864 134.964379 
L 555.889306 129.896975 
L 556.271748 122.332726 
L 556.65419 119.909598 
L 557.036632 100.30105 
L 558.183957 84.658916 
L 558.566399 77.609097 
L 558.948841 93.39787 
L 559.331283 95.601434 
L 559.713725 93.030874 
L 560.86105 77.168384 
L 561.243492 74.81818 
L 561.625934 62.039887 
L 562.008376 55.063784 
L 562.390818 43.387273 
L 569.274771 43.387273 
L 569.657213 57.742696 
L 570.422097 126.353507 
L 571.951865 96.970414 
L 572.716748 142.079248 
L 573.09919 134.82115 
L 574.246516 118.432326 
L 574.628958 102.901512 
L 575.0114 123.42711 
L 575.393841 135.445914 
L 575.776283 127.094895 
L 577.306051 149.572258 
L 577.688493 158.858758 
L 578.070935 139.581856 
L 578.453376 139.815934 
L 579.600702 139.815934 
L 579.983144 150.611575 
L 583.807563 150.611575 
L 584.954888 130.695975 
L 604.076982 130.695975 
L 604.459424 114.798399 
L 605.224307 141.740109 
L 606.371633 141.413492 
L 606.754075 145.253298 
L 607.136517 153.288808 
L 607.518959 155.208711 
L 607.901401 192.328833 
L 609.048726 204.631377 
L 609.431168 199.155487 
L 609.81361 177.253429 
L 610.196052 177.253429 
L 610.578494 181.377804 
L 611.725819 152.435852 
L 639.644076 152.435852 
L 640.026518 159.087513 
L 641.173843 159.151729 
L 641.938727 140.782066 
L 642.321169 153.519489 
L 642.703611 136.301692 
L 644.233378 130.349713 
L 644.61582 142.958705 
L 644.998262 137.198035 
L 645.380704 133.67755 
L 646.910472 153.326842 
L 647.292913 153.391058 
L 648.057797 133.101617 
L 649.205123 135.08561 
L 649.587565 131.117624 
L 649.970006 129.389155 
L 650.352448 118.636394 
L 650.73489 117.804267 
L 652.264658 116.588185 
L 652.6471 127.149638 
L 653.411983 114.412214 
L 654.559309 113.644303 
L 654.941751 115.88449 
L 655.324193 115.820274 
L 655.706635 97.579042 
L 656.089076 109.612101 
L 657.236402 122.989005 
L 657.618844 117.932698 
L 658.383728 142.126579 
L 658.76617 143.342661 
L 659.913495 145.838372 
L 660.295937 128.045311 
L 660.678379 133.101617 
L 661.060821 133.101617 
L 661.443263 111.15203 
L 662.97303 111.15203 
L 663.355472 121.051505 
L 663.737914 126.680816 
L 664.120356 146.867224 
L 665.650123 149.584847 
L 666.032565 153.207892 
L 666.415007 145.055702 
L 666.797449 145.767734 
L 667.944774 144.150278 
L 668.327216 152.043487 
L 668.709658 141.367742 
L 669.0921 136.515376 
L 669.474542 128.945389 
L 670.621868 128.686407 
L 671.004309 138.520967 
L 671.386751 144.214517 
L 672.151635 158.902118 
L 673.298961 169.771931 
L 673.681403 164.595669 
L 674.063844 164.595669 
L 674.446286 158.852965 
L 674.828728 158.852965 
L 675.976054 148.14918 
L 676.358496 129.268005 
L 677.123379 129.268005 
L 677.505821 127.085933 
L 689.743961 127.085933 
L 690.126403 134.647213 
L 690.508845 132.639591 
L 690.891287 123.941282 
L 692.038612 130.364841 
L 692.421054 154.853531 
L 695.480589 154.853531 
L 695.863031 161.302776 
L 697.77524 161.302776 
L 698.157682 151.070723 
L 701.217217 151.070723 
L 701.599659 153.197037 
L 711.160706 153.197037 
L 711.543148 148.922083 
L 711.92559 156.230578 
L 712.308032 160.091964 
L 713.455357 150.507782 
L 713.837799 149.26637 
L 714.985125 133.821536 
L 747.110242 133.821536 
L 748.257568 126.803135 
L 748.640009 130.061679 
L 749.022451 116.02424 
L 749.404893 115.397278 
L 749.787335 127.053793 
L 750.934661 138.333365 
L 751.317103 138.70967 
L 751.699544 156.131299 
L 752.081986 159.452347 
L 752.464428 156.256309 
L 753.611754 138.333365 
L 753.994196 137.644536 
L 754.376638 144.788584 
L 754.759079 144.161622 
L 755.141521 132.066936 
L 756.288847 128.307078 
L 757.053731 117.215021 
L 762.407917 117.215021 
L 762.790359 99.788983 
L 763.172801 105.755698 
L 764.320126 112.400794 
L 764.702568 125.283819 
L 768.144545 125.283819 
L 768.526987 113.364553 
L 770.056754 113.364553 
L 770.439196 113.639483 
L 776.558266 113.639483 
L 777.705592 112.934698 
L 778.088034 112.934698 
L 778.470476 104.854941 
L 784.589545 104.854941 
L 784.589545 104.854941 
" clip-path="url(#pcadba9885d)" style="fill: none; stroke: #d62728; stroke-width: 1.5; stroke-linecap: square"/>
   </g>
   <g id="patch_3">
    <path d="M 52.94 390.04 
L 52.94 26.88 
" style="fill: none; stroke: #000000; stroke-width: 0.8; stroke-linejoin: miter; stroke-linecap: square"/>
   </g>
   <g id="patch_4">
    <path d="M 819.43 390.04 
L 819.43 26.88 
" style="fill: none; stroke: #000000; stroke-width: 0.8; stroke-linejoin: miter; stroke-linecap: square"/>
   </g>
   <g id="patch_5">
    <path d="M 52.94 390.04 
L 819.43 390.04 
" style="fill: none; stroke: #000000; stroke-width: 0.8; stroke-linejoin: miter; stroke-linecap: square"/>
   </g>
   <g id="patch_6">
    <path d="M 52.94 26.88 
L 819.43 26.88 
" style="fill: none; stroke: #000000; stroke-width: 0.8; stroke-linejoin: miter; stroke-linecap: square"/>
   </g>
  </g>
  <g id="axes_2">
   <g id="matplotlib.axis_3">
    <g id="ytick_8">
     <g id="line2d_28">
      <defs>
       <path id="m891783a0cd" d="M 0 0 
L 3.5 0 
" style="stroke: #000000; stroke-width: 0.8"/>
      </defs>
      <g>
       <use xlink:href="#m891783a0cd" x="819.43" y="372.198206" style="stroke: #000000; stroke-width: 0.8"/>
      </g>
     </g>
     <g id="text_16">
      <!-- 20 -->
      <g style="fill: #1f77b4" transform="translate(826.43 375.997425) scale(0.1 -0.1)">
       <use xlink:href="#DejaVuSans-32"/>
       <use xlink:href="#DejaVuSans-30" x="63.623047"/>
      </g>
     </g>
    </g>
    <g id="ytick_9">
     <g id="line2d_29">
      <g>
       <use xlink:href="#m891783a0cd" x="819.43" y="325.924934" style="stroke: #000000; stroke-width: 0.8"/>
      </g>
     </g>
     <g id="text_17">
      <!-- 30 -->
      <g style="fill: #1f77b4" transform="translate(826.43 329.724152) scale(0.1 -0.1)">
       <use xlink:href="#DejaVuSans-33"/>
       <use xlink:href="#DejaVuSans-30" x="63.623047"/>
      </g>
     </g>
    </g>
    <g id="ytick_10">
     <g id="line2d_30">
      <g>
       <use xlink:href="#m891783a0cd" x="819.43" y="279.651661" style="stroke: #000000; stroke-width: 0.8"/>
      </g>
     </g>
     <g id="text_18">
      <!-- 40 -->
      <g style="fill: #1f77b4" transform="translate(826.43 283.45088) scale(0.1 -0.1)">
       <use xlink:href="#DejaVuSans-34"/>
       <use xlink:href="#DejaVuSans-30" x="63.623047"/>
      </g>
     </g>
    </g>
    <g id="ytick_11">
     <g id="line2d_31">
      <g>
       <use xlink:href="#m891783a0cd" x="819.43" y="233.378389" style="stroke: #000000; stroke-width: 0.8"/>
      </g>
     </g>
     <g id="text_19">
      <!-- 50 -->
      <g style="fill: #1f77b4" transform="translate(826.43 237.177607) scale(0.1 -0.1)">
       <defs>
        <path id="DejaVuSans-35" d="M 691 4666 
L 3169 4666 
L 3169 4134 
L 1269 4134 
L 1269 2991 
Q 1406 3038 1543 3061 
Q 1681 3084 1819 3084 
Q 2600 3084 3056 2656 
Q 3513 2228 3513 1497 
Q 3513 744 3044 326 
Q 2575 -91 1722 -91 
Q 1428 -91 1123 -41 
Q 819 9 494 109 
L 494 744 
Q 775 591 1075 516 
Q 1375 441 1709 441 
Q 2250 441 2565 725 
Q 2881 1009 2881 1497 
Q 2881 1984 2565 2268 
Q 2250 2553 1709 2553 
Q 1456 2553 1204 2497 
Q 953 2441 691 2322 
L 691 4666 
z
" transform="scale(0.015625)"/>
       </defs>
       <use xlink:href="#DejaVuSans-35"/>
       <use xlink:href="#DejaVuSans-30" x="63.623047"/>
      </g>
     </g>
    </g>
    <g id="ytick_12">
     <g id="line2d_32">
      <g>
       <use xlink:href="#m891783a0cd" x="819.43" y="187.105116" style="stroke: #000000; stroke-width: 0.8"/>
      </g>
     </g>
     <g id="text_20">
      <!-- 60 -->
      <g style="fill: #1f77b4" transform="translate(826.43 190.904335) scale(0.1 -0.1)">
       <defs>
        <path id="DejaVuSans-36" d="M 2113 2584 
Q 1688 2584 1439 2293 
Q 1191 2003 1191 1497 
Q 1191 994 1439 701 
Q 1688 409 2113 409 
Q 2538 409 2786 701 
Q 3034 994 3034 1497 
Q 3034 2003 2786 2293 
Q 2538 2584 2113 2584 
z
M 3366 4563 
L 3366 3988 
Q 3128 4100 2886 4159 
Q 2644 4219 2406 4219 
Q 1781 4219 1451 3797 
Q 1122 3375 1075 2522 
Q 1259 2794 1537 2939 
Q 1816 3084 2150 3084 
Q 2853 3084 3261 2657 
Q 3669 2231 3669 1497 
Q 3669 778 3244 343 
Q 2819 -91 2113 -91 
Q 1303 -91 875 529 
Q 447 1150 447 2328 
Q 447 3434 972 4092 
Q 1497 4750 2381 4750 
Q 2619 4750 2861 4703 
Q 3103 4656 3366 4563 
z
" transform="scale(0.015625)"/>
       </defs>
       <use xlink:href="#DejaVuSans-36"/>
       <use xlink:href="#DejaVuSans-30" x="63.623047"/>
      </g>
     </g>
    </g>
    <g id="ytick_13">
     <g id="line2d_33">
      <g>
       <use xlink:href="#m891783a0cd" x="819.43" y="140.831844" style="stroke: #000000; stroke-width: 0.8"/>
      </g>
     </g>
     <g id="text_21">
      <!-- 70 -->
      <g style="fill: #1f77b4" transform="translate(826.43 144.631062) scale(0.1 -0.1)">
       <defs>
        <path id="DejaVuSans-37" d="M 525 4666 
L 3525 4666 
L 3525 4397 
L 1831 0 
L 1172 0 
L 2766 4134 
L 525 4134 
L 525 4666 
z
" transform="scale(0.015625)"/>
       </defs>
       <use xlink:href="#DejaVuSans-37"/>
       <use xlink:href="#DejaVuSans-30" x="63.623047"/>
      </g>
     </g>
    </g>
    <g id="ytick_14">
     <g id="line2d_34">
      <g>
       <use xlink:href="#m891783a0cd" x="819.43" y="94.558571" style="stroke: #000000; stroke-width: 0.8"/>
      </g>
     </g>
     <g id="text_22">
      <!-- 80 -->
      <g style="fill: #1f77b4" transform="translate(826.43 98.35779) scale(0.1 -0.1)">
       <defs>
        <path id="DejaVuSans-38" d="M 2034 2216 
Q 1584 2216 1326 1975 
Q 1069 1734 1069 1313 
Q 1069 891 1326 650 
Q 1584 409 2034 409 
Q 2484 409 2743 651 
Q 3003 894 3003 1313 
Q 3003 1734 2745 1975 
Q 2488 2216 2034 2216 
z
M 1403 2484 
Q 997 2584 770 2862 
Q 544 3141 544 3541 
Q 544 4100 942 4425 
Q 1341 4750 2034 4750 
Q 2731 4750 3128 4425 
Q 3525 4100 3525 3541 
Q 3525 3141 3298 2862 
Q 3072 2584 2669 2484 
Q 3125 2378 3379 2068 
Q 3634 1759 3634 1313 
Q 3634 634 3220 271 
Q 2806 -91 2034 -91 
Q 1263 -91 848 271 
Q 434 634 434 1313 
Q 434 1759 690 2068 
Q 947 2378 1403 2484 
z
M 1172 3481 
Q 1172 3119 1398 2916 
Q 1625 2713 2034 2713 
Q 2441 2713 2670 2916 
Q 2900 3119 2900 3481 
Q 2900 3844 2670 4047 
Q 2441 4250 2034 4250 
Q 1625 4250 1398 4047 
Q 1172 3844 1172 3481 
z
" transform="scale(0.015625)"/>
       </defs>
       <use xlink:href="#DejaVuSans-38"/>
       <use xlink:href="#DejaVuSans-30" x="63.623047"/>
      </g>
     </g>
    </g>
    <g id="ytick_15">
     <g id="line2d_35">
      <g>
       <use xlink:href="#m891783a0cd" x="819.43" y="48.285299" style="stroke: #000000; stroke-width: 0.8"/>
      </g>
     </g>
     <g id="text_23">
      <!-- 90 -->
      <g style="fill: #1f77b4" transform="translate(826.43 52.084517) scale(0.1 -0.1)">
       <use xlink:href="#DejaVuSans-39"/>
       <use xlink:href="#DejaVuSans-30" x="63.623047"/>
      </g>
     </g>
    </g>
    <g id="text_24">
     <!-- Close Price -->
     <g style="fill: #1f77b4" transform="translate(850.753438 235.867812) rotate(-90) scale(0.1 -0.1)">
      <defs>
       <path id="DejaVuSans-43" d="M 4122 4306 
L 4122 3641 
Q 3803 3938 3442 4084 
Q 3081 4231 2675 4231 
Q 1875 4231 1450 3742 
Q 1025 3253 1025 2328 
Q 1025 1406 1450 917 
Q 1875 428 2675 428 
Q 3081 428 3442 575 
Q 3803 722 4122 1019 
L 4122 359 
Q 3791 134 3420 21 
Q 3050 -91 2638 -91 
Q 1578 -91 968 557 
Q 359 1206 359 2328 
Q 359 3453 968 4101 
Q 1578 4750 2638 4750 
Q 3056 4750 3426 4639 
Q 3797 4528 4122 4306 
z
" transform="scale(0.015625)"/>
       <path id="DejaVuSans-6c" d="M 603 4863 
L 1178 4863 
L 1178 0 
L 603 0 
L 603 4863 
z
" transform="scale(0.015625)"/>
       <path id="DejaVuSans-6f" d="M 1959 3097 
Q 1497 3097 1228 2736 
Q 959 2375 959 1747 
Q 959 1119 1226 758 
Q 1494 397 1959 397 
Q 2419 397 2687 759 
Q 2956 1122 2956 1747 
Q 2956 2369 2687 2733 
Q 2419 3097 1959 3097 
z
M 1959 3584 
Q 2709 3584 3137 3096 
Q 3566 2609 3566 1747 
Q 3566 888 3137 398 
Q 2709 -91 1959 -91 
Q 1206 -91 779 398 
Q 353 888 353 1747 
Q 353 2609 779 3096 
Q 1206 3584 1959 3584 
z
" transform="scale(0.015625)"/>
       <path id="DejaVuSans-50" d="M 1259 4147 
L 1259 2394 
L 2053 2394 
Q 2494 2394 2734 2622 
Q 2975 2850 2975 3272 
Q 2975 3691 2734 3919 
Q 2494 4147 2053 4147 
L 1259 4147 
z
M 628 4666 
L 2053 4666 
Q 2838 4666 3239 4311 
Q 3641 3956 3641 3272 
Q 3641 2581 3239 2228 
Q 2838 1875 2053 1875 
L 1259 1875 
L 1259 0 
L 628 0 
L 628 4666 
z
" transform="scale(0.015625)"/>
       <path id="DejaVuSans-69" d="M 603 3500 
L 1178 3500 
L 1178 0 
L 603 0 
L 603 3500 
z
M 603 4863 
L 1178 4863 
L 1178 4134 
L 603 4134 
L 603 4863 
z
" transform="scale(0.015625)"/>
       <path id="DejaVuSans-63" d="M 3122 3366 
L 3122 2828 
Q 2878 2963 2633 3030 
Q 2388 3097 2138 3097 
Q 1578 3097 1268 2742 
Q 959 2388 959 1747 
Q 959 1106 1268 751 
Q 1578 397 2138 397 
Q 2388 397 2633 464 
Q 2878 531 3122 666 
L 3122 134 
Q 2881 22 2623 -34 
Q 2366 -91 2075 -91 
Q 1284 -91 818 406 
Q 353 903 353 1747 
Q 353 2603 823 3093 
Q 1294 3584 2113 3584 
Q 2378 3584 2631 3529 
Q 2884 3475 3122 3366 
z
" transform="scale(0.015625)"/>
      </defs>
      <use xlink:href="#DejaVuSans-43"/>
      <use xlink:href="#DejaVuSans-6c" x="69.824219"/>
      <use xlink:href="#DejaVuSans-6f" x="97.607422"/>
      <use xlink:href="#DejaVuSans-73" x="158.789062"/>
      <use xlink:href="#DejaVuSans-65" x="210.888672"/>
      <use xlink:href="#DejaVuSans-20" x="272.412109"/>
      <use xlink:href="#DejaVuSans-50" x="304.199219"/>
      <use xlink:href="#DejaVuSans-72" x="362.751953"/>
      <use xlink:href="#DejaVuSans-69" x="403.865234"/>
      <use xlink:href="#DejaVuSans-63" x="431.648438"/>
      <use xlink:href="#DejaVuSans-65" x="486.628906"/>
     </g>
    </g>
   </g>
   <g id="line2d_36">
    <path d="M 87.780455 256.342426 
L 88.162896 258.409453 
L 88.545338 251.388872 
L 89.692664 248.217302 
L 90.075106 246.542209 
L 90.457548 243.085596 
L 90.83999 242.444248 
L 91.222431 243.762574 
L 92.369757 244.29703 
L 92.752199 243.513161 
L 93.134641 243.798204 
L 93.517083 241.76727 
L 93.899524 237.241281 
L 95.429292 242.194835 
L 95.811734 244.475182 
L 96.194176 243.299378 
L 96.576618 240.484112 
L 97.723943 242.729292 
L 98.106385 242.052314 
L 98.488827 238.915911 
L 98.871269 237.455064 
L 99.253711 233.499162 
L 100.401036 232.964706 
L 100.783478 232.608401 
L 101.16592 234.319124 
L 101.548362 239.4152 
L 101.930804 240.448482 
L 103.078129 239.379569 
L 103.843013 233.677777 
L 104.225455 232.857814 
L 104.607897 229.116157 
L 106.137664 228.403549 
L 106.520106 227.405435 
L 106.902548 231.076293 
L 107.28499 230.398853 
L 108.432316 230.006918 
L 108.814758 230.755157 
L 109.197199 229.864396 
L 109.579641 232.216467 
L 109.962083 227.939891 
L 111.109409 227.512326 
L 111.491851 228.296658 
L 111.874292 231.290076 
L 112.256734 232.679662 
L 112.639176 237.027499 
L 114.168944 231.967054 
L 114.551386 229.614983 
L 114.933827 229.36557 
L 115.316269 229.459042 
L 116.463595 226.190761 
L 116.846037 226.837199 
L 117.610921 223.065927 
L 117.993362 229.60249 
L 119.140688 229.494673 
L 119.52313 226.118575 
L 119.905572 227.806624 
L 120.288014 226.908922 
L 120.670456 227.268003 
L 121.817781 224.143169 
L 122.200223 225.795587 
L 122.582665 228.093981 
L 122.965107 226.118575 
L 123.347549 221.916499 
L 124.494874 220.839257 
L 124.877316 223.820181 
L 125.259758 222.922017 
L 125.6422 222.742477 
L 126.024642 222.096039 
L 127.171967 223.532824 
L 127.554409 221.952592 
L 127.936851 222.27558 
L 128.319293 223.425008 
L 129.84906 218.324768 
L 130.231502 218.719941 
L 130.613944 223.029834 
L 130.996386 223.784088 
L 131.378828 226.908922 
L 132.908595 227.304096 
L 133.673479 236.103422 
L 134.055921 233.984106 
L 135.203247 233.768935 
L 135.585689 235.779971 
L 136.350572 235.779971 
L 136.733014 234.70273 
L 137.88034 238.653542 
L 138.262782 235.887788 
L 139.027665 233.445485 
L 139.410107 235.779971 
L 140.557433 235.672617 
L 140.939875 233.014681 
L 141.322317 236.606412 
L 141.704759 244.25631 
L 142.0872 243.430332 
L 143.616968 245.728725 
L 143.99941 247.129417 
L 144.381852 249.89517 
L 144.764293 253.666442 
L 145.911619 250.972412 
L 146.294061 247.273327 
L 146.676503 249.679537 
L 147.058945 245.693095 
L 147.441387 244.687114 
L 148.588712 244.040676 
L 148.971154 243.609872 
L 149.353596 246.734706 
L 149.736038 244.184586 
L 150.11848 245.620908 
L 151.265805 243.789412 
L 151.648247 240.736302 
L 152.030689 240.988028 
L 152.413131 236.031698 
L 152.795573 234.378817 
L 153.942898 236.444456 
L 154.32534 238.25698 
L 154.707782 234.777692 
L 155.090224 236.481012 
L 155.472666 233.835106 
L 156.619992 233.617621 
L 157.002433 237.314393 
L 157.384875 236.408362 
L 158.149759 236.082136 
L 159.679526 235.574981 
L 160.061968 232.638942 
L 160.44441 232.16788 
L 160.826852 231.1892 
L 161.974178 233.291395 
L 162.739061 238.365722 
L 163.121503 238.329166 
L 163.503945 237.2783 
L 164.651271 236.227434 
L 165.033713 235.611074 
L 165.416155 234.632394 
L 165.798596 237.242207 
L 166.181038 238.401815 
L 167.328364 239.307846 
L 167.710806 236.770682 
L 168.093248 237.495784 
L 168.47569 242.642298 
L 168.858131 245.831914 
L 170.005457 252.355983 
L 170.387899 252.609561 
L 170.770341 254.204138 
L 171.152783 248.151594 
L 171.535225 250.543459 
L 172.68255 253.080623 
L 173.064992 251.123263 
L 173.447434 259.495949 
L 173.829876 260.764299 
L 174.212318 258.082301 
L 175.359643 253.515591 
L 175.742085 255.29156 
L 176.124527 253.95056 
L 176.506969 254.892684 
L 176.889411 261.923908 
L 178.036736 261.054433 
L 178.419178 262.322783 
L 179.184062 256.415075 
L 179.566504 256.415075 
L 181.096271 257.429847 
L 181.861155 251.921014 
L 182.243597 250.797499 
L 183.390923 246.520461 
L 183.773364 243.947204 
L 184.155806 243.72972 
L 184.538248 245.106812 
L 184.92069 243.3674 
L 186.068016 235.937301 
L 186.450458 239.126917 
L 186.832899 240.213876 
L 187.215341 240.794143 
L 187.597783 240.610901 
L 188.745109 240.537789 
L 189.127551 244.086024 
L 189.509993 243.720002 
L 189.892434 246.609305 
L 190.274876 246.645861 
L 191.422202 248.21869 
L 192.187086 258.423335 
L 192.569527 256.192037 
L 192.951969 254.875563 
L 194.099295 256.740838 
L 194.481737 260.28861 
L 194.864179 258.423335 
L 195.629062 253.010287 
L 196.776388 253.119955 
L 197.15883 252.242151 
L 197.541272 255.204566 
L 197.923714 255.058342 
L 198.306156 256.155482 
L 199.453481 252.42493 
L 199.835923 249.681851 
L 200.218365 247.889687 
L 200.600807 248.804047 
L 200.983249 247.048439 
L 202.130574 248.291802 
L 202.513016 247.413998 
L 202.895458 251.839573 
L 203.2779 252.753933 
L 203.660342 247.926243 
L 204.807667 240.867255 
L 205.190109 240.574345 
L 205.572551 245.146607 
L 205.954993 241.854727 
L 206.337435 242.769087 
L 207.484761 244.012449 
L 208.249644 246.097523 
L 208.632086 246.682417 
L 209.014528 244.999921 
L 210.161854 247.670352 
L 210.544295 250.888658 
L 210.926737 248.730935 
L 211.309179 245.183163 
L 211.691621 245.914744 
L 212.838947 245.694946 
L 213.221389 247.706907 
L 213.60383 247.158106 
L 214.368714 249.352848 
L 215.51604 249.352848 
L 215.898482 252.571154 
L 216.280924 249.389404 
L 216.663365 250.413431 
L 217.045807 246.316858 
L 218.193133 246.57275 
L 218.575575 246.134079 
L 218.958017 246.499638 
L 219.340459 242.476639 
L 219.7229 244.159136 
L 220.870226 241.196258 
L 221.252668 241.050034 
L 221.63511 240.208786 
L 222.017552 240.281898 
L 222.399994 238.128803 
L 223.547319 235.802183 
L 223.929761 235.912776 
L 224.694645 235.986813 
L 225.077087 236.946983 
L 226.224412 237.665607 
L 226.606854 236.372732 
L 227.371738 234.318662 
L 227.75418 235.003506 
L 228.901505 233.215507 
L 229.283947 233.824 
L 229.666389 237.627663 
L 230.048831 235.954422 
L 230.431273 237.247297 
L 231.96104 237.133465 
L 232.343482 238.807169 
L 232.725924 238.426803 
L 233.108366 239.871917 
L 234.638133 243.903707 
L 235.020575 246.034129 
L 235.403017 246.870749 
L 235.785459 249.381074 
L 236.932785 255.353103 
L 237.315227 254.402187 
L 237.697668 256.608034 
L 238.08011 254.93433 
L 238.462552 261.476908 
L 239.609878 264.139472 
L 239.99232 263.416683 
L 240.374762 255.847302 
L 240.757203 257.97726 
L 241.139645 259.422837 
L 242.286971 260.449641 
L 243.051855 255.391047 
L 243.434296 256.037485 
L 243.816738 257.140639 
L 245.346506 258.852288 
L 245.728948 256.113836 
L 246.11139 256.341963 
L 246.493831 258.814344 
L 247.641157 268.323501 
L 248.023599 276.995575 
L 248.406041 282.663126 
L 248.788483 292.40041 
L 249.170925 292.552649 
L 250.31825 285.592224 
L 250.700692 291.069591 
L 251.083134 286.96145 
L 251.465576 293.465621 
L 251.848018 303.089074 
L 252.995343 335.648336 
L 253.377785 329.524531 
L 253.760227 336.67514 
L 254.142669 352.650525 
L 254.525111 342.304747 
L 255.672436 358.964976 
L 256.054878 358.242187 
L 256.43732 373.532727 
L 256.819762 367.333034 
L 257.202204 366.382118 
L 258.349529 373.08619 
L 258.731971 358.38656 
L 259.114413 353.370074 
L 259.496855 346.564664 
L 259.879297 354.575493 
L 261.026623 353.447813 
L 261.409064 351.736628 
L 261.791506 357.336619 
L 262.173948 347.497996 
L 262.55639 348.742284 
L 264.086158 339.992471 
L 264.468599 331.670686 
L 264.851041 332.876105 
L 266.380809 333.304132 
L 266.763251 333.926045 
L 267.528134 345.398115 
L 267.910576 332.720626 
L 269.057902 336.84265 
L 269.440344 339.098009 
L 270.205228 330.426398 
L 270.587669 330.114978 
L 271.734995 327.198374 
L 272.117437 324.048552 
L 272.499879 313.626886 
L 272.882321 316.971055 
L 273.264762 325.332173 
L 274.412088 320.510035 
L 274.79453 320.393427 
L 275.176972 324.165161 
L 275.559414 320.510035 
L 275.941856 313.937842 
L 277.089181 316.58236 
L 277.471623 319.187545 
L 277.854065 325.798608 
L 278.236507 324.2429 
L 278.618949 324.787537 
L 279.766274 313.354336 
L 280.148716 317.593431 
L 280.531158 311.721353 
L 280.9136 314.17106 
L 281.296042 315.104392 
L 282.825809 310.943499 
L 283.208251 308.960226 
L 283.590693 313.315467 
L 283.973135 314.015581 
L 285.120461 311.371064 
L 285.885344 302.465773 
L 286.267786 302.426903 
L 286.650228 290.37179 
L 287.797554 282.516439 
L 288.562437 297.993924 
L 288.944879 313.704625 
L 289.327321 309.893558 
L 290.474647 309.426661 
L 290.857089 304.954812 
L 291.23953 310.398862 
L 291.621972 308.493329 
L 292.004414 310.86576 
L 293.534182 309.99536 
L 293.916624 318.581365 
L 294.299065 315.785071 
L 294.681507 320.944541 
L 295.828833 319.014946 
L 296.211275 315.667075 
L 296.593717 319.290272 
L 296.976159 317.675797 
L 298.505926 317.242217 
L 298.888368 321.929237 
L 299.27081 322.047696 
L 299.653252 329.097892 
L 300.035694 324.765325 
L 301.183019 325.513564 
L 301.565461 320.62942 
L 301.947903 317.518005 
L 302.330345 318.18758 
L 302.712787 320.235635 
L 303.860112 322.638143 
L 304.242554 314.052137 
L 304.624996 315.903068 
L 305.007438 316.178857 
L 305.38988 317.006223 
L 306.537205 316.848431 
L 306.919647 319.369399 
L 307.302089 316.336649 
L 307.684531 322.165693 
L 308.066973 322.835267 
L 309.214298 322.323022 
L 309.59674 318.857154 
L 309.979182 317.321344 
L 310.361624 318.502701 
L 310.744066 318.305577 
L 311.891392 313.776349 
L 312.273833 314.288594 
L 312.656275 312.791653 
L 313.038717 315.745739 
L 313.421159 314.327926 
L 314.568485 315.194162 
L 315.333368 318.778489 
L 315.71581 321.929237 
L 316.098252 322.835267 
L 317.245578 318.935819 
L 317.62802 320.983874 
L 318.010462 324.017087 
L 318.392903 323.741298 
L 318.775345 321.22033 
L 320.305113 325.277108 
L 320.687555 325.946682 
L 321.069997 326.97071 
L 321.452438 327.40429 
L 322.982206 332.405968 
L 323.364648 331.5004 
L 323.74709 336.384081 
L 324.129531 336.266085 
L 325.276857 335.281389 
L 325.659299 336.226752 
L 326.041741 331.06682 
L 326.424183 330.870158 
L 328.336392 338.075832 
L 328.718834 343.800761 
L 329.483718 343.920609 
L 330.631043 341.078042 
L 331.013485 344.481441 
L 331.395927 344.841447 
L 331.778369 348.5248 
L 333.308136 343.880814 
L 333.690578 345.682233 
L 334.07302 344.000662 
L 334.455462 339.476987 
L 334.837904 341.478769 
L 335.98523 341.158558 
L 336.367671 343.079824 
L 336.750113 342.559712 
L 337.132555 341.078042 
L 337.514997 343.880814 
L 338.662323 346.442965 
L 339.044764 345.041811 
L 339.427206 347.323546 
L 339.809648 342.47966 
L 340.19209 343.079824 
L 341.721858 348.964859 
L 342.104299 353.809208 
L 342.486741 350.406271 
L 342.869183 349.765849 
L 344.016509 345.842338 
L 344.398951 346.523018 
L 344.781393 346.362913 
L 345.163834 346.362913 
L 345.546276 348.925064 
L 347.076044 328.107181 
L 347.458486 329.508336 
L 347.840928 333.871905 
L 348.223369 329.108072 
L 349.370695 320.180107 
L 349.753137 318.698899 
L 350.135579 322.942621 
L 350.518021 320.620628 
L 350.900463 321.381361 
L 352.047788 311.252604 
L 352.43023 303.365788 
L 352.812672 307.129193 
L 353.577556 308.970869 
L 354.724881 317.578161 
L 355.107323 316.897481 
L 355.489765 312.09339 
L 355.872207 310.491872 
L 356.254649 302.084481 
L 357.401974 305.888144 
L 357.784416 303.525893 
L 358.166858 303.165425 
L 358.5493 298.201228 
L 360.079067 305.888144 
L 360.461509 302.765161 
L 361.226393 304.326884 
L 361.608835 307.008883 
L 362.756161 310.051813 
L 363.138602 312.648206 
L 363.521044 309.2809 
L 363.903486 310.092071 
L 365.433254 311.066123 
L 365.815696 312.07997 
L 366.198137 309.686717 
L 366.580579 310.984682 
L 368.110347 310.741285 
L 368.875231 298.935585 
L 369.257672 296.501148 
L 369.640114 296.704287 
L 370.78744 294.067174 
L 371.169882 288.103474 
L 371.552324 289.482881 
L 371.934765 284.289631 
L 372.317207 291.308361 
L 374.229417 287.170142 
L 374.611859 293.174562 
L 374.9943 294.067174 
L 376.141626 295.811676 
L 376.524068 299.42238 
L 376.90651 301.653677 
L 377.288952 299.746755 
L 377.671394 305.22366 
L 378.818719 304.088114 
L 379.201161 302.343611 
L 379.583603 295.405859 
L 380.348487 292.079274 
L 381.495812 284.857867 
L 381.878254 286.764789 
L 382.260696 283.356762 
L 382.643138 286.155832 
L 383.02558 283.519181 
L 384.555347 278.975146 
L 384.937789 276.216333 
L 385.320231 280.476251 
L 385.702673 277.393063 
L 386.849999 270.901848 
L 387.23244 267.696961 
L 387.614882 260.718489 
L 388.379766 269.400743 
L 389.527092 264.329192 
L 389.909533 265.424943 
L 390.291975 262.503712 
L 390.674417 257.676021 
L 391.056859 249.927099 
L 392.204185 249.521282 
L 392.586627 253.294405 
L 392.969068 247.939199 
L 393.35151 247.858221 
L 393.733952 247.411684 
L 394.881278 249.886379 
L 395.26372 256.012497 
L 395.646162 254.389693 
L 396.028603 263.842398 
L 396.411045 263.80214 
L 397.558371 265.728959 
L 397.940813 268.64001 
L 398.323255 263.720236 
L 398.705697 262.982177 
L 399.088138 257.980037 
L 400.235464 260.439924 
L 401.000348 263.597149 
L 401.38279 258.471922 
L 402.912557 263.392159 
L 403.294999 263.924764 
L 403.677441 263.227888 
L 404.059883 265.852046 
L 404.442325 267.163893 
L 405.58965 268.721914 
L 405.972092 268.516924 
L 406.354534 263.064081 
L 407.119418 266.30321 
L 408.266743 266.508201 
L 408.649185 271.756053 
L 409.031627 269.296165 
L 409.414069 271.592245 
L 409.796511 269.829234 
L 410.943836 268.516924 
L 411.326278 266.13894 
L 411.70872 259.291884 
L 412.091162 256.995804 
L 412.473604 262.244119 
L 413.62093 256.668189 
L 414.003371 256.545102 
L 414.385813 249.820671 
L 414.768255 248.713814 
L 415.150697 244.859713 
L 416.298023 244.777809 
L 416.680465 250.435642 
L 417.062906 249.410689 
L 417.445348 252.034847 
L 417.82779 245.433964 
L 418.975116 240.34992 
L 419.74 251.009894 
L 420.122441 251.337971 
L 420.504883 250.886807 
L 421.652209 248.754997 
L 422.034651 253.141703 
L 422.417093 251.256067 
L 422.799534 251.091797 
L 423.181976 250.681816 
L 424.711744 242.441009 
L 425.094186 238.299551 
L 425.476628 237.684579 
L 425.859069 236.167741 
L 427.006395 237.151974 
L 427.388837 235.183972 
L 427.771279 236.618906 
L 428.153721 236.9058 
L 428.536163 237.684579 
L 429.683488 238.668812 
L 430.06593 234.363547 
L 430.448372 235.593953 
L 431.213256 249.943757 
L 432.360581 240.789979 
L 432.743023 239.299054 
L 433.125465 238.677604 
L 433.507907 236.730887 
L 433.890349 235.530096 
L 435.037674 243.275316 
L 435.420116 244.352095 
L 435.802558 241.618733 
L 436.185 237.7253 
L 436.567442 238.222275 
L 438.097209 245.594995 
L 438.479651 249.157112 
L 438.862093 250.399549 
L 439.244535 245.843483 
L 440.391861 246.174799 
L 440.774302 247.831383 
L 441.156744 254.292982 
L 441.539186 257.233649 
L 441.921628 263.115444 
L 443.068954 270.239215 
L 443.451396 267.629865 
L 443.833837 260.754119 
L 444.216279 263.032615 
L 444.598721 263.778078 
L 445.746047 258.807403 
L 446.128489 260.712936 
L 446.893372 256.860686 
L 447.275814 260.174315 
L 448.42314 261.706886 
L 448.805582 258.227599 
L 449.188024 263.819261 
L 449.952907 259.67734 
L 451.100233 262.576824 
L 451.482675 259.014707 
L 451.865117 257.399307 
L 452.247559 257.606611 
L 452.63 260.050303 
L 453.777326 263.819261 
L 454.159768 265.890453 
L 454.924652 275.085415 
L 455.307094 274.671269 
L 456.454419 267.547036 
L 456.836861 264.275053 
L 457.219303 262.742482 
L 457.601745 265.807623 
L 457.984187 260.505632 
L 459.131512 262.90814 
L 459.513954 264.275053 
L 459.896396 267.215719 
L 460.278838 262.203861 
L 460.66128 263.363932 
L 462.191047 264.564723 
L 462.573489 267.13289 
L 462.955931 266.718744 
L 463.338373 266.801573 
L 464.485699 261.127082 
L 464.86814 264.067748 
L 465.250582 256.571016 
L 465.633024 258.931878 
L 466.015466 260.464449 
L 467.162792 266.702549 
L 467.545234 266.241204 
L 468.310117 252.951983 
L 468.692559 251.358794 
L 469.839885 243.770903 
L 470.222327 243.016186 
L 470.604768 243.016186 
L 470.98721 246.370073 
L 471.369652 239.033445 
L 472.89942 234.003078 
L 473.281862 236.434276 
L 473.664303 234.673578 
L 474.046745 227.588677 
L 475.194071 228.469257 
L 475.576513 228.259639 
L 475.958955 228.469257 
L 476.341397 225.576252 
L 476.723838 224.402762 
L 477.871164 224.23479 
L 478.636048 219.539441 
L 479.01849 224.067281 
L 479.400932 221.803592 
L 480.930699 216.814408 
L 481.313141 223.941417 
L 481.695583 222.222828 
L 482.078025 223.815554 
L 483.22535 219.665304 
L 483.990234 223.983526 
L 484.372676 223.648045 
L 484.755118 220.503776 
L 485.902443 218.281733 
L 486.284885 217.275753 
L 486.667327 223.815554 
L 487.049769 222.893328 
L 487.432211 223.480536 
L 488.579536 221.468111 
L 488.961978 221.090521 
L 489.34442 224.821998 
L 489.726862 226.247215 
L 490.109304 235.554158 
L 491.25663 231.487663 
L 491.639071 224.318545 
L 492.021513 221.971101 
L 492.786397 231.738927 
L 493.933723 230.397464 
L 494.316165 235.889639 
L 494.698606 238.320837 
L 495.081048 231.738927 
L 495.46349 233.583842 
L 496.610816 230.146201 
L 496.993258 224.654026 
L 497.3757 224.696134 
L 497.758141 226.540587 
L 498.140583 224.779889 
L 499.287909 231.445554 
L 500.052793 233.541733 
L 500.435235 232.074408 
L 500.817676 236.811865 
L 501.965002 239.635461 
L 502.347444 233.223373 
L 502.729886 231.737076 
L 503.112328 231.609824 
L 504.642095 226.513749 
L 505.024537 226.683572 
L 505.789421 229.656167 
L 506.171863 229.061555 
L 507.319188 221.757782 
L 507.70163 213.349465 
L 508.084072 213.392037 
L 508.466514 207.786493 
L 508.848956 204.261857 
L 509.996281 205.068863 
L 510.378723 196.235758 
L 510.761165 195.72629 
L 511.143607 197.085336 
L 511.526049 190.8005 
L 513.055816 189.696419 
L 513.8207 194.197421 
L 514.203142 199.548462 
L 515.350468 197.764627 
L 515.732909 187.403116 
L 516.115351 187.870476 
L 516.497793 184.85531 
L 516.880235 186.044533 
L 518.027561 184.812738 
L 518.410002 174.833444 
L 518.792444 173.899187 
L 519.174886 176.659388 
L 519.557328 172.157924 
L 520.704654 168.421357 
L 521.087096 174.790873 
L 521.469537 172.370318 
L 521.851979 174.196261 
L 522.234421 165.745836 
L 523.381747 172.795107 
L 523.764189 175.852382 
L 524.146631 173.51697 
L 524.529072 173.98433 
L 524.911514 175.767702 
L 526.441282 180.438988 
L 526.823724 177.508965 
L 527.206166 179.759234 
L 527.588607 172.243066 
L 529.118375 162.008807 
L 529.500817 155.086788 
L 529.883259 154.237673 
L 530.265701 145.277317 
L 531.413026 140.563921 
L 531.795468 135.467846 
L 532.17791 145.532283 
L 532.560352 135.765383 
L 532.942794 138.398332 
L 534.090119 148.165232 
L 534.472561 159.758075 
L 534.855003 161.159692 
L 535.237445 150.713038 
L 535.619887 151.010575 
L 536.767212 138.363165 
L 537.149654 140.763822 
L 537.532096 135.190669 
L 537.914538 134.376259 
L 538.29698 127.13079 
L 539.444305 135.490983 
L 539.826747 136.348426 
L 540.209189 132.532732 
L 540.591631 137.034196 
L 540.974073 134.376259 
L 542.121399 133.947306 
L 542.50384 139.135003 
L 542.886282 137.20587 
L 543.268724 132.918651 
L 543.651166 123.787084 
L 544.798492 134.033374 
L 545.563375 123.529804 
L 545.945817 122.415081 
L 547.475585 117.399058 
L 547.858027 120.228669 
L 548.240469 118.899701 
L 549.005352 138.063314 
L 550.152678 148.866735 
L 550.53512 148.438244 
L 550.917562 143.807678 
L 551.300003 134.075946 
L 551.682445 142.564778 
L 552.829771 137.420115 
L 553.212213 128.245513 
L 553.594655 114.269134 
L 553.977097 119.542436 
L 554.359538 109.253574 
L 555.506864 138.663478 
L 555.889306 135.705228 
L 556.271748 131.289369 
L 556.65419 129.874795 
L 557.036632 118.427713 
L 558.183957 109.296146 
L 558.566399 105.180601 
L 558.948841 114.397774 
L 559.331283 115.684171 
L 559.713725 114.183529 
L 560.86105 104.923321 
L 561.243492 103.551319 
L 561.625934 96.091605 
L 562.008376 92.019094 
L 562.390818 85.202578 
L 563.920585 90.904371 
L 564.303027 84.816659 
L 564.685469 86.016988 
L 565.067911 81.000965 
L 566.215237 81.429918 
L 566.597678 69.982836 
L 566.98012 69.125392 
L 567.745004 84.43074 
L 568.89233 104.280123 
L 569.274771 103.594353 
L 569.657213 111.568626 
L 570.422097 149.681144 
L 571.951865 133.359173 
L 572.716748 158.416613 
L 573.09919 154.384822 
L 574.246516 145.281019 
L 574.628958 136.65383 
L 575.0114 148.055564 
L 575.393841 154.731872 
L 575.776283 150.092976 
L 577.306051 162.578893 
L 577.688493 167.737438 
L 578.070935 157.02934 
L 578.453376 157.159368 
L 579.600702 160.107438 
L 579.983144 166.047075 
L 580.365586 166.52369 
L 580.748028 172.159312 
L 581.13047 167.390851 
L 582.277795 160.584515 
L 582.660237 151.220193 
L 583.042679 148.185592 
L 583.425121 153.734683 
L 583.807563 156.292669 
L 584.954888 144.977466 
L 585.33733 147.882039 
L 585.719772 140.729117 
L 586.102214 138.908264 
L 586.484656 124.775481 
L 587.631981 131.798375 
L 588.014423 132.579005 
L 588.779307 154.081732 
L 589.161749 147.925536 
L 590.309074 146.278208 
L 590.691516 140.68562 
L 591.073958 138.344655 
L 591.4564 127.116446 
L 591.838842 124.558459 
L 592.986168 131.19127 
L 593.368609 131.9719 
L 593.751051 129.197355 
L 594.133493 120.180082 
L 594.515935 120.266613 
L 595.663261 120.917215 
L 596.045703 108.518292 
L 596.428144 104.139452 
L 596.810586 101.364907 
L 597.193028 105.613719 
L 598.340354 100.194656 
L 598.722796 112.550082 
L 599.105238 115.758208 
L 599.487679 124.3419 
L 599.870121 118.099173 
L 601.399889 121.307299 
L 601.782331 125.295592 
L 602.164772 123.821789 
L 602.547214 115.324628 
L 603.69454 108.908376 
L 604.076982 117.882151 
L 604.459424 108.084711 
L 605.224307 124.688487 
L 606.371633 124.487198 
L 606.754075 126.853613 
L 607.136517 131.805779 
L 607.518959 132.988987 
L 607.901401 155.865567 
L 609.048726 163.447443 
L 609.431168 160.072733 
L 609.81361 146.574819 
L 610.196052 146.574819 
L 610.578494 149.11661 
L 611.725819 131.280115 
L 612.108261 116.949282 
L 612.873145 103.450906 
L 613.255587 106.255992 
L 614.785354 116.423155 
L 615.167796 113.618532 
L 615.550238 99.2877 
L 615.93268 112.917029 
L 617.080005 108.53495 
L 617.462447 105.423073 
L 617.844889 94.817239 
L 618.227331 94.46695 
L 618.609773 83.773659 
L 620.13954 81.582157 
L 620.521982 76.36716 
L 621.286866 73.606033 
L 622.434192 70.319243 
L 622.816634 66.506325 
L 623.199075 76.104327 
L 623.581517 68.9167 
L 623.963959 64.09595 
L 625.111285 57.215577 
L 625.493727 56.821329 
L 625.876169 76.761408 
L 626.25861 68.128203 
L 626.641052 56.601994 
L 627.788378 56.73341 
L 628.17082 52.438788 
L 628.553262 60.853119 
L 628.935704 59.976704 
L 629.318145 63.175575 
L 630.465471 68.609908 
L 630.847913 56.207746 
L 631.230355 60.633784 
L 631.995238 62.123783 
L 633.142564 73.167825 
L 633.525006 67.251325 
L 633.907448 65.279621 
L 634.28989 66.594244 
L 634.672332 68.96066 
L 635.819657 80.705742 
L 636.202099 90.829408 
L 636.584541 91.705824 
L 636.966983 93.371199 
L 637.349425 102.399114 
L 638.49675 92.889031 
L 638.879192 85.833283 
L 639.644076 90.43516 
L 640.026518 95.036574 
L 641.173843 95.080996 
L 641.938727 82.37343 
L 642.321169 91.184787 
L 642.703611 79.274046 
L 644.233378 75.156651 
L 644.61582 83.879163 
L 644.998262 79.894108 
L 645.380704 77.458746 
L 646.910472 91.05152 
L 647.292913 91.095942 
L 648.057797 77.060333 
L 649.205123 78.432798 
L 649.587565 75.687868 
L 649.970006 74.492166 
L 650.352448 67.053738 
L 650.73489 66.478098 
L 652.264658 65.63685 
L 652.6471 72.942937 
L 653.411983 64.131581 
L 654.559309 63.600364 
L 654.941751 65.150056 
L 655.324193 65.105633 
L 655.706635 52.486912 
L 656.089076 60.811011 
L 657.236402 70.06474 
L 657.618844 66.566943 
L 658.383728 83.303523 
L 658.76617 84.144771 
L 659.913495 85.871227 
L 660.295937 73.562536 
L 661.060821 80.380903 
L 661.443263 65.327282 
L 662.590588 66.345294 
L 662.97303 66.21249 
L 663.355472 72.986897 
L 663.737914 76.839147 
L 664.120356 90.653107 
L 665.650123 92.51283 
L 666.032565 94.992152 
L 666.415007 89.413446 
L 666.797449 89.900704 
L 667.944774 88.793847 
L 668.327216 94.195326 
L 668.709658 86.889702 
L 669.0921 83.569132 
L 669.474542 78.388839 
L 670.621868 78.211612 
L 671.004309 84.941597 
L 671.386751 88.837806 
L 672.151635 98.888824 
L 673.298961 106.327253 
L 673.681403 102.785034 
L 674.063844 122.222122 
L 674.446286 118.503139 
L 674.828728 123.94904 
L 675.976054 117.126509 
L 676.358496 105.091756 
L 676.740938 112.742116 
L 677.123379 117.618856 
L 677.505821 116.276469 
L 678.653147 108.850071 
L 679.418031 98.336321 
L 679.800473 96.725548 
L 680.182914 94.175428 
L 681.33024 77.398591 
L 681.712682 84.422874 
L 682.095124 78.696093 
L 682.477566 84.557066 
L 684.007333 81.514598 
L 684.389775 77.890938 
L 684.772217 77.622553 
L 685.154659 75.206626 
L 685.537101 74.490778 
L 686.684426 79.098671 
L 687.066868 77.577668 
L 687.44931 78.920056 
L 687.831752 82.319753 
L 688.214194 84.557066 
L 689.361519 78.740978 
L 689.743961 85.988298 
L 690.126403 91.044116 
L 690.508845 89.701728 
L 690.891287 83.885641 
L 692.038612 88.180726 
L 692.421054 104.554986 
L 692.803496 111.355306 
L 693.185938 115.292236 
L 693.56838 105.807604 
L 694.715706 105.807604 
L 695.098147 105.673411 
L 695.863031 113.994734 
L 697.392799 111.668576 
L 697.77524 120.347591 
L 698.157682 113.726349 
L 698.922566 108.447031 
L 700.069892 109.923611 
L 700.452334 106.120874 
L 700.834775 104.554986 
L 701.217217 110.952729 
L 701.599659 112.339539 
L 703.129427 115.963199 
L 703.511869 122.092556 
L 703.89431 117.842356 
L 704.276752 107.284184 
L 705.424078 109.655226 
L 705.80652 106.791836 
L 706.188962 97.307204 
L 706.953845 100.886441 
L 708.101171 104.375909 
L 708.483613 102.675829 
L 708.866055 106.389259 
L 709.248497 102.452329 
L 709.630939 102.989099 
L 711.160706 111.085996 
L 711.543148 108.287851 
L 711.92559 113.071582 
L 712.308032 115.599028 
L 713.455357 109.325761 
L 713.837799 108.513202 
L 714.985125 98.40388 
L 716.13245 97.545974 
L 716.897334 99.576908 
L 717.279776 107.791339 
L 717.662218 100.118768 
L 718.809543 97.275275 
L 719.191985 89.196424 
L 719.574427 85.721302 
L 719.956869 87.16549 
L 720.339311 97.140157 
L 721.486637 97.86202 
L 721.869078 94.161084 
L 722.25152 91.995032 
L 723.016404 84.277113 
L 724.546172 76.108029 
L 724.928613 75.972911 
L 725.311055 78.45501 
L 725.693497 77.281519 
L 726.840823 69.924995 
L 727.223265 71.775463 
L 727.605707 76.920588 
L 727.988148 72.993838 
L 728.37059 72.452441 
L 729.517916 72.001276 
L 729.900358 70.060575 
L 730.2828 65.095916 
L 730.665241 65.140801 
L 731.047683 59.003114 
L 732.195009 60.718001 
L 732.577451 69.112436 
L 732.959893 72.542674 
L 733.724776 63.922426 
L 734.872102 66.449872 
L 735.254544 69.518715 
L 735.636986 70.51174 
L 736.019428 73.219652 
L 736.40187 69.428482 
L 737.931637 65.682661 
L 738.314079 63.696612 
L 738.696521 63.425913 
L 739.078963 55.211945 
L 740.60873 53.04543 
L 740.991172 52.864964 
L 741.373614 53.271244 
L 741.756056 49.299609 
L 742.903381 54.760318 
L 743.285823 45.10216 
L 743.668265 48.261237 
L 744.050707 43.387273 
L 744.433149 49.480075 
L 745.580475 45.960992 
L 746.345358 53.735365 
L 746.7278 59.3733 
L 747.110242 58.691232 
L 748.257568 53.599321 
L 748.640009 55.963423 
L 749.022451 45.779138 
L 749.404893 45.324272 
L 749.787335 53.781175 
L 750.934661 61.964603 
L 751.317103 62.237616 
L 751.699544 74.87716 
L 752.081986 77.286609 
L 752.464428 74.967856 
L 753.611754 61.964603 
L 753.994196 61.464852 
L 754.376638 66.647921 
L 754.759079 66.193055 
L 755.141521 57.418254 
L 756.288847 54.690445 
L 757.053731 46.64306 
L 757.436173 47.370476 
L 757.818614 54.372085 
L 758.96594 61.009986 
L 759.348382 66.693269 
L 759.730824 67.420685 
L 760.113266 70.512202 
L 760.495708 79.969071 
L 761.643033 78.696093 
L 762.025475 77.423116 
L 762.407917 78.332385 
L 762.790359 66.647921 
L 763.172801 70.648708 
L 764.320126 75.104362 
L 764.702568 83.742656 
L 765.08501 88.51667 
L 765.467452 89.653141 
L 765.849894 85.515848 
L 766.997219 82.788039 
L 767.379661 79.378161 
L 767.762103 80.105577 
L 768.144545 87.6074 
L 768.526987 79.696521 
L 769.674312 79.15096 
L 770.056754 80.014419 
L 770.439196 80.196736 
L 771.20408 78.605398 
L 772.351406 79.969071 
L 772.733847 79.878375 
L 773.116289 82.742691 
L 773.881173 78.195879 
L 775.028499 79.969071 
L 775.793382 92.335603 
L 776.175824 94.882021 
L 776.558266 90.880771 
L 777.705592 90.426368 
L 778.088034 95.564089 
L 778.470476 90.426368 
L 778.852917 79.423509 
L 779.235359 81.469713 
L 780.382685 78.338864 
L 780.765127 73.702744 
L 781.147569 77.329181 
L 781.912452 74.666617 
L 783.44222 71.315969 
L 783.824662 73.060009 
L 784.207104 79.02741 
L 784.589545 79.899661 
L 784.589545 79.899661 
" clip-path="url(#pcadba9885d)" style="fill: none; stroke: #1f77b4; stroke-width: 1.5; stroke-linecap: square"/>
   </g>
   <g id="patch_7">
    <path d="M 52.94 390.04 
L 52.94 26.88 
" style="fill: none; stroke: #000000; stroke-width: 0.8; stroke-linejoin: miter; stroke-linecap: square"/>
   </g>
   <g id="patch_8">
    <path d="M 819.43 390.04 
L 819.43 26.88 
" style="fill: none; stroke: #000000; stroke-width: 0.8; stroke-linejoin: miter; stroke-linecap: square"/>
   </g>
   <g id="patch_9">
    <path d="M 52.94 390.04 
L 819.43 390.04 
" style="fill: none; stroke: #000000; stroke-width: 0.8; stroke-linejoin: miter; stroke-linecap: square"/>
   </g>
   <g id="patch_10">
    <path d="M 52.94 26.88 
L 819.43 26.88 
" style="fill: none; stroke: #000000; stroke-width: 0.8; stroke-linejoin: miter; stroke-linecap: square"/>
   </g>
   <g id="text_25">
    <!-- Stock Trading Performance for XLE -->
    <g transform="translate(332.428125 20.88) scale(0.12 -0.12)">
     <defs>
      <path id="DejaVuSans-53" d="M 3425 4513 
L 3425 3897 
Q 3066 4069 2747 4153 
Q 2428 4238 2131 4238 
Q 1616 4238 1336 4038 
Q 1056 3838 1056 3469 
Q 1056 3159 1242 3001 
Q 1428 2844 1947 2747 
L 2328 2669 
Q 3034 2534 3370 2195 
Q 3706 1856 3706 1288 
Q 3706 609 3251 259 
Q 2797 -91 1919 -91 
Q 1588 -91 1214 -16 
Q 841 59 441 206 
L 441 856 
Q 825 641 1194 531 
Q 1563 422 1919 422 
Q 2459 422 2753 634 
Q 3047 847 3047 1241 
Q 3047 1584 2836 1778 
Q 2625 1972 2144 2069 
L 1759 2144 
Q 1053 2284 737 2584 
Q 422 2884 422 3419 
Q 422 4038 858 4394 
Q 1294 4750 2059 4750 
Q 2388 4750 2728 4690 
Q 3069 4631 3425 4513 
z
" transform="scale(0.015625)"/>
      <path id="DejaVuSans-6b" d="M 581 4863 
L 1159 4863 
L 1159 1991 
L 2875 3500 
L 3609 3500 
L 1753 1863 
L 3688 0 
L 2938 0 
L 1159 1709 
L 1159 0 
L 581 0 
L 581 4863 
z
" transform="scale(0.015625)"/>
      <path id="DejaVuSans-54" d="M -19 4666 
L 3928 4666 
L 3928 4134 
L 2272 4134 
L 2272 0 
L 1638 0 
L 1638 4134 
L -19 4134 
L -19 4666 
z
" transform="scale(0.015625)"/>
      <path id="DejaVuSans-64" d="M 2906 2969 
L 2906 4863 
L 3481 4863 
L 3481 0 
L 2906 0 
L 2906 525 
Q 2725 213 2448 61 
Q 2172 -91 1784 -91 
Q 1150 -91 751 415 
Q 353 922 353 1747 
Q 353 2572 751 3078 
Q 1150 3584 1784 3584 
Q 2172 3584 2448 3432 
Q 2725 3281 2906 2969 
z
M 947 1747 
Q 947 1113 1208 752 
Q 1469 391 1925 391 
Q 2381 391 2643 752 
Q 2906 1113 2906 1747 
Q 2906 2381 2643 2742 
Q 2381 3103 1925 3103 
Q 1469 3103 1208 2742 
Q 947 2381 947 1747 
z
" transform="scale(0.015625)"/>
      <path id="DejaVuSans-67" d="M 2906 1791 
Q 2906 2416 2648 2759 
Q 2391 3103 1925 3103 
Q 1463 3103 1205 2759 
Q 947 2416 947 1791 
Q 947 1169 1205 825 
Q 1463 481 1925 481 
Q 2391 481 2648 825 
Q 2906 1169 2906 1791 
z
M 3481 434 
Q 3481 -459 3084 -895 
Q 2688 -1331 1869 -1331 
Q 1566 -1331 1297 -1286 
Q 1028 -1241 775 -1147 
L 775 -588 
Q 1028 -725 1275 -790 
Q 1522 -856 1778 -856 
Q 2344 -856 2625 -561 
Q 2906 -266 2906 331 
L 2906 616 
Q 2728 306 2450 153 
Q 2172 0 1784 0 
Q 1141 0 747 490 
Q 353 981 353 1791 
Q 353 2603 747 3093 
Q 1141 3584 1784 3584 
Q 2172 3584 2450 3431 
Q 2728 3278 2906 2969 
L 2906 3500 
L 3481 3500 
L 3481 434 
z
" transform="scale(0.015625)"/>
      <path id="DejaVuSans-66" d="M 2375 4863 
L 2375 4384 
L 1825 4384 
Q 1516 4384 1395 4259 
Q 1275 4134 1275 3809 
L 1275 3500 
L 2222 3500 
L 2222 3053 
L 1275 3053 
L 1275 0 
L 697 0 
L 697 3053 
L 147 3053 
L 147 3500 
L 697 3500 
L 697 3744 
Q 697 4328 969 4595 
Q 1241 4863 1831 4863 
L 2375 4863 
z
" transform="scale(0.015625)"/>
      <path id="DejaVuSans-6d" d="M 3328 2828 
Q 3544 3216 3844 3400 
Q 4144 3584 4550 3584 
Q 5097 3584 5394 3201 
Q 5691 2819 5691 2113 
L 5691 0 
L 5113 0 
L 5113 2094 
Q 5113 2597 4934 2840 
Q 4756 3084 4391 3084 
Q 3944 3084 3684 2787 
Q 3425 2491 3425 1978 
L 3425 0 
L 2847 0 
L 2847 2094 
Q 2847 2600 2669 2842 
Q 2491 3084 2119 3084 
Q 1678 3084 1418 2786 
Q 1159 2488 1159 1978 
L 1159 0 
L 581 0 
L 581 3500 
L 1159 3500 
L 1159 2956 
Q 1356 3278 1631 3431 
Q 1906 3584 2284 3584 
Q 2666 3584 2933 3390 
Q 3200 3197 3328 2828 
z
" transform="scale(0.015625)"/>
      <path id="DejaVuSans-58" d="M 403 4666 
L 1081 4666 
L 2241 2931 
L 3406 4666 
L 4084 4666 
L 2584 2425 
L 4184 0 
L 3506 0 
L 2194 1984 
L 872 0 
L 191 0 
L 1856 2491 
L 403 4666 
z
" transform="scale(0.015625)"/>
      <path id="DejaVuSans-4c" d="M 628 4666 
L 1259 4666 
L 1259 531 
L 3531 531 
L 3531 0 
L 628 0 
L 628 4666 
z
" transform="scale(0.015625)"/>
      <path id="DejaVuSans-45" d="M 628 4666 
L 3578 4666 
L 3578 4134 
L 1259 4134 
L 1259 2753 
L 3481 2753 
L 3481 2222 
L 1259 2222 
L 1259 531 
L 3634 531 
L 3634 0 
L 628 0 
L 628 4666 
z
" transform="scale(0.015625)"/>
     </defs>
     <use xlink:href="#DejaVuSans-53"/>
     <use xlink:href="#DejaVuSans-74" x="63.476562"/>
     <use xlink:href="#DejaVuSans-6f" x="102.685547"/>
     <use xlink:href="#DejaVuSans-63" x="163.867188"/>
     <use xlink:href="#DejaVuSans-6b" x="218.847656"/>
     <use xlink:href="#DejaVuSans-20" x="276.757812"/>
     <use xlink:href="#DejaVuSans-54" x="308.544922"/>
     <use xlink:href="#DejaVuSans-72" x="354.878906"/>
     <use xlink:href="#DejaVuSans-61" x="395.992188"/>
     <use xlink:href="#DejaVuSans-64" x="457.271484"/>
     <use xlink:href="#DejaVuSans-69" x="520.748047"/>
     <use xlink:href="#DejaVuSans-6e" x="548.53125"/>
     <use xlink:href="#DejaVuSans-67" x="611.910156"/>
     <use xlink:href="#DejaVuSans-20" x="675.386719"/>
     <use xlink:href="#DejaVuSans-50" x="707.173828"/>
     <use xlink:href="#DejaVuSans-65" x="763.851562"/>
     <use xlink:href="#DejaVuSans-72" x="825.375"/>
     <use xlink:href="#DejaVuSans-66" x="866.488281"/>
     <use xlink:href="#DejaVuSans-6f" x="901.693359"/>
     <use xlink:href="#DejaVuSans-72" x="962.875"/>
     <use xlink:href="#DejaVuSans-6d" x="1002.238281"/>
     <use xlink:href="#DejaVuSans-61" x="1099.650391"/>
     <use xlink:href="#DejaVuSans-6e" x="1160.929688"/>
     <use xlink:href="#DejaVuSans-63" x="1224.308594"/>
     <use xlink:href="#DejaVuSans-65" x="1279.289062"/>
     <use xlink:href="#DejaVuSans-20" x="1340.8125"/>
     <use xlink:href="#DejaVuSans-66" x="1372.599609"/>
     <use xlink:href="#DejaVuSans-6f" x="1407.804688"/>
     <use xlink:href="#DejaVuSans-72" x="1468.986328"/>
     <use xlink:href="#DejaVuSans-20" x="1510.099609"/>
     <use xlink:href="#DejaVuSans-58" x="1541.886719"/>
     <use xlink:href="#DejaVuSans-4c" x="1610.392578"/>
     <use xlink:href="#DejaVuSans-45" x="1666.105469"/>
    </g>
   </g>
  </g>
 </g>
 <defs>
  <clipPath id="pcadba9885d">
   <rect x="52.94" y="26.88" width="766.49" height="363.16"/>
  </clipPath>
 </defs>
</svg>
